<svg width="800" height="800" xmlns="http://www.w3.org/2000/svg"><line style="stroke: #aaa; stroke-width: 1;" x1="20.006438538778216" y1="20.02008934435338" x2="172.00150294810115" y2="20.02453734977479"></line><line style="stroke: #aaa; stroke-width: 1;" x1="20.006438538778216" y1="20.02008934435338" x2="20.000900423370783" y2="172.02063144822418"></line><line style="stroke: #aaa; stroke-width: 1.41421;" x1="20.006438538778216" y1="20.02008934435338" x2="171.99967896720187" y2="172.02367136786634"></line><line style="stroke: #aaa; stroke-width: 1.41421;" x1="172.00150294810115" y1="20.02453734977479" x2="20.000900423370783" y2="172.02063144822418"></line><line style="stroke: #aaa; stroke-width: 1;" x1="172.00150294810115" y1="20.02453734977479" x2="323.99413528429517" y2="20.02390249295672"></line><line style="stroke: #aaa; stroke-width: 1;" x1="172.00150294810115" y1="20.02453734977479" x2="171.99967896720187" y2="172.02367136786634"></line><line style="stroke: #aaa; stroke-width: 1.41421;" x1="172.00150294810115" y1="20.02453734977479" x2="324.00325518879174" y2="172.01911148840307"></line><line style="stroke: #aaa; stroke-width: 1.41421;" x1="323.99413528429517" y1="20.02390249295672" x2="171.99967896720187" y2="172.02367136786634"></line><line style="stroke: #aaa; stroke-width: 1;" x1="323.99413528429517" y1="20.02390249295672" x2="475.9940635440865" y2="20"></line><line style="stroke: #aaa; stroke-width: 1;" x1="323.99413528429517" y1="20.02390249295672" x2="324.00325518879174" y2="172.01911148840307"></line><line style="stroke: #aaa; stroke-width: 1.41421;" x1="323.99413528429517" y1="20.02390249295672" x2="476.00470343266574" y2="172.0125756611725"></line><line style="stroke: #aaa; stroke-width: 1.41421;" x1="475.9940635440865" y1="20" x2="324.00325518879174" y2="172.01911148840307"></line><line style="stroke: #aaa; stroke-width: 1;" x1="475.9940635440865" y1="20" x2="627.9985517561258" y2="20.013530621528847"></line><line style="stroke: #aaa; stroke-width: 1;" x1="475.9940635440865" y1="20" x2="476.00470343266574" y2="172.0125756611725"></line><line style="stroke: #aaa; stroke-width: 1.41421;" x1="475.9940635440865" y1="20" x2="627.9985517561258" y2="172.01455160893988"></line><line style="stroke: #aaa; stroke-width: 1.41421;" x1="627.9985517561258" y1="20.013530621528847" x2="476.00470343266574" y2="172.0125756611725"></line><line style="stroke: #aaa; stroke-width: 1;" x1="627.9985517561258" y1="20.013530621528847" x2="779.9984800159173" y2="20.020089323794554"></line><line style="stroke: #aaa; stroke-width: 1;" x1="627.9985517561258" y1="20.013530621528847" x2="627.9985517561258" y2="172.01455160893988"></line><line style="stroke: #aaa; stroke-width: 1.41421;" x1="627.9985517561258" y1="20.013530621528847" x2="779.9954400477517" y2="172.01379162902933"></line><line style="stroke: #aaa; stroke-width: 1.41421;" x1="779.9984800159173" y1="20.020089323794554" x2="627.9985517561258" y2="172.01455160893988"></line><line style="stroke: #aaa; stroke-width: 1;" x1="20.000900423370783" y1="172.02063144822418" x2="171.99967896720187" y2="172.02367136786634"></line><line style="stroke: #aaa; stroke-width: 1;" x1="20.000900423370783" y1="172.02063144822418" x2="20" y2="324.0181335158551"></line><line style="stroke: #aaa; stroke-width: 1.41421;" x1="20.000900423370783" y1="172.02063144822418" x2="172.00180694491772" y2="324.01509359621286"></line><line style="stroke: #aaa; stroke-width: 1.41421;" x1="171.99967896720187" y1="172.02367136786634" x2="20" y2="324.0181335158551"></line><line style="stroke: #aaa; stroke-width: 1;" x1="171.99967896720187" y1="172.02367136786634" x2="324.00325518879174" y2="172.01911148840307"></line><line style="stroke: #aaa; stroke-width: 1;" x1="171.99967896720187" y1="172.02367136786634" x2="172.00180694491772" y2="324.01509359621286"></line><line style="stroke: #aaa; stroke-width: 1.41421;" x1="171.99967896720187" y1="172.02367136786634" x2="324.00477517287453" y2="324.0135736363918"></line><line style="stroke: #aaa; stroke-width: 1.41421;" x1="324.00325518879174" y1="172.01911148840307" x2="172.00180694491772" y2="324.01509359621286"></line><line style="stroke: #aaa; stroke-width: 1;" x1="324.00325518879174" y1="172.01911148840307" x2="476.00470343266574" y2="172.0125756611725"></line><line style="stroke: #aaa; stroke-width: 1;" x1="324.00325518879174" y1="172.01911148840307" x2="324.00477517287453" y2="324.0135736363918"></line><line style="stroke: #aaa; stroke-width: 1.41421;" x1="324.00325518879174" y1="172.01911148840307" x2="476.003183448583" y2="324.0120536765707"></line><line style="stroke: #aaa; stroke-width: 1.41421;" x1="476.00470343266574" y1="172.0125756611725" x2="324.00477517287453" y2="324.0135736363918"></line><line style="stroke: #aaa; stroke-width: 1;" x1="476.00470343266574" y1="172.0125756611725" x2="627.9985517561258" y2="172.01455160893988"></line><line style="stroke: #aaa; stroke-width: 1;" x1="476.00470343266574" y1="172.0125756611725" x2="476.003183448583" y2="324.0120536765707"></line><line style="stroke: #aaa; stroke-width: 1.41421;" x1="476.00470343266574" y1="172.0125756611725" x2="628.0000717402088" y2="324.0120536765707"></line><line style="stroke: #aaa; stroke-width: 1.41421;" x1="627.9985517561258" y1="172.01455160893988" x2="476.003183448583" y2="324.0120536765707"></line><line style="stroke: #aaa; stroke-width: 1;" x1="627.9985517561258" y1="172.01455160893988" x2="779.9954400477517" y2="172.01379162902933"></line><line style="stroke: #aaa; stroke-width: 1;" x1="627.9985517561258" y1="172.01455160893988" x2="628.0000717402088" y2="324.0120536765707"></line><line style="stroke: #aaa; stroke-width: 1.41421;" x1="627.9985517561258" y1="172.01455160893988" x2="779.9984800159173" y2="324.01053371674965"></line><line style="stroke: #aaa; stroke-width: 1.41421;" x1="779.9954400477517" y1="172.01379162902933" x2="628.0000717402088" y2="324.0120536765707"></line><line style="stroke: #aaa; stroke-width: 1;" x1="20" y1="324.0181335158551" x2="172.00180694491772" y2="324.01509359621286"></line><line style="stroke: #aaa; stroke-width: 1;" x1="20" y1="324.0181335158551" x2="20.004312255642144" y2="476.0110757040227"></line><line style="stroke: #aaa; stroke-width: 1.41421;" x1="20" y1="324.0181335158551" x2="172.0048469130832" y2="476.00803578438047"></line><line style="stroke: #aaa; stroke-width: 1.41421;" x1="172.00180694491772" y1="324.01509359621286" x2="20.004312255642144" y2="476.0110757040227"></line><line style="stroke: #aaa; stroke-width: 1;" x1="172.00180694491772" y1="324.01509359621286" x2="324.00477517287453" y2="324.0135736363918"></line><line style="stroke: #aaa; stroke-width: 1;" x1="172.00180694491772" y1="324.01509359621286" x2="172.0048469130832" y2="476.00803578438047"></line><line style="stroke: #aaa; stroke-width: 1.41421;" x1="172.00180694491772" y1="324.01509359621286" x2="324.00477517287453" y2="476.00803578438047"></line><line style="stroke: #aaa; stroke-width: 1.41421;" x1="324.00477517287453" y1="324.0135736363918" x2="172.0048469130832" y2="476.00803578438047"></line><line style="stroke: #aaa; stroke-width: 1;" x1="324.00477517287453" y1="324.0135736363918" x2="476.003183448583" y2="324.0120536765707"></line><line style="stroke: #aaa; stroke-width: 1;" x1="324.00477517287453" y1="324.0135736363918" x2="324.00477517287453" y2="476.00803578438047"></line><line style="stroke: #aaa; stroke-width: 1.41421;" x1="324.00477517287453" y1="324.0135736363918" x2="476.00166346450027" y2="476.00803578438047"></line><line style="stroke: #aaa; stroke-width: 1.41421;" x1="476.003183448583" y1="324.0120536765707" x2="324.00477517287453" y2="476.00803578438047"></line><line style="stroke: #aaa; stroke-width: 1;" x1="476.003183448583" y1="324.0120536765707" x2="628.0000717402088" y2="324.0120536765707"></line><line style="stroke: #aaa; stroke-width: 1;" x1="476.003183448583" y1="324.0120536765707" x2="476.00166346450027" y2="476.00803578438047"></line><line style="stroke: #aaa; stroke-width: 1.41421;" x1="476.003183448583" y1="324.0120536765707" x2="628.0015917242915" y2="476.00803578438047"></line><line style="stroke: #aaa; stroke-width: 1.41421;" x1="628.0000717402088" y1="324.0120536765707" x2="476.00166346450027" y2="476.00803578438047"></line><line style="stroke: #aaa; stroke-width: 1;" x1="628.0000717402088" y1="324.0120536765707" x2="779.9984800159173" y2="324.01053371674965"></line><line style="stroke: #aaa; stroke-width: 1;" x1="628.0000717402088" y1="324.0120536765707" x2="628.0015917242915" y2="476.00803578438047"></line><line style="stroke: #aaa; stroke-width: 1.41421;" x1="628.0000717402088" y1="324.0120536765707" x2="780" y2="476.0065158245594"></line><line style="stroke: #aaa; stroke-width: 1.41421;" x1="779.9984800159173" y1="324.01053371674965" x2="628.0015917242915" y2="476.00803578438047"></line><line style="stroke: #aaa; stroke-width: 1;" x1="20.004312255642144" y1="476.0110757040227" x2="172.0048469130832" y2="476.00803578438047"></line><line style="stroke: #aaa; stroke-width: 1;" x1="20.004312255642144" y1="476.0110757040227" x2="20.007030367178135" y2="628.0055378520112"></line><line style="stroke: #aaa; stroke-width: 1.41421;" x1="20.004312255642144" y1="476.0110757040227" x2="172.006366897166" y2="628.0040178921902"></line><line style="stroke: #aaa; stroke-width: 1.41421;" x1="172.0048469130832" y1="476.00803578438047" x2="20.007030367178135" y2="628.0055378520112"></line><line style="stroke: #aaa; stroke-width: 1;" x1="172.0048469130832" y1="476.00803578438047" x2="324.00477517287453" y2="476.00803578438047"></line><line style="stroke: #aaa; stroke-width: 1;" x1="172.0048469130832" y1="476.00803578438047" x2="172.006366897166" y2="628.0040178921902"></line><line style="stroke: #aaa; stroke-width: 1.41421;" x1="172.0048469130832" y1="476.00803578438047" x2="324.00477517287453" y2="628.0040178921902"></line><line style="stroke: #aaa; stroke-width: 1.41421;" x1="324.00477517287453" y1="476.00803578438047" x2="172.006366897166" y2="628.0040178921902"></line><line style="stroke: #aaa; stroke-width: 1;" x1="324.00477517287453" y1="476.00803578438047" x2="476.00166346450027" y2="476.00803578438047"></line><line style="stroke: #aaa; stroke-width: 1;" x1="324.00477517287453" y1="476.00803578438047" x2="324.00477517287453" y2="628.0040178921902"></line><line style="stroke: #aaa; stroke-width: 1.41421;" x1="324.00477517287453" y1="476.00803578438047" x2="476.00166346450027" y2="628.0040178921902"></line><line style="stroke: #aaa; stroke-width: 1.41421;" x1="476.00166346450027" y1="476.00803578438047" x2="324.00477517287453" y2="628.0040178921902"></line><line style="stroke: #aaa; stroke-width: 1;" x1="476.00166346450027" y1="476.00803578438047" x2="628.0015917242915" y2="476.00803578438047"></line><line style="stroke: #aaa; stroke-width: 1;" x1="476.00166346450027" y1="476.00803578438047" x2="476.00166346450027" y2="628.0040178921902"></line><line style="stroke: #aaa; stroke-width: 1.41421;" x1="476.00166346450027" y1="476.00803578438047" x2="628.0000717402088" y2="628.0040178921902"></line><line style="stroke: #aaa; stroke-width: 1.41421;" x1="628.0015917242915" y1="476.00803578438047" x2="476.00166346450027" y2="628.0040178921902"></line><line style="stroke: #aaa; stroke-width: 1;" x1="628.0015917242915" y1="476.00803578438047" x2="780" y2="476.0065158245594"></line><line style="stroke: #aaa; stroke-width: 1;" x1="628.0015917242915" y1="476.00803578438047" x2="628.0000717402088" y2="628.0040178921902"></line><line style="stroke: #aaa; stroke-width: 1.41421;" x1="628.0015917242915" y1="476.00803578438047" x2="780" y2="628.0040178921902"></line><line style="stroke: #aaa; stroke-width: 1.41421;" x1="780" y1="476.0065158245594" x2="628.0000717402088" y2="628.0040178921902"></line><line style="stroke: #aaa; stroke-width: 1;" x1="20.007030367178135" y1="628.0055378520112" x2="172.006366897166" y2="628.0040178921902"></line><line style="stroke: #aaa; stroke-width: 1;" x1="20.007030367178135" y1="628.0055378520112" x2="20.00643865565268" y2="780"></line><line style="stroke: #aaa; stroke-width: 1.41421;" x1="20.007030367178135" y1="628.0055378520112" x2="172.006366897166" y2="780"></line><line style="stroke: #aaa; stroke-width: 1.41421;" x1="172.006366897166" y1="628.0040178921902" x2="20.00643865565268" y2="780"></line><line style="stroke: #aaa; stroke-width: 1;" x1="172.006366897166" y1="628.0040178921902" x2="324.00477517287453" y2="628.0040178921902"></line><line style="stroke: #aaa; stroke-width: 1;" x1="172.006366897166" y1="628.0040178921902" x2="172.006366897166" y2="780"></line><line style="stroke: #aaa; stroke-width: 1.41421;" x1="172.006366897166" y1="628.0040178921902" x2="324.00477517287453" y2="780"></line><line style="stroke: #aaa; stroke-width: 1.41421;" x1="324.00477517287453" y1="628.0040178921902" x2="172.006366897166" y2="780"></line><line style="stroke: #aaa; stroke-width: 1;" x1="324.00477517287453" y1="628.0040178921902" x2="476.00166346450027" y2="628.0040178921902"></line><line style="stroke: #aaa; stroke-width: 1;" x1="324.00477517287453" y1="628.0040178921902" x2="324.00477517287453" y2="780"></line><line style="stroke: #aaa; stroke-width: 1.41421;" x1="324.00477517287453" y1="628.0040178921902" x2="476.003183448583" y2="780"></line><line style="stroke: #aaa; stroke-width: 1.41421;" x1="476.00166346450027" y1="628.0040178921902" x2="324.00477517287453" y2="780"></line><line style="stroke: #aaa; stroke-width: 1;" x1="476.00166346450027" y1="628.0040178921902" x2="628.0000717402088" y2="628.0040178921902"></line><line style="stroke: #aaa; stroke-width: 1;" x1="476.00166346450027" y1="628.0040178921902" x2="476.003183448583" y2="780"></line><line style="stroke: #aaa; stroke-width: 1.41421;" x1="476.00166346450027" y1="628.0040178921902" x2="628.0000717402088" y2="780"></line><line style="stroke: #aaa; stroke-width: 1.41421;" x1="628.0000717402088" y1="628.0040178921902" x2="476.003183448583" y2="780"></line><line style="stroke: #aaa; stroke-width: 1;" x1="628.0000717402088" y1="628.0040178921902" x2="780" y2="628.0040178921902"></line><line style="stroke: #aaa; stroke-width: 1;" x1="628.0000717402088" y1="628.0040178921902" x2="628.0000717402088" y2="780"></line><line style="stroke: #aaa; stroke-width: 1.41421;" x1="628.0000717402088" y1="628.0040178921902" x2="779.9984800159173" y2="780"></line><line style="stroke: #aaa; stroke-width: 1.41421;" x1="780" y1="628.0040178921902" x2="628.0000717402088" y2="780"></line><line style="stroke: #aaa; stroke-width: 1;" x1="779.9984800159173" y1="20.020089323794554" x2="779.9954400477517" y2="172.01379162902933"></line><line style="stroke: #aaa; stroke-width: 1;" x1="779.9954400477517" y1="172.01379162902933" x2="779.9984800159173" y2="324.01053371674965"></line><line style="stroke: #aaa; stroke-width: 1;" x1="779.9984800159173" y1="324.01053371674965" x2="780" y2="476.0065158245594"></line><line style="stroke: #aaa; stroke-width: 1;" x1="780" y1="476.0065158245594" x2="780" y2="628.0040178921902"></line><line style="stroke: #aaa; stroke-width: 1;" x1="780" y1="628.0040178921902" x2="779.9984800159173" y2="780"></line><line style="stroke: #aaa; stroke-width: 1;" x1="20.00643865565268" y1="780" x2="172.006366897166" y2="780"></line><line style="stroke: #aaa; stroke-width: 1;" x1="172.006366897166" y1="780" x2="324.00477517287453" y2="780"></line><line style="stroke: #aaa; stroke-width: 1;" x1="324.00477517287453" y1="780" x2="476.003183448583" y2="780"></line><line style="stroke: #aaa; stroke-width: 1;" x1="476.003183448583" y1="780" x2="628.0000717402088" y2="780"></line><line style="stroke: #aaa; stroke-width: 1;" x1="628.0000717402088" y1="780" x2="779.9984800159173" y2="780"></line><circle r="10" cx="20.006438538778216" cy="20.02008934435338" style="stroke: #000; fill: #69b3a2;"></circle><circle r="10" cx="172.00150294810115" cy="20.02453734977479" style="stroke: #000; fill: #69b3a2;"></circle><circle r="10" cx="323.99413528429517" cy="20.02390249295672" style="stroke: #000; fill: #69b3a2;"></circle><circle r="10" cx="475.9940635440865" cy="20" style="stroke: #000; fill: #69b3a2;"></circle><circle r="10" cx="627.9985517561258" cy="20.013530621528847" style="stroke: #000; fill: #69b3a2;"></circle><circle r="10" cx="779.9984800159173" cy="20.020089323794554" style="stroke: #000; fill: #69b3a2;"></circle><circle r="10" cx="20.000900423370783" cy="172.02063144822418" style="stroke: #000; fill: #69b3a2;"></circle><circle r="10" cx="171.99967896720187" cy="172.02367136786634" style="stroke: #000; fill: #69b3a2;"></circle><circle r="10" cx="324.00325518879174" cy="172.01911148840307" style="stroke: #000; fill: #69b3a2;"></circle><circle r="10" cx="476.00470343266574" cy="172.0125756611725" style="stroke: #000; fill: #69b3a2;"></circle><circle r="10" cx="627.9985517561258" cy="172.01455160893988" style="stroke: #000; fill: #69b3a2;"></circle><circle r="10" cx="779.9954400477517" cy="172.01379162902933" style="stroke: #000; fill: #69b3a2;"></circle><circle r="10" cx="20" cy="324.0181335158551" style="stroke: #000; fill: #69b3a2;"></circle><circle r="10" cx="172.00180694491772" cy="324.01509359621286" style="stroke: #000; fill: #69b3a2;"></circle><circle r="10" cx="324.00477517287453" cy="324.0135736363918" style="stroke: #000; fill: #69b3a2;"></circle><circle r="10" cx="476.003183448583" cy="324.0120536765707" style="stroke: #000; fill: #69b3a2;"></circle><circle r="10" cx="628.0000717402088" cy="324.0120536765707" style="stroke: #000; fill: #69b3a2;"></circle><circle r="10" cx="779.9984800159173" cy="324.01053371674965" style="stroke: #000; fill: #69b3a2;"></circle><circle r="10" cx="20.004312255642144" cy="476.0110757040227" style="stroke: #000; fill: #69b3a2;"></circle><circle r="10" cx="172.0048469130832" cy="476.00803578438047" style="stroke: #000; fill: #69b3a2;"></circle><circle r="10" cx="324.00477517287453" cy="476.00803578438047" style="stroke: #000; fill: #69b3a2;"></circle><circle r="10" cx="476.00166346450027" cy="476.00803578438047" style="stroke: #000; fill: #69b3a2;"></circle><circle r="10" cx="628.0015917242915" cy="476.00803578438047" style="stroke: #000; fill: #69b3a2;"></circle><circle r="10" cx="780" cy="476.0065158245594" style="stroke: #000; fill: #69b3a2;"></circle><circle r="10" cx="20.007030367178135" cy="628.0055378520112" style="stroke: #000; fill: #69b3a2;"></circle><circle r="10" cx="172.006366897166" cy="628.0040178921902" style="stroke: #000; fill: #69b3a2;"></circle><circle r="10" cx="324.00477517287453" cy="628.0040178921902" style="stroke: #000; fill: #69b3a2;"></circle><circle r="10" cx="476.00166346450027" cy="628.0040178921902" style="stroke: #000; fill: #69b3a2;"></circle><circle r="10" cx="628.0000717402088" cy="628.0040178921902" style="stroke: #000; fill: #69b3a2;"></circle><circle r="10" cx="780" cy="628.0040178921902" style="stroke: #000; fill: #69b3a2;"></circle><circle r="10" cx="20.00643865565268" cy="780" style="stroke: #000; fill: #69b3a2;"></circle><circle r="10" cx="172.006366897166" cy="780" style="stroke: #000; fill: #69b3a2;"></circle><circle r="10" cx="324.00477517287453" cy="780" style="stroke: #000; fill: #69b3a2;"></circle><circle r="10" cx="476.003183448583" cy="780" style="stroke: #000; fill: #69b3a2;"></circle><circle r="10" cx="628.0000717402088" cy="780" style="stroke: #000; fill: #69b3a2;"></circle><circle r="10" cx="779.9984800159173" cy="780" style="stroke: #000; fill: #69b3a2;"></circle></svg>