<svg width="800" height="800" xmlns="http://www.w3.org/2000/svg"><line style="stroke: #aaa; stroke-width: 1;" x1="21.379586417826523" y1="20" x2="108.58155774432876" y2="50.832938019176964"></line><line style="stroke: #aaa; stroke-width: 1;" x1="21.379586417826523" y1="20" x2="20.569194121489666" y2="102.48232794292109"></line><line style="stroke: #aaa; stroke-width: 1.41421;" x1="21.379586417826523" y1="20" x2="98.88636799004655" y2="95.05901444372199"></line><line style="stroke: #aaa; stroke-width: 1.41421;" x1="108.58155774432876" y1="50.832938019176964" x2="20.569194121489666" y2="102.48232794292109"></line><line style="stroke: #aaa; stroke-width: 1;" x1="108.58155774432876" y1="50.832938019176964" x2="178.1221648809319" y2="130.35005862002706"></line><line style="stroke: #aaa; stroke-width: 1;" x1="108.58155774432876" y1="50.832938019176964" x2="98.88636799004655" y2="95.05901444372199"></line><line style="stroke: #aaa; stroke-width: 1.41421;" x1="108.58155774432876" y1="50.832938019176964" x2="191.58998207246336" y2="89.0246034702241"></line><line style="stroke: #aaa; stroke-width: 1.41421;" x1="178.1221648809319" y1="130.35005862002706" x2="98.88636799004655" y2="95.05901444372199"></line><line style="stroke: #aaa; stroke-width: 1;" x1="178.1221648809319" y1="130.35005862002706" x2="262.3102464913755" y2="164.69300107222145"></line><line style="stroke: #aaa; stroke-width: 1;" x1="178.1221648809319" y1="130.35005862002706" x2="191.58998207246336" y2="89.0246034702241"></line><line style="stroke: #aaa; stroke-width: 1.41421;" x1="178.1221648809319" y1="130.35005862002706" x2="273.025024276155" y2="92.16219317589018"></line><line style="stroke: #aaa; stroke-width: 1.41421;" x1="262.3102464913755" y1="164.69300107222145" x2="191.58998207246336" y2="89.0246034702241"></line><line style="stroke: #aaa; stroke-width: 1;" x1="262.3102464913755" y1="164.69300107222145" x2="348.9448842017847" y2="165.84440316603119"></line><line style="stroke: #aaa; stroke-width: 1;" x1="262.3102464913755" y1="164.69300107222145" x2="273.025024276155" y2="92.16219317589018"></line><line style="stroke: #aaa; stroke-width: 1.41421;" x1="262.3102464913755" y1="164.69300107222145" x2="353.5178578980924" y2="107.32277674521431"></line><line style="stroke: #aaa; stroke-width: 1.41421;" x1="348.9448842017847" y1="165.84440316603119" x2="273.025024276155" y2="92.16219317589018"></line><line style="stroke: #aaa; stroke-width: 1;" x1="348.9448842017847" y1="165.84440316603119" x2="439.7155293097171" y2="123.10420544353724"></line><line style="stroke: #aaa; stroke-width: 1;" x1="348.9448842017847" y1="165.84440316603119" x2="353.5178578980924" y2="107.32277674521431"></line><line style="stroke: #aaa; stroke-width: 1.41421;" x1="348.9448842017847" y1="165.84440316603119" x2="442.2553959214023" y2="155.9393051537392"></line><line style="stroke: #aaa; stroke-width: 1.41421;" x1="439.7155293097171" y1="123.10420544353724" x2="353.5178578980924" y2="107.32277674521431"></line><line style="stroke: #aaa; stroke-width: 1;" x1="439.7155293097171" y1="123.10420544353724" x2="523.7898176131855" y2="102.92236874312955"></line><line style="stroke: #aaa; stroke-width: 1;" x1="439.7155293097171" y1="123.10420544353724" x2="442.2553959214023" y2="155.9393051537392"></line><line style="stroke: #aaa; stroke-width: 1.41421;" x1="439.7155293097171" y1="123.10420544353724" x2="521.6247102924717" y2="185.9616397489644"></line><line style="stroke: #aaa; stroke-width: 1.41421;" x1="523.7898176131855" y1="102.92236874312955" x2="442.2553959214023" y2="155.9393051537392"></line><line style="stroke: #aaa; stroke-width: 1;" x1="523.7898176131855" y1="102.92236874312955" x2="598.064984942001" y2="114.97295065695612"></line><line style="stroke: #aaa; stroke-width: 1;" x1="523.7898176131855" y1="102.92236874312955" x2="521.6247102924717" y2="185.9616397489644"></line><line style="stroke: #aaa; stroke-width: 1.41421;" x1="523.7898176131855" y1="102.92236874312955" x2="587.1385516062478" y2="188.53044442030227"></line><line style="stroke: #aaa; stroke-width: 1.41421;" x1="598.064984942001" y1="114.97295065695612" x2="521.6247102924717" y2="185.9616397489644"></line><line style="stroke: #aaa; stroke-width: 1;" x1="598.064984942001" y1="114.97295065695612" x2="660.3895791722873" y2="108.98489976776342"></line><line style="stroke: #aaa; stroke-width: 1;" x1="598.064984942001" y1="114.97295065695612" x2="587.1385516062478" y2="188.53044442030227"></line><line style="stroke: #aaa; stroke-width: 1.41421;" x1="598.064984942001" y1="114.97295065695612" x2="680.0340970664295" y2="189.21216566000348"></line><line style="stroke: #aaa; stroke-width: 1.41421;" x1="660.3895791722873" y1="108.98489976776342" x2="587.1385516062478" y2="188.53044442030227"></line><line style="stroke: #aaa; stroke-width: 1;" x1="660.3895791722873" y1="108.98489976776342" x2="755.9691294329891" y2="107.77877757444588"></line><line style="stroke: #aaa; stroke-width: 1;" x1="660.3895791722873" y1="108.98489976776342" x2="680.0340970664295" y2="189.21216566000348"></line><line style="stroke: #aaa; stroke-width: 1.41421;" x1="660.3895791722873" y1="108.98489976776342" x2="732.0520521729536" y2="122.13520368142012"></line><line style="stroke: #aaa; stroke-width: 1.41421;" x1="755.9691294329891" y1="107.77877757444588" x2="680.0340970664295" y2="189.21216566000348"></line><line style="stroke: #aaa; stroke-width: 1;" x1="755.9691294329891" y1="107.77877757444588" x2="780" y2="20.000751468846538"></line><line style="stroke: #aaa; stroke-width: 1;" x1="755.9691294329891" y1="107.77877757444588" x2="732.0520521729536" y2="122.13520368142012"></line><line style="stroke: #aaa; stroke-width: 1.41421;" x1="755.9691294329891" y1="107.77877757444588" x2="692.7652922508086" y2="43.08464792901216"></line><line style="stroke: #aaa; stroke-width: 1.41421;" x1="780" y1="20.000751468846538" x2="732.0520521729536" y2="122.13520368142012"></line><line style="stroke: #aaa; stroke-width: 1;" x1="20.569194121489666" y1="102.48232794292109" x2="98.88636799004655" y2="95.05901444372199"></line><line style="stroke: #aaa; stroke-width: 1;" x1="20.569194121489666" y1="102.48232794292109" x2="32.16874521288277" y2="176.1545819149572"></line><line style="stroke: #aaa; stroke-width: 1.41421;" x1="20.569194121489666" y1="102.48232794292109" x2="110.9719758128533" y2="166.41896421086295"></line><line style="stroke: #aaa; stroke-width: 1.41421;" x1="98.88636799004655" y1="95.05901444372199" x2="32.16874521288277" y2="176.1545819149572"></line><line style="stroke: #aaa; stroke-width: 1;" x1="98.88636799004655" y1="95.05901444372199" x2="191.58998207246336" y2="89.0246034702241"></line><line style="stroke: #aaa; stroke-width: 1;" x1="98.88636799004655" y1="95.05901444372199" x2="110.9719758128533" y2="166.41896421086295"></line><line style="stroke: #aaa; stroke-width: 1.41421;" x1="98.88636799004655" y1="95.05901444372199" x2="187.75287176126153" y2="164.15720009787432"></line><line style="stroke: #aaa; stroke-width: 1.41421;" x1="191.58998207246336" y1="89.0246034702241" x2="110.9719758128533" y2="166.41896421086295"></line><line style="stroke: #aaa; stroke-width: 1;" x1="191.58998207246336" y1="89.0246034702241" x2="273.025024276155" y2="92.16219317589018"></line><line style="stroke: #aaa; stroke-width: 1;" x1="191.58998207246336" y1="89.0246034702241" x2="187.75287176126153" y2="164.15720009787432"></line><line style="stroke: #aaa; stroke-width: 1.41421;" x1="191.58998207246336" y1="89.0246034702241" x2="264.43666408771765" y2="169.14204916275753"></line><line style="stroke: #aaa; stroke-width: 1.41421;" x1="273.025024276155" y1="92.16219317589018" x2="187.75287176126153" y2="164.15720009787432"></line><line style="stroke: #aaa; stroke-width: 1;" x1="273.025024276155" y1="92.16219317589018" x2="353.5178578980924" y2="107.32277674521431"></line><line style="stroke: #aaa; stroke-width: 1;" x1="273.025024276155" y1="92.16219317589018" x2="264.43666408771765" y2="169.14204916275753"></line><line style="stroke: #aaa; stroke-width: 1.41421;" x1="273.025024276155" y1="92.16219317589018" x2="339.1298321641553" y2="176.7755030440942"></line><line style="stroke: #aaa; stroke-width: 1.41421;" x1="353.5178578980924" y1="107.32277674521431" x2="264.43666408771765" y2="169.14204916275753"></line><line style="stroke: #aaa; stroke-width: 1;" x1="353.5178578980924" y1="107.32277674521431" x2="442.2553959214023" y2="155.9393051537392"></line><line style="stroke: #aaa; stroke-width: 1;" x1="353.5178578980924" y1="107.32277674521431" x2="339.1298321641553" y2="176.7755030440942"></line><line style="stroke: #aaa; stroke-width: 1.41421;" x1="353.5178578980924" y1="107.32277674521431" x2="417.6282484258417" y2="195.2078165630167"></line><line style="stroke: #aaa; stroke-width: 1.41421;" x1="442.2553959214023" y1="155.9393051537392" x2="339.1298321641553" y2="176.7755030440942"></line><line style="stroke: #aaa; stroke-width: 1;" x1="442.2553959214023" y1="155.9393051537392" x2="521.6247102924717" y2="185.9616397489644"></line><line style="stroke: #aaa; stroke-width: 1;" x1="442.2553959214023" y1="155.9393051537392" x2="417.6282484258417" y2="195.2078165630167"></line><line style="stroke: #aaa; stroke-width: 1.41421;" x1="442.2553959214023" y1="155.9393051537392" x2="499.71646421157067" y2="251.69567928546076"></line><line style="stroke: #aaa; stroke-width: 1.41421;" x1="521.6247102924717" y1="185.9616397489644" x2="417.6282484258417" y2="195.2078165630167"></line><line style="stroke: #aaa; stroke-width: 1;" x1="521.6247102924717" y1="185.9616397489644" x2="587.1385516062478" y2="188.53044442030227"></line><line style="stroke: #aaa; stroke-width: 1;" x1="521.6247102924717" y1="185.9616397489644" x2="499.71646421157067" y2="251.69567928546076"></line><line style="stroke: #aaa; stroke-width: 1.41421;" x1="521.6247102924717" y1="185.9616397489644" x2="599.5344358460735" y2="268.3906296450109"></line><line style="stroke: #aaa; stroke-width: 1.41421;" x1="587.1385516062478" y1="188.53044442030227" x2="499.71646421157067" y2="251.69567928546076"></line><line style="stroke: #aaa; stroke-width: 1;" x1="587.1385516062478" y1="188.53044442030227" x2="680.0340970664295" y2="189.21216566000348"></line><line style="stroke: #aaa; stroke-width: 1;" x1="587.1385516062478" y1="188.53044442030227" x2="599.5344358460735" y2="268.3906296450109"></line><line style="stroke: #aaa; stroke-width: 1.41421;" x1="587.1385516062478" y1="188.53044442030227" x2="666.6975214889428" y2="208.22588023619625"></line><line style="stroke: #aaa; stroke-width: 1.41421;" x1="680.0340970664295" y1="189.21216566000348" x2="599.5344358460735" y2="268.3906296450109"></line><line style="stroke: #aaa; stroke-width: 1;" x1="680.0340970664295" y1="189.21216566000348" x2="732.0520521729536" y2="122.13520368142012"></line><line style="stroke: #aaa; stroke-width: 1;" x1="680.0340970664295" y1="189.21216566000348" x2="666.6975214889428" y2="208.22588023619625"></line><line style="stroke: #aaa; stroke-width: 1.41421;" x1="680.0340970664295" y1="189.21216566000348" x2="629.7116622338351" y2="123.50168616635077"></line><line style="stroke: #aaa; stroke-width: 1.41421;" x1="732.0520521729536" y1="122.13520368142012" x2="666.6975214889428" y2="208.22588023619625"></line><line style="stroke: #aaa; stroke-width: 1;" x1="732.0520521729536" y1="122.13520368142012" x2="692.7652922508086" y2="43.08464792901216"></line><line style="stroke: #aaa; stroke-width: 1;" x1="732.0520521729536" y1="122.13520368142012" x2="629.7116622338351" y2="123.50168616635077"></line><line style="stroke: #aaa; stroke-width: 1.41421;" x1="732.0520521729536" y1="122.13520368142012" x2="639.1360239175166" y2="117.81307582168681"></line><line style="stroke: #aaa; stroke-width: 1.41421;" x1="692.7652922508086" y1="43.08464792901216" x2="629.7116622338351" y2="123.50168616635077"></line><line style="stroke: #aaa; stroke-width: 1;" x1="32.16874521288277" y1="176.1545819149572" x2="110.9719758128533" y2="166.41896421086295"></line><line style="stroke: #aaa; stroke-width: 1;" x1="32.16874521288277" y1="176.1545819149572" x2="39.00499192272149" y2="247.55291175189183"></line><line style="stroke: #aaa; stroke-width: 1.41421;" x1="32.16874521288277" y1="176.1545819149572" x2="114.34784391978255" y2="244.71886659821757"></line><line style="stroke: #aaa; stroke-width: 1.41421;" x1="110.9719758128533" y1="166.41896421086295" x2="39.00499192272149" y2="247.55291175189183"></line><line style="stroke: #aaa; stroke-width: 1;" x1="110.9719758128533" y1="166.41896421086295" x2="187.75287176126153" y2="164.15720009787432"></line><line style="stroke: #aaa; stroke-width: 1;" x1="110.9719758128533" y1="166.41896421086295" x2="114.34784391978255" y2="244.71886659821757"></line><line style="stroke: #aaa; stroke-width: 1.41421;" x1="110.9719758128533" y1="166.41896421086295" x2="187.5806645567058" y2="244.3593859445067"></line><line style="stroke: #aaa; stroke-width: 1.41421;" x1="187.75287176126153" y1="164.15720009787432" x2="114.34784391978255" y2="244.71886659821757"></line><line style="stroke: #aaa; stroke-width: 1;" x1="187.75287176126153" y1="164.15720009787432" x2="264.43666408771765" y2="169.14204916275753"></line><line style="stroke: #aaa; stroke-width: 1;" x1="187.75287176126153" y1="164.15720009787432" x2="187.5806645567058" y2="244.3593859445067"></line><line style="stroke: #aaa; stroke-width: 1.41421;" x1="187.75287176126153" y1="164.15720009787432" x2="260.6253469260969" y2="247.2580312156554"></line><line style="stroke: #aaa; stroke-width: 1.41421;" x1="264.43666408771765" y1="169.14204916275753" x2="187.5806645567058" y2="244.3593859445067"></line><line style="stroke: #aaa; stroke-width: 1;" x1="264.43666408771765" y1="169.14204916275753" x2="339.1298321641553" y2="176.7755030440942"></line><line style="stroke: #aaa; stroke-width: 1;" x1="264.43666408771765" y1="169.14204916275753" x2="260.6253469260969" y2="247.2580312156554"></line><line style="stroke: #aaa; stroke-width: 1.41421;" x1="264.43666408771765" y1="169.14204916275753" x2="333.9939609093438" y2="252.46252067995184"></line><line style="stroke: #aaa; stroke-width: 1.41421;" x1="339.1298321641553" y1="176.7755030440942" x2="260.6253469260969" y2="247.2580312156554"></line><line style="stroke: #aaa; stroke-width: 1;" x1="339.1298321641553" y1="176.7755030440942" x2="417.6282484258417" y2="195.2078165630167"></line><line style="stroke: #aaa; stroke-width: 1;" x1="339.1298321641553" y1="176.7755030440942" x2="333.9939609093438" y2="252.46252067995184"></line><line style="stroke: #aaa; stroke-width: 1.41421;" x1="339.1298321641553" y1="176.7755030440942" x2="409.2204402844716" y2="254.4681643271887"></line><line style="stroke: #aaa; stroke-width: 1.41421;" x1="417.6282484258417" y1="195.2078165630167" x2="333.9939609093438" y2="252.46252067995184"></line><line style="stroke: #aaa; stroke-width: 1;" x1="417.6282484258417" y1="195.2078165630167" x2="499.71646421157067" y2="251.69567928546076"></line><line style="stroke: #aaa; stroke-width: 1;" x1="417.6282484258417" y1="195.2078165630167" x2="409.2204402844716" y2="254.4681643271887"></line><line style="stroke: #aaa; stroke-width: 1.41421;" x1="417.6282484258417" y1="195.2078165630167" x2="496.7722520491004" y2="243.31970405385863"></line><line style="stroke: #aaa; stroke-width: 1.41421;" x1="499.71646421157067" y1="251.69567928546076" x2="409.2204402844716" y2="254.4681643271887"></line><line style="stroke: #aaa; stroke-width: 1;" x1="499.71646421157067" y1="251.69567928546076" x2="599.5344358460735" y2="268.3906296450109"></line><line style="stroke: #aaa; stroke-width: 1;" x1="499.71646421157067" y1="251.69567928546076" x2="496.7722520491004" y2="243.31970405385863"></line><line style="stroke: #aaa; stroke-width: 1.41421;" x1="499.71646421157067" y1="251.69567928546076" x2="575.6492207119909" y2="219.0490599180078"></line><line style="stroke: #aaa; stroke-width: 1.41421;" x1="599.5344358460735" y1="268.3906296450109" x2="496.7722520491004" y2="243.31970405385863"></line><line style="stroke: #aaa; stroke-width: 1;" x1="599.5344358460735" y1="268.3906296450109" x2="666.6975214889428" y2="208.22588023619625"></line><line style="stroke: #aaa; stroke-width: 1;" x1="599.5344358460735" y1="268.3906296450109" x2="575.6492207119909" y2="219.0490599180078"></line><line style="stroke: #aaa; stroke-width: 1.41421;" x1="599.5344358460735" y1="268.3906296450109" x2="557.025808092439" y2="198.77830305589998"></line><line style="stroke: #aaa; stroke-width: 1.41421;" x1="666.6975214889428" y1="208.22588023619625" x2="575.6492207119909" y2="219.0490599180078"></line><line style="stroke: #aaa; stroke-width: 1;" x1="666.6975214889428" y1="208.22588023619625" x2="629.7116622338351" y2="123.50168616635077"></line><line style="stroke: #aaa; stroke-width: 1;" x1="666.6975214889428" y1="208.22588023619625" x2="557.025808092439" y2="198.77830305589998"></line><line style="stroke: #aaa; stroke-width: 1.41421;" x1="666.6975214889428" y1="208.22588023619625" x2="581.011919958706" y2="206.83203770151175"></line><line style="stroke: #aaa; stroke-width: 1.41421;" x1="629.7116622338351" y1="123.50168616635077" x2="557.025808092439" y2="198.77830305589998"></line><line style="stroke: #aaa; stroke-width: 1;" x1="629.7116622338351" y1="123.50168616635077" x2="639.1360239175166" y2="117.81307582168681"></line><line style="stroke: #aaa; stroke-width: 1;" x1="629.7116622338351" y1="123.50168616635077" x2="581.011919958706" y2="206.83203770151175"></line><line style="stroke: #aaa; stroke-width: 1.41421;" x1="629.7116622338351" y1="123.50168616635077" x2="658.3450927569671" y2="209.11204184766962"></line><line style="stroke: #aaa; stroke-width: 1.41421;" x1="639.1360239175166" y1="117.81307582168681" x2="581.011919958706" y2="206.83203770151175"></line><line style="stroke: #aaa; stroke-width: 1;" x1="39.00499192272149" y1="247.55291175189183" x2="114.34784391978255" y2="244.71886659821757"></line><line style="stroke: #aaa; stroke-width: 1;" x1="39.00499192272149" y1="247.55291175189183" x2="39.12333696197564" y2="322.53692810935075"></line><line style="stroke: #aaa; stroke-width: 1.41421;" x1="39.00499192272149" y1="247.55291175189183" x2="114.13998147904128" y2="323.1130091569467"></line><line style="stroke: #aaa; stroke-width: 1.41421;" x1="114.34784391978255" y1="244.71886659821757" x2="39.12333696197564" y2="322.53692810935075"></line><line style="stroke: #aaa; stroke-width: 1;" x1="114.34784391978255" y1="244.71886659821757" x2="187.5806645567058" y2="244.3593859445067"></line><line style="stroke: #aaa; stroke-width: 1;" x1="114.34784391978255" y1="244.71886659821757" x2="114.13998147904128" y2="323.1130091569467"></line><line style="stroke: #aaa; stroke-width: 1.41421;" x1="114.34784391978255" y1="244.71886659821757" x2="187.68383715502995" y2="323.95357068549686"></line><line style="stroke: #aaa; stroke-width: 1.41421;" x1="187.5806645567058" y1="244.3593859445067" x2="114.13998147904128" y2="323.1130091569467"></line><line style="stroke: #aaa; stroke-width: 1;" x1="187.5806645567058" y1="244.3593859445067" x2="260.6253469260969" y2="247.2580312156554"></line><line style="stroke: #aaa; stroke-width: 1;" x1="187.5806645567058" y1="244.3593859445067" x2="187.68383715502995" y2="323.95357068549686"></line><line style="stroke: #aaa; stroke-width: 1.41421;" x1="187.5806645567058" y1="244.3593859445067" x2="261.2656239333437" y2="325.59517367073056"></line><line style="stroke: #aaa; stroke-width: 1.41421;" x1="260.6253469260969" y1="247.2580312156554" x2="187.68383715502995" y2="323.95357068549686"></line><line style="stroke: #aaa; stroke-width: 1;" x1="260.6253469260969" y1="247.2580312156554" x2="333.9939609093438" y2="252.46252067995184"></line><line style="stroke: #aaa; stroke-width: 1;" x1="260.6253469260969" y1="247.2580312156554" x2="261.2656239333437" y2="325.59517367073056"></line><line style="stroke: #aaa; stroke-width: 1.41421;" x1="260.6253469260969" y1="247.2580312156554" x2="337.67327783487355" y2="326.46385525041666"></line><line style="stroke: #aaa; stroke-width: 1.41421;" x1="333.9939609093438" y1="252.46252067995184" x2="261.2656239333437" y2="325.59517367073056"></line><line style="stroke: #aaa; stroke-width: 1;" x1="333.9939609093438" y1="252.46252067995184" x2="409.2204402844716" y2="254.4681643271887"></line><line style="stroke: #aaa; stroke-width: 1;" x1="333.9939609093438" y1="252.46252067995184" x2="337.67327783487355" y2="326.46385525041666"></line><line style="stroke: #aaa; stroke-width: 1.41421;" x1="333.9939609093438" y1="252.46252067995184" x2="419.55211393576815" y2="320.9325651918376"></line><line style="stroke: #aaa; stroke-width: 1.41421;" x1="409.2204402844716" y1="254.4681643271887" x2="337.67327783487355" y2="326.46385525041666"></line><line style="stroke: #aaa; stroke-width: 1;" x1="409.2204402844716" y1="254.4681643271887" x2="496.7722520491004" y2="243.31970405385863"></line><line style="stroke: #aaa; stroke-width: 1;" x1="409.2204402844716" y1="254.4681643271887" x2="419.55211393576815" y2="320.9325651918376"></line><line style="stroke: #aaa; stroke-width: 1.41421;" x1="409.2204402844716" y1="254.4681643271887" x2="501.9771579101435" y2="310.34954594675474"></line><line style="stroke: #aaa; stroke-width: 1.41421;" x1="496.7722520491004" y1="243.31970405385863" x2="419.55211393576815" y2="320.9325651918376"></line><line style="stroke: #aaa; stroke-width: 1;" x1="496.7722520491004" y1="243.31970405385863" x2="575.6492207119909" y2="219.0490599180078"></line><line style="stroke: #aaa; stroke-width: 1;" x1="496.7722520491004" y1="243.31970405385863" x2="501.9771579101435" y2="310.34954594675474"></line><line style="stroke: #aaa; stroke-width: 1.41421;" x1="496.7722520491004" y1="243.31970405385863" x2="582.7461299570074" y2="303.436573375604"></line><line style="stroke: #aaa; stroke-width: 1.41421;" x1="575.6492207119909" y1="219.0490599180078" x2="501.9771579101435" y2="310.34954594675474"></line><line style="stroke: #aaa; stroke-width: 1;" x1="575.6492207119909" y1="219.0490599180078" x2="557.025808092439" y2="198.77830305589998"></line><line style="stroke: #aaa; stroke-width: 1;" x1="575.6492207119909" y1="219.0490599180078" x2="582.7461299570074" y2="303.436573375604"></line><line style="stroke: #aaa; stroke-width: 1.41421;" x1="575.6492207119909" y1="219.0490599180078" x2="519.1682921059016" y2="295.7088793228928"></line><line style="stroke: #aaa; stroke-width: 1.41421;" x1="557.025808092439" y1="198.77830305589998" x2="582.7461299570074" y2="303.436573375604"></line><line style="stroke: #aaa; stroke-width: 1;" x1="557.025808092439" y1="198.77830305589998" x2="581.011919958706" y2="206.83203770151175"></line><line style="stroke: #aaa; stroke-width: 1;" x1="557.025808092439" y1="198.77830305589998" x2="519.1682921059016" y2="295.7088793228928"></line><line style="stroke: #aaa; stroke-width: 1.41421;" x1="557.025808092439" y1="198.77830305589998" x2="591.3709040036767" y2="294.49287711160855"></line><line style="stroke: #aaa; stroke-width: 1.41421;" x1="581.011919958706" y1="206.83203770151175" x2="519.1682921059016" y2="295.7088793228928"></line><line style="stroke: #aaa; stroke-width: 1;" x1="581.011919958706" y1="206.83203770151175" x2="658.3450927569671" y2="209.11204184766962"></line><line style="stroke: #aaa; stroke-width: 1;" x1="581.011919958706" y1="206.83203770151175" x2="591.3709040036767" y2="294.49287711160855"></line><line style="stroke: #aaa; stroke-width: 1.41421;" x1="581.011919958706" y1="206.83203770151175" x2="662.8148938549508" y2="280.82349225401"></line><line style="stroke: #aaa; stroke-width: 1.41421;" x1="658.3450927569671" y1="209.11204184766962" x2="591.3709040036767" y2="294.49287711160855"></line><line style="stroke: #aaa; stroke-width: 1;" x1="39.12333696197564" y1="322.53692810935075" x2="114.13998147904128" y2="323.1130091569467"></line><line style="stroke: #aaa; stroke-width: 1;" x1="39.12333696197564" y1="322.53692810935075" x2="37.89861753010449" y2="399.0819873055458"></line><line style="stroke: #aaa; stroke-width: 1.41421;" x1="39.12333696197564" y1="322.53692810935075" x2="113.08018648007943" y2="400.2630294532556"></line><line style="stroke: #aaa; stroke-width: 1.41421;" x1="114.13998147904128" y1="323.1130091569467" x2="37.89861753010449" y2="399.0819873055458"></line><line style="stroke: #aaa; stroke-width: 1;" x1="114.13998147904128" y1="323.1130091569467" x2="187.68383715502995" y2="323.95357068549686"></line><line style="stroke: #aaa; stroke-width: 1;" x1="114.13998147904128" y1="323.1130091569467" x2="113.08018648007943" y2="400.2630294532556"></line><line style="stroke: #aaa; stroke-width: 1.41421;" x1="114.13998147904128" y1="323.1130091569467" x2="188.05859644600145" y2="401.4045515290986"></line><line style="stroke: #aaa; stroke-width: 1.41421;" x1="187.68383715502995" y1="323.95357068549686" x2="113.08018648007943" y2="400.2630294532556"></line><line style="stroke: #aaa; stroke-width: 1;" x1="187.68383715502995" y1="323.95357068549686" x2="261.2656239333437" y2="325.59517367073056"></line><line style="stroke: #aaa; stroke-width: 1;" x1="187.68383715502995" y1="323.95357068549686" x2="188.05859644600145" y2="401.4045515290986"></line><line style="stroke: #aaa; stroke-width: 1.41421;" x1="187.68383715502995" y1="323.95357068549686" x2="264.0482495999092" y2="401.4995517018552"></line><line style="stroke: #aaa; stroke-width: 1.41421;" x1="261.2656239333437" y1="325.59517367073056" x2="188.05859644600145" y2="401.4045515290986"></line><line style="stroke: #aaa; stroke-width: 1;" x1="261.2656239333437" y1="325.59517367073056" x2="337.67327783487355" y2="326.46385525041666"></line><line style="stroke: #aaa; stroke-width: 1;" x1="261.2656239333437" y1="325.59517367073056" x2="264.0482495999092" y2="401.4995517018552"></line><line style="stroke: #aaa; stroke-width: 1.41421;" x1="261.2656239333437" y1="325.59517367073056" x2="343.12321861693636" y2="398.58494640168334"></line><line style="stroke: #aaa; stroke-width: 1.41421;" x1="337.67327783487355" y1="326.46385525041666" x2="264.0482495999092" y2="401.4995517018552"></line><line style="stroke: #aaa; stroke-width: 1;" x1="337.67327783487355" y1="326.46385525041666" x2="419.55211393576815" y2="320.9325651918376"></line><line style="stroke: #aaa; stroke-width: 1;" x1="337.67327783487355" y1="326.46385525041666" x2="343.12321861693636" y2="398.58494640168334"></line><line style="stroke: #aaa; stroke-width: 1.41421;" x1="337.67327783487355" y1="326.46385525041666" x2="424.0750185770068" y2="393.1904565918738"></line><line style="stroke: #aaa; stroke-width: 1.41421;" x1="419.55211393576815" y1="320.9325651918376" x2="343.12321861693636" y2="398.58494640168334"></line><line style="stroke: #aaa; stroke-width: 1;" x1="419.55211393576815" y1="320.9325651918376" x2="501.9771579101435" y2="310.34954594675474"></line><line style="stroke: #aaa; stroke-width: 1;" x1="419.55211393576815" y1="320.9325651918376" x2="424.0750185770068" y2="393.1904565918738"></line><line style="stroke: #aaa; stroke-width: 1.41421;" x1="419.55211393576815" y1="320.9325651918376" x2="503.72881621551426" y2="388.2542476154419"></line><line style="stroke: #aaa; stroke-width: 1.41421;" x1="501.9771579101435" y1="310.34954594675474" x2="424.0750185770068" y2="393.1904565918738"></line><line style="stroke: #aaa; stroke-width: 1;" x1="501.9771579101435" y1="310.34954594675474" x2="582.7461299570074" y2="303.436573375604"></line><line style="stroke: #aaa; stroke-width: 1;" x1="501.9771579101435" y1="310.34954594675474" x2="503.72881621551426" y2="388.2542476154419"></line><line style="stroke: #aaa; stroke-width: 1.41421;" x1="501.9771579101435" y1="310.34954594675474" x2="578.9287438190145" y2="384.1076800749628"></line><line style="stroke: #aaa; stroke-width: 1.41421;" x1="582.7461299570074" y1="303.436573375604" x2="503.72881621551426" y2="388.2542476154419"></line><line style="stroke: #aaa; stroke-width: 1;" x1="582.7461299570074" y1="303.436573375604" x2="519.1682921059016" y2="295.7088793228928"></line><line style="stroke: #aaa; stroke-width: 1;" x1="582.7461299570074" y1="303.436573375604" x2="578.9287438190145" y2="384.1076800749628"></line><line style="stroke: #aaa; stroke-width: 1.41421;" x1="582.7461299570074" y1="303.436573375604" x2="533.2771449267266" y2="389.5454899635493"></line><line style="stroke: #aaa; stroke-width: 1.41421;" x1="519.1682921059016" y1="295.7088793228928" x2="578.9287438190145" y2="384.1076800749628"></line><line style="stroke: #aaa; stroke-width: 1;" x1="519.1682921059016" y1="295.7088793228928" x2="591.3709040036767" y2="294.49287711160855"></line><line style="stroke: #aaa; stroke-width: 1;" x1="519.1682921059016" y1="295.7088793228928" x2="533.2771449267266" y2="389.5454899635493"></line><line style="stroke: #aaa; stroke-width: 1.41421;" x1="519.1682921059016" y1="295.7088793228928" x2="602.2222337568263" y2="368.0062907947957"></line><line style="stroke: #aaa; stroke-width: 1.41421;" x1="591.3709040036767" y1="294.49287711160855" x2="533.2771449267266" y2="389.5454899635493"></line><line style="stroke: #aaa; stroke-width: 1;" x1="591.3709040036767" y1="294.49287711160855" x2="662.8148938549508" y2="280.82349225401"></line><line style="stroke: #aaa; stroke-width: 1;" x1="591.3709040036767" y1="294.49287711160855" x2="602.2222337568263" y2="368.0062907947957"></line><line style="stroke: #aaa; stroke-width: 1.41421;" x1="591.3709040036767" y1="294.49287711160855" x2="679.2337508073709" y2="357.75615215505184"></line><line style="stroke: #aaa; stroke-width: 1.41421;" x1="662.8148938549508" y1="280.82349225401" x2="602.2222337568263" y2="368.0062907947957"></line><line style="stroke: #aaa; stroke-width: 1;" x1="37.89861753010449" y1="399.0819873055458" x2="113.08018648007943" y2="400.2630294532556"></line><line style="stroke: #aaa; stroke-width: 1;" x1="37.89861753010449" y1="399.0819873055458" x2="37.193781786700455" y2="475.6095664699537"></line><line style="stroke: #aaa; stroke-width: 1.41421;" x1="37.89861753010449" y1="399.0819873055458" x2="112.80784116538561" y2="476.56944821548603"></line><line style="stroke: #aaa; stroke-width: 1.41421;" x1="113.08018648007943" y1="400.2630294532556" x2="37.193781786700455" y2="475.6095664699537"></line><line style="stroke: #aaa; stroke-width: 1;" x1="113.08018648007943" y1="400.2630294532556" x2="188.05859644600145" y2="401.4045515290986"></line><line style="stroke: #aaa; stroke-width: 1;" x1="113.08018648007943" y1="400.2630294532556" x2="112.80784116538561" y2="476.56944821548603"></line><line style="stroke: #aaa; stroke-width: 1.41421;" x1="113.08018648007943" y1="400.2630294532556" x2="188.5357697132505" y2="477.24128943722064"></line><line style="stroke: #aaa; stroke-width: 1.41421;" x1="188.05859644600145" y1="401.4045515290986" x2="112.80784116538561" y2="476.56944821548603"></line><line style="stroke: #aaa; stroke-width: 1;" x1="188.05859644600145" y1="401.4045515290986" x2="264.0482495999092" y2="401.4995517018552"></line><line style="stroke: #aaa; stroke-width: 1;" x1="188.05859644600145" y1="401.4045515290986" x2="188.5357697132505" y2="477.24128943722064"></line><line style="stroke: #aaa; stroke-width: 1.41421;" x1="188.05859644600145" y1="401.4045515290986" x2="266.0760463302062" y2="476.06632730056725"></line><line style="stroke: #aaa; stroke-width: 1.41421;" x1="264.0482495999092" y1="401.4995517018552" x2="188.5357697132505" y2="477.24128943722064"></line><line style="stroke: #aaa; stroke-width: 1;" x1="264.0482495999092" y1="401.4995517018552" x2="343.12321861693636" y2="398.58494640168334"></line><line style="stroke: #aaa; stroke-width: 1;" x1="264.0482495999092" y1="401.4995517018552" x2="266.0760463302062" y2="476.06632730056725"></line><line style="stroke: #aaa; stroke-width: 1.41421;" x1="264.0482495999092" y1="401.4995517018552" x2="345.4666021185778" y2="472.8667214821257"></line><line style="stroke: #aaa; stroke-width: 1.41421;" x1="343.12321861693636" y1="398.58494640168334" x2="266.0760463302062" y2="476.06632730056725"></line><line style="stroke: #aaa; stroke-width: 1;" x1="343.12321861693636" y1="398.58494640168334" x2="424.0750185770068" y2="393.1904565918738"></line><line style="stroke: #aaa; stroke-width: 1;" x1="343.12321861693636" y1="398.58494640168334" x2="345.4666021185778" y2="472.8667214821257"></line><line style="stroke: #aaa; stroke-width: 1.41421;" x1="343.12321861693636" y1="398.58494640168334" x2="424.92164078090195" y2="469.6982757203483"></line><line style="stroke: #aaa; stroke-width: 1.41421;" x1="424.0750185770068" y1="393.1904565918738" x2="345.4666021185778" y2="472.8667214821257"></line><line style="stroke: #aaa; stroke-width: 1;" x1="424.0750185770068" y1="393.1904565918738" x2="503.72881621551426" y2="388.2542476154419"></line><line style="stroke: #aaa; stroke-width: 1;" x1="424.0750185770068" y1="393.1904565918738" x2="424.92164078090195" y2="469.6982757203483"></line><line style="stroke: #aaa; stroke-width: 1.41421;" x1="424.0750185770068" y1="393.1904565918738" x2="501.7639851150768" y2="468.9595543769931"></line><line style="stroke: #aaa; stroke-width: 1.41421;" x1="503.72881621551426" y1="388.2542476154419" x2="424.92164078090195" y2="469.6982757203483"></line><line style="stroke: #aaa; stroke-width: 1;" x1="503.72881621551426" y1="388.2542476154419" x2="578.9287438190145" y2="384.1076800749628"></line><line style="stroke: #aaa; stroke-width: 1;" x1="503.72881621551426" y1="388.2542476154419" x2="501.7639851150768" y2="468.9595543769931"></line><line style="stroke: #aaa; stroke-width: 1.41421;" x1="503.72881621551426" y1="388.2542476154419" x2="569.4338302850086" y2="474.79636499115736"></line><line style="stroke: #aaa; stroke-width: 1.41421;" x1="578.9287438190145" y1="384.1076800749628" x2="501.7639851150768" y2="468.9595543769931"></line><line style="stroke: #aaa; stroke-width: 1;" x1="578.9287438190145" y1="384.1076800749628" x2="533.2771449267266" y2="389.5454899635493"></line><line style="stroke: #aaa; stroke-width: 1;" x1="578.9287438190145" y1="384.1076800749628" x2="569.4338302850086" y2="474.79636499115736"></line><line style="stroke: #aaa; stroke-width: 1.41421;" x1="578.9287438190145" y1="384.1076800749628" x2="593.7340116785272" y2="472.740561252705"></line><line style="stroke: #aaa; stroke-width: 1.41421;" x1="533.2771449267266" y1="389.5454899635493" x2="569.4338302850086" y2="474.79636499115736"></line><line style="stroke: #aaa; stroke-width: 1;" x1="533.2771449267266" y1="389.5454899635493" x2="602.2222337568263" y2="368.0062907947957"></line><line style="stroke: #aaa; stroke-width: 1;" x1="533.2771449267266" y1="389.5454899635493" x2="593.7340116785272" y2="472.740561252705"></line><line style="stroke: #aaa; stroke-width: 1.41421;" x1="533.2771449267266" y1="389.5454899635493" x2="630.2912494773618" y2="446.7310339547177"></line><line style="stroke: #aaa; stroke-width: 1.41421;" x1="602.2222337568263" y1="368.0062907947957" x2="593.7340116785272" y2="472.740561252705"></line><line style="stroke: #aaa; stroke-width: 1;" x1="602.2222337568263" y1="368.0062907947957" x2="679.2337508073709" y2="357.75615215505184"></line><line style="stroke: #aaa; stroke-width: 1;" x1="602.2222337568263" y1="368.0062907947957" x2="630.2912494773618" y2="446.7310339547177"></line><line style="stroke: #aaa; stroke-width: 1.41421;" x1="602.2222337568263" y1="368.0062907947957" x2="675.3647783702162" y2="444.3651496523878"></line><line style="stroke: #aaa; stroke-width: 1.41421;" x1="679.2337508073709" y1="357.75615215505184" x2="630.2912494773618" y2="446.7310339547177"></line><line style="stroke: #aaa; stroke-width: 1;" x1="37.193781786700455" y1="475.6095664699537" x2="112.80784116538561" y2="476.56944821548603"></line><line style="stroke: #aaa; stroke-width: 1;" x1="37.193781786700455" y1="475.6095664699537" x2="36.53962199600268" y2="550.5555827583099"></line><line style="stroke: #aaa; stroke-width: 1.41421;" x1="37.193781786700455" y1="475.6095664699537" x2="112.52790963022674" y2="553.2148275941122"></line><line style="stroke: #aaa; stroke-width: 1.41421;" x1="112.80784116538561" y1="476.56944821548603" x2="36.53962199600268" y2="550.5555827583099"></line><line style="stroke: #aaa; stroke-width: 1;" x1="112.80784116538561" y1="476.56944821548603" x2="188.5357697132505" y2="477.24128943722064"></line><line style="stroke: #aaa; stroke-width: 1;" x1="112.80784116538561" y1="476.56944821548603" x2="112.52790963022674" y2="553.2148275941122"></line><line style="stroke: #aaa; stroke-width: 1.41421;" x1="112.80784116538561" y1="476.56944821548603" x2="188.21032085530157" y2="553.5332681731921"></line><line style="stroke: #aaa; stroke-width: 1.41421;" x1="188.5357697132505" y1="477.24128943722064" x2="112.52790963022674" y2="553.2148275941122"></line><line style="stroke: #aaa; stroke-width: 1;" x1="188.5357697132505" y1="477.24128943722064" x2="266.0760463302062" y2="476.06632730056725"></line><line style="stroke: #aaa; stroke-width: 1;" x1="188.5357697132505" y1="477.24128943722064" x2="188.21032085530157" y2="553.5332681731921"></line><line style="stroke: #aaa; stroke-width: 1.41421;" x1="188.5357697132505" y1="477.24128943722064" x2="265.95694266890564" y2="551.2646640477651"></line><line style="stroke: #aaa; stroke-width: 1.41421;" x1="266.0760463302062" y1="476.06632730056725" x2="188.21032085530157" y2="553.5332681731921"></line><line style="stroke: #aaa; stroke-width: 1;" x1="266.0760463302062" y1="476.06632730056725" x2="345.4666021185778" y2="472.8667214821257"></line><line style="stroke: #aaa; stroke-width: 1;" x1="266.0760463302062" y1="476.06632730056725" x2="265.95694266890564" y2="551.2646640477651"></line><line style="stroke: #aaa; stroke-width: 1.41421;" x1="266.0760463302062" y1="476.06632730056725" x2="345.37405022890465" y2="548.2208585126442"></line><line style="stroke: #aaa; stroke-width: 1.41421;" x1="345.4666021185778" y1="472.8667214821257" x2="265.95694266890564" y2="551.2646640477651"></line><line style="stroke: #aaa; stroke-width: 1;" x1="345.4666021185778" y1="472.8667214821257" x2="424.92164078090195" y2="469.6982757203483"></line><line style="stroke: #aaa; stroke-width: 1;" x1="345.4666021185778" y1="472.8667214821257" x2="345.37405022890465" y2="548.2208585126442"></line><line style="stroke: #aaa; stroke-width: 1.41421;" x1="345.4666021185778" y1="472.8667214821257" x2="423.34674141236593" y2="547.7830977165819"></line><line style="stroke: #aaa; stroke-width: 1.41421;" x1="424.92164078090195" y1="469.6982757203483" x2="345.37405022890465" y2="548.2208585126442"></line><line style="stroke: #aaa; stroke-width: 1;" x1="424.92164078090195" y1="469.6982757203483" x2="501.7639851150768" y2="468.9595543769931"></line><line style="stroke: #aaa; stroke-width: 1;" x1="424.92164078090195" y1="469.6982757203483" x2="423.34674141236593" y2="547.7830977165819"></line><line style="stroke: #aaa; stroke-width: 1.41421;" x1="424.92164078090195" y1="469.6982757203483" x2="496.7843900018445" y2="551.6796248023658"></line><line style="stroke: #aaa; stroke-width: 1.41421;" x1="501.7639851150768" y1="468.9595543769931" x2="423.34674141236593" y2="547.7830977165819"></line><line style="stroke: #aaa; stroke-width: 1;" x1="501.7639851150768" y1="468.9595543769931" x2="569.4338302850086" y2="474.79636499115736"></line><line style="stroke: #aaa; stroke-width: 1;" x1="501.7639851150768" y1="468.9595543769931" x2="496.7843900018445" y2="551.6796248023658"></line><line style="stroke: #aaa; stroke-width: 1.41421;" x1="501.7639851150768" y1="468.9595543769931" x2="565.6505821391082" y2="559.7006793885492"></line><line style="stroke: #aaa; stroke-width: 1.41421;" x1="569.4338302850086" y1="474.79636499115736" x2="496.7843900018445" y2="551.6796248023658"></line><line style="stroke: #aaa; stroke-width: 1;" x1="569.4338302850086" y1="474.79636499115736" x2="593.7340116785272" y2="472.740561252705"></line><line style="stroke: #aaa; stroke-width: 1;" x1="569.4338302850086" y1="474.79636499115736" x2="565.6505821391082" y2="559.7006793885492"></line><line style="stroke: #aaa; stroke-width: 1.41421;" x1="569.4338302850086" y1="474.79636499115736" x2="634.8960852996227" y2="551.3444641928807"></line><line style="stroke: #aaa; stroke-width: 1.41421;" x1="593.7340116785272" y1="472.740561252705" x2="565.6505821391082" y2="559.7006793885492"></line><line style="stroke: #aaa; stroke-width: 1;" x1="593.7340116785272" y1="472.740561252705" x2="630.2912494773618" y2="446.7310339547177"></line><line style="stroke: #aaa; stroke-width: 1;" x1="593.7340116785272" y1="472.740561252705" x2="634.8960852996227" y2="551.3444641928807"></line><line style="stroke: #aaa; stroke-width: 1.41421;" x1="593.7340116785272" y1="472.740561252705" x2="689.8840457181977" y2="530.7704667793338"></line><line style="stroke: #aaa; stroke-width: 1.41421;" x1="630.2912494773618" y1="446.7310339547177" x2="634.8960852996227" y2="551.3444641928807"></line><line style="stroke: #aaa; stroke-width: 1;" x1="630.2912494773618" y1="446.7310339547177" x2="675.3647783702162" y2="444.3651496523878"></line><line style="stroke: #aaa; stroke-width: 1;" x1="630.2912494773618" y1="446.7310339547177" x2="689.8840457181977" y2="530.7704667793338"></line><line style="stroke: #aaa; stroke-width: 1.41421;" x1="630.2912494773618" y1="446.7310339547177" x2="645.3385177697082" y2="542.6667684126037"></line><line style="stroke: #aaa; stroke-width: 1.41421;" x1="675.3647783702162" y1="444.3651496523878" x2="689.8840457181977" y2="530.7704667793338"></line><line style="stroke: #aaa; stroke-width: 1;" x1="36.53962199600268" y1="550.5555827583099" x2="112.52790963022674" y2="553.2148275941122"></line><line style="stroke: #aaa; stroke-width: 1;" x1="36.53962199600268" y1="550.5555827583099" x2="30.609549320709355" y2="622.1021128647449"></line><line style="stroke: #aaa; stroke-width: 1.41421;" x1="36.53962199600268" y1="550.5555827583099" x2="109.64059412124412" y2="630.5267281847983"></line><line style="stroke: #aaa; stroke-width: 1.41421;" x1="112.52790963022674" y1="553.2148275941122" x2="30.609549320709355" y2="622.1021128647449"></line><line style="stroke: #aaa; stroke-width: 1;" x1="112.52790963022674" y1="553.2148275941122" x2="188.21032085530157" y2="553.5332681731921"></line><line style="stroke: #aaa; stroke-width: 1;" x1="112.52790963022674" y1="553.2148275941122" x2="109.64059412124412" y2="630.5267281847983"></line><line style="stroke: #aaa; stroke-width: 1.41421;" x1="112.52790963022674" y1="553.2148275941122" x2="187.22259495075735" y2="631.4296098266769"></line><line style="stroke: #aaa; stroke-width: 1.41421;" x1="188.21032085530157" y1="553.5332681731921" x2="109.64059412124412" y2="630.5267281847983"></line><line style="stroke: #aaa; stroke-width: 1;" x1="188.21032085530157" y1="553.5332681731921" x2="265.95694266890564" y2="551.2646640477651"></line><line style="stroke: #aaa; stroke-width: 1;" x1="188.21032085530157" y1="553.5332681731921" x2="187.22259495075735" y2="631.4296098266769"></line><line style="stroke: #aaa; stroke-width: 1.41421;" x1="188.21032085530157" y1="553.5332681731921" x2="266.10563259001975" y2="626.2562804190445"></line><line style="stroke: #aaa; stroke-width: 1.41421;" x1="265.95694266890564" y1="551.2646640477651" x2="187.22259495075735" y2="631.4296098266769"></line><line style="stroke: #aaa; stroke-width: 1;" x1="265.95694266890564" y1="551.2646640477651" x2="345.37405022890465" y2="548.2208585126442"></line><line style="stroke: #aaa; stroke-width: 1;" x1="265.95694266890564" y1="551.2646640477651" x2="266.10563259001975" y2="626.2562804190445"></line><line style="stroke: #aaa; stroke-width: 1.41421;" x1="265.95694266890564" y1="551.2646640477651" x2="344.1594963324567" y2="623.7247158154272"></line><line style="stroke: #aaa; stroke-width: 1.41421;" x1="345.37405022890465" y1="548.2208585126442" x2="266.10563259001975" y2="626.2562804190445"></line><line style="stroke: #aaa; stroke-width: 1;" x1="345.37405022890465" y1="548.2208585126442" x2="423.34674141236593" y2="547.7830977165819"></line><line style="stroke: #aaa; stroke-width: 1;" x1="345.37405022890465" y1="548.2208585126442" x2="344.1594963324567" y2="623.7247158154272"></line><line style="stroke: #aaa; stroke-width: 1.41421;" x1="345.37405022890465" y1="548.2208585126442" x2="420.2644600374325" y2="625.8268796381847"></line><line style="stroke: #aaa; stroke-width: 1.41421;" x1="423.34674141236593" y1="547.7830977165819" x2="344.1594963324567" y2="623.7247158154272"></line><line style="stroke: #aaa; stroke-width: 1;" x1="423.34674141236593" y1="547.7830977165819" x2="496.7843900018445" y2="551.6796248023658"></line><line style="stroke: #aaa; stroke-width: 1;" x1="423.34674141236593" y1="547.7830977165819" x2="420.2644600374325" y2="625.8268796381847"></line><line style="stroke: #aaa; stroke-width: 1.41421;" x1="423.34674141236593" y1="547.7830977165819" x2="494.9371453186147" y2="631.0328891052453"></line><line style="stroke: #aaa; stroke-width: 1.41421;" x1="496.7843900018445" y1="551.6796248023658" x2="420.2644600374325" y2="625.8268796381847"></line><line style="stroke: #aaa; stroke-width: 1;" x1="496.7843900018445" y1="551.6796248023658" x2="565.6505821391082" y2="559.7006793885492"></line><line style="stroke: #aaa; stroke-width: 1;" x1="496.7843900018445" y1="551.6796248023658" x2="494.9371453186147" y2="631.0328891052453"></line><line style="stroke: #aaa; stroke-width: 1.41421;" x1="496.7843900018445" y1="551.6796248023658" x2="572.7406637857063" y2="633.4246134545651"></line><line style="stroke: #aaa; stroke-width: 1.41421;" x1="565.6505821391082" y1="559.7006793885492" x2="494.9371453186147" y2="631.0328891052453"></line><line style="stroke: #aaa; stroke-width: 1;" x1="565.6505821391082" y1="559.7006793885492" x2="634.8960852996227" y2="551.3444641928807"></line><line style="stroke: #aaa; stroke-width: 1;" x1="565.6505821391082" y1="559.7006793885492" x2="572.7406637857063" y2="633.4246134545651"></line><line style="stroke: #aaa; stroke-width: 1.41421;" x1="565.6505821391082" y1="559.7006793885492" x2="649.9759743399686" y2="628.8357251097312"></line><line style="stroke: #aaa; stroke-width: 1.41421;" x1="634.8960852996227" y1="551.3444641928807" x2="572.7406637857063" y2="633.4246134545651"></line><line style="stroke: #aaa; stroke-width: 1;" x1="634.8960852996227" y1="551.3444641928807" x2="689.8840457181977" y2="530.7704667793338"></line><line style="stroke: #aaa; stroke-width: 1;" x1="634.8960852996227" y1="551.3444641928807" x2="649.9759743399686" y2="628.8357251097312"></line><line style="stroke: #aaa; stroke-width: 1.41421;" x1="634.8960852996227" y1="551.3444641928807" x2="720.9306529712494" y2="615.5638209749461"></line><line style="stroke: #aaa; stroke-width: 1.41421;" x1="689.8840457181977" y1="530.7704667793338" x2="649.9759743399686" y2="628.8357251097312"></line><line style="stroke: #aaa; stroke-width: 1;" x1="689.8840457181977" y1="530.7704667793338" x2="645.3385177697082" y2="542.6667684126037"></line><line style="stroke: #aaa; stroke-width: 1;" x1="689.8840457181977" y1="530.7704667793338" x2="720.9306529712494" y2="615.5638209749461"></line><line style="stroke: #aaa; stroke-width: 1.41421;" x1="689.8840457181977" y1="530.7704667793338" x2="654.4950858709749" y2="635.1224565420706"></line><line style="stroke: #aaa; stroke-width: 1.41421;" x1="645.3385177697082" y1="542.6667684126037" x2="720.9306529712494" y2="615.5638209749461"></line><line style="stroke: #aaa; stroke-width: 1;" x1="30.609549320709355" y1="622.1021128647449" x2="109.64059412124412" y2="630.5267281847983"></line><line style="stroke: #aaa; stroke-width: 1;" x1="30.609549320709355" y1="622.1021128647449" x2="20" y2="696.3291678456795"></line><line style="stroke: #aaa; stroke-width: 1.41421;" x1="30.609549320709355" y1="622.1021128647449" x2="98.1300218096851" y2="702.4813790333955"></line><line style="stroke: #aaa; stroke-width: 1.41421;" x1="109.64059412124412" y1="630.5267281847983" x2="20" y2="696.3291678456795"></line><line style="stroke: #aaa; stroke-width: 1;" x1="109.64059412124412" y1="630.5267281847983" x2="187.22259495075735" y2="631.4296098266769"></line><line style="stroke: #aaa; stroke-width: 1;" x1="109.64059412124412" y1="630.5267281847983" x2="98.1300218096851" y2="702.4813790333955"></line><line style="stroke: #aaa; stroke-width: 1.41421;" x1="109.64059412124412" y1="630.5267281847983" x2="190.61894585294215" y2="706.5511864342874"></line><line style="stroke: #aaa; stroke-width: 1.41421;" x1="187.22259495075735" y1="631.4296098266769" x2="98.1300218096851" y2="702.4813790333955"></line><line style="stroke: #aaa; stroke-width: 1;" x1="187.22259495075735" y1="631.4296098266769" x2="266.10563259001975" y2="626.2562804190445"></line><line style="stroke: #aaa; stroke-width: 1;" x1="187.22259495075735" y1="631.4296098266769" x2="190.61894585294215" y2="706.5511864342874"></line><line style="stroke: #aaa; stroke-width: 1.41421;" x1="187.22259495075735" y1="631.4296098266769" x2="269.80846679899093" y2="703.4465807886024"></line><line style="stroke: #aaa; stroke-width: 1.41421;" x1="266.10563259001975" y1="626.2562804190445" x2="190.61894585294215" y2="706.5511864342874"></line><line style="stroke: #aaa; stroke-width: 1;" x1="266.10563259001975" y1="626.2562804190445" x2="344.1594963324567" y2="623.7247158154272"></line><line style="stroke: #aaa; stroke-width: 1;" x1="266.10563259001975" y1="626.2562804190445" x2="269.80846679899093" y2="703.4465807886024"></line><line style="stroke: #aaa; stroke-width: 1.41421;" x1="266.10563259001975" y1="626.2562804190445" x2="342.6885281842913" y2="699.6534138907776"></line><line style="stroke: #aaa; stroke-width: 1.41421;" x1="344.1594963324567" y1="623.7247158154272" x2="269.80846679899093" y2="703.4465807886024"></line><line style="stroke: #aaa; stroke-width: 1;" x1="344.1594963324567" y1="623.7247158154272" x2="420.2644600374325" y2="625.8268796381847"></line><line style="stroke: #aaa; stroke-width: 1;" x1="344.1594963324567" y1="623.7247158154272" x2="342.6885281842913" y2="699.6534138907776"></line><line style="stroke: #aaa; stroke-width: 1.41421;" x1="344.1594963324567" y1="623.7247158154272" x2="417.7602486619329" y2="701.7175776444326"></line><line style="stroke: #aaa; stroke-width: 1.41421;" x1="420.2644600374325" y1="625.8268796381847" x2="342.6885281842913" y2="699.6534138907776"></line><line style="stroke: #aaa; stroke-width: 1;" x1="420.2644600374325" y1="625.8268796381847" x2="494.9371453186147" y2="631.0328891052453"></line><line style="stroke: #aaa; stroke-width: 1;" x1="420.2644600374325" y1="625.8268796381847" x2="417.7602486619329" y2="701.7175776444326"></line><line style="stroke: #aaa; stroke-width: 1.41421;" x1="420.2644600374325" y1="625.8268796381847" x2="496.2723201204563" y2="704.2354622231729"></line><line style="stroke: #aaa; stroke-width: 1.41421;" x1="494.9371453186147" y1="631.0328891052453" x2="417.7602486619329" y2="701.7175776444326"></line><line style="stroke: #aaa; stroke-width: 1;" x1="494.9371453186147" y1="631.0328891052453" x2="572.7406637857063" y2="633.4246134545651"></line><line style="stroke: #aaa; stroke-width: 1;" x1="494.9371453186147" y1="631.0328891052453" x2="496.2723201204563" y2="704.2354622231729"></line><line style="stroke: #aaa; stroke-width: 1.41421;" x1="494.9371453186147" y1="631.0328891052453" x2="577.3014995292699" y2="705.0646237309924"></line><line style="stroke: #aaa; stroke-width: 1.41421;" x1="572.7406637857063" y1="633.4246134545651" x2="496.2723201204563" y2="704.2354622231729"></line><line style="stroke: #aaa; stroke-width: 1;" x1="572.7406637857063" y1="633.4246134545651" x2="649.9759743399686" y2="628.8357251097312"></line><line style="stroke: #aaa; stroke-width: 1;" x1="572.7406637857063" y1="633.4246134545651" x2="577.3014995292699" y2="705.0646237309924"></line><line style="stroke: #aaa; stroke-width: 1.41421;" x1="572.7406637857063" y1="633.4246134545651" x2="659.1128182680262" y2="704.5493427939607"></line><line style="stroke: #aaa; stroke-width: 1.41421;" x1="649.9759743399686" y1="628.8357251097312" x2="577.3014995292699" y2="705.0646237309924"></line><line style="stroke: #aaa; stroke-width: 1;" x1="649.9759743399686" y1="628.8357251097312" x2="720.9306529712494" y2="615.5638209749461"></line><line style="stroke: #aaa; stroke-width: 1;" x1="649.9759743399686" y1="628.8357251097312" x2="659.1128182680262" y2="704.5493427939607"></line><line style="stroke: #aaa; stroke-width: 1.41421;" x1="649.9759743399686" y1="628.8357251097312" x2="744.1361427516673" y2="687.8703524634336"></line><line style="stroke: #aaa; stroke-width: 1.41421;" x1="720.9306529712494" y1="615.5638209749461" x2="659.1128182680262" y2="704.5493427939607"></line><line style="stroke: #aaa; stroke-width: 1;" x1="720.9306529712494" y1="615.5638209749461" x2="654.4950858709749" y2="635.1224565420706"></line><line style="stroke: #aaa; stroke-width: 1;" x1="720.9306529712494" y1="615.5638209749461" x2="744.1361427516673" y2="687.8703524634336"></line><line style="stroke: #aaa; stroke-width: 1.41421;" x1="720.9306529712494" y1="615.5638209749461" x2="690.359701741354" y2="726.0862619585682"></line><line style="stroke: #aaa; stroke-width: 1.41421;" x1="654.4950858709749" y1="635.1224565420706" x2="744.1361427516673" y2="687.8703524634336"></line><line style="stroke: #aaa; stroke-width: 1;" x1="20" y1="696.3291678456795" x2="98.1300218096851" y2="702.4813790333955"></line><line style="stroke: #aaa; stroke-width: 1;" x1="20" y1="696.3291678456795" x2="21.379666854522114" y2="780"></line><line style="stroke: #aaa; stroke-width: 1.41421;" x1="20" y1="696.3291678456795" x2="108.14079833531173" y2="746.9520999028232"></line><line style="stroke: #aaa; stroke-width: 1.41421;" x1="98.1300218096851" y1="702.4813790333955" x2="21.379666854522114" y2="780"></line><line style="stroke: #aaa; stroke-width: 1;" x1="98.1300218096851" y1="702.4813790333955" x2="190.61894585294215" y2="706.5511864342874"></line><line style="stroke: #aaa; stroke-width: 1;" x1="98.1300218096851" y1="702.4813790333955" x2="108.14079833531173" y2="746.9520999028232"></line><line style="stroke: #aaa; stroke-width: 1.41421;" x1="98.1300218096851" y1="702.4813790333955" x2="175.0505042146495" y2="665.1098310737214"></line><line style="stroke: #aaa; stroke-width: 1.41421;" x1="190.61894585294215" y1="706.5511864342874" x2="108.14079833531173" y2="746.9520999028232"></line><line style="stroke: #aaa; stroke-width: 1;" x1="190.61894585294215" y1="706.5511864342874" x2="269.80846679899093" y2="703.4465807886024"></line><line style="stroke: #aaa; stroke-width: 1;" x1="190.61894585294215" y1="706.5511864342874" x2="175.0505042146495" y2="665.1098310737214"></line><line style="stroke: #aaa; stroke-width: 1.41421;" x1="190.61894585294215" y1="706.5511864342874" x2="258.2903082669669" y2="630.0996074080848"></line><line style="stroke: #aaa; stroke-width: 1.41421;" x1="269.80846679899093" y1="703.4465807886024" x2="175.0505042146495" y2="665.1098310737214"></line><line style="stroke: #aaa; stroke-width: 1;" x1="269.80846679899093" y1="703.4465807886024" x2="342.6885281842913" y2="699.6534138907776"></line><line style="stroke: #aaa; stroke-width: 1;" x1="269.80846679899093" y1="703.4465807886024" x2="258.2903082669669" y2="630.0996074080848"></line><line style="stroke: #aaa; stroke-width: 1.41421;" x1="269.80846679899093" y1="703.4465807886024" x2="341.0119734615241" y2="624.502197229267"></line><line style="stroke: #aaa; stroke-width: 1.41421;" x1="342.6885281842913" y1="699.6534138907776" x2="258.2903082669669" y2="630.0996074080848"></line><line style="stroke: #aaa; stroke-width: 1;" x1="342.6885281842913" y1="699.6534138907776" x2="417.7602486619329" y2="701.7175776444326"></line><line style="stroke: #aaa; stroke-width: 1;" x1="342.6885281842913" y1="699.6534138907776" x2="341.0119734615241" y2="624.502197229267"></line><line style="stroke: #aaa; stroke-width: 1.41421;" x1="342.6885281842913" y1="699.6534138907776" x2="421.1019787767696" y2="626.4614807921987"></line><line style="stroke: #aaa; stroke-width: 1.41421;" x1="417.7602486619329" y1="701.7175776444326" x2="341.0119734615241" y2="624.502197229267"></line><line style="stroke: #aaa; stroke-width: 1;" x1="417.7602486619329" y1="701.7175776444326" x2="496.2723201204563" y2="704.2354622231729"></line><line style="stroke: #aaa; stroke-width: 1;" x1="417.7602486619329" y1="701.7175776444326" x2="421.1019787767696" y2="626.4614807921987"></line><line style="stroke: #aaa; stroke-width: 1.41421;" x1="417.7602486619329" y1="701.7175776444326" x2="500.08212003798417" y2="630.37548790977"></line><line style="stroke: #aaa; stroke-width: 1.41421;" x1="496.2723201204563" y1="704.2354622231729" x2="421.1019787767696" y2="626.4614807921987"></line><line style="stroke: #aaa; stroke-width: 1;" x1="496.2723201204563" y1="704.2354622231729" x2="577.3014995292699" y2="705.0646237309924"></line><line style="stroke: #aaa; stroke-width: 1;" x1="496.2723201204563" y1="704.2354622231729" x2="500.08212003798417" y2="630.37548790977"></line><line style="stroke: #aaa; stroke-width: 1.41421;" x1="496.2723201204563" y1="704.2354622231729" x2="581.1135753129372" y2="632.9351725645231"></line><line style="stroke: #aaa; stroke-width: 1.41421;" x1="577.3014995292699" y1="705.0646237309924" x2="500.08212003798417" y2="630.37548790977"></line><line style="stroke: #aaa; stroke-width: 1;" x1="577.3014995292699" y1="705.0646237309924" x2="659.1128182680262" y2="704.5493427939607"></line><line style="stroke: #aaa; stroke-width: 1;" x1="577.3014995292699" y1="705.0646237309924" x2="581.1135753129372" y2="632.9351725645231"></line><line style="stroke: #aaa; stroke-width: 1.41421;" x1="577.3014995292699" y1="705.0646237309924" x2="667.682212905301" y2="639.5540246008195"></line><line style="stroke: #aaa; stroke-width: 1.41421;" x1="659.1128182680262" y1="704.5493427939607" x2="581.1135753129372" y2="632.9351725645231"></line><line style="stroke: #aaa; stroke-width: 1;" x1="659.1128182680262" y1="704.5493427939607" x2="744.1361427516673" y2="687.8703524634336"></line><line style="stroke: #aaa; stroke-width: 1;" x1="659.1128182680262" y1="704.5493427939607" x2="667.682212905301" y2="639.5540246008195"></line><line style="stroke: #aaa; stroke-width: 1.41421;" x1="659.1128182680262" y1="704.5493427939607" x2="763.2822459612584" y2="680.5302591155693"></line><line style="stroke: #aaa; stroke-width: 1.41421;" x1="744.1361427516673" y1="687.8703524634336" x2="667.682212905301" y2="639.5540246008195"></line><line style="stroke: #aaa; stroke-width: 1;" x1="744.1361427516673" y1="687.8703524634336" x2="690.359701741354" y2="726.0862619585682"></line><line style="stroke: #aaa; stroke-width: 1;" x1="744.1361427516673" y1="687.8703524634336" x2="763.2822459612584" y2="680.5302591155693"></line><line style="stroke: #aaa; stroke-width: 1.41421;" x1="744.1361427516673" y1="687.8703524634336" x2="779.9984827559068" y2="779.9969599944717"></line><line style="stroke: #aaa; stroke-width: 1.41421;" x1="690.359701741354" y1="726.0862619585682" x2="763.2822459612584" y2="680.5302591155693"></line><line style="stroke: #aaa; stroke-width: 1;" x1="780" y1="20.000751468846538" x2="692.7652922508086" y2="43.08464792901216"></line><line style="stroke: #aaa; stroke-width: 1;" x1="692.7652922508086" y1="43.08464792901216" x2="639.1360239175166" y2="117.81307582168681"></line><line style="stroke: #aaa; stroke-width: 1;" x1="639.1360239175166" y1="117.81307582168681" x2="658.3450927569671" y2="209.11204184766962"></line><line style="stroke: #aaa; stroke-width: 1;" x1="658.3450927569671" y1="209.11204184766962" x2="662.8148938549508" y2="280.82349225401"></line><line style="stroke: #aaa; stroke-width: 1;" x1="662.8148938549508" y1="280.82349225401" x2="679.2337508073709" y2="357.75615215505184"></line><line style="stroke: #aaa; stroke-width: 1;" x1="679.2337508073709" y1="357.75615215505184" x2="675.3647783702162" y2="444.3651496523878"></line><line style="stroke: #aaa; stroke-width: 1;" x1="675.3647783702162" y1="444.3651496523878" x2="645.3385177697082" y2="542.6667684126037"></line><line style="stroke: #aaa; stroke-width: 1;" x1="645.3385177697082" y1="542.6667684126037" x2="654.4950858709749" y2="635.1224565420706"></line><line style="stroke: #aaa; stroke-width: 1;" x1="654.4950858709749" y1="635.1224565420706" x2="690.359701741354" y2="726.0862619585682"></line><line style="stroke: #aaa; stroke-width: 1;" x1="690.359701741354" y1="726.0862619585682" x2="779.9984827559068" y2="779.9969599944717"></line><line style="stroke: #aaa; stroke-width: 1;" x1="21.379666854522114" y1="780" x2="108.14079833531173" y2="746.9520999028232"></line><line style="stroke: #aaa; stroke-width: 1;" x1="108.14079833531173" y1="746.9520999028232" x2="175.0505042146495" y2="665.1098310737214"></line><line style="stroke: #aaa; stroke-width: 1;" x1="175.0505042146495" y1="665.1098310737214" x2="258.2903082669669" y2="630.0996074080848"></line><line style="stroke: #aaa; stroke-width: 1;" x1="258.2903082669669" y1="630.0996074080848" x2="341.0119734615241" y2="624.502197229267"></line><line style="stroke: #aaa; stroke-width: 1;" x1="341.0119734615241" y1="624.502197229267" x2="421.1019787767696" y2="626.4614807921987"></line><line style="stroke: #aaa; stroke-width: 1;" x1="421.1019787767696" y1="626.4614807921987" x2="500.08212003798417" y2="630.37548790977"></line><line style="stroke: #aaa; stroke-width: 1;" x1="500.08212003798417" y1="630.37548790977" x2="581.1135753129372" y2="632.9351725645231"></line><line style="stroke: #aaa; stroke-width: 1;" x1="581.1135753129372" y1="632.9351725645231" x2="667.682212905301" y2="639.5540246008195"></line><line style="stroke: #aaa; stroke-width: 1;" x1="667.682212905301" y1="639.5540246008195" x2="763.2822459612584" y2="680.5302591155693"></line><line style="stroke: #aaa; stroke-width: 1;" x1="763.2822459612584" y1="680.5302591155693" x2="779.9984827559068" y2="779.9969599944717"></line><circle r="10" cx="21.379586417826523" cy="20" style="stroke: #000; fill: #69b3a2;"></circle><circle r="10" cx="108.58155774432876" cy="50.832938019176964" style="stroke: #000; fill: #69b3a2;"></circle><circle r="10" cx="178.1221648809319" cy="130.35005862002706" style="stroke: #000; fill: #69b3a2;"></circle><circle r="10" cx="262.3102464913755" cy="164.69300107222145" style="stroke: #000; fill: #69b3a2;"></circle><circle r="10" cx="348.9448842017847" cy="165.84440316603119" style="stroke: #000; fill: #69b3a2;"></circle><circle r="10" cx="439.7155293097171" cy="123.10420544353724" style="stroke: #000; fill: #69b3a2;"></circle><circle r="10" cx="523.7898176131855" cy="102.92236874312955" style="stroke: #000; fill: #69b3a2;"></circle><circle r="10" cx="598.064984942001" cy="114.97295065695612" style="stroke: #000; fill: #69b3a2;"></circle><circle r="10" cx="660.3895791722873" cy="108.98489976776342" style="stroke: #000; fill: #69b3a2;"></circle><circle r="10" cx="755.9691294329891" cy="107.77877757444588" style="stroke: #000; fill: #69b3a2;"></circle><circle r="10" cx="780" cy="20.000751468846538" style="stroke: #000; fill: #69b3a2;"></circle><circle r="10" cx="20.569194121489666" cy="102.48232794292109" style="stroke: #000; fill: #69b3a2;"></circle><circle r="10" cx="98.88636799004655" cy="95.05901444372199" style="stroke: #000; fill: #69b3a2;"></circle><circle r="10" cx="191.58998207246336" cy="89.0246034702241" style="stroke: #000; fill: #69b3a2;"></circle><circle r="10" cx="273.025024276155" cy="92.16219317589018" style="stroke: #000; fill: #69b3a2;"></circle><circle r="10" cx="353.5178578980924" cy="107.32277674521431" style="stroke: #000; fill: #69b3a2;"></circle><circle r="10" cx="442.2553959214023" cy="155.9393051537392" style="stroke: #000; fill: #69b3a2;"></circle><circle r="10" cx="521.6247102924717" cy="185.9616397489644" style="stroke: #000; fill: #69b3a2;"></circle><circle r="10" cx="587.1385516062478" cy="188.53044442030227" style="stroke: #000; fill: #69b3a2;"></circle><circle r="10" cx="680.0340970664295" cy="189.21216566000348" style="stroke: #000; fill: #69b3a2;"></circle><circle r="10" cx="732.0520521729536" cy="122.13520368142012" style="stroke: #000; fill: #69b3a2;"></circle><circle r="10" cx="692.7652922508086" cy="43.08464792901216" style="stroke: #000; fill: #69b3a2;"></circle><circle r="10" cx="32.16874521288277" cy="176.1545819149572" style="stroke: #000; fill: #69b3a2;"></circle><circle r="10" cx="110.9719758128533" cy="166.41896421086295" style="stroke: #000; fill: #69b3a2;"></circle><circle r="10" cx="187.75287176126153" cy="164.15720009787432" style="stroke: #000; fill: #69b3a2;"></circle><circle r="10" cx="264.43666408771765" cy="169.14204916275753" style="stroke: #000; fill: #69b3a2;"></circle><circle r="10" cx="339.1298321641553" cy="176.7755030440942" style="stroke: #000; fill: #69b3a2;"></circle><circle r="10" cx="417.6282484258417" cy="195.2078165630167" style="stroke: #000; fill: #69b3a2;"></circle><circle r="10" cx="499.71646421157067" cy="251.69567928546076" style="stroke: #000; fill: #69b3a2;"></circle><circle r="10" cx="599.5344358460735" cy="268.3906296450109" style="stroke: #000; fill: #69b3a2;"></circle><circle r="10" cx="666.6975214889428" cy="208.22588023619625" style="stroke: #000; fill: #69b3a2;"></circle><circle r="10" cx="629.7116622338351" cy="123.50168616635077" style="stroke: #000; fill: #69b3a2;"></circle><circle r="10" cx="639.1360239175166" cy="117.81307582168681" style="stroke: #000; fill: #69b3a2;"></circle><circle r="10" cx="39.00499192272149" cy="247.55291175189183" style="stroke: #000; fill: #69b3a2;"></circle><circle r="10" cx="114.34784391978255" cy="244.71886659821757" style="stroke: #000; fill: #69b3a2;"></circle><circle r="10" cx="187.5806645567058" cy="244.3593859445067" style="stroke: #000; fill: #69b3a2;"></circle><circle r="10" cx="260.6253469260969" cy="247.2580312156554" style="stroke: #000; fill: #69b3a2;"></circle><circle r="10" cx="333.9939609093438" cy="252.46252067995184" style="stroke: #000; fill: #69b3a2;"></circle><circle r="10" cx="409.2204402844716" cy="254.4681643271887" style="stroke: #000; fill: #69b3a2;"></circle><circle r="10" cx="496.7722520491004" cy="243.31970405385863" style="stroke: #000; fill: #69b3a2;"></circle><circle r="10" cx="575.6492207119909" cy="219.0490599180078" style="stroke: #000; fill: #69b3a2;"></circle><circle r="10" cx="557.025808092439" cy="198.77830305589998" style="stroke: #000; fill: #69b3a2;"></circle><circle r="10" cx="581.011919958706" cy="206.83203770151175" style="stroke: #000; fill: #69b3a2;"></circle><circle r="10" cx="658.3450927569671" cy="209.11204184766962" style="stroke: #000; fill: #69b3a2;"></circle><circle r="10" cx="39.12333696197564" cy="322.53692810935075" style="stroke: #000; fill: #69b3a2;"></circle><circle r="10" cx="114.13998147904128" cy="323.1130091569467" style="stroke: #000; fill: #69b3a2;"></circle><circle r="10" cx="187.68383715502995" cy="323.95357068549686" style="stroke: #000; fill: #69b3a2;"></circle><circle r="10" cx="261.2656239333437" cy="325.59517367073056" style="stroke: #000; fill: #69b3a2;"></circle><circle r="10" cx="337.67327783487355" cy="326.46385525041666" style="stroke: #000; fill: #69b3a2;"></circle><circle r="10" cx="419.55211393576815" cy="320.9325651918376" style="stroke: #000; fill: #69b3a2;"></circle><circle r="10" cx="501.9771579101435" cy="310.34954594675474" style="stroke: #000; fill: #69b3a2;"></circle><circle r="10" cx="582.7461299570074" cy="303.436573375604" style="stroke: #000; fill: #69b3a2;"></circle><circle r="10" cx="519.1682921059016" cy="295.7088793228928" style="stroke: #000; fill: #69b3a2;"></circle><circle r="10" cx="591.3709040036767" cy="294.49287711160855" style="stroke: #000; fill: #69b3a2;"></circle><circle r="10" cx="662.8148938549508" cy="280.82349225401" style="stroke: #000; fill: #69b3a2;"></circle><circle r="10" cx="37.89861753010449" cy="399.0819873055458" style="stroke: #000; fill: #69b3a2;"></circle><circle r="10" cx="113.08018648007943" cy="400.2630294532556" style="stroke: #000; fill: #69b3a2;"></circle><circle r="10" cx="188.05859644600145" cy="401.4045515290986" style="stroke: #000; fill: #69b3a2;"></circle><circle r="10" cx="264.0482495999092" cy="401.4995517018552" style="stroke: #000; fill: #69b3a2;"></circle><circle r="10" cx="343.12321861693636" cy="398.58494640168334" style="stroke: #000; fill: #69b3a2;"></circle><circle r="10" cx="424.0750185770068" cy="393.1904565918738" style="stroke: #000; fill: #69b3a2;"></circle><circle r="10" cx="503.72881621551426" cy="388.2542476154419" style="stroke: #000; fill: #69b3a2;"></circle><circle r="10" cx="578.9287438190145" cy="384.1076800749628" style="stroke: #000; fill: #69b3a2;"></circle><circle r="10" cx="533.2771449267266" cy="389.5454899635493" style="stroke: #000; fill: #69b3a2;"></circle><circle r="10" cx="602.2222337568263" cy="368.0062907947957" style="stroke: #000; fill: #69b3a2;"></circle><circle r="10" cx="679.2337508073709" cy="357.75615215505184" style="stroke: #000; fill: #69b3a2;"></circle><circle r="10" cx="37.193781786700455" cy="475.6095664699537" style="stroke: #000; fill: #69b3a2;"></circle><circle r="10" cx="112.80784116538561" cy="476.56944821548603" style="stroke: #000; fill: #69b3a2;"></circle><circle r="10" cx="188.5357697132505" cy="477.24128943722064" style="stroke: #000; fill: #69b3a2;"></circle><circle r="10" cx="266.0760463302062" cy="476.06632730056725" style="stroke: #000; fill: #69b3a2;"></circle><circle r="10" cx="345.4666021185778" cy="472.8667214821257" style="stroke: #000; fill: #69b3a2;"></circle><circle r="10" cx="424.92164078090195" cy="469.6982757203483" style="stroke: #000; fill: #69b3a2;"></circle><circle r="10" cx="501.7639851150768" cy="468.9595543769931" style="stroke: #000; fill: #69b3a2;"></circle><circle r="10" cx="569.4338302850086" cy="474.79636499115736" style="stroke: #000; fill: #69b3a2;"></circle><circle r="10" cx="593.7340116785272" cy="472.740561252705" style="stroke: #000; fill: #69b3a2;"></circle><circle r="10" cx="630.2912494773618" cy="446.7310339547177" style="stroke: #000; fill: #69b3a2;"></circle><circle r="10" cx="675.3647783702162" cy="444.3651496523878" style="stroke: #000; fill: #69b3a2;"></circle><circle r="10" cx="36.53962199600268" cy="550.5555827583099" style="stroke: #000; fill: #69b3a2;"></circle><circle r="10" cx="112.52790963022674" cy="553.2148275941122" style="stroke: #000; fill: #69b3a2;"></circle><circle r="10" cx="188.21032085530157" cy="553.5332681731921" style="stroke: #000; fill: #69b3a2;"></circle><circle r="10" cx="265.95694266890564" cy="551.2646640477651" style="stroke: #000; fill: #69b3a2;"></circle><circle r="10" cx="345.37405022890465" cy="548.2208585126442" style="stroke: #000; fill: #69b3a2;"></circle><circle r="10" cx="423.34674141236593" cy="547.7830977165819" style="stroke: #000; fill: #69b3a2;"></circle><circle r="10" cx="496.7843900018445" cy="551.6796248023658" style="stroke: #000; fill: #69b3a2;"></circle><circle r="10" cx="565.6505821391082" cy="559.7006793885492" style="stroke: #000; fill: #69b3a2;"></circle><circle r="10" cx="634.8960852996227" cy="551.3444641928807" style="stroke: #000; fill: #69b3a2;"></circle><circle r="10" cx="689.8840457181977" cy="530.7704667793338" style="stroke: #000; fill: #69b3a2;"></circle><circle r="10" cx="645.3385177697082" cy="542.6667684126037" style="stroke: #000; fill: #69b3a2;"></circle><circle r="10" cx="30.609549320709355" cy="622.1021128647449" style="stroke: #000; fill: #69b3a2;"></circle><circle r="10" cx="109.64059412124412" cy="630.5267281847983" style="stroke: #000; fill: #69b3a2;"></circle><circle r="10" cx="187.22259495075735" cy="631.4296098266769" style="stroke: #000; fill: #69b3a2;"></circle><circle r="10" cx="266.10563259001975" cy="626.2562804190445" style="stroke: #000; fill: #69b3a2;"></circle><circle r="10" cx="344.1594963324567" cy="623.7247158154272" style="stroke: #000; fill: #69b3a2;"></circle><circle r="10" cx="420.2644600374325" cy="625.8268796381847" style="stroke: #000; fill: #69b3a2;"></circle><circle r="10" cx="494.9371453186147" cy="631.0328891052453" style="stroke: #000; fill: #69b3a2;"></circle><circle r="10" cx="572.7406637857063" cy="633.4246134545651" style="stroke: #000; fill: #69b3a2;"></circle><circle r="10" cx="649.9759743399686" cy="628.8357251097312" style="stroke: #000; fill: #69b3a2;"></circle><circle r="10" cx="720.9306529712494" cy="615.5638209749461" style="stroke: #000; fill: #69b3a2;"></circle><circle r="10" cx="654.4950858709749" cy="635.1224565420706" style="stroke: #000; fill: #69b3a2;"></circle><circle r="10" cx="20" cy="696.3291678456795" style="stroke: #000; fill: #69b3a2;"></circle><circle r="10" cx="98.1300218096851" cy="702.4813790333955" style="stroke: #000; fill: #69b3a2;"></circle><circle r="10" cx="190.61894585294215" cy="706.5511864342874" style="stroke: #000; fill: #69b3a2;"></circle><circle r="10" cx="269.80846679899093" cy="703.4465807886024" style="stroke: #000; fill: #69b3a2;"></circle><circle r="10" cx="342.6885281842913" cy="699.6534138907776" style="stroke: #000; fill: #69b3a2;"></circle><circle r="10" cx="417.7602486619329" cy="701.7175776444326" style="stroke: #000; fill: #69b3a2;"></circle><circle r="10" cx="496.2723201204563" cy="704.2354622231729" style="stroke: #000; fill: #69b3a2;"></circle><circle r="10" cx="577.3014995292699" cy="705.0646237309924" style="stroke: #000; fill: #69b3a2;"></circle><circle r="10" cx="659.1128182680262" cy="704.5493427939607" style="stroke: #000; fill: #69b3a2;"></circle><circle r="10" cx="744.1361427516673" cy="687.8703524634336" style="stroke: #000; fill: #69b3a2;"></circle><circle r="10" cx="690.359701741354" cy="726.0862619585682" style="stroke: #000; fill: #69b3a2;"></circle><circle r="10" cx="21.379666854522114" cy="780" style="stroke: #000; fill: #69b3a2;"></circle><circle r="10" cx="108.14079833531173" cy="746.9520999028232" style="stroke: #000; fill: #69b3a2;"></circle><circle r="10" cx="175.0505042146495" cy="665.1098310737214" style="stroke: #000; fill: #69b3a2;"></circle><circle r="10" cx="258.2903082669669" cy="630.0996074080848" style="stroke: #000; fill: #69b3a2;"></circle><circle r="10" cx="341.0119734615241" cy="624.502197229267" style="stroke: #000; fill: #69b3a2;"></circle><circle r="10" cx="421.1019787767696" cy="626.4614807921987" style="stroke: #000; fill: #69b3a2;"></circle><circle r="10" cx="500.08212003798417" cy="630.37548790977" style="stroke: #000; fill: #69b3a2;"></circle><circle r="10" cx="581.1135753129372" cy="632.9351725645231" style="stroke: #000; fill: #69b3a2;"></circle><circle r="10" cx="667.682212905301" cy="639.5540246008195" style="stroke: #000; fill: #69b3a2;"></circle><circle r="10" cx="763.2822459612584" cy="680.5302591155693" style="stroke: #000; fill: #69b3a2;"></circle><circle r="10" cx="779.9984827559068" cy="779.9969599944717" style="stroke: #000; fill: #69b3a2;"></circle></svg>