<svg width="800" height="800" xmlns="http://www.w3.org/2000/svg"><line style="stroke: #aaa; stroke-width: 1;" x1="31.65894625299495" y1="20.00023753827923" x2="114.3512053220042" y2="33.068005966502376"></line><line style="stroke: #aaa; stroke-width: 1;" x1="31.65894625299495" y1="20.00023753827923" x2="37.47740529937725" y2="105.84652751911001"></line><line style="stroke: #aaa; stroke-width: 1.41421;" x1="31.65894625299495" y1="20.00023753827923" x2="105.24617966535494" y2="107.47444943276479"></line><line style="stroke: #aaa; stroke-width: 1.41421;" x1="114.3512053220042" y1="33.068005966502376" x2="37.47740529937725" y2="105.84652751911001"></line><line style="stroke: #aaa; stroke-width: 1;" x1="114.3512053220042" y1="33.068005966502376" x2="194.8687882150809" y2="67.74342672815298"></line><line style="stroke: #aaa; stroke-width: 1;" x1="114.3512053220042" y1="33.068005966502376" x2="105.24617966535494" y2="107.47444943276479"></line><line style="stroke: #aaa; stroke-width: 1.41421;" x1="114.3512053220042" y1="33.068005966502376" x2="182.55247392308704" y2="109.94445233630259"></line><line style="stroke: #aaa; stroke-width: 1.41421;" x1="194.8687882150809" y1="67.74342672815298" x2="105.24617966535494" y2="107.47444943276479"></line><line style="stroke: #aaa; stroke-width: 1;" x1="194.8687882150809" y1="67.74342672815298" x2="253.2618722187473" y2="153.76990385399736"></line><line style="stroke: #aaa; stroke-width: 1;" x1="194.8687882150809" y1="67.74342672815298" x2="182.55247392308704" y2="109.94445233630259"></line><line style="stroke: #aaa; stroke-width: 1.41421;" x1="194.8687882150809" y1="67.74342672815298" x2="270.44366390945953" y2="107.81416983211291"></line><line style="stroke: #aaa; stroke-width: 1.41421;" x1="253.2618722187473" y1="153.76990385399736" x2="182.55247392308704" y2="109.94445233630259"></line><line style="stroke: #aaa; stroke-width: 1;" x1="253.2618722187473" y1="153.76990385399736" x2="331.9274109561213" y2="187.71838376111447"></line><line style="stroke: #aaa; stroke-width: 1;" x1="253.2618722187473" y1="153.76990385399736" x2="270.44366390945953" y2="107.81416983211291"></line><line style="stroke: #aaa; stroke-width: 1.41421;" x1="253.2618722187473" y1="153.76990385399736" x2="343.8899392120179" y2="112.0732148387055"></line><line style="stroke: #aaa; stroke-width: 1.41421;" x1="331.9274109561213" y1="187.71838376111447" x2="270.44366390945953" y2="107.81416983211291"></line><line style="stroke: #aaa; stroke-width: 1;" x1="331.9274109561213" y1="187.71838376111447" x2="410.1104473240987" y2="194.0560312111458"></line><line style="stroke: #aaa; stroke-width: 1;" x1="331.9274109561213" y1="187.71838376111447" x2="343.8899392120179" y2="112.0732148387055"></line><line style="stroke: #aaa; stroke-width: 1.41421;" x1="331.9274109561213" y1="187.71838376111447" x2="412.2978894682844" y2="117.37726107371793"></line><line style="stroke: #aaa; stroke-width: 1.41421;" x1="410.1104473240987" y1="194.0560312111458" x2="343.8899392120179" y2="112.0732148387055"></line><line style="stroke: #aaa; stroke-width: 1;" x1="410.1104473240987" y1="194.0560312111458" x2="487.9198385645554" y2="192.2943491402533"></line><line style="stroke: #aaa; stroke-width: 1;" x1="410.1104473240987" y1="194.0560312111458" x2="412.2978894682844" y2="117.37726107371793"></line><line style="stroke: #aaa; stroke-width: 1.41421;" x1="410.1104473240987" y1="194.0560312111458" x2="480.361615473213" y2="114.98021825594614"></line><line style="stroke: #aaa; stroke-width: 1.41421;" x1="487.9198385645554" y1="192.2943491402533" x2="412.2978894682844" y2="117.37726107371793"></line><line style="stroke: #aaa; stroke-width: 1;" x1="487.9198385645554" y1="192.2943491402533" x2="566.7545473399801" y2="161.75371323912498"></line><line style="stroke: #aaa; stroke-width: 1;" x1="487.9198385645554" y1="192.2943491402533" x2="480.361615473213" y2="114.98021825594614"></line><line style="stroke: #aaa; stroke-width: 1.41421;" x1="487.9198385645554" y1="192.2943491402533" x2="552.9620405855179" y2="115.3959387446339"></line><line style="stroke: #aaa; stroke-width: 1.41421;" x1="566.7545473399801" y1="161.75371323912498" x2="480.361615473213" y2="114.98021825594614"></line><line style="stroke: #aaa; stroke-width: 1;" x1="566.7545473399801" y1="161.75371323912498" x2="620.8661583371553" y2="73.43332541674269"></line><line style="stroke: #aaa; stroke-width: 1;" x1="566.7545473399801" y1="161.75371323912498" x2="552.9620405855179" y2="115.3959387446339"></line><line style="stroke: #aaa; stroke-width: 1.41421;" x1="566.7545473399801" y1="161.75371323912498" x2="639.1107791799686" y2="119.98710414164066"></line><line style="stroke: #aaa; stroke-width: 1.41421;" x1="620.8661583371553" y1="73.43332541674269" x2="552.9620405855179" y2="115.3959387446339"></line><line style="stroke: #aaa; stroke-width: 1;" x1="620.8661583371553" y1="73.43332541674269" x2="695.4627898984583" y2="37.50223117902279"></line><line style="stroke: #aaa; stroke-width: 1;" x1="620.8661583371553" y1="73.43332541674269" x2="639.1107791799686" y2="119.98710414164066"></line><line style="stroke: #aaa; stroke-width: 1.41421;" x1="620.8661583371553" y1="73.43332541674269" x2="711.0624739724444" y2="115.20289851771125"></line><line style="stroke: #aaa; stroke-width: 1.41421;" x1="695.4627898984583" y1="37.50223117902279" x2="639.1107791799686" y2="119.98710414164066"></line><line style="stroke: #aaa; stroke-width: 1;" x1="695.4627898984583" y1="37.50223117902279" x2="767.179853203377" y2="20"></line><line style="stroke: #aaa; stroke-width: 1;" x1="695.4627898984583" y1="37.50223117902279" x2="711.0624739724444" y2="115.20289851771125"></line><line style="stroke: #aaa; stroke-width: 1.41421;" x1="695.4627898984583" y1="37.50223117902279" x2="775.9031429915553" y2="107.66292965432706"></line><line style="stroke: #aaa; stroke-width: 1.41421;" x1="767.179853203377" y1="20" x2="711.0624739724444" y2="115.20289851771125"></line><line style="stroke: #aaa; stroke-width: 1;" x1="37.47740529937725" y1="105.84652751911001" x2="105.24617966535494" y2="107.47444943276479"></line><line style="stroke: #aaa; stroke-width: 1;" x1="37.47740529937725" y1="105.84652751911001" x2="39.74206988832357" y2="187.97602406397579"></line><line style="stroke: #aaa; stroke-width: 1.41421;" x1="37.47740529937725" y1="105.84652751911001" x2="112.9721017509389" y2="185.14958074143513"></line><line style="stroke: #aaa; stroke-width: 1.41421;" x1="105.24617966535494" y1="107.47444943276479" x2="39.74206988832357" y2="187.97602406397579"></line><line style="stroke: #aaa; stroke-width: 1;" x1="105.24617966535494" y1="107.47444943276479" x2="182.55247392308704" y2="109.94445233630259"></line><line style="stroke: #aaa; stroke-width: 1;" x1="105.24617966535494" y1="107.47444943276479" x2="112.9721017509389" y2="185.14958074143513"></line><line style="stroke: #aaa; stroke-width: 1.41421;" x1="105.24617966535494" y1="107.47444943276479" x2="189.35016736510596" y2="181.4863764352652"></line><line style="stroke: #aaa; stroke-width: 1.41421;" x1="182.55247392308704" y1="109.94445233630259" x2="112.9721017509389" y2="185.14958074143513"></line><line style="stroke: #aaa; stroke-width: 1;" x1="182.55247392308704" y1="109.94445233630259" x2="270.44366390945953" y2="107.81416983211291"></line><line style="stroke: #aaa; stroke-width: 1;" x1="182.55247392308704" y1="109.94445233630259" x2="189.35016736510596" y2="181.4863764352652"></line><line style="stroke: #aaa; stroke-width: 1.41421;" x1="182.55247392308704" y1="109.94445233630259" x2="264.37928580629506" y2="183.94725932808228"></line><line style="stroke: #aaa; stroke-width: 1.41421;" x1="270.44366390945953" y1="107.81416983211291" x2="189.35016736510596" y2="181.4863764352652"></line><line style="stroke: #aaa; stroke-width: 1;" x1="270.44366390945953" y1="107.81416983211291" x2="343.8899392120179" y2="112.0732148387055"></line><line style="stroke: #aaa; stroke-width: 1;" x1="270.44366390945953" y1="107.81416983211291" x2="264.37928580629506" y2="183.94725932808228"></line><line style="stroke: #aaa; stroke-width: 1.41421;" x1="270.44366390945953" y1="107.81416983211291" x2="338.48753082296474" y2="190.16406663606358"></line><line style="stroke: #aaa; stroke-width: 1.41421;" x1="343.8899392120179" y1="112.0732148387055" x2="264.37928580629506" y2="183.94725932808228"></line><line style="stroke: #aaa; stroke-width: 1;" x1="343.8899392120179" y1="112.0732148387055" x2="412.2978894682844" y2="117.37726107371793"></line><line style="stroke: #aaa; stroke-width: 1;" x1="343.8899392120179" y1="112.0732148387055" x2="338.48753082296474" y2="190.16406663606358"></line><line style="stroke: #aaa; stroke-width: 1.41421;" x1="343.8899392120179" y1="112.0732148387055" x2="411.6256224475091" y2="193.530870593809"></line><line style="stroke: #aaa; stroke-width: 1.41421;" x1="412.2978894682844" y1="117.37726107371793" x2="338.48753082296474" y2="190.16406663606358"></line><line style="stroke: #aaa; stroke-width: 1;" x1="412.2978894682844" y1="117.37726107371793" x2="480.361615473213" y2="114.98021825594614"></line><line style="stroke: #aaa; stroke-width: 1;" x1="412.2978894682844" y1="117.37726107371793" x2="411.6256224475091" y2="193.530870593809"></line><line style="stroke: #aaa; stroke-width: 1.41421;" x1="412.2978894682844" y1="117.37726107371793" x2="484.34961523978154" y2="193.41383045622595"></line><line style="stroke: #aaa; stroke-width: 1.41421;" x1="480.361615473213" y1="114.98021825594614" x2="411.6256224475091" y2="193.530870593809"></line><line style="stroke: #aaa; stroke-width: 1;" x1="480.361615473213" y1="114.98021825594614" x2="552.9620405855179" y2="115.3959387446339"></line><line style="stroke: #aaa; stroke-width: 1;" x1="480.361615473213" y1="114.98021825594614" x2="484.34961523978154" y2="193.41383045622595"></line><line style="stroke: #aaa; stroke-width: 1.41421;" x1="480.361615473213" y1="114.98021825594614" x2="558.1040742203539" y2="190.45286697555414"></line><line style="stroke: #aaa; stroke-width: 1.41421;" x1="552.9620405855179" y1="115.3959387446339" x2="484.34961523978154" y2="193.41383045622595"></line><line style="stroke: #aaa; stroke-width: 1;" x1="552.9620405855179" y1="115.3959387446339" x2="639.1107791799686" y2="119.98710414164066"></line><line style="stroke: #aaa; stroke-width: 1;" x1="552.9620405855179" y1="115.3959387446339" x2="558.1040742203539" y2="190.45286697555414"></line><line style="stroke: #aaa; stroke-width: 1.41421;" x1="552.9620405855179" y1="115.3959387446339" x2="632.8404549435251" y2="190.97498758931744"></line><line style="stroke: #aaa; stroke-width: 1.41421;" x1="639.1107791799686" y1="119.98710414164066" x2="558.1040742203539" y2="190.45286697555414"></line><line style="stroke: #aaa; stroke-width: 1;" x1="639.1107791799686" y1="119.98710414164066" x2="711.0624739724444" y2="115.20289851771125"></line><line style="stroke: #aaa; stroke-width: 1;" x1="639.1107791799686" y1="119.98710414164066" x2="632.8404549435251" y2="190.97498758931744"></line><line style="stroke: #aaa; stroke-width: 1.41421;" x1="639.1107791799686" y1="119.98710414164066" x2="709.1905707253184" y2="194.2771914711241"></line><line style="stroke: #aaa; stroke-width: 1.41421;" x1="711.0624739724444" y1="115.20289851771125" x2="632.8404549435251" y2="190.97498758931744"></line><line style="stroke: #aaa; stroke-width: 1;" x1="711.0624739724444" y1="115.20289851771125" x2="775.9031429915553" y2="107.66292965432706"></line><line style="stroke: #aaa; stroke-width: 1;" x1="711.0624739724444" y1="115.20289851771125" x2="709.1905707253184" y2="194.2771914711241"></line><line style="stroke: #aaa; stroke-width: 1.41421;" x1="711.0624739724444" y1="115.20289851771125" x2="780" y2="193.7641908680816"></line><line style="stroke: #aaa; stroke-width: 1.41421;" x1="775.9031429915553" y1="107.66292965432706" x2="709.1905707253184" y2="194.2771914711241"></line><line style="stroke: #aaa; stroke-width: 1;" x1="39.74206988832357" y1="187.97602406397579" x2="112.9721017509389" y2="185.14958074143513"></line><line style="stroke: #aaa; stroke-width: 1;" x1="39.74206988832357" y1="187.97602406397579" x2="44.47544755298153" y2="264.340913832431"></line><line style="stroke: #aaa; stroke-width: 1.41421;" x1="39.74206988832357" y1="187.97602406397579" x2="118.70549499704774" y2="261.216550159679"></line><line style="stroke: #aaa; stroke-width: 1.41421;" x1="112.9721017509389" y1="185.14958074143513" x2="44.47544755298153" y2="264.340913832431"></line><line style="stroke: #aaa; stroke-width: 1;" x1="112.9721017509389" y1="185.14958074143513" x2="189.35016736510596" y2="181.4863764352652"></line><line style="stroke: #aaa; stroke-width: 1;" x1="112.9721017509389" y1="185.14958074143513" x2="118.70549499704774" y2="261.216550159679"></line><line style="stroke: #aaa; stroke-width: 1.41421;" x1="112.9721017509389" y1="185.14958074143513" x2="191.5258411588186" y2="260.6298294699771"></line><line style="stroke: #aaa; stroke-width: 1.41421;" x1="189.35016736510596" y1="181.4863764352652" x2="118.70549499704774" y2="261.216550159679"></line><line style="stroke: #aaa; stroke-width: 1;" x1="189.35016736510596" y1="181.4863764352652" x2="264.37928580629506" y2="183.94725932808228"></line><line style="stroke: #aaa; stroke-width: 1;" x1="189.35016736510596" y1="181.4863764352652" x2="191.5258411588186" y2="260.6298294699771"></line><line style="stroke: #aaa; stroke-width: 1.41421;" x1="189.35016736510596" y1="181.4863764352652" x2="263.8739822578567" y2="262.7669519822074"></line><line style="stroke: #aaa; stroke-width: 1.41421;" x1="264.37928580629506" y1="183.94725932808228" x2="191.5258411588186" y2="260.6298294699771"></line><line style="stroke: #aaa; stroke-width: 1;" x1="264.37928580629506" y1="183.94725932808228" x2="338.48753082296474" y2="190.16406663606358"></line><line style="stroke: #aaa; stroke-width: 1;" x1="264.37928580629506" y1="183.94725932808228" x2="263.8739822578567" y2="262.7669519822074"></line><line style="stroke: #aaa; stroke-width: 1.41421;" x1="264.37928580629506" y1="183.94725932808228" x2="337.2937787718506" y2="266.3837962338801"></line><line style="stroke: #aaa; stroke-width: 1.41421;" x1="338.48753082296474" y1="190.16406663606358" x2="263.8739822578567" y2="262.7669519822074"></line><line style="stroke: #aaa; stroke-width: 1;" x1="338.48753082296474" y1="190.16406663606358" x2="411.6256224475091" y2="193.530870593809"></line><line style="stroke: #aaa; stroke-width: 1;" x1="338.48753082296474" y1="190.16406663606358" x2="337.2937787718506" y2="266.3837962338801"></line><line style="stroke: #aaa; stroke-width: 1.41421;" x1="338.48753082296474" y1="190.16406663606358" x2="411.6101764875132" y2="269.2679996243189"></line><line style="stroke: #aaa; stroke-width: 1.41421;" x1="411.6256224475091" y1="193.530870593809" x2="337.2937787718506" y2="266.3837962338801"></line><line style="stroke: #aaa; stroke-width: 1;" x1="411.6256224475091" y1="193.530870593809" x2="484.34961523978154" y2="193.41383045622595"></line><line style="stroke: #aaa; stroke-width: 1;" x1="411.6256224475091" y1="193.530870593809" x2="411.6101764875132" y2="269.2679996243189"></line><line style="stroke: #aaa; stroke-width: 1.41421;" x1="411.6256224475091" y1="193.530870593809" x2="485.5573422070825" y2="269.29611965737456"></line><line style="stroke: #aaa; stroke-width: 1.41421;" x1="484.34961523978154" y1="193.41383045622595" x2="411.6101764875132" y2="269.2679996243189"></line><line style="stroke: #aaa; stroke-width: 1;" x1="484.34961523978154" y1="193.41383045622595" x2="558.1040742203539" y2="190.45286697555414"></line><line style="stroke: #aaa; stroke-width: 1;" x1="484.34961523978154" y1="193.41383045622595" x2="485.5573422070825" y2="269.29611965737456"></line><line style="stroke: #aaa; stroke-width: 1.41421;" x1="484.34961523978154" y1="193.41383045622595" x2="558.3894567193264" y2="268.19107835837644"></line><line style="stroke: #aaa; stroke-width: 1.41421;" x1="558.1040742203539" y1="190.45286697555414" x2="485.5573422070825" y2="269.29611965737456"></line><line style="stroke: #aaa; stroke-width: 1;" x1="558.1040742203539" y1="190.45286697555414" x2="632.8404549435251" y2="190.97498758931744"></line><line style="stroke: #aaa; stroke-width: 1;" x1="558.1040742203539" y1="190.45286697555414" x2="558.3894567193264" y2="268.19107835837644"></line><line style="stroke: #aaa; stroke-width: 1.41421;" x1="558.1040742203539" y1="190.45286697555414" x2="631.4245752772312" y2="268.57335880775474"></line><line style="stroke: #aaa; stroke-width: 1.41421;" x1="632.8404549435251" y1="190.97498758931744" x2="558.3894567193264" y2="268.19107835837644"></line><line style="stroke: #aaa; stroke-width: 1;" x1="632.8404549435251" y1="190.97498758931744" x2="709.1905707253184" y2="194.2771914711241"></line><line style="stroke: #aaa; stroke-width: 1;" x1="632.8404549435251" y1="190.97498758931744" x2="631.4245752772312" y2="268.57335880775474"></line><line style="stroke: #aaa; stroke-width: 1.41421;" x1="632.8404549435251" y1="190.97498758931744" x2="704.5803194274852" y2="271.3884021168944"></line><line style="stroke: #aaa; stroke-width: 1.41421;" x1="709.1905707253184" y1="194.2771914711241" x2="631.4245752772312" y2="268.57335880775474"></line><line style="stroke: #aaa; stroke-width: 1;" x1="709.1905707253184" y1="194.2771914711241" x2="780" y2="193.7641908680816"></line><line style="stroke: #aaa; stroke-width: 1;" x1="709.1905707253184" y1="194.2771914711241" x2="704.5803194274852" y2="271.3884021168944"></line><line style="stroke: #aaa; stroke-width: 1.41421;" x1="709.1905707253184" y1="194.2771914711241" x2="776.7784140579914" y2="275.59804706541627"></line><line style="stroke: #aaa; stroke-width: 1.41421;" x1="780" y1="193.7641908680816" x2="704.5803194274852" y2="271.3884021168944"></line><line style="stroke: #aaa; stroke-width: 1;" x1="44.47544755298153" y1="264.340913832431" x2="118.70549499704774" y2="261.216550159679"></line><line style="stroke: #aaa; stroke-width: 1;" x1="44.47544755298153" y1="264.340913832431" x2="46.56153477871776" y2="337.96448037840594"></line><line style="stroke: #aaa; stroke-width: 1.41421;" x1="44.47544755298153" y1="264.340913832431" x2="120.55165497751382" y2="338.6234011529805"></line><line style="stroke: #aaa; stroke-width: 1.41421;" x1="118.70549499704774" y1="261.216550159679" x2="46.56153477871776" y2="337.96448037840594"></line><line style="stroke: #aaa; stroke-width: 1;" x1="118.70549499704774" y1="261.216550159679" x2="191.5258411588186" y2="260.6298294699771"></line><line style="stroke: #aaa; stroke-width: 1;" x1="118.70549499704774" y1="261.216550159679" x2="120.55165497751382" y2="338.6234011529805"></line><line style="stroke: #aaa; stroke-width: 1.41421;" x1="118.70549499704774" y1="261.216550159679" x2="192.89023429179252" y2="339.78924252345035"></line><line style="stroke: #aaa; stroke-width: 1.41421;" x1="191.5258411588186" y1="260.6298294699771" x2="120.55165497751382" y2="338.6234011529805"></line><line style="stroke: #aaa; stroke-width: 1;" x1="191.5258411588186" y1="260.6298294699771" x2="263.8739822578567" y2="262.7669519822074"></line><line style="stroke: #aaa; stroke-width: 1;" x1="191.5258411588186" y1="260.6298294699771" x2="192.89023429179252" y2="339.78924252345035"></line><line style="stroke: #aaa; stroke-width: 1.41421;" x1="191.5258411588186" y1="260.6298294699771" x2="265.0956841413444" y2="341.5372445782617"></line><line style="stroke: #aaa; stroke-width: 1.41421;" x1="263.8739822578567" y1="262.7669519822074" x2="192.89023429179252" y2="339.78924252345035"></line><line style="stroke: #aaa; stroke-width: 1;" x1="263.8739822578567" y1="262.7669519822074" x2="337.2937787718506" y2="266.3837962338801"></line><line style="stroke: #aaa; stroke-width: 1;" x1="263.8739822578567" y1="262.7669519822074" x2="265.0956841413444" y2="341.5372445782617"></line><line style="stroke: #aaa; stroke-width: 1.41421;" x1="263.8739822578567" y1="262.7669519822074" x2="338.2139166744654" y2="343.80432724326266"></line><line style="stroke: #aaa; stroke-width: 1.41421;" x1="337.2937787718506" y1="266.3837962338801" x2="265.0956841413444" y2="341.5372445782617"></line><line style="stroke: #aaa; stroke-width: 1;" x1="337.2937787718506" y1="266.3837962338801" x2="411.6101764875132" y2="269.2679996243189"></line><line style="stroke: #aaa; stroke-width: 1;" x1="337.2937787718506" y1="266.3837962338801" x2="338.2139166744654" y2="343.80432724326266"></line><line style="stroke: #aaa; stroke-width: 1.41421;" x1="337.2937787718506" y1="266.3837962338801" x2="412.2544936759149" y2="345.91408972333073"></line><line style="stroke: #aaa; stroke-width: 1.41421;" x1="411.6101764875132" y1="269.2679996243189" x2="338.2139166744654" y2="343.80432724326266"></line><line style="stroke: #aaa; stroke-width: 1;" x1="411.6101764875132" y1="269.2679996243189" x2="485.5573422070825" y2="269.29611965737456"></line><line style="stroke: #aaa; stroke-width: 1;" x1="411.6101764875132" y1="269.2679996243189" x2="412.2544936759149" y2="345.91408972333073"></line><line style="stroke: #aaa; stroke-width: 1.41421;" x1="411.6101764875132" y1="269.2679996243189" x2="485.8316918774864" y2="347.0434510509175"></line><line style="stroke: #aaa; stroke-width: 1.41421;" x1="485.5573422070825" y1="269.29611965737456" x2="412.2544936759149" y2="345.91408972333073"></line><line style="stroke: #aaa; stroke-width: 1;" x1="485.5573422070825" y1="269.29611965737456" x2="558.3894567193264" y2="268.19107835837644"></line><line style="stroke: #aaa; stroke-width: 1;" x1="485.5573422070825" y1="269.29611965737456" x2="485.8316918774864" y2="347.0434510509175"></line><line style="stroke: #aaa; stroke-width: 1.41421;" x1="485.5573422070825" y1="269.29611965737456" x2="557.5185987843178" y2="346.71285066229024"></line><line style="stroke: #aaa; stroke-width: 1.41421;" x1="558.3894567193264" y1="268.19107835837644" x2="485.8316918774864" y2="347.0434510509175"></line><line style="stroke: #aaa; stroke-width: 1;" x1="558.3894567193264" y1="268.19107835837644" x2="631.4245752772312" y2="268.57335880775474"></line><line style="stroke: #aaa; stroke-width: 1;" x1="558.3894567193264" y1="268.19107835837644" x2="557.5185987843178" y2="346.71285066229024"></line><line style="stroke: #aaa; stroke-width: 1.41421;" x1="558.3894567193264" y1="268.19107835837644" x2="628.2633021313973" y2="346.597330526494"></line><line style="stroke: #aaa; stroke-width: 1.41421;" x1="631.4245752772312" y1="268.57335880775474" x2="557.5185987843178" y2="346.71285066229024"></line><line style="stroke: #aaa; stroke-width: 1;" x1="631.4245752772312" y1="268.57335880775474" x2="704.5803194274852" y2="271.3884021168944"></line><line style="stroke: #aaa; stroke-width: 1;" x1="631.4245752772312" y1="268.57335880775474" x2="628.2633021313973" y2="346.597330526494"></line><line style="stroke: #aaa; stroke-width: 1.41421;" x1="631.4245752772312" y1="268.57335880775474" x2="700.5342134304558" y2="350.28409486035923"></line><line style="stroke: #aaa; stroke-width: 1.41421;" x1="704.5803194274852" y1="271.3884021168944" x2="628.2633021313973" y2="346.597330526494"></line><line style="stroke: #aaa; stroke-width: 1;" x1="704.5803194274852" y1="271.3884021168944" x2="776.7784140579914" y2="275.59804706541627"></line><line style="stroke: #aaa; stroke-width: 1;" x1="704.5803194274852" y1="271.3884021168944" x2="700.5342134304558" y2="350.28409486035923"></line><line style="stroke: #aaa; stroke-width: 1.41421;" x1="704.5803194274852" y1="271.3884021168944" x2="771.659181602197" y2="355.6641411847112"></line><line style="stroke: #aaa; stroke-width: 1.41421;" x1="776.7784140579914" y1="275.59804706541627" x2="700.5342134304558" y2="350.28409486035923"></line><line style="stroke: #aaa; stroke-width: 1;" x1="46.56153477871776" y1="337.96448037840594" x2="120.55165497751382" y2="338.6234011529805"></line><line style="stroke: #aaa; stroke-width: 1;" x1="46.56153477871776" y1="337.96448037840594" x2="44.22706180580886" y2="410.73304591931014"></line><line style="stroke: #aaa; stroke-width: 1.41421;" x1="46.56153477871776" y1="337.96448037840594" x2="119.39100141210527" y2="414.75649064894986"></line><line style="stroke: #aaa; stroke-width: 1.41421;" x1="120.55165497751382" y1="338.6234011529805" x2="44.22706180580886" y2="410.73304591931014"></line><line style="stroke: #aaa; stroke-width: 1;" x1="120.55165497751382" y1="338.6234011529805" x2="192.89023429179252" y2="339.78924252345035"></line><line style="stroke: #aaa; stroke-width: 1;" x1="120.55165497751382" y1="338.6234011529805" x2="119.39100141210527" y2="414.75649064894986"></line><line style="stroke: #aaa; stroke-width: 1.41421;" x1="120.55165497751382" y1="338.6234011529805" x2="193.28226746692735" y2="417.79953422610845"></line><line style="stroke: #aaa; stroke-width: 1.41421;" x1="192.89023429179252" y1="339.78924252345035" x2="119.39100141210527" y2="414.75649064894986"></line><line style="stroke: #aaa; stroke-width: 1;" x1="192.89023429179252" y1="339.78924252345035" x2="265.0956841413444" y2="341.5372445782617"></line><line style="stroke: #aaa; stroke-width: 1;" x1="192.89023429179252" y1="339.78924252345035" x2="193.28226746692735" y2="417.79953422610845"></line><line style="stroke: #aaa; stroke-width: 1.41421;" x1="192.89023429179252" y1="339.78924252345035" x2="266.12100167631246" y2="419.9374167392321"></line><line style="stroke: #aaa; stroke-width: 1.41421;" x1="265.0956841413444" y1="341.5372445782617" x2="193.28226746692735" y2="417.79953422610845"></line><line style="stroke: #aaa; stroke-width: 1;" x1="265.0956841413444" y1="341.5372445782617" x2="338.2139166744654" y2="343.80432724326266"></line><line style="stroke: #aaa; stroke-width: 1;" x1="265.0956841413444" y1="341.5372445782617" x2="266.12100167631246" y2="419.9374167392321"></line><line style="stroke: #aaa; stroke-width: 1.41421;" x1="265.0956841413444" y1="341.5372445782617" x2="339.14214531803043" y2="421.7606588824898"></line><line style="stroke: #aaa; stroke-width: 1.41421;" x1="338.2139166744654" y1="343.80432724326266" x2="266.12100167631246" y2="419.9374167392321"></line><line style="stroke: #aaa; stroke-width: 1;" x1="338.2139166744654" y1="343.80432724326266" x2="412.2544936759149" y2="345.91408972333073"></line><line style="stroke: #aaa; stroke-width: 1;" x1="338.2139166744654" y1="343.80432724326266" x2="339.14214531803043" y2="421.7606588824898"></line><line style="stroke: #aaa; stroke-width: 1.41421;" x1="338.2139166744654" y1="343.80432724326266" x2="412.8723320757521" y2="423.8651013563039"></line><line style="stroke: #aaa; stroke-width: 1.41421;" x1="412.2544936759149" y1="345.91408972333073" x2="339.14214531803043" y2="421.7606588824898"></line><line style="stroke: #aaa; stroke-width: 1;" x1="412.2544936759149" y1="345.91408972333073" x2="485.8316918774864" y2="347.0434510509175"></line><line style="stroke: #aaa; stroke-width: 1;" x1="412.2544936759149" y1="345.91408972333073" x2="412.8723320757521" y2="423.8651013563039"></line><line style="stroke: #aaa; stroke-width: 1.41421;" x1="412.2544936759149" y1="345.91408972333073" x2="486.2833023268912" y2="425.9900638542399"></line><line style="stroke: #aaa; stroke-width: 1.41421;" x1="485.8316918774864" y1="347.0434510509175" x2="412.8723320757521" y2="423.8651013563039"></line><line style="stroke: #aaa; stroke-width: 1;" x1="485.8316918774864" y1="347.0434510509175" x2="557.5185987843178" y2="346.71285066229024"></line><line style="stroke: #aaa; stroke-width: 1;" x1="485.8316918774864" y1="347.0434510509175" x2="486.2833023268912" y2="425.9900638542399"></line><line style="stroke: #aaa; stroke-width: 1.41421;" x1="485.8316918774864" y1="347.0434510509175" x2="557.763527578539" y2="427.3816254900483"></line><line style="stroke: #aaa; stroke-width: 1.41421;" x1="557.5185987843178" y1="346.71285066229024" x2="486.2833023268912" y2="425.9900638542399"></line><line style="stroke: #aaa; stroke-width: 1;" x1="557.5185987843178" y1="346.71285066229024" x2="628.2633021313973" y2="346.597330526494"></line><line style="stroke: #aaa; stroke-width: 1;" x1="557.5185987843178" y1="346.71285066229024" x2="557.763527578539" y2="427.3816254900483"></line><line style="stroke: #aaa; stroke-width: 1.41421;" x1="557.5185987843178" y1="346.71285066229024" x2="625.7036859035002" y2="426.92182494954363"></line><line style="stroke: #aaa; stroke-width: 1.41421;" x1="628.2633021313973" y1="346.597330526494" x2="557.763527578539" y2="427.3816254900483"></line><line style="stroke: #aaa; stroke-width: 1;" x1="628.2633021313973" y1="346.597330526494" x2="700.5342134304558" y2="350.28409486035923"></line><line style="stroke: #aaa; stroke-width: 1;" x1="628.2633021313973" y1="346.597330526494" x2="625.7036859035002" y2="426.92182494954363"></line><line style="stroke: #aaa; stroke-width: 1.41421;" x1="628.2633021313973" y1="346.597330526494" x2="693.8806822817321" y2="426.761464761037"></line><line style="stroke: #aaa; stroke-width: 1.41421;" x1="700.5342134304558" y1="350.28409486035923" x2="625.7036859035002" y2="426.92182494954363"></line><line style="stroke: #aaa; stroke-width: 1;" x1="700.5342134304558" y1="350.28409486035923" x2="771.659181602197" y2="355.6641411847112"></line><line style="stroke: #aaa; stroke-width: 1;" x1="700.5342134304558" y1="350.28409486035923" x2="693.8806822817321" y2="426.761464761037"></line><line style="stroke: #aaa; stroke-width: 1.41421;" x1="700.5342134304558" y1="350.28409486035923" x2="764.5216770402676" y2="437.7731177054553"></line><line style="stroke: #aaa; stroke-width: 1.41421;" x1="771.659181602197" y1="355.6641411847112" x2="693.8806822817321" y2="426.761464761037"></line><line style="stroke: #aaa; stroke-width: 1;" x1="44.22706180580886" y1="410.73304591931014" x2="119.39100141210527" y2="414.75649064894986"></line><line style="stroke: #aaa; stroke-width: 1;" x1="44.22706180580886" y1="410.73304591931014" x2="39.81944679268415" y2="483.5441715102444"></line><line style="stroke: #aaa; stroke-width: 1.41421;" x1="44.22706180580886" y1="410.73304591931014" x2="115.53098245693155" y2="487.9749767187446"></line><line style="stroke: #aaa; stroke-width: 1.41421;" x1="119.39100141210527" y1="414.75649064894986" x2="39.81944679268415" y2="483.5441715102444"></line><line style="stroke: #aaa; stroke-width: 1;" x1="119.39100141210527" y1="414.75649064894986" x2="193.28226746692735" y2="417.79953422610845"></line><line style="stroke: #aaa; stroke-width: 1;" x1="119.39100141210527" y1="414.75649064894986" x2="115.53098245693155" y2="487.9749767187446"></line><line style="stroke: #aaa; stroke-width: 1.41421;" x1="119.39100141210527" y1="414.75649064894986" x2="191.74870429590274" y2="493.92730371582405"></line><line style="stroke: #aaa; stroke-width: 1.41421;" x1="193.28226746692735" y1="417.79953422610845" x2="115.53098245693155" y2="487.9749767187446"></line><line style="stroke: #aaa; stroke-width: 1;" x1="193.28226746692735" y1="417.79953422610845" x2="266.12100167631246" y2="419.9374167392321"></line><line style="stroke: #aaa; stroke-width: 1;" x1="193.28226746692735" y1="417.79953422610845" x2="191.74870429590274" y2="493.92730371582405"></line><line style="stroke: #aaa; stroke-width: 1.41421;" x1="193.28226746692735" y1="417.79953422610845" x2="266.2651639696078" y2="498.06626858126"></line><line style="stroke: #aaa; stroke-width: 1.41421;" x1="266.12100167631246" y1="419.9374167392321" x2="191.74870429590274" y2="493.92730371582405"></line><line style="stroke: #aaa; stroke-width: 1;" x1="266.12100167631246" y1="419.9374167392321" x2="339.14214531803043" y2="421.7606588824898"></line><line style="stroke: #aaa; stroke-width: 1;" x1="266.12100167631246" y1="419.9374167392321" x2="266.2651639696078" y2="498.06626858126"></line><line style="stroke: #aaa; stroke-width: 1.41421;" x1="266.12100167631246" y1="419.9374167392321" x2="339.4893116569866" y2="499.98527083708547"></line><line style="stroke: #aaa; stroke-width: 1.41421;" x1="339.14214531803043" y1="421.7606588824898" x2="266.2651639696078" y2="498.06626858126"></line><line style="stroke: #aaa; stroke-width: 1;" x1="339.14214531803043" y1="421.7606588824898" x2="412.8723320757521" y2="423.8651013563039"></line><line style="stroke: #aaa; stroke-width: 1;" x1="339.14214531803043" y1="421.7606588824898" x2="339.4893116569866" y2="499.98527083708547"></line><line style="stroke: #aaa; stroke-width: 1.41421;" x1="339.14214531803043" y1="421.7606588824898" x2="412.870861031943" y2="501.83891301607906"></line><line style="stroke: #aaa; stroke-width: 1.41421;" x1="412.8723320757521" y1="423.8651013563039" x2="339.4893116569866" y2="499.98527083708547"></line><line style="stroke: #aaa; stroke-width: 1;" x1="412.8723320757521" y1="423.8651013563039" x2="486.2833023268912" y2="425.9900638542399"></line><line style="stroke: #aaa; stroke-width: 1;" x1="412.8723320757521" y1="423.8651013563039" x2="412.870861031943" y2="501.83891301607906"></line><line style="stroke: #aaa; stroke-width: 1.41421;" x1="412.8723320757521" y1="423.8651013563039" x2="486.39583717829015" y2="505.19127695684983"></line><line style="stroke: #aaa; stroke-width: 1.41421;" x1="486.2833023268912" y1="425.9900638542399" x2="412.870861031943" y2="501.83891301607906"></line><line style="stroke: #aaa; stroke-width: 1;" x1="486.2833023268912" y1="425.9900638542399" x2="557.763527578539" y2="427.3816254900483"></line><line style="stroke: #aaa; stroke-width: 1;" x1="486.2833023268912" y1="425.9900638542399" x2="486.39583717829015" y2="505.19127695684983"></line><line style="stroke: #aaa; stroke-width: 1.41421;" x1="486.2833023268912" y1="425.9900638542399" x2="558.2217577250849" y2="508.8438412505121"></line><line style="stroke: #aaa; stroke-width: 1.41421;" x1="557.763527578539" y1="427.3816254900483" x2="486.39583717829015" y2="505.19127695684983"></line><line style="stroke: #aaa; stroke-width: 1;" x1="557.763527578539" y1="427.3816254900483" x2="625.7036859035002" y2="426.92182494954363"></line><line style="stroke: #aaa; stroke-width: 1;" x1="557.763527578539" y1="427.3816254900483" x2="558.2217577250849" y2="508.8438412505121"></line><line style="stroke: #aaa; stroke-width: 1.41421;" x1="557.763527578539" y1="427.3816254900483" x2="627.1982664135826" y2="511.0372038288539"></line><line style="stroke: #aaa; stroke-width: 1.41421;" x1="625.7036859035002" y1="426.92182494954363" x2="558.2217577250849" y2="508.8438412505121"></line><line style="stroke: #aaa; stroke-width: 1;" x1="625.7036859035002" y1="426.92182494954363" x2="693.8806822817321" y2="426.761464761037"></line><line style="stroke: #aaa; stroke-width: 1;" x1="625.7036859035002" y1="426.92182494954363" x2="627.1982664135826" y2="511.0372038288539"></line><line style="stroke: #aaa; stroke-width: 1.41421;" x1="625.7036859035002" y1="426.92182494954363" x2="691.2990003966979" y2="506.84807890445364"></line><line style="stroke: #aaa; stroke-width: 1.41421;" x1="693.8806822817321" y1="426.761464761037" x2="627.1982664135826" y2="511.0372038288539"></line><line style="stroke: #aaa; stroke-width: 1;" x1="693.8806822817321" y1="426.761464761037" x2="764.5216770402676" y2="437.7731177054553"></line><line style="stroke: #aaa; stroke-width: 1;" x1="693.8806822817321" y1="426.761464761037" x2="691.2990003966979" y2="506.84807890445364"></line><line style="stroke: #aaa; stroke-width: 1.41421;" x1="693.8806822817321" y1="426.761464761037" x2="731.3805310642354" y2="521.0752956288316"></line><line style="stroke: #aaa; stroke-width: 1.41421;" x1="764.5216770402676" y1="437.7731177054553" x2="691.2990003966979" y2="506.84807890445364"></line><line style="stroke: #aaa; stroke-width: 1;" x1="39.81944679268415" y1="483.5441715102444" x2="115.53098245693155" y2="487.9749767187446"></line><line style="stroke: #aaa; stroke-width: 1;" x1="39.81944679268415" y1="483.5441715102444" x2="37.22679827605279" y2="558.1146991693912"></line><line style="stroke: #aaa; stroke-width: 1.41421;" x1="39.81944679268415" y1="483.5441715102444" x2="110.34261094210773" y2="560.6158621095583"></line><line style="stroke: #aaa; stroke-width: 1.41421;" x1="115.53098245693155" y1="487.9749767187446" x2="37.22679827605279" y2="558.1146991693912"></line><line style="stroke: #aaa; stroke-width: 1;" x1="115.53098245693155" y1="487.9749767187446" x2="191.74870429590274" y2="493.92730371582405"></line><line style="stroke: #aaa; stroke-width: 1;" x1="115.53098245693155" y1="487.9749767187446" x2="110.34261094210773" y2="560.6158621095583"></line><line style="stroke: #aaa; stroke-width: 1.41421;" x1="115.53098245693155" y1="487.9749767187446" x2="185.92337081172292" y2="565.9252283508245"></line><line style="stroke: #aaa; stroke-width: 1.41421;" x1="191.74870429590274" y1="493.92730371582405" x2="110.34261094210773" y2="560.6158621095583"></line><line style="stroke: #aaa; stroke-width: 1;" x1="191.74870429590274" y1="493.92730371582405" x2="266.2651639696078" y2="498.06626858126"></line><line style="stroke: #aaa; stroke-width: 1;" x1="191.74870429590274" y1="493.92730371582405" x2="185.92337081172292" y2="565.9252283508245"></line><line style="stroke: #aaa; stroke-width: 1.41421;" x1="191.74870429590274" y1="493.92730371582405" x2="264.94343110709883" y2="574.7959587785455"></line><line style="stroke: #aaa; stroke-width: 1.41421;" x1="266.2651639696078" y1="498.06626858126" x2="185.92337081172292" y2="565.9252283508245"></line><line style="stroke: #aaa; stroke-width: 1;" x1="266.2651639696078" y1="498.06626858126" x2="339.4893116569866" y2="499.98527083708547"></line><line style="stroke: #aaa; stroke-width: 1;" x1="266.2651639696078" y1="498.06626858126" x2="264.94343110709883" y2="574.7959587785455"></line><line style="stroke: #aaa; stroke-width: 1.41421;" x1="266.2651639696078" y1="498.06626858126" x2="340.367524811041" y2="578.5435231838823"></line><line style="stroke: #aaa; stroke-width: 1.41421;" x1="339.4893116569866" y1="499.98527083708547" x2="264.94343110709883" y2="574.7959587785455"></line><line style="stroke: #aaa; stroke-width: 1;" x1="339.4893116569866" y1="499.98527083708547" x2="412.870861031943" y2="501.83891301607906"></line><line style="stroke: #aaa; stroke-width: 1;" x1="339.4893116569866" y1="499.98527083708547" x2="340.367524811041" y2="578.5435231838823"></line><line style="stroke: #aaa; stroke-width: 1.41421;" x1="339.4893116569866" y1="499.98527083708547" x2="412.68256742437353" y2="579.9510448384522"></line><line style="stroke: #aaa; stroke-width: 1.41421;" x1="412.870861031943" y1="501.83891301607906" x2="340.367524811041" y2="578.5435231838823"></line><line style="stroke: #aaa; stroke-width: 1;" x1="412.870861031943" y1="501.83891301607906" x2="486.39583717829015" y2="505.19127695684983"></line><line style="stroke: #aaa; stroke-width: 1;" x1="412.870861031943" y1="501.83891301607906" x2="412.68256742437353" y2="579.9510448384522"></line><line style="stroke: #aaa; stroke-width: 1.41421;" x1="412.870861031943" y1="501.83891301607906" x2="484.818878214896" y2="583.4820089891712"></line><line style="stroke: #aaa; stroke-width: 1.41421;" x1="486.39583717829015" y1="505.19127695684983" x2="412.68256742437353" y2="579.9510448384522"></line><line style="stroke: #aaa; stroke-width: 1;" x1="486.39583717829015" y1="505.19127695684983" x2="558.2217577250849" y2="508.8438412505121"></line><line style="stroke: #aaa; stroke-width: 1;" x1="486.39583717829015" y1="505.19127695684983" x2="484.818878214896" y2="583.4820089891712"></line><line style="stroke: #aaa; stroke-width: 1.41421;" x1="486.39583717829015" y1="505.19127695684983" x2="557.2118861501128" y2="590.2133369019818"></line><line style="stroke: #aaa; stroke-width: 1.41421;" x1="558.2217577250849" y1="508.8438412505121" x2="484.818878214896" y2="583.4820089891712"></line><line style="stroke: #aaa; stroke-width: 1;" x1="558.2217577250849" y1="508.8438412505121" x2="627.1982664135826" y2="511.0372038288539"></line><line style="stroke: #aaa; stroke-width: 1;" x1="558.2217577250849" y1="508.8438412505121" x2="557.2118861501128" y2="590.2133369019818"></line><line style="stroke: #aaa; stroke-width: 1.41421;" x1="558.2217577250849" y1="508.8438412505121" x2="627.8036009410422" y2="595.027942561647"></line><line style="stroke: #aaa; stroke-width: 1.41421;" x1="627.1982664135826" y1="511.0372038288539" x2="557.2118861501128" y2="590.2133369019818"></line><line style="stroke: #aaa; stroke-width: 1;" x1="627.1982664135826" y1="511.0372038288539" x2="691.2990003966979" y2="506.84807890445364"></line><line style="stroke: #aaa; stroke-width: 1;" x1="627.1982664135826" y1="511.0372038288539" x2="627.8036009410422" y2="595.027942561647"></line><line style="stroke: #aaa; stroke-width: 1.41421;" x1="627.1982664135826" y1="511.0372038288539" x2="695.8334929383606" y2="596.9568248290867"></line><line style="stroke: #aaa; stroke-width: 1.41421;" x1="691.2990003966979" y1="506.84807890445364" x2="627.8036009410422" y2="595.027942561647"></line><line style="stroke: #aaa; stroke-width: 1;" x1="691.2990003966979" y1="506.84807890445364" x2="731.3805310642354" y2="521.0752956288316"></line><line style="stroke: #aaa; stroke-width: 1;" x1="691.2990003966979" y1="506.84807890445364" x2="695.8334929383606" y2="596.9568248290867"></line><line style="stroke: #aaa; stroke-width: 1.41421;" x1="691.2990003966979" y1="506.84807890445364" x2="652.0993604927377" y2="588.3946547640846"></line><line style="stroke: #aaa; stroke-width: 1.41421;" x1="731.3805310642354" y1="521.0752956288316" x2="695.8334929383606" y2="596.9568248290867"></line><line style="stroke: #aaa; stroke-width: 1;" x1="37.22679827605279" y1="558.1146991693912" x2="110.34261094210773" y2="560.6158621095583"></line><line style="stroke: #aaa; stroke-width: 1;" x1="37.22679827605279" y1="558.1146991693912" x2="32.90932882755195" y2="630.9638248049953"></line><line style="stroke: #aaa; stroke-width: 1.41421;" x1="37.22679827605279" y1="558.1146991693912" x2="107.26298072768084" y2="638.4635136210295"></line><line style="stroke: #aaa; stroke-width: 1.41421;" x1="110.34261094210773" y1="560.6158621095583" x2="32.90932882755195" y2="630.9638248049953"></line><line style="stroke: #aaa; stroke-width: 1;" x1="110.34261094210773" y1="560.6158621095583" x2="185.92337081172292" y2="565.9252283508245"></line><line style="stroke: #aaa; stroke-width: 1;" x1="110.34261094210773" y1="560.6158621095583" x2="107.26298072768084" y2="638.4635136210295"></line><line style="stroke: #aaa; stroke-width: 1.41421;" x1="110.34261094210773" y1="560.6158621095583" x2="177.74436723292496" y2="636.6311514670512"></line><line style="stroke: #aaa; stroke-width: 1.41421;" x1="185.92337081172292" y1="565.9252283508245" x2="107.26298072768084" y2="638.4635136210295"></line><line style="stroke: #aaa; stroke-width: 1;" x1="185.92337081172292" y1="565.9252283508245" x2="264.94343110709883" y2="574.7959587785455"></line><line style="stroke: #aaa; stroke-width: 1;" x1="185.92337081172292" y1="565.9252283508245" x2="177.74436723292496" y2="636.6311514670512"></line><line style="stroke: #aaa; stroke-width: 1.41421;" x1="185.92337081172292" y1="565.9252283508245" x2="257.32342417577263" y2="640.7609963217664"></line><line style="stroke: #aaa; stroke-width: 1.41421;" x1="264.94343110709883" y1="574.7959587785455" x2="177.74436723292496" y2="636.6311514670512"></line><line style="stroke: #aaa; stroke-width: 1;" x1="264.94343110709883" y1="574.7959587785455" x2="340.367524811041" y2="578.5435231838823"></line><line style="stroke: #aaa; stroke-width: 1;" x1="264.94343110709883" y1="574.7959587785455" x2="257.32342417577263" y2="640.7609963217664"></line><line style="stroke: #aaa; stroke-width: 1.41421;" x1="264.94343110709883" y1="574.7959587785455" x2="342.7123686428043" y2="657.0523754726084"></line><line style="stroke: #aaa; stroke-width: 1.41421;" x1="340.367524811041" y1="578.5435231838823" x2="257.32342417577263" y2="640.7609963217664"></line><line style="stroke: #aaa; stroke-width: 1;" x1="340.367524811041" y1="578.5435231838823" x2="412.68256742437353" y2="579.9510448384522"></line><line style="stroke: #aaa; stroke-width: 1;" x1="340.367524811041" y1="578.5435231838823" x2="342.7123686428043" y2="657.0523754726084"></line><line style="stroke: #aaa; stroke-width: 1.41421;" x1="340.367524811041" y1="578.5435231838823" x2="414.2837986106184" y2="660.4115794214199"></line><line style="stroke: #aaa; stroke-width: 1.41421;" x1="412.68256742437353" y1="579.9510448384522" x2="342.7123686428043" y2="657.0523754726084"></line><line style="stroke: #aaa; stroke-width: 1;" x1="412.68256742437353" y1="579.9510448384522" x2="484.818878214896" y2="583.4820089891712"></line><line style="stroke: #aaa; stroke-width: 1;" x1="412.68256742437353" y1="579.9510448384522" x2="414.2837986106184" y2="660.4115794214199"></line><line style="stroke: #aaa; stroke-width: 1.41421;" x1="412.68256742437353" y1="579.9510448384522" x2="481.764991267129" y2="662.6566220605124"></line><line style="stroke: #aaa; stroke-width: 1.41421;" x1="484.818878214896" y1="583.4820089891712" x2="414.2837986106184" y2="660.4115794214199"></line><line style="stroke: #aaa; stroke-width: 1;" x1="484.818878214896" y1="583.4820089891712" x2="557.2118861501128" y2="590.2133369019818"></line><line style="stroke: #aaa; stroke-width: 1;" x1="484.818878214896" y1="583.4820089891712" x2="481.764991267129" y2="662.6566220605124"></line><line style="stroke: #aaa; stroke-width: 1.41421;" x1="484.818878214896" y1="583.4820089891712" x2="549.7551650816008" y2="670.6784314903099"></line><line style="stroke: #aaa; stroke-width: 1.41421;" x1="557.2118861501128" y1="590.2133369019818" x2="481.764991267129" y2="662.6566220605124"></line><line style="stroke: #aaa; stroke-width: 1;" x1="557.2118861501128" y1="590.2133369019818" x2="627.8036009410422" y2="595.027942561647"></line><line style="stroke: #aaa; stroke-width: 1;" x1="557.2118861501128" y1="590.2133369019818" x2="549.7551650816008" y2="670.6784314903099"></line><line style="stroke: #aaa; stroke-width: 1.41421;" x1="557.2118861501128" y1="590.2133369019818" x2="626.044232545315" y2="678.141640263461"></line><line style="stroke: #aaa; stroke-width: 1.41421;" x1="627.8036009410422" y1="595.027942561647" x2="549.7551650816008" y2="670.6784314903099"></line><line style="stroke: #aaa; stroke-width: 1;" x1="627.8036009410422" y1="595.027942561647" x2="695.8334929383606" y2="596.9568248290867"></line><line style="stroke: #aaa; stroke-width: 1;" x1="627.8036009410422" y1="595.027942561647" x2="626.044232545315" y2="678.141640263461"></line><line style="stroke: #aaa; stroke-width: 1.41421;" x1="627.8036009410422" y1="595.027942561647" x2="714.3046545277809" y2="665.4405053330228"></line><line style="stroke: #aaa; stroke-width: 1.41421;" x1="695.8334929383606" y1="596.9568248290867" x2="626.044232545315" y2="678.141640263461"></line><line style="stroke: #aaa; stroke-width: 1;" x1="695.8334929383606" y1="596.9568248290867" x2="652.0993604927377" y2="588.3946547640846"></line><line style="stroke: #aaa; stroke-width: 1;" x1="695.8334929383606" y1="596.9568248290867" x2="714.3046545277809" y2="665.4405053330228"></line><line style="stroke: #aaa; stroke-width: 1.41421;" x1="695.8334929383606" y1="596.9568248290867" x2="632.7838197568731" y2="678.5406407324941"></line><line style="stroke: #aaa; stroke-width: 1.41421;" x1="652.0993604927377" y1="588.3946547640846" x2="714.3046545277809" y2="665.4405053330228"></line><line style="stroke: #aaa; stroke-width: 1;" x1="32.90932882755195" y1="630.9638248049953" x2="107.26298072768084" y2="638.4635136210295"></line><line style="stroke: #aaa; stroke-width: 1;" x1="32.90932882755195" y1="630.9638248049953" x2="20" y2="701.5321877595173"></line><line style="stroke: #aaa; stroke-width: 1.41421;" x1="32.90932882755195" y1="630.9638248049953" x2="102.1789062189248" y2="710.7813986321498"></line><line style="stroke: #aaa; stroke-width: 1.41421;" x1="107.26298072768084" y1="638.4635136210295" x2="20" y2="701.5321877595173"></line><line style="stroke: #aaa; stroke-width: 1;" x1="107.26298072768084" y1="638.4635136210295" x2="177.74436723292496" y2="636.6311514670512"></line><line style="stroke: #aaa; stroke-width: 1;" x1="107.26298072768084" y1="638.4635136210295" x2="102.1789062189248" y2="710.7813986321498"></line><line style="stroke: #aaa; stroke-width: 1.41421;" x1="107.26298072768084" y1="638.4635136210295" x2="193.22489675837105" y2="705.9439929456827"></line><line style="stroke: #aaa; stroke-width: 1.41421;" x1="177.74436723292496" y1="636.6311514670512" x2="102.1789062189248" y2="710.7813986321498"></line><line style="stroke: #aaa; stroke-width: 1;" x1="177.74436723292496" y1="636.6311514670512" x2="257.32342417577263" y2="640.7609963217664"></line><line style="stroke: #aaa; stroke-width: 1;" x1="177.74436723292496" y1="636.6311514670512" x2="193.22489675837105" y2="705.9439929456827"></line><line style="stroke: #aaa; stroke-width: 1.41421;" x1="177.74436723292496" y1="636.6311514670512" x2="268.6894441670645" y2="662.0144213055925"></line><line style="stroke: #aaa; stroke-width: 1.41421;" x1="257.32342417577263" y1="640.7609963217664" x2="193.22489675837105" y2="705.9439929456827"></line><line style="stroke: #aaa; stroke-width: 1;" x1="257.32342417577263" y1="640.7609963217664" x2="342.7123686428043" y2="657.0523754726084"></line><line style="stroke: #aaa; stroke-width: 1;" x1="257.32342417577263" y1="640.7609963217664" x2="268.6894441670645" y2="662.0144213055925"></line><line style="stroke: #aaa; stroke-width: 1.41421;" x1="257.32342417577263" y1="640.7609963217664" x2="338.05651498688786" y2="600.8016693487783"></line><line style="stroke: #aaa; stroke-width: 1.41421;" x1="342.7123686428043" y1="657.0523754726084" x2="268.6894441670645" y2="662.0144213055925"></line><line style="stroke: #aaa; stroke-width: 1;" x1="342.7123686428043" y1="657.0523754726084" x2="414.2837986106184" y2="660.4115794214199"></line><line style="stroke: #aaa; stroke-width: 1;" x1="342.7123686428043" y1="657.0523754726084" x2="338.05651498688786" y2="600.8016693487783"></line><line style="stroke: #aaa; stroke-width: 1.41421;" x1="342.7123686428043" y1="657.0523754726084" x2="414.65597269432993" y2="584.9457707098524"></line><line style="stroke: #aaa; stroke-width: 1.41421;" x1="414.2837986106184" y1="660.4115794214199" x2="338.05651498688786" y2="600.8016693487783"></line><line style="stroke: #aaa; stroke-width: 1;" x1="414.2837986106184" y1="660.4115794214199" x2="481.764991267129" y2="662.6566220605124"></line><line style="stroke: #aaa; stroke-width: 1;" x1="414.2837986106184" y1="660.4115794214199" x2="414.65597269432993" y2="584.9457707098524"></line><line style="stroke: #aaa; stroke-width: 1.41421;" x1="414.2837986106184" y1="660.4115794214199" x2="489.87191369927933" y2="586.5812926324411"></line><line style="stroke: #aaa; stroke-width: 1.41421;" x1="481.764991267129" y1="662.6566220605124" x2="414.65597269432993" y2="584.9457707098524"></line><line style="stroke: #aaa; stroke-width: 1;" x1="481.764991267129" y1="662.6566220605124" x2="549.7551650816008" y2="670.6784314903099"></line><line style="stroke: #aaa; stroke-width: 1;" x1="481.764991267129" y1="662.6566220605124" x2="489.87191369927933" y2="586.5812926324411"></line><line style="stroke: #aaa; stroke-width: 1.41421;" x1="481.764991267129" y1="662.6566220605124" x2="565.6299343478954" y2="600.4459889306688"></line><line style="stroke: #aaa; stroke-width: 1.41421;" x1="549.7551650816008" y1="670.6784314903099" x2="489.87191369927933" y2="586.5812926324411"></line><line style="stroke: #aaa; stroke-width: 1;" x1="549.7551650816008" y1="670.6784314903099" x2="626.044232545315" y2="678.141640263461"></line><line style="stroke: #aaa; stroke-width: 1;" x1="549.7551650816008" y1="670.6784314903099" x2="565.6299343478954" y2="600.4459889306688"></line><line style="stroke: #aaa; stroke-width: 1.41421;" x1="549.7551650816008" y1="670.6784314903099" x2="640.3023246653689" y2="635.6887503592397"></line><line style="stroke: #aaa; stroke-width: 1.41421;" x1="626.044232545315" y1="678.141640263461" x2="565.6299343478954" y2="600.4459889306688"></line><line style="stroke: #aaa; stroke-width: 1;" x1="626.044232545315" y1="678.141640263461" x2="714.3046545277809" y2="665.4405053330228"></line><line style="stroke: #aaa; stroke-width: 1;" x1="626.044232545315" y1="678.141640263461" x2="640.3023246653689" y2="635.6887503592397"></line><line style="stroke: #aaa; stroke-width: 1.41421;" x1="626.044232545315" y1="678.141640263461" x2="720.2976870062023" y2="691.3838958299971"></line><line style="stroke: #aaa; stroke-width: 1.41421;" x1="714.3046545277809" y1="665.4405053330228" x2="640.3023246653689" y2="635.6887503592397"></line><line style="stroke: #aaa; stroke-width: 1;" x1="714.3046545277809" y1="665.4405053330228" x2="632.7838197568731" y2="678.5406407324941"></line><line style="stroke: #aaa; stroke-width: 1;" x1="714.3046545277809" y1="665.4405053330228" x2="720.2976870062023" y2="691.3838958299971"></line><line style="stroke: #aaa; stroke-width: 1.41421;" x1="714.3046545277809" y1="665.4405053330228" x2="679.6578952130976" y2="759.6471760748484"></line><line style="stroke: #aaa; stroke-width: 1.41421;" x1="632.7838197568731" y1="678.5406407324941" x2="720.2976870062023" y2="691.3838958299971"></line><line style="stroke: #aaa; stroke-width: 1;" x1="20" y1="701.5321877595173" x2="102.1789062189248" y2="710.7813986321498"></line><line style="stroke: #aaa; stroke-width: 1;" x1="20" y1="701.5321877595173" x2="31.658301990970692" y2="780"></line><line style="stroke: #aaa; stroke-width: 1.41421;" x1="20" y1="701.5321877595173" x2="109.35186293665444" y2="734.8225068929532"></line><line style="stroke: #aaa; stroke-width: 1.41421;" x1="102.1789062189248" y1="710.7813986321498" x2="31.658301990970692" y2="780"></line><line style="stroke: #aaa; stroke-width: 1;" x1="102.1789062189248" y1="710.7813986321498" x2="193.22489675837105" y2="705.9439929456827"></line><line style="stroke: #aaa; stroke-width: 1;" x1="102.1789062189248" y1="710.7813986321498" x2="109.35186293665444" y2="734.8225068929532"></line><line style="stroke: #aaa; stroke-width: 1.41421;" x1="102.1789062189248" y1="710.7813986321498" x2="166.12459218455712" y2="650.5034477742129"></line><line style="stroke: #aaa; stroke-width: 1.41421;" x1="193.22489675837105" y1="705.9439929456827" x2="109.35186293665444" y2="734.8225068929532"></line><line style="stroke: #aaa; stroke-width: 1;" x1="193.22489675837105" y1="705.9439929456827" x2="268.6894441670645" y2="662.0144213055925"></line><line style="stroke: #aaa; stroke-width: 1;" x1="193.22489675837105" y1="705.9439929456827" x2="166.12459218455712" y2="650.5034477742129"></line><line style="stroke: #aaa; stroke-width: 1.41421;" x1="193.22489675837105" y1="705.9439929456827" x2="235.4210529015419" y2="602.4257912579661"></line><line style="stroke: #aaa; stroke-width: 1.41421;" x1="268.6894441670645" y1="662.0144213055925" x2="166.12459218455712" y2="650.5034477742129"></line><line style="stroke: #aaa; stroke-width: 1;" x1="268.6894441670645" y1="662.0144213055925" x2="338.05651498688786" y2="600.8016693487783"></line><line style="stroke: #aaa; stroke-width: 1;" x1="268.6894441670645" y1="662.0144213055925" x2="235.4210529015419" y2="602.4257912579661"></line><line style="stroke: #aaa; stroke-width: 1.41421;" x1="268.6894441670645" y1="662.0144213055925" x2="314.2395801950662" y2="557.602458567242"></line><line style="stroke: #aaa; stroke-width: 1.41421;" x1="338.05651498688786" y1="600.8016693487783" x2="235.4210529015419" y2="602.4257912579661"></line><line style="stroke: #aaa; stroke-width: 1;" x1="338.05651498688786" y1="600.8016693487783" x2="414.65597269432993" y2="584.9457707098524"></line><line style="stroke: #aaa; stroke-width: 1;" x1="338.05651498688786" y1="600.8016693487783" x2="314.2395801950662" y2="557.602458567242"></line><line style="stroke: #aaa; stroke-width: 1.41421;" x1="338.05651498688786" y1="600.8016693487783" x2="404.6749404493399" y2="522.342217118123"></line><line style="stroke: #aaa; stroke-width: 1.41421;" x1="414.65597269432993" y1="584.9457707098524" x2="314.2395801950662" y2="557.602458567242"></line><line style="stroke: #aaa; stroke-width: 1;" x1="414.65597269432993" y1="584.9457707098524" x2="489.87191369927933" y2="586.5812926324411"></line><line style="stroke: #aaa; stroke-width: 1;" x1="414.65597269432993" y1="584.9457707098524" x2="404.6749404493399" y2="522.342217118123"></line><line style="stroke: #aaa; stroke-width: 1.41421;" x1="414.65597269432993" y1="584.9457707098524" x2="497.84423562289356" y2="520.1397345290608"></line><line style="stroke: #aaa; stroke-width: 1.41421;" x1="489.87191369927933" y1="586.5812926324411" x2="404.6749404493399" y2="522.342217118123"></line><line style="stroke: #aaa; stroke-width: 1;" x1="489.87191369927933" y1="586.5812926324411" x2="565.6299343478954" y2="600.4459889306688"></line><line style="stroke: #aaa; stroke-width: 1;" x1="489.87191369927933" y1="586.5812926324411" x2="497.84423562289356" y2="520.1397345290608"></line><line style="stroke: #aaa; stroke-width: 1.41421;" x1="489.87191369927933" y1="586.5812926324411" x2="588.6370595227875" y2="545.2425640379388"></line><line style="stroke: #aaa; stroke-width: 1.41421;" x1="565.6299343478954" y1="600.4459889306688" x2="497.84423562289356" y2="520.1397345290608"></line><line style="stroke: #aaa; stroke-width: 1;" x1="565.6299343478954" y1="600.4459889306688" x2="640.3023246653689" y2="635.6887503592397"></line><line style="stroke: #aaa; stroke-width: 1;" x1="565.6299343478954" y1="600.4459889306688" x2="588.6370595227875" y2="545.2425640379388"></line><line style="stroke: #aaa; stroke-width: 1.41421;" x1="565.6299343478954" y1="600.4459889306688" x2="671.5649476971341" y2="598.5368666864575"></line><line style="stroke: #aaa; stroke-width: 1.41421;" x1="640.3023246653689" y1="635.6887503592397" x2="588.6370595227875" y2="545.2425640379388"></line><line style="stroke: #aaa; stroke-width: 1;" x1="640.3023246653689" y1="635.6887503592397" x2="720.2976870062023" y2="691.3838958299971"></line><line style="stroke: #aaa; stroke-width: 1;" x1="640.3023246653689" y1="635.6887503592397" x2="671.5649476971341" y2="598.5368666864575"></line><line style="stroke: #aaa; stroke-width: 1.41421;" x1="640.3023246653689" y1="635.6887503592397" x2="736.6932057809311" y2="677.5898796148552"></line><line style="stroke: #aaa; stroke-width: 1.41421;" x1="720.2976870062023" y1="691.3838958299971" x2="671.5649476971341" y2="598.5368666864575"></line><line style="stroke: #aaa; stroke-width: 1;" x1="720.2976870062023" y1="691.3838958299971" x2="679.6578952130976" y2="759.6471760748484"></line><line style="stroke: #aaa; stroke-width: 1;" x1="720.2976870062023" y1="691.3838958299971" x2="736.6932057809311" y2="677.5898796148552"></line><line style="stroke: #aaa; stroke-width: 1.41421;" x1="720.2976870062023" y1="691.3838958299971" x2="767.1783821595678" y2="779.9984799982133"></line><line style="stroke: #aaa; stroke-width: 1.41421;" x1="679.6578952130976" y1="759.6471760748484" x2="736.6932057809311" y2="677.5898796148552"></line><line style="stroke: #aaa; stroke-width: 1;" x1="767.179853203377" y1="20" x2="775.9031429915553" y2="107.66292965432706"></line><line style="stroke: #aaa; stroke-width: 1;" x1="775.9031429915553" y1="107.66292965432706" x2="780" y2="193.7641908680816"></line><line style="stroke: #aaa; stroke-width: 1;" x1="780" y1="193.7641908680816" x2="776.7784140579914" y2="275.59804706541627"></line><line style="stroke: #aaa; stroke-width: 1;" x1="776.7784140579914" y1="275.59804706541627" x2="771.659181602197" y2="355.6641411847112"></line><line style="stroke: #aaa; stroke-width: 1;" x1="771.659181602197" y1="355.6641411847112" x2="764.5216770402676" y2="437.7731177054553"></line><line style="stroke: #aaa; stroke-width: 1;" x1="764.5216770402676" y1="437.7731177054553" x2="731.3805310642354" y2="521.0752956288316"></line><line style="stroke: #aaa; stroke-width: 1;" x1="731.3805310642354" y1="521.0752956288316" x2="652.0993604927377" y2="588.3946547640846"></line><line style="stroke: #aaa; stroke-width: 1;" x1="652.0993604927377" y1="588.3946547640846" x2="632.7838197568731" y2="678.5406407324941"></line><line style="stroke: #aaa; stroke-width: 1;" x1="632.7838197568731" y1="678.5406407324941" x2="679.6578952130976" y2="759.6471760748484"></line><line style="stroke: #aaa; stroke-width: 1;" x1="679.6578952130976" y1="759.6471760748484" x2="767.1783821595678" y2="779.9984799982133"></line><line style="stroke: #aaa; stroke-width: 1;" x1="31.658301990970692" y1="780" x2="109.35186293665444" y2="734.8225068929532"></line><line style="stroke: #aaa; stroke-width: 1;" x1="109.35186293665444" y1="734.8225068929532" x2="166.12459218455712" y2="650.5034477742129"></line><line style="stroke: #aaa; stroke-width: 1;" x1="166.12459218455712" y1="650.5034477742129" x2="235.4210529015419" y2="602.4257912579661"></line><line style="stroke: #aaa; stroke-width: 1;" x1="235.4210529015419" y1="602.4257912579661" x2="314.2395801950662" y2="557.602458567242"></line><line style="stroke: #aaa; stroke-width: 1;" x1="314.2395801950662" y1="557.602458567242" x2="404.6749404493399" y2="522.342217118123"></line><line style="stroke: #aaa; stroke-width: 1;" x1="404.6749404493399" y1="522.342217118123" x2="497.84423562289356" y2="520.1397345290608"></line><line style="stroke: #aaa; stroke-width: 1;" x1="497.84423562289356" y1="520.1397345290608" x2="588.6370595227875" y2="545.2425640379388"></line><line style="stroke: #aaa; stroke-width: 1;" x1="588.6370595227875" y1="545.2425640379388" x2="671.5649476971341" y2="598.5368666864575"></line><line style="stroke: #aaa; stroke-width: 1;" x1="671.5649476971341" y1="598.5368666864575" x2="736.6932057809311" y2="677.5898796148552"></line><line style="stroke: #aaa; stroke-width: 1;" x1="736.6932057809311" y1="677.5898796148552" x2="767.1783821595678" y2="779.9984799982133"></line><circle r="10" cx="31.65894625299495" cy="20.00023753827923" style="stroke: #000; fill: #69b3a2;"></circle><circle r="10" cx="114.3512053220042" cy="33.068005966502376" style="stroke: #000; fill: #69b3a2;"></circle><circle r="10" cx="194.8687882150809" cy="67.74342672815298" style="stroke: #000; fill: #69b3a2;"></circle><circle r="10" cx="253.2618722187473" cy="153.76990385399736" style="stroke: #000; fill: #69b3a2;"></circle><circle r="10" cx="331.9274109561213" cy="187.71838376111447" style="stroke: #000; fill: #69b3a2;"></circle><circle r="10" cx="410.1104473240987" cy="194.0560312111458" style="stroke: #000; fill: #69b3a2;"></circle><circle r="10" cx="487.9198385645554" cy="192.2943491402533" style="stroke: #000; fill: #69b3a2;"></circle><circle r="10" cx="566.7545473399801" cy="161.75371323912498" style="stroke: #000; fill: #69b3a2;"></circle><circle r="10" cx="620.8661583371553" cy="73.43332541674269" style="stroke: #000; fill: #69b3a2;"></circle><circle r="10" cx="695.4627898984583" cy="37.50223117902279" style="stroke: #000; fill: #69b3a2;"></circle><circle r="10" cx="767.179853203377" cy="20" style="stroke: #000; fill: #69b3a2;"></circle><circle r="10" cx="37.47740529937725" cy="105.84652751911001" style="stroke: #000; fill: #69b3a2;"></circle><circle r="10" cx="105.24617966535494" cy="107.47444943276479" style="stroke: #000; fill: #69b3a2;"></circle><circle r="10" cx="182.55247392308704" cy="109.94445233630259" style="stroke: #000; fill: #69b3a2;"></circle><circle r="10" cx="270.44366390945953" cy="107.81416983211291" style="stroke: #000; fill: #69b3a2;"></circle><circle r="10" cx="343.8899392120179" cy="112.0732148387055" style="stroke: #000; fill: #69b3a2;"></circle><circle r="10" cx="412.2978894682844" cy="117.37726107371793" style="stroke: #000; fill: #69b3a2;"></circle><circle r="10" cx="480.361615473213" cy="114.98021825594614" style="stroke: #000; fill: #69b3a2;"></circle><circle r="10" cx="552.9620405855179" cy="115.3959387446339" style="stroke: #000; fill: #69b3a2;"></circle><circle r="10" cx="639.1107791799686" cy="119.98710414164066" style="stroke: #000; fill: #69b3a2;"></circle><circle r="10" cx="711.0624739724444" cy="115.20289851771125" style="stroke: #000; fill: #69b3a2;"></circle><circle r="10" cx="775.9031429915553" cy="107.66292965432706" style="stroke: #000; fill: #69b3a2;"></circle><circle r="10" cx="39.74206988832357" cy="187.97602406397579" style="stroke: #000; fill: #69b3a2;"></circle><circle r="10" cx="112.9721017509389" cy="185.14958074143513" style="stroke: #000; fill: #69b3a2;"></circle><circle r="10" cx="189.35016736510596" cy="181.4863764352652" style="stroke: #000; fill: #69b3a2;"></circle><circle r="10" cx="264.37928580629506" cy="183.94725932808228" style="stroke: #000; fill: #69b3a2;"></circle><circle r="10" cx="338.48753082296474" cy="190.16406663606358" style="stroke: #000; fill: #69b3a2;"></circle><circle r="10" cx="411.6256224475091" cy="193.530870593809" style="stroke: #000; fill: #69b3a2;"></circle><circle r="10" cx="484.34961523978154" cy="193.41383045622595" style="stroke: #000; fill: #69b3a2;"></circle><circle r="10" cx="558.1040742203539" cy="190.45286697555414" style="stroke: #000; fill: #69b3a2;"></circle><circle r="10" cx="632.8404549435251" cy="190.97498758931744" style="stroke: #000; fill: #69b3a2;"></circle><circle r="10" cx="709.1905707253184" cy="194.2771914711241" style="stroke: #000; fill: #69b3a2;"></circle><circle r="10" cx="780" cy="193.7641908680816" style="stroke: #000; fill: #69b3a2;"></circle><circle r="10" cx="44.47544755298153" cy="264.340913832431" style="stroke: #000; fill: #69b3a2;"></circle><circle r="10" cx="118.70549499704774" cy="261.216550159679" style="stroke: #000; fill: #69b3a2;"></circle><circle r="10" cx="191.5258411588186" cy="260.6298294699771" style="stroke: #000; fill: #69b3a2;"></circle><circle r="10" cx="263.8739822578567" cy="262.7669519822074" style="stroke: #000; fill: #69b3a2;"></circle><circle r="10" cx="337.2937787718506" cy="266.3837962338801" style="stroke: #000; fill: #69b3a2;"></circle><circle r="10" cx="411.6101764875132" cy="269.2679996243189" style="stroke: #000; fill: #69b3a2;"></circle><circle r="10" cx="485.5573422070825" cy="269.29611965737456" style="stroke: #000; fill: #69b3a2;"></circle><circle r="10" cx="558.3894567193264" cy="268.19107835837644" style="stroke: #000; fill: #69b3a2;"></circle><circle r="10" cx="631.4245752772312" cy="268.57335880775474" style="stroke: #000; fill: #69b3a2;"></circle><circle r="10" cx="704.5803194274852" cy="271.3884021168944" style="stroke: #000; fill: #69b3a2;"></circle><circle r="10" cx="776.7784140579914" cy="275.59804706541627" style="stroke: #000; fill: #69b3a2;"></circle><circle r="10" cx="46.56153477871776" cy="337.96448037840594" style="stroke: #000; fill: #69b3a2;"></circle><circle r="10" cx="120.55165497751382" cy="338.6234011529805" style="stroke: #000; fill: #69b3a2;"></circle><circle r="10" cx="192.89023429179252" cy="339.78924252345035" style="stroke: #000; fill: #69b3a2;"></circle><circle r="10" cx="265.0956841413444" cy="341.5372445782617" style="stroke: #000; fill: #69b3a2;"></circle><circle r="10" cx="338.2139166744654" cy="343.80432724326266" style="stroke: #000; fill: #69b3a2;"></circle><circle r="10" cx="412.2544936759149" cy="345.91408972333073" style="stroke: #000; fill: #69b3a2;"></circle><circle r="10" cx="485.8316918774864" cy="347.0434510509175" style="stroke: #000; fill: #69b3a2;"></circle><circle r="10" cx="557.5185987843178" cy="346.71285066229024" style="stroke: #000; fill: #69b3a2;"></circle><circle r="10" cx="628.2633021313973" cy="346.597330526494" style="stroke: #000; fill: #69b3a2;"></circle><circle r="10" cx="700.5342134304558" cy="350.28409486035923" style="stroke: #000; fill: #69b3a2;"></circle><circle r="10" cx="771.659181602197" cy="355.6641411847112" style="stroke: #000; fill: #69b3a2;"></circle><circle r="10" cx="44.22706180580886" cy="410.73304591931014" style="stroke: #000; fill: #69b3a2;"></circle><circle r="10" cx="119.39100141210527" cy="414.75649064894986" style="stroke: #000; fill: #69b3a2;"></circle><circle r="10" cx="193.28226746692735" cy="417.79953422610845" style="stroke: #000; fill: #69b3a2;"></circle><circle r="10" cx="266.12100167631246" cy="419.9374167392321" style="stroke: #000; fill: #69b3a2;"></circle><circle r="10" cx="339.14214531803043" cy="421.7606588824898" style="stroke: #000; fill: #69b3a2;"></circle><circle r="10" cx="412.8723320757521" cy="423.8651013563039" style="stroke: #000; fill: #69b3a2;"></circle><circle r="10" cx="486.2833023268912" cy="425.9900638542399" style="stroke: #000; fill: #69b3a2;"></circle><circle r="10" cx="557.763527578539" cy="427.3816254900483" style="stroke: #000; fill: #69b3a2;"></circle><circle r="10" cx="625.7036859035002" cy="426.92182494954363" style="stroke: #000; fill: #69b3a2;"></circle><circle r="10" cx="693.8806822817321" cy="426.761464761037" style="stroke: #000; fill: #69b3a2;"></circle><circle r="10" cx="764.5216770402676" cy="437.7731177054553" style="stroke: #000; fill: #69b3a2;"></circle><circle r="10" cx="39.81944679268415" cy="483.5441715102444" style="stroke: #000; fill: #69b3a2;"></circle><circle r="10" cx="115.53098245693155" cy="487.9749767187446" style="stroke: #000; fill: #69b3a2;"></circle><circle r="10" cx="191.74870429590274" cy="493.92730371582405" style="stroke: #000; fill: #69b3a2;"></circle><circle r="10" cx="266.2651639696078" cy="498.06626858126" style="stroke: #000; fill: #69b3a2;"></circle><circle r="10" cx="339.4893116569866" cy="499.98527083708547" style="stroke: #000; fill: #69b3a2;"></circle><circle r="10" cx="412.870861031943" cy="501.83891301607906" style="stroke: #000; fill: #69b3a2;"></circle><circle r="10" cx="486.39583717829015" cy="505.19127695684983" style="stroke: #000; fill: #69b3a2;"></circle><circle r="10" cx="558.2217577250849" cy="508.8438412505121" style="stroke: #000; fill: #69b3a2;"></circle><circle r="10" cx="627.1982664135826" cy="511.0372038288539" style="stroke: #000; fill: #69b3a2;"></circle><circle r="10" cx="691.2990003966979" cy="506.84807890445364" style="stroke: #000; fill: #69b3a2;"></circle><circle r="10" cx="731.3805310642354" cy="521.0752956288316" style="stroke: #000; fill: #69b3a2;"></circle><circle r="10" cx="37.22679827605279" cy="558.1146991693912" style="stroke: #000; fill: #69b3a2;"></circle><circle r="10" cx="110.34261094210773" cy="560.6158621095583" style="stroke: #000; fill: #69b3a2;"></circle><circle r="10" cx="185.92337081172292" cy="565.9252283508245" style="stroke: #000; fill: #69b3a2;"></circle><circle r="10" cx="264.94343110709883" cy="574.7959587785455" style="stroke: #000; fill: #69b3a2;"></circle><circle r="10" cx="340.367524811041" cy="578.5435231838823" style="stroke: #000; fill: #69b3a2;"></circle><circle r="10" cx="412.68256742437353" cy="579.9510448384522" style="stroke: #000; fill: #69b3a2;"></circle><circle r="10" cx="484.818878214896" cy="583.4820089891712" style="stroke: #000; fill: #69b3a2;"></circle><circle r="10" cx="557.2118861501128" cy="590.2133369019818" style="stroke: #000; fill: #69b3a2;"></circle><circle r="10" cx="627.8036009410422" cy="595.027942561647" style="stroke: #000; fill: #69b3a2;"></circle><circle r="10" cx="695.8334929383606" cy="596.9568248290867" style="stroke: #000; fill: #69b3a2;"></circle><circle r="10" cx="652.0993604927377" cy="588.3946547640846" style="stroke: #000; fill: #69b3a2;"></circle><circle r="10" cx="32.90932882755195" cy="630.9638248049953" style="stroke: #000; fill: #69b3a2;"></circle><circle r="10" cx="107.26298072768084" cy="638.4635136210295" style="stroke: #000; fill: #69b3a2;"></circle><circle r="10" cx="177.74436723292496" cy="636.6311514670512" style="stroke: #000; fill: #69b3a2;"></circle><circle r="10" cx="257.32342417577263" cy="640.7609963217664" style="stroke: #000; fill: #69b3a2;"></circle><circle r="10" cx="342.7123686428043" cy="657.0523754726084" style="stroke: #000; fill: #69b3a2;"></circle><circle r="10" cx="414.2837986106184" cy="660.4115794214199" style="stroke: #000; fill: #69b3a2;"></circle><circle r="10" cx="481.764991267129" cy="662.6566220605124" style="stroke: #000; fill: #69b3a2;"></circle><circle r="10" cx="549.7551650816008" cy="670.6784314903099" style="stroke: #000; fill: #69b3a2;"></circle><circle r="10" cx="626.044232545315" cy="678.141640263461" style="stroke: #000; fill: #69b3a2;"></circle><circle r="10" cx="714.3046545277809" cy="665.4405053330228" style="stroke: #000; fill: #69b3a2;"></circle><circle r="10" cx="632.7838197568731" cy="678.5406407324941" style="stroke: #000; fill: #69b3a2;"></circle><circle r="10" cx="20" cy="701.5321877595173" style="stroke: #000; fill: #69b3a2;"></circle><circle r="10" cx="102.1789062189248" cy="710.7813986321498" style="stroke: #000; fill: #69b3a2;"></circle><circle r="10" cx="193.22489675837105" cy="705.9439929456827" style="stroke: #000; fill: #69b3a2;"></circle><circle r="10" cx="268.6894441670645" cy="662.0144213055925" style="stroke: #000; fill: #69b3a2;"></circle><circle r="10" cx="338.05651498688786" cy="600.8016693487783" style="stroke: #000; fill: #69b3a2;"></circle><circle r="10" cx="414.65597269432993" cy="584.9457707098524" style="stroke: #000; fill: #69b3a2;"></circle><circle r="10" cx="489.87191369927933" cy="586.5812926324411" style="stroke: #000; fill: #69b3a2;"></circle><circle r="10" cx="565.6299343478954" cy="600.4459889306688" style="stroke: #000; fill: #69b3a2;"></circle><circle r="10" cx="640.3023246653689" cy="635.6887503592397" style="stroke: #000; fill: #69b3a2;"></circle><circle r="10" cx="720.2976870062023" cy="691.3838958299971" style="stroke: #000; fill: #69b3a2;"></circle><circle r="10" cx="679.6578952130976" cy="759.6471760748484" style="stroke: #000; fill: #69b3a2;"></circle><circle r="10" cx="31.658301990970692" cy="780" style="stroke: #000; fill: #69b3a2;"></circle><circle r="10" cx="109.35186293665444" cy="734.8225068929532" style="stroke: #000; fill: #69b3a2;"></circle><circle r="10" cx="166.12459218455712" cy="650.5034477742129" style="stroke: #000; fill: #69b3a2;"></circle><circle r="10" cx="235.4210529015419" cy="602.4257912579661" style="stroke: #000; fill: #69b3a2;"></circle><circle r="10" cx="314.2395801950662" cy="557.602458567242" style="stroke: #000; fill: #69b3a2;"></circle><circle r="10" cx="404.6749404493399" cy="522.342217118123" style="stroke: #000; fill: #69b3a2;"></circle><circle r="10" cx="497.84423562289356" cy="520.1397345290608" style="stroke: #000; fill: #69b3a2;"></circle><circle r="10" cx="588.6370595227875" cy="545.2425640379388" style="stroke: #000; fill: #69b3a2;"></circle><circle r="10" cx="671.5649476971341" cy="598.5368666864575" style="stroke: #000; fill: #69b3a2;"></circle><circle r="10" cx="736.6932057809311" cy="677.5898796148552" style="stroke: #000; fill: #69b3a2;"></circle><circle r="10" cx="767.1783821595678" cy="779.9984799982133" style="stroke: #000; fill: #69b3a2;"></circle></svg>