<svg width="800" height="800" xmlns="http://www.w3.org/2000/svg"><line style="stroke: #aaa; stroke-width: 1;" x1="20" y1="20" x2="167.9899950046876" y2="161.73742807066418"></line><line style="stroke: #aaa; stroke-width: 1;" x1="20" y1="20" x2="163.152526988823" y2="166.57565577653241"></line><line style="stroke: #aaa; stroke-width: 1.41421;" x1="20" y1="20" x2="189.13653232965459" y2="187.51318877511295"></line><line style="stroke: #aaa; stroke-width: 1.41421;" x1="167.9899950046876" y1="161.73742807066418" x2="163.152526988823" y2="166.57565577653241"></line><line style="stroke: #aaa; stroke-width: 1;" x1="167.9899950046876" y1="161.73742807066418" x2="230.33975165598304" y2="211.46112390108024"></line><line style="stroke: #aaa; stroke-width: 1;" x1="167.9899950046876" y1="161.73742807066418" x2="189.13653232965459" y2="187.51318877511295"></line><line style="stroke: #aaa; stroke-width: 1.41421;" x1="167.9899950046876" y1="161.73742807066418" x2="238.97955313349254" y2="224.89355187367136"></line><line style="stroke: #aaa; stroke-width: 1.41421;" x1="230.33975165598304" y1="211.46112390108024" x2="189.13653232965459" y2="187.51318877511295"></line><line style="stroke: #aaa; stroke-width: 1;" x1="230.33975165598304" y1="211.46112390108024" x2="277.09940910705393" y2="238.44226147350057"></line><line style="stroke: #aaa; stroke-width: 1;" x1="230.33975165598304" y1="211.46112390108024" x2="238.97955313349254" y2="224.89355187367136"></line><line style="stroke: #aaa; stroke-width: 1.41421;" x1="230.33975165598304" y1="211.46112390108024" x2="280.75582051700275" y2="247.1094227612356"></line><line style="stroke: #aaa; stroke-width: 1.41421;" x1="277.09940910705393" y1="238.44226147350057" x2="238.97955313349254" y2="224.89355187367136"></line><line style="stroke: #aaa; stroke-width: 1;" x1="277.09940910705393" y1="238.44226147350057" x2="318.2988283799528" y2="252.29269529564044"></line><line style="stroke: #aaa; stroke-width: 1;" x1="277.09940910705393" y1="238.44226147350057" x2="280.75582051700275" y2="247.1094227612356"></line><line style="stroke: #aaa; stroke-width: 1.41421;" x1="277.09940910705393" y1="238.44226147350057" x2="319.7215683839902" y2="259.20499202590617"></line><line style="stroke: #aaa; stroke-width: 1.41421;" x1="318.2988283799528" y1="252.29269529564044" x2="280.75582051700275" y2="247.1094227612356"></line><line style="stroke: #aaa; stroke-width: 1;" x1="318.2988283799528" y1="252.29269529564044" x2="358.399272201015" y2="256.60727567361937"></line><line style="stroke: #aaa; stroke-width: 1;" x1="318.2988283799528" y1="252.29269529564044" x2="319.7215683839902" y2="259.20499202590617"></line><line style="stroke: #aaa; stroke-width: 1.41421;" x1="318.2988283799528" y1="252.29269529564044" x2="358.2959107477303" y2="263.0400056928573"></line><line style="stroke: #aaa; stroke-width: 1.41421;" x1="358.399272201015" y1="256.60727567361937" x2="319.7215683839902" y2="259.20499202590617"></line><line style="stroke: #aaa; stroke-width: 1;" x1="358.399272201015" y1="256.60727567361937" x2="400.16109938149276" y2="252.29269529564044"></line><line style="stroke: #aaa; stroke-width: 1;" x1="358.399272201015" y1="256.60727567361937" x2="358.2959107477303" y2="263.0400056928573"></line><line style="stroke: #aaa; stroke-width: 1.41421;" x1="358.399272201015" y1="256.60727567361937" x2="398.35379397038105" y2="259.20499202590617"></line><line style="stroke: #aaa; stroke-width: 1.41421;" x1="400.16109938149276" y1="252.29269529564044" x2="358.2959107477303" y2="263.0400056928573"></line><line style="stroke: #aaa; stroke-width: 1;" x1="400.16109938149276" y1="252.29269529564044" x2="446.6106724727093" y2="238.44226147350057"></line><line style="stroke: #aaa; stroke-width: 1;" x1="400.16109938149276" y1="252.29269529564044" x2="398.35379397038105" y2="259.20499202590617"></line><line style="stroke: #aaa; stroke-width: 1.41421;" x1="400.16109938149276" y1="252.29269529564044" x2="441.9221665512846" y2="247.1094227612356"></line><line style="stroke: #aaa; stroke-width: 1.41421;" x1="446.6106724727093" y1="238.44226147350057" x2="398.35379397038105" y2="259.20499202590617"></line><line style="stroke: #aaa; stroke-width: 1;" x1="446.6106724727093" y1="238.44226147350057" x2="503.31354972763813" y2="211.46112390108024"></line><line style="stroke: #aaa; stroke-width: 1;" x1="446.6106724727093" y1="238.44226147350057" x2="441.9221665512846" y2="247.1094227612356"></line><line style="stroke: #aaa; stroke-width: 1.41421;" x1="446.6106724727093" y1="238.44226147350057" x2="491.9050293213314" y2="224.89355187367136"></line><line style="stroke: #aaa; stroke-width: 1.41421;" x1="503.31354972763813" y1="211.46112390108024" x2="441.9221665512846" y2="247.1094227612356"></line><line style="stroke: #aaa; stroke-width: 1;" x1="503.31354972763813" y1="211.46112390108024" x2="583.3571151577777" y2="161.73818808129974"></line><line style="stroke: #aaa; stroke-width: 1;" x1="503.31354972763813" y1="211.46112390108024" x2="491.9050293213314" y2="224.89355187367136"></line><line style="stroke: #aaa; stroke-width: 1.41421;" x1="503.31354972763813" y1="211.46112390108024" x2="555.0322769043205" y2="187.51318877511295"></line><line style="stroke: #aaa; stroke-width: 1.41421;" x1="583.3571151577777" y1="161.73818808129974" x2="491.9050293213314" y2="224.89355187367136"></line><line style="stroke: #aaa; stroke-width: 1;" x1="583.3571151577777" y1="161.73818808129974" x2="780" y2="20.000003959655412"></line><line style="stroke: #aaa; stroke-width: 1;" x1="583.3571151577777" y1="161.73818808129974" x2="555.0322769043205" y2="187.51318877511295"></line><line style="stroke: #aaa; stroke-width: 1.41421;" x1="583.3571151577777" y1="161.73818808129974" x2="588.1953431843282" y2="166.57565577653241"></line><line style="stroke: #aaa; stroke-width: 1.41421;" x1="780" y1="20.000003959655412" x2="555.0322769043205" y2="187.51318877511295"></line><line style="stroke: #aaa; stroke-width: 1;" x1="163.152526988823" y1="166.57565577653241" x2="189.13653232965459" y2="187.51318877511295"></line><line style="stroke: #aaa; stroke-width: 1;" x1="163.152526988823" y1="166.57565577653241" x2="213.38999333865215" y2="228.41088109496542"></line><line style="stroke: #aaa; stroke-width: 1.41421;" x1="163.152526988823" y1="166.57565577653241" x2="226.90298333426432" y2="236.9693608618178"></line><line style="stroke: #aaa; stroke-width: 1.41421;" x1="189.13653232965459" y1="187.51318877511295" x2="213.38999333865215" y2="228.41088109496542"></line><line style="stroke: #aaa; stroke-width: 1;" x1="189.13653232965459" y1="187.51318877511295" x2="238.97955313349254" y2="224.89355187367136"></line><line style="stroke: #aaa; stroke-width: 1;" x1="189.13653232965459" y1="187.51318877511295" x2="226.90298333426432" y2="236.9693608618178"></line><line style="stroke: #aaa; stroke-width: 1.41421;" x1="189.13653232965459" y1="187.51318877511295" x2="254.23828767465716" y2="252.0677321475196"></line><line style="stroke: #aaa; stroke-width: 1.41421;" x1="238.97955313349254" y1="224.89355187367136" x2="226.90298333426432" y2="236.9693608618178"></line><line style="stroke: #aaa; stroke-width: 1;" x1="238.97955313349254" y1="224.89355187367136" x2="280.75582051700275" y2="247.1094227612356"></line><line style="stroke: #aaa; stroke-width: 1;" x1="238.97955313349254" y1="224.89355187367136" x2="254.23828767465716" y2="252.0677321475196"></line><line style="stroke: #aaa; stroke-width: 1.41421;" x1="238.97955313349254" y1="224.89355187367136" x2="287.7273985389235" y2="266.339971872386"></line><line style="stroke: #aaa; stroke-width: 1.41421;" x1="280.75582051700275" y1="247.1094227612356" x2="254.23828767465716" y2="252.0677321475196"></line><line style="stroke: #aaa; stroke-width: 1;" x1="280.75582051700275" y1="247.1094227612356" x2="319.7215683839902" y2="259.20499202590617"></line><line style="stroke: #aaa; stroke-width: 1;" x1="280.75582051700275" y1="247.1094227612356" x2="287.7273985389235" y2="266.339971872386"></line><line style="stroke: #aaa; stroke-width: 1.41421;" x1="280.75582051700275" y1="247.1094227612356" x2="322.2774843207306" y2="274.9569724581752"></line><line style="stroke: #aaa; stroke-width: 1.41421;" x1="319.7215683839902" y1="259.20499202590617" x2="287.7273985389235" y2="266.339971872386"></line><line style="stroke: #aaa; stroke-width: 1;" x1="319.7215683839902" y1="259.20499202590617" x2="358.2959107477303" y2="263.0400056928573"></line><line style="stroke: #aaa; stroke-width: 1;" x1="319.7215683839902" y1="259.20499202590617" x2="322.2774843207306" y2="274.9569724581752"></line><line style="stroke: #aaa; stroke-width: 1.41421;" x1="319.7215683839902" y1="259.20499202590617" x2="357.7107025195738" y2="277.8062523308268"></line><line style="stroke: #aaa; stroke-width: 1.41421;" x1="358.2959107477303" y1="263.0400056928573" x2="322.2774843207306" y2="274.9569724581752"></line><line style="stroke: #aaa; stroke-width: 1;" x1="358.2959107477303" y1="263.0400056928573" x2="398.35379397038105" y2="259.20499202590617"></line><line style="stroke: #aaa; stroke-width: 1;" x1="358.2959107477303" y1="263.0400056928573" x2="357.7107025195738" y2="277.8062523308268"></line><line style="stroke: #aaa; stroke-width: 1.41421;" x1="358.2959107477303" y1="263.0400056928573" x2="394.2892568220946" y2="274.9569724581752"></line><line style="stroke: #aaa; stroke-width: 1.41421;" x1="398.35379397038105" y1="259.20499202590617" x2="357.7107025195738" y2="277.8062523308268"></line><line style="stroke: #aaa; stroke-width: 1;" x1="398.35379397038105" y1="259.20499202590617" x2="441.9221665512846" y2="247.1094227612356"></line><line style="stroke: #aaa; stroke-width: 1;" x1="398.35379397038105" y1="259.20499202590617" x2="394.2892568220946" y2="274.9569724581752"></line><line style="stroke: #aaa; stroke-width: 1.41421;" x1="398.35379397038105" y1="259.20499202590617" x2="432.23507034858085" y2="266.339971872386"></line><line style="stroke: #aaa; stroke-width: 1.41421;" x1="441.9221665512846" y1="247.1094227612356" x2="394.2892568220946" y2="274.9569724581752"></line><line style="stroke: #aaa; stroke-width: 1;" x1="441.9221665512846" y1="247.1094227612356" x2="491.9050293213314" y2="224.89355187367136"></line><line style="stroke: #aaa; stroke-width: 1;" x1="441.9221665512846" y1="247.1094227612356" x2="432.23507034858085" y2="266.339971872386"></line><line style="stroke: #aaa; stroke-width: 1.41421;" x1="441.9221665512846" y1="247.1094227612356" x2="471.14305740343855" y2="252.06849215815518"></line><line style="stroke: #aaa; stroke-width: 1.41421;" x1="491.9050293213314" y1="224.89355187367136" x2="432.23507034858085" y2="266.339971872386"></line><line style="stroke: #aaa; stroke-width: 1;" x1="491.9050293213314" y1="224.89355187367136" x2="555.0322769043205" y2="187.51318877511295"></line><line style="stroke: #aaa; stroke-width: 1;" x1="491.9050293213314" y1="224.89355187367136" x2="471.14305740343855" y2="252.06849215815518"></line><line style="stroke: #aaa; stroke-width: 1.41421;" x1="491.9050293213314" y1="224.89355187367136" x2="503.9808391098737" y2="236.9693608618178"></line><line style="stroke: #aaa; stroke-width: 1.41421;" x1="555.0322769043205" y1="187.51318877511295" x2="471.14305740343855" y2="252.06849215815518"></line><line style="stroke: #aaa; stroke-width: 1;" x1="555.0322769043205" y1="187.51318877511295" x2="588.1953431843282" y2="166.57565577653241"></line><line style="stroke: #aaa; stroke-width: 1;" x1="555.0322769043205" y1="187.51318877511295" x2="503.9808391098737" y2="236.9693608618178"></line><line style="stroke: #aaa; stroke-width: 1.41421;" x1="555.0322769043205" y1="187.51318877511295" x2="520.2633080449691" y2="228.41088109496542"></line><line style="stroke: #aaa; stroke-width: 1.41421;" x1="588.1953431843282" y1="166.57565577653241" x2="503.9808391098737" y2="236.9693608618178"></line><line style="stroke: #aaa; stroke-width: 1;" x1="213.38999333865215" y1="228.41088109496542" x2="226.90298333426432" y2="236.9693608618178"></line><line style="stroke: #aaa; stroke-width: 1;" x1="213.38999333865215" y1="228.41088109496542" x2="240.66069677074194" y2="274.8802113839853"></line><line style="stroke: #aaa; stroke-width: 1.41421;" x1="213.38999333865215" y1="228.41088109496542" x2="249.3574990496953" y2="278.5069821367976"></line><line style="stroke: #aaa; stroke-width: 1.41421;" x1="226.90298333426432" y1="236.9693608618178" x2="240.66069677074194" y2="274.8802113839853"></line><line style="stroke: #aaa; stroke-width: 1;" x1="226.90298333426432" y1="236.9693608618178" x2="254.23828767465716" y2="252.0677321475196"></line><line style="stroke: #aaa; stroke-width: 1;" x1="226.90298333426432" y1="236.9693608618178" x2="249.3574990496953" y2="278.5069821367976"></line><line style="stroke: #aaa; stroke-width: 1.41421;" x1="226.90298333426432" y1="236.9693608618178" x2="268.66785055748574" y2="285.39951859053923"></line><line style="stroke: #aaa; stroke-width: 1.41421;" x1="254.23828767465716" y1="252.0677321475196" x2="249.3574990496953" y2="278.5069821367976"></line><line style="stroke: #aaa; stroke-width: 1;" x1="254.23828767465716" y1="252.0677321475196" x2="287.7273985389235" y2="266.339971872386"></line><line style="stroke: #aaa; stroke-width: 1;" x1="254.23828767465716" y1="252.0677321475196" x2="268.66785055748574" y2="285.39951859053923"></line><line style="stroke: #aaa; stroke-width: 1.41421;" x1="254.23828767465716" y1="252.0677321475196" x2="294.9193796597603" y2="292.50257799032624"></line><line style="stroke: #aaa; stroke-width: 1.41421;" x1="287.7273985389235" y1="266.339971872386" x2="268.66785055748574" y2="285.39951859053923"></line><line style="stroke: #aaa; stroke-width: 1;" x1="287.7273985389235" y1="266.339971872386" x2="322.2774843207306" y2="274.9569724581752"></line><line style="stroke: #aaa; stroke-width: 1;" x1="287.7273985389235" y1="266.339971872386" x2="294.9193796597603" y2="292.50257799032624"></line><line style="stroke: #aaa; stroke-width: 1.41421;" x1="287.7273985389235" y1="266.339971872386" x2="324.98768242671224" y2="297.47152752550795"></line><line style="stroke: #aaa; stroke-width: 1.41421;" x1="322.2774843207306" y1="274.9569724581752" x2="294.9193796597603" y2="292.50257799032624"></line><line style="stroke: #aaa; stroke-width: 1;" x1="322.2774843207306" y1="274.9569724581752" x2="357.7107025195738" y2="277.8062523308268"></line><line style="stroke: #aaa; stroke-width: 1;" x1="322.2774843207306" y1="274.9569724581752" x2="324.98768242671224" y2="297.47152752550795"></line><line style="stroke: #aaa; stroke-width: 1.41421;" x1="322.2774843207306" y1="274.9569724581752" x2="356.94461174816905" y2="299.19143159374227"></line><line style="stroke: #aaa; stroke-width: 1.41421;" x1="357.7107025195738" y1="277.8062523308268" x2="324.98768242671224" y2="297.47152752550795"></line><line style="stroke: #aaa; stroke-width: 1;" x1="357.7107025195738" y1="277.8062523308268" x2="394.2892568220946" y2="274.9569724581752"></line><line style="stroke: #aaa; stroke-width: 1;" x1="357.7107025195738" y1="277.8062523308268" x2="356.94461174816905" y2="299.19143159374227"></line><line style="stroke: #aaa; stroke-width: 1.41421;" x1="357.7107025195738" y1="277.8062523308268" x2="389.6972722577814" y2="297.47152752550795"></line><line style="stroke: #aaa; stroke-width: 1.41421;" x1="394.2892568220946" y1="274.9569724581752" x2="356.94461174816905" y2="299.19143159374227"></line><line style="stroke: #aaa; stroke-width: 1;" x1="394.2892568220946" y1="274.9569724581752" x2="432.23507034858085" y2="266.339971872386"></line><line style="stroke: #aaa; stroke-width: 1;" x1="394.2892568220946" y1="274.9569724581752" x2="389.6972722577814" y2="297.47152752550795"></line><line style="stroke: #aaa; stroke-width: 1.41421;" x1="394.2892568220946" y1="274.9569724581752" x2="421.99924643064475" y2="292.50333800096183"></line><line style="stroke: #aaa; stroke-width: 1.41421;" x1="432.23507034858085" y1="266.339971872386" x2="389.6972722577814" y2="297.47152752550795"></line><line style="stroke: #aaa; stroke-width: 1;" x1="432.23507034858085" y1="266.339971872386" x2="471.14305740343855" y2="252.06849215815518"></line><line style="stroke: #aaa; stroke-width: 1;" x1="432.23507034858085" y1="266.339971872386" x2="421.99924643064475" y2="292.50333800096183"></line><line style="stroke: #aaa; stroke-width: 1.41421;" x1="432.23507034858085" y1="266.339971872386" x2="451.2946183300185" y2="285.39951859053923"></line><line style="stroke: #aaa; stroke-width: 1.41421;" x1="471.14305740343855" y1="252.06849215815518" x2="421.99924643064475" y2="292.50333800096183"></line><line style="stroke: #aaa; stroke-width: 1;" x1="471.14305740343855" y1="252.06849215815518" x2="503.9808391098737" y2="236.9693608618178"></line><line style="stroke: #aaa; stroke-width: 1;" x1="471.14305740343855" y1="252.06849215815518" x2="451.2946183300185" y2="285.39951859053923"></line><line style="stroke: #aaa; stroke-width: 1.41421;" x1="471.14305740343855" y1="252.06849215815518" x2="473.3204880185921" y2="278.5069821367976"></line><line style="stroke: #aaa; stroke-width: 1.41421;" x1="503.9808391098737" y1="236.9693608618178" x2="451.2946183300185" y2="285.39951859053923"></line><line style="stroke: #aaa; stroke-width: 1;" x1="503.9808391098737" y1="236.9693608618178" x2="520.2633080449691" y2="228.41088109496542"></line><line style="stroke: #aaa; stroke-width: 1;" x1="503.9808391098737" y1="236.9693608618178" x2="473.3204880185921" y2="278.5069821367976"></line><line style="stroke: #aaa; stroke-width: 1.41421;" x1="503.9808391098737" y1="236.9693608618178" x2="483.0501448197072" y2="274.8802113839853"></line><line style="stroke: #aaa; stroke-width: 1.41421;" x1="520.2633080449691" y1="228.41088109496542" x2="473.3204880185921" y2="278.5069821367976"></line><line style="stroke: #aaa; stroke-width: 1;" x1="240.66069677074194" y1="274.8802113839853" x2="249.3574990496953" y2="278.5069821367976"></line><line style="stroke: #aaa; stroke-width: 1;" x1="240.66069677074194" y1="274.8802113839853" x2="254.6638936587709" y2="315.9261057777687"></line><line style="stroke: #aaa; stroke-width: 1.41421;" x1="240.66069677074194" y1="274.8802113839853" x2="261.5875910074788" y2="317.33820553860807"></line><line style="stroke: #aaa; stroke-width: 1.41421;" x1="249.3574990496953" y1="278.5069821367976" x2="254.6638936587709" y2="315.9261057777687"></line><line style="stroke: #aaa; stroke-width: 1;" x1="249.3574990496953" y1="278.5069821367976" x2="268.66785055748574" y2="285.39951859053923"></line><line style="stroke: #aaa; stroke-width: 1;" x1="249.3574990496953" y1="278.5069821367976" x2="261.5875910074788" y2="317.33820553860807"></line><line style="stroke: #aaa; stroke-width: 1.41421;" x1="249.3574990496953" y1="278.5069821367976" x2="277.38365310358705" y2="319.8500406890784"></line><line style="stroke: #aaa; stroke-width: 1.41421;" x1="268.66785055748574" y1="285.39951859053923" x2="261.5875910074788" y2="317.33820553860807"></line><line style="stroke: #aaa; stroke-width: 1;" x1="268.66785055748574" y1="285.39951859053923" x2="294.9193796597603" y2="292.50257799032624"></line><line style="stroke: #aaa; stroke-width: 1;" x1="268.66785055748574" y1="285.39951859053923" x2="277.38365310358705" y2="319.8500406890784"></line><line style="stroke: #aaa; stroke-width: 1.41421;" x1="268.66785055748574" y1="285.39951859053923" x2="299.95293043259153" y2="322.5055178496665"></line><line style="stroke: #aaa; stroke-width: 1.41421;" x1="294.9193796597603" y1="292.50257799032624" x2="277.38365310358705" y2="319.8500406890784"></line><line style="stroke: #aaa; stroke-width: 1;" x1="294.9193796597603" y1="292.50257799032624" x2="324.98768242671224" y2="297.47152752550795"></line><line style="stroke: #aaa; stroke-width: 1;" x1="294.9193796597603" y1="292.50257799032624" x2="299.95293043259153" y2="322.5055178496665"></line><line style="stroke: #aaa; stroke-width: 1.41421;" x1="294.9193796597603" y1="292.50257799032624" x2="326.95155003912294" y2="324.42682473631976"></line><line style="stroke: #aaa; stroke-width: 1.41421;" x1="324.98768242671224" y1="297.47152752550795" x2="299.95293043259153" y2="322.5055178496665"></line><line style="stroke: #aaa; stroke-width: 1;" x1="324.98768242671224" y1="297.47152752550795" x2="356.94461174816905" y2="299.19143159374227"></line><line style="stroke: #aaa; stroke-width: 1;" x1="324.98768242671224" y1="297.47152752550795" x2="326.95155003912294" y2="324.42682473631976"></line><line style="stroke: #aaa; stroke-width: 1.41421;" x1="324.98768242671224" y1="297.47152752550795" x2="356.32444302846045" y2="325.1169143933931"></line><line style="stroke: #aaa; stroke-width: 1.41421;" x1="356.94461174816905" y1="299.19143159374227" x2="326.95155003912294" y2="324.42682473631976"></line><line style="stroke: #aaa; stroke-width: 1;" x1="356.94461174816905" y1="299.19143159374227" x2="389.6972722577814" y2="297.47152752550795"></line><line style="stroke: #aaa; stroke-width: 1;" x1="356.94461174816905" y1="299.19143159374227" x2="356.32444302846045" y2="325.1169143933931"></line><line style="stroke: #aaa; stroke-width: 1.41421;" x1="356.94461174816905" y1="299.19143159374227" x2="386.2513838078317" y2="324.42682473631976"></line><line style="stroke: #aaa; stroke-width: 1.41421;" x1="389.6972722577814" y1="297.47152752550795" x2="356.32444302846045" y2="325.1169143933931"></line><line style="stroke: #aaa; stroke-width: 1;" x1="389.6972722577814" y1="297.47152752550795" x2="421.99924643064475" y2="292.50333800096183"></line><line style="stroke: #aaa; stroke-width: 1;" x1="389.6972722577814" y1="297.47152752550795" x2="386.2513838078317" y2="324.42682473631976"></line><line style="stroke: #aaa; stroke-width: 1.41421;" x1="389.6972722577814" y1="297.47152752550795" x2="414.732784262588" y2="322.5055178496665"></line><line style="stroke: #aaa; stroke-width: 1.41421;" x1="421.99924643064475" y1="292.50333800096183" x2="386.2513838078317" y2="324.42682473631976"></line><line style="stroke: #aaa; stroke-width: 1;" x1="421.99924643064475" y1="292.50333800096183" x2="451.2946183300185" y2="285.39951859053923"></line><line style="stroke: #aaa; stroke-width: 1;" x1="421.99924643064475" y1="292.50333800096183" x2="414.732784262588" y2="322.5055178496665"></line><line style="stroke: #aaa; stroke-width: 1.41421;" x1="421.99924643064475" y1="292.50333800096183" x2="439.1838480499241" y2="319.85080069971394"></line><line style="stroke: #aaa; stroke-width: 1.41421;" x1="451.2946183300185" y1="285.39951859053923" x2="414.732784262588" y2="322.5055178496665"></line><line style="stroke: #aaa; stroke-width: 1;" x1="451.2946183300185" y1="285.39951859053923" x2="473.3204880185921" y2="278.5069821367976"></line><line style="stroke: #aaa; stroke-width: 1;" x1="451.2946183300185" y1="285.39951859053923" x2="439.1838480499241" y2="319.85080069971394"></line><line style="stroke: #aaa; stroke-width: 1.41421;" x1="451.2946183300185" y1="285.39951859053923" x2="456.4885313575783" y2="317.33820553860807"></line><line style="stroke: #aaa; stroke-width: 1.41421;" x1="473.3204880185921" y1="278.5069821367976" x2="439.1838480499241" y2="319.85080069971394"></line><line style="stroke: #aaa; stroke-width: 1;" x1="473.3204880185921" y1="278.5069821367976" x2="483.0501448197072" y2="274.8802113839853"></line><line style="stroke: #aaa; stroke-width: 1;" x1="473.3204880185921" y1="278.5069821367976" x2="456.4885313575783" y2="317.33820553860807"></line><line style="stroke: #aaa; stroke-width: 1.41421;" x1="473.3204880185921" y1="278.5069821367976" x2="463.79603410267464" y2="315.92686578840426"></line><line style="stroke: #aaa; stroke-width: 1.41421;" x1="483.0501448197072" y1="274.8802113839853" x2="456.4885313575783" y2="317.33820553860807"></line><line style="stroke: #aaa; stroke-width: 1;" x1="254.6638936587709" y1="315.9261057777687" x2="261.5875910074788" y2="317.33820553860807"></line><line style="stroke: #aaa; stroke-width: 1;" x1="254.6638936587709" y1="315.9261057777687" x2="259.026354995937" y2="355.97790626026153"></line><line style="stroke: #aaa; stroke-width: 1.41421;" x1="254.6638936587709" y1="315.9261057777687" x2="265.4651655270296" y2="355.8692247393789"></line><line style="stroke: #aaa; stroke-width: 1.41421;" x1="261.5875910074788" y1="317.33820553860807" x2="259.026354995937" y2="355.97790626026153"></line><line style="stroke: #aaa; stroke-width: 1;" x1="261.5875910074788" y1="317.33820553860807" x2="277.38365310358705" y2="319.8500406890784"></line><line style="stroke: #aaa; stroke-width: 1;" x1="261.5875910074788" y1="317.33820553860807" x2="265.4651655270296" y2="355.8692247393789"></line><line style="stroke: #aaa; stroke-width: 1.41421;" x1="261.5875910074788" y1="317.33820553860807" x2="280.265613624586" y2="355.24981607141115"></line><line style="stroke: #aaa; stroke-width: 1.41421;" x1="277.38365310358705" y1="319.8500406890784" x2="265.4651655270296" y2="355.8692247393789"></line><line style="stroke: #aaa; stroke-width: 1;" x1="277.38365310358705" y1="319.8500406890784" x2="299.95293043259153" y2="322.5055178496665"></line><line style="stroke: #aaa; stroke-width: 1;" x1="277.38365310358705" y1="319.8500406890784" x2="280.265613624586" y2="355.24981607141115"></line><line style="stroke: #aaa; stroke-width: 1.41421;" x1="277.38365310358705" y1="319.8500406890784" x2="301.6956349354002" y2="354.4388847232865"></line><line style="stroke: #aaa; stroke-width: 1.41421;" x1="299.95293043259153" y1="322.5055178496665" x2="280.265613624586" y2="355.24981607141115"></line><line style="stroke: #aaa; stroke-width: 1;" x1="299.95293043259153" y1="322.5055178496665" x2="326.95155003912294" y2="324.42682473631976"></line><line style="stroke: #aaa; stroke-width: 1;" x1="299.95293043259153" y1="322.5055178496665" x2="301.6956349354002" y2="354.4388847232865"></line><line style="stroke: #aaa; stroke-width: 1.41421;" x1="299.95293043259153" y1="322.5055178496665" x2="327.6583599770261" y2="353.7822355341772"></line><line style="stroke: #aaa; stroke-width: 1.41421;" x1="326.95155003912294" y1="324.42682473631976" x2="301.6956349354002" y2="354.4388847232865"></line><line style="stroke: #aaa; stroke-width: 1;" x1="326.95155003912294" y1="324.42682473631976" x2="356.32444302846045" y2="325.1169143933931"></line><line style="stroke: #aaa; stroke-width: 1;" x1="326.95155003912294" y1="324.42682473631976" x2="327.6583599770261" y2="353.7822355341772"></line><line style="stroke: #aaa; stroke-width: 1.41421;" x1="326.95155003912294" y1="324.42682473631976" x2="356.088839715826" y2="353.5329520457189"></line><line style="stroke: #aaa; stroke-width: 1.41421;" x1="356.32444302846045" y1="325.1169143933931" x2="327.6583599770261" y2="353.7822355341772"></line><line style="stroke: #aaa; stroke-width: 1;" x1="356.32444302846045" y1="325.1169143933931" x2="386.2513838078317" y2="324.42682473631976"></line><line style="stroke: #aaa; stroke-width: 1;" x1="356.32444302846045" y1="325.1169143933931" x2="356.088839715826" y2="353.5329520457189"></line><line style="stroke: #aaa; stroke-width: 1.41421;" x1="356.32444302846045" y1="325.1169143933931" x2="384.99052607989466" y2="353.7822355341772"></line><line style="stroke: #aaa; stroke-width: 1.41421;" x1="386.2513838078317" y1="324.42682473631976" x2="356.088839715826" y2="353.5329520457189"></line><line style="stroke: #aaa; stroke-width: 1;" x1="386.2513838078317" y1="324.42682473631976" x2="414.732784262588" y2="322.5055178496665"></line><line style="stroke: #aaa; stroke-width: 1;" x1="386.2513838078317" y1="324.42682473631976" x2="384.99052607989466" y2="353.7822355341772"></line><line style="stroke: #aaa; stroke-width: 1.41421;" x1="386.2513838078317" y1="324.42682473631976" x2="412.1935885609377" y2="354.4388847232865"></line><line style="stroke: #aaa; stroke-width: 1.41421;" x1="414.732784262588" y1="322.5055178496665" x2="384.99052607989466" y2="353.7822355341772"></line><line style="stroke: #aaa; stroke-width: 1;" x1="414.732784262588" y1="322.5055178496665" x2="439.1838480499241" y2="319.85080069971394"></line><line style="stroke: #aaa; stroke-width: 1;" x1="414.732784262588" y1="322.5055178496665" x2="412.1935885609377" y2="354.4388847232865"></line><line style="stroke: #aaa; stroke-width: 1.41421;" x1="414.732784262588" y1="322.5055178496665" x2="435.1557914145615" y2="355.24981607141115"></line><line style="stroke: #aaa; stroke-width: 1.41421;" x1="439.1838480499241" y1="319.85080069971394" x2="412.1935885609377" y2="354.4388847232865"></line><line style="stroke: #aaa; stroke-width: 1;" x1="439.1838480499241" y1="319.85080069971394" x2="456.4885313575783" y2="317.33820553860807"></line><line style="stroke: #aaa; stroke-width: 1;" x1="439.1838480499241" y1="319.85080069971394" x2="435.1557914145615" y2="355.24981607141115"></line><line style="stroke: #aaa; stroke-width: 1.41421;" x1="439.1838480499241" y1="319.85080069971394" x2="451.1281759898027" y2="355.8692247393789"></line><line style="stroke: #aaa; stroke-width: 1.41421;" x1="456.4885313575783" y1="317.33820553860807" x2="435.1557914145615" y2="355.24981607141115"></line><line style="stroke: #aaa; stroke-width: 1;" x1="456.4885313575783" y1="317.33820553860807" x2="463.79603410267464" y2="315.92686578840426"></line><line style="stroke: #aaa; stroke-width: 1;" x1="456.4885313575783" y1="317.33820553860807" x2="451.1281759898027" y2="355.8692247393789"></line><line style="stroke: #aaa; stroke-width: 1.41421;" x1="456.4885313575783" y1="317.33820553860807" x2="457.772189406093" y2="355.9786662708971"></line><line style="stroke: #aaa; stroke-width: 1.41421;" x1="463.79603410267464" y1="315.92686578840426" x2="451.1281759898027" y2="355.8692247393789"></line><line style="stroke: #aaa; stroke-width: 1;" x1="259.026354995937" y1="355.97790626026153" x2="265.4651655270296" y2="355.8692247393789"></line><line style="stroke: #aaa; stroke-width: 1;" x1="259.026354995937" y1="355.97790626026153" x2="254.6638936587709" y2="397.7876113427659"></line><line style="stroke: #aaa; stroke-width: 1.41421;" x1="259.026354995937" y1="355.97790626026153" x2="261.5875910074788" y2="395.9696659025464"></line><line style="stroke: #aaa; stroke-width: 1.41421;" x1="265.4651655270296" y1="355.8692247393789" x2="254.6638936587709" y2="397.7876113427659"></line><line style="stroke: #aaa; stroke-width: 1;" x1="265.4651655270296" y1="355.8692247393789" x2="280.265613624586" y2="355.24981607141115"></line><line style="stroke: #aaa; stroke-width: 1;" x1="265.4651655270296" y1="355.8692247393789" x2="261.5875910074788" y2="395.9696659025464"></line><line style="stroke: #aaa; stroke-width: 1.41421;" x1="265.4651655270296" y1="355.8692247393789" x2="277.38365310358705" y2="391.8610484067998"></line><line style="stroke: #aaa; stroke-width: 1.41421;" x1="280.265613624586" y1="355.24981607141115" x2="261.5875910074788" y2="395.9696659025464"></line><line style="stroke: #aaa; stroke-width: 1;" x1="280.265613624586" y1="355.24981607141115" x2="301.6956349354002" y2="354.4388847232865"></line><line style="stroke: #aaa; stroke-width: 1;" x1="280.265613624586" y1="355.24981607141115" x2="277.38365310358705" y2="391.8610484067998"></line><line style="stroke: #aaa; stroke-width: 1.41421;" x1="280.265613624586" y1="355.24981607141115" x2="299.95293043259153" y2="387.21434338108844"></line><line style="stroke: #aaa; stroke-width: 1.41421;" x1="301.6956349354002" y1="354.4388847232865" x2="277.38365310358705" y2="391.8610484067998"></line><line style="stroke: #aaa; stroke-width: 1;" x1="301.6956349354002" y1="354.4388847232865" x2="327.6583599770261" y2="353.7822355341772"></line><line style="stroke: #aaa; stroke-width: 1;" x1="301.6956349354002" y1="354.4388847232865" x2="299.95293043259153" y2="387.21434338108844"></line><line style="stroke: #aaa; stroke-width: 1.41421;" x1="301.6956349354002" y1="354.4388847232865" x2="326.95155003912294" y2="383.72513455330943"></line><line style="stroke: #aaa; stroke-width: 1.41421;" x1="327.6583599770261" y1="353.7822355341772" x2="299.95293043259153" y2="387.21434338108844"></line><line style="stroke: #aaa; stroke-width: 1;" x1="327.6583599770261" y1="353.7822355341772" x2="356.088839715826" y2="353.5329520457189"></line><line style="stroke: #aaa; stroke-width: 1;" x1="327.6583599770261" y1="353.7822355341772" x2="326.95155003912294" y2="383.72513455330943"></line><line style="stroke: #aaa; stroke-width: 1.41421;" x1="327.6583599770261" y1="353.7822355341772" x2="356.32444302846045" y2="382.4475566749613"></line><line style="stroke: #aaa; stroke-width: 1.41421;" x1="356.088839715826" y1="353.5329520457189" x2="326.95155003912294" y2="383.72513455330943"></line><line style="stroke: #aaa; stroke-width: 1;" x1="356.088839715826" y1="353.5329520457189" x2="384.99052607989466" y2="353.7822355341772"></line><line style="stroke: #aaa; stroke-width: 1;" x1="356.088839715826" y1="353.5329520457189" x2="356.32444302846045" y2="382.4475566749613"></line><line style="stroke: #aaa; stroke-width: 1.41421;" x1="356.088839715826" y1="353.5329520457189" x2="386.2513838078317" y2="383.72513455330943"></line><line style="stroke: #aaa; stroke-width: 1.41421;" x1="384.99052607989466" y1="353.7822355341772" x2="356.32444302846045" y2="382.4475566749613"></line><line style="stroke: #aaa; stroke-width: 1;" x1="384.99052607989466" y1="353.7822355341772" x2="412.1935885609377" y2="354.4388847232865"></line><line style="stroke: #aaa; stroke-width: 1;" x1="384.99052607989466" y1="353.7822355341772" x2="386.2513838078317" y2="383.72513455330943"></line><line style="stroke: #aaa; stroke-width: 1.41421;" x1="384.99052607989466" y1="353.7822355341772" x2="414.732784262588" y2="387.21434338108844"></line><line style="stroke: #aaa; stroke-width: 1.41421;" x1="412.1935885609377" y1="354.4388847232865" x2="386.2513838078317" y2="383.72513455330943"></line><line style="stroke: #aaa; stroke-width: 1;" x1="412.1935885609377" y1="354.4388847232865" x2="435.1557914145615" y2="355.24981607141115"></line><line style="stroke: #aaa; stroke-width: 1;" x1="412.1935885609377" y1="354.4388847232865" x2="414.732784262588" y2="387.21434338108844"></line><line style="stroke: #aaa; stroke-width: 1.41421;" x1="412.1935885609377" y1="354.4388847232865" x2="439.1838480499241" y2="391.8610484067998"></line><line style="stroke: #aaa; stroke-width: 1.41421;" x1="435.1557914145615" y1="355.24981607141115" x2="414.732784262588" y2="387.21434338108844"></line><line style="stroke: #aaa; stroke-width: 1;" x1="435.1557914145615" y1="355.24981607141115" x2="451.1281759898027" y2="355.8692247393789"></line><line style="stroke: #aaa; stroke-width: 1;" x1="435.1557914145615" y1="355.24981607141115" x2="439.1838480499241" y2="391.8610484067998"></line><line style="stroke: #aaa; stroke-width: 1.41421;" x1="435.1557914145615" y1="355.24981607141115" x2="456.4885313575783" y2="395.9696659025464"></line><line style="stroke: #aaa; stroke-width: 1.41421;" x1="451.1281759898027" y1="355.8692247393789" x2="439.1838480499241" y2="391.8610484067998"></line><line style="stroke: #aaa; stroke-width: 1;" x1="451.1281759898027" y1="355.8692247393789" x2="457.772189406093" y2="355.9786662708971"></line><line style="stroke: #aaa; stroke-width: 1;" x1="451.1281759898027" y1="355.8692247393789" x2="456.4885313575783" y2="395.9696659025464"></line><line style="stroke: #aaa; stroke-width: 1.41421;" x1="451.1281759898027" y1="355.8692247393789" x2="463.79603410267464" y2="397.7876113427659"></line><line style="stroke: #aaa; stroke-width: 1.41421;" x1="457.772189406093" y1="355.9786662708971" x2="456.4885313575783" y2="395.9696659025464"></line><line style="stroke: #aaa; stroke-width: 1;" x1="254.6638936587709" y1="397.7876113427659" x2="261.5875910074788" y2="395.9696659025464"></line><line style="stroke: #aaa; stroke-width: 1;" x1="254.6638936587709" y1="397.7876113427659" x2="240.66069677074194" y2="444.3899434930059"></line><line style="stroke: #aaa; stroke-width: 1.41421;" x1="254.6638936587709" y1="397.7876113427659" x2="249.3574990496953" y2="439.67103745691793"></line><line style="stroke: #aaa; stroke-width: 1.41421;" x1="261.5875910074788" y1="395.9696659025464" x2="240.66069677074194" y2="444.3899434930059"></line><line style="stroke: #aaa; stroke-width: 1;" x1="261.5875910074788" y1="395.9696659025464" x2="277.38365310358705" y2="391.8610484067998"></line><line style="stroke: #aaa; stroke-width: 1;" x1="261.5875910074788" y1="395.9696659025464" x2="249.3574990496953" y2="439.67103745691793"></line><line style="stroke: #aaa; stroke-width: 1.41421;" x1="261.5875910074788" y1="395.9696659025464" x2="268.66785055748574" y2="429.90490079018736"></line><line style="stroke: #aaa; stroke-width: 1.41421;" x1="277.38365310358705" y1="391.8610484067998" x2="249.3574990496953" y2="439.67103745691793"></line><line style="stroke: #aaa; stroke-width: 1;" x1="277.38365310358705" y1="391.8610484067998" x2="299.95293043259153" y2="387.21434338108844"></line><line style="stroke: #aaa; stroke-width: 1;" x1="277.38365310358705" y1="391.8610484067998" x2="268.66785055748574" y2="429.90490079018736"></line><line style="stroke: #aaa; stroke-width: 1.41421;" x1="277.38365310358705" y1="391.8610484067998" x2="294.9193796597603" y2="419.5809163169681"></line><line style="stroke: #aaa; stroke-width: 1.41421;" x1="299.95293043259153" y1="387.21434338108844" x2="268.66785055748574" y2="429.90490079018736"></line><line style="stroke: #aaa; stroke-width: 1;" x1="299.95293043259153" y1="387.21434338108844" x2="326.95155003912294" y2="383.72513455330943"></line><line style="stroke: #aaa; stroke-width: 1;" x1="299.95293043259153" y1="387.21434338108844" x2="294.9193796597603" y2="419.5809163169681"></line><line style="stroke: #aaa; stroke-width: 1.41421;" x1="299.95293043259153" y1="387.21434338108844" x2="324.98768242671224" y2="412.248333705247"></line><line style="stroke: #aaa; stroke-width: 1.41421;" x1="326.95155003912294" y1="383.72513455330943" x2="294.9193796597603" y2="419.5809163169681"></line><line style="stroke: #aaa; stroke-width: 1;" x1="326.95155003912294" y1="383.72513455330943" x2="356.32444302846045" y2="382.4475566749613"></line><line style="stroke: #aaa; stroke-width: 1;" x1="326.95155003912294" y1="383.72513455330943" x2="324.98768242671224" y2="412.248333705247"></line><line style="stroke: #aaa; stroke-width: 1.41421;" x1="326.95155003912294" y1="383.72513455330943" x2="356.94461174816905" y2="409.6863378528308"></line><line style="stroke: #aaa; stroke-width: 1.41421;" x1="356.32444302846045" y1="382.4475566749613" x2="324.98768242671224" y2="412.248333705247"></line><line style="stroke: #aaa; stroke-width: 1;" x1="356.32444302846045" y1="382.4475566749613" x2="386.2513838078317" y2="383.72513455330943"></line><line style="stroke: #aaa; stroke-width: 1;" x1="356.32444302846045" y1="382.4475566749613" x2="356.94461174816905" y2="409.6863378528308"></line><line style="stroke: #aaa; stroke-width: 1.41421;" x1="356.32444302846045" y1="382.4475566749613" x2="389.6980322684673" y2="412.248333705247"></line><line style="stroke: #aaa; stroke-width: 1.41421;" x1="386.2513838078317" y1="383.72513455330943" x2="356.94461174816905" y2="409.6863378528308"></line><line style="stroke: #aaa; stroke-width: 1;" x1="386.2513838078317" y1="383.72513455330943" x2="414.732784262588" y2="387.21434338108844"></line><line style="stroke: #aaa; stroke-width: 1;" x1="386.2513838078317" y1="383.72513455330943" x2="389.6980322684673" y2="412.248333705247"></line><line style="stroke: #aaa; stroke-width: 1.41421;" x1="386.2513838078317" y1="383.72513455330943" x2="422.0000064413306" y2="419.5809163169681"></line><line style="stroke: #aaa; stroke-width: 1.41421;" x1="414.732784262588" y1="387.21434338108844" x2="389.6980322684673" y2="412.248333705247"></line><line style="stroke: #aaa; stroke-width: 1;" x1="414.732784262588" y1="387.21434338108844" x2="439.1838480499241" y2="391.8610484067998"></line><line style="stroke: #aaa; stroke-width: 1;" x1="414.732784262588" y1="387.21434338108844" x2="422.0000064413306" y2="419.5809163169681"></line><line style="stroke: #aaa; stroke-width: 1.41421;" x1="414.732784262588" y1="387.21434338108844" x2="451.2946183300185" y2="429.90490079018736"></line><line style="stroke: #aaa; stroke-width: 1.41421;" x1="439.1838480499241" y1="391.8610484067998" x2="422.0000064413306" y2="419.5809163169681"></line><line style="stroke: #aaa; stroke-width: 1;" x1="439.1838480499241" y1="391.8610484067998" x2="456.4885313575783" y2="395.9696659025464"></line><line style="stroke: #aaa; stroke-width: 1;" x1="439.1838480499241" y1="391.8610484067998" x2="451.2946183300185" y2="429.90490079018736"></line><line style="stroke: #aaa; stroke-width: 1.41421;" x1="439.1838480499241" y1="391.8610484067998" x2="473.321248029278" y2="439.67103745691793"></line><line style="stroke: #aaa; stroke-width: 1.41421;" x1="456.4885313575783" y1="395.9696659025464" x2="451.2946183300185" y2="429.90490079018736"></line><line style="stroke: #aaa; stroke-width: 1;" x1="456.4885313575783" y1="395.9696659025464" x2="463.79603410267464" y2="397.7876113427659"></line><line style="stroke: #aaa; stroke-width: 1;" x1="456.4885313575783" y1="395.9696659025464" x2="473.321248029278" y2="439.67103745691793"></line><line style="stroke: #aaa; stroke-width: 1.41421;" x1="456.4885313575783" y1="395.9696659025464" x2="483.0501448197072" y2="444.3899434930059"></line><line style="stroke: #aaa; stroke-width: 1.41421;" x1="463.79603410267464" y1="397.7876113427659" x2="473.321248029278" y2="439.67103745691793"></line><line style="stroke: #aaa; stroke-width: 1;" x1="240.66069677074194" y1="444.3899434930059" x2="249.3574990496953" y2="439.67103745691793"></line><line style="stroke: #aaa; stroke-width: 1;" x1="240.66069677074194" y1="444.3899434930059" x2="213.38999333865215" y2="501.3816210311218"></line><line style="stroke: #aaa; stroke-width: 1.41421;" x1="240.66069677074194" y1="444.3899434930059" x2="226.90374334495027" y2="489.89254025361475"></line><line style="stroke: #aaa; stroke-width: 1.41421;" x1="249.3574990496953" y1="439.67103745691793" x2="213.38999333865215" y2="501.3816210311218"></line><line style="stroke: #aaa; stroke-width: 1;" x1="249.3574990496953" y1="439.67103745691793" x2="268.66785055748574" y2="429.90490079018736"></line><line style="stroke: #aaa; stroke-width: 1;" x1="249.3574990496953" y1="439.67103745691793" x2="226.90374334495027" y2="489.89254025361475"></line><line style="stroke: #aaa; stroke-width: 1.41421;" x1="249.3574990496953" y1="439.67103745691793" x2="254.23828767465716" y2="468.9702074677451"></line><line style="stroke: #aaa; stroke-width: 1.41421;" x1="268.66785055748574" y1="429.90490079018736" x2="226.90374334495027" y2="489.89254025361475"></line><line style="stroke: #aaa; stroke-width: 1;" x1="268.66785055748574" y1="429.90490079018736" x2="294.9193796597603" y2="419.5809163169681"></line><line style="stroke: #aaa; stroke-width: 1;" x1="268.66785055748574" y1="429.90490079018736" x2="254.23828767465716" y2="468.9702074677451"></line><line style="stroke: #aaa; stroke-width: 1.41421;" x1="268.66785055748574" y1="429.90490079018736" x2="287.7281585496094" y2="448.9636874977051"></line><line style="stroke: #aaa; stroke-width: 1.41421;" x1="294.9193796597603" y1="419.5809163169681" x2="254.23828767465716" y2="468.9702074677451"></line><line style="stroke: #aaa; stroke-width: 1;" x1="294.9193796597603" y1="419.5809163169681" x2="324.98768242671224" y2="412.248333705247"></line><line style="stroke: #aaa; stroke-width: 1;" x1="294.9193796597603" y1="419.5809163169681" x2="287.7281585496094" y2="448.9636874977051"></line><line style="stroke: #aaa; stroke-width: 1.41421;" x1="294.9193796597603" y1="419.5809163169681" x2="322.2782443314165" y2="436.7541166377031"></line><line style="stroke: #aaa; stroke-width: 1.41421;" x1="324.98768242671224" y1="412.248333705247" x2="287.7281585496094" y2="448.9636874977051"></line><line style="stroke: #aaa; stroke-width: 1;" x1="324.98768242671224" y1="412.248333705247" x2="356.94461174816905" y2="409.6863378528308"></line><line style="stroke: #aaa; stroke-width: 1;" x1="324.98768242671224" y1="412.248333705247" x2="322.2782443314165" y2="436.7541166377031"></line><line style="stroke: #aaa; stroke-width: 1.41421;" x1="324.98768242671224" y1="412.248333705247" x2="357.7114625302597" y2="432.6933798119955"></line><line style="stroke: #aaa; stroke-width: 1.41421;" x1="356.94461174816905" y1="409.6863378528308" x2="322.2782443314165" y2="436.7541166377031"></line><line style="stroke: #aaa; stroke-width: 1;" x1="356.94461174816905" y1="409.6863378528308" x2="389.6980322684673" y2="412.248333705247"></line><line style="stroke: #aaa; stroke-width: 1;" x1="356.94461174816905" y1="409.6863378528308" x2="357.7114625302597" y2="432.6933798119955"></line><line style="stroke: #aaa; stroke-width: 1.41421;" x1="356.94461174816905" y1="409.6863378528308" x2="394.2900168327805" y2="436.7541166377031"></line><line style="stroke: #aaa; stroke-width: 1.41421;" x1="389.6980322684673" y1="412.248333705247" x2="357.7114625302597" y2="432.6933798119955"></line><line style="stroke: #aaa; stroke-width: 1;" x1="389.6980322684673" y1="412.248333705247" x2="422.0000064413306" y2="419.5809163169681"></line><line style="stroke: #aaa; stroke-width: 1;" x1="389.6980322684673" y1="412.248333705247" x2="394.2900168327805" y2="436.7541166377031"></line><line style="stroke: #aaa; stroke-width: 1.41421;" x1="389.6980322684673" y1="412.248333705247" x2="432.23507034858085" y2="448.9636874977051"></line><line style="stroke: #aaa; stroke-width: 1.41421;" x1="422.0000064413306" y1="419.5809163169681" x2="394.2900168327805" y2="436.7541166377031"></line><line style="stroke: #aaa; stroke-width: 1;" x1="422.0000064413306" y1="419.5809163169681" x2="451.2946183300185" y2="429.90490079018736"></line><line style="stroke: #aaa; stroke-width: 1;" x1="422.0000064413306" y1="419.5809163169681" x2="432.23507034858085" y2="448.9636874977051"></line><line style="stroke: #aaa; stroke-width: 1.41421;" x1="422.0000064413306" y1="419.5809163169681" x2="471.1438174141245" y2="468.9709674783807"></line><line style="stroke: #aaa; stroke-width: 1.41421;" x1="451.2946183300185" y1="429.90490079018736" x2="432.23507034858085" y2="448.9636874977051"></line><line style="stroke: #aaa; stroke-width: 1;" x1="451.2946183300185" y1="429.90490079018736" x2="473.321248029278" y2="439.67103745691793"></line><line style="stroke: #aaa; stroke-width: 1;" x1="451.2946183300185" y1="429.90490079018736" x2="471.1438174141245" y2="468.9709674783807"></line><line style="stroke: #aaa; stroke-width: 1.41421;" x1="451.2946183300185" y1="429.90490079018736" x2="503.98159912055957" y2="489.89254025361475"></line><line style="stroke: #aaa; stroke-width: 1.41421;" x1="473.321248029278" y1="439.67103745691793" x2="471.1438174141245" y2="468.9709674783807"></line><line style="stroke: #aaa; stroke-width: 1;" x1="473.321248029278" y1="439.67103745691793" x2="483.0501448197072" y2="444.3899434930059"></line><line style="stroke: #aaa; stroke-width: 1;" x1="473.321248029278" y1="439.67103745691793" x2="503.98159912055957" y2="489.89254025361475"></line><line style="stroke: #aaa; stroke-width: 1.41421;" x1="473.321248029278" y1="439.67103745691793" x2="520.264068055655" y2="501.3816210311218"></line><line style="stroke: #aaa; stroke-width: 1.41421;" x1="483.0501448197072" y1="444.3899434930059" x2="503.98159912055957" y2="489.89254025361475"></line><line style="stroke: #aaa; stroke-width: 1;" x1="213.38999333865215" y1="501.3816210311218" x2="226.90374334495027" y2="489.89254025361475"></line><line style="stroke: #aaa; stroke-width: 1;" x1="213.38999333865215" y1="501.3816210311218" x2="163.152526988823" y2="581.940468366798"></line><line style="stroke: #aaa; stroke-width: 1.41421;" x1="213.38999333865215" y1="501.3816210311218" x2="189.13653232965459" y2="553.4058690553273"></line><line style="stroke: #aaa; stroke-width: 1.41421;" x1="226.90374334495027" y1="489.89254025361475" x2="163.152526988823" y2="581.940468366798"></line><line style="stroke: #aaa; stroke-width: 1;" x1="226.90374334495027" y1="489.89254025361475" x2="254.23828767465716" y2="468.9702074677451"></line><line style="stroke: #aaa; stroke-width: 1;" x1="226.90374334495027" y1="489.89254025361475" x2="189.13653232965459" y2="553.4058690553273"></line><line style="stroke: #aaa; stroke-width: 1.41421;" x1="226.90374334495027" y1="489.89254025361475" x2="238.97955313349254" y2="501.9683492417612"></line><line style="stroke: #aaa; stroke-width: 1.41421;" x1="254.23828767465716" y1="468.9702074677451" x2="189.13653232965459" y2="553.4058690553273"></line><line style="stroke: #aaa; stroke-width: 1;" x1="254.23828767465716" y1="468.9702074677451" x2="287.7281585496094" y2="448.9636874977051"></line><line style="stroke: #aaa; stroke-width: 1;" x1="254.23828767465716" y1="468.9702074677451" x2="238.97955313349254" y2="501.9683492417612"></line><line style="stroke: #aaa; stroke-width: 1.41421;" x1="254.23828767465716" y1="468.9702074677451" x2="280.75658052768864" y2="471.0685968324799"></line><line style="stroke: #aaa; stroke-width: 1.41421;" x1="287.7281585496094" y1="448.9636874977051" x2="238.97955313349254" y2="501.9683492417612"></line><line style="stroke: #aaa; stroke-width: 1;" x1="287.7281585496094" y1="448.9636874977051" x2="322.2782443314165" y2="436.7541166377031"></line><line style="stroke: #aaa; stroke-width: 1;" x1="287.7281585496094" y1="448.9636874977051" x2="280.75658052768864" y2="471.0685968324799"></line><line style="stroke: #aaa; stroke-width: 1.41421;" x1="287.7281585496094" y1="448.9636874977051" x2="319.72232839467614" y2="454.1028794152483"></line><line style="stroke: #aaa; stroke-width: 1.41421;" x1="322.2782443314165" y1="436.7541166377031" x2="280.75658052768864" y2="471.0685968324799"></line><line style="stroke: #aaa; stroke-width: 1;" x1="322.2782443314165" y1="436.7541166377031" x2="357.7114625302597" y2="432.6933798119955"></line><line style="stroke: #aaa; stroke-width: 1;" x1="322.2782443314165" y1="436.7541166377031" x2="319.72232839467614" y2="454.1028794152483"></line><line style="stroke: #aaa; stroke-width: 1.41421;" x1="322.2782443314165" y1="436.7541166377031" x2="358.2966707584162" y2="448.6984437859004"></line><line style="stroke: #aaa; stroke-width: 1.41421;" x1="357.7114625302597" y1="432.6933798119955" x2="319.72232839467614" y2="454.1028794152483"></line><line style="stroke: #aaa; stroke-width: 1;" x1="357.7114625302597" y1="432.6933798119955" x2="394.2900168327805" y2="436.7541166377031"></line><line style="stroke: #aaa; stroke-width: 1;" x1="357.7114625302597" y1="432.6933798119955" x2="358.2966707584162" y2="448.6984437859004"></line><line style="stroke: #aaa; stroke-width: 1.41421;" x1="357.7114625302597" y1="432.6933798119955" x2="398.354553981067" y2="454.1028794152483"></line><line style="stroke: #aaa; stroke-width: 1.41421;" x1="394.2900168327805" y1="436.7541166377031" x2="358.2966707584162" y2="448.6984437859004"></line><line style="stroke: #aaa; stroke-width: 1;" x1="394.2900168327805" y1="436.7541166377031" x2="432.23507034858085" y2="448.9636874977051"></line><line style="stroke: #aaa; stroke-width: 1;" x1="394.2900168327805" y1="436.7541166377031" x2="398.354553981067" y2="454.1028794152483"></line><line style="stroke: #aaa; stroke-width: 1.41421;" x1="394.2900168327805" y1="436.7541166377031" x2="441.9221665512846" y2="471.0685968324799"></line><line style="stroke: #aaa; stroke-width: 1.41421;" x1="432.23507034858085" y1="448.9636874977051" x2="398.354553981067" y2="454.1028794152483"></line><line style="stroke: #aaa; stroke-width: 1;" x1="432.23507034858085" y1="448.9636874977051" x2="471.1438174141245" y2="468.9709674783807"></line><line style="stroke: #aaa; stroke-width: 1;" x1="432.23507034858085" y1="448.9636874977051" x2="441.9221665512846" y2="471.0685968324799"></line><line style="stroke: #aaa; stroke-width: 1.41421;" x1="432.23507034858085" y1="448.9636874977051" x2="491.9050293213314" y2="501.9683492417612"></line><line style="stroke: #aaa; stroke-width: 1.41421;" x1="471.1438174141245" y1="468.9709674783807" x2="441.9221665512846" y2="471.0685968324799"></line><line style="stroke: #aaa; stroke-width: 1;" x1="471.1438174141245" y1="468.9709674783807" x2="503.98159912055957" y2="489.89254025361475"></line><line style="stroke: #aaa; stroke-width: 1;" x1="471.1438174141245" y1="468.9709674783807" x2="491.9050293213314" y2="501.9683492417612"></line><line style="stroke: #aaa; stroke-width: 1.41421;" x1="471.1438174141245" y1="468.9709674783807" x2="555.0322769043205" y2="553.4058690553273"></line><line style="stroke: #aaa; stroke-width: 1.41421;" x1="503.98159912055957" y1="489.89254025361475" x2="491.9050293213314" y2="501.9683492417612"></line><line style="stroke: #aaa; stroke-width: 1;" x1="503.98159912055957" y1="489.89254025361475" x2="520.264068055655" y2="501.3816210311218"></line><line style="stroke: #aaa; stroke-width: 1;" x1="503.98159912055957" y1="489.89254025361475" x2="555.0322769043205" y2="553.4058690553273"></line><line style="stroke: #aaa; stroke-width: 1.41421;" x1="503.98159912055957" y1="489.89254025361475" x2="588.1953431843282" y2="581.940468366798"></line><line style="stroke: #aaa; stroke-width: 1.41421;" x1="520.264068055655" y1="501.3816210311218" x2="555.0322769043205" y2="553.4058690553273"></line><line style="stroke: #aaa; stroke-width: 1;" x1="163.152526988823" y1="581.940468366798" x2="189.13653232965459" y2="553.4058690553273"></line><line style="stroke: #aaa; stroke-width: 1;" x1="163.152526988823" y1="581.940468366798" x2="20.00000038760545" y2="780"></line><line style="stroke: #aaa; stroke-width: 1.41421;" x1="163.152526988823" y1="581.940468366798" x2="167.9899950046876" y2="586.7779360620306"></line><line style="stroke: #aaa; stroke-width: 1.41421;" x1="189.13653232965459" y1="553.4058690553273" x2="20.00000038760545" y2="780"></line><line style="stroke: #aaa; stroke-width: 1;" x1="189.13653232965459" y1="553.4058690553273" x2="238.97955313349254" y2="501.9683492417612"></line><line style="stroke: #aaa; stroke-width: 1;" x1="189.13653232965459" y1="553.4058690553273" x2="167.9899950046876" y2="586.7779360620306"></line><line style="stroke: #aaa; stroke-width: 1.41421;" x1="189.13653232965459" y1="553.4058690553273" x2="230.34051166666893" y2="518.331378225007"></line><line style="stroke: #aaa; stroke-width: 1.41421;" x1="238.97955313349254" y1="501.9683492417612" x2="167.9899950046876" y2="586.7779360620306"></line><line style="stroke: #aaa; stroke-width: 1;" x1="238.97955313349254" y1="501.9683492417612" x2="280.75658052768864" y2="471.0685968324799"></line><line style="stroke: #aaa; stroke-width: 1;" x1="238.97955313349254" y1="501.9683492417612" x2="230.34051166666893" y2="518.331378225007"></line><line style="stroke: #aaa; stroke-width: 1.41421;" x1="238.97955313349254" y1="501.9683492417612" x2="277.09940910705393" y2="480.8278934034907"></line><line style="stroke: #aaa; stroke-width: 1.41421;" x1="280.75658052768864" y1="471.0685968324799" x2="230.34051166666893" y2="518.331378225007"></line><line style="stroke: #aaa; stroke-width: 1;" x1="280.75658052768864" y1="471.0685968324799" x2="319.72232839467614" y2="454.1028794152483"></line><line style="stroke: #aaa; stroke-width: 1;" x1="280.75658052768864" y1="471.0685968324799" x2="277.09940910705393" y2="480.8278934034907"></line><line style="stroke: #aaa; stroke-width: 1.41421;" x1="280.75658052768864" y1="471.0685968324799" x2="318.2988283799528" y2="461.4210218248942"></line><line style="stroke: #aaa; stroke-width: 1.41421;" x1="319.72232839467614" y1="454.1028794152483" x2="277.09940910705393" y2="480.8278934034907"></line><line style="stroke: #aaa; stroke-width: 1;" x1="319.72232839467614" y1="454.1028794152483" x2="358.2966707584162" y2="448.6984437859004"></line><line style="stroke: #aaa; stroke-width: 1;" x1="319.72232839467614" y1="454.1028794152483" x2="318.2988283799528" y2="461.4210218248942"></line><line style="stroke: #aaa; stroke-width: 1.41421;" x1="319.72232839467614" y1="454.1028794152483" x2="358.399272201015" y2="455.34929685753923"></line><line style="stroke: #aaa; stroke-width: 1.41421;" x1="358.2966707584162" y1="448.6984437859004" x2="318.2988283799528" y2="461.4210218248942"></line><line style="stroke: #aaa; stroke-width: 1;" x1="358.2966707584162" y1="448.6984437859004" x2="398.354553981067" y2="454.1028794152483"></line><line style="stroke: #aaa; stroke-width: 1;" x1="358.2966707584162" y1="448.6984437859004" x2="358.399272201015" y2="455.34929685753923"></line><line style="stroke: #aaa; stroke-width: 1.41421;" x1="358.2966707584162" y1="448.6984437859004" x2="400.16109938149276" y2="461.4210218248942"></line><line style="stroke: #aaa; stroke-width: 1.41421;" x1="398.354553981067" y1="454.1028794152483" x2="358.399272201015" y2="455.34929685753923"></line><line style="stroke: #aaa; stroke-width: 1;" x1="398.354553981067" y1="454.1028794152483" x2="441.9221665512846" y2="471.0685968324799"></line><line style="stroke: #aaa; stroke-width: 1;" x1="398.354553981067" y1="454.1028794152483" x2="400.16109938149276" y2="461.4210218248942"></line><line style="stroke: #aaa; stroke-width: 1.41421;" x1="398.354553981067" y1="454.1028794152483" x2="446.6114324833953" y2="480.8278934034907"></line><line style="stroke: #aaa; stroke-width: 1.41421;" x1="441.9221665512846" y1="471.0685968324799" x2="400.16109938149276" y2="461.4210218248942"></line><line style="stroke: #aaa; stroke-width: 1;" x1="441.9221665512846" y1="471.0685968324799" x2="491.9050293213314" y2="501.9683492417612"></line><line style="stroke: #aaa; stroke-width: 1;" x1="441.9221665512846" y1="471.0685968324799" x2="446.6114324833953" y2="480.8278934034907"></line><line style="stroke: #aaa; stroke-width: 1.41421;" x1="441.9221665512846" y1="471.0685968324799" x2="503.31354972763813" y2="518.331378225007"></line><line style="stroke: #aaa; stroke-width: 1.41421;" x1="491.9050293213314" y1="501.9683492417612" x2="446.6114324833953" y2="480.8278934034907"></line><line style="stroke: #aaa; stroke-width: 1;" x1="491.9050293213314" y1="501.9683492417612" x2="555.0322769043205" y2="553.4058690553273"></line><line style="stroke: #aaa; stroke-width: 1;" x1="491.9050293213314" y1="501.9683492417612" x2="503.31354972763813" y2="518.331378225007"></line><line style="stroke: #aaa; stroke-width: 1.41421;" x1="491.9050293213314" y1="501.9683492417612" x2="583.3578751684637" y2="586.7779360620306"></line><line style="stroke: #aaa; stroke-width: 1.41421;" x1="555.0322769043205" y1="553.4058690553273" x2="503.31354972763813" y2="518.331378225007"></line><line style="stroke: #aaa; stroke-width: 1;" x1="555.0322769043205" y1="553.4058690553273" x2="588.1953431843282" y2="581.940468366798"></line><line style="stroke: #aaa; stroke-width: 1;" x1="555.0322769043205" y1="553.4058690553273" x2="583.3578751684637" y2="586.7779360620306"></line><line style="stroke: #aaa; stroke-width: 1.41421;" x1="555.0322769043205" y1="553.4058690553273" x2="780" y2="780"></line><line style="stroke: #aaa; stroke-width: 1.41421;" x1="588.1953431843282" y1="581.940468366798" x2="583.3578751684637" y2="586.7779360620306"></line><line style="stroke: #aaa; stroke-width: 1;" x1="780" y1="20.000003959655412" x2="588.1953431843282" y2="166.57565577653241"></line><line style="stroke: #aaa; stroke-width: 1;" x1="588.1953431843282" y1="166.57565577653241" x2="520.2633080449691" y2="228.41088109496542"></line><line style="stroke: #aaa; stroke-width: 1;" x1="520.2633080449691" y1="228.41088109496542" x2="483.0501448197072" y2="274.8802113839853"></line><line style="stroke: #aaa; stroke-width: 1;" x1="483.0501448197072" y1="274.8802113839853" x2="463.79603410267464" y2="315.92686578840426"></line><line style="stroke: #aaa; stroke-width: 1;" x1="463.79603410267464" y1="315.92686578840426" x2="457.772189406093" y2="355.9786662708971"></line><line style="stroke: #aaa; stroke-width: 1;" x1="457.772189406093" y1="355.9786662708971" x2="463.79603410267464" y2="397.7876113427659"></line><line style="stroke: #aaa; stroke-width: 1;" x1="463.79603410267464" y1="397.7876113427659" x2="483.0501448197072" y2="444.3899434930059"></line><line style="stroke: #aaa; stroke-width: 1;" x1="483.0501448197072" y1="444.3899434930059" x2="520.264068055655" y2="501.3816210311218"></line><line style="stroke: #aaa; stroke-width: 1;" x1="520.264068055655" y1="501.3816210311218" x2="588.1953431843282" y2="581.940468366798"></line><line style="stroke: #aaa; stroke-width: 1;" x1="588.1953431843282" y1="581.940468366798" x2="780" y2="780"></line><line style="stroke: #aaa; stroke-width: 1;" x1="20.00000038760545" y1="780" x2="167.9899950046876" y2="586.7779360620306"></line><line style="stroke: #aaa; stroke-width: 1;" x1="167.9899950046876" y1="586.7779360620306" x2="230.34051166666893" y2="518.331378225007"></line><line style="stroke: #aaa; stroke-width: 1;" x1="230.34051166666893" y1="518.331378225007" x2="277.09940910705393" y2="480.8278934034907"></line><line style="stroke: #aaa; stroke-width: 1;" x1="277.09940910705393" y1="480.8278934034907" x2="318.2988283799528" y2="461.4210218248942"></line><line style="stroke: #aaa; stroke-width: 1;" x1="318.2988283799528" y1="461.4210218248942" x2="358.399272201015" y2="455.34929685753923"></line><line style="stroke: #aaa; stroke-width: 1;" x1="358.399272201015" y1="455.34929685753923" x2="400.16109938149276" y2="461.4210218248942"></line><line style="stroke: #aaa; stroke-width: 1;" x1="400.16109938149276" y1="461.4210218248942" x2="446.6114324833953" y2="480.8278934034907"></line><line style="stroke: #aaa; stroke-width: 1;" x1="446.6114324833953" y1="480.8278934034907" x2="503.31354972763813" y2="518.331378225007"></line><line style="stroke: #aaa; stroke-width: 1;" x1="503.31354972763813" y1="518.331378225007" x2="583.3578751684637" y2="586.7779360620306"></line><line style="stroke: #aaa; stroke-width: 1;" x1="583.3578751684637" y1="586.7779360620306" x2="780" y2="780"></line><circle r="10" cx="20" cy="20" style="stroke: #000; fill: #69b3a2;"></circle><circle r="10" cx="167.9899950046876" cy="161.73742807066418" style="stroke: #000; fill: #69b3a2;"></circle><circle r="10" cx="230.33975165598304" cy="211.46112390108024" style="stroke: #000; fill: #69b3a2;"></circle><circle r="10" cx="277.09940910705393" cy="238.44226147350057" style="stroke: #000; fill: #69b3a2;"></circle><circle r="10" cx="318.2988283799528" cy="252.29269529564044" style="stroke: #000; fill: #69b3a2;"></circle><circle r="10" cx="358.399272201015" cy="256.60727567361937" style="stroke: #000; fill: #69b3a2;"></circle><circle r="10" cx="400.16109938149276" cy="252.29269529564044" style="stroke: #000; fill: #69b3a2;"></circle><circle r="10" cx="446.6106724727093" cy="238.44226147350057" style="stroke: #000; fill: #69b3a2;"></circle><circle r="10" cx="503.31354972763813" cy="211.46112390108024" style="stroke: #000; fill: #69b3a2;"></circle><circle r="10" cx="583.3571151577777" cy="161.73818808129974" style="stroke: #000; fill: #69b3a2;"></circle><circle r="10" cx="780" cy="20.000003959655412" style="stroke: #000; fill: #69b3a2;"></circle><circle r="10" cx="163.152526988823" cy="166.57565577653241" style="stroke: #000; fill: #69b3a2;"></circle><circle r="10" cx="189.13653232965459" cy="187.51318877511295" style="stroke: #000; fill: #69b3a2;"></circle><circle r="10" cx="238.97955313349254" cy="224.89355187367136" style="stroke: #000; fill: #69b3a2;"></circle><circle r="10" cx="280.75582051700275" cy="247.1094227612356" style="stroke: #000; fill: #69b3a2;"></circle><circle r="10" cx="319.7215683839902" cy="259.20499202590617" style="stroke: #000; fill: #69b3a2;"></circle><circle r="10" cx="358.2959107477303" cy="263.0400056928573" style="stroke: #000; fill: #69b3a2;"></circle><circle r="10" cx="398.35379397038105" cy="259.20499202590617" style="stroke: #000; fill: #69b3a2;"></circle><circle r="10" cx="441.9221665512846" cy="247.1094227612356" style="stroke: #000; fill: #69b3a2;"></circle><circle r="10" cx="491.9050293213314" cy="224.89355187367136" style="stroke: #000; fill: #69b3a2;"></circle><circle r="10" cx="555.0322769043205" cy="187.51318877511295" style="stroke: #000; fill: #69b3a2;"></circle><circle r="10" cx="588.1953431843282" cy="166.57565577653241" style="stroke: #000; fill: #69b3a2;"></circle><circle r="10" cx="213.38999333865215" cy="228.41088109496542" style="stroke: #000; fill: #69b3a2;"></circle><circle r="10" cx="226.90298333426432" cy="236.9693608618178" style="stroke: #000; fill: #69b3a2;"></circle><circle r="10" cx="254.23828767465716" cy="252.0677321475196" style="stroke: #000; fill: #69b3a2;"></circle><circle r="10" cx="287.7273985389235" cy="266.339971872386" style="stroke: #000; fill: #69b3a2;"></circle><circle r="10" cx="322.2774843207306" cy="274.9569724581752" style="stroke: #000; fill: #69b3a2;"></circle><circle r="10" cx="357.7107025195738" cy="277.8062523308268" style="stroke: #000; fill: #69b3a2;"></circle><circle r="10" cx="394.2892568220946" cy="274.9569724581752" style="stroke: #000; fill: #69b3a2;"></circle><circle r="10" cx="432.23507034858085" cy="266.339971872386" style="stroke: #000; fill: #69b3a2;"></circle><circle r="10" cx="471.14305740343855" cy="252.06849215815518" style="stroke: #000; fill: #69b3a2;"></circle><circle r="10" cx="503.9808391098737" cy="236.9693608618178" style="stroke: #000; fill: #69b3a2;"></circle><circle r="10" cx="520.2633080449691" cy="228.41088109496542" style="stroke: #000; fill: #69b3a2;"></circle><circle r="10" cx="240.66069677074194" cy="274.8802113839853" style="stroke: #000; fill: #69b3a2;"></circle><circle r="10" cx="249.3574990496953" cy="278.5069821367976" style="stroke: #000; fill: #69b3a2;"></circle><circle r="10" cx="268.66785055748574" cy="285.39951859053923" style="stroke: #000; fill: #69b3a2;"></circle><circle r="10" cx="294.9193796597603" cy="292.50257799032624" style="stroke: #000; fill: #69b3a2;"></circle><circle r="10" cx="324.98768242671224" cy="297.47152752550795" style="stroke: #000; fill: #69b3a2;"></circle><circle r="10" cx="356.94461174816905" cy="299.19143159374227" style="stroke: #000; fill: #69b3a2;"></circle><circle r="10" cx="389.6972722577814" cy="297.47152752550795" style="stroke: #000; fill: #69b3a2;"></circle><circle r="10" cx="421.99924643064475" cy="292.50333800096183" style="stroke: #000; fill: #69b3a2;"></circle><circle r="10" cx="451.2946183300185" cy="285.39951859053923" style="stroke: #000; fill: #69b3a2;"></circle><circle r="10" cx="473.3204880185921" cy="278.5069821367976" style="stroke: #000; fill: #69b3a2;"></circle><circle r="10" cx="483.0501448197072" cy="274.8802113839853" style="stroke: #000; fill: #69b3a2;"></circle><circle r="10" cx="254.6638936587709" cy="315.9261057777687" style="stroke: #000; fill: #69b3a2;"></circle><circle r="10" cx="261.5875910074788" cy="317.33820553860807" style="stroke: #000; fill: #69b3a2;"></circle><circle r="10" cx="277.38365310358705" cy="319.8500406890784" style="stroke: #000; fill: #69b3a2;"></circle><circle r="10" cx="299.95293043259153" cy="322.5055178496665" style="stroke: #000; fill: #69b3a2;"></circle><circle r="10" cx="326.95155003912294" cy="324.42682473631976" style="stroke: #000; fill: #69b3a2;"></circle><circle r="10" cx="356.32444302846045" cy="325.1169143933931" style="stroke: #000; fill: #69b3a2;"></circle><circle r="10" cx="386.2513838078317" cy="324.42682473631976" style="stroke: #000; fill: #69b3a2;"></circle><circle r="10" cx="414.732784262588" cy="322.5055178496665" style="stroke: #000; fill: #69b3a2;"></circle><circle r="10" cx="439.1838480499241" cy="319.85080069971394" style="stroke: #000; fill: #69b3a2;"></circle><circle r="10" cx="456.4885313575783" cy="317.33820553860807" style="stroke: #000; fill: #69b3a2;"></circle><circle r="10" cx="463.79603410267464" cy="315.92686578840426" style="stroke: #000; fill: #69b3a2;"></circle><circle r="10" cx="259.026354995937" cy="355.97790626026153" style="stroke: #000; fill: #69b3a2;"></circle><circle r="10" cx="265.4651655270296" cy="355.8692247393789" style="stroke: #000; fill: #69b3a2;"></circle><circle r="10" cx="280.265613624586" cy="355.24981607141115" style="stroke: #000; fill: #69b3a2;"></circle><circle r="10" cx="301.6956349354002" cy="354.4388847232865" style="stroke: #000; fill: #69b3a2;"></circle><circle r="10" cx="327.6583599770261" cy="353.7822355341772" style="stroke: #000; fill: #69b3a2;"></circle><circle r="10" cx="356.088839715826" cy="353.5329520457189" style="stroke: #000; fill: #69b3a2;"></circle><circle r="10" cx="384.99052607989466" cy="353.7822355341772" style="stroke: #000; fill: #69b3a2;"></circle><circle r="10" cx="412.1935885609377" cy="354.4388847232865" style="stroke: #000; fill: #69b3a2;"></circle><circle r="10" cx="435.1557914145615" cy="355.24981607141115" style="stroke: #000; fill: #69b3a2;"></circle><circle r="10" cx="451.1281759898027" cy="355.8692247393789" style="stroke: #000; fill: #69b3a2;"></circle><circle r="10" cx="457.772189406093" cy="355.9786662708971" style="stroke: #000; fill: #69b3a2;"></circle><circle r="10" cx="254.6638936587709" cy="397.7876113427659" style="stroke: #000; fill: #69b3a2;"></circle><circle r="10" cx="261.5875910074788" cy="395.9696659025464" style="stroke: #000; fill: #69b3a2;"></circle><circle r="10" cx="277.38365310358705" cy="391.8610484067998" style="stroke: #000; fill: #69b3a2;"></circle><circle r="10" cx="299.95293043259153" cy="387.21434338108844" style="stroke: #000; fill: #69b3a2;"></circle><circle r="10" cx="326.95155003912294" cy="383.72513455330943" style="stroke: #000; fill: #69b3a2;"></circle><circle r="10" cx="356.32444302846045" cy="382.4475566749613" style="stroke: #000; fill: #69b3a2;"></circle><circle r="10" cx="386.2513838078317" cy="383.72513455330943" style="stroke: #000; fill: #69b3a2;"></circle><circle r="10" cx="414.732784262588" cy="387.21434338108844" style="stroke: #000; fill: #69b3a2;"></circle><circle r="10" cx="439.1838480499241" cy="391.8610484067998" style="stroke: #000; fill: #69b3a2;"></circle><circle r="10" cx="456.4885313575783" cy="395.9696659025464" style="stroke: #000; fill: #69b3a2;"></circle><circle r="10" cx="463.79603410267464" cy="397.7876113427659" style="stroke: #000; fill: #69b3a2;"></circle><circle r="10" cx="240.66069677074194" cy="444.3899434930059" style="stroke: #000; fill: #69b3a2;"></circle><circle r="10" cx="249.3574990496953" cy="439.67103745691793" style="stroke: #000; fill: #69b3a2;"></circle><circle r="10" cx="268.66785055748574" cy="429.90490079018736" style="stroke: #000; fill: #69b3a2;"></circle><circle r="10" cx="294.9193796597603" cy="419.5809163169681" style="stroke: #000; fill: #69b3a2;"></circle><circle r="10" cx="324.98768242671224" cy="412.248333705247" style="stroke: #000; fill: #69b3a2;"></circle><circle r="10" cx="356.94461174816905" cy="409.6863378528308" style="stroke: #000; fill: #69b3a2;"></circle><circle r="10" cx="389.6980322684673" cy="412.248333705247" style="stroke: #000; fill: #69b3a2;"></circle><circle r="10" cx="422.0000064413306" cy="419.5809163169681" style="stroke: #000; fill: #69b3a2;"></circle><circle r="10" cx="451.2946183300185" cy="429.90490079018736" style="stroke: #000; fill: #69b3a2;"></circle><circle r="10" cx="473.321248029278" cy="439.67103745691793" style="stroke: #000; fill: #69b3a2;"></circle><circle r="10" cx="483.0501448197072" cy="444.3899434930059" style="stroke: #000; fill: #69b3a2;"></circle><circle r="10" cx="213.38999333865215" cy="501.3816210311218" style="stroke: #000; fill: #69b3a2;"></circle><circle r="10" cx="226.90374334495027" cy="489.89254025361475" style="stroke: #000; fill: #69b3a2;"></circle><circle r="10" cx="254.23828767465716" cy="468.9702074677451" style="stroke: #000; fill: #69b3a2;"></circle><circle r="10" cx="287.7281585496094" cy="448.9636874977051" style="stroke: #000; fill: #69b3a2;"></circle><circle r="10" cx="322.2782443314165" cy="436.7541166377031" style="stroke: #000; fill: #69b3a2;"></circle><circle r="10" cx="357.7114625302597" cy="432.6933798119955" style="stroke: #000; fill: #69b3a2;"></circle><circle r="10" cx="394.2900168327805" cy="436.7541166377031" style="stroke: #000; fill: #69b3a2;"></circle><circle r="10" cx="432.23507034858085" cy="448.9636874977051" style="stroke: #000; fill: #69b3a2;"></circle><circle r="10" cx="471.1438174141245" cy="468.9709674783807" style="stroke: #000; fill: #69b3a2;"></circle><circle r="10" cx="503.98159912055957" cy="489.89254025361475" style="stroke: #000; fill: #69b3a2;"></circle><circle r="10" cx="520.264068055655" cy="501.3816210311218" style="stroke: #000; fill: #69b3a2;"></circle><circle r="10" cx="163.152526988823" cy="581.940468366798" style="stroke: #000; fill: #69b3a2;"></circle><circle r="10" cx="189.13653232965459" cy="553.4058690553273" style="stroke: #000; fill: #69b3a2;"></circle><circle r="10" cx="238.97955313349254" cy="501.9683492417612" style="stroke: #000; fill: #69b3a2;"></circle><circle r="10" cx="280.75658052768864" cy="471.0685968324799" style="stroke: #000; fill: #69b3a2;"></circle><circle r="10" cx="319.72232839467614" cy="454.1028794152483" style="stroke: #000; fill: #69b3a2;"></circle><circle r="10" cx="358.2966707584162" cy="448.6984437859004" style="stroke: #000; fill: #69b3a2;"></circle><circle r="10" cx="398.354553981067" cy="454.1028794152483" style="stroke: #000; fill: #69b3a2;"></circle><circle r="10" cx="441.9221665512846" cy="471.0685968324799" style="stroke: #000; fill: #69b3a2;"></circle><circle r="10" cx="491.9050293213314" cy="501.9683492417612" style="stroke: #000; fill: #69b3a2;"></circle><circle r="10" cx="555.0322769043205" cy="553.4058690553273" style="stroke: #000; fill: #69b3a2;"></circle><circle r="10" cx="588.1953431843282" cy="581.940468366798" style="stroke: #000; fill: #69b3a2;"></circle><circle r="10" cx="20.00000038760545" cy="780" style="stroke: #000; fill: #69b3a2;"></circle><circle r="10" cx="167.9899950046876" cy="586.7779360620306" style="stroke: #000; fill: #69b3a2;"></circle><circle r="10" cx="230.34051166666893" cy="518.331378225007" style="stroke: #000; fill: #69b3a2;"></circle><circle r="10" cx="277.09940910705393" cy="480.8278934034907" style="stroke: #000; fill: #69b3a2;"></circle><circle r="10" cx="318.2988283799528" cy="461.4210218248942" style="stroke: #000; fill: #69b3a2;"></circle><circle r="10" cx="358.399272201015" cy="455.34929685753923" style="stroke: #000; fill: #69b3a2;"></circle><circle r="10" cx="400.16109938149276" cy="461.4210218248942" style="stroke: #000; fill: #69b3a2;"></circle><circle r="10" cx="446.6114324833953" cy="480.8278934034907" style="stroke: #000; fill: #69b3a2;"></circle><circle r="10" cx="503.31354972763813" cy="518.331378225007" style="stroke: #000; fill: #69b3a2;"></circle><circle r="10" cx="583.3578751684637" cy="586.7779360620306" style="stroke: #000; fill: #69b3a2;"></circle><circle r="10" cx="780" cy="780" style="stroke: #000; fill: #69b3a2;"></circle></svg>