<svg width="800" height="800" xmlns="http://www.w3.org/2000/svg"><line style="stroke: #aaa; stroke-width: 1;" x1="20.004608244909548" y1="20.00243923289433" x2="172.00095079679454" y2="20.001300883264477"></line><line style="stroke: #aaa; stroke-width: 1;" x1="20.004608244909548" y1="20.00243923289433" x2="20.001321677585587" y2="172.00058353220697"></line><line style="stroke: #aaa; stroke-width: 1.41421;" x1="20.004608244909548" y1="20.00243923289433" x2="172.00110279587284" y2="172.0014955292797"></line><line style="stroke: #aaa; stroke-width: 1.41421;" x1="172.00095079679454" y1="20.001300883264477" x2="20.001321677585587" y2="172.00058353220697"></line><line style="stroke: #aaa; stroke-width: 1;" x1="172.00095079679454" y1="20.001300883264477" x2="323.99820511280393" y2="20.000595154089698"></line><line style="stroke: #aaa; stroke-width: 1;" x1="172.00095079679454" y1="20.001300883264477" x2="172.00110279587284" y2="172.0014955292797"></line><line style="stroke: #aaa; stroke-width: 1.41421;" x1="172.00095079679454" y1="20.001300883264477" x2="323.9997251035869" y2="172.00058353220697"></line><line style="stroke: #aaa; stroke-width: 1.41421;" x1="323.99820511280393" y1="20.000595154089698" x2="172.00110279587284" y2="172.0014955292797"></line><line style="stroke: #aaa; stroke-width: 1;" x1="323.99820511280393" y1="20.000595154089698" x2="475.9972834177528" y2="20"></line><line style="stroke: #aaa; stroke-width: 1;" x1="323.99820511280393" y1="20.000595154089698" x2="323.9997251035869" y2="172.00058353220697"></line><line style="stroke: #aaa; stroke-width: 1.41421;" x1="323.99820511280393" y1="20.000595154089698" x2="475.9988034085358" y2="171.99951953562217"></line><line style="stroke: #aaa; stroke-width: 1.41421;" x1="475.9972834177528" y1="20" x2="323.9997251035869" y2="172.00058353220697"></line><line style="stroke: #aaa; stroke-width: 1;" x1="475.9972834177528" y1="20" x2="627.9978817134848" y2="20.000168795458208"></line><line style="stroke: #aaa; stroke-width: 1;" x1="475.9972834177528" y1="20" x2="475.9988034085358" y2="171.99951953562217"></line><line style="stroke: #aaa; stroke-width: 1.41421;" x1="475.9972834177528" y1="20" x2="627.9978817134848" y2="171.99936753611004"></line><line style="stroke: #aaa; stroke-width: 1.41421;" x1="627.9978817134848" y1="20.000168795458208" x2="475.9988034085358" y2="171.99951953562217"></line><line style="stroke: #aaa; stroke-width: 1;" x1="627.9978817134848" y1="20.000168795458208" x2="780" y2="20.002439405168644"></line><line style="stroke: #aaa; stroke-width: 1;" x1="627.9978817134848" y1="20.000168795458208" x2="627.9978817134848" y2="171.99936753611004"></line><line style="stroke: #aaa; stroke-width: 1.41421;" x1="627.9978817134848" y1="20.000168795458208" x2="779.9954400276508" y2="172.00073553171913"></line><line style="stroke: #aaa; stroke-width: 1.41421;" x1="780" y1="20.002439405168644" x2="627.9978817134848" y2="171.99936753611004"></line><line style="stroke: #aaa; stroke-width: 1;" x1="20.001321677585587" y1="172.00058353220697" x2="172.00110279587284" y2="172.0014955292797"></line><line style="stroke: #aaa; stroke-width: 1;" x1="20.001321677585587" y1="172.00058353220697" x2="20.000281243894587" y2="323.9999436507409"></line><line style="stroke: #aaa; stroke-width: 1.41421;" x1="20.001321677585587" y1="172.00058353220697" x2="171.9998868032464" y2="323.9999436507409"></line><line style="stroke: #aaa; stroke-width: 1.41421;" x1="172.00110279587284" y1="172.0014955292797" x2="20.000281243894587" y2="323.9999436507409"></line><line style="stroke: #aaa; stroke-width: 1;" x1="172.00110279587284" y1="172.0014955292797" x2="323.9997251035869" y2="172.00058353220697"></line><line style="stroke: #aaa; stroke-width: 1;" x1="172.00110279587284" y1="172.0014955292797" x2="171.9998868032464" y2="323.9999436507409"></line><line style="stroke: #aaa; stroke-width: 1.41421;" x1="172.00110279587284" y1="172.0014955292797" x2="323.9997251035869" y2="323.9999436507409"></line><line style="stroke: #aaa; stroke-width: 1.41421;" x1="323.9997251035869" y1="172.00058353220697" x2="171.9998868032464" y2="323.9999436507409"></line><line style="stroke: #aaa; stroke-width: 1;" x1="323.9997251035869" y1="172.00058353220697" x2="475.9988034085358" y2="171.99951953562217"></line><line style="stroke: #aaa; stroke-width: 1;" x1="323.9997251035869" y1="172.00058353220697" x2="323.9997251035869" y2="323.9999436507409"></line><line style="stroke: #aaa; stroke-width: 1.41421;" x1="323.9997251035869" y1="172.00058353220697" x2="475.9988034085358" y2="323.9999436507409"></line><line style="stroke: #aaa; stroke-width: 1.41421;" x1="475.9988034085358" y1="171.99951953562217" x2="323.9997251035869" y2="323.9999436507409"></line><line style="stroke: #aaa; stroke-width: 1;" x1="475.9988034085358" y1="171.99951953562217" x2="627.9978817134848" y2="171.99936753611004"></line><line style="stroke: #aaa; stroke-width: 1;" x1="475.9988034085358" y1="171.99951953562217" x2="475.9988034085358" y2="323.9999436507409"></line><line style="stroke: #aaa; stroke-width: 1.41421;" x1="475.9988034085358" y1="171.99951953562217" x2="627.9963617227019" y2="323.9999436507409"></line><line style="stroke: #aaa; stroke-width: 1.41421;" x1="627.9978817134848" y1="171.99936753611004" x2="475.9988034085358" y2="323.9999436507409"></line><line style="stroke: #aaa; stroke-width: 1;" x1="627.9978817134848" y1="171.99936753611004" x2="779.9954400276508" y2="172.00073553171913"></line><line style="stroke: #aaa; stroke-width: 1;" x1="627.9978817134848" y1="171.99936753611004" x2="627.9963617227019" y2="323.9999436507409"></line><line style="stroke: #aaa; stroke-width: 1.41421;" x1="627.9978817134848" y1="171.99936753611004" x2="779.9954400276508" y2="323.9999436507409"></line><line style="stroke: #aaa; stroke-width: 1.41421;" x1="779.9954400276508" y1="172.00073553171913" x2="627.9963617227019" y2="323.9999436507409"></line><line style="stroke: #aaa; stroke-width: 1;" x1="20.000281243894587" y1="323.9999436507409" x2="171.9998868032464" y2="323.9999436507409"></line><line style="stroke: #aaa; stroke-width: 1;" x1="20.000281243894587" y1="323.9999436507409" x2="20" y2="475.99945576878685"></line><line style="stroke: #aaa; stroke-width: 1.41421;" x1="20.000281243894587" y1="323.9999436507409" x2="171.9994308060115" y2="475.99945576878685"></line><line style="stroke: #aaa; stroke-width: 1.41421;" x1="171.9998868032464" y1="323.9999436507409" x2="20" y2="475.99945576878685"></line><line style="stroke: #aaa; stroke-width: 1;" x1="171.9998868032464" y1="323.9999436507409" x2="323.9997251035869" y2="323.9999436507409"></line><line style="stroke: #aaa; stroke-width: 1;" x1="171.9998868032464" y1="323.9999436507409" x2="171.9994308060115" y2="475.99945576878685"></line><line style="stroke: #aaa; stroke-width: 1.41421;" x1="171.9998868032464" y1="323.9999436507409" x2="323.9997251035869" y2="475.99945576878685"></line><line style="stroke: #aaa; stroke-width: 1.41421;" x1="323.9997251035869" y1="323.9999436507409" x2="171.9994308060115" y2="475.99945576878685"></line><line style="stroke: #aaa; stroke-width: 1;" x1="323.9997251035869" y1="323.9999436507409" x2="475.9988034085358" y2="323.9999436507409"></line><line style="stroke: #aaa; stroke-width: 1;" x1="323.9997251035869" y1="323.9999436507409" x2="323.9997251035869" y2="475.99945576878685"></line><line style="stroke: #aaa; stroke-width: 1.41421;" x1="323.9997251035869" y1="323.9999436507409" x2="475.9988034085358" y2="475.99945576878685"></line><line style="stroke: #aaa; stroke-width: 1.41421;" x1="475.9988034085358" y1="323.9999436507409" x2="323.9997251035869" y2="475.99945576878685"></line><line style="stroke: #aaa; stroke-width: 1;" x1="475.9988034085358" y1="323.9999436507409" x2="627.9963617227019" y2="323.9999436507409"></line><line style="stroke: #aaa; stroke-width: 1;" x1="475.9988034085358" y1="323.9999436507409" x2="475.9988034085358" y2="475.99945576878685"></line><line style="stroke: #aaa; stroke-width: 1.41421;" x1="475.9988034085358" y1="323.9999436507409" x2="627.9978817134848" y2="475.99945576878685"></line><line style="stroke: #aaa; stroke-width: 1.41421;" x1="627.9963617227019" y1="323.9999436507409" x2="475.9988034085358" y2="475.99945576878685"></line><line style="stroke: #aaa; stroke-width: 1;" x1="627.9963617227019" y1="323.9999436507409" x2="779.9954400276508" y2="323.9999436507409"></line><line style="stroke: #aaa; stroke-width: 1;" x1="627.9963617227019" y1="323.9999436507409" x2="627.9978817134848" y2="475.99945576878685"></line><line style="stroke: #aaa; stroke-width: 1.41421;" x1="627.9963617227019" y1="323.9999436507409" x2="779.9954400276508" y2="475.99945576878685"></line><line style="stroke: #aaa; stroke-width: 1.41421;" x1="779.9954400276508" y1="323.9999436507409" x2="627.9978817134848" y2="475.99945576878685"></line><line style="stroke: #aaa; stroke-width: 1;" x1="20" y1="475.99945576878685" x2="171.9994308060115" y2="475.99945576878685"></line><line style="stroke: #aaa; stroke-width: 1;" x1="20" y1="475.99945576878685" x2="20.000788495218707" y2="627.9989678868328"></line><line style="stroke: #aaa; stroke-width: 1.41421;" x1="20" y1="475.99945576878685" x2="172.0000388023247" y2="627.9974478917115"></line><line style="stroke: #aaa; stroke-width: 1.41421;" x1="171.9994308060115" y1="475.99945576878685" x2="20.000788495218707" y2="627.9989678868328"></line><line style="stroke: #aaa; stroke-width: 1;" x1="171.9994308060115" y1="475.99945576878685" x2="323.9997251035869" y2="475.99945576878685"></line><line style="stroke: #aaa; stroke-width: 1;" x1="171.9994308060115" y1="475.99945576878685" x2="172.0000388023247" y2="627.9974478917115"></line><line style="stroke: #aaa; stroke-width: 1.41421;" x1="171.9994308060115" y1="475.99945576878685" x2="323.9997251035869" y2="627.9974478917115"></line><line style="stroke: #aaa; stroke-width: 1.41421;" x1="323.9997251035869" y1="475.99945576878685" x2="172.0000388023247" y2="627.9974478917115"></line><line style="stroke: #aaa; stroke-width: 1;" x1="323.9997251035869" y1="475.99945576878685" x2="475.9988034085358" y2="475.99945576878685"></line><line style="stroke: #aaa; stroke-width: 1;" x1="323.9997251035869" y1="475.99945576878685" x2="323.9997251035869" y2="627.9974478917115"></line><line style="stroke: #aaa; stroke-width: 1.41421;" x1="323.9997251035869" y1="475.99945576878685" x2="475.9988034085358" y2="627.9989678868328"></line><line style="stroke: #aaa; stroke-width: 1.41421;" x1="475.9988034085358" y1="475.99945576878685" x2="323.9997251035869" y2="627.9974478917115"></line><line style="stroke: #aaa; stroke-width: 1;" x1="475.9988034085358" y1="475.99945576878685" x2="627.9978817134848" y2="475.99945576878685"></line><line style="stroke: #aaa; stroke-width: 1;" x1="475.9988034085358" y1="475.99945576878685" x2="475.9988034085358" y2="627.9989678868328"></line><line style="stroke: #aaa; stroke-width: 1.41421;" x1="475.9988034085358" y1="475.99945576878685" x2="627.9978817134848" y2="628.000487881954"></line><line style="stroke: #aaa; stroke-width: 1.41421;" x1="627.9978817134848" y1="475.99945576878685" x2="475.9988034085358" y2="627.9989678868328"></line><line style="stroke: #aaa; stroke-width: 1;" x1="627.9978817134848" y1="475.99945576878685" x2="779.9954400276508" y2="475.99945576878685"></line><line style="stroke: #aaa; stroke-width: 1;" x1="627.9978817134848" y1="475.99945576878685" x2="627.9978817134848" y2="628.000487881954"></line><line style="stroke: #aaa; stroke-width: 1.41421;" x1="627.9978817134848" y1="475.99945576878685" x2="779.9969600184339" y2="627.9989678868328"></line><line style="stroke: #aaa; stroke-width: 1.41421;" x1="779.9954400276508" y1="475.99945576878685" x2="627.9978817134848" y2="628.000487881954"></line><line style="stroke: #aaa; stroke-width: 1;" x1="20.000788495218707" y1="627.9989678868328" x2="172.0000388023247" y2="627.9974478917115"></line><line style="stroke: #aaa; stroke-width: 1;" x1="20.000788495218707" y1="627.9989678868328" x2="20.004608328313118" y2="780"></line><line style="stroke: #aaa; stroke-width: 1.41421;" x1="20.000788495218707" y1="627.9989678868328" x2="172.00110279587284" y2="779.998480004879"></line><line style="stroke: #aaa; stroke-width: 1.41421;" x1="172.0000388023247" y1="627.9974478917115" x2="20.004608328313118" y2="780"></line><line style="stroke: #aaa; stroke-width: 1;" x1="172.0000388023247" y1="627.9974478917115" x2="323.9997251035869" y2="627.9974478917115"></line><line style="stroke: #aaa; stroke-width: 1;" x1="172.0000388023247" y1="627.9974478917115" x2="172.00110279587284" y2="779.998480004879"></line><line style="stroke: #aaa; stroke-width: 1.41421;" x1="172.0000388023247" y1="627.9974478917115" x2="323.99820511280393" y2="779.9969600097576"></line><line style="stroke: #aaa; stroke-width: 1.41421;" x1="323.9997251035869" y1="627.9974478917115" x2="172.00110279587284" y2="779.998480004879"></line><line style="stroke: #aaa; stroke-width: 1;" x1="323.9997251035869" y1="627.9974478917115" x2="475.9988034085358" y2="627.9989678868328"></line><line style="stroke: #aaa; stroke-width: 1;" x1="323.9997251035869" y1="627.9974478917115" x2="323.99820511280393" y2="779.9969600097576"></line><line style="stroke: #aaa; stroke-width: 1.41421;" x1="323.9997251035869" y1="627.9974478917115" x2="475.9972834177528" y2="779.998480004879"></line><line style="stroke: #aaa; stroke-width: 1.41421;" x1="475.9988034085358" y1="627.9989678868328" x2="323.99820511280393" y2="779.9969600097576"></line><line style="stroke: #aaa; stroke-width: 1;" x1="475.9988034085358" y1="627.9989678868328" x2="627.9978817134848" y2="628.000487881954"></line><line style="stroke: #aaa; stroke-width: 1;" x1="475.9988034085358" y1="627.9989678868328" x2="475.9972834177528" y2="779.998480004879"></line><line style="stroke: #aaa; stroke-width: 1.41421;" x1="475.9988034085358" y1="627.9989678868328" x2="627.9978817134848" y2="779.998480004879"></line><line style="stroke: #aaa; stroke-width: 1.41421;" x1="627.9978817134848" y1="628.000487881954" x2="475.9972834177528" y2="779.998480004879"></line><line style="stroke: #aaa; stroke-width: 1;" x1="627.9978817134848" y1="628.000487881954" x2="779.9969600184339" y2="627.9989678868328"></line><line style="stroke: #aaa; stroke-width: 1;" x1="627.9978817134848" y1="628.000487881954" x2="627.9978817134848" y2="779.998480004879"></line><line style="stroke: #aaa; stroke-width: 1.41421;" x1="627.9978817134848" y1="628.000487881954" x2="780" y2="780"></line><line style="stroke: #aaa; stroke-width: 1.41421;" x1="779.9969600184339" y1="627.9989678868328" x2="627.9978817134848" y2="779.998480004879"></line><line style="stroke: #aaa; stroke-width: 1;" x1="780" y1="20.002439405168644" x2="779.9954400276508" y2="172.00073553171913"></line><line style="stroke: #aaa; stroke-width: 1;" x1="779.9954400276508" y1="172.00073553171913" x2="779.9954400276508" y2="323.9999436507409"></line><line style="stroke: #aaa; stroke-width: 1;" x1="779.9954400276508" y1="323.9999436507409" x2="779.9954400276508" y2="475.99945576878685"></line><line style="stroke: #aaa; stroke-width: 1;" x1="779.9954400276508" y1="475.99945576878685" x2="779.9969600184339" y2="627.9989678868328"></line><line style="stroke: #aaa; stroke-width: 1;" x1="779.9969600184339" y1="627.9989678868328" x2="780" y2="780"></line><line style="stroke: #aaa; stroke-width: 1;" x1="20.004608328313118" y1="780" x2="172.00110279587284" y2="779.998480004879"></line><line style="stroke: #aaa; stroke-width: 1;" x1="172.00110279587284" y1="779.998480004879" x2="323.99820511280393" y2="779.9969600097576"></line><line style="stroke: #aaa; stroke-width: 1;" x1="323.99820511280393" y1="779.9969600097576" x2="475.9972834177528" y2="779.998480004879"></line><line style="stroke: #aaa; stroke-width: 1;" x1="475.9972834177528" y1="779.998480004879" x2="627.9978817134848" y2="779.998480004879"></line><line style="stroke: #aaa; stroke-width: 1;" x1="627.9978817134848" y1="779.998480004879" x2="780" y2="780"></line><circle r="10" cx="20.004608244909548" cy="20.00243923289433" style="stroke: #000; fill: #69b3a2;"></circle><circle r="10" cx="172.00095079679454" cy="20.001300883264477" style="stroke: #000; fill: #69b3a2;"></circle><circle r="10" cx="323.99820511280393" cy="20.000595154089698" style="stroke: #000; fill: #69b3a2;"></circle><circle r="10" cx="475.9972834177528" cy="20" style="stroke: #000; fill: #69b3a2;"></circle><circle r="10" cx="627.9978817134848" cy="20.000168795458208" style="stroke: #000; fill: #69b3a2;"></circle><circle r="10" cx="780" cy="20.002439405168644" style="stroke: #000; fill: #69b3a2;"></circle><circle r="10" cx="20.001321677585587" cy="172.00058353220697" style="stroke: #000; fill: #69b3a2;"></circle><circle r="10" cx="172.00110279587284" cy="172.0014955292797" style="stroke: #000; fill: #69b3a2;"></circle><circle r="10" cx="323.9997251035869" cy="172.00058353220697" style="stroke: #000; fill: #69b3a2;"></circle><circle r="10" cx="475.9988034085358" cy="171.99951953562217" style="stroke: #000; fill: #69b3a2;"></circle><circle r="10" cx="627.9978817134848" cy="171.99936753611004" style="stroke: #000; fill: #69b3a2;"></circle><circle r="10" cx="779.9954400276508" cy="172.00073553171913" style="stroke: #000; fill: #69b3a2;"></circle><circle r="10" cx="20.000281243894587" cy="323.9999436507409" style="stroke: #000; fill: #69b3a2;"></circle><circle r="10" cx="171.9998868032464" cy="323.9999436507409" style="stroke: #000; fill: #69b3a2;"></circle><circle r="10" cx="323.9997251035869" cy="323.9999436507409" style="stroke: #000; fill: #69b3a2;"></circle><circle r="10" cx="475.9988034085358" cy="323.9999436507409" style="stroke: #000; fill: #69b3a2;"></circle><circle r="10" cx="627.9963617227019" cy="323.9999436507409" style="stroke: #000; fill: #69b3a2;"></circle><circle r="10" cx="779.9954400276508" cy="323.9999436507409" style="stroke: #000; fill: #69b3a2;"></circle><circle r="10" cx="20" cy="475.99945576878685" style="stroke: #000; fill: #69b3a2;"></circle><circle r="10" cx="171.9994308060115" cy="475.99945576878685" style="stroke: #000; fill: #69b3a2;"></circle><circle r="10" cx="323.9997251035869" cy="475.99945576878685" style="stroke: #000; fill: #69b3a2;"></circle><circle r="10" cx="475.9988034085358" cy="475.99945576878685" style="stroke: #000; fill: #69b3a2;"></circle><circle r="10" cx="627.9978817134848" cy="475.99945576878685" style="stroke: #000; fill: #69b3a2;"></circle><circle r="10" cx="779.9954400276508" cy="475.99945576878685" style="stroke: #000; fill: #69b3a2;"></circle><circle r="10" cx="20.000788495218707" cy="627.9989678868328" style="stroke: #000; fill: #69b3a2;"></circle><circle r="10" cx="172.0000388023247" cy="627.9974478917115" style="stroke: #000; fill: #69b3a2;"></circle><circle r="10" cx="323.9997251035869" cy="627.9974478917115" style="stroke: #000; fill: #69b3a2;"></circle><circle r="10" cx="475.9988034085358" cy="627.9989678868328" style="stroke: #000; fill: #69b3a2;"></circle><circle r="10" cx="627.9978817134848" cy="628.000487881954" style="stroke: #000; fill: #69b3a2;"></circle><circle r="10" cx="779.9969600184339" cy="627.9989678868328" style="stroke: #000; fill: #69b3a2;"></circle><circle r="10" cx="20.004608328313118" cy="780" style="stroke: #000; fill: #69b3a2;"></circle><circle r="10" cx="172.00110279587284" cy="779.998480004879" style="stroke: #000; fill: #69b3a2;"></circle><circle r="10" cx="323.99820511280393" cy="779.9969600097576" style="stroke: #000; fill: #69b3a2;"></circle><circle r="10" cx="475.9972834177528" cy="779.998480004879" style="stroke: #000; fill: #69b3a2;"></circle><circle r="10" cx="627.9978817134848" cy="779.998480004879" style="stroke: #000; fill: #69b3a2;"></circle><circle r="10" cx="780" cy="780" style="stroke: #000; fill: #69b3a2;"></circle></svg>