<svg width="800" height="800" xmlns="http://www.w3.org/2000/svg"><line style="stroke: #aaa; stroke-width: 1;" x1="20" y1="20" x2="243.18473833639402" y2="221.06530593001997"></line><line style="stroke: #aaa; stroke-width: 1;" x1="20" y1="20" x2="221.05164636986373" y2="243.19839871504576"></line><line style="stroke: #aaa; stroke-width: 1.41421;" x1="20" y1="20" x2="266.46544958969923" y2="266.4806308548878"></line><line style="stroke: #aaa; stroke-width: 1.41421;" x1="243.18473833639402" y1="221.06530593001997" x2="221.05164636986373" y2="243.19839871504576"></line><line style="stroke: #aaa; stroke-width: 1;" x1="243.18473833639402" y1="221.06530593001997" x2="351.5625597232224" y2="273.1429030667392"></line><line style="stroke: #aaa; stroke-width: 1;" x1="243.18473833639402" y1="221.06530593001997" x2="266.46544958969923" y2="266.4806308548878"></line><line style="stroke: #aaa; stroke-width: 1.41421;" x1="243.18473833639402" y1="221.06530593001997" x2="356.8613687744775" y2="302.5189178434309"></line><line style="stroke: #aaa; stroke-width: 1.41421;" x1="351.5625597232224" y1="273.1429030667392" x2="266.46544958969923" y2="266.4806308548878"></line><line style="stroke: #aaa; stroke-width: 1;" x1="351.5625597232224" y1="273.1429030667392" x2="448.3121856877614" y2="273.1429030667392"></line><line style="stroke: #aaa; stroke-width: 1;" x1="351.5625597232224" y1="273.1429030667392" x2="356.8613687744775" y2="302.5189178434309"></line><line style="stroke: #aaa; stroke-width: 1.41421;" x1="351.5625597232224" y1="273.1429030667392" x2="443.01185661096105" y2="302.5189178434309"></line><line style="stroke: #aaa; stroke-width: 1.41421;" x1="448.3121856877614" y1="273.1429030667392" x2="356.8613687744775" y2="302.5189178434309"></line><line style="stroke: #aaa; stroke-width: 1;" x1="448.3121856877614" y1="273.1429030667392" x2="556.7173675344069" y2="221.06530593001997"></line><line style="stroke: #aaa; stroke-width: 1;" x1="448.3121856877614" y1="273.1429030667392" x2="443.01185661096105" y2="302.5189178434309"></line><line style="stroke: #aaa; stroke-width: 1.41421;" x1="448.3121856877614" y1="273.1429030667392" x2="533.426016102284" y2="266.4806308548878"></line><line style="stroke: #aaa; stroke-width: 1.41421;" x1="556.7173675344069" y1="221.06530593001997" x2="443.01185661096105" y2="302.5189178434309"></line><line style="stroke: #aaa; stroke-width: 1;" x1="556.7173675344069" y1="221.06530593001997" x2="780" y2="20.000005776097286"></line><line style="stroke: #aaa; stroke-width: 1;" x1="556.7173675344069" y1="221.06530593001997" x2="533.426016102284" y2="266.4806308548878"></line><line style="stroke: #aaa; stroke-width: 1.41421;" x1="556.7173675344069" y1="221.06530593001997" x2="578.848939475392" y2="243.19839871504576"></line><line style="stroke: #aaa; stroke-width: 1.41421;" x1="780" y1="20.000005776097286" x2="533.426016102284" y2="266.4806308548878"></line><line style="stroke: #aaa; stroke-width: 1;" x1="221.05164636986373" y1="243.19839871504576" x2="266.46544958969923" y2="266.4806308548878"></line><line style="stroke: #aaa; stroke-width: 1;" x1="221.05164636986373" y1="243.19839871504576" x2="273.12468150408495" y2="351.5807841865584"></line><line style="stroke: #aaa; stroke-width: 1.41421;" x1="221.05164636986373" y1="243.19839871504576" x2="302.5006951944334" y2="356.8795934337667"></line><line style="stroke: #aaa; stroke-width: 1.41421;" x1="266.46544958969923" y1="266.4806308548878" x2="273.12468150408495" y2="351.5807841865584"></line><line style="stroke: #aaa; stroke-width: 1;" x1="266.46544958969923" y1="266.4806308548878" x2="356.8613687744775" y2="302.5189178434309"></line><line style="stroke: #aaa; stroke-width: 1;" x1="266.46544958969923" y1="266.4806308548878" x2="302.5006951944334" y2="356.8795934337667"></line><line style="stroke: #aaa; stroke-width: 1.41421;" x1="266.46544958969923" y1="266.4806308548878" x2="363.45067951377484" y2="363.4689044167408"></line><line style="stroke: #aaa; stroke-width: 1.41421;" x1="356.8613687744775" y1="302.5189178434309" x2="302.5006951944334" y2="356.8795934337667"></line><line style="stroke: #aaa; stroke-width: 1;" x1="356.8613687744775" y1="302.5189178434309" x2="443.01185661096105" y2="302.5189178434309"></line><line style="stroke: #aaa; stroke-width: 1;" x1="356.8613687744775" y1="302.5189178434309" x2="363.45067951377484" y2="363.4689044167408"></line><line style="stroke: #aaa; stroke-width: 1.41421;" x1="356.8613687744775" y1="302.5189178434309" x2="436.4179857950275" y2="363.4689044167408"></line><line style="stroke: #aaa; stroke-width: 1.41421;" x1="443.01185661096105" y1="302.5189178434309" x2="363.45067951377484" y2="363.4689044167408"></line><line style="stroke: #aaa; stroke-width: 1;" x1="443.01185661096105" y1="302.5189178434309" x2="533.426016102284" y2="266.4806308548878"></line><line style="stroke: #aaa; stroke-width: 1;" x1="443.01185661096105" y1="302.5189178434309" x2="436.4179857950275" y2="363.4689044167408"></line><line style="stroke: #aaa; stroke-width: 1.41421;" x1="443.01185661096105" y1="302.5189178434309" x2="497.3725301910052" y2="356.8795934337667"></line><line style="stroke: #aaa; stroke-width: 1.41421;" x1="533.426016102284" y1="266.4806308548878" x2="436.4179857950275" y2="363.4689044167408"></line><line style="stroke: #aaa; stroke-width: 1;" x1="533.426016102284" y1="266.4806308548878" x2="578.848939475392" y2="243.19839871504576"></line><line style="stroke: #aaa; stroke-width: 1;" x1="533.426016102284" y1="266.4806308548878" x2="497.3725301910052" y2="356.8795934337667"></line><line style="stroke: #aaa; stroke-width: 1.41421;" x1="533.426016102284" y1="266.4806308548878" x2="526.750063906899" y2="351.5807841865584"></line><line style="stroke: #aaa; stroke-width: 1.41421;" x1="578.848939475392" y1="243.19839871504576" x2="497.3725301910052" y2="356.8795934337667"></line><line style="stroke: #aaa; stroke-width: 1;" x1="273.12468150408495" y1="351.5807841865584" x2="302.5006951944334" y2="356.8795934337667"></line><line style="stroke: #aaa; stroke-width: 1;" x1="273.12468150408495" y1="351.5807841865584" x2="273.12468150408495" y2="448.3304137289588"></line><line style="stroke: #aaa; stroke-width: 1.41421;" x1="273.12468150408495" y1="351.5807841865584" x2="302.5006951944334" y2="443.0300844561489"></line><line style="stroke: #aaa; stroke-width: 1.41421;" x1="302.5006951944334" y1="356.8795934337667" x2="273.12468150408495" y2="448.3304137289588"></line><line style="stroke: #aaa; stroke-width: 1;" x1="302.5006951944334" y1="356.8795934337667" x2="363.45067951377484" y2="363.4689044167408"></line><line style="stroke: #aaa; stroke-width: 1;" x1="302.5006951944334" y1="356.8795934337667" x2="302.5006951944334" y2="443.0300844561489"></line><line style="stroke: #aaa; stroke-width: 1.41421;" x1="302.5006951944334" y1="356.8795934337667" x2="363.45067951377484" y2="436.4362133963699"></line><line style="stroke: #aaa; stroke-width: 1.41421;" x1="363.45067951377484" y1="363.4689044167408" x2="302.5006951944334" y2="443.0300844561489"></line><line style="stroke: #aaa; stroke-width: 1;" x1="363.45067951377484" y1="363.4689044167408" x2="436.4179857950275" y2="363.4689044167408"></line><line style="stroke: #aaa; stroke-width: 1;" x1="363.45067951377484" y1="363.4689044167408" x2="363.45067951377484" y2="436.4362133963699"></line><line style="stroke: #aaa; stroke-width: 1.41421;" x1="363.45067951377484" y1="363.4689044167408" x2="436.4179857950275" y2="436.4362133963699"></line><line style="stroke: #aaa; stroke-width: 1.41421;" x1="436.4179857950275" y1="363.4689044167408" x2="363.45067951377484" y2="436.4362133963699"></line><line style="stroke: #aaa; stroke-width: 1;" x1="436.4179857950275" y1="363.4689044167408" x2="497.3725301910052" y2="356.8795934337667"></line><line style="stroke: #aaa; stroke-width: 1;" x1="436.4179857950275" y1="363.4689044167408" x2="436.4179857950275" y2="436.4362133963699"></line><line style="stroke: #aaa; stroke-width: 1.41421;" x1="436.4179857950275" y1="363.4689044167408" x2="497.3725301910052" y2="443.0300844561489"></line><line style="stroke: #aaa; stroke-width: 1.41421;" x1="497.3725301910052" y1="356.8795934337667" x2="436.4179857950275" y2="436.4362133963699"></line><line style="stroke: #aaa; stroke-width: 1;" x1="497.3725301910052" y1="356.8795934337667" x2="526.750063906899" y2="351.5807841865584"></line><line style="stroke: #aaa; stroke-width: 1;" x1="497.3725301910052" y1="356.8795934337667" x2="497.3725301910052" y2="443.0300844561489"></line><line style="stroke: #aaa; stroke-width: 1.41421;" x1="497.3725301910052" y1="356.8795934337667" x2="526.750063906899" y2="448.3304137289588"></line><line style="stroke: #aaa; stroke-width: 1.41421;" x1="526.750063906899" y1="351.5807841865584" x2="497.3725301910052" y2="443.0300844561489"></line><line style="stroke: #aaa; stroke-width: 1;" x1="273.12468150408495" y1="448.3304137289588" x2="302.5006951944334" y2="443.0300844561489"></line><line style="stroke: #aaa; stroke-width: 1;" x1="273.12468150408495" y1="448.3304137289588" x2="221.05164636986373" y2="556.7310395076908"></line><line style="stroke: #aaa; stroke-width: 1.41421;" x1="273.12468150408495" y1="448.3304137289588" x2="266.46544958969923" y2="533.4427272654423"></line><line style="stroke: #aaa; stroke-width: 1.41421;" x1="302.5006951944334" y1="443.0300844561489" x2="221.05164636986373" y2="556.7310395076908"></line><line style="stroke: #aaa; stroke-width: 1;" x1="302.5006951944334" y1="443.0300844561489" x2="363.45067951377484" y2="436.4362133963699"></line><line style="stroke: #aaa; stroke-width: 1;" x1="302.5006951944334" y1="443.0300844561489" x2="266.46544958969923" y2="533.4427272654423"></line><line style="stroke: #aaa; stroke-width: 1.41421;" x1="302.5006951944334" y1="443.0300844561489" x2="356.8613687744775" y2="497.3907600464846"></line><line style="stroke: #aaa; stroke-width: 1.41421;" x1="363.45067951377484" y1="436.4362133963699" x2="266.46544958969923" y2="533.4427272654423"></line><line style="stroke: #aaa; stroke-width: 1;" x1="363.45067951377484" y1="436.4362133963699" x2="436.4179857950275" y2="436.4362133963699"></line><line style="stroke: #aaa; stroke-width: 1;" x1="363.45067951377484" y1="436.4362133963699" x2="356.8613687744775" y2="497.3907600464846"></line><line style="stroke: #aaa; stroke-width: 1.41421;" x1="363.45067951377484" y1="436.4362133963699" x2="443.01185661096105" y2="497.3907600464846"></line><line style="stroke: #aaa; stroke-width: 1.41421;" x1="436.4179857950275" y1="436.4362133963699" x2="356.8613687744775" y2="497.3907600464846"></line><line style="stroke: #aaa; stroke-width: 1;" x1="436.4179857950275" y1="436.4362133963699" x2="497.3725301910052" y2="443.0300844561489"></line><line style="stroke: #aaa; stroke-width: 1;" x1="436.4179857950275" y1="436.4362133963699" x2="443.01185661096105" y2="497.3907600464846"></line><line style="stroke: #aaa; stroke-width: 1.41421;" x1="436.4179857950275" y1="436.4362133963699" x2="533.426016102284" y2="533.4427272654423"></line><line style="stroke: #aaa; stroke-width: 1.41421;" x1="497.3725301910052" y1="443.0300844561489" x2="443.01185661096105" y2="497.3907600464846"></line><line style="stroke: #aaa; stroke-width: 1;" x1="497.3725301910052" y1="443.0300844561489" x2="526.750063906899" y2="448.3304137289588"></line><line style="stroke: #aaa; stroke-width: 1;" x1="497.3725301910052" y1="443.0300844561489" x2="533.426016102284" y2="533.4427272654423"></line><line style="stroke: #aaa; stroke-width: 1.41421;" x1="497.3725301910052" y1="443.0300844561489" x2="578.848939475392" y2="556.7310395076908"></line><line style="stroke: #aaa; stroke-width: 1.41421;" x1="526.750063906899" y1="448.3304137289588" x2="533.426016102284" y2="533.4427272654423"></line><line style="stroke: #aaa; stroke-width: 1;" x1="221.05164636986373" y1="556.7310395076908" x2="266.46544958969923" y2="533.4427272654423"></line><line style="stroke: #aaa; stroke-width: 1;" x1="221.05164636986373" y1="556.7310395076908" x2="20.00002711725573" y2="780"></line><line style="stroke: #aaa; stroke-width: 1.41421;" x1="221.05164636986373" y1="556.7310395076908" x2="243.18473833639402" y2="578.8641322927165"></line><line style="stroke: #aaa; stroke-width: 1.41421;" x1="266.46544958969923" y1="533.4427272654423" x2="20.00002711725573" y2="780"></line><line style="stroke: #aaa; stroke-width: 1;" x1="266.46544958969923" y1="533.4427272654423" x2="356.8613687744775" y2="497.3907600464846"></line><line style="stroke: #aaa; stroke-width: 1;" x1="266.46544958969923" y1="533.4427272654423" x2="243.18473833639402" y2="578.8641322927165"></line><line style="stroke: #aaa; stroke-width: 1.41421;" x1="266.46544958969923" y1="533.4427272654423" x2="351.5625597232224" y2="526.7682948487779"></line><line style="stroke: #aaa; stroke-width: 1.41421;" x1="356.8613687744775" y1="497.3907600464846" x2="243.18473833639402" y2="578.8641322927165"></line><line style="stroke: #aaa; stroke-width: 1;" x1="356.8613687744775" y1="497.3907600464846" x2="443.01185661096105" y2="497.3907600464846"></line><line style="stroke: #aaa; stroke-width: 1;" x1="356.8613687744775" y1="497.3907600464846" x2="351.5625597232224" y2="526.7682948487779"></line><line style="stroke: #aaa; stroke-width: 1.41421;" x1="356.8613687744775" y1="497.3907600464846" x2="448.3121856877614" y2="526.7682948487779"></line><line style="stroke: #aaa; stroke-width: 1.41421;" x1="443.01185661096105" y1="497.3907600464846" x2="351.5625597232224" y2="526.7682948487779"></line><line style="stroke: #aaa; stroke-width: 1;" x1="443.01185661096105" y1="497.3907600464846" x2="533.426016102284" y2="533.4427272654423"></line><line style="stroke: #aaa; stroke-width: 1;" x1="443.01185661096105" y1="497.3907600464846" x2="448.3121856877614" y2="526.7682948487779"></line><line style="stroke: #aaa; stroke-width: 1.41421;" x1="443.01185661096105" y1="497.3907600464846" x2="556.7173675344069" y2="578.8641322927165"></line><line style="stroke: #aaa; stroke-width: 1.41421;" x1="533.426016102284" y1="533.4427272654423" x2="448.3121856877614" y2="526.7682948487779"></line><line style="stroke: #aaa; stroke-width: 1;" x1="533.426016102284" y1="533.4427272654423" x2="578.848939475392" y2="556.7310395076908"></line><line style="stroke: #aaa; stroke-width: 1;" x1="533.426016102284" y1="533.4427272654423" x2="556.7173675344069" y2="578.8641322927165"></line><line style="stroke: #aaa; stroke-width: 1.41421;" x1="533.426016102284" y1="533.4427272654423" x2="780" y2="780"></line><line style="stroke: #aaa; stroke-width: 1.41421;" x1="578.848939475392" y1="556.7310395076908" x2="556.7173675344069" y2="578.8641322927165"></line><line style="stroke: #aaa; stroke-width: 1;" x1="780" y1="20.000005776097286" x2="578.848939475392" y2="243.19839871504576"></line><line style="stroke: #aaa; stroke-width: 1;" x1="578.848939475392" y1="243.19839871504576" x2="526.750063906899" y2="351.5807841865584"></line><line style="stroke: #aaa; stroke-width: 1;" x1="526.750063906899" y1="351.5807841865584" x2="526.750063906899" y2="448.3304137289588"></line><line style="stroke: #aaa; stroke-width: 1;" x1="526.750063906899" y1="448.3304137289588" x2="578.848939475392" y2="556.7310395076908"></line><line style="stroke: #aaa; stroke-width: 1;" x1="578.848939475392" y1="556.7310395076908" x2="780" y2="780"></line><line style="stroke: #aaa; stroke-width: 1;" x1="20.00002711725573" y1="780" x2="243.18473833639402" y2="578.8641322927165"></line><line style="stroke: #aaa; stroke-width: 1;" x1="243.18473833639402" y1="578.8641322927165" x2="351.5625597232224" y2="526.7682948487779"></line><line style="stroke: #aaa; stroke-width: 1;" x1="351.5625597232224" y1="526.7682948487779" x2="448.3121856877614" y2="526.7682948487779"></line><line style="stroke: #aaa; stroke-width: 1;" x1="448.3121856877614" y1="526.7682948487779" x2="556.7173675344069" y2="578.8641322927165"></line><line style="stroke: #aaa; stroke-width: 1;" x1="556.7173675344069" y1="578.8641322927165" x2="780" y2="780"></line><circle r="10" cx="20" cy="20" style="stroke: #000; fill: #69b3a2;"></circle><circle r="10" cx="243.18473833639402" cy="221.06530593001997" style="stroke: #000; fill: #69b3a2;"></circle><circle r="10" cx="351.5625597232224" cy="273.1429030667392" style="stroke: #000; fill: #69b3a2;"></circle><circle r="10" cx="448.3121856877614" cy="273.1429030667392" style="stroke: #000; fill: #69b3a2;"></circle><circle r="10" cx="556.7173675344069" cy="221.06530593001997" style="stroke: #000; fill: #69b3a2;"></circle><circle r="10" cx="780" cy="20.000005776097286" style="stroke: #000; fill: #69b3a2;"></circle><circle r="10" cx="221.05164636986373" cy="243.19839871504576" style="stroke: #000; fill: #69b3a2;"></circle><circle r="10" cx="266.46544958969923" cy="266.4806308548878" style="stroke: #000; fill: #69b3a2;"></circle><circle r="10" cx="356.8613687744775" cy="302.5189178434309" style="stroke: #000; fill: #69b3a2;"></circle><circle r="10" cx="443.01185661096105" cy="302.5189178434309" style="stroke: #000; fill: #69b3a2;"></circle><circle r="10" cx="533.426016102284" cy="266.4806308548878" style="stroke: #000; fill: #69b3a2;"></circle><circle r="10" cx="578.848939475392" cy="243.19839871504576" style="stroke: #000; fill: #69b3a2;"></circle><circle r="10" cx="273.12468150408495" cy="351.5807841865584" style="stroke: #000; fill: #69b3a2;"></circle><circle r="10" cx="302.5006951944334" cy="356.8795934337667" style="stroke: #000; fill: #69b3a2;"></circle><circle r="10" cx="363.45067951377484" cy="363.4689044167408" style="stroke: #000; fill: #69b3a2;"></circle><circle r="10" cx="436.4179857950275" cy="363.4689044167408" style="stroke: #000; fill: #69b3a2;"></circle><circle r="10" cx="497.3725301910052" cy="356.8795934337667" style="stroke: #000; fill: #69b3a2;"></circle><circle r="10" cx="526.750063906899" cy="351.5807841865584" style="stroke: #000; fill: #69b3a2;"></circle><circle r="10" cx="273.12468150408495" cy="448.3304137289588" style="stroke: #000; fill: #69b3a2;"></circle><circle r="10" cx="302.5006951944334" cy="443.0300844561489" style="stroke: #000; fill: #69b3a2;"></circle><circle r="10" cx="363.45067951377484" cy="436.4362133963699" style="stroke: #000; fill: #69b3a2;"></circle><circle r="10" cx="436.4179857950275" cy="436.4362133963699" style="stroke: #000; fill: #69b3a2;"></circle><circle r="10" cx="497.3725301910052" cy="443.0300844561489" style="stroke: #000; fill: #69b3a2;"></circle><circle r="10" cx="526.750063906899" cy="448.3304137289588" style="stroke: #000; fill: #69b3a2;"></circle><circle r="10" cx="221.05164636986373" cy="556.7310395076908" style="stroke: #000; fill: #69b3a2;"></circle><circle r="10" cx="266.46544958969923" cy="533.4427272654423" style="stroke: #000; fill: #69b3a2;"></circle><circle r="10" cx="356.8613687744775" cy="497.3907600464846" style="stroke: #000; fill: #69b3a2;"></circle><circle r="10" cx="443.01185661096105" cy="497.3907600464846" style="stroke: #000; fill: #69b3a2;"></circle><circle r="10" cx="533.426016102284" cy="533.4427272654423" style="stroke: #000; fill: #69b3a2;"></circle><circle r="10" cx="578.848939475392" cy="556.7310395076908" style="stroke: #000; fill: #69b3a2;"></circle><circle r="10" cx="20.00002711725573" cy="780" style="stroke: #000; fill: #69b3a2;"></circle><circle r="10" cx="243.18473833639402" cy="578.8641322927165" style="stroke: #000; fill: #69b3a2;"></circle><circle r="10" cx="351.5625597232224" cy="526.7682948487779" style="stroke: #000; fill: #69b3a2;"></circle><circle r="10" cx="448.3121856877614" cy="526.7682948487779" style="stroke: #000; fill: #69b3a2;"></circle><circle r="10" cx="556.7173675344069" cy="578.8641322927165" style="stroke: #000; fill: #69b3a2;"></circle><circle r="10" cx="780" cy="780" style="stroke: #000; fill: #69b3a2;"></circle></svg>