<svg width="800" height="800" xmlns="http://www.w3.org/2000/svg"><line style="stroke: #aaa; stroke-width: 1;" x1="20" y1="8343147.999999376" x2="96.00000000007032" y2="8343147.999999376"></line><line style="stroke: #aaa; stroke-width: 1;" x1="20" y1="8343147.999999376" x2="96.00000000007032" y2="8343147.999999376"></line><line style="stroke: #aaa; stroke-width: 1.41421;" x1="20" y1="8343147.999999376" x2="159.3333333331107" y2="8343147.999999376"></line><line style="stroke: #aaa; stroke-width: 1.41421;" x1="96.00000000007032" y1="8343147.999999376" x2="96.00000000007032" y2="8343147.999999376"></line><line style="stroke: #aaa; stroke-width: 1;" x1="96.00000000007032" y1="8343147.999999376" x2="209.99999999982424" y2="8343147.999999376"></line><line style="stroke: #aaa; stroke-width: 1;" x1="96.00000000007032" y1="8343147.999999376" x2="159.3333333331107" y2="8343147.999999376"></line><line style="stroke: #aaa; stroke-width: 1.41421;" x1="96.00000000007032" y1="8343147.999999376" x2="273.33333333356774" y2="8343147.999999376"></line><line style="stroke: #aaa; stroke-width: 1.41421;" x1="209.99999999982424" y1="8343147.999999376" x2="159.3333333331107" y2="8343147.999999376"></line><line style="stroke: #aaa; stroke-width: 1;" x1="209.99999999982424" y1="8343147.999999376" x2="336.6666666666081" y2="8343274.666666044"></line><line style="stroke: #aaa; stroke-width: 1;" x1="209.99999999982424" y1="8343147.999999376" x2="273.33333333356774" y2="8343147.999999376"></line><line style="stroke: #aaa; stroke-width: 1.41421;" x1="209.99999999982424" y1="8343147.999999376" x2="374.66666666629163" y2="8343274.666666044"></line><line style="stroke: #aaa; stroke-width: 1.41421;" x1="336.6666666666081" y1="8343274.666666044" x2="273.33333333356774" y2="8343147.999999376"></line><line style="stroke: #aaa; stroke-width: 1;" x1="336.6666666666081" y1="8343274.666666044" x2="438.00000000003513" y2="8343274.666666044"></line><line style="stroke: #aaa; stroke-width: 1;" x1="336.6666666666081" y1="8343274.666666044" x2="374.66666666629163" y2="8343274.666666044"></line><line style="stroke: #aaa; stroke-width: 1.41421;" x1="336.6666666666081" y1="8343274.666666044" x2="475.99999999971874" y2="8343274.666666044"></line><line style="stroke: #aaa; stroke-width: 1.41421;" x1="438.00000000003513" y1="8343274.666666044" x2="374.66666666629163" y2="8343274.666666044"></line><line style="stroke: #aaa; stroke-width: 1;" x1="438.00000000003513" y1="8343274.666666044" x2="488.6666666667487" y2="8343274.666666044"></line><line style="stroke: #aaa; stroke-width: 1;" x1="438.00000000003513" y1="8343274.666666044" x2="475.99999999971874" y2="8343274.666666044"></line><line style="stroke: #aaa; stroke-width: 1.41421;" x1="438.00000000003513" y1="8343274.666666044" x2="514.0000000001055" y2="8343274.666666044"></line><line style="stroke: #aaa; stroke-width: 1.41421;" x1="488.6666666667487" y1="8343274.666666044" x2="475.99999999971874" y2="8343274.666666044"></line><line style="stroke: #aaa; stroke-width: 1;" x1="96.00000000007032" y1="8343147.999999376" x2="159.3333333331107" y2="8343147.999999376"></line><line style="stroke: #aaa; stroke-width: 1;" x1="96.00000000007032" y1="8343147.999999376" x2="159.3333333331107" y2="8343147.999999376"></line><line style="stroke: #aaa; stroke-width: 1.41421;" x1="96.00000000007032" y1="8343147.999999376" x2="197.33333333349742" y2="8343147.999999376"></line><line style="stroke: #aaa; stroke-width: 1.41421;" x1="159.3333333331107" y1="8343147.999999376" x2="159.3333333331107" y2="8343147.999999376"></line><line style="stroke: #aaa; stroke-width: 1;" x1="159.3333333331107" y1="8343147.999999376" x2="273.33333333356774" y2="8343147.999999376"></line><line style="stroke: #aaa; stroke-width: 1;" x1="159.3333333331107" y1="8343147.999999376" x2="197.33333333349742" y2="8343147.999999376"></line><line style="stroke: #aaa; stroke-width: 1.41421;" x1="159.3333333331107" y1="8343147.999999376" x2="298.6666666662214" y2="8343147.999999376"></line><line style="stroke: #aaa; stroke-width: 1.41421;" x1="273.33333333356774" y1="8343147.999999376" x2="197.33333333349742" y2="8343147.999999376"></line><line style="stroke: #aaa; stroke-width: 1;" x1="273.33333333356774" y1="8343147.999999376" x2="374.66666666629163" y2="8343274.666666044"></line><line style="stroke: #aaa; stroke-width: 1;" x1="273.33333333356774" y1="8343147.999999376" x2="298.6666666662214" y2="8343147.999999376"></line><line style="stroke: #aaa; stroke-width: 1.41421;" x1="273.33333333356774" y1="8343147.999999376" x2="387.3333333333216" y2="8343147.999999376"></line><line style="stroke: #aaa; stroke-width: 1.41421;" x1="374.66666666629163" y1="8343274.666666044" x2="298.6666666662214" y2="8343147.999999376"></line><line style="stroke: #aaa; stroke-width: 1;" x1="374.66666666629163" y1="8343274.666666044" x2="475.99999999971874" y2="8343274.666666044"></line><line style="stroke: #aaa; stroke-width: 1;" x1="374.66666666629163" y1="8343274.666666044" x2="387.3333333333216" y2="8343147.999999376"></line><line style="stroke: #aaa; stroke-width: 1.41421;" x1="374.66666666629163" y1="8343274.666666044" x2="514.0000000001055" y2="8343147.999999376"></line><line style="stroke: #aaa; stroke-width: 1.41421;" x1="475.99999999971874" y1="8343274.666666044" x2="387.3333333333216" y2="8343147.999999376"></line><line style="stroke: #aaa; stroke-width: 1;" x1="475.99999999971874" y1="8343274.666666044" x2="514.0000000001055" y2="8343274.666666044"></line><line style="stroke: #aaa; stroke-width: 1;" x1="475.99999999971874" y1="8343274.666666044" x2="514.0000000001055" y2="8343147.999999376"></line><line style="stroke: #aaa; stroke-width: 1.41421;" x1="475.99999999971874" y1="8343274.666666044" x2="564.666666666819" y2="8343274.666666044"></line><line style="stroke: #aaa; stroke-width: 1.41421;" x1="514.0000000001055" y1="8343274.666666044" x2="514.0000000001055" y2="8343147.999999376"></line><line style="stroke: #aaa; stroke-width: 1;" x1="159.3333333331107" y1="8343147.999999376" x2="197.33333333349742" y2="8343147.999999376"></line><line style="stroke: #aaa; stroke-width: 1;" x1="159.3333333331107" y1="8343147.999999376" x2="248.00000000021095" y2="8343021.333332709"></line><line style="stroke: #aaa; stroke-width: 1.41421;" x1="159.3333333331107" y1="8343147.999999376" x2="298.6666666662214" y2="8343147.999999376"></line><line style="stroke: #aaa; stroke-width: 1.41421;" x1="197.33333333349742" y1="8343147.999999376" x2="248.00000000021095" y2="8343021.333332709"></line><line style="stroke: #aaa; stroke-width: 1;" x1="197.33333333349742" y1="8343147.999999376" x2="298.6666666662214" y2="8343147.999999376"></line><line style="stroke: #aaa; stroke-width: 1;" x1="197.33333333349742" y1="8343147.999999376" x2="298.6666666662214" y2="8343147.999999376"></line><line style="stroke: #aaa; stroke-width: 1.41421;" x1="197.33333333349742" y1="8343147.999999376" x2="412.66666666667834" y2="8343147.999999376"></line><line style="stroke: #aaa; stroke-width: 1.41421;" x1="298.6666666662214" y1="8343147.999999376" x2="298.6666666662214" y2="8343147.999999376"></line><line style="stroke: #aaa; stroke-width: 1;" x1="298.6666666662214" y1="8343147.999999376" x2="387.3333333333216" y2="8343147.999999376"></line><line style="stroke: #aaa; stroke-width: 1;" x1="298.6666666662214" y1="8343147.999999376" x2="412.66666666667834" y2="8343147.999999376"></line><line style="stroke: #aaa; stroke-width: 1.41421;" x1="298.6666666662214" y1="8343147.999999376" x2="501.33333333307553" y2="8343147.999999376"></line><line style="stroke: #aaa; stroke-width: 1.41421;" x1="387.3333333333216" y1="8343147.999999376" x2="412.66666666667834" y2="8343147.999999376"></line><line style="stroke: #aaa; stroke-width: 1;" x1="387.3333333333216" y1="8343147.999999376" x2="514.0000000001055" y2="8343147.999999376"></line><line style="stroke: #aaa; stroke-width: 1;" x1="387.3333333333216" y1="8343147.999999376" x2="501.33333333307553" y2="8343147.999999376"></line><line style="stroke: #aaa; stroke-width: 1.41421;" x1="387.3333333333216" y1="8343147.999999376" x2="615.3333333335326" y2="8343147.999999376"></line><line style="stroke: #aaa; stroke-width: 1.41421;" x1="514.0000000001055" y1="8343147.999999376" x2="501.33333333307553" y2="8343147.999999376"></line><line style="stroke: #aaa; stroke-width: 1;" x1="514.0000000001055" y1="8343147.999999376" x2="564.666666666819" y2="8343274.666666044"></line><line style="stroke: #aaa; stroke-width: 1;" x1="514.0000000001055" y1="8343147.999999376" x2="615.3333333335326" y2="8343147.999999376"></line><line style="stroke: #aaa; stroke-width: 1.41421;" x1="514.0000000001055" y1="8343147.999999376" x2="640.6666666668893" y2="8343147.999999376"></line><line style="stroke: #aaa; stroke-width: 1.41421;" x1="564.666666666819" y1="8343274.666666044" x2="615.3333333335326" y2="8343147.999999376"></line><line style="stroke: #aaa; stroke-width: 1;" x1="248.00000000021095" y1="8343021.333332709" x2="298.6666666662214" y2="8343147.999999376"></line><line style="stroke: #aaa; stroke-width: 1;" x1="248.00000000021095" y1="8343021.333332709" x2="298.6666666662214" y2="8343021.333332709"></line><line style="stroke: #aaa; stroke-width: 1.41421;" x1="248.00000000021095" y1="8343021.333332709" x2="323.9999999995781" y2="8343021.333332709"></line><line style="stroke: #aaa; stroke-width: 1.41421;" x1="298.6666666662214" y1="8343147.999999376" x2="298.6666666662214" y2="8343021.333332709"></line><line style="stroke: #aaa; stroke-width: 1;" x1="298.6666666662214" y1="8343147.999999376" x2="412.66666666667834" y2="8343147.999999376"></line><line style="stroke: #aaa; stroke-width: 1;" x1="298.6666666662214" y1="8343147.999999376" x2="323.9999999995781" y2="8343021.333332709"></line><line style="stroke: #aaa; stroke-width: 1.41421;" x1="298.6666666662214" y1="8343147.999999376" x2="425.33333333300516" y2="8343021.333332709"></line><line style="stroke: #aaa; stroke-width: 1.41421;" x1="412.66666666667834" y1="8343147.999999376" x2="323.9999999995781" y2="8343021.333332709"></line><line style="stroke: #aaa; stroke-width: 1;" x1="412.66666666667834" y1="8343147.999999376" x2="501.33333333307553" y2="8343147.999999376"></line><line style="stroke: #aaa; stroke-width: 1;" x1="412.66666666667834" y1="8343147.999999376" x2="425.33333333300516" y2="8343021.333332709"></line><line style="stroke: #aaa; stroke-width: 1.41421;" x1="412.66666666667834" y1="8343147.999999376" x2="526.6666666664323" y2="8343147.999999376"></line><line style="stroke: #aaa; stroke-width: 1.41421;" x1="501.33333333307553" y1="8343147.999999376" x2="425.33333333300516" y2="8343021.333332709"></line><line style="stroke: #aaa; stroke-width: 1;" x1="501.33333333307553" y1="8343147.999999376" x2="615.3333333335326" y2="8343147.999999376"></line><line style="stroke: #aaa; stroke-width: 1;" x1="501.33333333307553" y1="8343147.999999376" x2="526.6666666664323" y2="8343147.999999376"></line><line style="stroke: #aaa; stroke-width: 1.41421;" x1="501.33333333307553" y1="8343147.999999376" x2="653.3333333332162" y2="8343147.999999376"></line><line style="stroke: #aaa; stroke-width: 1.41421;" x1="615.3333333335326" y1="8343147.999999376" x2="526.6666666664323" y2="8343147.999999376"></line><line style="stroke: #aaa; stroke-width: 1;" x1="615.3333333335326" y1="8343147.999999376" x2="640.6666666668893" y2="8343147.999999376"></line><line style="stroke: #aaa; stroke-width: 1;" x1="615.3333333335326" y1="8343147.999999376" x2="653.3333333332162" y2="8343147.999999376"></line><line style="stroke: #aaa; stroke-width: 1.41421;" x1="615.3333333335326" y1="8343147.999999376" x2="716.6666666662564" y2="8343147.999999376"></line><line style="stroke: #aaa; stroke-width: 1.41421;" x1="640.6666666668893" y1="8343147.999999376" x2="653.3333333332162" y2="8343147.999999376"></line><line style="stroke: #aaa; stroke-width: 1;" x1="298.6666666662214" y1="8343021.333332709" x2="323.9999999995781" y2="8343021.333332709"></line><line style="stroke: #aaa; stroke-width: 1;" x1="298.6666666662214" y1="8343021.333332709" x2="311.3333333332513" y2="8343021.333332709"></line><line style="stroke: #aaa; stroke-width: 1.41421;" x1="298.6666666662214" y1="8343021.333332709" x2="374.66666666629163" y2="8343021.333332709"></line><line style="stroke: #aaa; stroke-width: 1.41421;" x1="323.9999999995781" y1="8343021.333332709" x2="311.3333333332513" y2="8343021.333332709"></line><line style="stroke: #aaa; stroke-width: 1;" x1="323.9999999995781" y1="8343021.333332709" x2="425.33333333300516" y2="8343021.333332709"></line><line style="stroke: #aaa; stroke-width: 1;" x1="323.9999999995781" y1="8343021.333332709" x2="374.66666666629163" y2="8343021.333332709"></line><line style="stroke: #aaa; stroke-width: 1.41421;" x1="323.9999999995781" y1="8343021.333332709" x2="475.99999999971874" y2="8343021.333332709"></line><line style="stroke: #aaa; stroke-width: 1.41421;" x1="425.33333333300516" y1="8343021.333332709" x2="374.66666666629163" y2="8343021.333332709"></line><line style="stroke: #aaa; stroke-width: 1;" x1="425.33333333300516" y1="8343021.333332709" x2="526.6666666664323" y2="8343147.999999376"></line><line style="stroke: #aaa; stroke-width: 1;" x1="425.33333333300516" y1="8343021.333332709" x2="475.99999999971874" y2="8343021.333332709"></line><line style="stroke: #aaa; stroke-width: 1.41421;" x1="425.33333333300516" y1="8343021.333332709" x2="590.0000000001758" y2="8343021.333332709"></line><line style="stroke: #aaa; stroke-width: 1.41421;" x1="526.6666666664323" y1="8343147.999999376" x2="475.99999999971874" y2="8343021.333332709"></line><line style="stroke: #aaa; stroke-width: 1;" x1="526.6666666664323" y1="8343147.999999376" x2="653.3333333332162" y2="8343147.999999376"></line><line style="stroke: #aaa; stroke-width: 1;" x1="526.6666666664323" y1="8343147.999999376" x2="590.0000000001758" y2="8343021.333332709"></line><line style="stroke: #aaa; stroke-width: 1.41421;" x1="526.6666666664323" y1="8343147.999999376" x2="703.9999999999296" y2="8343147.999999376"></line><line style="stroke: #aaa; stroke-width: 1.41421;" x1="653.3333333332162" y1="8343147.999999376" x2="590.0000000001758" y2="8343021.333332709"></line><line style="stroke: #aaa; stroke-width: 1;" x1="653.3333333332162" y1="8343147.999999376" x2="716.6666666662564" y2="8343147.999999376"></line><line style="stroke: #aaa; stroke-width: 1;" x1="653.3333333332162" y1="8343147.999999376" x2="703.9999999999296" y2="8343147.999999376"></line><line style="stroke: #aaa; stroke-width: 1.41421;" x1="653.3333333332162" y1="8343147.999999376" x2="780" y2="8343147.999999376"></line><line style="stroke: #aaa; stroke-width: 1.41421;" x1="716.6666666662564" y1="8343147.999999376" x2="703.9999999999296" y2="8343147.999999376"></line><line style="stroke: #aaa; stroke-width: 1;" x1="488.6666666667487" y1="8343274.666666044" x2="514.0000000001055" y2="8343274.666666044"></line><line style="stroke: #aaa; stroke-width: 1;" x1="514.0000000001055" y1="8343274.666666044" x2="564.666666666819" y2="8343274.666666044"></line><line style="stroke: #aaa; stroke-width: 1;" x1="564.666666666819" y1="8343274.666666044" x2="640.6666666668893" y2="8343147.999999376"></line><line style="stroke: #aaa; stroke-width: 1;" x1="640.6666666668893" y1="8343147.999999376" x2="716.6666666662564" y2="8343147.999999376"></line><line style="stroke: #aaa; stroke-width: 1;" x1="716.6666666662564" y1="8343147.999999376" x2="780" y2="8343147.999999376"></line><line style="stroke: #aaa; stroke-width: 1;" x1="311.3333333332513" y1="8343021.333332709" x2="374.66666666629163" y2="8343021.333332709"></line><line style="stroke: #aaa; stroke-width: 1;" x1="374.66666666629163" y1="8343021.333332709" x2="475.99999999971874" y2="8343021.333332709"></line><line style="stroke: #aaa; stroke-width: 1;" x1="475.99999999971874" y1="8343021.333332709" x2="590.0000000001758" y2="8343021.333332709"></line><line style="stroke: #aaa; stroke-width: 1;" x1="590.0000000001758" y1="8343021.333332709" x2="703.9999999999296" y2="8343147.999999376"></line><line style="stroke: #aaa; stroke-width: 1;" x1="703.9999999999296" y1="8343147.999999376" x2="780" y2="8343147.999999376"></line><circle r="10" cx="20" cy="8343147.999999376" style="stroke: #000; fill: #69b3a2;"></circle><circle r="10" cx="96.00000000007032" cy="8343147.999999376" style="stroke: #000; fill: #69b3a2;"></circle><circle r="10" cx="209.99999999982424" cy="8343147.999999376" style="stroke: #000; fill: #69b3a2;"></circle><circle r="10" cx="336.6666666666081" cy="8343274.666666044" style="stroke: #000; fill: #69b3a2;"></circle><circle r="10" cx="438.00000000003513" cy="8343274.666666044" style="stroke: #000; fill: #69b3a2;"></circle><circle r="10" cx="488.6666666667487" cy="8343274.666666044" style="stroke: #000; fill: #69b3a2;"></circle><circle r="10" cx="96.00000000007032" cy="8343147.999999376" style="stroke: #000; fill: #69b3a2;"></circle><circle r="10" cx="159.3333333331107" cy="8343147.999999376" style="stroke: #000; fill: #69b3a2;"></circle><circle r="10" cx="273.33333333356774" cy="8343147.999999376" style="stroke: #000; fill: #69b3a2;"></circle><circle r="10" cx="374.66666666629163" cy="8343274.666666044" style="stroke: #000; fill: #69b3a2;"></circle><circle r="10" cx="475.99999999971874" cy="8343274.666666044" style="stroke: #000; fill: #69b3a2;"></circle><circle r="10" cx="514.0000000001055" cy="8343274.666666044" style="stroke: #000; fill: #69b3a2;"></circle><circle r="10" cx="159.3333333331107" cy="8343147.999999376" style="stroke: #000; fill: #69b3a2;"></circle><circle r="10" cx="197.33333333349742" cy="8343147.999999376" style="stroke: #000; fill: #69b3a2;"></circle><circle r="10" cx="298.6666666662214" cy="8343147.999999376" style="stroke: #000; fill: #69b3a2;"></circle><circle r="10" cx="387.3333333333216" cy="8343147.999999376" style="stroke: #000; fill: #69b3a2;"></circle><circle r="10" cx="514.0000000001055" cy="8343147.999999376" style="stroke: #000; fill: #69b3a2;"></circle><circle r="10" cx="564.666666666819" cy="8343274.666666044" style="stroke: #000; fill: #69b3a2;"></circle><circle r="10" cx="248.00000000021095" cy="8343021.333332709" style="stroke: #000; fill: #69b3a2;"></circle><circle r="10" cx="298.6666666662214" cy="8343147.999999376" style="stroke: #000; fill: #69b3a2;"></circle><circle r="10" cx="412.66666666667834" cy="8343147.999999376" style="stroke: #000; fill: #69b3a2;"></circle><circle r="10" cx="501.33333333307553" cy="8343147.999999376" style="stroke: #000; fill: #69b3a2;"></circle><circle r="10" cx="615.3333333335326" cy="8343147.999999376" style="stroke: #000; fill: #69b3a2;"></circle><circle r="10" cx="640.6666666668893" cy="8343147.999999376" style="stroke: #000; fill: #69b3a2;"></circle><circle r="10" cx="298.6666666662214" cy="8343021.333332709" style="stroke: #000; fill: #69b3a2;"></circle><circle r="10" cx="323.9999999995781" cy="8343021.333332709" style="stroke: #000; fill: #69b3a2;"></circle><circle r="10" cx="425.33333333300516" cy="8343021.333332709" style="stroke: #000; fill: #69b3a2;"></circle><circle r="10" cx="526.6666666664323" cy="8343147.999999376" style="stroke: #000; fill: #69b3a2;"></circle><circle r="10" cx="653.3333333332162" cy="8343147.999999376" style="stroke: #000; fill: #69b3a2;"></circle><circle r="10" cx="716.6666666662564" cy="8343147.999999376" style="stroke: #000; fill: #69b3a2;"></circle><circle r="10" cx="311.3333333332513" cy="8343021.333332709" style="stroke: #000; fill: #69b3a2;"></circle><circle r="10" cx="374.66666666629163" cy="8343021.333332709" style="stroke: #000; fill: #69b3a2;"></circle><circle r="10" cx="475.99999999971874" cy="8343021.333332709" style="stroke: #000; fill: #69b3a2;"></circle><circle r="10" cx="590.0000000001758" cy="8343021.333332709" style="stroke: #000; fill: #69b3a2;"></circle><circle r="10" cx="703.9999999999296" cy="8343147.999999376" style="stroke: #000; fill: #69b3a2;"></circle><circle r="10" cx="780" cy="8343147.999999376" style="stroke: #000; fill: #69b3a2;"></circle></svg>