<svg width="800" height="800" xmlns="http://www.w3.org/2000/svg"><line style="stroke: #aaa; stroke-width: 1;" x1="31.65894625299495" y1="31.659043143295442" x2="114.3512053220042" y2="44.30590975397857"></line><line style="stroke: #aaa; stroke-width: 1;" x1="31.65894625299495" y1="31.659043143295442" x2="37.47740529937725" y2="114.74029640952077"></line><line style="stroke: #aaa; stroke-width: 1.41421;" x1="31.65894625299495" y1="31.659043143295442" x2="105.24617966535494" y2="116.31578432910578"></line><line style="stroke: #aaa; stroke-width: 1.41421;" x1="114.3512053220042" y1="44.30590975397857" x2="37.47740529937725" y2="114.74029640952077"></line><line style="stroke: #aaa; stroke-width: 1;" x1="114.3512053220042" y1="44.30590975397857" x2="194.8687882150809" y2="77.86446441085323"></line><line style="stroke: #aaa; stroke-width: 1;" x1="114.3512053220042" y1="44.30590975397857" x2="105.24617966535494" y2="116.31578432910578"></line><line style="stroke: #aaa; stroke-width: 1.41421;" x1="114.3512053220042" y1="44.30590975397857" x2="182.55247392308704" y2="118.7062305189523"></line><line style="stroke: #aaa; stroke-width: 1.41421;" x1="194.8687882150809" y1="77.86446441085323" x2="105.24617966535494" y2="116.31578432910578"></line><line style="stroke: #aaa; stroke-width: 1;" x1="194.8687882150809" y1="77.86446441085323" x2="253.2618722187473" y2="161.12010114587537"></line><line style="stroke: #aaa; stroke-width: 1;" x1="194.8687882150809" y1="77.86446441085323" x2="182.55247392308704" y2="118.7062305189523"></line><line style="stroke: #aaa; stroke-width: 1.41421;" x1="194.8687882150809" y1="77.86446441085323" x2="270.44366390945953" y2="116.64456262044774"></line><line style="stroke: #aaa; stroke-width: 1.41421;" x1="253.2618722187473" y1="161.12010114587537" x2="182.55247392308704" y2="118.7062305189523"></line><line style="stroke: #aaa; stroke-width: 1;" x1="253.2618722187473" y1="161.12010114587537" x2="331.9274109561213" y2="193.97512910103057"></line><line style="stroke: #aaa; stroke-width: 1;" x1="253.2618722187473" y1="161.12010114587537" x2="270.44366390945953" y2="116.64456262044774"></line><line style="stroke: #aaa; stroke-width: 1.41421;" x1="253.2618722187473" y1="161.12010114587537" x2="343.8899392120179" y2="120.76642737364773"></line><line style="stroke: #aaa; stroke-width: 1.41421;" x1="331.9274109561213" y1="193.97512910103057" x2="270.44366390945953" y2="116.64456262044774"></line><line style="stroke: #aaa; stroke-width: 1;" x1="331.9274109561213" y1="193.97512910103057" x2="410.1104473240987" y2="200.1086462632245"></line><line style="stroke: #aaa; stroke-width: 1;" x1="331.9274109561213" y1="193.97512910103057" x2="343.8899392120179" y2="120.76642737364773"></line><line style="stroke: #aaa; stroke-width: 1.41421;" x1="331.9274109561213" y1="193.97512910103057" x2="412.2978894682844" y2="125.89963474562893"></line><line style="stroke: #aaa; stroke-width: 1.41421;" x1="410.1104473240987" y1="200.1086462632245" x2="343.8899392120179" y2="120.76642737364773"></line><line style="stroke: #aaa; stroke-width: 1;" x1="410.1104473240987" y1="200.1086462632245" x2="487.9198385645554" y2="198.4037064884355"></line><line style="stroke: #aaa; stroke-width: 1;" x1="410.1104473240987" y1="200.1086462632245" x2="412.2978894682844" y2="125.89963474562893"></line><line style="stroke: #aaa; stroke-width: 1.41421;" x1="410.1104473240987" y1="200.1086462632245" x2="480.361615473213" y2="123.57979865862094"></line><line style="stroke: #aaa; stroke-width: 1.41421;" x1="487.9198385645554" y1="198.4037064884355" x2="412.2978894682844" y2="125.89963474562893"></line><line style="stroke: #aaa; stroke-width: 1;" x1="487.9198385645554" y1="198.4037064884355" x2="566.7545473399801" y2="168.8467587533639"></line><line style="stroke: #aaa; stroke-width: 1;" x1="487.9198385645554" y1="198.4037064884355" x2="480.361615473213" y2="123.57979865862094"></line><line style="stroke: #aaa; stroke-width: 1.41421;" x1="487.9198385645554" y1="198.4037064884355" x2="552.9620405855179" y2="123.98212914041973"></line><line style="stroke: #aaa; stroke-width: 1.41421;" x1="566.7545473399801" y1="168.8467587533639" x2="480.361615473213" y2="123.57979865862094"></line><line style="stroke: #aaa; stroke-width: 1;" x1="566.7545473399801" y1="168.8467587533639" x2="620.8661583371553" y2="83.37109625378369"></line><line style="stroke: #aaa; stroke-width: 1;" x1="566.7545473399801" y1="168.8467587533639" x2="552.9620405855179" y2="123.98212914041973"></line><line style="stroke: #aaa; stroke-width: 1.41421;" x1="566.7545473399801" y1="168.8467587533639" x2="639.1107791799686" y2="128.42541696591599"></line><line style="stroke: #aaa; stroke-width: 1.41421;" x1="620.8661583371553" y1="83.37109625378369" x2="552.9620405855179" y2="123.98212914041973"></line><line style="stroke: #aaa; stroke-width: 1;" x1="620.8661583371553" y1="83.37109625378369" x2="695.4627898984583" y2="48.59731230618151"></line><line style="stroke: #aaa; stroke-width: 1;" x1="620.8661583371553" y1="83.37109625378369" x2="639.1107791799686" y2="128.42541696591599"></line><line style="stroke: #aaa; stroke-width: 1.41421;" x1="620.8661583371553" y1="83.37109625378369" x2="711.0624739724444" y2="123.79530657665941"></line><line style="stroke: #aaa; stroke-width: 1.41421;" x1="695.4627898984583" y1="48.59731230618151" x2="639.1107791799686" y2="128.42541696591599"></line><line style="stroke: #aaa; stroke-width: 1;" x1="695.4627898984583" y1="48.59731230618151" x2="767.179853203377" y2="31.65881325592417"></line><line style="stroke: #aaa; stroke-width: 1;" x1="695.4627898984583" y1="48.59731230618151" x2="711.0624739724444" y2="123.79530657665941"></line><line style="stroke: #aaa; stroke-width: 1.41421;" x1="695.4627898984583" y1="48.59731230618151" x2="775.9031429915553" y2="116.49819376143867"></line><line style="stroke: #aaa; stroke-width: 1.41421;" x1="767.179853203377" y1="31.65881325592417" x2="711.0624739724444" y2="123.79530657665941"></line><line style="stroke: #aaa; stroke-width: 1;" x1="37.47740529937725" y1="114.74029640952077" x2="105.24617966535494" y2="116.31578432910578"></line><line style="stroke: #aaa; stroke-width: 1;" x1="37.47740529937725" y1="114.74029640952077" x2="39.74206988832357" y2="194.2244710266792"></line><line style="stroke: #aaa; stroke-width: 1.41421;" x1="37.47740529937725" y1="114.74029640952077" x2="112.9721017509389" y2="191.48906506359017"></line><line style="stroke: #aaa; stroke-width: 1.41421;" x1="105.24617966535494" y1="116.31578432910578" x2="39.74206988832357" y2="194.2244710266792"></line><line style="stroke: #aaa; stroke-width: 1;" x1="105.24617966535494" y1="116.31578432910578" x2="182.55247392308704" y2="118.7062305189523"></line><line style="stroke: #aaa; stroke-width: 1;" x1="105.24617966535494" y1="116.31578432910578" x2="112.9721017509389" y2="191.48906506359017"></line><line style="stroke: #aaa; stroke-width: 1.41421;" x1="105.24617966535494" y1="116.31578432910578" x2="189.35016736510596" y2="187.94384948357168"></line><line style="stroke: #aaa; stroke-width: 1.41421;" x1="182.55247392308704" y1="118.7062305189523" x2="112.9721017509389" y2="191.48906506359017"></line><line style="stroke: #aaa; stroke-width: 1;" x1="182.55247392308704" y1="118.7062305189523" x2="270.44366390945953" y2="116.64456262044774"></line><line style="stroke: #aaa; stroke-width: 1;" x1="182.55247392308704" y1="118.7062305189523" x2="189.35016736510596" y2="187.94384948357168"></line><line style="stroke: #aaa; stroke-width: 1.41421;" x1="182.55247392308704" y1="118.7062305189523" x2="264.37928580629506" y2="190.3254694105634"></line><line style="stroke: #aaa; stroke-width: 1.41421;" x1="270.44366390945953" y1="116.64456262044774" x2="189.35016736510596" y2="187.94384948357168"></line><line style="stroke: #aaa; stroke-width: 1;" x1="270.44366390945953" y1="116.64456262044774" x2="343.8899392120179" y2="120.76642737364773"></line><line style="stroke: #aaa; stroke-width: 1;" x1="270.44366390945953" y1="116.64456262044774" x2="264.37928580629506" y2="190.3254694105634"></line><line style="stroke: #aaa; stroke-width: 1.41421;" x1="270.44366390945953" y1="116.64456262044774" x2="338.48753082296474" y2="196.34203858993092"></line><line style="stroke: #aaa; stroke-width: 1.41421;" x1="343.8899392120179" y1="120.76642737364773" x2="264.37928580629506" y2="190.3254694105634"></line><line style="stroke: #aaa; stroke-width: 1;" x1="343.8899392120179" y1="120.76642737364773" x2="412.2978894682844" y2="125.89963474562893"></line><line style="stroke: #aaa; stroke-width: 1;" x1="343.8899392120179" y1="120.76642737364773" x2="338.48753082296474" y2="196.34203858993092"></line><line style="stroke: #aaa; stroke-width: 1.41421;" x1="343.8899392120179" y1="120.76642737364773" x2="411.6256224475091" y2="199.6004006271679"></line><line style="stroke: #aaa; stroke-width: 1.41421;" x1="412.2978894682844" y1="125.89963474562893" x2="338.48753082296474" y2="196.34203858993092"></line><line style="stroke: #aaa; stroke-width: 1;" x1="412.2978894682844" y1="125.89963474562893" x2="480.361615473213" y2="123.57979865862094"></line><line style="stroke: #aaa; stroke-width: 1;" x1="412.2978894682844" y1="125.89963474562893" x2="411.6256224475091" y2="199.6004006271679"></line><line style="stroke: #aaa; stroke-width: 1.41421;" x1="412.2978894682844" y1="125.89963474562893" x2="484.34961523978154" y2="199.48713025386436"></line><line style="stroke: #aaa; stroke-width: 1.41421;" x1="480.361615473213" y1="123.57979865862094" x2="411.6256224475091" y2="199.6004006271679"></line><line style="stroke: #aaa; stroke-width: 1;" x1="480.361615473213" y1="123.57979865862094" x2="552.9620405855179" y2="123.98212914041973"></line><line style="stroke: #aaa; stroke-width: 1;" x1="480.361615473213" y1="123.57979865862094" x2="484.34961523978154" y2="199.48713025386436"></line><line style="stroke: #aaa; stroke-width: 1.41421;" x1="480.361615473213" y1="123.57979865862094" x2="558.1040742203539" y2="196.6215369136668"></line><line style="stroke: #aaa; stroke-width: 1.41421;" x1="552.9620405855179" y1="123.98212914041973" x2="484.34961523978154" y2="199.48713025386436"></line><line style="stroke: #aaa; stroke-width: 1;" x1="552.9620405855179" y1="123.98212914041973" x2="639.1107791799686" y2="128.42541696591599"></line><line style="stroke: #aaa; stroke-width: 1;" x1="552.9620405855179" y1="123.98212914041973" x2="558.1040742203539" y2="196.6215369136668"></line><line style="stroke: #aaa; stroke-width: 1.41421;" x1="552.9620405855179" y1="123.98212914041973" x2="632.8404549435251" y2="197.12684046210518"></line><line style="stroke: #aaa; stroke-width: 1.41421;" x1="639.1107791799686" y1="128.42541696591599" x2="558.1040742203539" y2="196.6215369136668"></line><line style="stroke: #aaa; stroke-width: 1;" x1="639.1107791799686" y1="128.42541696591599" x2="711.0624739724444" y2="123.79530657665941"></line><line style="stroke: #aaa; stroke-width: 1;" x1="639.1107791799686" y1="128.42541696591599" x2="632.8404549435251" y2="197.12684046210518"></line><line style="stroke: #aaa; stroke-width: 1.41421;" x1="639.1107791799686" y1="128.42541696591599" x2="709.1905707253184" y2="200.32268313745382"></line><line style="stroke: #aaa; stroke-width: 1.41421;" x1="711.0624739724444" y1="123.79530657665941" x2="632.8404549435251" y2="197.12684046210518"></line><line style="stroke: #aaa; stroke-width: 1;" x1="711.0624739724444" y1="123.79530657665941" x2="775.9031429915553" y2="116.49819376143867"></line><line style="stroke: #aaa; stroke-width: 1;" x1="711.0624739724444" y1="123.79530657665941" x2="709.1905707253184" y2="200.32268313745382"></line><line style="stroke: #aaa; stroke-width: 1.41421;" x1="711.0624739724444" y1="123.79530657665941" x2="780" y2="199.82620585187027"></line><line style="stroke: #aaa; stroke-width: 1.41421;" x1="775.9031429915553" y1="116.49819376143867" x2="709.1905707253184" y2="200.32268313745382"></line><line style="stroke: #aaa; stroke-width: 1;" x1="39.74206988832357" y1="194.2244710266792" x2="112.9721017509389" y2="191.48906506359017"></line><line style="stroke: #aaa; stroke-width: 1;" x1="39.74206988832357" y1="194.2244710266792" x2="44.47544755298153" y2="268.1297119976881"></line><line style="stroke: #aaa; stroke-width: 1.41421;" x1="39.74206988832357" y1="194.2244710266792" x2="118.70549499704774" y2="265.1059814480084"></line><line style="stroke: #aaa; stroke-width: 1.41421;" x1="112.9721017509389" y1="191.48906506359017" x2="44.47544755298153" y2="268.1297119976881"></line><line style="stroke: #aaa; stroke-width: 1;" x1="112.9721017509389" y1="191.48906506359017" x2="189.35016736510596" y2="187.94384948357168"></line><line style="stroke: #aaa; stroke-width: 1;" x1="112.9721017509389" y1="191.48906506359017" x2="118.70549499704774" y2="265.1059814480084"></line><line style="stroke: #aaa; stroke-width: 1.41421;" x1="112.9721017509389" y1="191.48906506359017" x2="191.5258411588186" y2="264.5381585376818"></line><line style="stroke: #aaa; stroke-width: 1.41421;" x1="189.35016736510596" y1="187.94384948357168" x2="118.70549499704774" y2="265.1059814480084"></line><line style="stroke: #aaa; stroke-width: 1;" x1="189.35016736510596" y1="187.94384948357168" x2="264.37928580629506" y2="190.3254694105634"></line><line style="stroke: #aaa; stroke-width: 1;" x1="189.35016736510596" y1="187.94384948357168" x2="191.5258411588186" y2="264.5381585376818"></line><line style="stroke: #aaa; stroke-width: 1.41421;" x1="189.35016736510596" y1="187.94384948357168" x2="263.8739822578567" y2="266.60644613332744"></line><line style="stroke: #aaa; stroke-width: 1.41421;" x1="264.37928580629506" y1="190.3254694105634" x2="191.5258411588186" y2="264.5381585376818"></line><line style="stroke: #aaa; stroke-width: 1;" x1="264.37928580629506" y1="190.3254694105634" x2="338.48753082296474" y2="196.34203858993092"></line><line style="stroke: #aaa; stroke-width: 1;" x1="264.37928580629506" y1="190.3254694105634" x2="263.8739822578567" y2="266.60644613332744"></line><line style="stroke: #aaa; stroke-width: 1.41421;" x1="264.37928580629506" y1="190.3254694105634" x2="337.2937787718506" y2="270.1067948771673"></line><line style="stroke: #aaa; stroke-width: 1.41421;" x1="338.48753082296474" y1="196.34203858993092" x2="263.8739822578567" y2="266.60644613332744"></line><line style="stroke: #aaa; stroke-width: 1;" x1="338.48753082296474" y1="196.34203858993092" x2="411.6256224475091" y2="199.6004006271679"></line><line style="stroke: #aaa; stroke-width: 1;" x1="338.48753082296474" y1="196.34203858993092" x2="337.2937787718506" y2="270.1067948771673"></line><line style="stroke: #aaa; stroke-width: 1.41421;" x1="338.48753082296474" y1="196.34203858993092" x2="411.6101764875132" y2="272.8981005050035"></line><line style="stroke: #aaa; stroke-width: 1.41421;" x1="411.6256224475091" y1="199.6004006271679" x2="337.2937787718506" y2="270.1067948771673"></line><line style="stroke: #aaa; stroke-width: 1;" x1="411.6256224475091" y1="199.6004006271679" x2="484.34961523978154" y2="199.48713025386436"></line><line style="stroke: #aaa; stroke-width: 1;" x1="411.6256224475091" y1="199.6004006271679" x2="411.6101764875132" y2="272.8981005050035"></line><line style="stroke: #aaa; stroke-width: 1.41421;" x1="411.6256224475091" y1="199.6004006271679" x2="485.5573422070825" y2="272.9253148154725"></line><line style="stroke: #aaa; stroke-width: 1.41421;" x1="484.34961523978154" y1="199.48713025386436" x2="411.6101764875132" y2="272.8981005050035"></line><line style="stroke: #aaa; stroke-width: 1;" x1="484.34961523978154" y1="199.48713025386436" x2="558.1040742203539" y2="196.6215369136668"></line><line style="stroke: #aaa; stroke-width: 1;" x1="484.34961523978154" y1="199.48713025386436" x2="485.5573422070825" y2="272.9253148154725"></line><line style="stroke: #aaa; stroke-width: 1.41421;" x1="484.34961523978154" y1="199.48713025386436" x2="558.3894567193264" y2="271.85586596623045"></line><line style="stroke: #aaa; stroke-width: 1.41421;" x1="558.1040742203539" y1="196.6215369136668" x2="485.5573422070825" y2="272.9253148154725"></line><line style="stroke: #aaa; stroke-width: 1;" x1="558.1040742203539" y1="196.6215369136668" x2="632.8404549435251" y2="197.12684046210518"></line><line style="stroke: #aaa; stroke-width: 1;" x1="558.1040742203539" y1="196.6215369136668" x2="558.3894567193264" y2="271.85586596623045"></line><line style="stroke: #aaa; stroke-width: 1.41421;" x1="558.1040742203539" y1="196.6215369136668" x2="631.4245752772312" y2="272.2258334842282"></line><line style="stroke: #aaa; stroke-width: 1.41421;" x1="632.8404549435251" y1="197.12684046210518" x2="558.3894567193264" y2="271.85586596623045"></line><line style="stroke: #aaa; stroke-width: 1;" x1="632.8404549435251" y1="197.12684046210518" x2="709.1905707253184" y2="200.32268313745382"></line><line style="stroke: #aaa; stroke-width: 1;" x1="632.8404549435251" y1="197.12684046210518" x2="631.4245752772312" y2="272.2258334842282"></line><line style="stroke: #aaa; stroke-width: 1.41421;" x1="632.8404549435251" y1="197.12684046210518" x2="704.5803194274852" y2="274.95020661874867"></line><line style="stroke: #aaa; stroke-width: 1.41421;" x1="709.1905707253184" y1="200.32268313745382" x2="631.4245752772312" y2="272.2258334842282"></line><line style="stroke: #aaa; stroke-width: 1;" x1="709.1905707253184" y1="200.32268313745382" x2="780" y2="199.82620585187027"></line><line style="stroke: #aaa; stroke-width: 1;" x1="709.1905707253184" y1="200.32268313745382" x2="704.5803194274852" y2="274.95020661874867"></line><line style="stroke: #aaa; stroke-width: 1.41421;" x1="709.1905707253184" y1="200.32268313745382" x2="776.7784140579914" y2="279.0242624481517"></line><line style="stroke: #aaa; stroke-width: 1.41421;" x1="780" y1="199.82620585187027" x2="704.5803194274852" y2="274.95020661874867"></line><line style="stroke: #aaa; stroke-width: 1;" x1="44.47544755298153" y1="268.1297119976881" x2="118.70549499704774" y2="265.1059814480084"></line><line style="stroke: #aaa; stroke-width: 1;" x1="44.47544755298153" y1="268.1297119976881" x2="46.56153477871776" y2="339.3819254589196"></line><line style="stroke: #aaa; stroke-width: 1.41421;" x1="44.47544755298153" y1="268.1297119976881" x2="120.55165497751382" y2="340.01962295018023"></line><line style="stroke: #aaa; stroke-width: 1.41421;" x1="118.70549499704774" y1="265.1059814480084" x2="46.56153477871776" y2="339.3819254589196"></line><line style="stroke: #aaa; stroke-width: 1;" x1="118.70549499704774" y1="265.1059814480084" x2="191.5258411588186" y2="264.5381585376818"></line><line style="stroke: #aaa; stroke-width: 1;" x1="118.70549499704774" y1="265.1059814480084" x2="120.55165497751382" y2="340.01962295018023"></line><line style="stroke: #aaa; stroke-width: 1.41421;" x1="118.70549499704774" y1="265.1059814480084" x2="192.89023429179252" y2="341.1479135517879"></line><line style="stroke: #aaa; stroke-width: 1.41421;" x1="191.5258411588186" y1="264.5381585376818" x2="120.55165497751382" y2="340.01962295018023"></line><line style="stroke: #aaa; stroke-width: 1;" x1="191.5258411588186" y1="264.5381585376818" x2="263.8739822578567" y2="266.60644613332744"></line><line style="stroke: #aaa; stroke-width: 1;" x1="191.5258411588186" y1="264.5381585376818" x2="192.89023429179252" y2="341.1479135517879"></line><line style="stroke: #aaa; stroke-width: 1.41421;" x1="191.5258411588186" y1="264.5381585376818" x2="265.0956841413444" y2="342.8396139322946"></line><line style="stroke: #aaa; stroke-width: 1.41421;" x1="263.8739822578567" y1="266.60644613332744" x2="192.89023429179252" y2="341.1479135517879"></line><line style="stroke: #aaa; stroke-width: 1;" x1="263.8739822578567" y1="266.60644613332744" x2="337.2937787718506" y2="270.1067948771673"></line><line style="stroke: #aaa; stroke-width: 1;" x1="263.8739822578567" y1="266.60644613332744" x2="265.0956841413444" y2="342.8396139322946"></line><line style="stroke: #aaa; stroke-width: 1.41421;" x1="263.8739822578567" y1="266.60644613332744" x2="338.2139166744654" y2="345.03367577362144"></line><line style="stroke: #aaa; stroke-width: 1.41421;" x1="337.2937787718506" y1="270.1067948771673" x2="265.0956841413444" y2="342.8396139322946"></line><line style="stroke: #aaa; stroke-width: 1;" x1="337.2937787718506" y1="270.1067948771673" x2="411.6101764875132" y2="272.8981005050035"></line><line style="stroke: #aaa; stroke-width: 1;" x1="337.2937787718506" y1="270.1067948771673" x2="338.2139166744654" y2="345.03367577362144"></line><line style="stroke: #aaa; stroke-width: 1.41421;" x1="337.2937787718506" y1="270.1067948771673" x2="412.2544936759149" y2="347.07548458070266"></line><line style="stroke: #aaa; stroke-width: 1.41421;" x1="411.6101764875132" y1="272.8981005050035" x2="338.2139166744654" y2="345.03367577362144"></line><line style="stroke: #aaa; stroke-width: 1;" x1="411.6101764875132" y1="272.8981005050035" x2="485.5573422070825" y2="272.9253148154725"></line><line style="stroke: #aaa; stroke-width: 1;" x1="411.6101764875132" y1="272.8981005050035" x2="412.2544936759149" y2="347.07548458070266"></line><line style="stroke: #aaa; stroke-width: 1.41421;" x1="411.6101764875132" y1="272.8981005050035" x2="485.8316918774864" y2="348.1684701308909"></line><line style="stroke: #aaa; stroke-width: 1.41421;" x1="485.5573422070825" y1="272.9253148154725" x2="412.2544936759149" y2="347.07548458070266"></line><line style="stroke: #aaa; stroke-width: 1;" x1="485.5573422070825" y1="272.9253148154725" x2="558.3894567193264" y2="271.85586596623045"></line><line style="stroke: #aaa; stroke-width: 1;" x1="485.5573422070825" y1="272.9253148154725" x2="485.8316918774864" y2="348.1684701308909"></line><line style="stroke: #aaa; stroke-width: 1.41421;" x1="485.5573422070825" y1="272.9253148154725" x2="557.5185987843178" y2="347.8485181024038"></line><line style="stroke: #aaa; stroke-width: 1.41421;" x1="558.3894567193264" y1="271.85586596623045" x2="485.8316918774864" y2="348.1684701308909"></line><line style="stroke: #aaa; stroke-width: 1;" x1="558.3894567193264" y1="271.85586596623045" x2="631.4245752772312" y2="272.2258334842282"></line><line style="stroke: #aaa; stroke-width: 1;" x1="558.3894567193264" y1="271.85586596623045" x2="557.5185987843178" y2="347.8485181024038"></line><line style="stroke: #aaa; stroke-width: 1.41421;" x1="558.3894567193264" y1="271.85586596623045" x2="628.2633021313973" y2="347.73671877290946"></line><line style="stroke: #aaa; stroke-width: 1.41421;" x1="631.4245752772312" y1="272.2258334842282" x2="557.5185987843178" y2="347.8485181024038"></line><line style="stroke: #aaa; stroke-width: 1;" x1="631.4245752772312" y1="272.2258334842282" x2="704.5803194274852" y2="274.95020661874867"></line><line style="stroke: #aaa; stroke-width: 1;" x1="631.4245752772312" y1="272.2258334842282" x2="628.2633021313973" y2="347.73671877290946"></line><line style="stroke: #aaa; stroke-width: 1.41421;" x1="631.4245752772312" y1="272.2258334842282" x2="700.5342134304558" y2="351.3047355319696"></line><line style="stroke: #aaa; stroke-width: 1.41421;" x1="704.5803194274852" y1="274.95020661874867" x2="628.2633021313973" y2="347.73671877290946"></line><line style="stroke: #aaa; stroke-width: 1;" x1="704.5803194274852" y1="274.95020661874867" x2="776.7784140579914" y2="279.0242624481517"></line><line style="stroke: #aaa; stroke-width: 1;" x1="704.5803194274852" y1="274.95020661874867" x2="700.5342134304558" y2="351.3047355319696"></line><line style="stroke: #aaa; stroke-width: 1.41421;" x1="704.5803194274852" y1="274.95020661874867" x2="771.659181602197" y2="356.51149509440756"></line><line style="stroke: #aaa; stroke-width: 1.41421;" x1="776.7784140579914" y1="279.0242624481517" x2="700.5342134304558" y2="351.3047355319696"></line><line style="stroke: #aaa; stroke-width: 1;" x1="46.56153477871776" y1="339.3819254589196" x2="120.55165497751382" y2="340.01962295018023"></line><line style="stroke: #aaa; stroke-width: 1;" x1="46.56153477871776" y1="339.3819254589196" x2="44.22706180580886" y2="409.806676777512"></line><line style="stroke: #aaa; stroke-width: 1.41421;" x1="46.56153477871776" y1="339.3819254589196" x2="119.39100141210527" y2="413.70052974029585"></line><line style="stroke: #aaa; stroke-width: 1.41421;" x1="120.55165497751382" y1="340.01962295018023" x2="44.22706180580886" y2="409.806676777512"></line><line style="stroke: #aaa; stroke-width: 1;" x1="120.55165497751382" y1="340.01962295018023" x2="192.89023429179252" y2="341.1479135517879"></line><line style="stroke: #aaa; stroke-width: 1;" x1="120.55165497751382" y1="340.01962295018023" x2="119.39100141210527" y2="413.70052974029585"></line><line style="stroke: #aaa; stroke-width: 1.41421;" x1="120.55165497751382" y1="340.01962295018023" x2="193.28226746692735" y2="416.6455594461868"></line><line style="stroke: #aaa; stroke-width: 1.41421;" x1="192.89023429179252" y1="341.1479135517879" x2="119.39100141210527" y2="413.70052974029585"></line><line style="stroke: #aaa; stroke-width: 1;" x1="192.89023429179252" y1="341.1479135517879" x2="265.0956841413444" y2="342.8396139322946"></line><line style="stroke: #aaa; stroke-width: 1;" x1="192.89023429179252" y1="341.1479135517879" x2="193.28226746692735" y2="416.6455594461868"></line><line style="stroke: #aaa; stroke-width: 1.41421;" x1="192.89023429179252" y1="341.1479135517879" x2="266.12100167631246" y2="418.714582563737"></line><line style="stroke: #aaa; stroke-width: 1.41421;" x1="265.0956841413444" y1="342.8396139322946" x2="193.28226746692735" y2="416.6455594461868"></line><line style="stroke: #aaa; stroke-width: 1;" x1="265.0956841413444" y1="342.8396139322946" x2="338.2139166744654" y2="345.03367577362144"></line><line style="stroke: #aaa; stroke-width: 1;" x1="265.0956841413444" y1="342.8396139322946" x2="266.12100167631246" y2="418.714582563737"></line><line style="stroke: #aaa; stroke-width: 1.41421;" x1="265.0956841413444" y1="342.8396139322946" x2="339.14214531803043" y2="420.4790996127961"></line><line style="stroke: #aaa; stroke-width: 1.41421;" x1="338.2139166744654" y1="345.03367577362144" x2="266.12100167631246" y2="418.714582563737"></line><line style="stroke: #aaa; stroke-width: 1;" x1="338.2139166744654" y1="345.03367577362144" x2="412.2544936759149" y2="347.07548458070266"></line><line style="stroke: #aaa; stroke-width: 1;" x1="338.2139166744654" y1="345.03367577362144" x2="339.14214531803043" y2="420.4790996127961"></line><line style="stroke: #aaa; stroke-width: 1.41421;" x1="338.2139166744654" y1="345.03367577362144" x2="412.8723320757521" y2="422.5157597665453"></line><line style="stroke: #aaa; stroke-width: 1.41421;" x1="412.2544936759149" y1="347.07548458070266" x2="339.14214531803043" y2="420.4790996127961"></line><line style="stroke: #aaa; stroke-width: 1;" x1="412.2544936759149" y1="347.07548458070266" x2="485.8316918774864" y2="348.1684701308909"></line><line style="stroke: #aaa; stroke-width: 1;" x1="412.2544936759149" y1="347.07548458070266" x2="412.8723320757521" y2="422.5157597665453"></line><line style="stroke: #aaa; stroke-width: 1.41421;" x1="412.2544936759149" y1="347.07548458070266" x2="486.2833023268912" y2="424.5722790117179"></line><line style="stroke: #aaa; stroke-width: 1.41421;" x1="485.8316918774864" y1="348.1684701308909" x2="412.8723320757521" y2="422.5157597665453"></line><line style="stroke: #aaa; stroke-width: 1;" x1="485.8316918774864" y1="348.1684701308909" x2="557.5185987843178" y2="347.8485181024038"></line><line style="stroke: #aaa; stroke-width: 1;" x1="485.8316918774864" y1="348.1684701308909" x2="486.2833023268912" y2="424.5722790117179"></line><line style="stroke: #aaa; stroke-width: 1.41421;" x1="485.8316918774864" y1="348.1684701308909" x2="557.763527578539" y2="425.9190196189822"></line><line style="stroke: #aaa; stroke-width: 1.41421;" x1="557.5185987843178" y1="347.8485181024038" x2="486.2833023268912" y2="424.5722790117179"></line><line style="stroke: #aaa; stroke-width: 1;" x1="557.5185987843178" y1="347.8485181024038" x2="628.2633021313973" y2="347.73671877290946"></line><line style="stroke: #aaa; stroke-width: 1;" x1="557.5185987843178" y1="347.8485181024038" x2="557.763527578539" y2="425.9190196189822"></line><line style="stroke: #aaa; stroke-width: 1.41421;" x1="557.5185987843178" y1="347.8485181024038" x2="625.7036859035002" y2="425.4740288667184"></line><line style="stroke: #aaa; stroke-width: 1.41421;" x1="628.2633021313973" y1="347.73671877290946" x2="557.763527578539" y2="425.9190196189822"></line><line style="stroke: #aaa; stroke-width: 1;" x1="628.2633021313973" y1="347.73671877290946" x2="700.5342134304558" y2="351.3047355319696"></line><line style="stroke: #aaa; stroke-width: 1;" x1="628.2633021313973" y1="347.73671877290946" x2="625.7036859035002" y2="425.4740288667184"></line><line style="stroke: #aaa; stroke-width: 1.41421;" x1="628.2633021313973" y1="347.73671877290946" x2="693.8806822817321" y2="425.31883374485454"></line><line style="stroke: #aaa; stroke-width: 1.41421;" x1="700.5342134304558" y1="351.3047355319696" x2="625.7036859035002" y2="425.4740288667184"></line><line style="stroke: #aaa; stroke-width: 1;" x1="700.5342134304558" y1="351.3047355319696" x2="771.659181602197" y2="356.51149509440756"></line><line style="stroke: #aaa; stroke-width: 1;" x1="700.5342134304558" y1="351.3047355319696" x2="693.8806822817321" y2="425.31883374485454"></line><line style="stroke: #aaa; stroke-width: 1.41421;" x1="700.5342134304558" y1="351.3047355319696" x2="764.5216770402676" y2="435.9758106201427"></line><line style="stroke: #aaa; stroke-width: 1.41421;" x1="771.659181602197" y1="356.51149509440756" x2="693.8806822817321" y2="425.31883374485454"></line><line style="stroke: #aaa; stroke-width: 1;" x1="44.22706180580886" y1="409.806676777512" x2="119.39100141210527" y2="413.70052974029585"></line><line style="stroke: #aaa; stroke-width: 1;" x1="44.22706180580886" y1="409.806676777512" x2="39.81944679268415" y2="480.2726173227602"></line><line style="stroke: #aaa; stroke-width: 1.41421;" x1="44.22706180580886" y1="409.806676777512" x2="115.53098245693155" y2="484.5607100263926"></line><line style="stroke: #aaa; stroke-width: 1.41421;" x1="119.39100141210527" y1="413.70052974029585" x2="39.81944679268415" y2="480.2726173227602"></line><line style="stroke: #aaa; stroke-width: 1;" x1="119.39100141210527" y1="413.70052974029585" x2="193.28226746692735" y2="416.6455594461868"></line><line style="stroke: #aaa; stroke-width: 1;" x1="119.39100141210527" y1="413.70052974029585" x2="115.53098245693155" y2="484.5607100263926"></line><line style="stroke: #aaa; stroke-width: 1.41421;" x1="119.39100141210527" y1="413.70052974029585" x2="191.74870429590274" y2="490.32131758297044"></line><line style="stroke: #aaa; stroke-width: 1.41421;" x1="193.28226746692735" y1="416.6455594461868" x2="115.53098245693155" y2="484.5607100263926"></line><line style="stroke: #aaa; stroke-width: 1;" x1="193.28226746692735" y1="416.6455594461868" x2="266.12100167631246" y2="418.714582563737"></line><line style="stroke: #aaa; stroke-width: 1;" x1="193.28226746692735" y1="416.6455594461868" x2="191.74870429590274" y2="490.32131758297044"></line><line style="stroke: #aaa; stroke-width: 1.41421;" x1="193.28226746692735" y1="416.6455594461868" x2="266.2651639696078" y2="494.32696987524866"></line><line style="stroke: #aaa; stroke-width: 1.41421;" x1="266.12100167631246" y1="418.714582563737" x2="191.74870429590274" y2="490.32131758297044"></line><line style="stroke: #aaa; stroke-width: 1;" x1="266.12100167631246" y1="418.714582563737" x2="339.14214531803043" y2="420.4790996127961"></line><line style="stroke: #aaa; stroke-width: 1;" x1="266.12100167631246" y1="418.714582563737" x2="266.2651639696078" y2="494.32696987524866"></line><line style="stroke: #aaa; stroke-width: 1.41421;" x1="266.12100167631246" y1="418.714582563737" x2="339.4893116569866" y2="496.18416268428325"></line><line style="stroke: #aaa; stroke-width: 1.41421;" x1="339.14214531803043" y1="420.4790996127961" x2="266.2651639696078" y2="494.32696987524866"></line><line style="stroke: #aaa; stroke-width: 1;" x1="339.14214531803043" y1="420.4790996127961" x2="412.8723320757521" y2="422.5157597665453"></line><line style="stroke: #aaa; stroke-width: 1;" x1="339.14214531803043" y1="420.4790996127961" x2="339.4893116569866" y2="496.18416268428325"></line><line style="stroke: #aaa; stroke-width: 1.41421;" x1="339.14214531803043" y1="420.4790996127961" x2="412.870861031943" y2="497.978100609525"></line><line style="stroke: #aaa; stroke-width: 1.41421;" x1="412.8723320757521" y1="422.5157597665453" x2="339.4893116569866" y2="496.18416268428325"></line><line style="stroke: #aaa; stroke-width: 1;" x1="412.8723320757521" y1="422.5157597665453" x2="486.2833023268912" y2="424.5722790117179"></line><line style="stroke: #aaa; stroke-width: 1;" x1="412.8723320757521" y1="422.5157597665453" x2="412.870861031943" y2="497.978100609525"></line><line style="stroke: #aaa; stroke-width: 1.41421;" x1="412.8723320757521" y1="422.5157597665453" x2="486.39583717829015" y2="501.2224877305752"></line><line style="stroke: #aaa; stroke-width: 1.41421;" x1="486.2833023268912" y1="424.5722790117179" x2="412.870861031943" y2="497.978100609525"></line><line style="stroke: #aaa; stroke-width: 1;" x1="486.2833023268912" y1="424.5722790117179" x2="557.763527578539" y2="425.9190196189822"></line><line style="stroke: #aaa; stroke-width: 1;" x1="486.2833023268912" y1="424.5722790117179" x2="486.39583717829015" y2="501.2224877305752"></line><line style="stroke: #aaa; stroke-width: 1.41421;" x1="486.2833023268912" y1="424.5722790117179" x2="558.2217577250849" y2="504.7574060039297"></line><line style="stroke: #aaa; stroke-width: 1.41421;" x1="557.763527578539" y1="425.9190196189822" x2="486.39583717829015" y2="501.2224877305752"></line><line style="stroke: #aaa; stroke-width: 1;" x1="557.763527578539" y1="425.9190196189822" x2="625.7036859035002" y2="425.4740288667184"></line><line style="stroke: #aaa; stroke-width: 1;" x1="557.763527578539" y1="425.9190196189822" x2="558.2217577250849" y2="504.7574060039297"></line><line style="stroke: #aaa; stroke-width: 1.41421;" x1="557.763527578539" y1="425.9190196189822" x2="627.1982664135826" y2="506.88012222051356"></line><line style="stroke: #aaa; stroke-width: 1.41421;" x1="625.7036859035002" y1="425.4740288667184" x2="558.2217577250849" y2="504.7574060039297"></line><line style="stroke: #aaa; stroke-width: 1;" x1="625.7036859035002" y1="425.4740288667184" x2="693.8806822817321" y2="425.31883374485454"></line><line style="stroke: #aaa; stroke-width: 1;" x1="625.7036859035002" y1="425.4740288667184" x2="627.1982664135826" y2="506.88012222051356"></line><line style="stroke: #aaa; stroke-width: 1.41421;" x1="625.7036859035002" y1="425.4740288667184" x2="691.2990003966979" y2="502.8259254825338"></line><line style="stroke: #aaa; stroke-width: 1.41421;" x1="693.8806822817321" y1="425.31883374485454" x2="627.1982664135826" y2="506.88012222051356"></line><line style="stroke: #aaa; stroke-width: 1;" x1="693.8806822817321" y1="425.31883374485454" x2="764.5216770402676" y2="435.9758106201427"></line><line style="stroke: #aaa; stroke-width: 1;" x1="693.8806822817321" y1="425.31883374485454" x2="691.2990003966979" y2="502.8259254825338"></line><line style="stroke: #aaa; stroke-width: 1.41421;" x1="693.8806822817321" y1="425.31883374485454" x2="731.3805310642354" y2="516.5948955360498"></line><line style="stroke: #aaa; stroke-width: 1.41421;" x1="764.5216770402676" y1="435.9758106201427" x2="691.2990003966979" y2="502.8259254825338"></line><line style="stroke: #aaa; stroke-width: 1;" x1="39.81944679268415" y1="480.2726173227602" x2="115.53098245693155" y2="484.5607100263926"></line><line style="stroke: #aaa; stroke-width: 1;" x1="39.81944679268415" y1="480.2726173227602" x2="37.22679827605279" y2="552.4412910770837"></line><line style="stroke: #aaa; stroke-width: 1.41421;" x1="39.81944679268415" y1="480.2726173227602" x2="110.34261094210773" y2="554.8618936650174"></line><line style="stroke: #aaa; stroke-width: 1.41421;" x1="115.53098245693155" y1="484.5607100263926" x2="37.22679827605279" y2="552.4412910770837"></line><line style="stroke: #aaa; stroke-width: 1;" x1="115.53098245693155" y1="484.5607100263926" x2="191.74870429590274" y2="490.32131758297044"></line><line style="stroke: #aaa; stroke-width: 1;" x1="115.53098245693155" y1="484.5607100263926" x2="110.34261094210773" y2="554.8618936650174"></line><line style="stroke: #aaa; stroke-width: 1.41421;" x1="115.53098245693155" y1="484.5607100263926" x2="185.92337081172292" y2="560.0002496903307"></line><line style="stroke: #aaa; stroke-width: 1.41421;" x1="191.74870429590274" y1="490.32131758297044" x2="110.34261094210773" y2="554.8618936650174"></line><line style="stroke: #aaa; stroke-width: 1;" x1="191.74870429590274" y1="490.32131758297044" x2="266.2651639696078" y2="494.32696987524866"></line><line style="stroke: #aaa; stroke-width: 1;" x1="191.74870429590274" y1="490.32131758297044" x2="185.92337081172292" y2="560.0002496903307"></line><line style="stroke: #aaa; stroke-width: 1.41421;" x1="191.74870429590274" y1="490.32131758297044" x2="264.94343110709883" y2="568.5852613604502"></line><line style="stroke: #aaa; stroke-width: 1.41421;" x1="266.2651639696078" y1="494.32696987524866" x2="185.92337081172292" y2="560.0002496903307"></line><line style="stroke: #aaa; stroke-width: 1;" x1="266.2651639696078" y1="494.32696987524866" x2="339.4893116569866" y2="496.18416268428325"></line><line style="stroke: #aaa; stroke-width: 1;" x1="266.2651639696078" y1="494.32696987524866" x2="264.94343110709883" y2="568.5852613604502"></line><line style="stroke: #aaa; stroke-width: 1.41421;" x1="266.2651639696078" y1="494.32696987524866" x2="340.367524811041" y2="572.2121198718759"></line><line style="stroke: #aaa; stroke-width: 1.41421;" x1="339.4893116569866" y1="496.18416268428325" x2="264.94343110709883" y2="568.5852613604502"></line><line style="stroke: #aaa; stroke-width: 1;" x1="339.4893116569866" y1="496.18416268428325" x2="412.870861031943" y2="497.978100609525"></line><line style="stroke: #aaa; stroke-width: 1;" x1="339.4893116569866" y1="496.18416268428325" x2="340.367524811041" y2="572.2121198718759"></line><line style="stroke: #aaa; stroke-width: 1.41421;" x1="339.4893116569866" y1="496.18416268428325" x2="412.68256742437353" y2="573.5743064391361"></line><line style="stroke: #aaa; stroke-width: 1.41421;" x1="412.870861031943" y1="497.978100609525" x2="340.367524811041" y2="572.2121198718759"></line><line style="stroke: #aaa; stroke-width: 1;" x1="412.870861031943" y1="497.978100609525" x2="486.39583717829015" y2="501.2224877305752"></line><line style="stroke: #aaa; stroke-width: 1;" x1="412.870861031943" y1="497.978100609525" x2="412.68256742437353" y2="573.5743064391361"></line><line style="stroke: #aaa; stroke-width: 1.41421;" x1="412.870861031943" y1="497.978100609525" x2="484.818878214896" y2="576.9915412077598"></line><line style="stroke: #aaa; stroke-width: 1.41421;" x1="486.39583717829015" y1="501.2224877305752" x2="412.68256742437353" y2="573.5743064391361"></line><line style="stroke: #aaa; stroke-width: 1;" x1="486.39583717829015" y1="501.2224877305752" x2="558.2217577250849" y2="504.7574060039297"></line><line style="stroke: #aaa; stroke-width: 1;" x1="486.39583717829015" y1="501.2224877305752" x2="484.818878214896" y2="576.9915412077598"></line><line style="stroke: #aaa; stroke-width: 1.41421;" x1="486.39583717829015" y1="501.2224877305752" x2="557.2118861501128" y2="583.5060587165201"></line><line style="stroke: #aaa; stroke-width: 1.41421;" x1="558.2217577250849" y1="504.7574060039297" x2="484.818878214896" y2="576.9915412077598"></line><line style="stroke: #aaa; stroke-width: 1;" x1="558.2217577250849" y1="504.7574060039297" x2="627.1982664135826" y2="506.88012222051356"></line><line style="stroke: #aaa; stroke-width: 1;" x1="558.2217577250849" y1="504.7574060039297" x2="557.2118861501128" y2="583.5060587165201"></line><line style="stroke: #aaa; stroke-width: 1.41421;" x1="558.2217577250849" y1="504.7574060039297" x2="627.8036009410422" y2="588.1655899819593"></line><line style="stroke: #aaa; stroke-width: 1.41421;" x1="627.1982664135826" y1="506.88012222051356" x2="557.2118861501128" y2="583.5060587165201"></line><line style="stroke: #aaa; stroke-width: 1;" x1="627.1982664135826" y1="506.88012222051356" x2="691.2990003966979" y2="502.8259254825338"></line><line style="stroke: #aaa; stroke-width: 1;" x1="627.1982664135826" y1="506.88012222051356" x2="627.8036009410422" y2="588.1655899819593"></line><line style="stroke: #aaa; stroke-width: 1.41421;" x1="627.1982664135826" y1="506.88012222051356" x2="695.8334929383606" y2="590.0323445757533"></line><line style="stroke: #aaa; stroke-width: 1.41421;" x1="691.2990003966979" y1="502.8259254825338" x2="627.8036009410422" y2="588.1655899819593"></line><line style="stroke: #aaa; stroke-width: 1;" x1="691.2990003966979" y1="502.8259254825338" x2="731.3805310642354" y2="516.5948955360498"></line><line style="stroke: #aaa; stroke-width: 1;" x1="691.2990003966979" y1="502.8259254825338" x2="695.8334929383606" y2="590.0323445757533"></line><line style="stroke: #aaa; stroke-width: 1.41421;" x1="691.2990003966979" y1="502.8259254825338" x2="652.0993604927377" y2="581.7459547988884"></line><line style="stroke: #aaa; stroke-width: 1.41421;" x1="731.3805310642354" y1="516.5948955360498" x2="695.8334929383606" y2="590.0323445757533"></line><line style="stroke: #aaa; stroke-width: 1;" x1="37.22679827605279" y1="552.4412910770837" x2="110.34261094210773" y2="554.8618936650174"></line><line style="stroke: #aaa; stroke-width: 1;" x1="37.22679827605279" y1="552.4412910770837" x2="32.90932882755195" y2="622.9440077175603"></line><line style="stroke: #aaa; stroke-width: 1.41421;" x1="37.22679827605279" y1="552.4412910770837" x2="107.26298072768084" y2="630.2021378718389"></line><line style="stroke: #aaa; stroke-width: 1.41421;" x1="110.34261094210773" y1="554.8618936650174" x2="32.90932882755195" y2="622.9440077175603"></line><line style="stroke: #aaa; stroke-width: 1;" x1="110.34261094210773" y1="554.8618936650174" x2="185.92337081172292" y2="560.0002496903307"></line><line style="stroke: #aaa; stroke-width: 1;" x1="110.34261094210773" y1="554.8618936650174" x2="107.26298072768084" y2="630.2021378718389"></line><line style="stroke: #aaa; stroke-width: 1.41421;" x1="110.34261094210773" y1="554.8618936650174" x2="177.74436723292496" y2="628.4287945599251"></line><line style="stroke: #aaa; stroke-width: 1.41421;" x1="185.92337081172292" y1="560.0002496903307" x2="107.26298072768084" y2="630.2021378718389"></line><line style="stroke: #aaa; stroke-width: 1;" x1="185.92337081172292" y1="560.0002496903307" x2="264.94343110709883" y2="568.5852613604502"></line><line style="stroke: #aaa; stroke-width: 1;" x1="185.92337081172292" y1="560.0002496903307" x2="177.74436723292496" y2="628.4287945599251"></line><line style="stroke: #aaa; stroke-width: 1.41421;" x1="185.92337081172292" y1="560.0002496903307" x2="257.32342417577263" y2="632.4256205893485"></line><line style="stroke: #aaa; stroke-width: 1.41421;" x1="264.94343110709883" y1="568.5852613604502" x2="177.74436723292496" y2="628.4287945599251"></line><line style="stroke: #aaa; stroke-width: 1;" x1="264.94343110709883" y1="568.5852613604502" x2="340.367524811041" y2="572.2121198718759"></line><line style="stroke: #aaa; stroke-width: 1;" x1="264.94343110709883" y1="568.5852613604502" x2="257.32342417577263" y2="632.4256205893485"></line><line style="stroke: #aaa; stroke-width: 1.41421;" x1="264.94343110709883" y1="568.5852613604502" x2="342.7123686428043" y2="648.1922681356716"></line><line style="stroke: #aaa; stroke-width: 1.41421;" x1="340.367524811041" y1="572.2121198718759" x2="257.32342417577263" y2="632.4256205893485"></line><line style="stroke: #aaa; stroke-width: 1;" x1="340.367524811041" y1="572.2121198718759" x2="412.68256742437353" y2="573.5743064391361"></line><line style="stroke: #aaa; stroke-width: 1;" x1="340.367524811041" y1="572.2121198718759" x2="342.7123686428043" y2="648.1922681356716"></line><line style="stroke: #aaa; stroke-width: 1.41421;" x1="340.367524811041" y1="572.2121198718759" x2="414.2837986106184" y2="651.4432749538629"></line><line style="stroke: #aaa; stroke-width: 1.41421;" x1="412.68256742437353" y1="573.5743064391361" x2="342.7123686428043" y2="648.1922681356716"></line><line style="stroke: #aaa; stroke-width: 1;" x1="412.68256742437353" y1="573.5743064391361" x2="484.818878214896" y2="576.9915412077598"></line><line style="stroke: #aaa; stroke-width: 1;" x1="412.68256742437353" y1="573.5743064391361" x2="414.2837986106184" y2="651.4432749538629"></line><line style="stroke: #aaa; stroke-width: 1.41421;" x1="412.68256742437353" y1="573.5743064391361" x2="481.764991267129" y2="653.6160066599572"></line><line style="stroke: #aaa; stroke-width: 1.41421;" x1="484.818878214896" y1="576.9915412077598" x2="414.2837986106184" y2="651.4432749538629"></line><line style="stroke: #aaa; stroke-width: 1;" x1="484.818878214896" y1="576.9915412077598" x2="557.2118861501128" y2="583.5060587165201"></line><line style="stroke: #aaa; stroke-width: 1;" x1="484.818878214896" y1="576.9915412077598" x2="481.764991267129" y2="653.6160066599572"></line><line style="stroke: #aaa; stroke-width: 1.41421;" x1="484.818878214896" y1="576.9915412077598" x2="549.7551650816008" y2="661.3794403626742"></line><line style="stroke: #aaa; stroke-width: 1.41421;" x1="557.2118861501128" y1="583.5060587165201" x2="481.764991267129" y2="653.6160066599572"></line><line style="stroke: #aaa; stroke-width: 1;" x1="557.2118861501128" y1="583.5060587165201" x2="627.8036009410422" y2="588.1655899819593"></line><line style="stroke: #aaa; stroke-width: 1;" x1="557.2118861501128" y1="583.5060587165201" x2="549.7551650816008" y2="661.3794403626742"></line><line style="stroke: #aaa; stroke-width: 1.41421;" x1="557.2118861501128" y1="583.5060587165201" x2="626.044232545315" y2="668.6022654655336"></line><line style="stroke: #aaa; stroke-width: 1.41421;" x1="627.8036009410422" y1="588.1655899819593" x2="549.7551650816008" y2="661.3794403626742"></line><line style="stroke: #aaa; stroke-width: 1;" x1="627.8036009410422" y1="588.1655899819593" x2="695.8334929383606" y2="590.0323445757533"></line><line style="stroke: #aaa; stroke-width: 1;" x1="627.8036009410422" y1="588.1655899819593" x2="626.044232545315" y2="668.6022654655336"></line><line style="stroke: #aaa; stroke-width: 1.41421;" x1="627.8036009410422" y1="588.1655899819593" x2="714.3046545277809" y2="656.3102233963905"></line><line style="stroke: #aaa; stroke-width: 1.41421;" x1="695.8334929383606" y1="590.0323445757533" x2="626.044232545315" y2="668.6022654655336"></line><line style="stroke: #aaa; stroke-width: 1;" x1="695.8334929383606" y1="590.0323445757533" x2="652.0993604927377" y2="581.7459547988884"></line><line style="stroke: #aaa; stroke-width: 1;" x1="695.8334929383606" y1="590.0323445757533" x2="714.3046545277809" y2="656.3102233963905"></line><line style="stroke: #aaa; stroke-width: 1.41421;" x1="695.8334929383606" y1="590.0323445757533" x2="632.7838197568731" y2="668.9884144654319"></line><line style="stroke: #aaa; stroke-width: 1.41421;" x1="652.0993604927377" y1="581.7459547988884" x2="714.3046545277809" y2="656.3102233963905"></line><line style="stroke: #aaa; stroke-width: 1;" x1="32.90932882755195" y1="622.9440077175603" x2="107.26298072768084" y2="630.2021378718389"></line><line style="stroke: #aaa; stroke-width: 1;" x1="32.90932882755195" y1="622.9440077175603" x2="20" y2="691.2394231224279"></line><line style="stroke: #aaa; stroke-width: 1.41421;" x1="32.90932882755195" y1="622.9440077175603" x2="102.1789062189248" y2="700.1907247010224"></line><line style="stroke: #aaa; stroke-width: 1.41421;" x1="107.26298072768084" y1="630.2021378718389" x2="20" y2="691.2394231224279"></line><line style="stroke: #aaa; stroke-width: 1;" x1="107.26298072768084" y1="630.2021378718389" x2="177.74436723292496" y2="628.4287945599251"></line><line style="stroke: #aaa; stroke-width: 1;" x1="107.26298072768084" y1="630.2021378718389" x2="102.1789062189248" y2="700.1907247010224"></line><line style="stroke: #aaa; stroke-width: 1.41421;" x1="107.26298072768084" y1="630.2021378718389" x2="193.22489675837105" y2="695.509127778446"></line><line style="stroke: #aaa; stroke-width: 1.41421;" x1="177.74436723292496" y1="628.4287945599251" x2="102.1789062189248" y2="700.1907247010224"></line><line style="stroke: #aaa; stroke-width: 1;" x1="177.74436723292496" y1="628.4287945599251" x2="257.32342417577263" y2="632.4256205893485"></line><line style="stroke: #aaa; stroke-width: 1;" x1="177.74436723292496" y1="628.4287945599251" x2="193.22489675837105" y2="695.509127778446"></line><line style="stroke: #aaa; stroke-width: 1.41421;" x1="177.74436723292496" y1="628.4287945599251" x2="268.6894441670645" y2="652.9944906505971"></line><line style="stroke: #aaa; stroke-width: 1.41421;" x1="257.32342417577263" y1="632.4256205893485" x2="193.22489675837105" y2="695.509127778446"></line><line style="stroke: #aaa; stroke-width: 1;" x1="257.32342417577263" y1="632.4256205893485" x2="342.7123686428043" y2="648.1922681356716"></line><line style="stroke: #aaa; stroke-width: 1;" x1="257.32342417577263" y1="632.4256205893485" x2="268.6894441670645" y2="652.9944906505971"></line><line style="stroke: #aaa; stroke-width: 1.41421;" x1="257.32342417577263" y1="632.4256205893485" x2="338.05651498688786" y2="593.7533498909636"></line><line style="stroke: #aaa; stroke-width: 1.41421;" x1="342.7123686428043" y1="648.1922681356716" x2="268.6894441670645" y2="652.9944906505971"></line><line style="stroke: #aaa; stroke-width: 1;" x1="342.7123686428043" y1="648.1922681356716" x2="414.2837986106184" y2="651.4432749538629"></line><line style="stroke: #aaa; stroke-width: 1;" x1="342.7123686428043" y1="648.1922681356716" x2="338.05651498688786" y2="593.7533498909636"></line><line style="stroke: #aaa; stroke-width: 1.41421;" x1="342.7123686428043" y1="648.1922681356716" x2="414.65597269432993" y2="578.4081563959581"></line><line style="stroke: #aaa; stroke-width: 1.41421;" x1="414.2837986106184" y1="651.4432749538629" x2="338.05651498688786" y2="593.7533498909636"></line><line style="stroke: #aaa; stroke-width: 1;" x1="414.2837986106184" y1="651.4432749538629" x2="481.764991267129" y2="653.6160066599572"></line><line style="stroke: #aaa; stroke-width: 1;" x1="414.2837986106184" y1="651.4432749538629" x2="414.65597269432993" y2="578.4081563959581"></line><line style="stroke: #aaa; stroke-width: 1.41421;" x1="414.2837986106184" y1="651.4432749538629" x2="489.87191369927933" y2="579.9909995345888"></line><line style="stroke: #aaa; stroke-width: 1.41421;" x1="481.764991267129" y1="653.6160066599572" x2="414.65597269432993" y2="578.4081563959581"></line><line style="stroke: #aaa; stroke-width: 1;" x1="481.764991267129" y1="653.6160066599572" x2="549.7551650816008" y2="661.3794403626742"></line><line style="stroke: #aaa; stroke-width: 1;" x1="481.764991267129" y1="653.6160066599572" x2="489.87191369927933" y2="579.9909995345888"></line><line style="stroke: #aaa; stroke-width: 1.41421;" x1="481.764991267129" y1="653.6160066599572" x2="565.6299343478954" y2="593.4091256396257"></line><line style="stroke: #aaa; stroke-width: 1.41421;" x1="549.7551650816008" y1="661.3794403626742" x2="489.87191369927933" y2="579.9909995345888"></line><line style="stroke: #aaa; stroke-width: 1;" x1="549.7551650816008" y1="661.3794403626742" x2="626.044232545315" y2="668.6022654655336"></line><line style="stroke: #aaa; stroke-width: 1;" x1="549.7551650816008" y1="661.3794403626742" x2="565.6299343478954" y2="593.4091256396257"></line><line style="stroke: #aaa; stroke-width: 1.41421;" x1="549.7551650816008" y1="661.3794403626742" x2="640.3023246653689" y2="627.5167473982606"></line><line style="stroke: #aaa; stroke-width: 1.41421;" x1="626.044232545315" y1="668.6022654655336" x2="565.6299343478954" y2="593.4091256396257"></line><line style="stroke: #aaa; stroke-width: 1;" x1="626.044232545315" y1="668.6022654655336" x2="714.3046545277809" y2="656.3102233963905"></line><line style="stroke: #aaa; stroke-width: 1;" x1="626.044232545315" y1="668.6022654655336" x2="640.3023246653689" y2="627.5167473982606"></line><line style="stroke: #aaa; stroke-width: 1.41421;" x1="626.044232545315" y1="668.6022654655336" x2="720.2976870062023" y2="681.4179991307292"></line><line style="stroke: #aaa; stroke-width: 1.41421;" x1="714.3046545277809" y1="656.3102233963905" x2="640.3023246653689" y2="627.5167473982606"></line><line style="stroke: #aaa; stroke-width: 1;" x1="714.3046545277809" y1="656.3102233963905" x2="632.7838197568731" y2="668.9884144654319"></line><line style="stroke: #aaa; stroke-width: 1;" x1="714.3046545277809" y1="656.3102233963905" x2="720.2976870062023" y2="681.4179991307292"></line><line style="stroke: #aaa; stroke-width: 1.41421;" x1="714.3046545277809" y1="656.3102233963905" x2="679.6578952130976" y2="747.4825765990415"></line><line style="stroke: #aaa; stroke-width: 1.41421;" x1="632.7838197568731" y1="668.9884144654319" x2="720.2976870062023" y2="681.4179991307292"></line><line style="stroke: #aaa; stroke-width: 1;" x1="20" y1="691.2394231224279" x2="102.1789062189248" y2="700.1907247010224"></line><line style="stroke: #aaa; stroke-width: 1;" x1="20" y1="691.2394231224279" x2="31.658301990970692" y2="767.179853203377"></line><line style="stroke: #aaa; stroke-width: 1.41421;" x1="20" y1="691.2394231224279" x2="109.35186293665444" y2="723.457489108227"></line><line style="stroke: #aaa; stroke-width: 1.41421;" x1="102.1789062189248" y1="700.1907247010224" x2="31.658301990970692" y2="767.179853203377"></line><line style="stroke: #aaa; stroke-width: 1;" x1="102.1789062189248" y1="700.1907247010224" x2="193.22489675837105" y2="695.509127778446"></line><line style="stroke: #aaa; stroke-width: 1;" x1="102.1789062189248" y1="700.1907247010224" x2="109.35186293665444" y2="723.457489108227"></line><line style="stroke: #aaa; stroke-width: 1.41421;" x1="102.1789062189248" y1="700.1907247010224" x2="166.12459218455712" y2="641.8542758840077"></line><line style="stroke: #aaa; stroke-width: 1.41421;" x1="193.22489675837105" y1="695.509127778446" x2="109.35186293665444" y2="723.457489108227"></line><line style="stroke: #aaa; stroke-width: 1;" x1="193.22489675837105" y1="695.509127778446" x2="268.6894441670645" y2="652.9944906505971"></line><line style="stroke: #aaa; stroke-width: 1;" x1="193.22489675837105" y1="695.509127778446" x2="166.12459218455712" y2="641.8542758840077"></line><line style="stroke: #aaa; stroke-width: 1.41421;" x1="193.22489675837105" y1="695.509127778446" x2="235.4210529015419" y2="595.3251602010257"></line><line style="stroke: #aaa; stroke-width: 1.41421;" x1="268.6894441670645" y1="652.9944906505971" x2="166.12459218455712" y2="641.8542758840077"></line><line style="stroke: #aaa; stroke-width: 1;" x1="268.6894441670645" y1="652.9944906505971" x2="338.05651498688786" y2="593.7533498909636"></line><line style="stroke: #aaa; stroke-width: 1;" x1="268.6894441670645" y1="652.9944906505971" x2="235.4210529015419" y2="595.3251602010257"></line><line style="stroke: #aaa; stroke-width: 1.41421;" x1="268.6894441670645" y1="652.9944906505971" x2="314.2395801950662" y2="551.9455493134047"></line><line style="stroke: #aaa; stroke-width: 1.41421;" x1="338.05651498688786" y1="593.7533498909636" x2="235.4210529015419" y2="595.3251602010257"></line><line style="stroke: #aaa; stroke-width: 1;" x1="338.05651498688786" y1="593.7533498909636" x2="414.65597269432993" y2="578.4081563959581"></line><line style="stroke: #aaa; stroke-width: 1;" x1="338.05651498688786" y1="593.7533498909636" x2="314.2395801950662" y2="551.9455493134047"></line><line style="stroke: #aaa; stroke-width: 1.41421;" x1="338.05651498688786" y1="593.7533498909636" x2="404.6749404493399" y2="517.821010550965"></line><line style="stroke: #aaa; stroke-width: 1.41421;" x1="414.65597269432993" y1="578.4081563959581" x2="314.2395801950662" y2="551.9455493134047"></line><line style="stroke: #aaa; stroke-width: 1;" x1="414.65597269432993" y1="578.4081563959581" x2="489.87191369927933" y2="579.9909995345888"></line><line style="stroke: #aaa; stroke-width: 1;" x1="414.65597269432993" y1="578.4081563959581" x2="404.6749404493399" y2="517.821010550965"></line><line style="stroke: #aaa; stroke-width: 1.41421;" x1="414.65597269432993" y1="578.4081563959581" x2="497.84423562289356" y2="515.6894680715264"></line><line style="stroke: #aaa; stroke-width: 1.41421;" x1="489.87191369927933" y1="579.9909995345888" x2="404.6749404493399" y2="517.821010550965"></line><line style="stroke: #aaa; stroke-width: 1;" x1="489.87191369927933" y1="579.9909995345888" x2="565.6299343478954" y2="593.4091256396257"></line><line style="stroke: #aaa; stroke-width: 1;" x1="489.87191369927933" y1="579.9909995345888" x2="497.84423562289356" y2="515.6894680715264"></line><line style="stroke: #aaa; stroke-width: 1.41421;" x1="489.87191369927933" y1="579.9909995345888" x2="588.6370595227875" y2="539.9837565794128"></line><line style="stroke: #aaa; stroke-width: 1.41421;" x1="565.6299343478954" y1="593.4091256396257" x2="497.84423562289356" y2="515.6894680715264"></line><line style="stroke: #aaa; stroke-width: 1;" x1="565.6299343478954" y1="593.4091256396257" x2="640.3023246653689" y2="627.5167473982606"></line><line style="stroke: #aaa; stroke-width: 1;" x1="565.6299343478954" y1="593.4091256396257" x2="588.6370595227875" y2="539.9837565794128"></line><line style="stroke: #aaa; stroke-width: 1.41421;" x1="565.6299343478954" y1="593.4091256396257" x2="671.5649476971341" y2="591.5614946153506"></line><line style="stroke: #aaa; stroke-width: 1.41421;" x1="640.3023246653689" y1="627.5167473982606" x2="588.6370595227875" y2="539.9837565794128"></line><line style="stroke: #aaa; stroke-width: 1;" x1="640.3023246653689" y1="627.5167473982606" x2="720.2976870062023" y2="681.4179991307292"></line><line style="stroke: #aaa; stroke-width: 1;" x1="640.3023246653689" y1="627.5167473982606" x2="671.5649476971341" y2="591.5614946153506"></line><line style="stroke: #aaa; stroke-width: 1.41421;" x1="640.3023246653689" y1="627.5167473982606" x2="736.6932057809311" y2="668.068276562817"></line><line style="stroke: #aaa; stroke-width: 1.41421;" x1="720.2976870062023" y1="681.4179991307292" x2="671.5649476971341" y2="591.5614946153506"></line><line style="stroke: #aaa; stroke-width: 1;" x1="720.2976870062023" y1="681.4179991307292" x2="679.6578952130976" y2="747.4825765990415"></line><line style="stroke: #aaa; stroke-width: 1;" x1="720.2976870062023" y1="681.4179991307292" x2="736.6932057809311" y2="668.068276562817"></line><line style="stroke: #aaa; stroke-width: 1.41421;" x1="720.2976870062023" y1="681.4179991307292" x2="767.1783821595678" y2="767.1783821595678"></line><line style="stroke: #aaa; stroke-width: 1.41421;" x1="679.6578952130976" y1="747.4825765990415" x2="736.6932057809311" y2="668.068276562817"></line><line style="stroke: #aaa; stroke-width: 1;" x1="767.179853203377" y1="31.65881325592417" x2="775.9031429915553" y2="116.49819376143867"></line><line style="stroke: #aaa; stroke-width: 1;" x1="775.9031429915553" y1="116.49819376143867" x2="780" y2="199.82620585187027"></line><line style="stroke: #aaa; stroke-width: 1;" x1="780" y1="199.82620585187027" x2="776.7784140579914" y2="279.0242624481517"></line><line style="stroke: #aaa; stroke-width: 1;" x1="776.7784140579914" y1="279.0242624481517" x2="771.659181602197" y2="356.51149509440756"></line><line style="stroke: #aaa; stroke-width: 1;" x1="771.659181602197" y1="356.51149509440756" x2="764.5216770402676" y2="435.9758106201427"></line><line style="stroke: #aaa; stroke-width: 1;" x1="764.5216770402676" y1="435.9758106201427" x2="731.3805310642354" y2="516.5948955360498"></line><line style="stroke: #aaa; stroke-width: 1;" x1="731.3805310642354" y1="516.5948955360498" x2="652.0993604927377" y2="581.7459547988884"></line><line style="stroke: #aaa; stroke-width: 1;" x1="652.0993604927377" y1="581.7459547988884" x2="632.7838197568731" y2="668.9884144654319"></line><line style="stroke: #aaa; stroke-width: 1;" x1="632.7838197568731" y1="668.9884144654319" x2="679.6578952130976" y2="747.4825765990415"></line><line style="stroke: #aaa; stroke-width: 1;" x1="679.6578952130976" y1="747.4825765990415" x2="767.1783821595678" y2="767.1783821595678"></line><line style="stroke: #aaa; stroke-width: 1;" x1="31.658301990970692" y1="767.179853203377" x2="109.35186293665444" y2="723.457489108227"></line><line style="stroke: #aaa; stroke-width: 1;" x1="109.35186293665444" y1="723.457489108227" x2="166.12459218455712" y2="641.8542758840077"></line><line style="stroke: #aaa; stroke-width: 1;" x1="166.12459218455712" y1="641.8542758840077" x2="235.4210529015419" y2="595.3251602010257"></line><line style="stroke: #aaa; stroke-width: 1;" x1="235.4210529015419" y1="595.3251602010257" x2="314.2395801950662" y2="551.9455493134047"></line><line style="stroke: #aaa; stroke-width: 1;" x1="314.2395801950662" y1="551.9455493134047" x2="404.6749404493399" y2="517.821010550965"></line><line style="stroke: #aaa; stroke-width: 1;" x1="404.6749404493399" y1="517.821010550965" x2="497.84423562289356" y2="515.6894680715264"></line><line style="stroke: #aaa; stroke-width: 1;" x1="497.84423562289356" y1="515.6894680715264" x2="588.6370595227875" y2="539.9837565794128"></line><line style="stroke: #aaa; stroke-width: 1;" x1="588.6370595227875" y1="539.9837565794128" x2="671.5649476971341" y2="591.5614946153506"></line><line style="stroke: #aaa; stroke-width: 1;" x1="671.5649476971341" y1="591.5614946153506" x2="736.6932057809311" y2="668.068276562817"></line><line style="stroke: #aaa; stroke-width: 1;" x1="736.6932057809311" y1="668.068276562817" x2="767.1783821595678" y2="767.1783821595678"></line><circle r="10" cx="31.65894625299495" cy="31.659043143295442" style="stroke: #000; fill: #69b3a2;"></circle><circle r="10" cx="114.3512053220042" cy="44.30590975397857" style="stroke: #000; fill: #69b3a2;"></circle><circle r="10" cx="194.8687882150809" cy="77.86446441085323" style="stroke: #000; fill: #69b3a2;"></circle><circle r="10" cx="253.2618722187473" cy="161.12010114587537" style="stroke: #000; fill: #69b3a2;"></circle><circle r="10" cx="331.9274109561213" cy="193.97512910103057" style="stroke: #000; fill: #69b3a2;"></circle><circle r="10" cx="410.1104473240987" cy="200.1086462632245" style="stroke: #000; fill: #69b3a2;"></circle><circle r="10" cx="487.9198385645554" cy="198.4037064884355" style="stroke: #000; fill: #69b3a2;"></circle><circle r="10" cx="566.7545473399801" cy="168.8467587533639" style="stroke: #000; fill: #69b3a2;"></circle><circle r="10" cx="620.8661583371553" cy="83.37109625378369" style="stroke: #000; fill: #69b3a2;"></circle><circle r="10" cx="695.4627898984583" cy="48.59731230618151" style="stroke: #000; fill: #69b3a2;"></circle><circle r="10" cx="767.179853203377" cy="31.65881325592417" style="stroke: #000; fill: #69b3a2;"></circle><circle r="10" cx="37.47740529937725" cy="114.74029640952077" style="stroke: #000; fill: #69b3a2;"></circle><circle r="10" cx="105.24617966535494" cy="116.31578432910578" style="stroke: #000; fill: #69b3a2;"></circle><circle r="10" cx="182.55247392308704" cy="118.7062305189523" style="stroke: #000; fill: #69b3a2;"></circle><circle r="10" cx="270.44366390945953" cy="116.64456262044774" style="stroke: #000; fill: #69b3a2;"></circle><circle r="10" cx="343.8899392120179" cy="120.76642737364773" style="stroke: #000; fill: #69b3a2;"></circle><circle r="10" cx="412.2978894682844" cy="125.89963474562893" style="stroke: #000; fill: #69b3a2;"></circle><circle r="10" cx="480.361615473213" cy="123.57979865862094" style="stroke: #000; fill: #69b3a2;"></circle><circle r="10" cx="552.9620405855179" cy="123.98212914041973" style="stroke: #000; fill: #69b3a2;"></circle><circle r="10" cx="639.1107791799686" cy="128.42541696591599" style="stroke: #000; fill: #69b3a2;"></circle><circle r="10" cx="711.0624739724444" cy="123.79530657665941" style="stroke: #000; fill: #69b3a2;"></circle><circle r="10" cx="775.9031429915553" cy="116.49819376143867" style="stroke: #000; fill: #69b3a2;"></circle><circle r="10" cx="39.74206988832357" cy="194.2244710266792" style="stroke: #000; fill: #69b3a2;"></circle><circle r="10" cx="112.9721017509389" cy="191.48906506359017" style="stroke: #000; fill: #69b3a2;"></circle><circle r="10" cx="189.35016736510596" cy="187.94384948357168" style="stroke: #000; fill: #69b3a2;"></circle><circle r="10" cx="264.37928580629506" cy="190.3254694105634" style="stroke: #000; fill: #69b3a2;"></circle><circle r="10" cx="338.48753082296474" cy="196.34203858993092" style="stroke: #000; fill: #69b3a2;"></circle><circle r="10" cx="411.6256224475091" cy="199.6004006271679" style="stroke: #000; fill: #69b3a2;"></circle><circle r="10" cx="484.34961523978154" cy="199.48713025386436" style="stroke: #000; fill: #69b3a2;"></circle><circle r="10" cx="558.1040742203539" cy="196.6215369136668" style="stroke: #000; fill: #69b3a2;"></circle><circle r="10" cx="632.8404549435251" cy="197.12684046210518" style="stroke: #000; fill: #69b3a2;"></circle><circle r="10" cx="709.1905707253184" cy="200.32268313745382" style="stroke: #000; fill: #69b3a2;"></circle><circle r="10" cx="780" cy="199.82620585187027" style="stroke: #000; fill: #69b3a2;"></circle><circle r="10" cx="44.47544755298153" cy="268.1297119976881" style="stroke: #000; fill: #69b3a2;"></circle><circle r="10" cx="118.70549499704774" cy="265.1059814480084" style="stroke: #000; fill: #69b3a2;"></circle><circle r="10" cx="191.5258411588186" cy="264.5381585376818" style="stroke: #000; fill: #69b3a2;"></circle><circle r="10" cx="263.8739822578567" cy="266.60644613332744" style="stroke: #000; fill: #69b3a2;"></circle><circle r="10" cx="337.2937787718506" cy="270.1067948771673" style="stroke: #000; fill: #69b3a2;"></circle><circle r="10" cx="411.6101764875132" cy="272.8981005050035" style="stroke: #000; fill: #69b3a2;"></circle><circle r="10" cx="485.5573422070825" cy="272.9253148154725" style="stroke: #000; fill: #69b3a2;"></circle><circle r="10" cx="558.3894567193264" cy="271.85586596623045" style="stroke: #000; fill: #69b3a2;"></circle><circle r="10" cx="631.4245752772312" cy="272.2258334842282" style="stroke: #000; fill: #69b3a2;"></circle><circle r="10" cx="704.5803194274852" cy="274.95020661874867" style="stroke: #000; fill: #69b3a2;"></circle><circle r="10" cx="776.7784140579914" cy="279.0242624481517" style="stroke: #000; fill: #69b3a2;"></circle><circle r="10" cx="46.56153477871776" cy="339.3819254589196" style="stroke: #000; fill: #69b3a2;"></circle><circle r="10" cx="120.55165497751382" cy="340.01962295018023" style="stroke: #000; fill: #69b3a2;"></circle><circle r="10" cx="192.89023429179252" cy="341.1479135517879" style="stroke: #000; fill: #69b3a2;"></circle><circle r="10" cx="265.0956841413444" cy="342.8396139322946" style="stroke: #000; fill: #69b3a2;"></circle><circle r="10" cx="338.2139166744654" cy="345.03367577362144" style="stroke: #000; fill: #69b3a2;"></circle><circle r="10" cx="412.2544936759149" cy="347.07548458070266" style="stroke: #000; fill: #69b3a2;"></circle><circle r="10" cx="485.8316918774864" cy="348.1684701308909" style="stroke: #000; fill: #69b3a2;"></circle><circle r="10" cx="557.5185987843178" cy="347.8485181024038" style="stroke: #000; fill: #69b3a2;"></circle><circle r="10" cx="628.2633021313973" cy="347.73671877290946" style="stroke: #000; fill: #69b3a2;"></circle><circle r="10" cx="700.5342134304558" cy="351.3047355319696" style="stroke: #000; fill: #69b3a2;"></circle><circle r="10" cx="771.659181602197" cy="356.51149509440756" style="stroke: #000; fill: #69b3a2;"></circle><circle r="10" cx="44.22706180580886" cy="409.806676777512" style="stroke: #000; fill: #69b3a2;"></circle><circle r="10" cx="119.39100141210527" cy="413.70052974029585" style="stroke: #000; fill: #69b3a2;"></circle><circle r="10" cx="193.28226746692735" cy="416.6455594461868" style="stroke: #000; fill: #69b3a2;"></circle><circle r="10" cx="266.12100167631246" cy="418.714582563737" style="stroke: #000; fill: #69b3a2;"></circle><circle r="10" cx="339.14214531803043" cy="420.4790996127961" style="stroke: #000; fill: #69b3a2;"></circle><circle r="10" cx="412.8723320757521" cy="422.5157597665453" style="stroke: #000; fill: #69b3a2;"></circle><circle r="10" cx="486.2833023268912" cy="424.5722790117179" style="stroke: #000; fill: #69b3a2;"></circle><circle r="10" cx="557.763527578539" cy="425.9190196189822" style="stroke: #000; fill: #69b3a2;"></circle><circle r="10" cx="625.7036859035002" cy="425.4740288667184" style="stroke: #000; fill: #69b3a2;"></circle><circle r="10" cx="693.8806822817321" cy="425.31883374485454" style="stroke: #000; fill: #69b3a2;"></circle><circle r="10" cx="764.5216770402676" cy="435.9758106201427" style="stroke: #000; fill: #69b3a2;"></circle><circle r="10" cx="39.81944679268415" cy="480.2726173227602" style="stroke: #000; fill: #69b3a2;"></circle><circle r="10" cx="115.53098245693155" cy="484.5607100263926" style="stroke: #000; fill: #69b3a2;"></circle><circle r="10" cx="191.74870429590274" cy="490.32131758297044" style="stroke: #000; fill: #69b3a2;"></circle><circle r="10" cx="266.2651639696078" cy="494.32696987524866" style="stroke: #000; fill: #69b3a2;"></circle><circle r="10" cx="339.4893116569866" cy="496.18416268428325" style="stroke: #000; fill: #69b3a2;"></circle><circle r="10" cx="412.870861031943" cy="497.978100609525" style="stroke: #000; fill: #69b3a2;"></circle><circle r="10" cx="486.39583717829015" cy="501.2224877305752" style="stroke: #000; fill: #69b3a2;"></circle><circle r="10" cx="558.2217577250849" cy="504.7574060039297" style="stroke: #000; fill: #69b3a2;"></circle><circle r="10" cx="627.1982664135826" cy="506.88012222051356" style="stroke: #000; fill: #69b3a2;"></circle><circle r="10" cx="691.2990003966979" cy="502.8259254825338" style="stroke: #000; fill: #69b3a2;"></circle><circle r="10" cx="731.3805310642354" cy="516.5948955360498" style="stroke: #000; fill: #69b3a2;"></circle><circle r="10" cx="37.22679827605279" cy="552.4412910770837" style="stroke: #000; fill: #69b3a2;"></circle><circle r="10" cx="110.34261094210773" cy="554.8618936650174" style="stroke: #000; fill: #69b3a2;"></circle><circle r="10" cx="185.92337081172292" cy="560.0002496903307" style="stroke: #000; fill: #69b3a2;"></circle><circle r="10" cx="264.94343110709883" cy="568.5852613604502" style="stroke: #000; fill: #69b3a2;"></circle><circle r="10" cx="340.367524811041" cy="572.2121198718759" style="stroke: #000; fill: #69b3a2;"></circle><circle r="10" cx="412.68256742437353" cy="573.5743064391361" style="stroke: #000; fill: #69b3a2;"></circle><circle r="10" cx="484.818878214896" cy="576.9915412077598" style="stroke: #000; fill: #69b3a2;"></circle><circle r="10" cx="557.2118861501128" cy="583.5060587165201" style="stroke: #000; fill: #69b3a2;"></circle><circle r="10" cx="627.8036009410422" cy="588.1655899819593" style="stroke: #000; fill: #69b3a2;"></circle><circle r="10" cx="695.8334929383606" cy="590.0323445757533" style="stroke: #000; fill: #69b3a2;"></circle><circle r="10" cx="652.0993604927377" cy="581.7459547988884" style="stroke: #000; fill: #69b3a2;"></circle><circle r="10" cx="32.90932882755195" cy="622.9440077175603" style="stroke: #000; fill: #69b3a2;"></circle><circle r="10" cx="107.26298072768084" cy="630.2021378718389" style="stroke: #000; fill: #69b3a2;"></circle><circle r="10" cx="177.74436723292496" cy="628.4287945599251" style="stroke: #000; fill: #69b3a2;"></circle><circle r="10" cx="257.32342417577263" cy="632.4256205893485" style="stroke: #000; fill: #69b3a2;"></circle><circle r="10" cx="342.7123686428043" cy="648.1922681356716" style="stroke: #000; fill: #69b3a2;"></circle><circle r="10" cx="414.2837986106184" cy="651.4432749538629" style="stroke: #000; fill: #69b3a2;"></circle><circle r="10" cx="481.764991267129" cy="653.6160066599572" style="stroke: #000; fill: #69b3a2;"></circle><circle r="10" cx="549.7551650816008" cy="661.3794403626742" style="stroke: #000; fill: #69b3a2;"></circle><circle r="10" cx="626.044232545315" cy="668.6022654655336" style="stroke: #000; fill: #69b3a2;"></circle><circle r="10" cx="714.3046545277809" cy="656.3102233963905" style="stroke: #000; fill: #69b3a2;"></circle><circle r="10" cx="632.7838197568731" cy="668.9884144654319" style="stroke: #000; fill: #69b3a2;"></circle><circle r="10" cx="20" cy="691.2394231224279" style="stroke: #000; fill: #69b3a2;"></circle><circle r="10" cx="102.1789062189248" cy="700.1907247010224" style="stroke: #000; fill: #69b3a2;"></circle><circle r="10" cx="193.22489675837105" cy="695.509127778446" style="stroke: #000; fill: #69b3a2;"></circle><circle r="10" cx="268.6894441670645" cy="652.9944906505971" style="stroke: #000; fill: #69b3a2;"></circle><circle r="10" cx="338.05651498688786" cy="593.7533498909636" style="stroke: #000; fill: #69b3a2;"></circle><circle r="10" cx="414.65597269432993" cy="578.4081563959581" style="stroke: #000; fill: #69b3a2;"></circle><circle r="10" cx="489.87191369927933" cy="579.9909995345888" style="stroke: #000; fill: #69b3a2;"></circle><circle r="10" cx="565.6299343478954" cy="593.4091256396257" style="stroke: #000; fill: #69b3a2;"></circle><circle r="10" cx="640.3023246653689" cy="627.5167473982606" style="stroke: #000; fill: #69b3a2;"></circle><circle r="10" cx="720.2976870062023" cy="681.4179991307292" style="stroke: #000; fill: #69b3a2;"></circle><circle r="10" cx="679.6578952130976" cy="747.4825765990415" style="stroke: #000; fill: #69b3a2;"></circle><circle r="10" cx="31.658301990970692" cy="767.179853203377" style="stroke: #000; fill: #69b3a2;"></circle><circle r="10" cx="109.35186293665444" cy="723.457489108227" style="stroke: #000; fill: #69b3a2;"></circle><circle r="10" cx="166.12459218455712" cy="641.8542758840077" style="stroke: #000; fill: #69b3a2;"></circle><circle r="10" cx="235.4210529015419" cy="595.3251602010257" style="stroke: #000; fill: #69b3a2;"></circle><circle r="10" cx="314.2395801950662" cy="551.9455493134047" style="stroke: #000; fill: #69b3a2;"></circle><circle r="10" cx="404.6749404493399" cy="517.821010550965" style="stroke: #000; fill: #69b3a2;"></circle><circle r="10" cx="497.84423562289356" cy="515.6894680715264" style="stroke: #000; fill: #69b3a2;"></circle><circle r="10" cx="588.6370595227875" cy="539.9837565794128" style="stroke: #000; fill: #69b3a2;"></circle><circle r="10" cx="671.5649476971341" cy="591.5614946153506" style="stroke: #000; fill: #69b3a2;"></circle><circle r="10" cx="736.6932057809311" cy="668.068276562817" style="stroke: #000; fill: #69b3a2;"></circle><circle r="10" cx="767.1783821595678" cy="767.1783821595678" style="stroke: #000; fill: #69b3a2;"></circle></svg>