<svg width="800" height="800" xmlns="http://www.w3.org/2000/svg"><line style="stroke: #aaa; stroke-width: 1;" x1="2369100.3669725205" y1="780" x2="2369114.311926649" y2="766.0550458715454"></line><line style="stroke: #aaa; stroke-width: 1;" x1="2369100.3669725205" y1="780" x2="2369107.339449585" y2="752.1100917430908"></line><line style="stroke: #aaa; stroke-width: 1.41421;" x1="2369100.3669725205" y1="780" x2="2369128.2568807774" y2="738.1651376146364"></line><line style="stroke: #aaa; stroke-width: 1.41421;" x1="2369114.311926649" y1="766.0550458715454" x2="2369107.339449585" y2="752.1100917430908"></line><line style="stroke: #aaa; stroke-width: 1;" x1="2369114.311926649" y1="766.0550458715454" x2="2369142.201834906" y2="745.1376146788637"></line><line style="stroke: #aaa; stroke-width: 1;" x1="2369114.311926649" y1="766.0550458715454" x2="2369128.2568807774" y2="738.1651376146364"></line><line style="stroke: #aaa; stroke-width: 1.41421;" x1="2369114.311926649" y1="766.0550458715454" x2="2369156.1467890344" y2="724.2201834861818"></line><line style="stroke: #aaa; stroke-width: 1.41421;" x1="2369142.201834906" y1="745.1376146788637" x2="2369128.2568807774" y2="738.1651376146364"></line><line style="stroke: #aaa; stroke-width: 1;" x1="2369142.201834906" y1="745.1376146788637" x2="2369184.0366972913" y2="731.192660550409"></line><line style="stroke: #aaa; stroke-width: 1;" x1="2369142.201834906" y1="745.1376146788637" x2="2369156.1467890344" y2="724.2201834861818"></line><line style="stroke: #aaa; stroke-width: 1.41421;" x1="2369142.201834906" y1="745.1376146788637" x2="2369191.009174356" y2="703.3027522934998"></line><line style="stroke: #aaa; stroke-width: 1.41421;" x1="2369184.0366972913" y1="731.192660550409" x2="2369156.1467890344" y2="724.2201834861818"></line><line style="stroke: #aaa; stroke-width: 1;" x1="2369184.0366972913" y1="731.192660550409" x2="2369225.8715596762" y2="703.3027522934998"></line><line style="stroke: #aaa; stroke-width: 1;" x1="2369184.0366972913" y1="731.192660550409" x2="2369191.009174356" y2="703.3027522934998"></line><line style="stroke: #aaa; stroke-width: 1.41421;" x1="2369184.0366972913" y1="731.192660550409" x2="2369232.844036741" y2="682.385321100818"></line><line style="stroke: #aaa; stroke-width: 1.41421;" x1="2369225.8715596762" y1="703.3027522934998" x2="2369191.009174356" y2="703.3027522934998"></line><line style="stroke: #aaa; stroke-width: 1;" x1="2369225.8715596762" y1="703.3027522934998" x2="2369274.678899126" y2="682.385321100818"></line><line style="stroke: #aaa; stroke-width: 1;" x1="2369225.8715596762" y1="703.3027522934998" x2="2369232.844036741" y2="682.385321100818"></line><line style="stroke: #aaa; stroke-width: 1.41421;" x1="2369225.8715596762" y1="703.3027522934998" x2="2369281.6513761906" y2="661.4678899081362"></line><line style="stroke: #aaa; stroke-width: 1.41421;" x1="2369274.678899126" y1="682.385321100818" x2="2369232.844036741" y2="682.385321100818"></line><line style="stroke: #aaa; stroke-width: 1;" x1="2369274.678899126" y1="682.385321100818" x2="2369323.486238576" y2="668.4403669723633"></line><line style="stroke: #aaa; stroke-width: 1;" x1="2369274.678899126" y1="682.385321100818" x2="2369281.6513761906" y2="661.4678899081362"></line><line style="stroke: #aaa; stroke-width: 1.41421;" x1="2369274.678899126" y1="682.385321100818" x2="2369330.4587156395" y2="640.5504587154544"></line><line style="stroke: #aaa; stroke-width: 1.41421;" x1="2369323.486238576" y1="668.4403669723633" x2="2369281.6513761906" y2="661.4678899081362"></line><line style="stroke: #aaa; stroke-width: 1;" x1="2369323.486238576" y1="668.4403669723633" x2="2369372.293578025" y2="647.5229357796815"></line><line style="stroke: #aaa; stroke-width: 1;" x1="2369323.486238576" y1="668.4403669723633" x2="2369330.4587156395" y2="640.5504587154544"></line><line style="stroke: #aaa; stroke-width: 1.41421;" x1="2369323.486238576" y1="668.4403669723633" x2="2369372.293578025" y2="626.6055045869997"></line><line style="stroke: #aaa; stroke-width: 1.41421;" x1="2369372.293578025" y1="647.5229357796815" x2="2369330.4587156395" y2="640.5504587154544"></line><line style="stroke: #aaa; stroke-width: 1;" x1="2369372.293578025" y1="647.5229357796815" x2="2369407.155963347" y2="633.577981651227"></line><line style="stroke: #aaa; stroke-width: 1;" x1="2369372.293578025" y1="647.5229357796815" x2="2369372.293578025" y2="626.6055045869997"></line><line style="stroke: #aaa; stroke-width: 1.41421;" x1="2369372.293578025" y1="647.5229357796815" x2="2369407.155963347" y2="612.6605504585451"></line><line style="stroke: #aaa; stroke-width: 1.41421;" x1="2369407.155963347" y1="633.577981651227" x2="2369372.293578025" y2="626.6055045869997"></line><line style="stroke: #aaa; stroke-width: 1;" x1="2369407.155963347" y1="633.577981651227" x2="2369435.0458716033" y2="633.577981651227"></line><line style="stroke: #aaa; stroke-width: 1;" x1="2369407.155963347" y1="633.577981651227" x2="2369407.155963347" y2="612.6605504585451"></line><line style="stroke: #aaa; stroke-width: 1.41421;" x1="2369407.155963347" y1="633.577981651227" x2="2369435.0458716033" y2="612.6605504585451"></line><line style="stroke: #aaa; stroke-width: 1.41421;" x1="2369435.0458716033" y1="633.577981651227" x2="2369407.155963347" y2="612.6605504585451"></line><line style="stroke: #aaa; stroke-width: 1;" x1="2369435.0458716033" y1="633.577981651227" x2="2369442.0183486673" y2="633.577981651227"></line><line style="stroke: #aaa; stroke-width: 1;" x1="2369435.0458716033" y1="633.577981651227" x2="2369435.0458716033" y2="612.6605504585451"></line><line style="stroke: #aaa; stroke-width: 1.41421;" x1="2369435.0458716033" y1="633.577981651227" x2="2369448.9908257313" y2="612.6605504585451"></line><line style="stroke: #aaa; stroke-width: 1.41421;" x1="2369442.0183486673" y1="633.577981651227" x2="2369435.0458716033" y2="612.6605504585451"></line><line style="stroke: #aaa; stroke-width: 1;" x1="2369107.339449585" y1="752.1100917430908" x2="2369128.2568807774" y2="738.1651376146364"></line><line style="stroke: #aaa; stroke-width: 1;" x1="2369107.339449585" y1="752.1100917430908" x2="2369128.2568807774" y2="703.3027522934998"></line><line style="stroke: #aaa; stroke-width: 1.41421;" x1="2369107.339449585" y1="752.1100917430908" x2="2369142.201834906" y2="696.3302752292726"></line><line style="stroke: #aaa; stroke-width: 1.41421;" x1="2369128.2568807774" y1="738.1651376146364" x2="2369128.2568807774" y2="703.3027522934998"></line><line style="stroke: #aaa; stroke-width: 1;" x1="2369128.2568807774" y1="738.1651376146364" x2="2369156.1467890344" y2="724.2201834861818"></line><line style="stroke: #aaa; stroke-width: 1;" x1="2369128.2568807774" y1="738.1651376146364" x2="2369142.201834906" y2="696.3302752292726"></line><line style="stroke: #aaa; stroke-width: 1.41421;" x1="2369128.2568807774" y1="738.1651376146364" x2="2369170.091743163" y2="675.4128440365907"></line><line style="stroke: #aaa; stroke-width: 1.41421;" x1="2369156.1467890344" y1="724.2201834861818" x2="2369142.201834906" y2="696.3302752292726"></line><line style="stroke: #aaa; stroke-width: 1;" x1="2369156.1467890344" y1="724.2201834861818" x2="2369191.009174356" y2="703.3027522934998"></line><line style="stroke: #aaa; stroke-width: 1;" x1="2369156.1467890344" y1="724.2201834861818" x2="2369170.091743163" y2="675.4128440365907"></line><line style="stroke: #aaa; stroke-width: 1.41421;" x1="2369156.1467890344" y1="724.2201834861818" x2="2369204.9541284842" y2="661.4678899081362"></line><line style="stroke: #aaa; stroke-width: 1.41421;" x1="2369191.009174356" y1="703.3027522934998" x2="2369170.091743163" y2="675.4128440365907"></line><line style="stroke: #aaa; stroke-width: 1;" x1="2369191.009174356" y1="703.3027522934998" x2="2369232.844036741" y2="682.385321100818"></line><line style="stroke: #aaa; stroke-width: 1;" x1="2369191.009174356" y1="703.3027522934998" x2="2369204.9541284842" y2="661.4678899081362"></line><line style="stroke: #aaa; stroke-width: 1.41421;" x1="2369191.009174356" y1="703.3027522934998" x2="2369246.788990869" y2="640.5504587154544"></line><line style="stroke: #aaa; stroke-width: 1.41421;" x1="2369232.844036741" y1="682.385321100818" x2="2369204.9541284842" y2="661.4678899081362"></line><line style="stroke: #aaa; stroke-width: 1;" x1="2369232.844036741" y1="682.385321100818" x2="2369281.6513761906" y2="661.4678899081362"></line><line style="stroke: #aaa; stroke-width: 1;" x1="2369232.844036741" y1="682.385321100818" x2="2369246.788990869" y2="640.5504587154544"></line><line style="stroke: #aaa; stroke-width: 1.41421;" x1="2369232.844036741" y1="682.385321100818" x2="2369295.596330319" y2="619.6330275227724"></line><line style="stroke: #aaa; stroke-width: 1.41421;" x1="2369281.6513761906" y1="661.4678899081362" x2="2369246.788990869" y2="640.5504587154544"></line><line style="stroke: #aaa; stroke-width: 1;" x1="2369281.6513761906" y1="661.4678899081362" x2="2369330.4587156395" y2="640.5504587154544"></line><line style="stroke: #aaa; stroke-width: 1;" x1="2369281.6513761906" y1="661.4678899081362" x2="2369295.596330319" y2="619.6330275227724"></line><line style="stroke: #aaa; stroke-width: 1.41421;" x1="2369281.6513761906" y1="661.4678899081362" x2="2369337.431192704" y2="598.7155963302841"></line><line style="stroke: #aaa; stroke-width: 1.41421;" x1="2369330.4587156395" y1="640.5504587154544" x2="2369295.596330319" y2="619.6330275227724"></line><line style="stroke: #aaa; stroke-width: 1;" x1="2369330.4587156395" y1="640.5504587154544" x2="2369372.293578025" y2="626.6055045869997"></line><line style="stroke: #aaa; stroke-width: 1;" x1="2369330.4587156395" y1="640.5504587154544" x2="2369337.431192704" y2="598.7155963302841"></line><line style="stroke: #aaa; stroke-width: 1.41421;" x1="2369330.4587156395" y1="640.5504587154544" x2="2369386.2385321534" y2="584.7706422018296"></line><line style="stroke: #aaa; stroke-width: 1.41421;" x1="2369372.293578025" y1="626.6055045869997" x2="2369337.431192704" y2="598.7155963302841"></line><line style="stroke: #aaa; stroke-width: 1;" x1="2369372.293578025" y1="626.6055045869997" x2="2369407.155963347" y2="612.6605504585451"></line><line style="stroke: #aaa; stroke-width: 1;" x1="2369372.293578025" y1="626.6055045869997" x2="2369386.2385321534" y2="584.7706422018296"></line><line style="stroke: #aaa; stroke-width: 1.41421;" x1="2369372.293578025" y1="626.6055045869997" x2="2369421.1009174753" y2="570.825688073375"></line><line style="stroke: #aaa; stroke-width: 1.41421;" x1="2369407.155963347" y1="612.6605504585451" x2="2369386.2385321534" y2="584.7706422018296"></line><line style="stroke: #aaa; stroke-width: 1;" x1="2369407.155963347" y1="612.6605504585451" x2="2369435.0458716033" y2="612.6605504585451"></line><line style="stroke: #aaa; stroke-width: 1;" x1="2369407.155963347" y1="612.6605504585451" x2="2369421.1009174753" y2="570.825688073375"></line><line style="stroke: #aaa; stroke-width: 1.41421;" x1="2369407.155963347" y1="612.6605504585451" x2="2369442.0183486673" y2="563.8532110091477"></line><line style="stroke: #aaa; stroke-width: 1.41421;" x1="2369435.0458716033" y1="612.6605504585451" x2="2369421.1009174753" y2="570.825688073375"></line><line style="stroke: #aaa; stroke-width: 1;" x1="2369435.0458716033" y1="612.6605504585451" x2="2369448.9908257313" y2="612.6605504585451"></line><line style="stroke: #aaa; stroke-width: 1;" x1="2369435.0458716033" y1="612.6605504585451" x2="2369442.0183486673" y2="563.8532110091477"></line><line style="stroke: #aaa; stroke-width: 1.41421;" x1="2369435.0458716033" y1="612.6605504585451" x2="2369455.963302796" y2="563.8532110091477"></line><line style="stroke: #aaa; stroke-width: 1.41421;" x1="2369448.9908257313" y1="612.6605504585451" x2="2369442.0183486673" y2="563.8532110091477"></line><line style="stroke: #aaa; stroke-width: 1;" x1="2369128.2568807774" y1="703.3027522934998" x2="2369142.201834906" y2="696.3302752292726"></line><line style="stroke: #aaa; stroke-width: 1;" x1="2369128.2568807774" y1="703.3027522934998" x2="2369142.201834906" y2="633.577981651227"></line><line style="stroke: #aaa; stroke-width: 1.41421;" x1="2369128.2568807774" y1="703.3027522934998" x2="2369163.119266099" y2="626.6055045869997"></line><line style="stroke: #aaa; stroke-width: 1.41421;" x1="2369142.201834906" y1="696.3302752292726" x2="2369142.201834906" y2="633.577981651227"></line><line style="stroke: #aaa; stroke-width: 1;" x1="2369142.201834906" y1="696.3302752292726" x2="2369170.091743163" y2="675.4128440365907"></line><line style="stroke: #aaa; stroke-width: 1;" x1="2369142.201834906" y1="696.3302752292726" x2="2369163.119266099" y2="626.6055045869997"></line><line style="stroke: #aaa; stroke-width: 1.41421;" x1="2369142.201834906" y1="696.3302752292726" x2="2369184.0366972913" y2="612.6605504585451"></line><line style="stroke: #aaa; stroke-width: 1.41421;" x1="2369170.091743163" y1="675.4128440365907" x2="2369163.119266099" y2="626.6055045869997"></line><line style="stroke: #aaa; stroke-width: 1;" x1="2369170.091743163" y1="675.4128440365907" x2="2369204.9541284842" y2="661.4678899081362"></line><line style="stroke: #aaa; stroke-width: 1;" x1="2369170.091743163" y1="675.4128440365907" x2="2369184.0366972913" y2="612.6605504585451"></line><line style="stroke: #aaa; stroke-width: 1.41421;" x1="2369170.091743163" y1="675.4128440365907" x2="2369218.8990826127" y2="598.7155963302841"></line><line style="stroke: #aaa; stroke-width: 1.41421;" x1="2369204.9541284842" y1="661.4678899081362" x2="2369184.0366972913" y2="612.6605504585451"></line><line style="stroke: #aaa; stroke-width: 1;" x1="2369204.9541284842" y1="661.4678899081362" x2="2369246.788990869" y2="640.5504587154544"></line><line style="stroke: #aaa; stroke-width: 1;" x1="2369204.9541284842" y1="661.4678899081362" x2="2369218.8990826127" y2="598.7155963302841"></line><line style="stroke: #aaa; stroke-width: 1.41421;" x1="2369204.9541284842" y1="661.4678899081362" x2="2369260.7339449977" y2="570.825688073375"></line><line style="stroke: #aaa; stroke-width: 1.41421;" x1="2369246.788990869" y1="640.5504587154544" x2="2369218.8990826127" y2="598.7155963302841"></line><line style="stroke: #aaa; stroke-width: 1;" x1="2369246.788990869" y1="640.5504587154544" x2="2369295.596330319" y2="619.6330275227724"></line><line style="stroke: #aaa; stroke-width: 1;" x1="2369246.788990869" y1="640.5504587154544" x2="2369260.7339449977" y2="570.825688073375"></line><line style="stroke: #aaa; stroke-width: 1.41421;" x1="2369246.788990869" y1="640.5504587154544" x2="2369309.5412844475" y2="556.8807339449203"></line><line style="stroke: #aaa; stroke-width: 1.41421;" x1="2369295.596330319" y1="619.6330275227724" x2="2369260.7339449977" y2="570.825688073375"></line><line style="stroke: #aaa; stroke-width: 1;" x1="2369295.596330319" y1="619.6330275227724" x2="2369337.431192704" y2="598.7155963302841"></line><line style="stroke: #aaa; stroke-width: 1;" x1="2369295.596330319" y1="619.6330275227724" x2="2369309.5412844475" y2="556.8807339449203"></line><line style="stroke: #aaa; stroke-width: 1.41421;" x1="2369295.596330319" y1="619.6330275227724" x2="2369358.348623897" y2="535.9633027522385"></line><line style="stroke: #aaa; stroke-width: 1.41421;" x1="2369337.431192704" y1="598.7155963302841" x2="2369309.5412844475" y2="556.8807339449203"></line><line style="stroke: #aaa; stroke-width: 1;" x1="2369337.431192704" y1="598.7155963302841" x2="2369386.2385321534" y2="584.7706422018296"></line><line style="stroke: #aaa; stroke-width: 1;" x1="2369337.431192704" y1="598.7155963302841" x2="2369358.348623897" y2="535.9633027522385"></line><line style="stroke: #aaa; stroke-width: 1.41421;" x1="2369337.431192704" y1="598.7155963302841" x2="2369400.183486282" y2="522.0183486237839"></line><line style="stroke: #aaa; stroke-width: 1.41421;" x1="2369386.2385321534" y1="584.7706422018296" x2="2369358.348623897" y2="535.9633027522385"></line><line style="stroke: #aaa; stroke-width: 1;" x1="2369386.2385321534" y1="584.7706422018296" x2="2369421.1009174753" y2="570.825688073375"></line><line style="stroke: #aaa; stroke-width: 1;" x1="2369386.2385321534" y1="584.7706422018296" x2="2369400.183486282" y2="522.0183486237839"></line><line style="stroke: #aaa; stroke-width: 1.41421;" x1="2369386.2385321534" y1="584.7706422018296" x2="2369435.0458716033" y2="508.07339449532947"></line><line style="stroke: #aaa; stroke-width: 1.41421;" x1="2369421.1009174753" y1="570.825688073375" x2="2369400.183486282" y2="522.0183486237839"></line><line style="stroke: #aaa; stroke-width: 1;" x1="2369421.1009174753" y1="570.825688073375" x2="2369442.0183486673" y2="563.8532110091477"></line><line style="stroke: #aaa; stroke-width: 1;" x1="2369421.1009174753" y1="570.825688073375" x2="2369435.0458716033" y2="508.07339449532947"></line><line style="stroke: #aaa; stroke-width: 1.41421;" x1="2369421.1009174753" y1="570.825688073375" x2="2369455.963302796" y2="501.1009174311021"></line><line style="stroke: #aaa; stroke-width: 1.41421;" x1="2369442.0183486673" y1="563.8532110091477" x2="2369435.0458716033" y2="508.07339449532947"></line><line style="stroke: #aaa; stroke-width: 1;" x1="2369442.0183486673" y1="563.8532110091477" x2="2369455.963302796" y2="563.8532110091477"></line><line style="stroke: #aaa; stroke-width: 1;" x1="2369442.0183486673" y1="563.8532110091477" x2="2369455.963302796" y2="501.1009174311021"></line><line style="stroke: #aaa; stroke-width: 1.41421;" x1="2369442.0183486673" y1="563.8532110091477" x2="2369469.9082569247" y2="501.1009174311021"></line><line style="stroke: #aaa; stroke-width: 1.41421;" x1="2369455.963302796" y1="563.8532110091477" x2="2369455.963302796" y2="501.1009174311021"></line><line style="stroke: #aaa; stroke-width: 1;" x1="2369142.201834906" y1="633.577981651227" x2="2369163.119266099" y2="626.6055045869997"></line><line style="stroke: #aaa; stroke-width: 1;" x1="2369142.201834906" y1="633.577981651227" x2="2369170.091743163" y2="556.8807339449203"></line><line style="stroke: #aaa; stroke-width: 1.41421;" x1="2369142.201834906" y1="633.577981651227" x2="2369177.0642202278" y2="549.9082568806931"></line><line style="stroke: #aaa; stroke-width: 1.41421;" x1="2369163.119266099" y1="626.6055045869997" x2="2369170.091743163" y2="556.8807339449203"></line><line style="stroke: #aaa; stroke-width: 1;" x1="2369163.119266099" y1="626.6055045869997" x2="2369184.0366972913" y2="612.6605504585451"></line><line style="stroke: #aaa; stroke-width: 1;" x1="2369163.119266099" y1="626.6055045869997" x2="2369177.0642202278" y2="549.9082568806931"></line><line style="stroke: #aaa; stroke-width: 1.41421;" x1="2369163.119266099" y1="626.6055045869997" x2="2369204.9541284842" y2="535.9633027522385"></line><line style="stroke: #aaa; stroke-width: 1.41421;" x1="2369184.0366972913" y1="612.6605504585451" x2="2369177.0642202278" y2="549.9082568806931"></line><line style="stroke: #aaa; stroke-width: 1;" x1="2369184.0366972913" y1="612.6605504585451" x2="2369218.8990826127" y2="598.7155963302841"></line><line style="stroke: #aaa; stroke-width: 1;" x1="2369184.0366972913" y1="612.6605504585451" x2="2369204.9541284842" y2="535.9633027522385"></line><line style="stroke: #aaa; stroke-width: 1.41421;" x1="2369184.0366972913" y1="612.6605504585451" x2="2369239.816513805" y2="522.0183486237839"></line><line style="stroke: #aaa; stroke-width: 1.41421;" x1="2369218.8990826127" y1="598.7155963302841" x2="2369204.9541284842" y2="535.9633027522385"></line><line style="stroke: #aaa; stroke-width: 1;" x1="2369218.8990826127" y1="598.7155963302841" x2="2369260.7339449977" y2="570.825688073375"></line><line style="stroke: #aaa; stroke-width: 1;" x1="2369218.8990826127" y1="598.7155963302841" x2="2369239.816513805" y2="522.0183486237839"></line><line style="stroke: #aaa; stroke-width: 1.41421;" x1="2369218.8990826127" y1="598.7155963302841" x2="2369281.6513761906" y2="501.1009174311021"></line><line style="stroke: #aaa; stroke-width: 1.41421;" x1="2369260.7339449977" y1="570.825688073375" x2="2369239.816513805" y2="522.0183486237839"></line><line style="stroke: #aaa; stroke-width: 1;" x1="2369260.7339449977" y1="570.825688073375" x2="2369309.5412844475" y2="556.8807339449203"></line><line style="stroke: #aaa; stroke-width: 1;" x1="2369260.7339449977" y1="570.825688073375" x2="2369281.6513761906" y2="501.1009174311021"></line><line style="stroke: #aaa; stroke-width: 1.41421;" x1="2369260.7339449977" y1="570.825688073375" x2="2369330.4587156395" y2="487.15596330264754"></line><line style="stroke: #aaa; stroke-width: 1.41421;" x1="2369309.5412844475" y1="556.8807339449203" x2="2369281.6513761906" y2="501.1009174311021"></line><line style="stroke: #aaa; stroke-width: 1;" x1="2369309.5412844475" y1="556.8807339449203" x2="2369358.348623897" y2="535.9633027522385"></line><line style="stroke: #aaa; stroke-width: 1;" x1="2369309.5412844475" y1="556.8807339449203" x2="2369330.4587156395" y2="487.15596330264754"></line><line style="stroke: #aaa; stroke-width: 1.41421;" x1="2369309.5412844475" y1="556.8807339449203" x2="2369372.293578025" y2="459.26605504573837"></line><line style="stroke: #aaa; stroke-width: 1.41421;" x1="2369358.348623897" y1="535.9633027522385" x2="2369330.4587156395" y2="487.15596330264754"></line><line style="stroke: #aaa; stroke-width: 1;" x1="2369358.348623897" y1="535.9633027522385" x2="2369400.183486282" y2="522.0183486237839"></line><line style="stroke: #aaa; stroke-width: 1;" x1="2369358.348623897" y1="535.9633027522385" x2="2369372.293578025" y2="459.26605504573837"></line><line style="stroke: #aaa; stroke-width: 1.41421;" x1="2369358.348623897" y1="535.9633027522385" x2="2369414.128440411" y2="452.2935779815111"></line><line style="stroke: #aaa; stroke-width: 1.41421;" x1="2369400.183486282" y1="522.0183486237839" x2="2369372.293578025" y2="459.26605504573837"></line><line style="stroke: #aaa; stroke-width: 1;" x1="2369400.183486282" y1="522.0183486237839" x2="2369435.0458716033" y2="508.07339449532947"></line><line style="stroke: #aaa; stroke-width: 1;" x1="2369400.183486282" y1="522.0183486237839" x2="2369414.128440411" y2="452.2935779815111"></line><line style="stroke: #aaa; stroke-width: 1.41421;" x1="2369400.183486282" y1="522.0183486237839" x2="2369448.9908257313" y2="431.3761467888292"></line><line style="stroke: #aaa; stroke-width: 1.41421;" x1="2369435.0458716033" y1="508.07339449532947" x2="2369414.128440411" y2="452.2935779815111"></line><line style="stroke: #aaa; stroke-width: 1;" x1="2369435.0458716033" y1="508.07339449532947" x2="2369455.963302796" y2="501.1009174311021"></line><line style="stroke: #aaa; stroke-width: 1;" x1="2369435.0458716033" y1="508.07339449532947" x2="2369448.9908257313" y2="431.3761467888292"></line><line style="stroke: #aaa; stroke-width: 1.41421;" x1="2369435.0458716033" y1="508.07339449532947" x2="2369476.8807339882" y2="424.403669724602"></line><line style="stroke: #aaa; stroke-width: 1.41421;" x1="2369455.963302796" y1="501.1009174311021" x2="2369448.9908257313" y2="431.3761467888292"></line><line style="stroke: #aaa; stroke-width: 1;" x1="2369455.963302796" y1="501.1009174311021" x2="2369469.9082569247" y2="501.1009174311021"></line><line style="stroke: #aaa; stroke-width: 1;" x1="2369455.963302796" y1="501.1009174311021" x2="2369476.8807339882" y2="424.403669724602"></line><line style="stroke: #aaa; stroke-width: 1.41421;" x1="2369455.963302796" y1="501.1009174311021" x2="2369483.8532110527" y2="417.4311926603747"></line><line style="stroke: #aaa; stroke-width: 1.41421;" x1="2369469.9082569247" y1="501.1009174311021" x2="2369476.8807339882" y2="424.403669724602"></line><line style="stroke: #aaa; stroke-width: 1;" x1="2369170.091743163" y1="556.8807339449203" x2="2369177.0642202278" y2="549.9082568806931"></line><line style="stroke: #aaa; stroke-width: 1;" x1="2369170.091743163" y1="556.8807339449203" x2="2369191.009174356" y2="466.2385321099657"></line><line style="stroke: #aaa; stroke-width: 1.41421;" x1="2369170.091743163" y1="556.8807339449203" x2="2369204.9541284842" y2="466.2385321099657"></line><line style="stroke: #aaa; stroke-width: 1.41421;" x1="2369177.0642202278" y1="549.9082568806931" x2="2369191.009174356" y2="466.2385321099657"></line><line style="stroke: #aaa; stroke-width: 1;" x1="2369177.0642202278" y1="549.9082568806931" x2="2369204.9541284842" y2="535.9633027522385"></line><line style="stroke: #aaa; stroke-width: 1;" x1="2369177.0642202278" y1="549.9082568806931" x2="2369204.9541284842" y2="466.2385321099657"></line><line style="stroke: #aaa; stroke-width: 1.41421;" x1="2369177.0642202278" y1="549.9082568806931" x2="2369225.8715596762" y2="452.2935779815111"></line><line style="stroke: #aaa; stroke-width: 1.41421;" x1="2369204.9541284842" y1="535.9633027522385" x2="2369204.9541284842" y2="466.2385321099657"></line><line style="stroke: #aaa; stroke-width: 1;" x1="2369204.9541284842" y1="535.9633027522385" x2="2369239.816513805" y2="522.0183486237839"></line><line style="stroke: #aaa; stroke-width: 1;" x1="2369204.9541284842" y1="535.9633027522385" x2="2369225.8715596762" y2="452.2935779815111"></line><line style="stroke: #aaa; stroke-width: 1.41421;" x1="2369204.9541284842" y1="535.9633027522385" x2="2369260.7339449977" y2="438.34862385305655"></line><line style="stroke: #aaa; stroke-width: 1.41421;" x1="2369239.816513805" y1="522.0183486237839" x2="2369225.8715596762" y2="452.2935779815111"></line><line style="stroke: #aaa; stroke-width: 1;" x1="2369239.816513805" y1="522.0183486237839" x2="2369281.6513761906" y2="501.1009174311021"></line><line style="stroke: #aaa; stroke-width: 1;" x1="2369239.816513805" y1="522.0183486237839" x2="2369260.7339449977" y2="438.34862385305655"></line><line style="stroke: #aaa; stroke-width: 1.41421;" x1="2369239.816513805" y1="522.0183486237839" x2="2369302.568807383" y2="417.4311926603747"></line><line style="stroke: #aaa; stroke-width: 1.41421;" x1="2369281.6513761906" y1="501.1009174311021" x2="2369260.7339449977" y2="438.34862385305655"></line><line style="stroke: #aaa; stroke-width: 1;" x1="2369281.6513761906" y1="501.1009174311021" x2="2369330.4587156395" y2="487.15596330264754"></line><line style="stroke: #aaa; stroke-width: 1;" x1="2369281.6513761906" y1="501.1009174311021" x2="2369302.568807383" y2="417.4311926603747"></line><line style="stroke: #aaa; stroke-width: 1.41421;" x1="2369281.6513761906" y1="501.1009174311021" x2="2369351.376146833" y2="403.48623853211365"></line><line style="stroke: #aaa; stroke-width: 1.41421;" x1="2369330.4587156395" y1="487.15596330264754" x2="2369302.568807383" y2="417.4311926603747"></line><line style="stroke: #aaa; stroke-width: 1;" x1="2369330.4587156395" y1="487.15596330264754" x2="2369372.293578025" y2="459.26605504573837"></line><line style="stroke: #aaa; stroke-width: 1;" x1="2369330.4587156395" y1="487.15596330264754" x2="2369351.376146833" y2="403.48623853211365"></line><line style="stroke: #aaa; stroke-width: 1.41421;" x1="2369330.4587156395" y1="487.15596330264754" x2="2369393.211009218" y2="375.5963302752045"></line><line style="stroke: #aaa; stroke-width: 1.41421;" x1="2369372.293578025" y1="459.26605504573837" x2="2369351.376146833" y2="403.48623853211365"></line><line style="stroke: #aaa; stroke-width: 1;" x1="2369372.293578025" y1="459.26605504573837" x2="2369414.128440411" y2="452.2935779815111"></line><line style="stroke: #aaa; stroke-width: 1;" x1="2369372.293578025" y1="459.26605504573837" x2="2369393.211009218" y2="375.5963302752045"></line><line style="stroke: #aaa; stroke-width: 1.41421;" x1="2369372.293578025" y1="459.26605504573837" x2="2369435.0458716033" y2="361.6513761467499"></line><line style="stroke: #aaa; stroke-width: 1.41421;" x1="2369414.128440411" y1="452.2935779815111" x2="2369393.211009218" y2="375.5963302752045"></line><line style="stroke: #aaa; stroke-width: 1;" x1="2369414.128440411" y1="452.2935779815111" x2="2369448.9908257313" y2="431.3761467888292"></line><line style="stroke: #aaa; stroke-width: 1;" x1="2369414.128440411" y1="452.2935779815111" x2="2369435.0458716033" y2="361.6513761467499"></line><line style="stroke: #aaa; stroke-width: 1.41421;" x1="2369414.128440411" y1="452.2935779815111" x2="2369469.9082569247" y2="347.70642201829537"></line><line style="stroke: #aaa; stroke-width: 1.41421;" x1="2369448.9908257313" y1="431.3761467888292" x2="2369435.0458716033" y2="361.6513761467499"></line><line style="stroke: #aaa; stroke-width: 1;" x1="2369448.9908257313" y1="431.3761467888292" x2="2369476.8807339882" y2="424.403669724602"></line><line style="stroke: #aaa; stroke-width: 1;" x1="2369448.9908257313" y1="431.3761467888292" x2="2369469.9082569247" y2="347.70642201829537"></line><line style="stroke: #aaa; stroke-width: 1.41421;" x1="2369448.9908257313" y1="431.3761467888292" x2="2369497.798165181" y2="340.7339449540681"></line><line style="stroke: #aaa; stroke-width: 1.41421;" x1="2369476.8807339882" y1="424.403669724602" x2="2369469.9082569247" y2="347.70642201829537"></line><line style="stroke: #aaa; stroke-width: 1;" x1="2369476.8807339882" y1="424.403669724602" x2="2369483.8532110527" y2="417.4311926603747"></line><line style="stroke: #aaa; stroke-width: 1;" x1="2369476.8807339882" y1="424.403669724602" x2="2369497.798165181" y2="340.7339449540681"></line><line style="stroke: #aaa; stroke-width: 1.41421;" x1="2369476.8807339882" y1="424.403669724602" x2="2369511.7431193097" y2="333.7614678898408"></line><line style="stroke: #aaa; stroke-width: 1.41421;" x1="2369483.8532110527" y1="417.4311926603747" x2="2369497.798165181" y2="340.7339449540681"></line><line style="stroke: #aaa; stroke-width: 1;" x1="2369191.009174356" y1="466.2385321099657" x2="2369204.9541284842" y2="466.2385321099657"></line><line style="stroke: #aaa; stroke-width: 1;" x1="2369191.009174356" y1="466.2385321099657" x2="2369211.9266055482" y2="382.5688073394318"></line><line style="stroke: #aaa; stroke-width: 1.41421;" x1="2369191.009174356" y1="466.2385321099657" x2="2369225.8715596762" y2="382.5688073394318"></line><line style="stroke: #aaa; stroke-width: 1.41421;" x1="2369204.9541284842" y1="466.2385321099657" x2="2369211.9266055482" y2="382.5688073394318"></line><line style="stroke: #aaa; stroke-width: 1;" x1="2369204.9541284842" y1="466.2385321099657" x2="2369225.8715596762" y2="452.2935779815111"></line><line style="stroke: #aaa; stroke-width: 1;" x1="2369204.9541284842" y1="466.2385321099657" x2="2369225.8715596762" y2="382.5688073394318"></line><line style="stroke: #aaa; stroke-width: 1.41421;" x1="2369204.9541284842" y1="466.2385321099657" x2="2369246.788990869" y2="368.6238532109772"></line><line style="stroke: #aaa; stroke-width: 1.41421;" x1="2369225.8715596762" y1="452.2935779815111" x2="2369225.8715596762" y2="382.5688073394318"></line><line style="stroke: #aaa; stroke-width: 1;" x1="2369225.8715596762" y1="452.2935779815111" x2="2369260.7339449977" y2="438.34862385305655"></line><line style="stroke: #aaa; stroke-width: 1;" x1="2369225.8715596762" y1="452.2935779815111" x2="2369246.788990869" y2="368.6238532109772"></line><line style="stroke: #aaa; stroke-width: 1.41421;" x1="2369225.8715596762" y1="452.2935779815111" x2="2369281.6513761906" y2="361.6513761467499"></line><line style="stroke: #aaa; stroke-width: 1.41421;" x1="2369260.7339449977" y1="438.34862385305655" x2="2369246.788990869" y2="368.6238532109772"></line><line style="stroke: #aaa; stroke-width: 1;" x1="2369260.7339449977" y1="438.34862385305655" x2="2369302.568807383" y2="417.4311926603747"></line><line style="stroke: #aaa; stroke-width: 1;" x1="2369260.7339449977" y1="438.34862385305655" x2="2369281.6513761906" y2="361.6513761467499"></line><line style="stroke: #aaa; stroke-width: 1.41421;" x1="2369260.7339449977" y1="438.34862385305655" x2="2369323.486238576" y2="340.7339449540681"></line><line style="stroke: #aaa; stroke-width: 1.41421;" x1="2369302.568807383" y1="417.4311926603747" x2="2369281.6513761906" y2="361.6513761467499"></line><line style="stroke: #aaa; stroke-width: 1;" x1="2369302.568807383" y1="417.4311926603747" x2="2369351.376146833" y2="403.48623853211365"></line><line style="stroke: #aaa; stroke-width: 1;" x1="2369302.568807383" y1="417.4311926603747" x2="2369323.486238576" y2="340.7339449540681"></line><line style="stroke: #aaa; stroke-width: 1.41421;" x1="2369302.568807383" y1="417.4311926603747" x2="2369372.293578025" y2="326.7889908256135"></line><line style="stroke: #aaa; stroke-width: 1.41421;" x1="2369351.376146833" y1="403.48623853211365" x2="2369323.486238576" y2="340.7339449540681"></line><line style="stroke: #aaa; stroke-width: 1;" x1="2369351.376146833" y1="403.48623853211365" x2="2369393.211009218" y2="375.5963302752045"></line><line style="stroke: #aaa; stroke-width: 1;" x1="2369351.376146833" y1="403.48623853211365" x2="2369372.293578025" y2="326.7889908256135"></line><line style="stroke: #aaa; stroke-width: 1.41421;" x1="2369351.376146833" y1="403.48623853211365" x2="2369414.128440411" y2="298.8990825687044"></line><line style="stroke: #aaa; stroke-width: 1.41421;" x1="2369393.211009218" y1="375.5963302752045" x2="2369372.293578025" y2="326.7889908256135"></line><line style="stroke: #aaa; stroke-width: 1;" x1="2369393.211009218" y1="375.5963302752045" x2="2369435.0458716033" y2="361.6513761467499"></line><line style="stroke: #aaa; stroke-width: 1;" x1="2369393.211009218" y1="375.5963302752045" x2="2369414.128440411" y2="298.8990825687044"></line><line style="stroke: #aaa; stroke-width: 1.41421;" x1="2369393.211009218" y1="375.5963302752045" x2="2369455.963302796" y2="284.95412844024975"></line><line style="stroke: #aaa; stroke-width: 1.41421;" x1="2369435.0458716033" y1="361.6513761467499" x2="2369414.128440411" y2="298.8990825687044"></line><line style="stroke: #aaa; stroke-width: 1;" x1="2369435.0458716033" y1="361.6513761467499" x2="2369469.9082569247" y2="347.70642201829537"></line><line style="stroke: #aaa; stroke-width: 1;" x1="2369435.0458716033" y1="361.6513761467499" x2="2369455.963302796" y2="284.95412844024975"></line><line style="stroke: #aaa; stroke-width: 1.41421;" x1="2369435.0458716033" y1="361.6513761467499" x2="2369490.8256881167" y2="264.03669724756793"></line><line style="stroke: #aaa; stroke-width: 1.41421;" x1="2369469.9082569247" y1="347.70642201829537" x2="2369455.963302796" y2="284.95412844024975"></line><line style="stroke: #aaa; stroke-width: 1;" x1="2369469.9082569247" y1="347.70642201829537" x2="2369497.798165181" y2="340.7339449540681"></line><line style="stroke: #aaa; stroke-width: 1;" x1="2369469.9082569247" y1="347.70642201829537" x2="2369490.8256881167" y2="264.03669724756793"></line><line style="stroke: #aaa; stroke-width: 1.41421;" x1="2369469.9082569247" y1="347.70642201829537" x2="2369518.7155963737" y2="257.06422018334064"></line><line style="stroke: #aaa; stroke-width: 1.41421;" x1="2369497.798165181" y1="340.7339449540681" x2="2369490.8256881167" y2="264.03669724756793"></line><line style="stroke: #aaa; stroke-width: 1;" x1="2369497.798165181" y1="340.7339449540681" x2="2369511.7431193097" y2="333.7614678898408"></line><line style="stroke: #aaa; stroke-width: 1;" x1="2369497.798165181" y1="340.7339449540681" x2="2369518.7155963737" y2="257.06422018334064"></line><line style="stroke: #aaa; stroke-width: 1.41421;" x1="2369497.798165181" y1="340.7339449540681" x2="2369532.6605505026" y2="243.11926605488608"></line><line style="stroke: #aaa; stroke-width: 1.41421;" x1="2369511.7431193097" y1="333.7614678898408" x2="2369518.7155963737" y2="257.06422018334064"></line><line style="stroke: #aaa; stroke-width: 1;" x1="2369211.9266055482" y1="382.5688073394318" x2="2369225.8715596762" y2="382.5688073394318"></line><line style="stroke: #aaa; stroke-width: 1;" x1="2369211.9266055482" y1="382.5688073394318" x2="2369225.8715596762" y2="305.8715596329316"></line><line style="stroke: #aaa; stroke-width: 1.41421;" x1="2369211.9266055482" y1="382.5688073394318" x2="2369239.816513805" y2="298.8990825687044"></line><line style="stroke: #aaa; stroke-width: 1.41421;" x1="2369225.8715596762" y1="382.5688073394318" x2="2369225.8715596762" y2="305.8715596329316"></line><line style="stroke: #aaa; stroke-width: 1;" x1="2369225.8715596762" y1="382.5688073394318" x2="2369246.788990869" y2="368.6238532109772"></line><line style="stroke: #aaa; stroke-width: 1;" x1="2369225.8715596762" y1="382.5688073394318" x2="2369239.816513805" y2="298.8990825687044"></line><line style="stroke: #aaa; stroke-width: 1.41421;" x1="2369225.8715596762" y1="382.5688073394318" x2="2369267.706422062" y2="291.92660550447704"></line><line style="stroke: #aaa; stroke-width: 1.41421;" x1="2369246.788990869" y1="368.6238532109772" x2="2369239.816513805" y2="298.8990825687044"></line><line style="stroke: #aaa; stroke-width: 1;" x1="2369246.788990869" y1="368.6238532109772" x2="2369281.6513761906" y2="361.6513761467499"></line><line style="stroke: #aaa; stroke-width: 1;" x1="2369246.788990869" y1="368.6238532109772" x2="2369267.706422062" y2="291.92660550447704"></line><line style="stroke: #aaa; stroke-width: 1.41421;" x1="2369246.788990869" y1="368.6238532109772" x2="2369302.568807383" y2="284.95412844024975"></line><line style="stroke: #aaa; stroke-width: 1.41421;" x1="2369281.6513761906" y1="361.6513761467499" x2="2369267.706422062" y2="291.92660550447704"></line><line style="stroke: #aaa; stroke-width: 1;" x1="2369281.6513761906" y1="361.6513761467499" x2="2369323.486238576" y2="340.7339449540681"></line><line style="stroke: #aaa; stroke-width: 1;" x1="2369281.6513761906" y1="361.6513761467499" x2="2369302.568807383" y2="284.95412844024975"></line><line style="stroke: #aaa; stroke-width: 1.41421;" x1="2369281.6513761906" y1="361.6513761467499" x2="2369344.403669768" y2="257.06422018334064"></line><line style="stroke: #aaa; stroke-width: 1.41421;" x1="2369323.486238576" y1="340.7339449540681" x2="2369302.568807383" y2="284.95412844024975"></line><line style="stroke: #aaa; stroke-width: 1;" x1="2369323.486238576" y1="340.7339449540681" x2="2369372.293578025" y2="326.7889908256135"></line><line style="stroke: #aaa; stroke-width: 1;" x1="2369323.486238576" y1="340.7339449540681" x2="2369344.403669768" y2="257.06422018334064"></line><line style="stroke: #aaa; stroke-width: 1.41421;" x1="2369323.486238576" y1="340.7339449540681" x2="2369386.2385321534" y2="243.11926605488608"></line><line style="stroke: #aaa; stroke-width: 1.41421;" x1="2369372.293578025" y1="326.7889908256135" x2="2369344.403669768" y2="257.06422018334064"></line><line style="stroke: #aaa; stroke-width: 1;" x1="2369372.293578025" y1="326.7889908256135" x2="2369414.128440411" y2="298.8990825687044"></line><line style="stroke: #aaa; stroke-width: 1;" x1="2369372.293578025" y1="326.7889908256135" x2="2369386.2385321534" y2="243.11926605488608"></line><line style="stroke: #aaa; stroke-width: 1.41421;" x1="2369372.293578025" y1="326.7889908256135" x2="2369435.0458716033" y2="222.2018348622042"></line><line style="stroke: #aaa; stroke-width: 1.41421;" x1="2369414.128440411" y1="298.8990825687044" x2="2369386.2385321534" y2="243.11926605488608"></line><line style="stroke: #aaa; stroke-width: 1;" x1="2369414.128440411" y1="298.8990825687044" x2="2369455.963302796" y2="284.95412844024975"></line><line style="stroke: #aaa; stroke-width: 1;" x1="2369414.128440411" y1="298.8990825687044" x2="2369435.0458716033" y2="222.2018348622042"></line><line style="stroke: #aaa; stroke-width: 1.41421;" x1="2369414.128440411" y1="298.8990825687044" x2="2369476.8807339882" y2="208.25688073394318"></line><line style="stroke: #aaa; stroke-width: 1.41421;" x1="2369455.963302796" y1="284.95412844024975" x2="2369435.0458716033" y2="222.2018348622042"></line><line style="stroke: #aaa; stroke-width: 1;" x1="2369455.963302796" y1="284.95412844024975" x2="2369490.8256881167" y2="264.03669724756793"></line><line style="stroke: #aaa; stroke-width: 1;" x1="2369455.963302796" y1="284.95412844024975" x2="2369476.8807339882" y2="208.25688073394318"></line><line style="stroke: #aaa; stroke-width: 1.41421;" x1="2369455.963302796" y1="284.95412844024975" x2="2369511.7431193097" y2="187.33944954126133"></line><line style="stroke: #aaa; stroke-width: 1.41421;" x1="2369490.8256881167" y1="264.03669724756793" x2="2369476.8807339882" y2="208.25688073394318"></line><line style="stroke: #aaa; stroke-width: 1;" x1="2369490.8256881167" y1="264.03669724756793" x2="2369518.7155963737" y2="257.06422018334064"></line><line style="stroke: #aaa; stroke-width: 1;" x1="2369490.8256881167" y1="264.03669724756793" x2="2369511.7431193097" y2="187.33944954126133"></line><line style="stroke: #aaa; stroke-width: 1.41421;" x1="2369490.8256881167" y1="264.03669724756793" x2="2369539.633027567" y2="173.39449541280675"></line><line style="stroke: #aaa; stroke-width: 1.41421;" x1="2369518.7155963737" y1="257.06422018334064" x2="2369511.7431193097" y2="187.33944954126133"></line><line style="stroke: #aaa; stroke-width: 1;" x1="2369518.7155963737" y1="257.06422018334064" x2="2369532.6605505026" y2="243.11926605488608"></line><line style="stroke: #aaa; stroke-width: 1;" x1="2369518.7155963737" y1="257.06422018334064" x2="2369539.633027567" y2="173.39449541280675"></line><line style="stroke: #aaa; stroke-width: 1.41421;" x1="2369518.7155963737" y1="257.06422018334064" x2="2369553.5779816955" y2="166.42201834857946"></line><line style="stroke: #aaa; stroke-width: 1.41421;" x1="2369532.6605505026" y1="243.11926605488608" x2="2369539.633027567" y2="173.39449541280675"></line><line style="stroke: #aaa; stroke-width: 1;" x1="2369225.8715596762" y1="305.8715596329316" x2="2369239.816513805" y2="298.8990825687044"></line><line style="stroke: #aaa; stroke-width: 1;" x1="2369225.8715596762" y1="305.8715596329316" x2="2369246.788990869" y2="236.1467889906588"></line><line style="stroke: #aaa; stroke-width: 1.41421;" x1="2369225.8715596762" y1="305.8715596329316" x2="2369253.7614679337" y2="236.1467889906588"></line><line style="stroke: #aaa; stroke-width: 1.41421;" x1="2369239.816513805" y1="298.8990825687044" x2="2369246.788990869" y2="236.1467889906588"></line><line style="stroke: #aaa; stroke-width: 1;" x1="2369239.816513805" y1="298.8990825687044" x2="2369267.706422062" y2="291.92660550447704"></line><line style="stroke: #aaa; stroke-width: 1;" x1="2369239.816513805" y1="298.8990825687044" x2="2369253.7614679337" y2="236.1467889906588"></line><line style="stroke: #aaa; stroke-width: 1.41421;" x1="2369239.816513805" y1="298.8990825687044" x2="2369281.6513761906" y2="229.1743119264315"></line><line style="stroke: #aaa; stroke-width: 1.41421;" x1="2369267.706422062" y1="291.92660550447704" x2="2369253.7614679337" y2="236.1467889906588"></line><line style="stroke: #aaa; stroke-width: 1;" x1="2369267.706422062" y1="291.92660550447704" x2="2369302.568807383" y2="284.95412844024975"></line><line style="stroke: #aaa; stroke-width: 1;" x1="2369267.706422062" y1="291.92660550447704" x2="2369281.6513761906" y2="229.1743119264315"></line><line style="stroke: #aaa; stroke-width: 1.41421;" x1="2369267.706422062" y1="291.92660550447704" x2="2369316.5137615115" y2="222.2018348622042"></line><line style="stroke: #aaa; stroke-width: 1.41421;" x1="2369302.568807383" y1="284.95412844024975" x2="2369281.6513761906" y2="229.1743119264315"></line><line style="stroke: #aaa; stroke-width: 1;" x1="2369302.568807383" y1="284.95412844024975" x2="2369344.403669768" y2="257.06422018334064"></line><line style="stroke: #aaa; stroke-width: 1;" x1="2369302.568807383" y1="284.95412844024975" x2="2369316.5137615115" y2="222.2018348622042"></line><line style="stroke: #aaa; stroke-width: 1.41421;" x1="2369302.568807383" y1="284.95412844024975" x2="2369358.348623897" y2="201.2844036697159"></line><line style="stroke: #aaa; stroke-width: 1.41421;" x1="2369344.403669768" y1="257.06422018334064" x2="2369316.5137615115" y2="222.2018348622042"></line><line style="stroke: #aaa; stroke-width: 1;" x1="2369344.403669768" y1="257.06422018334064" x2="2369386.2385321534" y2="243.11926605488608"></line><line style="stroke: #aaa; stroke-width: 1;" x1="2369344.403669768" y1="257.06422018334064" x2="2369358.348623897" y2="201.2844036697159"></line><line style="stroke: #aaa; stroke-width: 1.41421;" x1="2369344.403669768" y1="257.06422018334064" x2="2369400.183486282" y2="187.33944954126133"></line><line style="stroke: #aaa; stroke-width: 1.41421;" x1="2369386.2385321534" y1="243.11926605488608" x2="2369358.348623897" y2="201.2844036697159"></line><line style="stroke: #aaa; stroke-width: 1;" x1="2369386.2385321534" y1="243.11926605488608" x2="2369435.0458716033" y2="222.2018348622042"></line><line style="stroke: #aaa; stroke-width: 1;" x1="2369386.2385321534" y1="243.11926605488608" x2="2369400.183486282" y2="187.33944954126133"></line><line style="stroke: #aaa; stroke-width: 1.41421;" x1="2369386.2385321534" y1="243.11926605488608" x2="2369448.9908257313" y2="159.4495412843522"></line><line style="stroke: #aaa; stroke-width: 1.41421;" x1="2369435.0458716033" y1="222.2018348622042" x2="2369400.183486282" y2="187.33944954126133"></line><line style="stroke: #aaa; stroke-width: 1;" x1="2369435.0458716033" y1="222.2018348622042" x2="2369476.8807339882" y2="208.25688073394318"></line><line style="stroke: #aaa; stroke-width: 1;" x1="2369435.0458716033" y1="222.2018348622042" x2="2369448.9908257313" y2="159.4495412843522"></line><line style="stroke: #aaa; stroke-width: 1.41421;" x1="2369435.0458716033" y1="222.2018348622042" x2="2369490.8256881167" y2="145.5045871558976"></line><line style="stroke: #aaa; stroke-width: 1.41421;" x1="2369476.8807339882" y1="208.25688073394318" x2="2369448.9908257313" y2="159.4495412843522"></line><line style="stroke: #aaa; stroke-width: 1;" x1="2369476.8807339882" y1="208.25688073394318" x2="2369511.7431193097" y2="187.33944954126133"></line><line style="stroke: #aaa; stroke-width: 1;" x1="2369476.8807339882" y1="208.25688073394318" x2="2369490.8256881167" y2="145.5045871558976"></line><line style="stroke: #aaa; stroke-width: 1.41421;" x1="2369476.8807339882" y1="208.25688073394318" x2="2369532.6605505026" y2="124.58715596321575"></line><line style="stroke: #aaa; stroke-width: 1.41421;" x1="2369511.7431193097" y1="187.33944954126133" x2="2369490.8256881167" y2="145.5045871558976"></line><line style="stroke: #aaa; stroke-width: 1;" x1="2369511.7431193097" y1="187.33944954126133" x2="2369539.633027567" y2="173.39449541280675"></line><line style="stroke: #aaa; stroke-width: 1;" x1="2369511.7431193097" y1="187.33944954126133" x2="2369532.6605505026" y2="124.58715596321575"></line><line style="stroke: #aaa; stroke-width: 1.41421;" x1="2369511.7431193097" y1="187.33944954126133" x2="2369553.5779816955" y2="110.64220183476118"></line><line style="stroke: #aaa; stroke-width: 1.41421;" x1="2369539.633027567" y1="173.39449541280675" x2="2369532.6605505026" y2="124.58715596321575"></line><line style="stroke: #aaa; stroke-width: 1;" x1="2369539.633027567" y1="173.39449541280675" x2="2369553.5779816955" y2="166.42201834857946"></line><line style="stroke: #aaa; stroke-width: 1;" x1="2369539.633027567" y1="173.39449541280675" x2="2369553.5779816955" y2="110.64220183476118"></line><line style="stroke: #aaa; stroke-width: 1.41421;" x1="2369539.633027567" y1="173.39449541280675" x2="2369574.4954128875" y2="96.69724770630661"></line><line style="stroke: #aaa; stroke-width: 1.41421;" x1="2369553.5779816955" y1="166.42201834857946" x2="2369553.5779816955" y2="110.64220183476118"></line><line style="stroke: #aaa; stroke-width: 1;" x1="2369246.788990869" y1="236.1467889906588" x2="2369253.7614679337" y2="236.1467889906588"></line><line style="stroke: #aaa; stroke-width: 1;" x1="2369246.788990869" y1="236.1467889906588" x2="2369253.7614679337" y2="194.3119266054886"></line><line style="stroke: #aaa; stroke-width: 1.41421;" x1="2369246.788990869" y1="236.1467889906588" x2="2369260.7339449977" y2="194.3119266054886"></line><line style="stroke: #aaa; stroke-width: 1.41421;" x1="2369253.7614679337" y1="236.1467889906588" x2="2369253.7614679337" y2="194.3119266054886"></line><line style="stroke: #aaa; stroke-width: 1;" x1="2369253.7614679337" y1="236.1467889906588" x2="2369281.6513761906" y2="229.1743119264315"></line><line style="stroke: #aaa; stroke-width: 1;" x1="2369253.7614679337" y1="236.1467889906588" x2="2369260.7339449977" y2="194.3119266054886"></line><line style="stroke: #aaa; stroke-width: 1.41421;" x1="2369253.7614679337" y1="236.1467889906588" x2="2369288.623853255" y2="187.33944954126133"></line><line style="stroke: #aaa; stroke-width: 1.41421;" x1="2369281.6513761906" y1="229.1743119264315" x2="2369260.7339449977" y2="194.3119266054886"></line><line style="stroke: #aaa; stroke-width: 1;" x1="2369281.6513761906" y1="229.1743119264315" x2="2369316.5137615115" y2="222.2018348622042"></line><line style="stroke: #aaa; stroke-width: 1;" x1="2369281.6513761906" y1="229.1743119264315" x2="2369288.623853255" y2="187.33944954126133"></line><line style="stroke: #aaa; stroke-width: 1.41421;" x1="2369281.6513761906" y1="229.1743119264315" x2="2369323.486238576" y2="173.39449541280675"></line><line style="stroke: #aaa; stroke-width: 1.41421;" x1="2369316.5137615115" y1="222.2018348622042" x2="2369288.623853255" y2="187.33944954126133"></line><line style="stroke: #aaa; stroke-width: 1;" x1="2369316.5137615115" y1="222.2018348622042" x2="2369358.348623897" y2="201.2844036697159"></line><line style="stroke: #aaa; stroke-width: 1;" x1="2369316.5137615115" y1="222.2018348622042" x2="2369323.486238576" y2="173.39449541280675"></line><line style="stroke: #aaa; stroke-width: 1.41421;" x1="2369316.5137615115" y1="222.2018348622042" x2="2369365.3211009614" y2="159.4495412843522"></line><line style="stroke: #aaa; stroke-width: 1.41421;" x1="2369358.348623897" y1="201.2844036697159" x2="2369323.486238576" y2="173.39449541280675"></line><line style="stroke: #aaa; stroke-width: 1;" x1="2369358.348623897" y1="201.2844036697159" x2="2369400.183486282" y2="187.33944954126133"></line><line style="stroke: #aaa; stroke-width: 1;" x1="2369358.348623897" y1="201.2844036697159" x2="2369365.3211009614" y2="159.4495412843522"></line><line style="stroke: #aaa; stroke-width: 1.41421;" x1="2369358.348623897" y1="201.2844036697159" x2="2369414.128440411" y2="138.53211009167032"></line><line style="stroke: #aaa; stroke-width: 1.41421;" x1="2369400.183486282" y1="187.33944954126133" x2="2369365.3211009614" y2="159.4495412843522"></line><line style="stroke: #aaa; stroke-width: 1;" x1="2369400.183486282" y1="187.33944954126133" x2="2369448.9908257313" y2="159.4495412843522"></line><line style="stroke: #aaa; stroke-width: 1;" x1="2369400.183486282" y1="187.33944954126133" x2="2369414.128440411" y2="138.53211009167032"></line><line style="stroke: #aaa; stroke-width: 1.41421;" x1="2369400.183486282" y1="187.33944954126133" x2="2369462.93577986" y2="117.61467889898847"></line><line style="stroke: #aaa; stroke-width: 1.41421;" x1="2369448.9908257313" y1="159.4495412843522" x2="2369414.128440411" y2="138.53211009167032"></line><line style="stroke: #aaa; stroke-width: 1;" x1="2369448.9908257313" y1="159.4495412843522" x2="2369490.8256881167" y2="145.5045871558976"></line><line style="stroke: #aaa; stroke-width: 1;" x1="2369448.9908257313" y1="159.4495412843522" x2="2369462.93577986" y2="117.61467889898847"></line><line style="stroke: #aaa; stroke-width: 1.41421;" x1="2369448.9908257313" y1="159.4495412843522" x2="2369504.770642245" y2="96.69724770630661"></line><line style="stroke: #aaa; stroke-width: 1.41421;" x1="2369490.8256881167" y1="145.5045871558976" x2="2369462.93577986" y2="117.61467889898847"></line><line style="stroke: #aaa; stroke-width: 1;" x1="2369490.8256881167" y1="145.5045871558976" x2="2369532.6605505026" y2="124.58715596321575"></line><line style="stroke: #aaa; stroke-width: 1;" x1="2369490.8256881167" y1="145.5045871558976" x2="2369504.770642245" y2="96.69724770630661"></line><line style="stroke: #aaa; stroke-width: 1.41421;" x1="2369490.8256881167" y1="145.5045871558976" x2="2369546.605504631" y2="75.77981651362475"></line><line style="stroke: #aaa; stroke-width: 1.41421;" x1="2369532.6605505026" y1="124.58715596321575" x2="2369504.770642245" y2="96.69724770630661"></line><line style="stroke: #aaa; stroke-width: 1;" x1="2369532.6605505026" y1="124.58715596321575" x2="2369553.5779816955" y2="110.64220183476118"></line><line style="stroke: #aaa; stroke-width: 1;" x1="2369532.6605505026" y1="124.58715596321575" x2="2369546.605504631" y2="75.77981651362475"></line><line style="stroke: #aaa; stroke-width: 1.41421;" x1="2369532.6605505026" y1="124.58715596321575" x2="2369574.4954128875" y2="61.83486238517018"></line><line style="stroke: #aaa; stroke-width: 1.41421;" x1="2369553.5779816955" y1="110.64220183476118" x2="2369546.605504631" y2="75.77981651362475"></line><line style="stroke: #aaa; stroke-width: 1;" x1="2369553.5779816955" y1="110.64220183476118" x2="2369574.4954128875" y2="96.69724770630661"></line><line style="stroke: #aaa; stroke-width: 1;" x1="2369553.5779816955" y1="110.64220183476118" x2="2369574.4954128875" y2="61.83486238517018"></line><line style="stroke: #aaa; stroke-width: 1.41421;" x1="2369553.5779816955" y1="110.64220183476118" x2="2369588.4403670165" y2="47.889908256715614"></line><line style="stroke: #aaa; stroke-width: 1.41421;" x1="2369574.4954128875" y1="96.69724770630661" x2="2369574.4954128875" y2="61.83486238517018"></line><line style="stroke: #aaa; stroke-width: 1;" x1="2369253.7614679337" y1="194.3119266054886" x2="2369260.7339449977" y2="194.3119266054886"></line><line style="stroke: #aaa; stroke-width: 1;" x1="2369253.7614679337" y1="194.3119266054886" x2="2369253.7614679337" y2="166.42201834857946"></line><line style="stroke: #aaa; stroke-width: 1.41421;" x1="2369253.7614679337" y1="194.3119266054886" x2="2369267.706422062" y2="173.39449541280675"></line><line style="stroke: #aaa; stroke-width: 1.41421;" x1="2369260.7339449977" y1="194.3119266054886" x2="2369253.7614679337" y2="166.42201834857946"></line><line style="stroke: #aaa; stroke-width: 1;" x1="2369260.7339449977" y1="194.3119266054886" x2="2369288.623853255" y2="187.33944954126133"></line><line style="stroke: #aaa; stroke-width: 1;" x1="2369260.7339449977" y1="194.3119266054886" x2="2369267.706422062" y2="173.39449541280675"></line><line style="stroke: #aaa; stroke-width: 1.41421;" x1="2369260.7339449977" y1="194.3119266054886" x2="2369288.623853255" y2="166.42201834857946"></line><line style="stroke: #aaa; stroke-width: 1.41421;" x1="2369288.623853255" y1="187.33944954126133" x2="2369267.706422062" y2="173.39449541280675"></line><line style="stroke: #aaa; stroke-width: 1;" x1="2369288.623853255" y1="187.33944954126133" x2="2369323.486238576" y2="173.39449541280675"></line><line style="stroke: #aaa; stroke-width: 1;" x1="2369288.623853255" y1="187.33944954126133" x2="2369288.623853255" y2="166.42201834857946"></line><line style="stroke: #aaa; stroke-width: 1.41421;" x1="2369288.623853255" y1="187.33944954126133" x2="2369330.4587156395" y2="152.47706422012487"></line><line style="stroke: #aaa; stroke-width: 1.41421;" x1="2369323.486238576" y1="173.39449541280675" x2="2369288.623853255" y2="166.42201834857946"></line><line style="stroke: #aaa; stroke-width: 1;" x1="2369323.486238576" y1="173.39449541280675" x2="2369365.3211009614" y2="159.4495412843522"></line><line style="stroke: #aaa; stroke-width: 1;" x1="2369323.486238576" y1="173.39449541280675" x2="2369330.4587156395" y2="152.47706422012487"></line><line style="stroke: #aaa; stroke-width: 1.41421;" x1="2369323.486238576" y1="173.39449541280675" x2="2369372.293578025" y2="138.53211009167032"></line><line style="stroke: #aaa; stroke-width: 1.41421;" x1="2369365.3211009614" y1="159.4495412843522" x2="2369330.4587156395" y2="152.47706422012487"></line><line style="stroke: #aaa; stroke-width: 1;" x1="2369365.3211009614" y1="159.4495412843522" x2="2369414.128440411" y2="138.53211009167032"></line><line style="stroke: #aaa; stroke-width: 1;" x1="2369365.3211009614" y1="159.4495412843522" x2="2369372.293578025" y2="138.53211009167032"></line><line style="stroke: #aaa; stroke-width: 1.41421;" x1="2369365.3211009614" y1="159.4495412843522" x2="2369421.1009174753" y2="117.61467889898847"></line><line style="stroke: #aaa; stroke-width: 1.41421;" x1="2369414.128440411" y1="138.53211009167032" x2="2369372.293578025" y2="138.53211009167032"></line><line style="stroke: #aaa; stroke-width: 1;" x1="2369414.128440411" y1="138.53211009167032" x2="2369462.93577986" y2="117.61467889898847"></line><line style="stroke: #aaa; stroke-width: 1;" x1="2369414.128440411" y1="138.53211009167032" x2="2369421.1009174753" y2="117.61467889898847"></line><line style="stroke: #aaa; stroke-width: 1.41421;" x1="2369414.128440411" y1="138.53211009167032" x2="2369469.9082569247" y2="96.69724770630661"></line><line style="stroke: #aaa; stroke-width: 1.41421;" x1="2369462.93577986" y1="117.61467889898847" x2="2369421.1009174753" y2="117.61467889898847"></line><line style="stroke: #aaa; stroke-width: 1;" x1="2369462.93577986" y1="117.61467889898847" x2="2369504.770642245" y2="96.69724770630661"></line><line style="stroke: #aaa; stroke-width: 1;" x1="2369462.93577986" y1="117.61467889898847" x2="2369469.9082569247" y2="96.69724770630661"></line><line style="stroke: #aaa; stroke-width: 1.41421;" x1="2369462.93577986" y1="117.61467889898847" x2="2369511.7431193097" y2="75.77981651362475"></line><line style="stroke: #aaa; stroke-width: 1.41421;" x1="2369504.770642245" y1="96.69724770630661" x2="2369469.9082569247" y2="96.69724770630661"></line><line style="stroke: #aaa; stroke-width: 1;" x1="2369504.770642245" y1="96.69724770630661" x2="2369546.605504631" y2="75.77981651362475"></line><line style="stroke: #aaa; stroke-width: 1;" x1="2369504.770642245" y1="96.69724770630661" x2="2369511.7431193097" y2="75.77981651362475"></line><line style="stroke: #aaa; stroke-width: 1.41421;" x1="2369504.770642245" y1="96.69724770630661" x2="2369553.5779816955" y2="54.8623853209429"></line><line style="stroke: #aaa; stroke-width: 1.41421;" x1="2369546.605504631" y1="75.77981651362475" x2="2369511.7431193097" y2="75.77981651362475"></line><line style="stroke: #aaa; stroke-width: 1;" x1="2369546.605504631" y1="75.77981651362475" x2="2369574.4954128875" y2="61.83486238517018"></line><line style="stroke: #aaa; stroke-width: 1;" x1="2369546.605504631" y1="75.77981651362475" x2="2369553.5779816955" y2="54.8623853209429"></line><line style="stroke: #aaa; stroke-width: 1.41421;" x1="2369546.605504631" y1="75.77981651362475" x2="2369581.4678899525" y2="33.944954128261045"></line><line style="stroke: #aaa; stroke-width: 1.41421;" x1="2369574.4954128875" y1="61.83486238517018" x2="2369553.5779816955" y2="54.8623853209429"></line><line style="stroke: #aaa; stroke-width: 1;" x1="2369574.4954128875" y1="61.83486238517018" x2="2369588.4403670165" y2="47.889908256715614"></line><line style="stroke: #aaa; stroke-width: 1;" x1="2369574.4954128875" y1="61.83486238517018" x2="2369581.4678899525" y2="33.944954128261045"></line><line style="stroke: #aaa; stroke-width: 1.41421;" x1="2369574.4954128875" y1="61.83486238517018" x2="2369602.3853211445" y2="20"></line><line style="stroke: #aaa; stroke-width: 1.41421;" x1="2369588.4403670165" y1="47.889908256715614" x2="2369581.4678899525" y2="33.944954128261045"></line><line style="stroke: #aaa; stroke-width: 1;" x1="2369442.0183486673" y1="633.577981651227" x2="2369448.9908257313" y2="612.6605504585451"></line><line style="stroke: #aaa; stroke-width: 1;" x1="2369448.9908257313" y1="612.6605504585451" x2="2369455.963302796" y2="563.8532110091477"></line><line style="stroke: #aaa; stroke-width: 1;" x1="2369455.963302796" y1="563.8532110091477" x2="2369469.9082569247" y2="501.1009174311021"></line><line style="stroke: #aaa; stroke-width: 1;" x1="2369469.9082569247" y1="501.1009174311021" x2="2369483.8532110527" y2="417.4311926603747"></line><line style="stroke: #aaa; stroke-width: 1;" x1="2369483.8532110527" y1="417.4311926603747" x2="2369511.7431193097" y2="333.7614678898408"></line><line style="stroke: #aaa; stroke-width: 1;" x1="2369511.7431193097" y1="333.7614678898408" x2="2369532.6605505026" y2="243.11926605488608"></line><line style="stroke: #aaa; stroke-width: 1;" x1="2369532.6605505026" y1="243.11926605488608" x2="2369553.5779816955" y2="166.42201834857946"></line><line style="stroke: #aaa; stroke-width: 1;" x1="2369553.5779816955" y1="166.42201834857946" x2="2369574.4954128875" y2="96.69724770630661"></line><line style="stroke: #aaa; stroke-width: 1;" x1="2369574.4954128875" y1="96.69724770630661" x2="2369588.4403670165" y2="47.889908256715614"></line><line style="stroke: #aaa; stroke-width: 1;" x1="2369588.4403670165" y1="47.889908256715614" x2="2369602.3853211445" y2="20"></line><line style="stroke: #aaa; stroke-width: 1;" x1="2369253.7614679337" y1="166.42201834857946" x2="2369267.706422062" y2="173.39449541280675"></line><line style="stroke: #aaa; stroke-width: 1;" x1="2369267.706422062" y1="173.39449541280675" x2="2369288.623853255" y2="166.42201834857946"></line><line style="stroke: #aaa; stroke-width: 1;" x1="2369288.623853255" y1="166.42201834857946" x2="2369330.4587156395" y2="152.47706422012487"></line><line style="stroke: #aaa; stroke-width: 1;" x1="2369330.4587156395" y1="152.47706422012487" x2="2369372.293578025" y2="138.53211009167032"></line><line style="stroke: #aaa; stroke-width: 1;" x1="2369372.293578025" y1="138.53211009167032" x2="2369421.1009174753" y2="117.61467889898847"></line><line style="stroke: #aaa; stroke-width: 1;" x1="2369421.1009174753" y1="117.61467889898847" x2="2369469.9082569247" y2="96.69724770630661"></line><line style="stroke: #aaa; stroke-width: 1;" x1="2369469.9082569247" y1="96.69724770630661" x2="2369511.7431193097" y2="75.77981651362475"></line><line style="stroke: #aaa; stroke-width: 1;" x1="2369511.7431193097" y1="75.77981651362475" x2="2369553.5779816955" y2="54.8623853209429"></line><line style="stroke: #aaa; stroke-width: 1;" x1="2369553.5779816955" y1="54.8623853209429" x2="2369581.4678899525" y2="33.944954128261045"></line><line style="stroke: #aaa; stroke-width: 1;" x1="2369581.4678899525" y1="33.944954128261045" x2="2369602.3853211445" y2="20"></line><circle r="10" cx="2369100.3669725205" cy="780" style="stroke: #000; fill: #69b3a2;"></circle><circle r="10" cx="2369114.311926649" cy="766.0550458715454" style="stroke: #000; fill: #69b3a2;"></circle><circle r="10" cx="2369142.201834906" cy="745.1376146788637" style="stroke: #000; fill: #69b3a2;"></circle><circle r="10" cx="2369184.0366972913" cy="731.192660550409" style="stroke: #000; fill: #69b3a2;"></circle><circle r="10" cx="2369225.8715596762" cy="703.3027522934998" style="stroke: #000; fill: #69b3a2;"></circle><circle r="10" cx="2369274.678899126" cy="682.385321100818" style="stroke: #000; fill: #69b3a2;"></circle><circle r="10" cx="2369323.486238576" cy="668.4403669723633" style="stroke: #000; fill: #69b3a2;"></circle><circle r="10" cx="2369372.293578025" cy="647.5229357796815" style="stroke: #000; fill: #69b3a2;"></circle><circle r="10" cx="2369407.155963347" cy="633.577981651227" style="stroke: #000; fill: #69b3a2;"></circle><circle r="10" cx="2369435.0458716033" cy="633.577981651227" style="stroke: #000; fill: #69b3a2;"></circle><circle r="10" cx="2369442.0183486673" cy="633.577981651227" style="stroke: #000; fill: #69b3a2;"></circle><circle r="10" cx="2369107.339449585" cy="752.1100917430908" style="stroke: #000; fill: #69b3a2;"></circle><circle r="10" cx="2369128.2568807774" cy="738.1651376146364" style="stroke: #000; fill: #69b3a2;"></circle><circle r="10" cx="2369156.1467890344" cy="724.2201834861818" style="stroke: #000; fill: #69b3a2;"></circle><circle r="10" cx="2369191.009174356" cy="703.3027522934998" style="stroke: #000; fill: #69b3a2;"></circle><circle r="10" cx="2369232.844036741" cy="682.385321100818" style="stroke: #000; fill: #69b3a2;"></circle><circle r="10" cx="2369281.6513761906" cy="661.4678899081362" style="stroke: #000; fill: #69b3a2;"></circle><circle r="10" cx="2369330.4587156395" cy="640.5504587154544" style="stroke: #000; fill: #69b3a2;"></circle><circle r="10" cx="2369372.293578025" cy="626.6055045869997" style="stroke: #000; fill: #69b3a2;"></circle><circle r="10" cx="2369407.155963347" cy="612.6605504585451" style="stroke: #000; fill: #69b3a2;"></circle><circle r="10" cx="2369435.0458716033" cy="612.6605504585451" style="stroke: #000; fill: #69b3a2;"></circle><circle r="10" cx="2369448.9908257313" cy="612.6605504585451" style="stroke: #000; fill: #69b3a2;"></circle><circle r="10" cx="2369128.2568807774" cy="703.3027522934998" style="stroke: #000; fill: #69b3a2;"></circle><circle r="10" cx="2369142.201834906" cy="696.3302752292726" style="stroke: #000; fill: #69b3a2;"></circle><circle r="10" cx="2369170.091743163" cy="675.4128440365907" style="stroke: #000; fill: #69b3a2;"></circle><circle r="10" cx="2369204.9541284842" cy="661.4678899081362" style="stroke: #000; fill: #69b3a2;"></circle><circle r="10" cx="2369246.788990869" cy="640.5504587154544" style="stroke: #000; fill: #69b3a2;"></circle><circle r="10" cx="2369295.596330319" cy="619.6330275227724" style="stroke: #000; fill: #69b3a2;"></circle><circle r="10" cx="2369337.431192704" cy="598.7155963302841" style="stroke: #000; fill: #69b3a2;"></circle><circle r="10" cx="2369386.2385321534" cy="584.7706422018296" style="stroke: #000; fill: #69b3a2;"></circle><circle r="10" cx="2369421.1009174753" cy="570.825688073375" style="stroke: #000; fill: #69b3a2;"></circle><circle r="10" cx="2369442.0183486673" cy="563.8532110091477" style="stroke: #000; fill: #69b3a2;"></circle><circle r="10" cx="2369455.963302796" cy="563.8532110091477" style="stroke: #000; fill: #69b3a2;"></circle><circle r="10" cx="2369142.201834906" cy="633.577981651227" style="stroke: #000; fill: #69b3a2;"></circle><circle r="10" cx="2369163.119266099" cy="626.6055045869997" style="stroke: #000; fill: #69b3a2;"></circle><circle r="10" cx="2369184.0366972913" cy="612.6605504585451" style="stroke: #000; fill: #69b3a2;"></circle><circle r="10" cx="2369218.8990826127" cy="598.7155963302841" style="stroke: #000; fill: #69b3a2;"></circle><circle r="10" cx="2369260.7339449977" cy="570.825688073375" style="stroke: #000; fill: #69b3a2;"></circle><circle r="10" cx="2369309.5412844475" cy="556.8807339449203" style="stroke: #000; fill: #69b3a2;"></circle><circle r="10" cx="2369358.348623897" cy="535.9633027522385" style="stroke: #000; fill: #69b3a2;"></circle><circle r="10" cx="2369400.183486282" cy="522.0183486237839" style="stroke: #000; fill: #69b3a2;"></circle><circle r="10" cx="2369435.0458716033" cy="508.07339449532947" style="stroke: #000; fill: #69b3a2;"></circle><circle r="10" cx="2369455.963302796" cy="501.1009174311021" style="stroke: #000; fill: #69b3a2;"></circle><circle r="10" cx="2369469.9082569247" cy="501.1009174311021" style="stroke: #000; fill: #69b3a2;"></circle><circle r="10" cx="2369170.091743163" cy="556.8807339449203" style="stroke: #000; fill: #69b3a2;"></circle><circle r="10" cx="2369177.0642202278" cy="549.9082568806931" style="stroke: #000; fill: #69b3a2;"></circle><circle r="10" cx="2369204.9541284842" cy="535.9633027522385" style="stroke: #000; fill: #69b3a2;"></circle><circle r="10" cx="2369239.816513805" cy="522.0183486237839" style="stroke: #000; fill: #69b3a2;"></circle><circle r="10" cx="2369281.6513761906" cy="501.1009174311021" style="stroke: #000; fill: #69b3a2;"></circle><circle r="10" cx="2369330.4587156395" cy="487.15596330264754" style="stroke: #000; fill: #69b3a2;"></circle><circle r="10" cx="2369372.293578025" cy="459.26605504573837" style="stroke: #000; fill: #69b3a2;"></circle><circle r="10" cx="2369414.128440411" cy="452.2935779815111" style="stroke: #000; fill: #69b3a2;"></circle><circle r="10" cx="2369448.9908257313" cy="431.3761467888292" style="stroke: #000; fill: #69b3a2;"></circle><circle r="10" cx="2369476.8807339882" cy="424.403669724602" style="stroke: #000; fill: #69b3a2;"></circle><circle r="10" cx="2369483.8532110527" cy="417.4311926603747" style="stroke: #000; fill: #69b3a2;"></circle><circle r="10" cx="2369191.009174356" cy="466.2385321099657" style="stroke: #000; fill: #69b3a2;"></circle><circle r="10" cx="2369204.9541284842" cy="466.2385321099657" style="stroke: #000; fill: #69b3a2;"></circle><circle r="10" cx="2369225.8715596762" cy="452.2935779815111" style="stroke: #000; fill: #69b3a2;"></circle><circle r="10" cx="2369260.7339449977" cy="438.34862385305655" style="stroke: #000; fill: #69b3a2;"></circle><circle r="10" cx="2369302.568807383" cy="417.4311926603747" style="stroke: #000; fill: #69b3a2;"></circle><circle r="10" cx="2369351.376146833" cy="403.48623853211365" style="stroke: #000; fill: #69b3a2;"></circle><circle r="10" cx="2369393.211009218" cy="375.5963302752045" style="stroke: #000; fill: #69b3a2;"></circle><circle r="10" cx="2369435.0458716033" cy="361.6513761467499" style="stroke: #000; fill: #69b3a2;"></circle><circle r="10" cx="2369469.9082569247" cy="347.70642201829537" style="stroke: #000; fill: #69b3a2;"></circle><circle r="10" cx="2369497.798165181" cy="340.7339449540681" style="stroke: #000; fill: #69b3a2;"></circle><circle r="10" cx="2369511.7431193097" cy="333.7614678898408" style="stroke: #000; fill: #69b3a2;"></circle><circle r="10" cx="2369211.9266055482" cy="382.5688073394318" style="stroke: #000; fill: #69b3a2;"></circle><circle r="10" cx="2369225.8715596762" cy="382.5688073394318" style="stroke: #000; fill: #69b3a2;"></circle><circle r="10" cx="2369246.788990869" cy="368.6238532109772" style="stroke: #000; fill: #69b3a2;"></circle><circle r="10" cx="2369281.6513761906" cy="361.6513761467499" style="stroke: #000; fill: #69b3a2;"></circle><circle r="10" cx="2369323.486238576" cy="340.7339449540681" style="stroke: #000; fill: #69b3a2;"></circle><circle r="10" cx="2369372.293578025" cy="326.7889908256135" style="stroke: #000; fill: #69b3a2;"></circle><circle r="10" cx="2369414.128440411" cy="298.8990825687044" style="stroke: #000; fill: #69b3a2;"></circle><circle r="10" cx="2369455.963302796" cy="284.95412844024975" style="stroke: #000; fill: #69b3a2;"></circle><circle r="10" cx="2369490.8256881167" cy="264.03669724756793" style="stroke: #000; fill: #69b3a2;"></circle><circle r="10" cx="2369518.7155963737" cy="257.06422018334064" style="stroke: #000; fill: #69b3a2;"></circle><circle r="10" cx="2369532.6605505026" cy="243.11926605488608" style="stroke: #000; fill: #69b3a2;"></circle><circle r="10" cx="2369225.8715596762" cy="305.8715596329316" style="stroke: #000; fill: #69b3a2;"></circle><circle r="10" cx="2369239.816513805" cy="298.8990825687044" style="stroke: #000; fill: #69b3a2;"></circle><circle r="10" cx="2369267.706422062" cy="291.92660550447704" style="stroke: #000; fill: #69b3a2;"></circle><circle r="10" cx="2369302.568807383" cy="284.95412844024975" style="stroke: #000; fill: #69b3a2;"></circle><circle r="10" cx="2369344.403669768" cy="257.06422018334064" style="stroke: #000; fill: #69b3a2;"></circle><circle r="10" cx="2369386.2385321534" cy="243.11926605488608" style="stroke: #000; fill: #69b3a2;"></circle><circle r="10" cx="2369435.0458716033" cy="222.2018348622042" style="stroke: #000; fill: #69b3a2;"></circle><circle r="10" cx="2369476.8807339882" cy="208.25688073394318" style="stroke: #000; fill: #69b3a2;"></circle><circle r="10" cx="2369511.7431193097" cy="187.33944954126133" style="stroke: #000; fill: #69b3a2;"></circle><circle r="10" cx="2369539.633027567" cy="173.39449541280675" style="stroke: #000; fill: #69b3a2;"></circle><circle r="10" cx="2369553.5779816955" cy="166.42201834857946" style="stroke: #000; fill: #69b3a2;"></circle><circle r="10" cx="2369246.788990869" cy="236.1467889906588" style="stroke: #000; fill: #69b3a2;"></circle><circle r="10" cx="2369253.7614679337" cy="236.1467889906588" style="stroke: #000; fill: #69b3a2;"></circle><circle r="10" cx="2369281.6513761906" cy="229.1743119264315" style="stroke: #000; fill: #69b3a2;"></circle><circle r="10" cx="2369316.5137615115" cy="222.2018348622042" style="stroke: #000; fill: #69b3a2;"></circle><circle r="10" cx="2369358.348623897" cy="201.2844036697159" style="stroke: #000; fill: #69b3a2;"></circle><circle r="10" cx="2369400.183486282" cy="187.33944954126133" style="stroke: #000; fill: #69b3a2;"></circle><circle r="10" cx="2369448.9908257313" cy="159.4495412843522" style="stroke: #000; fill: #69b3a2;"></circle><circle r="10" cx="2369490.8256881167" cy="145.5045871558976" style="stroke: #000; fill: #69b3a2;"></circle><circle r="10" cx="2369532.6605505026" cy="124.58715596321575" style="stroke: #000; fill: #69b3a2;"></circle><circle r="10" cx="2369553.5779816955" cy="110.64220183476118" style="stroke: #000; fill: #69b3a2;"></circle><circle r="10" cx="2369574.4954128875" cy="96.69724770630661" style="stroke: #000; fill: #69b3a2;"></circle><circle r="10" cx="2369253.7614679337" cy="194.3119266054886" style="stroke: #000; fill: #69b3a2;"></circle><circle r="10" cx="2369260.7339449977" cy="194.3119266054886" style="stroke: #000; fill: #69b3a2;"></circle><circle r="10" cx="2369288.623853255" cy="187.33944954126133" style="stroke: #000; fill: #69b3a2;"></circle><circle r="10" cx="2369323.486238576" cy="173.39449541280675" style="stroke: #000; fill: #69b3a2;"></circle><circle r="10" cx="2369365.3211009614" cy="159.4495412843522" style="stroke: #000; fill: #69b3a2;"></circle><circle r="10" cx="2369414.128440411" cy="138.53211009167032" style="stroke: #000; fill: #69b3a2;"></circle><circle r="10" cx="2369462.93577986" cy="117.61467889898847" style="stroke: #000; fill: #69b3a2;"></circle><circle r="10" cx="2369504.770642245" cy="96.69724770630661" style="stroke: #000; fill: #69b3a2;"></circle><circle r="10" cx="2369546.605504631" cy="75.77981651362475" style="stroke: #000; fill: #69b3a2;"></circle><circle r="10" cx="2369574.4954128875" cy="61.83486238517018" style="stroke: #000; fill: #69b3a2;"></circle><circle r="10" cx="2369588.4403670165" cy="47.889908256715614" style="stroke: #000; fill: #69b3a2;"></circle><circle r="10" cx="2369253.7614679337" cy="166.42201834857946" style="stroke: #000; fill: #69b3a2;"></circle><circle r="10" cx="2369267.706422062" cy="173.39449541280675" style="stroke: #000; fill: #69b3a2;"></circle><circle r="10" cx="2369288.623853255" cy="166.42201834857946" style="stroke: #000; fill: #69b3a2;"></circle><circle r="10" cx="2369330.4587156395" cy="152.47706422012487" style="stroke: #000; fill: #69b3a2;"></circle><circle r="10" cx="2369372.293578025" cy="138.53211009167032" style="stroke: #000; fill: #69b3a2;"></circle><circle r="10" cx="2369421.1009174753" cy="117.61467889898847" style="stroke: #000; fill: #69b3a2;"></circle><circle r="10" cx="2369469.9082569247" cy="96.69724770630661" style="stroke: #000; fill: #69b3a2;"></circle><circle r="10" cx="2369511.7431193097" cy="75.77981651362475" style="stroke: #000; fill: #69b3a2;"></circle><circle r="10" cx="2369553.5779816955" cy="54.8623853209429" style="stroke: #000; fill: #69b3a2;"></circle><circle r="10" cx="2369581.4678899525" cy="33.944954128261045" style="stroke: #000; fill: #69b3a2;"></circle><circle r="10" cx="2369602.3853211445" cy="20" style="stroke: #000; fill: #69b3a2;"></circle></svg>