<svg width="800" height="800" xmlns="http://www.w3.org/2000/svg"><line style="stroke: #aaa; stroke-width: 1;" x1="20" y1="20" x2="192.3156550071847" y2="187.47818697467903"></line><line style="stroke: #aaa; stroke-width: 1;" x1="20" y1="20" x2="187.47818697467903" y2="192.3156550071847"></line><line style="stroke: #aaa; stroke-width: 1.41421;" x1="20" y1="20" x2="217.05172288683312" y2="217.05172288683312"></line><line style="stroke: #aaa; stroke-width: 1.41421;" x1="192.3156550071847" y1="187.47818697467903" x2="187.47818697467903" y2="192.3156550071847"></line><line style="stroke: #aaa; stroke-width: 1;" x1="192.3156550071847" y1="187.47818697467903" x2="263.5126962981664" y2="246.562177911839"></line><line style="stroke: #aaa; stroke-width: 1;" x1="192.3156550071847" y1="187.47818697467903" x2="217.05172288683312" y2="217.05172288683312"></line><line style="stroke: #aaa; stroke-width: 1.41421;" x1="192.3156550071847" y1="187.47818697467903" x2="273.53647726921395" y2="261.46066743913025"></line><line style="stroke: #aaa; stroke-width: 1.41421;" x1="263.5126962981664" y1="246.562177911839" x2="217.05172288683312" y2="217.05172288683312"></line><line style="stroke: #aaa; stroke-width: 1;" x1="263.5126962981664" y1="246.562177911839" x2="315.24358382378006" y2="278.8041113514286"></line><line style="stroke: #aaa; stroke-width: 1;" x1="263.5126962981664" y1="246.562177911839" x2="273.53647726921395" y2="261.46066743913025"></line><line style="stroke: #aaa; stroke-width: 1.41421;" x1="263.5126962981664" y1="246.562177911839" x2="319.41680251450884" y2="288.0177209285011"></line><line style="stroke: #aaa; stroke-width: 1.41421;" x1="315.24358382378006" y1="278.8041113514286" x2="273.53647726921395" y2="261.46066743913025"></line><line style="stroke: #aaa; stroke-width: 1;" x1="315.24358382378006" y1="278.8041113514286" x2="359.06884016728463" y2="295.43314521650706"></line><line style="stroke: #aaa; stroke-width: 1;" x1="315.24358382378006" y1="278.8041113514286" x2="319.41680251450884" y2="288.0177209285011"></line><line style="stroke: #aaa; stroke-width: 1.41421;" x1="315.24358382378006" y1="278.8041113514286" x2="360.683862880415" y2="302.5483652825429"></line><line style="stroke: #aaa; stroke-width: 1.41421;" x1="359.06884016728463" y1="295.43314521650706" x2="319.41680251450884" y2="288.0177209285011"></line><line style="stroke: #aaa; stroke-width: 1;" x1="359.06884016728463" y1="295.43314521650706" x2="399.99997580885974" y2="300.6262982512457"></line><line style="stroke: #aaa; stroke-width: 1;" x1="359.06884016728463" y1="295.43314521650706" x2="360.683862880415" y2="302.5483652825429"></line><line style="stroke: #aaa; stroke-width: 1.41421;" x1="359.06884016728463" y1="295.43314521650706" x2="399.99997580885974" y2="307.16771024743986"></line><line style="stroke: #aaa; stroke-width: 1.41421;" x1="399.99997580885974" y1="300.6262982512457" x2="360.683862880415" y2="302.5483652825429"></line><line style="stroke: #aaa; stroke-width: 1;" x1="399.99997580885974" y1="300.6262982512457" x2="440.9311114504348" y2="295.43314521650706"></line><line style="stroke: #aaa; stroke-width: 1;" x1="399.99997580885974" y1="300.6262982512457" x2="399.99997580885974" y2="307.16771024743986"></line><line style="stroke: #aaa; stroke-width: 1.41421;" x1="399.99997580885974" y1="300.6262982512457" x2="439.3160887373045" y2="302.5483652825429"></line><line style="stroke: #aaa; stroke-width: 1.41421;" x1="440.9311114504348" y1="295.43314521650706" x2="399.99997580885974" y2="307.16771024743986"></line><line style="stroke: #aaa; stroke-width: 1;" x1="440.9311114504348" y1="295.43314521650706" x2="484.75636779393943" y2="278.8041113514286"></line><line style="stroke: #aaa; stroke-width: 1;" x1="440.9311114504348" y1="295.43314521650706" x2="439.3160887373045" y2="302.5483652825429"></line><line style="stroke: #aaa; stroke-width: 1.41421;" x1="440.9311114504348" y1="295.43314521650706" x2="480.5831491032107" y2="288.0177209285011"></line><line style="stroke: #aaa; stroke-width: 1.41421;" x1="484.75636779393943" y1="278.8041113514286" x2="439.3160887373045" y2="302.5483652825429"></line><line style="stroke: #aaa; stroke-width: 1;" x1="484.75636779393943" y1="278.8041113514286" x2="536.4872553195531" y2="246.562177911839"></line><line style="stroke: #aaa; stroke-width: 1;" x1="484.75636779393943" y1="278.8041113514286" x2="480.5831491032107" y2="288.0177209285011"></line><line style="stroke: #aaa; stroke-width: 1.41421;" x1="484.75636779393943" y1="278.8041113514286" x2="526.4634743485057" y2="261.46066743913025"></line><line style="stroke: #aaa; stroke-width: 1.41421;" x1="536.4872553195531" y1="246.562177911839" x2="480.5831491032107" y2="288.0177209285011"></line><line style="stroke: #aaa; stroke-width: 1;" x1="536.4872553195531" y1="246.562177911839" x2="607.6842966105348" y2="187.47818697467903"></line><line style="stroke: #aaa; stroke-width: 1;" x1="536.4872553195531" y1="246.562177911839" x2="526.4634743485057" y2="261.46066743913025"></line><line style="stroke: #aaa; stroke-width: 1.41421;" x1="536.4872553195531" y1="246.562177911839" x2="582.9482287308864" y2="217.05172288683312"></line><line style="stroke: #aaa; stroke-width: 1.41421;" x1="607.6842966105348" y1="187.47818697467903" x2="526.4634743485057" y2="261.46066743913025"></line><line style="stroke: #aaa; stroke-width: 1;" x1="607.6842966105348" y1="187.47818697467903" x2="780" y2="20"></line><line style="stroke: #aaa; stroke-width: 1;" x1="607.6842966105348" y1="187.47818697467903" x2="582.9482287308864" y2="217.05172288683312"></line><line style="stroke: #aaa; stroke-width: 1.41421;" x1="607.6842966105348" y1="187.47818697467903" x2="612.5217646430405" y2="192.3156550071847"></line><line style="stroke: #aaa; stroke-width: 1.41421;" x1="780" y1="20" x2="582.9482287308864" y2="217.05172288683312"></line><line style="stroke: #aaa; stroke-width: 1;" x1="187.47818697467903" y1="192.3156550071847" x2="217.05172288683312" y2="217.05172288683312"></line><line style="stroke: #aaa; stroke-width: 1;" x1="187.47818697467903" y1="192.3156550071847" x2="246.562177911839" y2="263.5126962981664"></line><line style="stroke: #aaa; stroke-width: 1.41421;" x1="187.47818697467903" y1="192.3156550071847" x2="261.46066743913025" y2="273.53647726921395"></line><line style="stroke: #aaa; stroke-width: 1.41421;" x1="217.05172288683312" y1="217.05172288683312" x2="246.562177911839" y2="263.5126962981664"></line><line style="stroke: #aaa; stroke-width: 1;" x1="217.05172288683312" y1="217.05172288683312" x2="273.53647726921395" y2="261.46066743913025"></line><line style="stroke: #aaa; stroke-width: 1;" x1="217.05172288683312" y1="217.05172288683312" x2="261.46066743913025" y2="273.53647726921395"></line><line style="stroke: #aaa; stroke-width: 1.41421;" x1="217.05172288683312" y1="217.05172288683312" x2="291.5464505553548" y2="291.5464505553548"></line><line style="stroke: #aaa; stroke-width: 1.41421;" x1="273.53647726921395" y1="261.46066743913025" x2="261.46066743913025" y2="273.53647726921395"></line><line style="stroke: #aaa; stroke-width: 1;" x1="273.53647726921395" y1="261.46066743913025" x2="319.41680251450884" y2="288.0177209285011"></line><line style="stroke: #aaa; stroke-width: 1;" x1="273.53647726921395" y1="261.46066743913025" x2="291.5464505553548" y2="291.5464505553548"></line><line style="stroke: #aaa; stroke-width: 1.41421;" x1="273.53647726921395" y1="261.46066743913025" x2="327.74575965013014" y2="308.68621160312665"></line><line style="stroke: #aaa; stroke-width: 1.41421;" x1="319.41680251450884" y1="288.0177209285011" x2="291.5464505553548" y2="291.5464505553548"></line><line style="stroke: #aaa; stroke-width: 1;" x1="319.41680251450884" y1="288.0177209285011" x2="360.683862880415" y2="302.5483652825429"></line><line style="stroke: #aaa; stroke-width: 1;" x1="319.41680251450884" y1="288.0177209285011" x2="327.74575965013014" y2="308.68621160312665"></line><line style="stroke: #aaa; stroke-width: 1.41421;" x1="319.41680251450884" y1="288.0177209285011" x2="363.9937094289715" y2="319.0991180467025"></line><line style="stroke: #aaa; stroke-width: 1.41421;" x1="360.683862880415" y1="302.5483652825429" x2="327.74575965013014" y2="308.68621160312665"></line><line style="stroke: #aaa; stroke-width: 1;" x1="360.683862880415" y1="302.5483652825429" x2="399.99997580885974" y2="307.16771024743986"></line><line style="stroke: #aaa; stroke-width: 1;" x1="360.683862880415" y1="302.5483652825429" x2="363.9937094289715" y2="319.0991180467025"></line><line style="stroke: #aaa; stroke-width: 1.41421;" x1="360.683862880415" y1="302.5483652825429" x2="399.99997580885974" y2="322.5541266367686"></line><line style="stroke: #aaa; stroke-width: 1.41421;" x1="399.99997580885974" y1="307.16771024743986" x2="363.9937094289715" y2="319.0991180467025"></line><line style="stroke: #aaa; stroke-width: 1;" x1="399.99997580885974" y1="307.16771024743986" x2="439.3160887373045" y2="302.5483652825429"></line><line style="stroke: #aaa; stroke-width: 1;" x1="399.99997580885974" y1="307.16771024743986" x2="399.99997580885974" y2="322.5541266367686"></line><line style="stroke: #aaa; stroke-width: 1.41421;" x1="399.99997580885974" y1="307.16771024743986" x2="436.006242188748" y2="319.0991180467025"></line><line style="stroke: #aaa; stroke-width: 1.41421;" x1="439.3160887373045" y1="302.5483652825429" x2="399.99997580885974" y2="322.5541266367686"></line><line style="stroke: #aaa; stroke-width: 1;" x1="439.3160887373045" y1="302.5483652825429" x2="480.5831491032107" y2="288.0177209285011"></line><line style="stroke: #aaa; stroke-width: 1;" x1="439.3160887373045" y1="302.5483652825429" x2="436.006242188748" y2="319.0991180467025"></line><line style="stroke: #aaa; stroke-width: 1.41421;" x1="439.3160887373045" y1="302.5483652825429" x2="472.2541919675894" y2="308.68621160312665"></line><line style="stroke: #aaa; stroke-width: 1.41421;" x1="480.5831491032107" y1="288.0177209285011" x2="436.006242188748" y2="319.0991180467025"></line><line style="stroke: #aaa; stroke-width: 1;" x1="480.5831491032107" y1="288.0177209285011" x2="526.4634743485057" y2="261.46066743913025"></line><line style="stroke: #aaa; stroke-width: 1;" x1="480.5831491032107" y1="288.0177209285011" x2="472.2541919675894" y2="308.68621160312665"></line><line style="stroke: #aaa; stroke-width: 1.41421;" x1="480.5831491032107" y1="288.0177209285011" x2="508.45350106236464" y2="291.5464505553548"></line><line style="stroke: #aaa; stroke-width: 1.41421;" x1="526.4634743485057" y1="261.46066743913025" x2="472.2541919675894" y2="308.68621160312665"></line><line style="stroke: #aaa; stroke-width: 1;" x1="526.4634743485057" y1="261.46066743913025" x2="582.9482287308864" y2="217.05172288683312"></line><line style="stroke: #aaa; stroke-width: 1;" x1="526.4634743485057" y1="261.46066743913025" x2="508.45350106236464" y2="291.5464505553548"></line><line style="stroke: #aaa; stroke-width: 1.41421;" x1="526.4634743485057" y1="261.46066743913025" x2="538.5392841785892" y2="273.53647726921395"></line><line style="stroke: #aaa; stroke-width: 1.41421;" x1="582.9482287308864" y1="217.05172288683312" x2="508.45350106236464" y2="291.5464505553548"></line><line style="stroke: #aaa; stroke-width: 1;" x1="582.9482287308864" y1="217.05172288683312" x2="612.5217646430405" y2="192.3156550071847"></line><line style="stroke: #aaa; stroke-width: 1;" x1="582.9482287308864" y1="217.05172288683312" x2="538.5392841785892" y2="273.53647726921395"></line><line style="stroke: #aaa; stroke-width: 1.41421;" x1="582.9482287308864" y1="217.05172288683312" x2="553.4377737058805" y2="263.5126962981664"></line><line style="stroke: #aaa; stroke-width: 1.41421;" x1="612.5217646430405" y1="192.3156550071847" x2="538.5392841785892" y2="273.53647726921395"></line><line style="stroke: #aaa; stroke-width: 1;" x1="246.562177911839" y1="263.5126962981664" x2="261.46066743913025" y2="273.53647726921395"></line><line style="stroke: #aaa; stroke-width: 1;" x1="246.562177911839" y1="263.5126962981664" x2="278.8041113514286" y2="315.24358382378006"></line><line style="stroke: #aaa; stroke-width: 1.41421;" x1="246.562177911839" y1="263.5126962981664" x2="288.0177209285011" y2="319.41680251450884"></line><line style="stroke: #aaa; stroke-width: 1.41421;" x1="261.46066743913025" y1="273.53647726921395" x2="278.8041113514286" y2="315.24358382378006"></line><line style="stroke: #aaa; stroke-width: 1;" x1="261.46066743913025" y1="273.53647726921395" x2="291.5464505553548" y2="291.5464505553548"></line><line style="stroke: #aaa; stroke-width: 1;" x1="261.46066743913025" y1="273.53647726921395" x2="288.0177209285011" y2="319.41680251450884"></line><line style="stroke: #aaa; stroke-width: 1.41421;" x1="261.46066743913025" y1="273.53647726921395" x2="308.68621160312665" y2="327.74575965013014"></line><line style="stroke: #aaa; stroke-width: 1.41421;" x1="291.5464505553548" y1="291.5464505553548" x2="288.0177209285011" y2="319.41680251450884"></line><line style="stroke: #aaa; stroke-width: 1;" x1="291.5464505553548" y1="291.5464505553548" x2="327.74575965013014" y2="308.68621160312665"></line><line style="stroke: #aaa; stroke-width: 1;" x1="291.5464505553548" y1="291.5464505553548" x2="308.68621160312665" y2="327.74575965013014"></line><line style="stroke: #aaa; stroke-width: 1.41421;" x1="291.5464505553548" y1="291.5464505553548" x2="336.45928219414856" y2="336.45928219414856"></line><line style="stroke: #aaa; stroke-width: 1.41421;" x1="327.74575965013014" y1="308.68621160312665" x2="308.68621160312665" y2="327.74575965013014"></line><line style="stroke: #aaa; stroke-width: 1;" x1="327.74575965013014" y1="308.68621160312665" x2="363.9937094289715" y2="319.0991180467025"></line><line style="stroke: #aaa; stroke-width: 1;" x1="327.74575965013014" y1="308.68621160312665" x2="336.45928219414856" y2="336.45928219414856"></line><line style="stroke: #aaa; stroke-width: 1.41421;" x1="327.74575965013014" y1="308.68621160312665" x2="367.64480077667884" y2="342.6100486964374"></line><line style="stroke: #aaa; stroke-width: 1.41421;" x1="363.9937094289715" y1="319.0991180467025" x2="336.45928219414856" y2="336.45928219414856"></line><line style="stroke: #aaa; stroke-width: 1;" x1="363.9937094289715" y1="319.0991180467025" x2="399.99997580885974" y2="322.5541266367686"></line><line style="stroke: #aaa; stroke-width: 1;" x1="363.9937094289715" y1="319.0991180467025" x2="367.64480077667884" y2="342.6100486964374"></line><line style="stroke: #aaa; stroke-width: 1.41421;" x1="363.9937094289715" y1="319.0991180467025" x2="399.99997580885974" y2="344.7509988060318"></line><line style="stroke: #aaa; stroke-width: 1.41421;" x1="399.99997580885974" y1="322.5541266367686" x2="367.64480077667884" y2="342.6100486964374"></line><line style="stroke: #aaa; stroke-width: 1;" x1="399.99997580885974" y1="322.5541266367686" x2="436.006242188748" y2="319.0991180467025"></line><line style="stroke: #aaa; stroke-width: 1;" x1="399.99997580885974" y1="322.5541266367686" x2="399.99997580885974" y2="344.7509988060318"></line><line style="stroke: #aaa; stroke-width: 1.41421;" x1="399.99997580885974" y1="322.5541266367686" x2="432.35515084104065" y2="342.6100486964374"></line><line style="stroke: #aaa; stroke-width: 1.41421;" x1="436.006242188748" y1="319.0991180467025" x2="399.99997580885974" y2="344.7509988060318"></line><line style="stroke: #aaa; stroke-width: 1;" x1="436.006242188748" y1="319.0991180467025" x2="472.2541919675894" y2="308.68621160312665"></line><line style="stroke: #aaa; stroke-width: 1;" x1="436.006242188748" y1="319.0991180467025" x2="432.35515084104065" y2="342.6100486964374"></line><line style="stroke: #aaa; stroke-width: 1.41421;" x1="436.006242188748" y1="319.0991180467025" x2="463.5406694235709" y2="336.45928219414856"></line><line style="stroke: #aaa; stroke-width: 1.41421;" x1="472.2541919675894" y1="308.68621160312665" x2="432.35515084104065" y2="342.6100486964374"></line><line style="stroke: #aaa; stroke-width: 1;" x1="472.2541919675894" y1="308.68621160312665" x2="508.45350106236464" y2="291.5464505553548"></line><line style="stroke: #aaa; stroke-width: 1;" x1="472.2541919675894" y1="308.68621160312665" x2="463.5406694235709" y2="336.45928219414856"></line><line style="stroke: #aaa; stroke-width: 1.41421;" x1="472.2541919675894" y1="308.68621160312665" x2="491.31374001459284" y2="327.74575965013014"></line><line style="stroke: #aaa; stroke-width: 1.41421;" x1="508.45350106236464" y1="291.5464505553548" x2="463.5406694235709" y2="336.45928219414856"></line><line style="stroke: #aaa; stroke-width: 1;" x1="508.45350106236464" y1="291.5464505553548" x2="538.5392841785892" y2="273.53647726921395"></line><line style="stroke: #aaa; stroke-width: 1;" x1="508.45350106236464" y1="291.5464505553548" x2="491.31374001459284" y2="327.74575965013014"></line><line style="stroke: #aaa; stroke-width: 1.41421;" x1="508.45350106236464" y1="291.5464505553548" x2="511.9822306892184" y2="319.41680251450884"></line><line style="stroke: #aaa; stroke-width: 1.41421;" x1="538.5392841785892" y1="273.53647726921395" x2="491.31374001459284" y2="327.74575965013014"></line><line style="stroke: #aaa; stroke-width: 1;" x1="538.5392841785892" y1="273.53647726921395" x2="553.4377737058805" y2="263.5126962981664"></line><line style="stroke: #aaa; stroke-width: 1;" x1="538.5392841785892" y1="273.53647726921395" x2="511.9822306892184" y2="319.41680251450884"></line><line style="stroke: #aaa; stroke-width: 1.41421;" x1="538.5392841785892" y1="273.53647726921395" x2="521.1958402662909" y2="315.24358382378006"></line><line style="stroke: #aaa; stroke-width: 1.41421;" x1="553.4377737058805" y1="263.5126962981664" x2="511.9822306892184" y2="319.41680251450884"></line><line style="stroke: #aaa; stroke-width: 1;" x1="278.8041113514286" y1="315.24358382378006" x2="288.0177209285011" y2="319.41680251450884"></line><line style="stroke: #aaa; stroke-width: 1;" x1="278.8041113514286" y1="315.24358382378006" x2="295.43314521650706" y2="359.06884016728463"></line><line style="stroke: #aaa; stroke-width: 1.41421;" x1="278.8041113514286" y1="315.24358382378006" x2="302.5483652825429" y2="360.683862880415"></line><line style="stroke: #aaa; stroke-width: 1.41421;" x1="288.0177209285011" y1="319.41680251450884" x2="295.43314521650706" y2="359.06884016728463"></line><line style="stroke: #aaa; stroke-width: 1;" x1="288.0177209285011" y1="319.41680251450884" x2="308.68621160312665" y2="327.74575965013014"></line><line style="stroke: #aaa; stroke-width: 1;" x1="288.0177209285011" y1="319.41680251450884" x2="302.5483652825429" y2="360.683862880415"></line><line style="stroke: #aaa; stroke-width: 1.41421;" x1="288.0177209285011" y1="319.41680251450884" x2="319.0991180467025" y2="363.9937094289715"></line><line style="stroke: #aaa; stroke-width: 1.41421;" x1="308.68621160312665" y1="327.74575965013014" x2="302.5483652825429" y2="360.683862880415"></line><line style="stroke: #aaa; stroke-width: 1;" x1="308.68621160312665" y1="327.74575965013014" x2="336.45928219414856" y2="336.45928219414856"></line><line style="stroke: #aaa; stroke-width: 1;" x1="308.68621160312665" y1="327.74575965013014" x2="319.0991180467025" y2="363.9937094289715"></line><line style="stroke: #aaa; stroke-width: 1.41421;" x1="308.68621160312665" y1="327.74575965013014" x2="342.6100486964374" y2="367.64480077667884"></line><line style="stroke: #aaa; stroke-width: 1.41421;" x1="336.45928219414856" y1="336.45928219414856" x2="319.0991180467025" y2="363.9937094289715"></line><line style="stroke: #aaa; stroke-width: 1;" x1="336.45928219414856" y1="336.45928219414856" x2="367.64480077667884" y2="342.6100486964374"></line><line style="stroke: #aaa; stroke-width: 1;" x1="336.45928219414856" y1="336.45928219414856" x2="342.6100486964374" y2="367.64480077667884"></line><line style="stroke: #aaa; stroke-width: 1.41421;" x1="336.45928219414856" y1="336.45928219414856" x2="370.3496788171639" y2="370.3496788171639"></line><line style="stroke: #aaa; stroke-width: 1.41421;" x1="367.64480077667884" y1="342.6100486964374" x2="342.6100486964374" y2="367.64480077667884"></line><line style="stroke: #aaa; stroke-width: 1;" x1="367.64480077667884" y1="342.6100486964374" x2="399.99997580885974" y2="344.7509988060318"></line><line style="stroke: #aaa; stroke-width: 1;" x1="367.64480077667884" y1="342.6100486964374" x2="370.3496788171639" y2="370.3496788171639"></line><line style="stroke: #aaa; stroke-width: 1.41421;" x1="367.64480077667884" y1="342.6100486964374" x2="399.99997580885974" y2="371.3338926588128"></line><line style="stroke: #aaa; stroke-width: 1.41421;" x1="399.99997580885974" y1="344.7509988060318" x2="370.3496788171639" y2="370.3496788171639"></line><line style="stroke: #aaa; stroke-width: 1;" x1="399.99997580885974" y1="344.7509988060318" x2="432.35515084104065" y2="342.6100486964374"></line><line style="stroke: #aaa; stroke-width: 1;" x1="399.99997580885974" y1="344.7509988060318" x2="399.99997580885974" y2="371.3338926588128"></line><line style="stroke: #aaa; stroke-width: 1.41421;" x1="399.99997580885974" y1="344.7509988060318" x2="429.65027280055557" y2="370.3496788171639"></line><line style="stroke: #aaa; stroke-width: 1.41421;" x1="432.35515084104065" y1="342.6100486964374" x2="399.99997580885974" y2="371.3338926588128"></line><line style="stroke: #aaa; stroke-width: 1;" x1="432.35515084104065" y1="342.6100486964374" x2="463.5406694235709" y2="336.45928219414856"></line><line style="stroke: #aaa; stroke-width: 1;" x1="432.35515084104065" y1="342.6100486964374" x2="429.65027280055557" y2="370.3496788171639"></line><line style="stroke: #aaa; stroke-width: 1.41421;" x1="432.35515084104065" y1="342.6100486964374" x2="457.38990292128204" y2="367.64480077667884"></line><line style="stroke: #aaa; stroke-width: 1.41421;" x1="463.5406694235709" y1="336.45928219414856" x2="429.65027280055557" y2="370.3496788171639"></line><line style="stroke: #aaa; stroke-width: 1;" x1="463.5406694235709" y1="336.45928219414856" x2="491.31374001459284" y2="327.74575965013014"></line><line style="stroke: #aaa; stroke-width: 1;" x1="463.5406694235709" y1="336.45928219414856" x2="457.38990292128204" y2="367.64480077667884"></line><line style="stroke: #aaa; stroke-width: 1.41421;" x1="463.5406694235709" y1="336.45928219414856" x2="480.900833571017" y2="363.9937094289715"></line><line style="stroke: #aaa; stroke-width: 1.41421;" x1="491.31374001459284" y1="327.74575965013014" x2="457.38990292128204" y2="367.64480077667884"></line><line style="stroke: #aaa; stroke-width: 1;" x1="491.31374001459284" y1="327.74575965013014" x2="511.9822306892184" y2="319.41680251450884"></line><line style="stroke: #aaa; stroke-width: 1;" x1="491.31374001459284" y1="327.74575965013014" x2="480.900833571017" y2="363.9937094289715"></line><line style="stroke: #aaa; stroke-width: 1.41421;" x1="491.31374001459284" y1="327.74575965013014" x2="497.45158633517667" y2="360.683862880415"></line><line style="stroke: #aaa; stroke-width: 1.41421;" x1="511.9822306892184" y1="319.41680251450884" x2="480.900833571017" y2="363.9937094289715"></line><line style="stroke: #aaa; stroke-width: 1;" x1="511.9822306892184" y1="319.41680251450884" x2="521.1958402662909" y2="315.24358382378006"></line><line style="stroke: #aaa; stroke-width: 1;" x1="511.9822306892184" y1="319.41680251450884" x2="497.45158633517667" y2="360.683862880415"></line><line style="stroke: #aaa; stroke-width: 1.41421;" x1="511.9822306892184" y1="319.41680251450884" x2="504.5668064012125" y2="359.06884016728463"></line><line style="stroke: #aaa; stroke-width: 1.41421;" x1="521.1958402662909" y1="315.24358382378006" x2="497.45158633517667" y2="360.683862880415"></line><line style="stroke: #aaa; stroke-width: 1;" x1="295.43314521650706" y1="359.06884016728463" x2="302.5483652825429" y2="360.683862880415"></line><line style="stroke: #aaa; stroke-width: 1;" x1="295.43314521650706" y1="359.06884016728463" x2="300.6262982512457" y2="399.99997580885974"></line><line style="stroke: #aaa; stroke-width: 1.41421;" x1="295.43314521650706" y1="359.06884016728463" x2="307.16771024743986" y2="399.99997580885974"></line><line style="stroke: #aaa; stroke-width: 1.41421;" x1="302.5483652825429" y1="360.683862880415" x2="300.6262982512457" y2="399.99997580885974"></line><line style="stroke: #aaa; stroke-width: 1;" x1="302.5483652825429" y1="360.683862880415" x2="319.0991180467025" y2="363.9937094289715"></line><line style="stroke: #aaa; stroke-width: 1;" x1="302.5483652825429" y1="360.683862880415" x2="307.16771024743986" y2="399.99997580885974"></line><line style="stroke: #aaa; stroke-width: 1.41421;" x1="302.5483652825429" y1="360.683862880415" x2="322.5541266367686" y2="399.99997580885974"></line><line style="stroke: #aaa; stroke-width: 1.41421;" x1="319.0991180467025" y1="363.9937094289715" x2="307.16771024743986" y2="399.99997580885974"></line><line style="stroke: #aaa; stroke-width: 1;" x1="319.0991180467025" y1="363.9937094289715" x2="342.6100486964374" y2="367.64480077667884"></line><line style="stroke: #aaa; stroke-width: 1;" x1="319.0991180467025" y1="363.9937094289715" x2="322.5541266367686" y2="399.99997580885974"></line><line style="stroke: #aaa; stroke-width: 1.41421;" x1="319.0991180467025" y1="363.9937094289715" x2="344.7509988060318" y2="399.99997580885974"></line><line style="stroke: #aaa; stroke-width: 1.41421;" x1="342.6100486964374" y1="367.64480077667884" x2="322.5541266367686" y2="399.99997580885974"></line><line style="stroke: #aaa; stroke-width: 1;" x1="342.6100486964374" y1="367.64480077667884" x2="370.3496788171639" y2="370.3496788171639"></line><line style="stroke: #aaa; stroke-width: 1;" x1="342.6100486964374" y1="367.64480077667884" x2="344.7509988060318" y2="399.99997580885974"></line><line style="stroke: #aaa; stroke-width: 1.41421;" x1="342.6100486964374" y1="367.64480077667884" x2="371.3338926588128" y2="399.99997580885974"></line><line style="stroke: #aaa; stroke-width: 1.41421;" x1="370.3496788171639" y1="370.3496788171639" x2="344.7509988060318" y2="399.99997580885974"></line><line style="stroke: #aaa; stroke-width: 1;" x1="370.3496788171639" y1="370.3496788171639" x2="399.99997580885974" y2="371.3338926588128"></line><line style="stroke: #aaa; stroke-width: 1;" x1="370.3496788171639" y1="370.3496788171639" x2="371.3338926588128" y2="399.99997580885974"></line><line style="stroke: #aaa; stroke-width: 1.41421;" x1="370.3496788171639" y1="370.3496788171639" x2="399.99997580885974" y2="399.99997580885974"></line><line style="stroke: #aaa; stroke-width: 1.41421;" x1="399.99997580885974" y1="371.3338926588128" x2="371.3338926588128" y2="399.99997580885974"></line><line style="stroke: #aaa; stroke-width: 1;" x1="399.99997580885974" y1="371.3338926588128" x2="429.65027280055557" y2="370.3496788171639"></line><line style="stroke: #aaa; stroke-width: 1;" x1="399.99997580885974" y1="371.3338926588128" x2="399.99997580885974" y2="399.99997580885974"></line><line style="stroke: #aaa; stroke-width: 1.41421;" x1="399.99997580885974" y1="371.3338926588128" x2="428.6660589589067" y2="399.99997580885974"></line><line style="stroke: #aaa; stroke-width: 1.41421;" x1="429.65027280055557" y1="370.3496788171639" x2="399.99997580885974" y2="399.99997580885974"></line><line style="stroke: #aaa; stroke-width: 1;" x1="429.65027280055557" y1="370.3496788171639" x2="457.38990292128204" y2="367.64480077667884"></line><line style="stroke: #aaa; stroke-width: 1;" x1="429.65027280055557" y1="370.3496788171639" x2="428.6660589589067" y2="399.99997580885974"></line><line style="stroke: #aaa; stroke-width: 1.41421;" x1="429.65027280055557" y1="370.3496788171639" x2="455.2489528116877" y2="399.99997580885974"></line><line style="stroke: #aaa; stroke-width: 1.41421;" x1="457.38990292128204" y1="367.64480077667884" x2="428.6660589589067" y2="399.99997580885974"></line><line style="stroke: #aaa; stroke-width: 1;" x1="457.38990292128204" y1="367.64480077667884" x2="480.900833571017" y2="363.9937094289715"></line><line style="stroke: #aaa; stroke-width: 1;" x1="457.38990292128204" y1="367.64480077667884" x2="455.2489528116877" y2="399.99997580885974"></line><line style="stroke: #aaa; stroke-width: 1.41421;" x1="457.38990292128204" y1="367.64480077667884" x2="477.4458249809509" y2="399.99997580885974"></line><line style="stroke: #aaa; stroke-width: 1.41421;" x1="480.900833571017" y1="363.9937094289715" x2="455.2489528116877" y2="399.99997580885974"></line><line style="stroke: #aaa; stroke-width: 1;" x1="480.900833571017" y1="363.9937094289715" x2="497.45158633517667" y2="360.683862880415"></line><line style="stroke: #aaa; stroke-width: 1;" x1="480.900833571017" y1="363.9937094289715" x2="477.4458249809509" y2="399.99997580885974"></line><line style="stroke: #aaa; stroke-width: 1.41421;" x1="480.900833571017" y1="363.9937094289715" x2="492.8322413702797" y2="399.99997580885974"></line><line style="stroke: #aaa; stroke-width: 1.41421;" x1="497.45158633517667" y1="360.683862880415" x2="477.4458249809509" y2="399.99997580885974"></line><line style="stroke: #aaa; stroke-width: 1;" x1="497.45158633517667" y1="360.683862880415" x2="504.5668064012125" y2="359.06884016728463"></line><line style="stroke: #aaa; stroke-width: 1;" x1="497.45158633517667" y1="360.683862880415" x2="492.8322413702797" y2="399.99997580885974"></line><line style="stroke: #aaa; stroke-width: 1.41421;" x1="497.45158633517667" y1="360.683862880415" x2="499.3736533664739" y2="399.99997580885974"></line><line style="stroke: #aaa; stroke-width: 1.41421;" x1="504.5668064012125" y1="359.06884016728463" x2="492.8322413702797" y2="399.99997580885974"></line><line style="stroke: #aaa; stroke-width: 1;" x1="300.6262982512457" y1="399.99997580885974" x2="307.16771024743986" y2="399.99997580885974"></line><line style="stroke: #aaa; stroke-width: 1;" x1="300.6262982512457" y1="399.99997580885974" x2="295.43314521650706" y2="440.9311114504348"></line><line style="stroke: #aaa; stroke-width: 1.41421;" x1="300.6262982512457" y1="399.99997580885974" x2="302.5483652825429" y2="439.3160887373045"></line><line style="stroke: #aaa; stroke-width: 1.41421;" x1="307.16771024743986" y1="399.99997580885974" x2="295.43314521650706" y2="440.9311114504348"></line><line style="stroke: #aaa; stroke-width: 1;" x1="307.16771024743986" y1="399.99997580885974" x2="322.5541266367686" y2="399.99997580885974"></line><line style="stroke: #aaa; stroke-width: 1;" x1="307.16771024743986" y1="399.99997580885974" x2="302.5483652825429" y2="439.3160887373045"></line><line style="stroke: #aaa; stroke-width: 1.41421;" x1="307.16771024743986" y1="399.99997580885974" x2="319.0991180467025" y2="436.006242188748"></line><line style="stroke: #aaa; stroke-width: 1.41421;" x1="322.5541266367686" y1="399.99997580885974" x2="302.5483652825429" y2="439.3160887373045"></line><line style="stroke: #aaa; stroke-width: 1;" x1="322.5541266367686" y1="399.99997580885974" x2="344.7509988060318" y2="399.99997580885974"></line><line style="stroke: #aaa; stroke-width: 1;" x1="322.5541266367686" y1="399.99997580885974" x2="319.0991180467025" y2="436.006242188748"></line><line style="stroke: #aaa; stroke-width: 1.41421;" x1="322.5541266367686" y1="399.99997580885974" x2="342.6100486964374" y2="432.35515084104065"></line><line style="stroke: #aaa; stroke-width: 1.41421;" x1="344.7509988060318" y1="399.99997580885974" x2="319.0991180467025" y2="436.006242188748"></line><line style="stroke: #aaa; stroke-width: 1;" x1="344.7509988060318" y1="399.99997580885974" x2="371.3338926588128" y2="399.99997580885974"></line><line style="stroke: #aaa; stroke-width: 1;" x1="344.7509988060318" y1="399.99997580885974" x2="342.6100486964374" y2="432.35515084104065"></line><line style="stroke: #aaa; stroke-width: 1.41421;" x1="344.7509988060318" y1="399.99997580885974" x2="370.3496788171639" y2="429.65027280055557"></line><line style="stroke: #aaa; stroke-width: 1.41421;" x1="371.3338926588128" y1="399.99997580885974" x2="342.6100486964374" y2="432.35515084104065"></line><line style="stroke: #aaa; stroke-width: 1;" x1="371.3338926588128" y1="399.99997580885974" x2="399.99997580885974" y2="399.99997580885974"></line><line style="stroke: #aaa; stroke-width: 1;" x1="371.3338926588128" y1="399.99997580885974" x2="370.3496788171639" y2="429.65027280055557"></line><line style="stroke: #aaa; stroke-width: 1.41421;" x1="371.3338926588128" y1="399.99997580885974" x2="399.99997580885974" y2="428.6660589589067"></line><line style="stroke: #aaa; stroke-width: 1.41421;" x1="399.99997580885974" y1="399.99997580885974" x2="370.3496788171639" y2="429.65027280055557"></line><line style="stroke: #aaa; stroke-width: 1;" x1="399.99997580885974" y1="399.99997580885974" x2="428.6660589589067" y2="399.99997580885974"></line><line style="stroke: #aaa; stroke-width: 1;" x1="399.99997580885974" y1="399.99997580885974" x2="399.99997580885974" y2="428.6660589589067"></line><line style="stroke: #aaa; stroke-width: 1.41421;" x1="399.99997580885974" y1="399.99997580885974" x2="429.65027280055557" y2="429.65027280055557"></line><line style="stroke: #aaa; stroke-width: 1.41421;" x1="428.6660589589067" y1="399.99997580885974" x2="399.99997580885974" y2="428.6660589589067"></line><line style="stroke: #aaa; stroke-width: 1;" x1="428.6660589589067" y1="399.99997580885974" x2="455.2489528116877" y2="399.99997580885974"></line><line style="stroke: #aaa; stroke-width: 1;" x1="428.6660589589067" y1="399.99997580885974" x2="429.65027280055557" y2="429.65027280055557"></line><line style="stroke: #aaa; stroke-width: 1.41421;" x1="428.6660589589067" y1="399.99997580885974" x2="457.38990292128204" y2="432.35515084104065"></line><line style="stroke: #aaa; stroke-width: 1.41421;" x1="455.2489528116877" y1="399.99997580885974" x2="429.65027280055557" y2="429.65027280055557"></line><line style="stroke: #aaa; stroke-width: 1;" x1="455.2489528116877" y1="399.99997580885974" x2="477.4458249809509" y2="399.99997580885974"></line><line style="stroke: #aaa; stroke-width: 1;" x1="455.2489528116877" y1="399.99997580885974" x2="457.38990292128204" y2="432.35515084104065"></line><line style="stroke: #aaa; stroke-width: 1.41421;" x1="455.2489528116877" y1="399.99997580885974" x2="480.900833571017" y2="436.006242188748"></line><line style="stroke: #aaa; stroke-width: 1.41421;" x1="477.4458249809509" y1="399.99997580885974" x2="457.38990292128204" y2="432.35515084104065"></line><line style="stroke: #aaa; stroke-width: 1;" x1="477.4458249809509" y1="399.99997580885974" x2="492.8322413702797" y2="399.99997580885974"></line><line style="stroke: #aaa; stroke-width: 1;" x1="477.4458249809509" y1="399.99997580885974" x2="480.900833571017" y2="436.006242188748"></line><line style="stroke: #aaa; stroke-width: 1.41421;" x1="477.4458249809509" y1="399.99997580885974" x2="497.45158633517667" y2="439.3160887373045"></line><line style="stroke: #aaa; stroke-width: 1.41421;" x1="492.8322413702797" y1="399.99997580885974" x2="480.900833571017" y2="436.006242188748"></line><line style="stroke: #aaa; stroke-width: 1;" x1="492.8322413702797" y1="399.99997580885974" x2="499.3736533664739" y2="399.99997580885974"></line><line style="stroke: #aaa; stroke-width: 1;" x1="492.8322413702797" y1="399.99997580885974" x2="497.45158633517667" y2="439.3160887373045"></line><line style="stroke: #aaa; stroke-width: 1.41421;" x1="492.8322413702797" y1="399.99997580885974" x2="504.5668064012125" y2="440.9311114504348"></line><line style="stroke: #aaa; stroke-width: 1.41421;" x1="499.3736533664739" y1="399.99997580885974" x2="497.45158633517667" y2="439.3160887373045"></line><line style="stroke: #aaa; stroke-width: 1;" x1="295.43314521650706" y1="440.9311114504348" x2="302.5483652825429" y2="439.3160887373045"></line><line style="stroke: #aaa; stroke-width: 1;" x1="295.43314521650706" y1="440.9311114504348" x2="278.8041113514286" y2="484.75636779393943"></line><line style="stroke: #aaa; stroke-width: 1.41421;" x1="295.43314521650706" y1="440.9311114504348" x2="288.0177209285011" y2="480.5831491032107"></line><line style="stroke: #aaa; stroke-width: 1.41421;" x1="302.5483652825429" y1="439.3160887373045" x2="278.8041113514286" y2="484.75636779393943"></line><line style="stroke: #aaa; stroke-width: 1;" x1="302.5483652825429" y1="439.3160887373045" x2="319.0991180467025" y2="436.006242188748"></line><line style="stroke: #aaa; stroke-width: 1;" x1="302.5483652825429" y1="439.3160887373045" x2="288.0177209285011" y2="480.5831491032107"></line><line style="stroke: #aaa; stroke-width: 1.41421;" x1="302.5483652825429" y1="439.3160887373045" x2="308.68621160312665" y2="472.2541919675894"></line><line style="stroke: #aaa; stroke-width: 1.41421;" x1="319.0991180467025" y1="436.006242188748" x2="288.0177209285011" y2="480.5831491032107"></line><line style="stroke: #aaa; stroke-width: 1;" x1="319.0991180467025" y1="436.006242188748" x2="342.6100486964374" y2="432.35515084104065"></line><line style="stroke: #aaa; stroke-width: 1;" x1="319.0991180467025" y1="436.006242188748" x2="308.68621160312665" y2="472.2541919675894"></line><line style="stroke: #aaa; stroke-width: 1.41421;" x1="319.0991180467025" y1="436.006242188748" x2="336.45928219414856" y2="463.5406694235709"></line><line style="stroke: #aaa; stroke-width: 1.41421;" x1="342.6100486964374" y1="432.35515084104065" x2="308.68621160312665" y2="472.2541919675894"></line><line style="stroke: #aaa; stroke-width: 1;" x1="342.6100486964374" y1="432.35515084104065" x2="370.3496788171639" y2="429.65027280055557"></line><line style="stroke: #aaa; stroke-width: 1;" x1="342.6100486964374" y1="432.35515084104065" x2="336.45928219414856" y2="463.5406694235709"></line><line style="stroke: #aaa; stroke-width: 1.41421;" x1="342.6100486964374" y1="432.35515084104065" x2="367.64480077667884" y2="457.38990292128204"></line><line style="stroke: #aaa; stroke-width: 1.41421;" x1="370.3496788171639" y1="429.65027280055557" x2="336.45928219414856" y2="463.5406694235709"></line><line style="stroke: #aaa; stroke-width: 1;" x1="370.3496788171639" y1="429.65027280055557" x2="399.99997580885974" y2="428.6660589589067"></line><line style="stroke: #aaa; stroke-width: 1;" x1="370.3496788171639" y1="429.65027280055557" x2="367.64480077667884" y2="457.38990292128204"></line><line style="stroke: #aaa; stroke-width: 1.41421;" x1="370.3496788171639" y1="429.65027280055557" x2="399.99997580885974" y2="455.2489528116877"></line><line style="stroke: #aaa; stroke-width: 1.41421;" x1="399.99997580885974" y1="428.6660589589067" x2="367.64480077667884" y2="457.38990292128204"></line><line style="stroke: #aaa; stroke-width: 1;" x1="399.99997580885974" y1="428.6660589589067" x2="429.65027280055557" y2="429.65027280055557"></line><line style="stroke: #aaa; stroke-width: 1;" x1="399.99997580885974" y1="428.6660589589067" x2="399.99997580885974" y2="455.2489528116877"></line><line style="stroke: #aaa; stroke-width: 1.41421;" x1="399.99997580885974" y1="428.6660589589067" x2="432.35515084104065" y2="457.38990292128204"></line><line style="stroke: #aaa; stroke-width: 1.41421;" x1="429.65027280055557" y1="429.65027280055557" x2="399.99997580885974" y2="455.2489528116877"></line><line style="stroke: #aaa; stroke-width: 1;" x1="429.65027280055557" y1="429.65027280055557" x2="457.38990292128204" y2="432.35515084104065"></line><line style="stroke: #aaa; stroke-width: 1;" x1="429.65027280055557" y1="429.65027280055557" x2="432.35515084104065" y2="457.38990292128204"></line><line style="stroke: #aaa; stroke-width: 1.41421;" x1="429.65027280055557" y1="429.65027280055557" x2="463.5406694235709" y2="463.5406694235709"></line><line style="stroke: #aaa; stroke-width: 1.41421;" x1="457.38990292128204" y1="432.35515084104065" x2="432.35515084104065" y2="457.38990292128204"></line><line style="stroke: #aaa; stroke-width: 1;" x1="457.38990292128204" y1="432.35515084104065" x2="480.900833571017" y2="436.006242188748"></line><line style="stroke: #aaa; stroke-width: 1;" x1="457.38990292128204" y1="432.35515084104065" x2="463.5406694235709" y2="463.5406694235709"></line><line style="stroke: #aaa; stroke-width: 1.41421;" x1="457.38990292128204" y1="432.35515084104065" x2="491.31374001459284" y2="472.2541919675894"></line><line style="stroke: #aaa; stroke-width: 1.41421;" x1="480.900833571017" y1="436.006242188748" x2="463.5406694235709" y2="463.5406694235709"></line><line style="stroke: #aaa; stroke-width: 1;" x1="480.900833571017" y1="436.006242188748" x2="497.45158633517667" y2="439.3160887373045"></line><line style="stroke: #aaa; stroke-width: 1;" x1="480.900833571017" y1="436.006242188748" x2="491.31374001459284" y2="472.2541919675894"></line><line style="stroke: #aaa; stroke-width: 1.41421;" x1="480.900833571017" y1="436.006242188748" x2="511.9822306892184" y2="480.5831491032107"></line><line style="stroke: #aaa; stroke-width: 1.41421;" x1="497.45158633517667" y1="439.3160887373045" x2="491.31374001459284" y2="472.2541919675894"></line><line style="stroke: #aaa; stroke-width: 1;" x1="497.45158633517667" y1="439.3160887373045" x2="504.5668064012125" y2="440.9311114504348"></line><line style="stroke: #aaa; stroke-width: 1;" x1="497.45158633517667" y1="439.3160887373045" x2="511.9822306892184" y2="480.5831491032107"></line><line style="stroke: #aaa; stroke-width: 1.41421;" x1="497.45158633517667" y1="439.3160887373045" x2="521.1958402662909" y2="484.75636779393943"></line><line style="stroke: #aaa; stroke-width: 1.41421;" x1="504.5668064012125" y1="440.9311114504348" x2="511.9822306892184" y2="480.5831491032107"></line><line style="stroke: #aaa; stroke-width: 1;" x1="278.8041113514286" y1="484.75636779393943" x2="288.0177209285011" y2="480.5831491032107"></line><line style="stroke: #aaa; stroke-width: 1;" x1="278.8041113514286" y1="484.75636779393943" x2="246.562177911839" y2="536.4872553195531"></line><line style="stroke: #aaa; stroke-width: 1.41421;" x1="278.8041113514286" y1="484.75636779393943" x2="261.46066743913025" y2="526.4634743485057"></line><line style="stroke: #aaa; stroke-width: 1.41421;" x1="288.0177209285011" y1="480.5831491032107" x2="246.562177911839" y2="536.4872553195531"></line><line style="stroke: #aaa; stroke-width: 1;" x1="288.0177209285011" y1="480.5831491032107" x2="308.68621160312665" y2="472.2541919675894"></line><line style="stroke: #aaa; stroke-width: 1;" x1="288.0177209285011" y1="480.5831491032107" x2="261.46066743913025" y2="526.4634743485057"></line><line style="stroke: #aaa; stroke-width: 1.41421;" x1="288.0177209285011" y1="480.5831491032107" x2="291.5464505553548" y2="508.45350106236464"></line><line style="stroke: #aaa; stroke-width: 1.41421;" x1="308.68621160312665" y1="472.2541919675894" x2="261.46066743913025" y2="526.4634743485057"></line><line style="stroke: #aaa; stroke-width: 1;" x1="308.68621160312665" y1="472.2541919675894" x2="336.45928219414856" y2="463.5406694235709"></line><line style="stroke: #aaa; stroke-width: 1;" x1="308.68621160312665" y1="472.2541919675894" x2="291.5464505553548" y2="508.45350106236464"></line><line style="stroke: #aaa; stroke-width: 1.41421;" x1="308.68621160312665" y1="472.2541919675894" x2="327.74575965013014" y2="491.31374001459284"></line><line style="stroke: #aaa; stroke-width: 1.41421;" x1="336.45928219414856" y1="463.5406694235709" x2="291.5464505553548" y2="508.45350106236464"></line><line style="stroke: #aaa; stroke-width: 1;" x1="336.45928219414856" y1="463.5406694235709" x2="367.64480077667884" y2="457.38990292128204"></line><line style="stroke: #aaa; stroke-width: 1;" x1="336.45928219414856" y1="463.5406694235709" x2="327.74575965013014" y2="491.31374001459284"></line><line style="stroke: #aaa; stroke-width: 1.41421;" x1="336.45928219414856" y1="463.5406694235709" x2="363.9937094289715" y2="480.900833571017"></line><line style="stroke: #aaa; stroke-width: 1.41421;" x1="367.64480077667884" y1="457.38990292128204" x2="327.74575965013014" y2="491.31374001459284"></line><line style="stroke: #aaa; stroke-width: 1;" x1="367.64480077667884" y1="457.38990292128204" x2="399.99997580885974" y2="455.2489528116877"></line><line style="stroke: #aaa; stroke-width: 1;" x1="367.64480077667884" y1="457.38990292128204" x2="363.9937094289715" y2="480.900833571017"></line><line style="stroke: #aaa; stroke-width: 1.41421;" x1="367.64480077667884" y1="457.38990292128204" x2="399.99997580885974" y2="477.4458249809509"></line><line style="stroke: #aaa; stroke-width: 1.41421;" x1="399.99997580885974" y1="455.2489528116877" x2="363.9937094289715" y2="480.900833571017"></line><line style="stroke: #aaa; stroke-width: 1;" x1="399.99997580885974" y1="455.2489528116877" x2="432.35515084104065" y2="457.38990292128204"></line><line style="stroke: #aaa; stroke-width: 1;" x1="399.99997580885974" y1="455.2489528116877" x2="399.99997580885974" y2="477.4458249809509"></line><line style="stroke: #aaa; stroke-width: 1.41421;" x1="399.99997580885974" y1="455.2489528116877" x2="436.006242188748" y2="480.900833571017"></line><line style="stroke: #aaa; stroke-width: 1.41421;" x1="432.35515084104065" y1="457.38990292128204" x2="399.99997580885974" y2="477.4458249809509"></line><line style="stroke: #aaa; stroke-width: 1;" x1="432.35515084104065" y1="457.38990292128204" x2="463.5406694235709" y2="463.5406694235709"></line><line style="stroke: #aaa; stroke-width: 1;" x1="432.35515084104065" y1="457.38990292128204" x2="436.006242188748" y2="480.900833571017"></line><line style="stroke: #aaa; stroke-width: 1.41421;" x1="432.35515084104065" y1="457.38990292128204" x2="472.2541919675894" y2="491.31374001459284"></line><line style="stroke: #aaa; stroke-width: 1.41421;" x1="463.5406694235709" y1="463.5406694235709" x2="436.006242188748" y2="480.900833571017"></line><line style="stroke: #aaa; stroke-width: 1;" x1="463.5406694235709" y1="463.5406694235709" x2="491.31374001459284" y2="472.2541919675894"></line><line style="stroke: #aaa; stroke-width: 1;" x1="463.5406694235709" y1="463.5406694235709" x2="472.2541919675894" y2="491.31374001459284"></line><line style="stroke: #aaa; stroke-width: 1.41421;" x1="463.5406694235709" y1="463.5406694235709" x2="508.45350106236464" y2="508.45350106236464"></line><line style="stroke: #aaa; stroke-width: 1.41421;" x1="491.31374001459284" y1="472.2541919675894" x2="472.2541919675894" y2="491.31374001459284"></line><line style="stroke: #aaa; stroke-width: 1;" x1="491.31374001459284" y1="472.2541919675894" x2="511.9822306892184" y2="480.5831491032107"></line><line style="stroke: #aaa; stroke-width: 1;" x1="491.31374001459284" y1="472.2541919675894" x2="508.45350106236464" y2="508.45350106236464"></line><line style="stroke: #aaa; stroke-width: 1.41421;" x1="491.31374001459284" y1="472.2541919675894" x2="538.5392841785892" y2="526.4634743485057"></line><line style="stroke: #aaa; stroke-width: 1.41421;" x1="511.9822306892184" y1="480.5831491032107" x2="508.45350106236464" y2="508.45350106236464"></line><line style="stroke: #aaa; stroke-width: 1;" x1="511.9822306892184" y1="480.5831491032107" x2="521.1958402662909" y2="484.75636779393943"></line><line style="stroke: #aaa; stroke-width: 1;" x1="511.9822306892184" y1="480.5831491032107" x2="538.5392841785892" y2="526.4634743485057"></line><line style="stroke: #aaa; stroke-width: 1.41421;" x1="511.9822306892184" y1="480.5831491032107" x2="553.4377737058805" y2="536.4872553195531"></line><line style="stroke: #aaa; stroke-width: 1.41421;" x1="521.1958402662909" y1="484.75636779393943" x2="538.5392841785892" y2="526.4634743485057"></line><line style="stroke: #aaa; stroke-width: 1;" x1="246.562177911839" y1="536.4872553195531" x2="261.46066743913025" y2="526.4634743485057"></line><line style="stroke: #aaa; stroke-width: 1;" x1="246.562177911839" y1="536.4872553195531" x2="187.47818697467903" y2="607.6842966105348"></line><line style="stroke: #aaa; stroke-width: 1.41421;" x1="246.562177911839" y1="536.4872553195531" x2="217.05172288683312" y2="582.9482287308864"></line><line style="stroke: #aaa; stroke-width: 1.41421;" x1="261.46066743913025" y1="526.4634743485057" x2="187.47818697467903" y2="607.6842966105348"></line><line style="stroke: #aaa; stroke-width: 1;" x1="261.46066743913025" y1="526.4634743485057" x2="291.5464505553548" y2="508.45350106236464"></line><line style="stroke: #aaa; stroke-width: 1;" x1="261.46066743913025" y1="526.4634743485057" x2="217.05172288683312" y2="582.9482287308864"></line><line style="stroke: #aaa; stroke-width: 1.41421;" x1="261.46066743913025" y1="526.4634743485057" x2="273.53647726921395" y2="538.5392841785892"></line><line style="stroke: #aaa; stroke-width: 1.41421;" x1="291.5464505553548" y1="508.45350106236464" x2="217.05172288683312" y2="582.9482287308864"></line><line style="stroke: #aaa; stroke-width: 1;" x1="291.5464505553548" y1="508.45350106236464" x2="327.74575965013014" y2="491.31374001459284"></line><line style="stroke: #aaa; stroke-width: 1;" x1="291.5464505553548" y1="508.45350106236464" x2="273.53647726921395" y2="538.5392841785892"></line><line style="stroke: #aaa; stroke-width: 1.41421;" x1="291.5464505553548" y1="508.45350106236464" x2="319.41680251450884" y2="511.9822306892184"></line><line style="stroke: #aaa; stroke-width: 1.41421;" x1="327.74575965013014" y1="491.31374001459284" x2="273.53647726921395" y2="538.5392841785892"></line><line style="stroke: #aaa; stroke-width: 1;" x1="327.74575965013014" y1="491.31374001459284" x2="363.9937094289715" y2="480.900833571017"></line><line style="stroke: #aaa; stroke-width: 1;" x1="327.74575965013014" y1="491.31374001459284" x2="319.41680251450884" y2="511.9822306892184"></line><line style="stroke: #aaa; stroke-width: 1.41421;" x1="327.74575965013014" y1="491.31374001459284" x2="360.683862880415" y2="497.45158633517667"></line><line style="stroke: #aaa; stroke-width: 1.41421;" x1="363.9937094289715" y1="480.900833571017" x2="319.41680251450884" y2="511.9822306892184"></line><line style="stroke: #aaa; stroke-width: 1;" x1="363.9937094289715" y1="480.900833571017" x2="399.99997580885974" y2="477.4458249809509"></line><line style="stroke: #aaa; stroke-width: 1;" x1="363.9937094289715" y1="480.900833571017" x2="360.683862880415" y2="497.45158633517667"></line><line style="stroke: #aaa; stroke-width: 1.41421;" x1="363.9937094289715" y1="480.900833571017" x2="399.99997580885974" y2="492.8322413702797"></line><line style="stroke: #aaa; stroke-width: 1.41421;" x1="399.99997580885974" y1="477.4458249809509" x2="360.683862880415" y2="497.45158633517667"></line><line style="stroke: #aaa; stroke-width: 1;" x1="399.99997580885974" y1="477.4458249809509" x2="436.006242188748" y2="480.900833571017"></line><line style="stroke: #aaa; stroke-width: 1;" x1="399.99997580885974" y1="477.4458249809509" x2="399.99997580885974" y2="492.8322413702797"></line><line style="stroke: #aaa; stroke-width: 1.41421;" x1="399.99997580885974" y1="477.4458249809509" x2="439.3160887373045" y2="497.45158633517667"></line><line style="stroke: #aaa; stroke-width: 1.41421;" x1="436.006242188748" y1="480.900833571017" x2="399.99997580885974" y2="492.8322413702797"></line><line style="stroke: #aaa; stroke-width: 1;" x1="436.006242188748" y1="480.900833571017" x2="472.2541919675894" y2="491.31374001459284"></line><line style="stroke: #aaa; stroke-width: 1;" x1="436.006242188748" y1="480.900833571017" x2="439.3160887373045" y2="497.45158633517667"></line><line style="stroke: #aaa; stroke-width: 1.41421;" x1="436.006242188748" y1="480.900833571017" x2="480.5831491032107" y2="511.9822306892184"></line><line style="stroke: #aaa; stroke-width: 1.41421;" x1="472.2541919675894" y1="491.31374001459284" x2="439.3160887373045" y2="497.45158633517667"></line><line style="stroke: #aaa; stroke-width: 1;" x1="472.2541919675894" y1="491.31374001459284" x2="508.45350106236464" y2="508.45350106236464"></line><line style="stroke: #aaa; stroke-width: 1;" x1="472.2541919675894" y1="491.31374001459284" x2="480.5831491032107" y2="511.9822306892184"></line><line style="stroke: #aaa; stroke-width: 1.41421;" x1="472.2541919675894" y1="491.31374001459284" x2="526.4634743485057" y2="538.5392841785892"></line><line style="stroke: #aaa; stroke-width: 1.41421;" x1="508.45350106236464" y1="508.45350106236464" x2="480.5831491032107" y2="511.9822306892184"></line><line style="stroke: #aaa; stroke-width: 1;" x1="508.45350106236464" y1="508.45350106236464" x2="538.5392841785892" y2="526.4634743485057"></line><line style="stroke: #aaa; stroke-width: 1;" x1="508.45350106236464" y1="508.45350106236464" x2="526.4634743485057" y2="538.5392841785892"></line><line style="stroke: #aaa; stroke-width: 1.41421;" x1="508.45350106236464" y1="508.45350106236464" x2="582.9482287308864" y2="582.9482287308864"></line><line style="stroke: #aaa; stroke-width: 1.41421;" x1="538.5392841785892" y1="526.4634743485057" x2="526.4634743485057" y2="538.5392841785892"></line><line style="stroke: #aaa; stroke-width: 1;" x1="538.5392841785892" y1="526.4634743485057" x2="553.4377737058805" y2="536.4872553195531"></line><line style="stroke: #aaa; stroke-width: 1;" x1="538.5392841785892" y1="526.4634743485057" x2="582.9482287308864" y2="582.9482287308864"></line><line style="stroke: #aaa; stroke-width: 1.41421;" x1="538.5392841785892" y1="526.4634743485057" x2="612.5217646430405" y2="607.6842966105348"></line><line style="stroke: #aaa; stroke-width: 1.41421;" x1="553.4377737058805" y1="536.4872553195531" x2="582.9482287308864" y2="582.9482287308864"></line><line style="stroke: #aaa; stroke-width: 1;" x1="187.47818697467903" y1="607.6842966105348" x2="217.05172288683312" y2="582.9482287308864"></line><line style="stroke: #aaa; stroke-width: 1;" x1="187.47818697467903" y1="607.6842966105348" x2="20" y2="780"></line><line style="stroke: #aaa; stroke-width: 1.41421;" x1="187.47818697467903" y1="607.6842966105348" x2="192.3156550071847" y2="612.5217646430405"></line><line style="stroke: #aaa; stroke-width: 1.41421;" x1="217.05172288683312" y1="582.9482287308864" x2="20" y2="780"></line><line style="stroke: #aaa; stroke-width: 1;" x1="217.05172288683312" y1="582.9482287308864" x2="273.53647726921395" y2="538.5392841785892"></line><line style="stroke: #aaa; stroke-width: 1;" x1="217.05172288683312" y1="582.9482287308864" x2="192.3156550071847" y2="612.5217646430405"></line><line style="stroke: #aaa; stroke-width: 1.41421;" x1="217.05172288683312" y1="582.9482287308864" x2="263.5126962981664" y2="553.4377737058805"></line><line style="stroke: #aaa; stroke-width: 1.41421;" x1="273.53647726921395" y1="538.5392841785892" x2="192.3156550071847" y2="612.5217646430405"></line><line style="stroke: #aaa; stroke-width: 1;" x1="273.53647726921395" y1="538.5392841785892" x2="319.41680251450884" y2="511.9822306892184"></line><line style="stroke: #aaa; stroke-width: 1;" x1="273.53647726921395" y1="538.5392841785892" x2="263.5126962981664" y2="553.4377737058805"></line><line style="stroke: #aaa; stroke-width: 1.41421;" x1="273.53647726921395" y1="538.5392841785892" x2="315.24358382378006" y2="521.1958402662909"></line><line style="stroke: #aaa; stroke-width: 1.41421;" x1="319.41680251450884" y1="511.9822306892184" x2="263.5126962981664" y2="553.4377737058805"></line><line style="stroke: #aaa; stroke-width: 1;" x1="319.41680251450884" y1="511.9822306892184" x2="360.683862880415" y2="497.45158633517667"></line><line style="stroke: #aaa; stroke-width: 1;" x1="319.41680251450884" y1="511.9822306892184" x2="315.24358382378006" y2="521.1958402662909"></line><line style="stroke: #aaa; stroke-width: 1.41421;" x1="319.41680251450884" y1="511.9822306892184" x2="359.06884016728463" y2="504.5668064012125"></line><line style="stroke: #aaa; stroke-width: 1.41421;" x1="360.683862880415" y1="497.45158633517667" x2="315.24358382378006" y2="521.1958402662909"></line><line style="stroke: #aaa; stroke-width: 1;" x1="360.683862880415" y1="497.45158633517667" x2="399.99997580885974" y2="492.8322413702797"></line><line style="stroke: #aaa; stroke-width: 1;" x1="360.683862880415" y1="497.45158633517667" x2="359.06884016728463" y2="504.5668064012125"></line><line style="stroke: #aaa; stroke-width: 1.41421;" x1="360.683862880415" y1="497.45158633517667" x2="399.99997580885974" y2="499.3736533664739"></line><line style="stroke: #aaa; stroke-width: 1.41421;" x1="399.99997580885974" y1="492.8322413702797" x2="359.06884016728463" y2="504.5668064012125"></line><line style="stroke: #aaa; stroke-width: 1;" x1="399.99997580885974" y1="492.8322413702797" x2="439.3160887373045" y2="497.45158633517667"></line><line style="stroke: #aaa; stroke-width: 1;" x1="399.99997580885974" y1="492.8322413702797" x2="399.99997580885974" y2="499.3736533664739"></line><line style="stroke: #aaa; stroke-width: 1.41421;" x1="399.99997580885974" y1="492.8322413702797" x2="440.9311114504348" y2="504.5668064012125"></line><line style="stroke: #aaa; stroke-width: 1.41421;" x1="439.3160887373045" y1="497.45158633517667" x2="399.99997580885974" y2="499.3736533664739"></line><line style="stroke: #aaa; stroke-width: 1;" x1="439.3160887373045" y1="497.45158633517667" x2="480.5831491032107" y2="511.9822306892184"></line><line style="stroke: #aaa; stroke-width: 1;" x1="439.3160887373045" y1="497.45158633517667" x2="440.9311114504348" y2="504.5668064012125"></line><line style="stroke: #aaa; stroke-width: 1.41421;" x1="439.3160887373045" y1="497.45158633517667" x2="484.75636779393943" y2="521.1958402662909"></line><line style="stroke: #aaa; stroke-width: 1.41421;" x1="480.5831491032107" y1="511.9822306892184" x2="440.9311114504348" y2="504.5668064012125"></line><line style="stroke: #aaa; stroke-width: 1;" x1="480.5831491032107" y1="511.9822306892184" x2="526.4634743485057" y2="538.5392841785892"></line><line style="stroke: #aaa; stroke-width: 1;" x1="480.5831491032107" y1="511.9822306892184" x2="484.75636779393943" y2="521.1958402662909"></line><line style="stroke: #aaa; stroke-width: 1.41421;" x1="480.5831491032107" y1="511.9822306892184" x2="536.4872553195531" y2="553.4377737058805"></line><line style="stroke: #aaa; stroke-width: 1.41421;" x1="526.4634743485057" y1="538.5392841785892" x2="484.75636779393943" y2="521.1958402662909"></line><line style="stroke: #aaa; stroke-width: 1;" x1="526.4634743485057" y1="538.5392841785892" x2="582.9482287308864" y2="582.9482287308864"></line><line style="stroke: #aaa; stroke-width: 1;" x1="526.4634743485057" y1="538.5392841785892" x2="536.4872553195531" y2="553.4377737058805"></line><line style="stroke: #aaa; stroke-width: 1.41421;" x1="526.4634743485057" y1="538.5392841785892" x2="607.6842966105348" y2="612.5217646430405"></line><line style="stroke: #aaa; stroke-width: 1.41421;" x1="582.9482287308864" y1="582.9482287308864" x2="536.4872553195531" y2="553.4377737058805"></line><line style="stroke: #aaa; stroke-width: 1;" x1="582.9482287308864" y1="582.9482287308864" x2="612.5217646430405" y2="607.6842966105348"></line><line style="stroke: #aaa; stroke-width: 1;" x1="582.9482287308864" y1="582.9482287308864" x2="607.6842966105348" y2="612.5217646430405"></line><line style="stroke: #aaa; stroke-width: 1.41421;" x1="582.9482287308864" y1="582.9482287308864" x2="780" y2="780"></line><line style="stroke: #aaa; stroke-width: 1.41421;" x1="612.5217646430405" y1="607.6842966105348" x2="607.6842966105348" y2="612.5217646430405"></line><line style="stroke: #aaa; stroke-width: 1;" x1="780" y1="20" x2="612.5217646430405" y2="192.3156550071847"></line><line style="stroke: #aaa; stroke-width: 1;" x1="612.5217646430405" y1="192.3156550071847" x2="553.4377737058805" y2="263.5126962981664"></line><line style="stroke: #aaa; stroke-width: 1;" x1="553.4377737058805" y1="263.5126962981664" x2="521.1958402662909" y2="315.24358382378006"></line><line style="stroke: #aaa; stroke-width: 1;" x1="521.1958402662909" y1="315.24358382378006" x2="504.5668064012125" y2="359.06884016728463"></line><line style="stroke: #aaa; stroke-width: 1;" x1="504.5668064012125" y1="359.06884016728463" x2="499.3736533664739" y2="399.99997580885974"></line><line style="stroke: #aaa; stroke-width: 1;" x1="499.3736533664739" y1="399.99997580885974" x2="504.5668064012125" y2="440.9311114504348"></line><line style="stroke: #aaa; stroke-width: 1;" x1="504.5668064012125" y1="440.9311114504348" x2="521.1958402662909" y2="484.75636779393943"></line><line style="stroke: #aaa; stroke-width: 1;" x1="521.1958402662909" y1="484.75636779393943" x2="553.4377737058805" y2="536.4872553195531"></line><line style="stroke: #aaa; stroke-width: 1;" x1="553.4377737058805" y1="536.4872553195531" x2="612.5217646430405" y2="607.6842966105348"></line><line style="stroke: #aaa; stroke-width: 1;" x1="612.5217646430405" y1="607.6842966105348" x2="780" y2="780"></line><line style="stroke: #aaa; stroke-width: 1;" x1="20" y1="780" x2="192.3156550071847" y2="612.5217646430405"></line><line style="stroke: #aaa; stroke-width: 1;" x1="192.3156550071847" y1="612.5217646430405" x2="263.5126962981664" y2="553.4377737058805"></line><line style="stroke: #aaa; stroke-width: 1;" x1="263.5126962981664" y1="553.4377737058805" x2="315.24358382378006" y2="521.1958402662909"></line><line style="stroke: #aaa; stroke-width: 1;" x1="315.24358382378006" y1="521.1958402662909" x2="359.06884016728463" y2="504.5668064012125"></line><line style="stroke: #aaa; stroke-width: 1;" x1="359.06884016728463" y1="504.5668064012125" x2="399.99997580885974" y2="499.3736533664739"></line><line style="stroke: #aaa; stroke-width: 1;" x1="399.99997580885974" y1="499.3736533664739" x2="440.9311114504348" y2="504.5668064012125"></line><line style="stroke: #aaa; stroke-width: 1;" x1="440.9311114504348" y1="504.5668064012125" x2="484.75636779393943" y2="521.1958402662909"></line><line style="stroke: #aaa; stroke-width: 1;" x1="484.75636779393943" y1="521.1958402662909" x2="536.4872553195531" y2="553.4377737058805"></line><line style="stroke: #aaa; stroke-width: 1;" x1="536.4872553195531" y1="553.4377737058805" x2="607.6842966105348" y2="612.5217646430405"></line><line style="stroke: #aaa; stroke-width: 1;" x1="607.6842966105348" y1="612.5217646430405" x2="780" y2="780"></line><circle r="10" cx="20" cy="20" style="stroke: #000; fill: #69b3a2;"></circle><circle r="10" cx="192.3156550071847" cy="187.47818697467903" style="stroke: #000; fill: #69b3a2;"></circle><circle r="10" cx="263.5126962981664" cy="246.562177911839" style="stroke: #000; fill: #69b3a2;"></circle><circle r="10" cx="315.24358382378006" cy="278.8041113514286" style="stroke: #000; fill: #69b3a2;"></circle><circle r="10" cx="359.06884016728463" cy="295.43314521650706" style="stroke: #000; fill: #69b3a2;"></circle><circle r="10" cx="399.99997580885974" cy="300.6262982512457" style="stroke: #000; fill: #69b3a2;"></circle><circle r="10" cx="440.9311114504348" cy="295.43314521650706" style="stroke: #000; fill: #69b3a2;"></circle><circle r="10" cx="484.75636779393943" cy="278.8041113514286" style="stroke: #000; fill: #69b3a2;"></circle><circle r="10" cx="536.4872553195531" cy="246.562177911839" style="stroke: #000; fill: #69b3a2;"></circle><circle r="10" cx="607.6842966105348" cy="187.47818697467903" style="stroke: #000; fill: #69b3a2;"></circle><circle r="10" cx="780" cy="20" style="stroke: #000; fill: #69b3a2;"></circle><circle r="10" cx="187.47818697467903" cy="192.3156550071847" style="stroke: #000; fill: #69b3a2;"></circle><circle r="10" cx="217.05172288683312" cy="217.05172288683312" style="stroke: #000; fill: #69b3a2;"></circle><circle r="10" cx="273.53647726921395" cy="261.46066743913025" style="stroke: #000; fill: #69b3a2;"></circle><circle r="10" cx="319.41680251450884" cy="288.0177209285011" style="stroke: #000; fill: #69b3a2;"></circle><circle r="10" cx="360.683862880415" cy="302.5483652825429" style="stroke: #000; fill: #69b3a2;"></circle><circle r="10" cx="399.99997580885974" cy="307.16771024743986" style="stroke: #000; fill: #69b3a2;"></circle><circle r="10" cx="439.3160887373045" cy="302.5483652825429" style="stroke: #000; fill: #69b3a2;"></circle><circle r="10" cx="480.5831491032107" cy="288.0177209285011" style="stroke: #000; fill: #69b3a2;"></circle><circle r="10" cx="526.4634743485057" cy="261.46066743913025" style="stroke: #000; fill: #69b3a2;"></circle><circle r="10" cx="582.9482287308864" cy="217.05172288683312" style="stroke: #000; fill: #69b3a2;"></circle><circle r="10" cx="612.5217646430405" cy="192.3156550071847" style="stroke: #000; fill: #69b3a2;"></circle><circle r="10" cx="246.562177911839" cy="263.5126962981664" style="stroke: #000; fill: #69b3a2;"></circle><circle r="10" cx="261.46066743913025" cy="273.53647726921395" style="stroke: #000; fill: #69b3a2;"></circle><circle r="10" cx="291.5464505553548" cy="291.5464505553548" style="stroke: #000; fill: #69b3a2;"></circle><circle r="10" cx="327.74575965013014" cy="308.68621160312665" style="stroke: #000; fill: #69b3a2;"></circle><circle r="10" cx="363.9937094289715" cy="319.0991180467025" style="stroke: #000; fill: #69b3a2;"></circle><circle r="10" cx="399.99997580885974" cy="322.5541266367686" style="stroke: #000; fill: #69b3a2;"></circle><circle r="10" cx="436.006242188748" cy="319.0991180467025" style="stroke: #000; fill: #69b3a2;"></circle><circle r="10" cx="472.2541919675894" cy="308.68621160312665" style="stroke: #000; fill: #69b3a2;"></circle><circle r="10" cx="508.45350106236464" cy="291.5464505553548" style="stroke: #000; fill: #69b3a2;"></circle><circle r="10" cx="538.5392841785892" cy="273.53647726921395" style="stroke: #000; fill: #69b3a2;"></circle><circle r="10" cx="553.4377737058805" cy="263.5126962981664" style="stroke: #000; fill: #69b3a2;"></circle><circle r="10" cx="278.8041113514286" cy="315.24358382378006" style="stroke: #000; fill: #69b3a2;"></circle><circle r="10" cx="288.0177209285011" cy="319.41680251450884" style="stroke: #000; fill: #69b3a2;"></circle><circle r="10" cx="308.68621160312665" cy="327.74575965013014" style="stroke: #000; fill: #69b3a2;"></circle><circle r="10" cx="336.45928219414856" cy="336.45928219414856" style="stroke: #000; fill: #69b3a2;"></circle><circle r="10" cx="367.64480077667884" cy="342.6100486964374" style="stroke: #000; fill: #69b3a2;"></circle><circle r="10" cx="399.99997580885974" cy="344.7509988060318" style="stroke: #000; fill: #69b3a2;"></circle><circle r="10" cx="432.35515084104065" cy="342.6100486964374" style="stroke: #000; fill: #69b3a2;"></circle><circle r="10" cx="463.5406694235709" cy="336.45928219414856" style="stroke: #000; fill: #69b3a2;"></circle><circle r="10" cx="491.31374001459284" cy="327.74575965013014" style="stroke: #000; fill: #69b3a2;"></circle><circle r="10" cx="511.9822306892184" cy="319.41680251450884" style="stroke: #000; fill: #69b3a2;"></circle><circle r="10" cx="521.1958402662909" cy="315.24358382378006" style="stroke: #000; fill: #69b3a2;"></circle><circle r="10" cx="295.43314521650706" cy="359.06884016728463" style="stroke: #000; fill: #69b3a2;"></circle><circle r="10" cx="302.5483652825429" cy="360.683862880415" style="stroke: #000; fill: #69b3a2;"></circle><circle r="10" cx="319.0991180467025" cy="363.9937094289715" style="stroke: #000; fill: #69b3a2;"></circle><circle r="10" cx="342.6100486964374" cy="367.64480077667884" style="stroke: #000; fill: #69b3a2;"></circle><circle r="10" cx="370.3496788171639" cy="370.3496788171639" style="stroke: #000; fill: #69b3a2;"></circle><circle r="10" cx="399.99997580885974" cy="371.3338926588128" style="stroke: #000; fill: #69b3a2;"></circle><circle r="10" cx="429.65027280055557" cy="370.3496788171639" style="stroke: #000; fill: #69b3a2;"></circle><circle r="10" cx="457.38990292128204" cy="367.64480077667884" style="stroke: #000; fill: #69b3a2;"></circle><circle r="10" cx="480.900833571017" cy="363.9937094289715" style="stroke: #000; fill: #69b3a2;"></circle><circle r="10" cx="497.45158633517667" cy="360.683862880415" style="stroke: #000; fill: #69b3a2;"></circle><circle r="10" cx="504.5668064012125" cy="359.06884016728463" style="stroke: #000; fill: #69b3a2;"></circle><circle r="10" cx="300.6262982512457" cy="399.99997580885974" style="stroke: #000; fill: #69b3a2;"></circle><circle r="10" cx="307.16771024743986" cy="399.99997580885974" style="stroke: #000; fill: #69b3a2;"></circle><circle r="10" cx="322.5541266367686" cy="399.99997580885974" style="stroke: #000; fill: #69b3a2;"></circle><circle r="10" cx="344.7509988060318" cy="399.99997580885974" style="stroke: #000; fill: #69b3a2;"></circle><circle r="10" cx="371.3338926588128" cy="399.99997580885974" style="stroke: #000; fill: #69b3a2;"></circle><circle r="10" cx="399.99997580885974" cy="399.99997580885974" style="stroke: #000; fill: #69b3a2;"></circle><circle r="10" cx="428.6660589589067" cy="399.99997580885974" style="stroke: #000; fill: #69b3a2;"></circle><circle r="10" cx="455.2489528116877" cy="399.99997580885974" style="stroke: #000; fill: #69b3a2;"></circle><circle r="10" cx="477.4458249809509" cy="399.99997580885974" style="stroke: #000; fill: #69b3a2;"></circle><circle r="10" cx="492.8322413702797" cy="399.99997580885974" style="stroke: #000; fill: #69b3a2;"></circle><circle r="10" cx="499.3736533664739" cy="399.99997580885974" style="stroke: #000; fill: #69b3a2;"></circle><circle r="10" cx="295.43314521650706" cy="440.9311114504348" style="stroke: #000; fill: #69b3a2;"></circle><circle r="10" cx="302.5483652825429" cy="439.3160887373045" style="stroke: #000; fill: #69b3a2;"></circle><circle r="10" cx="319.0991180467025" cy="436.006242188748" style="stroke: #000; fill: #69b3a2;"></circle><circle r="10" cx="342.6100486964374" cy="432.35515084104065" style="stroke: #000; fill: #69b3a2;"></circle><circle r="10" cx="370.3496788171639" cy="429.65027280055557" style="stroke: #000; fill: #69b3a2;"></circle><circle r="10" cx="399.99997580885974" cy="428.6660589589067" style="stroke: #000; fill: #69b3a2;"></circle><circle r="10" cx="429.65027280055557" cy="429.65027280055557" style="stroke: #000; fill: #69b3a2;"></circle><circle r="10" cx="457.38990292128204" cy="432.35515084104065" style="stroke: #000; fill: #69b3a2;"></circle><circle r="10" cx="480.900833571017" cy="436.006242188748" style="stroke: #000; fill: #69b3a2;"></circle><circle r="10" cx="497.45158633517667" cy="439.3160887373045" style="stroke: #000; fill: #69b3a2;"></circle><circle r="10" cx="504.5668064012125" cy="440.9311114504348" style="stroke: #000; fill: #69b3a2;"></circle><circle r="10" cx="278.8041113514286" cy="484.75636779393943" style="stroke: #000; fill: #69b3a2;"></circle><circle r="10" cx="288.0177209285011" cy="480.5831491032107" style="stroke: #000; fill: #69b3a2;"></circle><circle r="10" cx="308.68621160312665" cy="472.2541919675894" style="stroke: #000; fill: #69b3a2;"></circle><circle r="10" cx="336.45928219414856" cy="463.5406694235709" style="stroke: #000; fill: #69b3a2;"></circle><circle r="10" cx="367.64480077667884" cy="457.38990292128204" style="stroke: #000; fill: #69b3a2;"></circle><circle r="10" cx="399.99997580885974" cy="455.2489528116877" style="stroke: #000; fill: #69b3a2;"></circle><circle r="10" cx="432.35515084104065" cy="457.38990292128204" style="stroke: #000; fill: #69b3a2;"></circle><circle r="10" cx="463.5406694235709" cy="463.5406694235709" style="stroke: #000; fill: #69b3a2;"></circle><circle r="10" cx="491.31374001459284" cy="472.2541919675894" style="stroke: #000; fill: #69b3a2;"></circle><circle r="10" cx="511.9822306892184" cy="480.5831491032107" style="stroke: #000; fill: #69b3a2;"></circle><circle r="10" cx="521.1958402662909" cy="484.75636779393943" style="stroke: #000; fill: #69b3a2;"></circle><circle r="10" cx="246.562177911839" cy="536.4872553195531" style="stroke: #000; fill: #69b3a2;"></circle><circle r="10" cx="261.46066743913025" cy="526.4634743485057" style="stroke: #000; fill: #69b3a2;"></circle><circle r="10" cx="291.5464505553548" cy="508.45350106236464" style="stroke: #000; fill: #69b3a2;"></circle><circle r="10" cx="327.74575965013014" cy="491.31374001459284" style="stroke: #000; fill: #69b3a2;"></circle><circle r="10" cx="363.9937094289715" cy="480.900833571017" style="stroke: #000; fill: #69b3a2;"></circle><circle r="10" cx="399.99997580885974" cy="477.4458249809509" style="stroke: #000; fill: #69b3a2;"></circle><circle r="10" cx="436.006242188748" cy="480.900833571017" style="stroke: #000; fill: #69b3a2;"></circle><circle r="10" cx="472.2541919675894" cy="491.31374001459284" style="stroke: #000; fill: #69b3a2;"></circle><circle r="10" cx="508.45350106236464" cy="508.45350106236464" style="stroke: #000; fill: #69b3a2;"></circle><circle r="10" cx="538.5392841785892" cy="526.4634743485057" style="stroke: #000; fill: #69b3a2;"></circle><circle r="10" cx="553.4377737058805" cy="536.4872553195531" style="stroke: #000; fill: #69b3a2;"></circle><circle r="10" cx="187.47818697467903" cy="607.6842966105348" style="stroke: #000; fill: #69b3a2;"></circle><circle r="10" cx="217.05172288683312" cy="582.9482287308864" style="stroke: #000; fill: #69b3a2;"></circle><circle r="10" cx="273.53647726921395" cy="538.5392841785892" style="stroke: #000; fill: #69b3a2;"></circle><circle r="10" cx="319.41680251450884" cy="511.9822306892184" style="stroke: #000; fill: #69b3a2;"></circle><circle r="10" cx="360.683862880415" cy="497.45158633517667" style="stroke: #000; fill: #69b3a2;"></circle><circle r="10" cx="399.99997580885974" cy="492.8322413702797" style="stroke: #000; fill: #69b3a2;"></circle><circle r="10" cx="439.3160887373045" cy="497.45158633517667" style="stroke: #000; fill: #69b3a2;"></circle><circle r="10" cx="480.5831491032107" cy="511.9822306892184" style="stroke: #000; fill: #69b3a2;"></circle><circle r="10" cx="526.4634743485057" cy="538.5392841785892" style="stroke: #000; fill: #69b3a2;"></circle><circle r="10" cx="582.9482287308864" cy="582.9482287308864" style="stroke: #000; fill: #69b3a2;"></circle><circle r="10" cx="612.5217646430405" cy="607.6842966105348" style="stroke: #000; fill: #69b3a2;"></circle><circle r="10" cx="20" cy="780" style="stroke: #000; fill: #69b3a2;"></circle><circle r="10" cx="192.3156550071847" cy="612.5217646430405" style="stroke: #000; fill: #69b3a2;"></circle><circle r="10" cx="263.5126962981664" cy="553.4377737058805" style="stroke: #000; fill: #69b3a2;"></circle><circle r="10" cx="315.24358382378006" cy="521.1958402662909" style="stroke: #000; fill: #69b3a2;"></circle><circle r="10" cx="359.06884016728463" cy="504.5668064012125" style="stroke: #000; fill: #69b3a2;"></circle><circle r="10" cx="399.99997580885974" cy="499.3736533664739" style="stroke: #000; fill: #69b3a2;"></circle><circle r="10" cx="440.9311114504348" cy="504.5668064012125" style="stroke: #000; fill: #69b3a2;"></circle><circle r="10" cx="484.75636779393943" cy="521.1958402662909" style="stroke: #000; fill: #69b3a2;"></circle><circle r="10" cx="536.4872553195531" cy="553.4377737058805" style="stroke: #000; fill: #69b3a2;"></circle><circle r="10" cx="607.6842966105348" cy="612.5217646430405" style="stroke: #000; fill: #69b3a2;"></circle><circle r="10" cx="780" cy="780" style="stroke: #000; fill: #69b3a2;"></circle></svg>