<svg width="800" height="800" xmlns="http://www.w3.org/2000/svg"><line style="stroke: #aaa; stroke-width: 1;" x1="20" y1="20" x2="243.23336789229356" y2="221.1002754614032"></line><line style="stroke: #aaa; stroke-width: 1;" x1="20" y1="20" x2="221.1002754614032" y2="243.23336789229356"></line><line style="stroke: #aaa; stroke-width: 1.41421;" x1="20" y1="20" x2="266.5186397107682" y2="266.5186397107682"></line><line style="stroke: #aaa; stroke-width: 1.41421;" x1="243.23336789229356" y1="221.1002754614032" x2="221.1002754614032" y2="243.23336789229356"></line><line style="stroke: #aaa; stroke-width: 1;" x1="243.23336789229356" y1="221.1002754614032" x2="351.62487178312256" y2="273.18699191833065"></line><line style="stroke: #aaa; stroke-width: 1;" x1="243.23336789229356" y1="221.1002754614032" x2="266.5186397107682" y2="266.5186397107682"></line><line style="stroke: #aaa; stroke-width: 1.41421;" x1="243.23336789229356" y1="221.1002754614032" x2="356.9236809455485" y2="302.5645262505755"></line><line style="stroke: #aaa; stroke-width: 1.41421;" x1="351.62487178312256" y1="273.18699191833065" x2="266.5186397107682" y2="266.5186397107682"></line><line style="stroke: #aaa; stroke-width: 1;" x1="351.62487178312256" y1="273.18699191833065" x2="448.3744997775028" y2="273.18699191833065"></line><line style="stroke: #aaa; stroke-width: 1;" x1="351.62487178312256" y1="273.18699191833065" x2="356.9236809455485" y2="302.5645262505755"></line><line style="stroke: #aaa; stroke-width: 1.41421;" x1="351.62487178312256" y1="273.18699191833065" x2="443.07569061507695" y2="302.5645262505755"></line><line style="stroke: #aaa; stroke-width: 1.41421;" x1="448.3744997775028" y1="273.18699191833065" x2="356.9236809455485" y2="302.5645262505755"></line><line style="stroke: #aaa; stroke-width: 1;" x1="448.3744997775028" y1="273.18699191833065" x2="556.7660036683319" y2="221.1002754614032"></line><line style="stroke: #aaa; stroke-width: 1;" x1="448.3744997775028" y1="273.18699191833065" x2="443.07569061507695" y2="302.5645262505755"></line><line style="stroke: #aaa; stroke-width: 1.41421;" x1="448.3744997775028" y1="273.18699191833065" x2="533.4807318498572" y2="266.5186397107682"></line><line style="stroke: #aaa; stroke-width: 1.41421;" x1="556.7660036683319" y1="221.1002754614032" x2="443.07569061507695" y2="302.5645262505755"></line><line style="stroke: #aaa; stroke-width: 1;" x1="556.7660036683319" y1="221.1002754614032" x2="780" y2="20"></line><line style="stroke: #aaa; stroke-width: 1;" x1="556.7660036683319" y1="221.1002754614032" x2="533.4807318498572" y2="266.5186397107682"></line><line style="stroke: #aaa; stroke-width: 1.41421;" x1="556.7660036683319" y1="221.1002754614032" x2="578.8990960992222" y2="243.23336789229356"></line><line style="stroke: #aaa; stroke-width: 1.41421;" x1="780" y1="20" x2="533.4807318498572" y2="266.5186397107682"></line><line style="stroke: #aaa; stroke-width: 1;" x1="221.1002754614032" y1="243.23336789229356" x2="266.5186397107682" y2="266.5186397107682"></line><line style="stroke: #aaa; stroke-width: 1;" x1="221.1002754614032" y1="243.23336789229356" x2="273.18699191833065" y2="351.62487178312256"></line><line style="stroke: #aaa; stroke-width: 1.41421;" x1="221.1002754614032" y1="243.23336789229356" x2="302.5645262505755" y2="356.9236809455485"></line><line style="stroke: #aaa; stroke-width: 1.41421;" x1="266.5186397107682" y1="266.5186397107682" x2="273.18699191833065" y2="351.62487178312256"></line><line style="stroke: #aaa; stroke-width: 1;" x1="266.5186397107682" y1="266.5186397107682" x2="356.9236809455485" y2="302.5645262505755"></line><line style="stroke: #aaa; stroke-width: 1;" x1="266.5186397107682" y1="266.5186397107682" x2="302.5645262505755" y2="356.9236809455485"></line><line style="stroke: #aaa; stroke-width: 1.41421;" x1="266.5186397107682" y1="266.5186397107682" x2="363.5160318742465" y2="363.5160318742465"></line><line style="stroke: #aaa; stroke-width: 1.41421;" x1="356.9236809455485" y1="302.5645262505755" x2="302.5645262505755" y2="356.9236809455485"></line><line style="stroke: #aaa; stroke-width: 1;" x1="356.9236809455485" y1="302.5645262505755" x2="443.07569061507695" y2="302.5645262505755"></line><line style="stroke: #aaa; stroke-width: 1;" x1="356.9236809455485" y1="302.5645262505755" x2="363.5160318742465" y2="363.5160318742465"></line><line style="stroke: #aaa; stroke-width: 1.41421;" x1="356.9236809455485" y1="302.5645262505755" x2="436.4833396863789" y2="363.5160318742465"></line><line style="stroke: #aaa; stroke-width: 1.41421;" x1="443.07569061507695" y1="302.5645262505755" x2="363.5160318742465" y2="363.5160318742465"></line><line style="stroke: #aaa; stroke-width: 1;" x1="443.07569061507695" y1="302.5645262505755" x2="533.4807318498572" y2="266.5186397107682"></line><line style="stroke: #aaa; stroke-width: 1;" x1="443.07569061507695" y1="302.5645262505755" x2="436.4833396863789" y2="363.5160318742465"></line><line style="stroke: #aaa; stroke-width: 1.41421;" x1="443.07569061507695" y1="302.5645262505755" x2="497.43484531005" y2="356.9236809455485"></line><line style="stroke: #aaa; stroke-width: 1.41421;" x1="533.4807318498572" y1="266.5186397107682" x2="436.4833396863789" y2="363.5160318742465"></line><line style="stroke: #aaa; stroke-width: 1;" x1="533.4807318498572" y1="266.5186397107682" x2="578.8990960992222" y2="243.23336789229356"></line><line style="stroke: #aaa; stroke-width: 1;" x1="533.4807318498572" y1="266.5186397107682" x2="497.43484531005" y2="356.9236809455485"></line><line style="stroke: #aaa; stroke-width: 1.41421;" x1="533.4807318498572" y1="266.5186397107682" x2="526.8123796422949" y2="351.62487178312256"></line><line style="stroke: #aaa; stroke-width: 1.41421;" x1="578.8990960992222" y1="243.23336789229356" x2="497.43484531005" y2="356.9236809455485"></line><line style="stroke: #aaa; stroke-width: 1;" x1="273.18699191833065" y1="351.62487178312256" x2="302.5645262505755" y2="356.9236809455485"></line><line style="stroke: #aaa; stroke-width: 1;" x1="273.18699191833065" y1="351.62487178312256" x2="273.18699191833065" y2="448.3744997775028"></line><line style="stroke: #aaa; stroke-width: 1.41421;" x1="273.18699191833065" y1="351.62487178312256" x2="302.5645262505755" y2="443.07569061507695"></line><line style="stroke: #aaa; stroke-width: 1.41421;" x1="302.5645262505755" y1="356.9236809455485" x2="273.18699191833065" y2="448.3744997775028"></line><line style="stroke: #aaa; stroke-width: 1;" x1="302.5645262505755" y1="356.9236809455485" x2="363.5160318742465" y2="363.5160318742465"></line><line style="stroke: #aaa; stroke-width: 1;" x1="302.5645262505755" y1="356.9236809455485" x2="302.5645262505755" y2="443.07569061507695"></line><line style="stroke: #aaa; stroke-width: 1.41421;" x1="302.5645262505755" y1="356.9236809455485" x2="363.5160318742465" y2="436.4833396863789"></line><line style="stroke: #aaa; stroke-width: 1.41421;" x1="363.5160318742465" y1="363.5160318742465" x2="302.5645262505755" y2="443.07569061507695"></line><line style="stroke: #aaa; stroke-width: 1;" x1="363.5160318742465" y1="363.5160318742465" x2="436.4833396863789" y2="363.5160318742465"></line><line style="stroke: #aaa; stroke-width: 1;" x1="363.5160318742465" y1="363.5160318742465" x2="363.5160318742465" y2="436.4833396863789"></line><line style="stroke: #aaa; stroke-width: 1.41421;" x1="363.5160318742465" y1="363.5160318742465" x2="436.4833396863789" y2="436.4833396863789"></line><line style="stroke: #aaa; stroke-width: 1.41421;" x1="436.4833396863789" y1="363.5160318742465" x2="363.5160318742465" y2="436.4833396863789"></line><line style="stroke: #aaa; stroke-width: 1;" x1="436.4833396863789" y1="363.5160318742465" x2="497.43484531005" y2="356.9236809455485"></line><line style="stroke: #aaa; stroke-width: 1;" x1="436.4833396863789" y1="363.5160318742465" x2="436.4833396863789" y2="436.4833396863789"></line><line style="stroke: #aaa; stroke-width: 1.41421;" x1="436.4833396863789" y1="363.5160318742465" x2="497.43484531005" y2="443.07569061507695"></line><line style="stroke: #aaa; stroke-width: 1.41421;" x1="497.43484531005" y1="356.9236809455485" x2="436.4833396863789" y2="436.4833396863789"></line><line style="stroke: #aaa; stroke-width: 1;" x1="497.43484531005" y1="356.9236809455485" x2="526.8123796422949" y2="351.62487178312256"></line><line style="stroke: #aaa; stroke-width: 1;" x1="497.43484531005" y1="356.9236809455485" x2="497.43484531005" y2="443.07569061507695"></line><line style="stroke: #aaa; stroke-width: 1.41421;" x1="497.43484531005" y1="356.9236809455485" x2="526.8123796422949" y2="448.3744997775028"></line><line style="stroke: #aaa; stroke-width: 1.41421;" x1="526.8123796422949" y1="351.62487178312256" x2="497.43484531005" y2="443.07569061507695"></line><line style="stroke: #aaa; stroke-width: 1;" x1="273.18699191833065" y1="448.3744997775028" x2="302.5645262505755" y2="443.07569061507695"></line><line style="stroke: #aaa; stroke-width: 1;" x1="273.18699191833065" y1="448.3744997775028" x2="221.1002754614032" y2="556.7660036683319"></line><line style="stroke: #aaa; stroke-width: 1.41421;" x1="273.18699191833065" y1="448.3744997775028" x2="266.5186397107682" y2="533.4807318498572"></line><line style="stroke: #aaa; stroke-width: 1.41421;" x1="302.5645262505755" y1="443.07569061507695" x2="221.1002754614032" y2="556.7660036683319"></line><line style="stroke: #aaa; stroke-width: 1;" x1="302.5645262505755" y1="443.07569061507695" x2="363.5160318742465" y2="436.4833396863789"></line><line style="stroke: #aaa; stroke-width: 1;" x1="302.5645262505755" y1="443.07569061507695" x2="266.5186397107682" y2="533.4807318498572"></line><line style="stroke: #aaa; stroke-width: 1.41421;" x1="302.5645262505755" y1="443.07569061507695" x2="356.9236809455485" y2="497.43484531005"></line><line style="stroke: #aaa; stroke-width: 1.41421;" x1="363.5160318742465" y1="436.4833396863789" x2="266.5186397107682" y2="533.4807318498572"></line><line style="stroke: #aaa; stroke-width: 1;" x1="363.5160318742465" y1="436.4833396863789" x2="436.4833396863789" y2="436.4833396863789"></line><line style="stroke: #aaa; stroke-width: 1;" x1="363.5160318742465" y1="436.4833396863789" x2="356.9236809455485" y2="497.43484531005"></line><line style="stroke: #aaa; stroke-width: 1.41421;" x1="363.5160318742465" y1="436.4833396863789" x2="443.07569061507695" y2="497.43484531005"></line><line style="stroke: #aaa; stroke-width: 1.41421;" x1="436.4833396863789" y1="436.4833396863789" x2="356.9236809455485" y2="497.43484531005"></line><line style="stroke: #aaa; stroke-width: 1;" x1="436.4833396863789" y1="436.4833396863789" x2="497.43484531005" y2="443.07569061507695"></line><line style="stroke: #aaa; stroke-width: 1;" x1="436.4833396863789" y1="436.4833396863789" x2="443.07569061507695" y2="497.43484531005"></line><line style="stroke: #aaa; stroke-width: 1.41421;" x1="436.4833396863789" y1="436.4833396863789" x2="533.4807318498572" y2="533.4807318498572"></line><line style="stroke: #aaa; stroke-width: 1.41421;" x1="497.43484531005" y1="443.07569061507695" x2="443.07569061507695" y2="497.43484531005"></line><line style="stroke: #aaa; stroke-width: 1;" x1="497.43484531005" y1="443.07569061507695" x2="526.8123796422949" y2="448.3744997775028"></line><line style="stroke: #aaa; stroke-width: 1;" x1="497.43484531005" y1="443.07569061507695" x2="533.4807318498572" y2="533.4807318498572"></line><line style="stroke: #aaa; stroke-width: 1.41421;" x1="497.43484531005" y1="443.07569061507695" x2="578.8990960992222" y2="556.7660036683319"></line><line style="stroke: #aaa; stroke-width: 1.41421;" x1="526.8123796422949" y1="448.3744997775028" x2="533.4807318498572" y2="533.4807318498572"></line><line style="stroke: #aaa; stroke-width: 1;" x1="221.1002754614032" y1="556.7660036683319" x2="266.5186397107682" y2="533.4807318498572"></line><line style="stroke: #aaa; stroke-width: 1;" x1="221.1002754614032" y1="556.7660036683319" x2="20" y2="780"></line><line style="stroke: #aaa; stroke-width: 1.41421;" x1="221.1002754614032" y1="556.7660036683319" x2="243.23336789229356" y2="578.8990960992222"></line><line style="stroke: #aaa; stroke-width: 1.41421;" x1="266.5186397107682" y1="533.4807318498572" x2="20" y2="780"></line><line style="stroke: #aaa; stroke-width: 1;" x1="266.5186397107682" y1="533.4807318498572" x2="356.9236809455485" y2="497.43484531005"></line><line style="stroke: #aaa; stroke-width: 1;" x1="266.5186397107682" y1="533.4807318498572" x2="243.23336789229356" y2="578.8990960992222"></line><line style="stroke: #aaa; stroke-width: 1.41421;" x1="266.5186397107682" y1="533.4807318498572" x2="351.62487178312256" y2="526.8123796422949"></line><line style="stroke: #aaa; stroke-width: 1.41421;" x1="356.9236809455485" y1="497.43484531005" x2="243.23336789229356" y2="578.8990960992222"></line><line style="stroke: #aaa; stroke-width: 1;" x1="356.9236809455485" y1="497.43484531005" x2="443.07569061507695" y2="497.43484531005"></line><line style="stroke: #aaa; stroke-width: 1;" x1="356.9236809455485" y1="497.43484531005" x2="351.62487178312256" y2="526.8123796422949"></line><line style="stroke: #aaa; stroke-width: 1.41421;" x1="356.9236809455485" y1="497.43484531005" x2="448.3744997775028" y2="526.8123796422949"></line><line style="stroke: #aaa; stroke-width: 1.41421;" x1="443.07569061507695" y1="497.43484531005" x2="351.62487178312256" y2="526.8123796422949"></line><line style="stroke: #aaa; stroke-width: 1;" x1="443.07569061507695" y1="497.43484531005" x2="533.4807318498572" y2="533.4807318498572"></line><line style="stroke: #aaa; stroke-width: 1;" x1="443.07569061507695" y1="497.43484531005" x2="448.3744997775028" y2="526.8123796422949"></line><line style="stroke: #aaa; stroke-width: 1.41421;" x1="443.07569061507695" y1="497.43484531005" x2="556.7660036683319" y2="578.8990960992222"></line><line style="stroke: #aaa; stroke-width: 1.41421;" x1="533.4807318498572" y1="533.4807318498572" x2="448.3744997775028" y2="526.8123796422949"></line><line style="stroke: #aaa; stroke-width: 1;" x1="533.4807318498572" y1="533.4807318498572" x2="578.8990960992222" y2="556.7660036683319"></line><line style="stroke: #aaa; stroke-width: 1;" x1="533.4807318498572" y1="533.4807318498572" x2="556.7660036683319" y2="578.8990960992222"></line><line style="stroke: #aaa; stroke-width: 1.41421;" x1="533.4807318498572" y1="533.4807318498572" x2="780" y2="780"></line><line style="stroke: #aaa; stroke-width: 1.41421;" x1="578.8990960992222" y1="556.7660036683319" x2="556.7660036683319" y2="578.8990960992222"></line><line style="stroke: #aaa; stroke-width: 1;" x1="780" y1="20" x2="578.8990960992222" y2="243.23336789229356"></line><line style="stroke: #aaa; stroke-width: 1;" x1="578.8990960992222" y1="243.23336789229356" x2="526.8123796422949" y2="351.62487178312256"></line><line style="stroke: #aaa; stroke-width: 1;" x1="526.8123796422949" y1="351.62487178312256" x2="526.8123796422949" y2="448.3744997775028"></line><line style="stroke: #aaa; stroke-width: 1;" x1="526.8123796422949" y1="448.3744997775028" x2="578.8990960992222" y2="556.7660036683319"></line><line style="stroke: #aaa; stroke-width: 1;" x1="578.8990960992222" y1="556.7660036683319" x2="780" y2="780"></line><line style="stroke: #aaa; stroke-width: 1;" x1="20" y1="780" x2="243.23336789229356" y2="578.8990960992222"></line><line style="stroke: #aaa; stroke-width: 1;" x1="243.23336789229356" y1="578.8990960992222" x2="351.62487178312256" y2="526.8123796422949"></line><line style="stroke: #aaa; stroke-width: 1;" x1="351.62487178312256" y1="526.8123796422949" x2="448.3744997775028" y2="526.8123796422949"></line><line style="stroke: #aaa; stroke-width: 1;" x1="448.3744997775028" y1="526.8123796422949" x2="556.7660036683319" y2="578.8990960992222"></line><line style="stroke: #aaa; stroke-width: 1;" x1="556.7660036683319" y1="578.8990960992222" x2="780" y2="780"></line><circle r="10" cx="20" cy="20" style="stroke: #000; fill: #69b3a2;"></circle><circle r="10" cx="243.23336789229356" cy="221.1002754614032" style="stroke: #000; fill: #69b3a2;"></circle><circle r="10" cx="351.62487178312256" cy="273.18699191833065" style="stroke: #000; fill: #69b3a2;"></circle><circle r="10" cx="448.3744997775028" cy="273.18699191833065" style="stroke: #000; fill: #69b3a2;"></circle><circle r="10" cx="556.7660036683319" cy="221.1002754614032" style="stroke: #000; fill: #69b3a2;"></circle><circle r="10" cx="780" cy="20" style="stroke: #000; fill: #69b3a2;"></circle><circle r="10" cx="221.1002754614032" cy="243.23336789229356" style="stroke: #000; fill: #69b3a2;"></circle><circle r="10" cx="266.5186397107682" cy="266.5186397107682" style="stroke: #000; fill: #69b3a2;"></circle><circle r="10" cx="356.9236809455485" cy="302.5645262505755" style="stroke: #000; fill: #69b3a2;"></circle><circle r="10" cx="443.07569061507695" cy="302.5645262505755" style="stroke: #000; fill: #69b3a2;"></circle><circle r="10" cx="533.4807318498572" cy="266.5186397107682" style="stroke: #000; fill: #69b3a2;"></circle><circle r="10" cx="578.8990960992222" cy="243.23336789229356" style="stroke: #000; fill: #69b3a2;"></circle><circle r="10" cx="273.18699191833065" cy="351.62487178312256" style="stroke: #000; fill: #69b3a2;"></circle><circle r="10" cx="302.5645262505755" cy="356.9236809455485" style="stroke: #000; fill: #69b3a2;"></circle><circle r="10" cx="363.5160318742465" cy="363.5160318742465" style="stroke: #000; fill: #69b3a2;"></circle><circle r="10" cx="436.4833396863789" cy="363.5160318742465" style="stroke: #000; fill: #69b3a2;"></circle><circle r="10" cx="497.43484531005" cy="356.9236809455485" style="stroke: #000; fill: #69b3a2;"></circle><circle r="10" cx="526.8123796422949" cy="351.62487178312256" style="stroke: #000; fill: #69b3a2;"></circle><circle r="10" cx="273.18699191833065" cy="448.3744997775028" style="stroke: #000; fill: #69b3a2;"></circle><circle r="10" cx="302.5645262505755" cy="443.07569061507695" style="stroke: #000; fill: #69b3a2;"></circle><circle r="10" cx="363.5160318742465" cy="436.4833396863789" style="stroke: #000; fill: #69b3a2;"></circle><circle r="10" cx="436.4833396863789" cy="436.4833396863789" style="stroke: #000; fill: #69b3a2;"></circle><circle r="10" cx="497.43484531005" cy="443.07569061507695" style="stroke: #000; fill: #69b3a2;"></circle><circle r="10" cx="526.8123796422949" cy="448.3744997775028" style="stroke: #000; fill: #69b3a2;"></circle><circle r="10" cx="221.1002754614032" cy="556.7660036683319" style="stroke: #000; fill: #69b3a2;"></circle><circle r="10" cx="266.5186397107682" cy="533.4807318498572" style="stroke: #000; fill: #69b3a2;"></circle><circle r="10" cx="356.9236809455485" cy="497.43484531005" style="stroke: #000; fill: #69b3a2;"></circle><circle r="10" cx="443.07569061507695" cy="497.43484531005" style="stroke: #000; fill: #69b3a2;"></circle><circle r="10" cx="533.4807318498572" cy="533.4807318498572" style="stroke: #000; fill: #69b3a2;"></circle><circle r="10" cx="578.8990960992222" cy="556.7660036683319" style="stroke: #000; fill: #69b3a2;"></circle><circle r="10" cx="20" cy="780" style="stroke: #000; fill: #69b3a2;"></circle><circle r="10" cx="243.23336789229356" cy="578.8990960992222" style="stroke: #000; fill: #69b3a2;"></circle><circle r="10" cx="351.62487178312256" cy="526.8123796422949" style="stroke: #000; fill: #69b3a2;"></circle><circle r="10" cx="448.3744997775028" cy="526.8123796422949" style="stroke: #000; fill: #69b3a2;"></circle><circle r="10" cx="556.7660036683319" cy="578.8990960992222" style="stroke: #000; fill: #69b3a2;"></circle><circle r="10" cx="780" cy="780" style="stroke: #000; fill: #69b3a2;"></circle></svg>