<svg width="800" height="800" xmlns="http://www.w3.org/2000/svg"><line style="stroke: #aaa; stroke-width: 1;" x1="20.000050373504923" y1="20" x2="167.99003556927835" y2="161.73742807066418"></line><line style="stroke: #aaa; stroke-width: 1;" x1="20.000050373504923" y1="20" x2="163.15256787404567" y2="166.57565577653241"></line><line style="stroke: #aaa; stroke-width: 1.41421;" x1="20.000050373504923" y1="20" x2="189.1365714926333" y2="187.51318877511295"></line><line style="stroke: #aaa; stroke-width: 1.41421;" x1="167.99003556927835" y1="161.73742807066418" x2="163.15256787404567" y2="166.57565577653241"></line><line style="stroke: #aaa; stroke-width: 1;" x1="167.99003556927835" y1="161.73742807066418" x2="230.33978808797414" y2="211.46112390108024"></line><line style="stroke: #aaa; stroke-width: 1;" x1="167.99003556927835" y1="161.73742807066418" x2="189.1365714926333" y2="187.51318877511295"></line><line style="stroke: #aaa; stroke-width: 1.41421;" x1="167.99003556927835" y1="161.73742807066418" x2="238.97958899282963" y2="224.89355187367136"></line><line style="stroke: #aaa; stroke-width: 1.41421;" x1="230.33978808797414" y1="211.46112390108024" x2="189.1365714926333" y2="187.51318877511295"></line><line style="stroke: #aaa; stroke-width: 1;" x1="230.33978808797414" y1="211.46112390108024" x2="277.0994424397715" y2="238.44226147350057"></line><line style="stroke: #aaa; stroke-width: 1;" x1="230.33978808797414" y1="211.46112390108024" x2="238.97958899282963" y2="224.89355187367136"></line><line style="stroke: #aaa; stroke-width: 1.41421;" x1="230.33978808797414" y1="211.46112390108024" x2="280.75585360737006" y2="247.1094227612356"></line><line style="stroke: #aaa; stroke-width: 1.41421;" x1="277.0994424397715" y1="238.44226147350057" x2="238.97958899282963" y2="224.89355187367136"></line><line style="stroke: #aaa; stroke-width: 1;" x1="277.0994424397715" y1="238.44226147350057" x2="318.2988589819347" y2="252.29269529564044"></line><line style="stroke: #aaa; stroke-width: 1;" x1="277.0994424397715" y1="238.44226147350057" x2="280.75585360737006" y2="247.1094227612356"></line><line style="stroke: #aaa; stroke-width: 1.41421;" x1="277.0994424397715" y1="238.44226147350057" x2="319.72159889167165" y2="259.20499202590617"></line><line style="stroke: #aaa; stroke-width: 1.41421;" x1="318.2988589819347" y1="252.29269529564044" x2="280.75585360737006" y2="247.1094227612356"></line><line style="stroke: #aaa; stroke-width: 1;" x1="318.2988589819347" y1="252.29269529564044" x2="358.3993001451023" y2="256.60727567361937"></line><line style="stroke: #aaa; stroke-width: 1;" x1="318.2988589819347" y1="252.29269529564044" x2="319.72159889167165" y2="259.20499202590617"></line><line style="stroke: #aaa; stroke-width: 1.41421;" x1="318.2988589819347" y1="252.29269529564044" x2="358.29593869866846" y2="263.0400056928573"></line><line style="stroke: #aaa; stroke-width: 1.41421;" x1="358.3993001451023" y1="256.60727567361937" x2="319.72159889167165" y2="259.20499202590617"></line><line style="stroke: #aaa; stroke-width: 1;" x1="358.3993001451023" y1="256.60727567361937" x2="400.1611245575674" y2="252.29269529564044"></line><line style="stroke: #aaa; stroke-width: 1;" x1="358.3993001451023" y1="256.60727567361937" x2="358.29593869866846" y2="263.0400056928573"></line><line style="stroke: #aaa; stroke-width: 1.41421;" x1="358.3993001451023" y1="256.60727567361937" x2="398.3538192662456" y2="259.20499202590617"></line><line style="stroke: #aaa; stroke-width: 1.41421;" x1="400.1611245575674" y1="252.29269529564044" x2="358.29593869866846" y2="263.0400056928573"></line><line style="stroke: #aaa; stroke-width: 1;" x1="400.1611245575674" y1="252.29269529564044" x2="446.6106945700632" y2="238.44226147350057"></line><line style="stroke: #aaa; stroke-width: 1;" x1="400.1611245575674" y1="252.29269529564044" x2="398.3538192662456" y2="259.20499202590617"></line><line style="stroke: #aaa; stroke-width: 1.41421;" x1="400.1611245575674" y1="252.29269529564044" x2="441.92218895939703" y2="247.1094227612356"></line><line style="stroke: #aaa; stroke-width: 1.41421;" x1="446.6106945700632" y1="238.44226147350057" x2="398.3538192662456" y2="259.20499202590617"></line><line style="stroke: #aaa; stroke-width: 1;" x1="446.6106945700632" y1="238.44226147350057" x2="503.3135680666727" y2="211.46112390108024"></line><line style="stroke: #aaa; stroke-width: 1;" x1="446.6106945700632" y1="238.44226147350057" x2="441.92218895939703" y2="247.1094227612356"></line><line style="stroke: #aaa; stroke-width: 1.41421;" x1="446.6106945700632" y1="238.44226147350057" x2="491.9050484165333" y2="224.89355187367136"></line><line style="stroke: #aaa; stroke-width: 1.41421;" x1="503.3135680666727" y1="211.46112390108024" x2="441.92218895939703" y2="247.1094227612356"></line><line style="stroke: #aaa; stroke-width: 1;" x1="503.3135680666727" y1="211.46112390108024" x2="583.3571281914506" y2="161.73818808129974"></line><line style="stroke: #aaa; stroke-width: 1;" x1="503.3135680666727" y1="211.46112390108024" x2="491.9050484165333" y2="224.89355187367136"></line><line style="stroke: #aaa; stroke-width: 1.41421;" x1="503.3135680666727" y1="211.46112390108024" x2="555.0322918153897" y2="187.51318877511295"></line><line style="stroke: #aaa; stroke-width: 1.41421;" x1="583.3571281914506" y1="161.73818808129974" x2="491.9050484165333" y2="224.89355187367136"></line><line style="stroke: #aaa; stroke-width: 1;" x1="583.3571281914506" y1="161.73818808129974" x2="780" y2="20.000003959655412"></line><line style="stroke: #aaa; stroke-width: 1;" x1="583.3571281914506" y1="161.73818808129974" x2="555.0322918153897" y2="187.51318877511295"></line><line style="stroke: #aaa; stroke-width: 1.41421;" x1="583.3571281914506" y1="161.73818808129974" x2="588.1953558973187" y2="166.57565577653241"></line><line style="stroke: #aaa; stroke-width: 1.41421;" x1="780" y1="20.000003959655412" x2="555.0322918153897" y2="187.51318877511295"></line><line style="stroke: #aaa; stroke-width: 1;" x1="163.15256787404567" y1="166.57565577653241" x2="189.1365714926333" y2="187.51318877511295"></line><line style="stroke: #aaa; stroke-width: 1;" x1="163.15256787404567" y1="166.57565577653241" x2="213.39003089408897" y2="228.41088109496542"></line><line style="stroke: #aaa; stroke-width: 1.41421;" x1="163.15256787404567" y1="166.57565577653241" x2="226.90301999404767" y2="236.9693608618178"></line><line style="stroke: #aaa; stroke-width: 1.41421;" x1="189.1365714926333" y1="187.51318877511295" x2="213.39003089408897" y2="228.41088109496542"></line><line style="stroke: #aaa; stroke-width: 1;" x1="189.1365714926333" y1="187.51318877511295" x2="238.97958899282963" y2="224.89355187367136"></line><line style="stroke: #aaa; stroke-width: 1;" x1="189.1365714926333" y1="187.51318877511295" x2="226.90301999404767" y2="236.9693608618178"></line><line style="stroke: #aaa; stroke-width: 1.41421;" x1="189.1365714926333" y1="187.51318877511295" x2="254.2383225226311" y2="252.0677321475196"></line><line style="stroke: #aaa; stroke-width: 1.41421;" x1="238.97958899282963" y1="224.89355187367136" x2="226.90301999404767" y2="236.9693608618178"></line><line style="stroke: #aaa; stroke-width: 1;" x1="238.97958899282963" y1="224.89355187367136" x2="280.75585360737006" y2="247.1094227612356"></line><line style="stroke: #aaa; stroke-width: 1;" x1="238.97958899282963" y1="224.89355187367136" x2="254.2383225226311" y2="252.0677321475196"></line><line style="stroke: #aaa; stroke-width: 1.41421;" x1="238.97958899282963" y1="224.89355187367136" x2="287.7274311672081" y2="266.339971872386"></line><line style="stroke: #aaa; stroke-width: 1.41421;" x1="280.75585360737006" y1="247.1094227612356" x2="254.2383225226311" y2="252.0677321475196"></line><line style="stroke: #aaa; stroke-width: 1;" x1="280.75585360737006" y1="247.1094227612356" x2="319.72159889167165" y2="259.20499202590617"></line><line style="stroke: #aaa; stroke-width: 1;" x1="280.75585360737006" y1="247.1094227612356" x2="287.7274311672081" y2="266.339971872386"></line><line style="stroke: #aaa; stroke-width: 1.41421;" x1="280.75585360737006" y1="247.1094227612356" x2="322.2775146590035" y2="274.9569724581752"></line><line style="stroke: #aaa; stroke-width: 1.41421;" x1="319.72159889167165" y1="259.20499202590617" x2="287.7274311672081" y2="266.339971872386"></line><line style="stroke: #aaa; stroke-width: 1;" x1="319.72159889167165" y1="259.20499202590617" x2="358.29593869866846" y2="263.0400056928573"></line><line style="stroke: #aaa; stroke-width: 1;" x1="319.72159889167165" y1="259.20499202590617" x2="322.2775146590035" y2="274.9569724581752"></line><line style="stroke: #aaa; stroke-width: 1.41421;" x1="319.72159889167165" y1="259.20499202590617" x2="357.7107305093001" y2="277.8062523308268"></line><line style="stroke: #aaa; stroke-width: 1.41421;" x1="358.29593869866846" y1="263.0400056928573" x2="322.2775146590035" y2="274.9569724581752"></line><line style="stroke: #aaa; stroke-width: 1;" x1="358.29593869866846" y1="263.0400056928573" x2="398.3538192662456" y2="259.20499202590617"></line><line style="stroke: #aaa; stroke-width: 1;" x1="358.29593869866846" y1="263.0400056928573" x2="357.7107305093001" y2="277.8062523308268"></line><line style="stroke: #aaa; stroke-width: 1.41421;" x1="358.29593869866846" y1="263.0400056928573" x2="394.2892823873604" y2="274.9569724581752"></line><line style="stroke: #aaa; stroke-width: 1.41421;" x1="398.3538192662456" y1="259.20499202590617" x2="357.7107305093001" y2="277.8062523308268"></line><line style="stroke: #aaa; stroke-width: 1;" x1="398.3538192662456" y1="259.20499202590617" x2="441.92218895939703" y2="247.1094227612356"></line><line style="stroke: #aaa; stroke-width: 1;" x1="398.3538192662456" y1="259.20499202590617" x2="394.2892823873604" y2="274.9569724581752"></line><line style="stroke: #aaa; stroke-width: 1.41421;" x1="398.3538192662456" y1="259.20499202590617" x2="432.2350933987629" y2="266.339971872386"></line><line style="stroke: #aaa; stroke-width: 1.41421;" x1="441.92218895939703" y1="247.1094227612356" x2="394.2892823873604" y2="274.9569724581752"></line><line style="stroke: #aaa; stroke-width: 1;" x1="441.92218895939703" y1="247.1094227612356" x2="491.9050484165333" y2="224.89355187367136"></line><line style="stroke: #aaa; stroke-width: 1;" x1="441.92218895939703" y1="247.1094227612356" x2="432.2350933987629" y2="266.339971872386"></line><line style="stroke: #aaa; stroke-width: 1.41421;" x1="441.92218895939703" y1="247.1094227612356" x2="471.1430778747632" y2="252.06849215815518"></line><line style="stroke: #aaa; stroke-width: 1.41421;" x1="491.9050484165333" y1="224.89355187367136" x2="432.2350933987629" y2="266.339971872386"></line><line style="stroke: #aaa; stroke-width: 1;" x1="491.9050484165333" y1="224.89355187367136" x2="555.0322918153897" y2="187.51318877511295"></line><line style="stroke: #aaa; stroke-width: 1;" x1="491.9050484165333" y1="224.89355187367136" x2="471.1430778747632" y2="252.06849215815518"></line><line style="stroke: #aaa; stroke-width: 1.41421;" x1="491.9050484165333" y1="224.89355187367136" x2="503.98085740467974" y2="236.9693608618178"></line><line style="stroke: #aaa; stroke-width: 1.41421;" x1="555.0322918153897" y1="187.51318877511295" x2="471.1430778747632" y2="252.06849215815518"></line><line style="stroke: #aaa; stroke-width: 1;" x1="555.0322918153897" y1="187.51318877511295" x2="588.1953558973187" y2="166.57565577653241"></line><line style="stroke: #aaa; stroke-width: 1;" x1="555.0322918153897" y1="187.51318877511295" x2="503.98085740467974" y2="236.9693608618178"></line><line style="stroke: #aaa; stroke-width: 1.41421;" x1="555.0322918153897" y1="187.51318877511295" x2="520.2633252605578" y2="228.41088109496542"></line><line style="stroke: #aaa; stroke-width: 1.41421;" x1="588.1953558973187" y1="166.57565577653241" x2="503.98085740467974" y2="236.9693608618178"></line><line style="stroke: #aaa; stroke-width: 1;" x1="213.39003089408897" y1="228.41088109496542" x2="226.90301999404767" y2="236.9693608618178"></line><line style="stroke: #aaa; stroke-width: 1;" x1="213.39003089408897" y1="228.41088109496542" x2="240.66073251865123" y2="274.8802113839853"></line><line style="stroke: #aaa; stroke-width: 1.41421;" x1="213.39003089408897" y1="228.41088109496542" x2="249.35753422117247" y2="278.5069821367976"></line><line style="stroke: #aaa; stroke-width: 1.41421;" x1="226.90301999404767" y1="236.9693608618178" x2="240.66073251865123" y2="274.8802113839853"></line><line style="stroke: #aaa; stroke-width: 1;" x1="226.90301999404767" y1="236.9693608618178" x2="254.2383225226311" y2="252.0677321475196"></line><line style="stroke: #aaa; stroke-width: 1;" x1="226.90301999404767" y1="236.9693608618178" x2="249.35753422117247" y2="278.5069821367976"></line><line style="stroke: #aaa; stroke-width: 1.41421;" x1="226.90301999404767" y1="236.9693608618178" x2="268.66788444905495" y2="285.39951859053923"></line><line style="stroke: #aaa; stroke-width: 1.41421;" x1="254.2383225226311" y1="252.0677321475196" x2="249.35753422117247" y2="278.5069821367976"></line><line style="stroke: #aaa; stroke-width: 1;" x1="254.2383225226311" y1="252.0677321475196" x2="287.7274311672081" y2="266.339971872386"></line><line style="stroke: #aaa; stroke-width: 1;" x1="254.2383225226311" y1="252.0677321475196" x2="268.66788444905495" y2="285.39951859053923"></line><line style="stroke: #aaa; stroke-width: 1.41421;" x1="254.2383225226311" y1="252.0677321475196" x2="294.91941181135377" y2="292.50257799032624"></line><line style="stroke: #aaa; stroke-width: 1.41421;" x1="287.7274311672081" y1="266.339971872386" x2="268.66788444905495" y2="285.39951859053923"></line><line style="stroke: #aaa; stroke-width: 1;" x1="287.7274311672081" y1="266.339971872386" x2="322.2775146590035" y2="274.9569724581752"></line><line style="stroke: #aaa; stroke-width: 1;" x1="287.7274311672081" y1="266.339971872386" x2="294.91941181135377" y2="292.50257799032624"></line><line style="stroke: #aaa; stroke-width: 1.41421;" x1="287.7274311672081" y1="266.339971872386" x2="324.9877125853507" y2="297.47152752550795"></line><line style="stroke: #aaa; stroke-width: 1.41421;" x1="322.2775146590035" y1="274.9569724581752" x2="294.91941181135377" y2="292.50257799032624"></line><line style="stroke: #aaa; stroke-width: 1;" x1="322.2775146590035" y1="274.9569724581752" x2="357.7107305093001" y2="277.8062523308268"></line><line style="stroke: #aaa; stroke-width: 1;" x1="322.2775146590035" y1="274.9569724581752" x2="324.9877125853507" y2="297.47152752550795"></line><line style="stroke: #aaa; stroke-width: 1.41421;" x1="322.2775146590035" y1="274.9569724581752" x2="356.94463978867253" y2="299.19143159374227"></line><line style="stroke: #aaa; stroke-width: 1.41421;" x1="357.7107305093001" y1="277.8062523308268" x2="324.9877125853507" y2="297.47152752550795"></line><line style="stroke: #aaa; stroke-width: 1;" x1="357.7107305093001" y1="277.8062523308268" x2="394.2892823873604" y2="274.9569724581752"></line><line style="stroke: #aaa; stroke-width: 1;" x1="357.7107305093001" y1="277.8062523308268" x2="356.94463978867253" y2="299.19143159374227"></line><line style="stroke: #aaa; stroke-width: 1.41421;" x1="357.7107305093001" y1="277.8062523308268" x2="389.69729812740815" y2="297.47152752550795"></line><line style="stroke: #aaa; stroke-width: 1.41421;" x1="394.2892823873604" y1="274.9569724581752" x2="356.94463978867253" y2="299.19143159374227"></line><line style="stroke: #aaa; stroke-width: 1;" x1="394.2892823873604" y1="274.9569724581752" x2="432.2350933987629" y2="266.339971872386"></line><line style="stroke: #aaa; stroke-width: 1;" x1="394.2892823873604" y1="274.9569724581752" x2="389.69729812740815" y2="297.47152752550795"></line><line style="stroke: #aaa; stroke-width: 1.41421;" x1="394.2892823873604" y1="274.9569724581752" x2="421.9992701592667" y2="292.50333800096183"></line><line style="stroke: #aaa; stroke-width: 1.41421;" x1="432.2350933987629" y1="266.339971872386" x2="389.69729812740815" y2="297.47152752550795"></line><line style="stroke: #aaa; stroke-width: 1;" x1="432.2350933987629" y1="266.339971872386" x2="471.1430778747632" y2="252.06849215815518"></line><line style="stroke: #aaa; stroke-width: 1;" x1="432.2350933987629" y1="266.339971872386" x2="421.9992701592667" y2="292.50333800096183"></line><line style="stroke: #aaa; stroke-width: 1.41421;" x1="432.2350933987629" y1="266.339971872386" x2="451.2946401169162" y2="285.39951859053923"></line><line style="stroke: #aaa; stroke-width: 1.41421;" x1="471.1430778747632" y1="252.06849215815518" x2="421.9992701592667" y2="292.50333800096183"></line><line style="stroke: #aaa; stroke-width: 1;" x1="471.1430778747632" y1="252.06849215815518" x2="503.98085740467974" y2="236.9693608618178"></line><line style="stroke: #aaa; stroke-width: 1;" x1="471.1430778747632" y1="252.06849215815518" x2="451.2946401169162" y2="285.39951859053923"></line><line style="stroke: #aaa; stroke-width: 1.41421;" x1="471.1430778747632" y1="252.06849215815518" x2="473.32050834559465" y2="278.5069821367976"></line><line style="stroke: #aaa; stroke-width: 1.41421;" x1="503.98085740467974" y1="236.9693608618178" x2="451.2946401169162" y2="285.39951859053923"></line><line style="stroke: #aaa; stroke-width: 1;" x1="503.98085740467974" y1="236.9693608618178" x2="520.2633252605578" y2="228.41088109496542"></line><line style="stroke: #aaa; stroke-width: 1;" x1="503.98085740467974" y1="236.9693608618178" x2="473.32050834559465" y2="278.5069821367976"></line><line style="stroke: #aaa; stroke-width: 1.41421;" x1="503.98085740467974" y1="236.9693608618178" x2="483.0501645018191" y2="274.8802113839853"></line><line style="stroke: #aaa; stroke-width: 1.41421;" x1="520.2633252605578" y1="228.41088109496542" x2="473.32050834559465" y2="278.5069821367976"></line><line style="stroke: #aaa; stroke-width: 1;" x1="240.66073251865123" y1="274.8802113839853" x2="249.35753422117247" y2="278.5069821367976"></line><line style="stroke: #aaa; stroke-width: 1;" x1="240.66073251865123" y1="274.8802113839853" x2="254.6639284785353" y2="315.9261057777687"></line><line style="stroke: #aaa; stroke-width: 1.41421;" x1="240.66073251865123" y1="274.8802113839853" x2="261.58762536833416" y2="317.33820553860807"></line><line style="stroke: #aaa; stroke-width: 1.41421;" x1="249.35753422117247" y1="278.5069821367976" x2="254.6639284785353" y2="315.9261057777687"></line><line style="stroke: #aaa; stroke-width: 1;" x1="249.35753422117247" y1="278.5069821367976" x2="268.66788444905495" y2="285.39951859053923"></line><line style="stroke: #aaa; stroke-width: 1;" x1="249.35753422117247" y1="278.5069821367976" x2="261.58762536833416" y2="317.33820553860807"></line><line style="stroke: #aaa; stroke-width: 1.41421;" x1="249.35753422117247" y1="278.5069821367976" x2="277.38368641746473" y2="319.8500406890784"></line><line style="stroke: #aaa; stroke-width: 1.41421;" x1="268.66788444905495" y1="285.39951859053923" x2="261.58762536833416" y2="317.33820553860807"></line><line style="stroke: #aaa; stroke-width: 1;" x1="268.66788444905495" y1="285.39951859053923" x2="294.91941181135377" y2="292.50257799032624"></line><line style="stroke: #aaa; stroke-width: 1;" x1="268.66788444905495" y1="285.39951859053923" x2="277.38368641746473" y2="319.8500406890784"></line><line style="stroke: #aaa; stroke-width: 1.41421;" x1="268.66788444905495" y1="285.39951859053923" x2="299.9529622505566" y2="322.5055178496665"></line><line style="stroke: #aaa; stroke-width: 1.41421;" x1="294.91941181135377" y1="292.50257799032624" x2="277.38368641746473" y2="319.8500406890784"></line><line style="stroke: #aaa; stroke-width: 1;" x1="294.91941181135377" y1="292.50257799032624" x2="324.9877125853507" y2="297.47152752550795"></line><line style="stroke: #aaa; stroke-width: 1;" x1="294.91941181135377" y1="292.50257799032624" x2="299.9529622505566" y2="322.5055178496665"></line><line style="stroke: #aaa; stroke-width: 1.41421;" x1="294.91941181135377" y1="292.50257799032624" x2="326.9515800675945" y2="324.42682473631976"></line><line style="stroke: #aaa; stroke-width: 1.41421;" x1="324.9877125853507" y1="297.47152752550795" x2="299.9529622505566" y2="322.5055178496665"></line><line style="stroke: #aaa; stroke-width: 1;" x1="324.9877125853507" y1="297.47152752550795" x2="356.94463978867253" y2="299.19143159374227"></line><line style="stroke: #aaa; stroke-width: 1;" x1="324.9877125853507" y1="297.47152752550795" x2="326.9515800675945" y2="324.42682473631976"></line><line style="stroke: #aaa; stroke-width: 1.41421;" x1="324.9877125853507" y1="297.47152752550795" x2="356.3244711100693" y2="325.1169143933931"></line><line style="stroke: #aaa; stroke-width: 1.41421;" x1="356.94463978867253" y1="299.19143159374227" x2="326.9515800675945" y2="324.42682473631976"></line><line style="stroke: #aaa; stroke-width: 1;" x1="356.94463978867253" y1="299.19143159374227" x2="389.69729812740815" y2="297.47152752550795"></line><line style="stroke: #aaa; stroke-width: 1;" x1="356.94463978867253" y1="299.19143159374227" x2="356.3244711100693" y2="325.1169143933931"></line><line style="stroke: #aaa; stroke-width: 1.41421;" x1="356.94463978867253" y1="299.19143159374227" x2="386.2514099058552" y2="324.42682473631976"></line><line style="stroke: #aaa; stroke-width: 1.41421;" x1="389.69729812740815" y1="297.47152752550795" x2="356.3244711100693" y2="325.1169143933931"></line><line style="stroke: #aaa; stroke-width: 1;" x1="389.69729812740815" y1="297.47152752550795" x2="421.9992701592667" y2="292.50333800096183"></line><line style="stroke: #aaa; stroke-width: 1;" x1="389.69729812740815" y1="297.47152752550795" x2="386.2514099058552" y2="324.42682473631976"></line><line style="stroke: #aaa; stroke-width: 1.41421;" x1="389.69729812740815" y1="297.47152752550795" x2="414.7328084728378" y2="322.5055178496665"></line><line style="stroke: #aaa; stroke-width: 1.41421;" x1="421.9992701592667" y1="292.50333800096183" x2="386.2514099058552" y2="324.42682473631976"></line><line style="stroke: #aaa; stroke-width: 1;" x1="421.9992701592667" y1="292.50333800096183" x2="451.2946401169162" y2="285.39951859053923"></line><line style="stroke: #aaa; stroke-width: 1;" x1="421.9992701592667" y1="292.50333800096183" x2="414.7328084728378" y2="322.5055178496665"></line><line style="stroke: #aaa; stroke-width: 1.41421;" x1="421.9992701592667" y1="292.50333800096183" x2="439.18387063953475" y2="319.85080069971394"></line><line style="stroke: #aaa; stroke-width: 1.41421;" x1="451.2946401169162" y1="285.39951859053923" x2="414.7328084728378" y2="322.5055178496665"></line><line style="stroke: #aaa; stroke-width: 1;" x1="451.2946401169162" y1="285.39951859053923" x2="473.32050834559465" y2="278.5069821367976"></line><line style="stroke: #aaa; stroke-width: 1;" x1="451.2946401169162" y1="285.39951859053923" x2="439.18387063953475" y2="319.85080069971394"></line><line style="stroke: #aaa; stroke-width: 1.41421;" x1="451.2946401169162" y1="285.39951859053923" x2="456.4885528002186" y2="317.33820553860807"></line><line style="stroke: #aaa; stroke-width: 1.41421;" x1="473.32050834559465" y1="278.5069821367976" x2="439.18387063953475" y2="319.85080069971394"></line><line style="stroke: #aaa; stroke-width: 1;" x1="473.32050834559465" y1="278.5069821367976" x2="483.0501645018191" y2="274.8802113839853"></line><line style="stroke: #aaa; stroke-width: 1;" x1="473.32050834559465" y1="278.5069821367976" x2="456.4885528002186" y2="317.33820553860807"></line><line style="stroke: #aaa; stroke-width: 1.41421;" x1="473.32050834559465" y1="278.5069821367976" x2="463.7960550609668" y2="315.92686578840426"></line><line style="stroke: #aaa; stroke-width: 1.41421;" x1="483.0501645018191" y1="274.8802113839853" x2="456.4885528002186" y2="317.33820553860807"></line><line style="stroke: #aaa; stroke-width: 1;" x1="254.6639284785353" y1="315.9261057777687" x2="261.58762536833416" y2="317.33820553860807"></line><line style="stroke: #aaa; stroke-width: 1;" x1="254.6639284785353" y1="315.9261057777687" x2="259.02638952655343" y2="355.97790626026153"></line><line style="stroke: #aaa; stroke-width: 1.41421;" x1="254.6639284785353" y1="315.9261057777687" x2="265.46519963087576" y2="355.8692247393789"></line><line style="stroke: #aaa; stroke-width: 1.41421;" x1="261.58762536833416" y1="317.33820553860807" x2="259.02638952655343" y2="355.97790626026153"></line><line style="stroke: #aaa; stroke-width: 1;" x1="261.58762536833416" y1="317.33820553860807" x2="277.38368641746473" y2="319.8500406890784"></line><line style="stroke: #aaa; stroke-width: 1;" x1="261.58762536833416" y1="317.33820553860807" x2="265.46519963087576" y2="355.8692247393789"></line><line style="stroke: #aaa; stroke-width: 1.41421;" x1="261.58762536833416" y1="317.33820553860807" x2="280.2656467474447" y2="355.24981607141115"></line><line style="stroke: #aaa; stroke-width: 1.41421;" x1="277.38368641746473" y1="319.8500406890784" x2="265.46519963087576" y2="355.8692247393789"></line><line style="stroke: #aaa; stroke-width: 1;" x1="277.38368641746473" y1="319.8500406890784" x2="299.9529622505566" y2="322.5055178496665"></line><line style="stroke: #aaa; stroke-width: 1;" x1="277.38368641746473" y1="319.8500406890784" x2="280.2656467474447" y2="355.24981607141115"></line><line style="stroke: #aaa; stroke-width: 1.41421;" x1="277.38368641746473" y1="319.8500406890784" x2="301.6956666378572" y2="354.4388847232865"></line><line style="stroke: #aaa; stroke-width: 1.41421;" x1="299.9529622505566" y1="322.5055178496665" x2="280.2656467474447" y2="355.24981607141115"></line><line style="stroke: #aaa; stroke-width: 1;" x1="299.9529622505566" y1="322.5055178496665" x2="326.9515800675945" y2="324.42682473631976"></line><line style="stroke: #aaa; stroke-width: 1;" x1="299.9529622505566" y1="322.5055178496665" x2="301.6956666378572" y2="354.4388847232865"></line><line style="stroke: #aaa; stroke-width: 1.41421;" x1="299.9529622505566" y1="322.5055178496665" x2="327.65838995864965" y2="353.7822355341772"></line><line style="stroke: #aaa; stroke-width: 1.41421;" x1="326.9515800675945" y1="324.42682473631976" x2="301.6956666378572" y2="354.4388847232865"></line><line style="stroke: #aaa; stroke-width: 1;" x1="326.9515800675945" y1="324.42682473631976" x2="356.3244711100693" y2="325.1169143933931"></line><line style="stroke: #aaa; stroke-width: 1;" x1="326.9515800675945" y1="324.42682473631976" x2="327.65838995864965" y2="353.7822355341772"></line><line style="stroke: #aaa; stroke-width: 1.41421;" x1="326.9515800675945" y1="324.42682473631976" x2="356.0888678130509" y2="353.5329520457189"></line><line style="stroke: #aaa; stroke-width: 1.41421;" x1="356.3244711100693" y1="325.1169143933931" x2="327.65838995864965" y2="353.7822355341772"></line><line style="stroke: #aaa; stroke-width: 1;" x1="356.3244711100693" y1="325.1169143933931" x2="386.2514099058552" y2="324.42682473631976"></line><line style="stroke: #aaa; stroke-width: 1;" x1="356.3244711100693" y1="325.1169143933931" x2="356.0888678130509" y2="353.5329520457189"></line><line style="stroke: #aaa; stroke-width: 1.41421;" x1="356.3244711100693" y1="325.1169143933931" x2="384.99055226148903" y2="353.7822355341772"></line><line style="stroke: #aaa; stroke-width: 1.41421;" x1="386.2514099058552" y1="324.42682473631976" x2="356.0888678130509" y2="353.5329520457189"></line><line style="stroke: #aaa; stroke-width: 1;" x1="386.2514099058552" y1="324.42682473631976" x2="414.7328084728378" y2="322.5055178496665"></line><line style="stroke: #aaa; stroke-width: 1;" x1="386.2514099058552" y1="324.42682473631976" x2="384.99055226148903" y2="353.7822355341772"></line><line style="stroke: #aaa; stroke-width: 1.41421;" x1="386.2514099058552" y1="324.42682473631976" x2="412.1936129394879" y2="354.4388847232865"></line><line style="stroke: #aaa; stroke-width: 1.41421;" x1="414.7328084728378" y1="322.5055178496665" x2="384.99055226148903" y2="353.7822355341772"></line><line style="stroke: #aaa; stroke-width: 1;" x1="414.7328084728378" y1="322.5055178496665" x2="439.18387063953475" y2="319.85080069971394"></line><line style="stroke: #aaa; stroke-width: 1;" x1="414.7328084728378" y1="322.5055178496665" x2="412.1936129394879" y2="354.4388847232865"></line><line style="stroke: #aaa; stroke-width: 1.41421;" x1="414.7328084728378" y1="322.5055178496665" x2="435.1558142711556" y2="355.24981607141115"></line><line style="stroke: #aaa; stroke-width: 1.41421;" x1="439.18387063953475" y1="319.85080069971394" x2="412.1936129394879" y2="354.4388847232865"></line><line style="stroke: #aaa; stroke-width: 1;" x1="439.18387063953475" y1="319.85080069971394" x2="456.4885528002186" y2="317.33820553860807"></line><line style="stroke: #aaa; stroke-width: 1;" x1="439.18387063953475" y1="319.85080069971394" x2="435.1558142711556" y2="355.24981607141115"></line><line style="stroke: #aaa; stroke-width: 1.41421;" x1="439.18387063953475" y1="319.85080069971394" x2="451.1281977877322" y2="355.8692247393789"></line><line style="stroke: #aaa; stroke-width: 1.41421;" x1="456.4885528002186" y1="317.33820553860807" x2="435.1558142711556" y2="355.24981607141115"></line><line style="stroke: #aaa; stroke-width: 1;" x1="456.4885528002186" y1="317.33820553860807" x2="463.7960550609668" y2="315.92686578840426"></line><line style="stroke: #aaa; stroke-width: 1;" x1="456.4885528002186" y1="317.33820553860807" x2="451.1281977877322" y2="355.8692247393789"></line><line style="stroke: #aaa; stroke-width: 1.41421;" x1="456.4885528002186" y1="317.33820553860807" x2="457.77221076365106" y2="355.9786662708971"></line><line style="stroke: #aaa; stroke-width: 1.41421;" x1="463.7960550609668" y1="315.92686578840426" x2="451.1281977877322" y2="355.8692247393789"></line><line style="stroke: #aaa; stroke-width: 1;" x1="259.02638952655343" y1="355.97790626026153" x2="265.46519963087576" y2="355.8692247393789"></line><line style="stroke: #aaa; stroke-width: 1;" x1="259.02638952655343" y1="355.97790626026153" x2="254.6639284785353" y2="397.7876113427659"></line><line style="stroke: #aaa; stroke-width: 1.41421;" x1="259.02638952655343" y1="355.97790626026153" x2="261.58762536833416" y2="395.9696659025464"></line><line style="stroke: #aaa; stroke-width: 1.41421;" x1="265.46519963087576" y1="355.8692247393789" x2="254.6639284785353" y2="397.7876113427659"></line><line style="stroke: #aaa; stroke-width: 1;" x1="265.46519963087576" y1="355.8692247393789" x2="280.2656467474447" y2="355.24981607141115"></line><line style="stroke: #aaa; stroke-width: 1;" x1="265.46519963087576" y1="355.8692247393789" x2="261.58762536833416" y2="395.9696659025464"></line><line style="stroke: #aaa; stroke-width: 1.41421;" x1="265.46519963087576" y1="355.8692247393789" x2="277.38368641746473" y2="391.8610484067998"></line><line style="stroke: #aaa; stroke-width: 1.41421;" x1="280.2656467474447" y1="355.24981607141115" x2="261.58762536833416" y2="395.9696659025464"></line><line style="stroke: #aaa; stroke-width: 1;" x1="280.2656467474447" y1="355.24981607141115" x2="301.6956666378572" y2="354.4388847232865"></line><line style="stroke: #aaa; stroke-width: 1;" x1="280.2656467474447" y1="355.24981607141115" x2="277.38368641746473" y2="391.8610484067998"></line><line style="stroke: #aaa; stroke-width: 1.41421;" x1="280.2656467474447" y1="355.24981607141115" x2="299.9529622505566" y2="387.21434338108844"></line><line style="stroke: #aaa; stroke-width: 1.41421;" x1="301.6956666378572" y1="354.4388847232865" x2="277.38368641746473" y2="391.8610484067998"></line><line style="stroke: #aaa; stroke-width: 1;" x1="301.6956666378572" y1="354.4388847232865" x2="327.65838995864965" y2="353.7822355341772"></line><line style="stroke: #aaa; stroke-width: 1;" x1="301.6956666378572" y1="354.4388847232865" x2="299.9529622505566" y2="387.21434338108844"></line><line style="stroke: #aaa; stroke-width: 1.41421;" x1="301.6956666378572" y1="354.4388847232865" x2="326.9515800675945" y2="383.72513455330943"></line><line style="stroke: #aaa; stroke-width: 1.41421;" x1="327.65838995864965" y1="353.7822355341772" x2="299.9529622505566" y2="387.21434338108844"></line><line style="stroke: #aaa; stroke-width: 1;" x1="327.65838995864965" y1="353.7822355341772" x2="356.0888678130509" y2="353.5329520457189"></line><line style="stroke: #aaa; stroke-width: 1;" x1="327.65838995864965" y1="353.7822355341772" x2="326.9515800675945" y2="383.72513455330943"></line><line style="stroke: #aaa; stroke-width: 1.41421;" x1="327.65838995864965" y1="353.7822355341772" x2="356.3244711100693" y2="382.4475566749613"></line><line style="stroke: #aaa; stroke-width: 1.41421;" x1="356.0888678130509" y1="353.5329520457189" x2="326.9515800675945" y2="383.72513455330943"></line><line style="stroke: #aaa; stroke-width: 1;" x1="356.0888678130509" y1="353.5329520457189" x2="384.99055226148903" y2="353.7822355341772"></line><line style="stroke: #aaa; stroke-width: 1;" x1="356.0888678130509" y1="353.5329520457189" x2="356.3244711100693" y2="382.4475566749613"></line><line style="stroke: #aaa; stroke-width: 1.41421;" x1="356.0888678130509" y1="353.5329520457189" x2="386.2514099058552" y2="383.72513455330943"></line><line style="stroke: #aaa; stroke-width: 1.41421;" x1="384.99055226148903" y1="353.7822355341772" x2="356.3244711100693" y2="382.4475566749613"></line><line style="stroke: #aaa; stroke-width: 1;" x1="384.99055226148903" y1="353.7822355341772" x2="412.1936129394879" y2="354.4388847232865"></line><line style="stroke: #aaa; stroke-width: 1;" x1="384.99055226148903" y1="353.7822355341772" x2="386.2514099058552" y2="383.72513455330943"></line><line style="stroke: #aaa; stroke-width: 1.41421;" x1="384.99055226148903" y1="353.7822355341772" x2="414.7328084728378" y2="387.21434338108844"></line><line style="stroke: #aaa; stroke-width: 1.41421;" x1="412.1936129394879" y1="354.4388847232865" x2="386.2514099058552" y2="383.72513455330943"></line><line style="stroke: #aaa; stroke-width: 1;" x1="412.1936129394879" y1="354.4388847232865" x2="435.1558142711556" y2="355.24981607141115"></line><line style="stroke: #aaa; stroke-width: 1;" x1="412.1936129394879" y1="354.4388847232865" x2="414.7328084728378" y2="387.21434338108844"></line><line style="stroke: #aaa; stroke-width: 1.41421;" x1="412.1936129394879" y1="354.4388847232865" x2="439.18387063953475" y2="391.8610484067998"></line><line style="stroke: #aaa; stroke-width: 1.41421;" x1="435.1558142711556" y1="355.24981607141115" x2="414.7328084728378" y2="387.21434338108844"></line><line style="stroke: #aaa; stroke-width: 1;" x1="435.1558142711556" y1="355.24981607141115" x2="451.1281977877322" y2="355.8692247393789"></line><line style="stroke: #aaa; stroke-width: 1;" x1="435.1558142711556" y1="355.24981607141115" x2="439.18387063953475" y2="391.8610484067998"></line><line style="stroke: #aaa; stroke-width: 1.41421;" x1="435.1558142711556" y1="355.24981607141115" x2="456.4885528002186" y2="395.9696659025464"></line><line style="stroke: #aaa; stroke-width: 1.41421;" x1="451.1281977877322" y1="355.8692247393789" x2="439.18387063953475" y2="391.8610484067998"></line><line style="stroke: #aaa; stroke-width: 1;" x1="451.1281977877322" y1="355.8692247393789" x2="457.77221076365106" y2="355.9786662708971"></line><line style="stroke: #aaa; stroke-width: 1;" x1="451.1281977877322" y1="355.8692247393789" x2="456.4885528002186" y2="395.9696659025464"></line><line style="stroke: #aaa; stroke-width: 1.41421;" x1="451.1281977877322" y1="355.8692247393789" x2="463.7960550609668" y2="397.7876113427659"></line><line style="stroke: #aaa; stroke-width: 1.41421;" x1="457.77221076365106" y1="355.9786662708971" x2="456.4885528002186" y2="395.9696659025464"></line><line style="stroke: #aaa; stroke-width: 1;" x1="254.6639284785353" y1="397.7876113427659" x2="261.58762536833416" y2="395.9696659025464"></line><line style="stroke: #aaa; stroke-width: 1;" x1="254.6639284785353" y1="397.7876113427659" x2="240.66073251865123" y2="444.3899434930059"></line><line style="stroke: #aaa; stroke-width: 1.41421;" x1="254.6639284785353" y1="397.7876113427659" x2="249.35753422117247" y2="439.67103745691793"></line><line style="stroke: #aaa; stroke-width: 1.41421;" x1="261.58762536833416" y1="395.9696659025464" x2="240.66073251865123" y2="444.3899434930059"></line><line style="stroke: #aaa; stroke-width: 1;" x1="261.58762536833416" y1="395.9696659025464" x2="277.38368641746473" y2="391.8610484067998"></line><line style="stroke: #aaa; stroke-width: 1;" x1="261.58762536833416" y1="395.9696659025464" x2="249.35753422117247" y2="439.67103745691793"></line><line style="stroke: #aaa; stroke-width: 1.41421;" x1="261.58762536833416" y1="395.9696659025464" x2="268.66788444905495" y2="429.90490079018736"></line><line style="stroke: #aaa; stroke-width: 1.41421;" x1="277.38368641746473" y1="391.8610484067998" x2="249.35753422117247" y2="439.67103745691793"></line><line style="stroke: #aaa; stroke-width: 1;" x1="277.38368641746473" y1="391.8610484067998" x2="299.9529622505566" y2="387.21434338108844"></line><line style="stroke: #aaa; stroke-width: 1;" x1="277.38368641746473" y1="391.8610484067998" x2="268.66788444905495" y2="429.90490079018736"></line><line style="stroke: #aaa; stroke-width: 1.41421;" x1="277.38368641746473" y1="391.8610484067998" x2="294.91941181135377" y2="419.5809163169681"></line><line style="stroke: #aaa; stroke-width: 1.41421;" x1="299.9529622505566" y1="387.21434338108844" x2="268.66788444905495" y2="429.90490079018736"></line><line style="stroke: #aaa; stroke-width: 1;" x1="299.9529622505566" y1="387.21434338108844" x2="326.9515800675945" y2="383.72513455330943"></line><line style="stroke: #aaa; stroke-width: 1;" x1="299.9529622505566" y1="387.21434338108844" x2="294.91941181135377" y2="419.5809163169681"></line><line style="stroke: #aaa; stroke-width: 1.41421;" x1="299.9529622505566" y1="387.21434338108844" x2="324.9877125853507" y2="412.248333705247"></line><line style="stroke: #aaa; stroke-width: 1.41421;" x1="326.9515800675945" y1="383.72513455330943" x2="294.91941181135377" y2="419.5809163169681"></line><line style="stroke: #aaa; stroke-width: 1;" x1="326.9515800675945" y1="383.72513455330943" x2="356.3244711100693" y2="382.4475566749613"></line><line style="stroke: #aaa; stroke-width: 1;" x1="326.9515800675945" y1="383.72513455330943" x2="324.9877125853507" y2="412.248333705247"></line><line style="stroke: #aaa; stroke-width: 1.41421;" x1="326.9515800675945" y1="383.72513455330943" x2="356.94463978867253" y2="409.6863378528308"></line><line style="stroke: #aaa; stroke-width: 1.41421;" x1="356.3244711100693" y1="382.4475566749613" x2="324.9877125853507" y2="412.248333705247"></line><line style="stroke: #aaa; stroke-width: 1;" x1="356.3244711100693" y1="382.4475566749613" x2="386.2514099058552" y2="383.72513455330943"></line><line style="stroke: #aaa; stroke-width: 1;" x1="356.3244711100693" y1="382.4475566749613" x2="356.94463978867253" y2="409.6863378528308"></line><line style="stroke: #aaa; stroke-width: 1.41421;" x1="356.3244711100693" y1="382.4475566749613" x2="389.69805813804373" y2="412.248333705247"></line><line style="stroke: #aaa; stroke-width: 1.41421;" x1="386.2514099058552" y1="383.72513455330943" x2="356.94463978867253" y2="409.6863378528308"></line><line style="stroke: #aaa; stroke-width: 1;" x1="386.2514099058552" y1="383.72513455330943" x2="414.7328084728378" y2="387.21434338108844"></line><line style="stroke: #aaa; stroke-width: 1;" x1="386.2514099058552" y1="383.72513455330943" x2="389.69805813804373" y2="412.248333705247"></line><line style="stroke: #aaa; stroke-width: 1.41421;" x1="386.2514099058552" y1="383.72513455330943" x2="422.00003016990223" y2="419.5809163169681"></line><line style="stroke: #aaa; stroke-width: 1.41421;" x1="414.7328084728378" y1="387.21434338108844" x2="389.69805813804373" y2="412.248333705247"></line><line style="stroke: #aaa; stroke-width: 1;" x1="414.7328084728378" y1="387.21434338108844" x2="439.18387063953475" y2="391.8610484067998"></line><line style="stroke: #aaa; stroke-width: 1;" x1="414.7328084728378" y1="387.21434338108844" x2="422.00003016990223" y2="419.5809163169681"></line><line style="stroke: #aaa; stroke-width: 1.41421;" x1="414.7328084728378" y1="387.21434338108844" x2="451.2946401169162" y2="429.90490079018736"></line><line style="stroke: #aaa; stroke-width: 1.41421;" x1="439.18387063953475" y1="391.8610484067998" x2="422.00003016990223" y2="419.5809163169681"></line><line style="stroke: #aaa; stroke-width: 1;" x1="439.18387063953475" y1="391.8610484067998" x2="456.4885528002186" y2="395.9696659025464"></line><line style="stroke: #aaa; stroke-width: 1;" x1="439.18387063953475" y1="391.8610484067998" x2="451.2946401169162" y2="429.90490079018736"></line><line style="stroke: #aaa; stroke-width: 1.41421;" x1="439.18387063953475" y1="391.8610484067998" x2="473.3212683562302" y2="439.67103745691793"></line><line style="stroke: #aaa; stroke-width: 1.41421;" x1="456.4885528002186" y1="395.9696659025464" x2="451.2946401169162" y2="429.90490079018736"></line><line style="stroke: #aaa; stroke-width: 1;" x1="456.4885528002186" y1="395.9696659025464" x2="463.7960550609668" y2="397.7876113427659"></line><line style="stroke: #aaa; stroke-width: 1;" x1="456.4885528002186" y1="395.9696659025464" x2="473.3212683562302" y2="439.67103745691793"></line><line style="stroke: #aaa; stroke-width: 1.41421;" x1="456.4885528002186" y1="395.9696659025464" x2="483.0501645018191" y2="444.3899434930059"></line><line style="stroke: #aaa; stroke-width: 1.41421;" x1="463.7960550609668" y1="397.7876113427659" x2="473.3212683562302" y2="439.67103745691793"></line><line style="stroke: #aaa; stroke-width: 1;" x1="240.66073251865123" y1="444.3899434930059" x2="249.35753422117247" y2="439.67103745691793"></line><line style="stroke: #aaa; stroke-width: 1;" x1="240.66073251865123" y1="444.3899434930059" x2="213.39003089408897" y2="501.3816210311218"></line><line style="stroke: #aaa; stroke-width: 1.41421;" x1="240.66073251865123" y1="444.3899434930059" x2="226.9037800046832" y2="489.89254025361475"></line><line style="stroke: #aaa; stroke-width: 1.41421;" x1="249.35753422117247" y1="439.67103745691793" x2="213.39003089408897" y2="501.3816210311218"></line><line style="stroke: #aaa; stroke-width: 1;" x1="249.35753422117247" y1="439.67103745691793" x2="268.66788444905495" y2="429.90490079018736"></line><line style="stroke: #aaa; stroke-width: 1;" x1="249.35753422117247" y1="439.67103745691793" x2="226.9037800046832" y2="489.89254025361475"></line><line style="stroke: #aaa; stroke-width: 1.41421;" x1="249.35753422117247" y1="439.67103745691793" x2="254.2383225226311" y2="468.9702074677451"></line><line style="stroke: #aaa; stroke-width: 1.41421;" x1="268.66788444905495" y1="429.90490079018736" x2="226.9037800046832" y2="489.89254025361475"></line><line style="stroke: #aaa; stroke-width: 1;" x1="268.66788444905495" y1="429.90490079018736" x2="294.91941181135377" y2="419.5809163169681"></line><line style="stroke: #aaa; stroke-width: 1;" x1="268.66788444905495" y1="429.90490079018736" x2="254.2383225226311" y2="468.9702074677451"></line><line style="stroke: #aaa; stroke-width: 1.41421;" x1="268.66788444905495" y1="429.90490079018736" x2="287.7281911778437" y2="448.9636874977051"></line><line style="stroke: #aaa; stroke-width: 1.41421;" x1="294.91941181135377" y1="419.5809163169681" x2="254.2383225226311" y2="468.9702074677451"></line><line style="stroke: #aaa; stroke-width: 1;" x1="294.91941181135377" y1="419.5809163169681" x2="324.9877125853507" y2="412.248333705247"></line><line style="stroke: #aaa; stroke-width: 1;" x1="294.91941181135377" y1="419.5809163169681" x2="287.7281911778437" y2="448.9636874977051"></line><line style="stroke: #aaa; stroke-width: 1.41421;" x1="294.91941181135377" y1="419.5809163169681" x2="322.278274669639" y2="436.7541166377031"></line><line style="stroke: #aaa; stroke-width: 1.41421;" x1="324.9877125853507" y1="412.248333705247" x2="287.7281911778437" y2="448.9636874977051"></line><line style="stroke: #aaa; stroke-width: 1;" x1="324.9877125853507" y1="412.248333705247" x2="356.94463978867253" y2="409.6863378528308"></line><line style="stroke: #aaa; stroke-width: 1;" x1="324.9877125853507" y1="412.248333705247" x2="322.278274669639" y2="436.7541166377031"></line><line style="stroke: #aaa; stroke-width: 1.41421;" x1="324.9877125853507" y1="412.248333705247" x2="357.71149051993564" y2="432.6933798119955"></line><line style="stroke: #aaa; stroke-width: 1.41421;" x1="356.94463978867253" y1="409.6863378528308" x2="322.278274669639" y2="436.7541166377031"></line><line style="stroke: #aaa; stroke-width: 1;" x1="356.94463978867253" y1="409.6863378528308" x2="389.69805813804373" y2="412.248333705247"></line><line style="stroke: #aaa; stroke-width: 1;" x1="356.94463978867253" y1="409.6863378528308" x2="357.71149051993564" y2="432.6933798119955"></line><line style="stroke: #aaa; stroke-width: 1.41421;" x1="356.94463978867253" y1="409.6863378528308" x2="394.29004239799593" y2="436.7541166377031"></line><line style="stroke: #aaa; stroke-width: 1.41421;" x1="389.69805813804373" y1="412.248333705247" x2="357.71149051993564" y2="432.6933798119955"></line><line style="stroke: #aaa; stroke-width: 1;" x1="389.69805813804373" y1="412.248333705247" x2="422.00003016990223" y2="419.5809163169681"></line><line style="stroke: #aaa; stroke-width: 1;" x1="389.69805813804373" y1="412.248333705247" x2="394.29004239799593" y2="436.7541166377031"></line><line style="stroke: #aaa; stroke-width: 1.41421;" x1="389.69805813804373" y1="412.248333705247" x2="432.2350933987629" y2="448.9636874977051"></line><line style="stroke: #aaa; stroke-width: 1.41421;" x1="422.00003016990223" y1="419.5809163169681" x2="394.29004239799593" y2="436.7541166377031"></line><line style="stroke: #aaa; stroke-width: 1;" x1="422.00003016990223" y1="419.5809163169681" x2="451.2946401169162" y2="429.90490079018736"></line><line style="stroke: #aaa; stroke-width: 1;" x1="422.00003016990223" y1="419.5809163169681" x2="432.2350933987629" y2="448.9636874977051"></line><line style="stroke: #aaa; stroke-width: 1.41421;" x1="422.00003016990223" y1="419.5809163169681" x2="471.14383788539874" y2="468.9709674783807"></line><line style="stroke: #aaa; stroke-width: 1.41421;" x1="451.2946401169162" y1="429.90490079018736" x2="432.2350933987629" y2="448.9636874977051"></line><line style="stroke: #aaa; stroke-width: 1;" x1="451.2946401169162" y1="429.90490079018736" x2="473.3212683562302" y2="439.67103745691793"></line><line style="stroke: #aaa; stroke-width: 1;" x1="451.2946401169162" y1="429.90490079018736" x2="471.14383788539874" y2="468.9709674783807"></line><line style="stroke: #aaa; stroke-width: 1.41421;" x1="451.2946401169162" y1="429.90490079018736" x2="503.9816174153152" y2="489.89254025361475"></line><line style="stroke: #aaa; stroke-width: 1.41421;" x1="473.3212683562302" y1="439.67103745691793" x2="471.14383788539874" y2="468.9709674783807"></line><line style="stroke: #aaa; stroke-width: 1;" x1="473.3212683562302" y1="439.67103745691793" x2="483.0501645018191" y2="444.3899434930059"></line><line style="stroke: #aaa; stroke-width: 1;" x1="473.3212683562302" y1="439.67103745691793" x2="503.9816174153152" y2="489.89254025361475"></line><line style="stroke: #aaa; stroke-width: 1.41421;" x1="473.3212683562302" y1="439.67103745691793" x2="520.2640852711935" y2="501.3816210311218"></line><line style="stroke: #aaa; stroke-width: 1.41421;" x1="483.0501645018191" y1="444.3899434930059" x2="503.9816174153152" y2="489.89254025361475"></line><line style="stroke: #aaa; stroke-width: 1;" x1="213.39003089408897" y1="501.3816210311218" x2="226.9037800046832" y2="489.89254025361475"></line><line style="stroke: #aaa; stroke-width: 1;" x1="213.39003089408897" y1="501.3816210311218" x2="163.15256787404567" y2="581.940468366798"></line><line style="stroke: #aaa; stroke-width: 1.41421;" x1="213.39003089408897" y1="501.3816210311218" x2="189.1365714926333" y2="553.4058690553273"></line><line style="stroke: #aaa; stroke-width: 1.41421;" x1="226.9037800046832" y1="489.89254025361475" x2="163.15256787404567" y2="581.940468366798"></line><line style="stroke: #aaa; stroke-width: 1;" x1="226.9037800046832" y1="489.89254025361475" x2="254.2383225226311" y2="468.9702074677451"></line><line style="stroke: #aaa; stroke-width: 1;" x1="226.9037800046832" y1="489.89254025361475" x2="189.1365714926333" y2="553.4058690553273"></line><line style="stroke: #aaa; stroke-width: 1.41421;" x1="226.9037800046832" y1="489.89254025361475" x2="238.97958899282963" y2="501.9683492417612"></line><line style="stroke: #aaa; stroke-width: 1.41421;" x1="254.2383225226311" y1="468.9702074677451" x2="189.1365714926333" y2="553.4058690553273"></line><line style="stroke: #aaa; stroke-width: 1;" x1="254.2383225226311" y1="468.9702074677451" x2="287.7281911778437" y2="448.9636874977051"></line><line style="stroke: #aaa; stroke-width: 1;" x1="254.2383225226311" y1="468.9702074677451" x2="238.97958899282963" y2="501.9683492417612"></line><line style="stroke: #aaa; stroke-width: 1.41421;" x1="254.2383225226311" y1="468.9702074677451" x2="280.7566136180056" y2="471.0685968324799"></line><line style="stroke: #aaa; stroke-width: 1.41421;" x1="287.7281911778437" y1="448.9636874977051" x2="238.97958899282963" y2="501.9683492417612"></line><line style="stroke: #aaa; stroke-width: 1;" x1="287.7281911778437" y1="448.9636874977051" x2="322.278274669639" y2="436.7541166377031"></line><line style="stroke: #aaa; stroke-width: 1;" x1="287.7281911778437" y1="448.9636874977051" x2="280.7566136180056" y2="471.0685968324799"></line><line style="stroke: #aaa; stroke-width: 1.41421;" x1="287.7281911778437" y1="448.9636874977051" x2="319.7223589023071" y2="454.1028794152483"></line><line style="stroke: #aaa; stroke-width: 1.41421;" x1="322.278274669639" y1="436.7541166377031" x2="280.7566136180056" y2="471.0685968324799"></line><line style="stroke: #aaa; stroke-width: 1;" x1="322.278274669639" y1="436.7541166377031" x2="357.71149051993564" y2="432.6933798119955"></line><line style="stroke: #aaa; stroke-width: 1;" x1="322.278274669639" y1="436.7541166377031" x2="319.7223589023071" y2="454.1028794152483"></line><line style="stroke: #aaa; stroke-width: 1.41421;" x1="322.278274669639" y1="436.7541166377031" x2="358.296698709304" y2="448.6984437859004"></line><line style="stroke: #aaa; stroke-width: 1.41421;" x1="357.71149051993564" y1="432.6933798119955" x2="319.7223589023071" y2="454.1028794152483"></line><line style="stroke: #aaa; stroke-width: 1;" x1="357.71149051993564" y1="432.6933798119955" x2="394.29004239799593" y2="436.7541166377031"></line><line style="stroke: #aaa; stroke-width: 1;" x1="357.71149051993564" y1="432.6933798119955" x2="358.296698709304" y2="448.6984437859004"></line><line style="stroke: #aaa; stroke-width: 1.41421;" x1="357.71149051993564" y1="432.6933798119955" x2="398.35457927688117" y2="454.1028794152483"></line><line style="stroke: #aaa; stroke-width: 1.41421;" x1="394.29004239799593" y1="436.7541166377031" x2="358.296698709304" y2="448.6984437859004"></line><line style="stroke: #aaa; stroke-width: 1;" x1="394.29004239799593" y1="436.7541166377031" x2="432.2350933987629" y2="448.9636874977051"></line><line style="stroke: #aaa; stroke-width: 1;" x1="394.29004239799593" y1="436.7541166377031" x2="398.35457927688117" y2="454.1028794152483"></line><line style="stroke: #aaa; stroke-width: 1.41421;" x1="394.29004239799593" y1="436.7541166377031" x2="441.92218895939703" y2="471.0685968324799"></line><line style="stroke: #aaa; stroke-width: 1.41421;" x1="432.2350933987629" y1="448.9636874977051" x2="398.35457927688117" y2="454.1028794152483"></line><line style="stroke: #aaa; stroke-width: 1;" x1="432.2350933987629" y1="448.9636874977051" x2="471.14383788539874" y2="468.9709674783807"></line><line style="stroke: #aaa; stroke-width: 1;" x1="432.2350933987629" y1="448.9636874977051" x2="441.92218895939703" y2="471.0685968324799"></line><line style="stroke: #aaa; stroke-width: 1.41421;" x1="432.2350933987629" y1="448.9636874977051" x2="491.9050484165333" y2="501.9683492417612"></line><line style="stroke: #aaa; stroke-width: 1.41421;" x1="471.14383788539874" y1="468.9709674783807" x2="441.92218895939703" y2="471.0685968324799"></line><line style="stroke: #aaa; stroke-width: 1;" x1="471.14383788539874" y1="468.9709674783807" x2="503.9816174153152" y2="489.89254025361475"></line><line style="stroke: #aaa; stroke-width: 1;" x1="471.14383788539874" y1="468.9709674783807" x2="491.9050484165333" y2="501.9683492417612"></line><line style="stroke: #aaa; stroke-width: 1.41421;" x1="471.14383788539874" y1="468.9709674783807" x2="555.0322918153897" y2="553.4058690553273"></line><line style="stroke: #aaa; stroke-width: 1.41421;" x1="503.9816174153152" y1="489.89254025361475" x2="491.9050484165333" y2="501.9683492417612"></line><line style="stroke: #aaa; stroke-width: 1;" x1="503.9816174153152" y1="489.89254025361475" x2="520.2640852711935" y2="501.3816210311218"></line><line style="stroke: #aaa; stroke-width: 1;" x1="503.9816174153152" y1="489.89254025361475" x2="555.0322918153897" y2="553.4058690553273"></line><line style="stroke: #aaa; stroke-width: 1.41421;" x1="503.9816174153152" y1="489.89254025361475" x2="588.1953558973187" y2="581.940468366798"></line><line style="stroke: #aaa; stroke-width: 1.41421;" x1="520.2640852711935" y1="501.3816210311218" x2="555.0322918153897" y2="553.4058690553273"></line><line style="stroke: #aaa; stroke-width: 1;" x1="163.15256787404567" y1="581.940468366798" x2="189.1365714926333" y2="553.4058690553273"></line><line style="stroke: #aaa; stroke-width: 1;" x1="163.15256787404567" y1="581.940468366798" x2="20.000050761110348" y2="780"></line><line style="stroke: #aaa; stroke-width: 1.41421;" x1="163.15256787404567" y1="581.940468366798" x2="167.99003556927835" y2="586.7779360620306"></line><line style="stroke: #aaa; stroke-width: 1.41421;" x1="189.1365714926333" y1="553.4058690553273" x2="20.000050761110348" y2="780"></line><line style="stroke: #aaa; stroke-width: 1;" x1="189.1365714926333" y1="553.4058690553273" x2="238.97958899282963" y2="501.9683492417612"></line><line style="stroke: #aaa; stroke-width: 1;" x1="189.1365714926333" y1="553.4058690553273" x2="167.99003556927835" y2="586.7779360620306"></line><line style="stroke: #aaa; stroke-width: 1.41421;" x1="189.1365714926333" y1="553.4058690553273" x2="230.34054809860964" y2="518.331378225007"></line><line style="stroke: #aaa; stroke-width: 1.41421;" x1="238.97958899282963" y1="501.9683492417612" x2="167.99003556927835" y2="586.7779360620306"></line><line style="stroke: #aaa; stroke-width: 1;" x1="238.97958899282963" y1="501.9683492417612" x2="280.7566136180056" y2="471.0685968324799"></line><line style="stroke: #aaa; stroke-width: 1;" x1="238.97958899282963" y1="501.9683492417612" x2="230.34054809860964" y2="518.331378225007"></line><line style="stroke: #aaa; stroke-width: 1.41421;" x1="238.97958899282963" y1="501.9683492417612" x2="277.0994424397715" y2="480.8278934034907"></line><line style="stroke: #aaa; stroke-width: 1.41421;" x1="280.7566136180056" y1="471.0685968324799" x2="230.34054809860964" y2="518.331378225007"></line><line style="stroke: #aaa; stroke-width: 1;" x1="280.7566136180056" y1="471.0685968324799" x2="319.7223589023071" y2="454.1028794152483"></line><line style="stroke: #aaa; stroke-width: 1;" x1="280.7566136180056" y1="471.0685968324799" x2="277.0994424397715" y2="480.8278934034907"></line><line style="stroke: #aaa; stroke-width: 1.41421;" x1="280.7566136180056" y1="471.0685968324799" x2="318.2988589819347" y2="461.4210218248942"></line><line style="stroke: #aaa; stroke-width: 1.41421;" x1="319.7223589023071" y1="454.1028794152483" x2="277.0994424397715" y2="480.8278934034907"></line><line style="stroke: #aaa; stroke-width: 1;" x1="319.7223589023071" y1="454.1028794152483" x2="358.296698709304" y2="448.6984437859004"></line><line style="stroke: #aaa; stroke-width: 1;" x1="319.7223589023071" y1="454.1028794152483" x2="318.2988589819347" y2="461.4210218248942"></line><line style="stroke: #aaa; stroke-width: 1.41421;" x1="319.7223589023071" y1="454.1028794152483" x2="358.3993001451023" y2="455.34929685753923"></line><line style="stroke: #aaa; stroke-width: 1.41421;" x1="358.296698709304" y1="448.6984437859004" x2="318.2988589819347" y2="461.4210218248942"></line><line style="stroke: #aaa; stroke-width: 1;" x1="358.296698709304" y1="448.6984437859004" x2="398.35457927688117" y2="454.1028794152483"></line><line style="stroke: #aaa; stroke-width: 1;" x1="358.296698709304" y1="448.6984437859004" x2="358.3993001451023" y2="455.34929685753923"></line><line style="stroke: #aaa; stroke-width: 1.41421;" x1="358.296698709304" y1="448.6984437859004" x2="400.1611245575674" y2="461.4210218248942"></line><line style="stroke: #aaa; stroke-width: 1.41421;" x1="398.35457927688117" y1="454.1028794152483" x2="358.3993001451023" y2="455.34929685753923"></line><line style="stroke: #aaa; stroke-width: 1;" x1="398.35457927688117" y1="454.1028794152483" x2="441.92218895939703" y2="471.0685968324799"></line><line style="stroke: #aaa; stroke-width: 1;" x1="398.35457927688117" y1="454.1028794152483" x2="400.1611245575674" y2="461.4210218248942"></line><line style="stroke: #aaa; stroke-width: 1.41421;" x1="398.35457927688117" y1="454.1028794152483" x2="446.61145458069876" y2="480.8278934034907"></line><line style="stroke: #aaa; stroke-width: 1.41421;" x1="441.92218895939703" y1="471.0685968324799" x2="400.1611245575674" y2="461.4210218248942"></line><line style="stroke: #aaa; stroke-width: 1;" x1="441.92218895939703" y1="471.0685968324799" x2="491.9050484165333" y2="501.9683492417612"></line><line style="stroke: #aaa; stroke-width: 1;" x1="441.92218895939703" y1="471.0685968324799" x2="446.61145458069876" y2="480.8278934034907"></line><line style="stroke: #aaa; stroke-width: 1.41421;" x1="441.92218895939703" y1="471.0685968324799" x2="503.3135680666727" y2="518.331378225007"></line><line style="stroke: #aaa; stroke-width: 1.41421;" x1="491.9050484165333" y1="501.9683492417612" x2="446.61145458069876" y2="480.8278934034907"></line><line style="stroke: #aaa; stroke-width: 1;" x1="491.9050484165333" y1="501.9683492417612" x2="555.0322918153897" y2="553.4058690553273"></line><line style="stroke: #aaa; stroke-width: 1;" x1="491.9050484165333" y1="501.9683492417612" x2="503.3135680666727" y2="518.331378225007"></line><line style="stroke: #aaa; stroke-width: 1.41421;" x1="491.9050484165333" y1="501.9683492417612" x2="583.3578882020861" y2="586.7779360620306"></line><line style="stroke: #aaa; stroke-width: 1.41421;" x1="555.0322918153897" y1="553.4058690553273" x2="503.3135680666727" y2="518.331378225007"></line><line style="stroke: #aaa; stroke-width: 1;" x1="555.0322918153897" y1="553.4058690553273" x2="588.1953558973187" y2="581.940468366798"></line><line style="stroke: #aaa; stroke-width: 1;" x1="555.0322918153897" y1="553.4058690553273" x2="583.3578882020861" y2="586.7779360620306"></line><line style="stroke: #aaa; stroke-width: 1.41421;" x1="555.0322918153897" y1="553.4058690553273" x2="780" y2="780"></line><line style="stroke: #aaa; stroke-width: 1.41421;" x1="588.1953558973187" y1="581.940468366798" x2="583.3578882020861" y2="586.7779360620306"></line><line style="stroke: #aaa; stroke-width: 1;" x1="780" y1="20.000003959655412" x2="588.1953558973187" y2="166.57565577653241"></line><line style="stroke: #aaa; stroke-width: 1;" x1="588.1953558973187" y1="166.57565577653241" x2="520.2633252605578" y2="228.41088109496542"></line><line style="stroke: #aaa; stroke-width: 1;" x1="520.2633252605578" y1="228.41088109496542" x2="483.0501645018191" y2="274.8802113839853"></line><line style="stroke: #aaa; stroke-width: 1;" x1="483.0501645018191" y1="274.8802113839853" x2="463.7960550609668" y2="315.92686578840426"></line><line style="stroke: #aaa; stroke-width: 1;" x1="463.7960550609668" y1="315.92686578840426" x2="457.77221076365106" y2="355.9786662708971"></line><line style="stroke: #aaa; stroke-width: 1;" x1="457.77221076365106" y1="355.9786662708971" x2="463.7960550609668" y2="397.7876113427659"></line><line style="stroke: #aaa; stroke-width: 1;" x1="463.7960550609668" y1="397.7876113427659" x2="483.0501645018191" y2="444.3899434930059"></line><line style="stroke: #aaa; stroke-width: 1;" x1="483.0501645018191" y1="444.3899434930059" x2="520.2640852711935" y2="501.3816210311218"></line><line style="stroke: #aaa; stroke-width: 1;" x1="520.2640852711935" y1="501.3816210311218" x2="588.1953558973187" y2="581.940468366798"></line><line style="stroke: #aaa; stroke-width: 1;" x1="588.1953558973187" y1="581.940468366798" x2="780" y2="780"></line><line style="stroke: #aaa; stroke-width: 1;" x1="20.000050761110348" y1="780" x2="167.99003556927835" y2="586.7779360620306"></line><line style="stroke: #aaa; stroke-width: 1;" x1="167.99003556927835" y1="586.7779360620306" x2="230.34054809860964" y2="518.331378225007"></line><line style="stroke: #aaa; stroke-width: 1;" x1="230.34054809860964" y1="518.331378225007" x2="277.0994424397715" y2="480.8278934034907"></line><line style="stroke: #aaa; stroke-width: 1;" x1="277.0994424397715" y1="480.8278934034907" x2="318.2988589819347" y2="461.4210218248942"></line><line style="stroke: #aaa; stroke-width: 1;" x1="318.2988589819347" y1="461.4210218248942" x2="358.3993001451023" y2="455.34929685753923"></line><line style="stroke: #aaa; stroke-width: 1;" x1="358.3993001451023" y1="455.34929685753923" x2="400.1611245575674" y2="461.4210218248942"></line><line style="stroke: #aaa; stroke-width: 1;" x1="400.1611245575674" y1="461.4210218248942" x2="446.61145458069876" y2="480.8278934034907"></line><line style="stroke: #aaa; stroke-width: 1;" x1="446.61145458069876" y1="480.8278934034907" x2="503.3135680666727" y2="518.331378225007"></line><line style="stroke: #aaa; stroke-width: 1;" x1="503.3135680666727" y1="518.331378225007" x2="583.3578882020861" y2="586.7779360620306"></line><line style="stroke: #aaa; stroke-width: 1;" x1="583.3578882020861" y1="586.7779360620306" x2="780" y2="780"></line><circle r="10" cx="20.000050373504923" cy="20" style="stroke: #000; fill: #69b3a2;"></circle><circle r="10" cx="167.99003556927835" cy="161.73742807066418" style="stroke: #000; fill: #69b3a2;"></circle><circle r="10" cx="230.33978808797414" cy="211.46112390108024" style="stroke: #000; fill: #69b3a2;"></circle><circle r="10" cx="277.0994424397715" cy="238.44226147350057" style="stroke: #000; fill: #69b3a2;"></circle><circle r="10" cx="318.2988589819347" cy="252.29269529564044" style="stroke: #000; fill: #69b3a2;"></circle><circle r="10" cx="358.3993001451023" cy="256.60727567361937" style="stroke: #000; fill: #69b3a2;"></circle><circle r="10" cx="400.1611245575674" cy="252.29269529564044" style="stroke: #000; fill: #69b3a2;"></circle><circle r="10" cx="446.6106945700632" cy="238.44226147350057" style="stroke: #000; fill: #69b3a2;"></circle><circle r="10" cx="503.3135680666727" cy="211.46112390108024" style="stroke: #000; fill: #69b3a2;"></circle><circle r="10" cx="583.3571281914506" cy="161.73818808129974" style="stroke: #000; fill: #69b3a2;"></circle><circle r="10" cx="780" cy="20.000003959655412" style="stroke: #000; fill: #69b3a2;"></circle><circle r="10" cx="163.15256787404567" cy="166.57565577653241" style="stroke: #000; fill: #69b3a2;"></circle><circle r="10" cx="189.1365714926333" cy="187.51318877511295" style="stroke: #000; fill: #69b3a2;"></circle><circle r="10" cx="238.97958899282963" cy="224.89355187367136" style="stroke: #000; fill: #69b3a2;"></circle><circle r="10" cx="280.75585360737006" cy="247.1094227612356" style="stroke: #000; fill: #69b3a2;"></circle><circle r="10" cx="319.72159889167165" cy="259.20499202590617" style="stroke: #000; fill: #69b3a2;"></circle><circle r="10" cx="358.29593869866846" cy="263.0400056928573" style="stroke: #000; fill: #69b3a2;"></circle><circle r="10" cx="398.3538192662456" cy="259.20499202590617" style="stroke: #000; fill: #69b3a2;"></circle><circle r="10" cx="441.92218895939703" cy="247.1094227612356" style="stroke: #000; fill: #69b3a2;"></circle><circle r="10" cx="491.9050484165333" cy="224.89355187367136" style="stroke: #000; fill: #69b3a2;"></circle><circle r="10" cx="555.0322918153897" cy="187.51318877511295" style="stroke: #000; fill: #69b3a2;"></circle><circle r="10" cx="588.1953558973187" cy="166.57565577653241" style="stroke: #000; fill: #69b3a2;"></circle><circle r="10" cx="213.39003089408897" cy="228.41088109496542" style="stroke: #000; fill: #69b3a2;"></circle><circle r="10" cx="226.90301999404767" cy="236.9693608618178" style="stroke: #000; fill: #69b3a2;"></circle><circle r="10" cx="254.2383225226311" cy="252.0677321475196" style="stroke: #000; fill: #69b3a2;"></circle><circle r="10" cx="287.7274311672081" cy="266.339971872386" style="stroke: #000; fill: #69b3a2;"></circle><circle r="10" cx="322.2775146590035" cy="274.9569724581752" style="stroke: #000; fill: #69b3a2;"></circle><circle r="10" cx="357.7107305093001" cy="277.8062523308268" style="stroke: #000; fill: #69b3a2;"></circle><circle r="10" cx="394.2892823873604" cy="274.9569724581752" style="stroke: #000; fill: #69b3a2;"></circle><circle r="10" cx="432.2350933987629" cy="266.339971872386" style="stroke: #000; fill: #69b3a2;"></circle><circle r="10" cx="471.1430778747632" cy="252.06849215815518" style="stroke: #000; fill: #69b3a2;"></circle><circle r="10" cx="503.98085740467974" cy="236.9693608618178" style="stroke: #000; fill: #69b3a2;"></circle><circle r="10" cx="520.2633252605578" cy="228.41088109496542" style="stroke: #000; fill: #69b3a2;"></circle><circle r="10" cx="240.66073251865123" cy="274.8802113839853" style="stroke: #000; fill: #69b3a2;"></circle><circle r="10" cx="249.35753422117247" cy="278.5069821367976" style="stroke: #000; fill: #69b3a2;"></circle><circle r="10" cx="268.66788444905495" cy="285.39951859053923" style="stroke: #000; fill: #69b3a2;"></circle><circle r="10" cx="294.91941181135377" cy="292.50257799032624" style="stroke: #000; fill: #69b3a2;"></circle><circle r="10" cx="324.9877125853507" cy="297.47152752550795" style="stroke: #000; fill: #69b3a2;"></circle><circle r="10" cx="356.94463978867253" cy="299.19143159374227" style="stroke: #000; fill: #69b3a2;"></circle><circle r="10" cx="389.69729812740815" cy="297.47152752550795" style="stroke: #000; fill: #69b3a2;"></circle><circle r="10" cx="421.9992701592667" cy="292.50333800096183" style="stroke: #000; fill: #69b3a2;"></circle><circle r="10" cx="451.2946401169162" cy="285.39951859053923" style="stroke: #000; fill: #69b3a2;"></circle><circle r="10" cx="473.32050834559465" cy="278.5069821367976" style="stroke: #000; fill: #69b3a2;"></circle><circle r="10" cx="483.0501645018191" cy="274.8802113839853" style="stroke: #000; fill: #69b3a2;"></circle><circle r="10" cx="254.6639284785353" cy="315.9261057777687" style="stroke: #000; fill: #69b3a2;"></circle><circle r="10" cx="261.58762536833416" cy="317.33820553860807" style="stroke: #000; fill: #69b3a2;"></circle><circle r="10" cx="277.38368641746473" cy="319.8500406890784" style="stroke: #000; fill: #69b3a2;"></circle><circle r="10" cx="299.9529622505566" cy="322.5055178496665" style="stroke: #000; fill: #69b3a2;"></circle><circle r="10" cx="326.9515800675945" cy="324.42682473631976" style="stroke: #000; fill: #69b3a2;"></circle><circle r="10" cx="356.3244711100693" cy="325.1169143933931" style="stroke: #000; fill: #69b3a2;"></circle><circle r="10" cx="386.2514099058552" cy="324.42682473631976" style="stroke: #000; fill: #69b3a2;"></circle><circle r="10" cx="414.7328084728378" cy="322.5055178496665" style="stroke: #000; fill: #69b3a2;"></circle><circle r="10" cx="439.18387063953475" cy="319.85080069971394" style="stroke: #000; fill: #69b3a2;"></circle><circle r="10" cx="456.4885528002186" cy="317.33820553860807" style="stroke: #000; fill: #69b3a2;"></circle><circle r="10" cx="463.7960550609668" cy="315.92686578840426" style="stroke: #000; fill: #69b3a2;"></circle><circle r="10" cx="259.02638952655343" cy="355.97790626026153" style="stroke: #000; fill: #69b3a2;"></circle><circle r="10" cx="265.46519963087576" cy="355.8692247393789" style="stroke: #000; fill: #69b3a2;"></circle><circle r="10" cx="280.2656467474447" cy="355.24981607141115" style="stroke: #000; fill: #69b3a2;"></circle><circle r="10" cx="301.6956666378572" cy="354.4388847232865" style="stroke: #000; fill: #69b3a2;"></circle><circle r="10" cx="327.65838995864965" cy="353.7822355341772" style="stroke: #000; fill: #69b3a2;"></circle><circle r="10" cx="356.0888678130509" cy="353.5329520457189" style="stroke: #000; fill: #69b3a2;"></circle><circle r="10" cx="384.99055226148903" cy="353.7822355341772" style="stroke: #000; fill: #69b3a2;"></circle><circle r="10" cx="412.1936129394879" cy="354.4388847232865" style="stroke: #000; fill: #69b3a2;"></circle><circle r="10" cx="435.1558142711556" cy="355.24981607141115" style="stroke: #000; fill: #69b3a2;"></circle><circle r="10" cx="451.1281977877322" cy="355.8692247393789" style="stroke: #000; fill: #69b3a2;"></circle><circle r="10" cx="457.77221076365106" cy="355.9786662708971" style="stroke: #000; fill: #69b3a2;"></circle><circle r="10" cx="254.6639284785353" cy="397.7876113427659" style="stroke: #000; fill: #69b3a2;"></circle><circle r="10" cx="261.58762536833416" cy="395.9696659025464" style="stroke: #000; fill: #69b3a2;"></circle><circle r="10" cx="277.38368641746473" cy="391.8610484067998" style="stroke: #000; fill: #69b3a2;"></circle><circle r="10" cx="299.9529622505566" cy="387.21434338108844" style="stroke: #000; fill: #69b3a2;"></circle><circle r="10" cx="326.9515800675945" cy="383.72513455330943" style="stroke: #000; fill: #69b3a2;"></circle><circle r="10" cx="356.3244711100693" cy="382.4475566749613" style="stroke: #000; fill: #69b3a2;"></circle><circle r="10" cx="386.2514099058552" cy="383.72513455330943" style="stroke: #000; fill: #69b3a2;"></circle><circle r="10" cx="414.7328084728378" cy="387.21434338108844" style="stroke: #000; fill: #69b3a2;"></circle><circle r="10" cx="439.18387063953475" cy="391.8610484067998" style="stroke: #000; fill: #69b3a2;"></circle><circle r="10" cx="456.4885528002186" cy="395.9696659025464" style="stroke: #000; fill: #69b3a2;"></circle><circle r="10" cx="463.7960550609668" cy="397.7876113427659" style="stroke: #000; fill: #69b3a2;"></circle><circle r="10" cx="240.66073251865123" cy="444.3899434930059" style="stroke: #000; fill: #69b3a2;"></circle><circle r="10" cx="249.35753422117247" cy="439.67103745691793" style="stroke: #000; fill: #69b3a2;"></circle><circle r="10" cx="268.66788444905495" cy="429.90490079018736" style="stroke: #000; fill: #69b3a2;"></circle><circle r="10" cx="294.91941181135377" cy="419.5809163169681" style="stroke: #000; fill: #69b3a2;"></circle><circle r="10" cx="324.9877125853507" cy="412.248333705247" style="stroke: #000; fill: #69b3a2;"></circle><circle r="10" cx="356.94463978867253" cy="409.6863378528308" style="stroke: #000; fill: #69b3a2;"></circle><circle r="10" cx="389.69805813804373" cy="412.248333705247" style="stroke: #000; fill: #69b3a2;"></circle><circle r="10" cx="422.00003016990223" cy="419.5809163169681" style="stroke: #000; fill: #69b3a2;"></circle><circle r="10" cx="451.2946401169162" cy="429.90490079018736" style="stroke: #000; fill: #69b3a2;"></circle><circle r="10" cx="473.3212683562302" cy="439.67103745691793" style="stroke: #000; fill: #69b3a2;"></circle><circle r="10" cx="483.0501645018191" cy="444.3899434930059" style="stroke: #000; fill: #69b3a2;"></circle><circle r="10" cx="213.39003089408897" cy="501.3816210311218" style="stroke: #000; fill: #69b3a2;"></circle><circle r="10" cx="226.9037800046832" cy="489.89254025361475" style="stroke: #000; fill: #69b3a2;"></circle><circle r="10" cx="254.2383225226311" cy="468.9702074677451" style="stroke: #000; fill: #69b3a2;"></circle><circle r="10" cx="287.7281911778437" cy="448.9636874977051" style="stroke: #000; fill: #69b3a2;"></circle><circle r="10" cx="322.278274669639" cy="436.7541166377031" style="stroke: #000; fill: #69b3a2;"></circle><circle r="10" cx="357.71149051993564" cy="432.6933798119955" style="stroke: #000; fill: #69b3a2;"></circle><circle r="10" cx="394.29004239799593" cy="436.7541166377031" style="stroke: #000; fill: #69b3a2;"></circle><circle r="10" cx="432.2350933987629" cy="448.9636874977051" style="stroke: #000; fill: #69b3a2;"></circle><circle r="10" cx="471.14383788539874" cy="468.9709674783807" style="stroke: #000; fill: #69b3a2;"></circle><circle r="10" cx="503.9816174153152" cy="489.89254025361475" style="stroke: #000; fill: #69b3a2;"></circle><circle r="10" cx="520.2640852711935" cy="501.3816210311218" style="stroke: #000; fill: #69b3a2;"></circle><circle r="10" cx="163.15256787404567" cy="581.940468366798" style="stroke: #000; fill: #69b3a2;"></circle><circle r="10" cx="189.1365714926333" cy="553.4058690553273" style="stroke: #000; fill: #69b3a2;"></circle><circle r="10" cx="238.97958899282963" cy="501.9683492417612" style="stroke: #000; fill: #69b3a2;"></circle><circle r="10" cx="280.7566136180056" cy="471.0685968324799" style="stroke: #000; fill: #69b3a2;"></circle><circle r="10" cx="319.7223589023071" cy="454.1028794152483" style="stroke: #000; fill: #69b3a2;"></circle><circle r="10" cx="358.296698709304" cy="448.6984437859004" style="stroke: #000; fill: #69b3a2;"></circle><circle r="10" cx="398.35457927688117" cy="454.1028794152483" style="stroke: #000; fill: #69b3a2;"></circle><circle r="10" cx="441.92218895939703" cy="471.0685968324799" style="stroke: #000; fill: #69b3a2;"></circle><circle r="10" cx="491.9050484165333" cy="501.9683492417612" style="stroke: #000; fill: #69b3a2;"></circle><circle r="10" cx="555.0322918153897" cy="553.4058690553273" style="stroke: #000; fill: #69b3a2;"></circle><circle r="10" cx="588.1953558973187" cy="581.940468366798" style="stroke: #000; fill: #69b3a2;"></circle><circle r="10" cx="20.000050761110348" cy="780" style="stroke: #000; fill: #69b3a2;"></circle><circle r="10" cx="167.99003556927835" cy="586.7779360620306" style="stroke: #000; fill: #69b3a2;"></circle><circle r="10" cx="230.34054809860964" cy="518.331378225007" style="stroke: #000; fill: #69b3a2;"></circle><circle r="10" cx="277.0994424397715" cy="480.8278934034907" style="stroke: #000; fill: #69b3a2;"></circle><circle r="10" cx="318.2988589819347" cy="461.4210218248942" style="stroke: #000; fill: #69b3a2;"></circle><circle r="10" cx="358.3993001451023" cy="455.34929685753923" style="stroke: #000; fill: #69b3a2;"></circle><circle r="10" cx="400.1611245575674" cy="461.4210218248942" style="stroke: #000; fill: #69b3a2;"></circle><circle r="10" cx="446.61145458069876" cy="480.8278934034907" style="stroke: #000; fill: #69b3a2;"></circle><circle r="10" cx="503.3135680666727" cy="518.331378225007" style="stroke: #000; fill: #69b3a2;"></circle><circle r="10" cx="583.3578882020861" cy="586.7779360620306" style="stroke: #000; fill: #69b3a2;"></circle><circle r="10" cx="780" cy="780" style="stroke: #000; fill: #69b3a2;"></circle></svg>