<svg width="800" height="800" xmlns="http://www.w3.org/2000/svg"><line style="stroke: #aaa; stroke-width: 1;" x1="20" y1="20.00323704507647" x2="140.76638117125503" y2="49.82058654432443"></line><line style="stroke: #aaa; stroke-width: 1;" x1="20" y1="20.00323704507647" x2="53.70581888336871" y2="122.02004583453106"></line><line style="stroke: #aaa; stroke-width: 1.41421;" x1="20" y1="20.00323704507647" x2="113.00332150002637" y2="130.9402492662642"></line><line style="stroke: #aaa; stroke-width: 1.41421;" x1="140.76638117125503" y1="49.82058654432443" x2="53.70581888336871" y2="122.02004583453106"></line><line style="stroke: #aaa; stroke-width: 1;" x1="140.76638117125503" y1="49.82058654432443" x2="223.76219744108414" y2="153.3353787305975"></line><line style="stroke: #aaa; stroke-width: 1;" x1="140.76638117125503" y1="49.82058654432443" x2="113.00332150002637" y2="130.9402492662642"></line><line style="stroke: #aaa; stroke-width: 1.41421;" x1="140.76638117125503" y1="49.82058654432443" x2="204.66853885580412" y2="140.3422972047468"></line><line style="stroke: #aaa; stroke-width: 1.41421;" x1="223.76219744108414" y1="153.3353787305975" x2="113.00332150002637" y2="130.9402492662642"></line><line style="stroke: #aaa; stroke-width: 1;" x1="223.76219744108414" y1="153.3353787305975" x2="311.315776340214" y2="212.83329522175018"></line><line style="stroke: #aaa; stroke-width: 1;" x1="223.76219744108414" y1="153.3353787305975" x2="204.66853885580412" y2="140.3422972047468"></line><line style="stroke: #aaa; stroke-width: 1.41421;" x1="223.76219744108414" y1="153.3353787305975" x2="325.0916651877555" y2="136.095377482797"></line><line style="stroke: #aaa; stroke-width: 1.41421;" x1="311.315776340214" y1="212.83329522175018" x2="204.66853885580412" y2="140.3422972047468"></line><line style="stroke: #aaa; stroke-width: 1;" x1="311.315776340214" y1="212.83329522175018" x2="405.5292975305833" y2="228.2287592173724"></line><line style="stroke: #aaa; stroke-width: 1;" x1="311.315776340214" y1="212.83329522175018" x2="325.0916651877555" y2="136.095377482797"></line><line style="stroke: #aaa; stroke-width: 1.41421;" x1="311.315776340214" y1="212.83329522175018" x2="418.1598556657092" y2="153.76022270421416"></line><line style="stroke: #aaa; stroke-width: 1.41421;" x1="405.5292975305833" y1="228.2287592173724" x2="325.0916651877555" y2="136.095377482797"></line><line style="stroke: #aaa; stroke-width: 1;" x1="405.5292975305833" y1="228.2287592173724" x2="470.10786154164197" y2="254.38060381871318"></line><line style="stroke: #aaa; stroke-width: 1;" x1="405.5292975305833" y1="228.2287592173724" x2="418.1598556657092" y2="153.76022270421416"></line><line style="stroke: #aaa; stroke-width: 1.41421;" x1="405.5292975305833" y1="228.2287592173724" x2="496.73319057153935" y2="168.69360237790627"></line><line style="stroke: #aaa; stroke-width: 1.41421;" x1="470.10786154164197" y1="254.38060381871318" x2="418.1598556657092" y2="153.76022270421416"></line><line style="stroke: #aaa; stroke-width: 1;" x1="470.10786154164197" y1="254.38060381871318" x2="443.03032828222405" y2="238.23121277152077"></line><line style="stroke: #aaa; stroke-width: 1;" x1="470.10786154164197" y1="254.38060381871318" x2="496.73319057153935" y2="168.69360237790627"></line><line style="stroke: #aaa; stroke-width: 1.41421;" x1="470.10786154164197" y1="254.38060381871318" x2="556.2729074536562" y2="245.97948524204298"></line><line style="stroke: #aaa; stroke-width: 1.41421;" x1="443.03032828222405" y1="238.23121277152077" x2="496.73319057153935" y2="168.69360237790627"></line><line style="stroke: #aaa; stroke-width: 1;" x1="443.03032828222405" y1="238.23121277152077" x2="506.14815863086545" y2="145.00342080079514"></line><line style="stroke: #aaa; stroke-width: 1;" x1="443.03032828222405" y1="238.23121277152077" x2="556.2729074536562" y2="245.97948524204298"></line><line style="stroke: #aaa; stroke-width: 1.41421;" x1="443.03032828222405" y1="238.23121277152077" x2="502.9842490384393" y2="209.12826056811647"></line><line style="stroke: #aaa; stroke-width: 1.41421;" x1="506.14815863086545" y1="145.00342080079514" x2="556.2729074536562" y2="245.97948524204298"></line><line style="stroke: #aaa; stroke-width: 1;" x1="506.14815863086545" y1="145.00342080079514" x2="609.7629677526089" y2="164.8259262030669"></line><line style="stroke: #aaa; stroke-width: 1;" x1="506.14815863086545" y1="145.00342080079514" x2="502.9842490384393" y2="209.12826056811647"></line><line style="stroke: #aaa; stroke-width: 1.41421;" x1="506.14815863086545" y1="145.00342080079514" x2="607.8751100952496" y2="189.2548346895794"></line><line style="stroke: #aaa; stroke-width: 1.41421;" x1="609.7629677526089" y1="164.8259262030669" x2="502.9842490384393" y2="209.12826056811647"></line><line style="stroke: #aaa; stroke-width: 1;" x1="609.7629677526089" y1="164.8259262030669" x2="720.7635259541499" y2="129.45747539770227"></line><line style="stroke: #aaa; stroke-width: 1;" x1="609.7629677526089" y1="164.8259262030669" x2="607.8751100952496" y2="189.2548346895794"></line><line style="stroke: #aaa; stroke-width: 1.41421;" x1="609.7629677526089" y1="164.8259262030669" x2="658.2681414273188" y2="93.64046839693778"></line><line style="stroke: #aaa; stroke-width: 1.41421;" x1="720.7635259541499" y1="129.45747539770227" x2="607.8751100952496" y2="189.2548346895794"></line><line style="stroke: #aaa; stroke-width: 1;" x1="720.7635259541499" y1="129.45747539770227" x2="779.9992399928915" y2="20.00442641820082"></line><line style="stroke: #aaa; stroke-width: 1;" x1="720.7635259541499" y1="129.45747539770227" x2="658.2681414273188" y2="93.64046839693778"></line><line style="stroke: #aaa; stroke-width: 1.41421;" x1="720.7635259541499" y1="129.45747539770227" x2="665.0732450762699" y2="75.44095817473472"></line><line style="stroke: #aaa; stroke-width: 1.41421;" x1="779.9992399928915" y1="20.00442641820082" x2="658.2681414273188" y2="93.64046839693778"></line><line style="stroke: #aaa; stroke-width: 1;" x1="53.70581888336871" y1="122.02004583453106" x2="113.00332150002637" y2="130.9402492662642"></line><line style="stroke: #aaa; stroke-width: 1;" x1="53.70581888336871" y1="122.02004583453106" x2="46.729105629332444" y2="224.9136082103672"></line><line style="stroke: #aaa; stroke-width: 1.41421;" x1="53.70581888336871" y1="122.02004583453106" x2="129.57755652083546" y2="216.11880595152627"></line><line style="stroke: #aaa; stroke-width: 1.41421;" x1="113.00332150002637" y1="130.9402492662642" x2="46.729105629332444" y2="224.9136082103672"></line><line style="stroke: #aaa; stroke-width: 1;" x1="113.00332150002637" y1="130.9402492662642" x2="204.66853885580412" y2="140.3422972047468"></line><line style="stroke: #aaa; stroke-width: 1;" x1="113.00332150002637" y1="130.9402492662642" x2="129.57755652083546" y2="216.11880595152627"></line><line style="stroke: #aaa; stroke-width: 1.41421;" x1="113.00332150002637" y1="130.9402492662642" x2="216.6751311549027" y2="238.67885695839058"></line><line style="stroke: #aaa; stroke-width: 1.41421;" x1="204.66853885580412" y1="140.3422972047468" x2="129.57755652083546" y2="216.11880595152627"></line><line style="stroke: #aaa; stroke-width: 1;" x1="204.66853885580412" y1="140.3422972047468" x2="325.0916651877555" y2="136.095377482797"></line><line style="stroke: #aaa; stroke-width: 1;" x1="204.66853885580412" y1="140.3422972047468" x2="216.6751311549027" y2="238.67885695839058"></line><line style="stroke: #aaa; stroke-width: 1.41421;" x1="204.66853885580412" y1="140.3422972047468" x2="329.74442870561097" y2="185.09987582775057"></line><line style="stroke: #aaa; stroke-width: 1.41421;" x1="325.0916651877555" y1="136.095377482797" x2="216.6751311549027" y2="238.67885695839058"></line><line style="stroke: #aaa; stroke-width: 1;" x1="325.0916651877555" y1="136.095377482797" x2="418.1598556657092" y2="153.76022270421416"></line><line style="stroke: #aaa; stroke-width: 1;" x1="325.0916651877555" y1="136.095377482797" x2="329.74442870561097" y2="185.09987582775057"></line><line style="stroke: #aaa; stroke-width: 1.41421;" x1="325.0916651877555" y1="136.095377482797" x2="394.73871660498503" y2="238.85973865019872"></line><line style="stroke: #aaa; stroke-width: 1.41421;" x1="418.1598556657092" y1="153.76022270421416" x2="329.74442870561097" y2="185.09987582775057"></line><line style="stroke: #aaa; stroke-width: 1;" x1="418.1598556657092" y1="153.76022270421416" x2="496.73319057153935" y2="168.69360237790627"></line><line style="stroke: #aaa; stroke-width: 1;" x1="418.1598556657092" y1="153.76022270421416" x2="394.73871660498503" y2="238.85973865019872"></line><line style="stroke: #aaa; stroke-width: 1.41421;" x1="418.1598556657092" y1="153.76022270421416" x2="446.10911707850505" y2="255.74709659968408"></line><line style="stroke: #aaa; stroke-width: 1.41421;" x1="496.73319057153935" y1="168.69360237790627" x2="394.73871660498503" y2="238.85973865019872"></line><line style="stroke: #aaa; stroke-width: 1;" x1="496.73319057153935" y1="168.69360237790627" x2="556.2729074536562" y2="245.97948524204298"></line><line style="stroke: #aaa; stroke-width: 1;" x1="496.73319057153935" y1="168.69360237790627" x2="446.10911707850505" y2="255.74709659968408"></line><line style="stroke: #aaa; stroke-width: 1.41421;" x1="496.73319057153935" y1="168.69360237790627" x2="543.9311520197366" y2="263.4550886934592"></line><line style="stroke: #aaa; stroke-width: 1.41421;" x1="556.2729074536562" y1="245.97948524204298" x2="446.10911707850505" y2="255.74709659968408"></line><line style="stroke: #aaa; stroke-width: 1;" x1="556.2729074536562" y1="245.97948524204298" x2="502.9842490384393" y2="209.12826056811647"></line><line style="stroke: #aaa; stroke-width: 1;" x1="556.2729074536562" y1="245.97948524204298" x2="543.9311520197366" y2="263.4550886934592"></line><line style="stroke: #aaa; stroke-width: 1.41421;" x1="556.2729074536562" y1="245.97948524204298" x2="553.5520820054492" y2="151.65044297119115"></line><line style="stroke: #aaa; stroke-width: 1.41421;" x1="502.9842490384393" y1="209.12826056811647" x2="543.9311520197366" y2="263.4550886934592"></line><line style="stroke: #aaa; stroke-width: 1;" x1="502.9842490384393" y1="209.12826056811647" x2="607.8751100952496" y2="189.2548346895794"></line><line style="stroke: #aaa; stroke-width: 1;" x1="502.9842490384393" y1="209.12826056811647" x2="553.5520820054492" y2="151.65044297119115"></line><line style="stroke: #aaa; stroke-width: 1.41421;" x1="502.9842490384393" y1="209.12826056811647" x2="610.0684906102009" y2="208.78625736931951"></line><line style="stroke: #aaa; stroke-width: 1.41421;" x1="607.8751100952496" y1="189.2548346895794" x2="553.5520820054492" y2="151.65044297119115"></line><line style="stroke: #aaa; stroke-width: 1;" x1="607.8751100952496" y1="189.2548346895794" x2="658.2681414273188" y2="93.64046839693778"></line><line style="stroke: #aaa; stroke-width: 1;" x1="607.8751100952496" y1="189.2548346895794" x2="610.0684906102009" y2="208.78625736931951"></line><line style="stroke: #aaa; stroke-width: 1.41421;" x1="607.8751100952496" y1="189.2548346895794" x2="688.1987413718119" y2="198.25635888191536"></line><line style="stroke: #aaa; stroke-width: 1.41421;" x1="658.2681414273188" y1="93.64046839693778" x2="610.0684906102009" y2="208.78625736931951"></line><line style="stroke: #aaa; stroke-width: 1;" x1="658.2681414273188" y1="93.64046839693778" x2="665.0732450762699" y2="75.44095817473472"></line><line style="stroke: #aaa; stroke-width: 1;" x1="658.2681414273188" y1="93.64046839693778" x2="688.1987413718119" y2="198.25635888191536"></line><line style="stroke: #aaa; stroke-width: 1.41421;" x1="658.2681414273188" y1="93.64046839693778" x2="639.29076392963" y2="190.01636181223398"></line><line style="stroke: #aaa; stroke-width: 1.41421;" x1="665.0732450762699" y1="75.44095817473472" x2="688.1987413718119" y2="198.25635888191536"></line><line style="stroke: #aaa; stroke-width: 1;" x1="46.729105629332444" y1="224.9136082103672" x2="129.57755652083546" y2="216.11880595152627"></line><line style="stroke: #aaa; stroke-width: 1;" x1="46.729105629332444" y1="224.9136082103672" x2="66.02492610545684" y2="308.96963439646686"></line><line style="stroke: #aaa; stroke-width: 1.41421;" x1="46.729105629332444" y1="224.9136082103672" x2="141.6586295165609" y2="292.5633609466225"></line><line style="stroke: #aaa; stroke-width: 1.41421;" x1="129.57755652083546" y1="216.11880595152627" x2="66.02492610545684" y2="308.96963439646686"></line><line style="stroke: #aaa; stroke-width: 1;" x1="129.57755652083546" y1="216.11880595152627" x2="216.6751311549027" y2="238.67885695839058"></line><line style="stroke: #aaa; stroke-width: 1;" x1="129.57755652083546" y1="216.11880595152627" x2="141.6586295165609" y2="292.5633609466225"></line><line style="stroke: #aaa; stroke-width: 1.41421;" x1="129.57755652083546" y1="216.11880595152627" x2="237.74632823633752" y2="266.8158401269706"></line><line style="stroke: #aaa; stroke-width: 1.41421;" x1="216.6751311549027" y1="238.67885695839058" x2="141.6586295165609" y2="292.5633609466225"></line><line style="stroke: #aaa; stroke-width: 1;" x1="216.6751311549027" y1="238.67885695839058" x2="329.74442870561097" y2="185.09987582775057"></line><line style="stroke: #aaa; stroke-width: 1;" x1="216.6751311549027" y1="238.67885695839058" x2="237.74632823633752" y2="266.8158401269706"></line><line style="stroke: #aaa; stroke-width: 1.41421;" x1="216.6751311549027" y1="238.67885695839058" x2="292.85444366915414" y2="209.59946497534784"></line><line style="stroke: #aaa; stroke-width: 1.41421;" x1="329.74442870561097" y1="185.09987582775057" x2="237.74632823633752" y2="266.8158401269706"></line><line style="stroke: #aaa; stroke-width: 1;" x1="329.74442870561097" y1="185.09987582775057" x2="394.73871660498503" y2="238.85973865019872"></line><line style="stroke: #aaa; stroke-width: 1;" x1="329.74442870561097" y1="185.09987582775057" x2="292.85444366915414" y2="209.59946497534784"></line><line style="stroke: #aaa; stroke-width: 1.41421;" x1="329.74442870561097" y1="185.09987582775057" x2="330.1897928711555" y2="313.10255305215094"></line><line style="stroke: #aaa; stroke-width: 1.41421;" x1="394.73871660498503" y1="238.85973865019872" x2="292.85444366915414" y2="209.59946497534784"></line><line style="stroke: #aaa; stroke-width: 1;" x1="394.73871660498503" y1="238.85973865019872" x2="446.10911707850505" y2="255.74709659968408"></line><line style="stroke: #aaa; stroke-width: 1;" x1="394.73871660498503" y1="238.85973865019872" x2="330.1897928711555" y2="313.10255305215094"></line><line style="stroke: #aaa; stroke-width: 1.41421;" x1="394.73871660498503" y1="238.85973865019872" x2="443.56613329367264" y2="341.7616611042277"></line><line style="stroke: #aaa; stroke-width: 1.41421;" x1="446.10911707850505" y1="255.74709659968408" x2="330.1897928711555" y2="313.10255305215094"></line><line style="stroke: #aaa; stroke-width: 1;" x1="446.10911707850505" y1="255.74709659968408" x2="543.9311520197366" y2="263.4550886934592"></line><line style="stroke: #aaa; stroke-width: 1;" x1="446.10911707850505" y1="255.74709659968408" x2="443.56613329367264" y2="341.7616611042277"></line><line style="stroke: #aaa; stroke-width: 1.41421;" x1="446.10911707850505" y1="255.74709659968408" x2="542.0068140211723" y2="277.5448604767854"></line><line style="stroke: #aaa; stroke-width: 1.41421;" x1="543.9311520197366" y1="263.4550886934592" x2="443.56613329367264" y2="341.7616611042277"></line><line style="stroke: #aaa; stroke-width: 1;" x1="543.9311520197366" y1="263.4550886934592" x2="553.5520820054492" y2="151.65044297119115"></line><line style="stroke: #aaa; stroke-width: 1;" x1="543.9311520197366" y1="263.4550886934592" x2="542.0068140211723" y2="277.5448604767854"></line><line style="stroke: #aaa; stroke-width: 1.41421;" x1="543.9311520197366" y1="263.4550886934592" x2="488.0949497770366" y2="245.38135964770254"></line><line style="stroke: #aaa; stroke-width: 1.41421;" x1="553.5520820054492" y1="151.65044297119115" x2="542.0068140211723" y2="277.5448604767854"></line><line style="stroke: #aaa; stroke-width: 1;" x1="553.5520820054492" y1="151.65044297119115" x2="610.0684906102009" y2="208.78625736931951"></line><line style="stroke: #aaa; stroke-width: 1;" x1="553.5520820054492" y1="151.65044297119115" x2="488.0949497770366" y2="245.38135964770254"></line><line style="stroke: #aaa; stroke-width: 1.41421;" x1="553.5520820054492" y1="151.65044297119115" x2="574.8702813971263" y2="252.95635049750095"></line><line style="stroke: #aaa; stroke-width: 1.41421;" x1="610.0684906102009" y1="208.78625736931951" x2="488.0949497770366" y2="245.38135964770254"></line><line style="stroke: #aaa; stroke-width: 1;" x1="610.0684906102009" y1="208.78625736931951" x2="688.1987413718119" y2="198.25635888191536"></line><line style="stroke: #aaa; stroke-width: 1;" x1="610.0684906102009" y1="208.78625736931951" x2="574.8702813971263" y2="252.95635049750095"></line><line style="stroke: #aaa; stroke-width: 1.41421;" x1="610.0684906102009" y1="208.78625736931951" x2="631.1602078835635" y2="300.23335268497567"></line><line style="stroke: #aaa; stroke-width: 1.41421;" x1="688.1987413718119" y1="198.25635888191536" x2="574.8702813971263" y2="252.95635049750095"></line><line style="stroke: #aaa; stroke-width: 1;" x1="688.1987413718119" y1="198.25635888191536" x2="639.29076392963" y2="190.01636181223398"></line><line style="stroke: #aaa; stroke-width: 1;" x1="688.1987413718119" y1="198.25635888191536" x2="631.1602078835635" y2="300.23335268497567"></line><line style="stroke: #aaa; stroke-width: 1.41421;" x1="688.1987413718119" y1="198.25635888191536" x2="637.0935833791365" y2="295.90055215977236"></line><line style="stroke: #aaa; stroke-width: 1.41421;" x1="639.29076392963" y1="190.01636181223398" x2="631.1602078835635" y2="300.23335268497567"></line><line style="stroke: #aaa; stroke-width: 1;" x1="66.02492610545684" y1="308.96963439646686" x2="141.6586295165609" y2="292.5633609466225"></line><line style="stroke: #aaa; stroke-width: 1;" x1="66.02492610545684" y1="308.96963439646686" x2="100.16832145273071" y2="389.8875912318273"></line><line style="stroke: #aaa; stroke-width: 1.41421;" x1="66.02492610545684" y1="308.96963439646686" x2="170.20449650948035" y2="342.8872316318239"></line><line style="stroke: #aaa; stroke-width: 1.41421;" x1="141.6586295165609" y1="292.5633609466225" x2="100.16832145273071" y2="389.8875912318273"></line><line style="stroke: #aaa; stroke-width: 1;" x1="141.6586295165609" y1="292.5633609466225" x2="237.74632823633752" y2="266.8158401269706"></line><line style="stroke: #aaa; stroke-width: 1;" x1="141.6586295165609" y1="292.5633609466225" x2="170.20449650948035" y2="342.8872316318239"></line><line style="stroke: #aaa; stroke-width: 1.41421;" x1="141.6586295165609" y1="292.5633609466225" x2="269.2205026180674" y2="325.4427884718537"></line><line style="stroke: #aaa; stroke-width: 1.41421;" x1="237.74632823633752" y1="266.8158401269706" x2="170.20449650948035" y2="342.8872316318239"></line><line style="stroke: #aaa; stroke-width: 1;" x1="237.74632823633752" y1="266.8158401269706" x2="292.85444366915414" y2="209.59946497534784"></line><line style="stroke: #aaa; stroke-width: 1;" x1="237.74632823633752" y1="266.8158401269706" x2="269.2205026180674" y2="325.4427884718537"></line><line style="stroke: #aaa; stroke-width: 1.41421;" x1="237.74632823633752" y1="266.8158401269706" x2="368.5861119965358" y2="300.0441109149747"></line><line style="stroke: #aaa; stroke-width: 1.41421;" x1="292.85444366915414" y1="209.59946497534784" x2="269.2205026180674" y2="325.4427884718537"></line><line style="stroke: #aaa; stroke-width: 1;" x1="292.85444366915414" y1="209.59946497534784" x2="330.1897928711555" y2="313.10255305215094"></line><line style="stroke: #aaa; stroke-width: 1;" x1="292.85444366915414" y1="209.59946497534784" x2="368.5861119965358" y2="300.0441109149747"></line><line style="stroke: #aaa; stroke-width: 1.41421;" x1="292.85444366915414" y1="209.59946497534784" x2="364.3407122888029" y2="308.46422966935575"></line><line style="stroke: #aaa; stroke-width: 1.41421;" x1="330.1897928711555" y1="313.10255305215094" x2="368.5861119965358" y2="300.0441109149747"></line><line style="stroke: #aaa; stroke-width: 1;" x1="330.1897928711555" y1="313.10255305215094" x2="443.56613329367264" y2="341.7616611042277"></line><line style="stroke: #aaa; stroke-width: 1;" x1="330.1897928711555" y1="313.10255305215094" x2="364.3407122888029" y2="308.46422966935575"></line><line style="stroke: #aaa; stroke-width: 1.41421;" x1="330.1897928711555" y1="313.10255305215094" x2="447.51969027176546" y2="305.81332487512515"></line><line style="stroke: #aaa; stroke-width: 1.41421;" x1="443.56613329367264" y1="341.7616611042277" x2="364.3407122888029" y2="308.46422966935575"></line><line style="stroke: #aaa; stroke-width: 1;" x1="443.56613329367264" y1="341.7616611042277" x2="542.0068140211723" y2="277.5448604767854"></line><line style="stroke: #aaa; stroke-width: 1;" x1="443.56613329367264" y1="341.7616611042277" x2="447.51969027176546" y2="305.81332487512515"></line><line style="stroke: #aaa; stroke-width: 1.41421;" x1="443.56613329367264" y1="341.7616611042277" x2="548.9920393548231" y2="332.4173737059863"></line><line style="stroke: #aaa; stroke-width: 1.41421;" x1="542.0068140211723" y1="277.5448604767854" x2="447.51969027176546" y2="305.81332487512515"></line><line style="stroke: #aaa; stroke-width: 1;" x1="542.0068140211723" y1="277.5448604767854" x2="488.0949497770366" y2="245.38135964770254"></line><line style="stroke: #aaa; stroke-width: 1;" x1="542.0068140211723" y1="277.5448604767854" x2="548.9920393548231" y2="332.4173737059863"></line><line style="stroke: #aaa; stroke-width: 1.41421;" x1="542.0068140211723" y1="277.5448604767854" x2="572.6525806547052" y2="362.1579718733699"></line><line style="stroke: #aaa; stroke-width: 1.41421;" x1="488.0949497770366" y1="245.38135964770254" x2="548.9920393548231" y2="332.4173737059863"></line><line style="stroke: #aaa; stroke-width: 1;" x1="488.0949497770366" y1="245.38135964770254" x2="574.8702813971263" y2="252.95635049750095"></line><line style="stroke: #aaa; stroke-width: 1;" x1="488.0949497770366" y1="245.38135964770254" x2="572.6525806547052" y2="362.1579718733699"></line><line style="stroke: #aaa; stroke-width: 1.41421;" x1="488.0949497770366" y1="245.38135964770254" x2="514.0324723737981" y2="348.6959659616131"></line><line style="stroke: #aaa; stroke-width: 1.41421;" x1="574.8702813971263" y1="252.95635049750095" x2="572.6525806547052" y2="362.1579718733699"></line><line style="stroke: #aaa; stroke-width: 1;" x1="574.8702813971263" y1="252.95635049750095" x2="631.1602078835635" y2="300.23335268497567"></line><line style="stroke: #aaa; stroke-width: 1;" x1="574.8702813971263" y1="252.95635049750095" x2="514.0324723737981" y2="348.6959659616131"></line><line style="stroke: #aaa; stroke-width: 1.41421;" x1="574.8702813971263" y1="252.95635049750095" x2="555.0082556252157" y2="356.46703864538847"></line><line style="stroke: #aaa; stroke-width: 1.41421;" x1="631.1602078835635" y1="300.23335268497567" x2="514.0324723737981" y2="348.6959659616131"></line><line style="stroke: #aaa; stroke-width: 1;" x1="631.1602078835635" y1="300.23335268497567" x2="637.0935833791365" y2="295.90055215977236"></line><line style="stroke: #aaa; stroke-width: 1;" x1="631.1602078835635" y1="300.23335268497567" x2="555.0082556252157" y2="356.46703864538847"></line><line style="stroke: #aaa; stroke-width: 1.41421;" x1="631.1602078835635" y1="300.23335268497567" x2="632.1413770605565" y2="406.76962913155364"></line><line style="stroke: #aaa; stroke-width: 1.41421;" x1="637.0935833791365" y1="295.90055215977236" x2="555.0082556252157" y2="356.46703864538847"></line><line style="stroke: #aaa; stroke-width: 1;" x1="100.16832145273071" y1="389.8875912318273" x2="170.20449650948035" y2="342.8872316318239"></line><line style="stroke: #aaa; stroke-width: 1;" x1="100.16832145273071" y1="389.8875912318273" x2="169.70061179658617" y2="442.12971985872537"></line><line style="stroke: #aaa; stroke-width: 1.41421;" x1="100.16832145273071" y1="389.8875912318273" x2="223.66415652409566" y2="422.0389319471751"></line><line style="stroke: #aaa; stroke-width: 1.41421;" x1="170.20449650948035" y1="342.8872316318239" x2="169.70061179658617" y2="442.12971985872537"></line><line style="stroke: #aaa; stroke-width: 1;" x1="170.20449650948035" y1="342.8872316318239" x2="269.2205026180674" y2="325.4427884718537"></line><line style="stroke: #aaa; stroke-width: 1;" x1="170.20449650948035" y1="342.8872316318239" x2="223.66415652409566" y2="422.0389319471751"></line><line style="stroke: #aaa; stroke-width: 1.41421;" x1="170.20449650948035" y1="342.8872316318239" x2="298.33257490677295" y2="404.7267300240731"></line><line style="stroke: #aaa; stroke-width: 1.41421;" x1="269.2205026180674" y1="325.4427884718537" x2="223.66415652409566" y2="422.0389319471751"></line><line style="stroke: #aaa; stroke-width: 1;" x1="269.2205026180674" y1="325.4427884718537" x2="368.5861119965358" y2="300.0441109149747"></line><line style="stroke: #aaa; stroke-width: 1;" x1="269.2205026180674" y1="325.4427884718537" x2="298.33257490677295" y2="404.7267300240731"></line><line style="stroke: #aaa; stroke-width: 1.41421;" x1="269.2205026180674" y1="325.4427884718537" x2="328.5519775524722" y2="409.0428103928908"></line><line style="stroke: #aaa; stroke-width: 1.41421;" x1="368.5861119965358" y1="300.0441109149747" x2="298.33257490677295" y2="404.7267300240731"></line><line style="stroke: #aaa; stroke-width: 1;" x1="368.5861119965358" y1="300.0441109149747" x2="364.3407122888029" y2="308.46422966935575"></line><line style="stroke: #aaa; stroke-width: 1;" x1="368.5861119965358" y1="300.0441109149747" x2="328.5519775524722" y2="409.0428103928908"></line><line style="stroke: #aaa; stroke-width: 1.41421;" x1="368.5861119965358" y1="300.0441109149747" x2="394.11171074052396" y2="409.5147748072305"></line><line style="stroke: #aaa; stroke-width: 1.41421;" x1="364.3407122888029" y1="308.46422966935575" x2="328.5519775524722" y2="409.0428103928908"></line><line style="stroke: #aaa; stroke-width: 1;" x1="364.3407122888029" y1="308.46422966935575" x2="447.51969027176546" y2="305.81332487512515"></line><line style="stroke: #aaa; stroke-width: 1;" x1="364.3407122888029" y1="308.46422966935575" x2="394.11171074052396" y2="409.5147748072305"></line><line style="stroke: #aaa; stroke-width: 1.41421;" x1="364.3407122888029" y1="308.46422966935575" x2="451.25512520973666" y2="392.4206949242501"></line><line style="stroke: #aaa; stroke-width: 1.41421;" x1="447.51969027176546" y1="305.81332487512515" x2="394.11171074052396" y2="409.5147748072305"></line><line style="stroke: #aaa; stroke-width: 1;" x1="447.51969027176546" y1="305.81332487512515" x2="548.9920393548231" y2="332.4173737059863"></line><line style="stroke: #aaa; stroke-width: 1;" x1="447.51969027176546" y1="305.81332487512515" x2="451.25512520973666" y2="392.4206949242501"></line><line style="stroke: #aaa; stroke-width: 1.41421;" x1="447.51969027176546" y1="305.81332487512515" x2="474.131339173711" y2="427.5763437392522"></line><line style="stroke: #aaa; stroke-width: 1.41421;" x1="548.9920393548231" y1="332.4173737059863" x2="451.25512520973666" y2="392.4206949242501"></line><line style="stroke: #aaa; stroke-width: 1;" x1="548.9920393548231" y1="332.4173737059863" x2="572.6525806547052" y2="362.1579718733699"></line><line style="stroke: #aaa; stroke-width: 1;" x1="548.9920393548231" y1="332.4173737059863" x2="474.131339173711" y2="427.5763437392522"></line><line style="stroke: #aaa; stroke-width: 1.41421;" x1="548.9920393548231" y1="332.4173737059863" x2="535.2305906423419" y2="439.0775313112396"></line><line style="stroke: #aaa; stroke-width: 1.41421;" x1="572.6525806547052" y1="362.1579718733699" x2="474.131339173711" y2="427.5763437392522"></line><line style="stroke: #aaa; stroke-width: 1;" x1="572.6525806547052" y1="362.1579718733699" x2="514.0324723737981" y2="348.6959659616131"></line><line style="stroke: #aaa; stroke-width: 1;" x1="572.6525806547052" y1="362.1579718733699" x2="535.2305906423419" y2="439.0775313112396"></line><line style="stroke: #aaa; stroke-width: 1.41421;" x1="572.6525806547052" y1="362.1579718733699" x2="518.7817567944251" y2="461.11621744171566"></line><line style="stroke: #aaa; stroke-width: 1.41421;" x1="514.0324723737981" y1="348.6959659616131" x2="535.2305906423419" y2="439.0775313112396"></line><line style="stroke: #aaa; stroke-width: 1;" x1="514.0324723737981" y1="348.6959659616131" x2="555.0082556252157" y2="356.46703864538847"></line><line style="stroke: #aaa; stroke-width: 1;" x1="514.0324723737981" y1="348.6959659616131" x2="518.7817567944251" y2="461.11621744171566"></line><line style="stroke: #aaa; stroke-width: 1.41421;" x1="514.0324723737981" y1="348.6959659616131" x2="530.4167056174977" y2="445.51251149838146"></line><line style="stroke: #aaa; stroke-width: 1.41421;" x1="555.0082556252157" y1="356.46703864538847" x2="518.7817567944251" y2="461.11621744171566"></line><line style="stroke: #aaa; stroke-width: 1;" x1="555.0082556252157" y1="356.46703864538847" x2="632.1413770605565" y2="406.76962913155364"></line><line style="stroke: #aaa; stroke-width: 1;" x1="555.0082556252157" y1="356.46703864538847" x2="530.4167056174977" y2="445.51251149838146"></line><line style="stroke: #aaa; stroke-width: 1.41421;" x1="555.0082556252157" y1="356.46703864538847" x2="622.0135223335159" y2="392.8949393599152"></line><line style="stroke: #aaa; stroke-width: 1.41421;" x1="632.1413770605565" y1="406.76962913155364" x2="530.4167056174977" y2="445.51251149838146"></line><line style="stroke: #aaa; stroke-width: 1;" x1="169.70061179658617" y1="442.12971985872537" x2="223.66415652409566" y2="422.0389319471751"></line><line style="stroke: #aaa; stroke-width: 1;" x1="169.70061179658617" y1="442.12971985872537" x2="330.7582781882669" y2="452.0098122684153"></line><line style="stroke: #aaa; stroke-width: 1.41421;" x1="169.70061179658617" y1="442.12971985872537" x2="314.8574094655336" y2="551.2302602891721"></line><line style="stroke: #aaa; stroke-width: 1.41421;" x1="223.66415652409566" y1="422.0389319471751" x2="330.7582781882669" y2="452.0098122684153"></line><line style="stroke: #aaa; stroke-width: 1;" x1="223.66415652409566" y1="422.0389319471751" x2="298.33257490677295" y2="404.7267300240731"></line><line style="stroke: #aaa; stroke-width: 1;" x1="223.66415652409566" y1="422.0389319471751" x2="314.8574094655336" y2="551.2302602891721"></line><line style="stroke: #aaa; stroke-width: 1.41421;" x1="223.66415652409566" y1="422.0389319471751" x2="228.21963913207114" y2="490.1545690409028"></line><line style="stroke: #aaa; stroke-width: 1.41421;" x1="298.33257490677295" y1="404.7267300240731" x2="314.8574094655336" y2="551.2302602891721"></line><line style="stroke: #aaa; stroke-width: 1;" x1="298.33257490677295" y1="404.7267300240731" x2="328.5519775524722" y2="409.0428103928908"></line><line style="stroke: #aaa; stroke-width: 1;" x1="298.33257490677295" y1="404.7267300240731" x2="228.21963913207114" y2="490.1545690409028"></line><line style="stroke: #aaa; stroke-width: 1.41421;" x1="298.33257490677295" y1="404.7267300240731" x2="277.9362641376308" y2="466.22802525306747"></line><line style="stroke: #aaa; stroke-width: 1.41421;" x1="328.5519775524722" y1="409.0428103928908" x2="228.21963913207114" y2="490.1545690409028"></line><line style="stroke: #aaa; stroke-width: 1;" x1="328.5519775524722" y1="409.0428103928908" x2="394.11171074052396" y2="409.5147748072305"></line><line style="stroke: #aaa; stroke-width: 1;" x1="328.5519775524722" y1="409.0428103928908" x2="277.9362641376308" y2="466.22802525306747"></line><line style="stroke: #aaa; stroke-width: 1.41421;" x1="328.5519775524722" y1="409.0428103928908" x2="325.2809069577565" y2="388.37289706471097"></line><line style="stroke: #aaa; stroke-width: 1.41421;" x1="394.11171074052396" y1="409.5147748072305" x2="277.9362641376308" y2="466.22802525306747"></line><line style="stroke: #aaa; stroke-width: 1;" x1="394.11171074052396" y1="409.5147748072305" x2="451.25512520973666" y2="392.4206949242501"></line><line style="stroke: #aaa; stroke-width: 1;" x1="394.11171074052396" y1="409.5147748072305" x2="325.2809069577565" y2="388.37289706471097"></line><line style="stroke: #aaa; stroke-width: 1.41421;" x1="394.11171074052396" y1="409.5147748072305" x2="372.5373889533034" y2="392.21853303340566"></line><line style="stroke: #aaa; stroke-width: 1.41421;" x1="451.25512520973666" y1="392.4206949242501" x2="325.2809069577565" y2="388.37289706471097"></line><line style="stroke: #aaa; stroke-width: 1;" x1="451.25512520973666" y1="392.4206949242501" x2="474.131339173711" y2="427.5763437392522"></line><line style="stroke: #aaa; stroke-width: 1;" x1="451.25512520973666" y1="392.4206949242501" x2="372.5373889533034" y2="392.21853303340566"></line><line style="stroke: #aaa; stroke-width: 1.41421;" x1="451.25512520973666" y1="392.4206949242501" x2="401.74978218032265" y2="498.9318911362496"></line><line style="stroke: #aaa; stroke-width: 1.41421;" x1="474.131339173711" y1="427.5763437392522" x2="372.5373889533034" y2="392.21853303340566"></line><line style="stroke: #aaa; stroke-width: 1;" x1="474.131339173711" y1="427.5763437392522" x2="535.2305906423419" y2="439.0775313112396"></line><line style="stroke: #aaa; stroke-width: 1;" x1="474.131339173711" y1="427.5763437392522" x2="401.74978218032265" y2="498.9318911362496"></line><line style="stroke: #aaa; stroke-width: 1.41421;" x1="474.131339173711" y1="427.5763437392522" x2="428.53775273142577" y2="436.3475857777314"></line><line style="stroke: #aaa; stroke-width: 1.41421;" x1="535.2305906423419" y1="439.0775313112396" x2="401.74978218032265" y2="498.9318911362496"></line><line style="stroke: #aaa; stroke-width: 1;" x1="535.2305906423419" y1="439.0775313112396" x2="518.7817567944251" y2="461.11621744171566"></line><line style="stroke: #aaa; stroke-width: 1;" x1="535.2305906423419" y1="439.0775313112396" x2="428.53775273142577" y2="436.3475857777314"></line><line style="stroke: #aaa; stroke-width: 1.41421;" x1="535.2305906423419" y1="439.0775313112396" x2="489.24864056764505" y2="538.6620227369381"></line><line style="stroke: #aaa; stroke-width: 1.41421;" x1="518.7817567944251" y1="461.11621744171566" x2="428.53775273142577" y2="436.3475857777314"></line><line style="stroke: #aaa; stroke-width: 1;" x1="518.7817567944251" y1="461.11621744171566" x2="530.4167056174977" y2="445.51251149838146"></line><line style="stroke: #aaa; stroke-width: 1;" x1="518.7817567944251" y1="461.11621744171566" x2="489.24864056764505" y2="538.6620227369381"></line><line style="stroke: #aaa; stroke-width: 1.41421;" x1="518.7817567944251" y1="461.11621744171566" x2="611.6151050758715" y2="518.1631110081568"></line><line style="stroke: #aaa; stroke-width: 1.41421;" x1="530.4167056174977" y1="445.51251149838146" x2="489.24864056764505" y2="538.6620227369381"></line><line style="stroke: #aaa; stroke-width: 1;" x1="530.4167056174977" y1="445.51251149838146" x2="622.0135223335159" y2="392.8949393599152"></line><line style="stroke: #aaa; stroke-width: 1;" x1="530.4167056174977" y1="445.51251149838146" x2="611.6151050758715" y2="518.1631110081568"></line><line style="stroke: #aaa; stroke-width: 1.41421;" x1="530.4167056174977" y1="445.51251149838146" x2="583.7441243952447" y2="465.53337875595554"></line><line style="stroke: #aaa; stroke-width: 1.41421;" x1="622.0135223335159" y1="392.8949393599152" x2="611.6151050758715" y2="518.1631110081568"></line><line style="stroke: #aaa; stroke-width: 1;" x1="330.7582781882669" y1="452.0098122684153" x2="314.8574094655336" y2="551.2302602891721"></line><line style="stroke: #aaa; stroke-width: 1;" x1="330.7582781882669" y1="452.0098122684153" x2="234.84690111764777" y2="506.3457604790592"></line><line style="stroke: #aaa; stroke-width: 1.41421;" x1="330.7582781882669" y1="452.0098122684153" x2="309.5989202822533" y2="551.8519461038741"></line><line style="stroke: #aaa; stroke-width: 1.41421;" x1="314.8574094655336" y1="551.2302602891721" x2="234.84690111764777" y2="506.3457604790592"></line><line style="stroke: #aaa; stroke-width: 1;" x1="314.8574094655336" y1="551.2302602891721" x2="228.21963913207114" y2="490.1545690409028"></line><line style="stroke: #aaa; stroke-width: 1;" x1="314.8574094655336" y1="551.2302602891721" x2="309.5989202822533" y2="551.8519461038741"></line><line style="stroke: #aaa; stroke-width: 1.41421;" x1="314.8574094655336" y1="551.2302602891721" x2="223.76523746951787" y2="513.1204638436727"></line><line style="stroke: #aaa; stroke-width: 1.41421;" x1="228.21963913207114" y1="490.1545690409028" x2="309.5989202822533" y2="551.8519461038741"></line><line style="stroke: #aaa; stroke-width: 1;" x1="228.21963913207114" y1="490.1545690409028" x2="277.9362641376308" y2="466.22802525306747"></line><line style="stroke: #aaa; stroke-width: 1;" x1="228.21963913207114" y1="490.1545690409028" x2="223.76523746951787" y2="513.1204638436727"></line><line style="stroke: #aaa; stroke-width: 1.41421;" x1="228.21963913207114" y1="490.1545690409028" x2="338.34998919445087" y2="508.83326374497585"></line><line style="stroke: #aaa; stroke-width: 1.41421;" x1="277.9362641376308" y1="466.22802525306747" x2="223.76523746951787" y2="513.1204638436727"></line><line style="stroke: #aaa; stroke-width: 1;" x1="277.9362641376308" y1="466.22802525306747" x2="325.2809069577565" y2="388.37289706471097"></line><line style="stroke: #aaa; stroke-width: 1;" x1="277.9362641376308" y1="466.22802525306747" x2="338.34998919445087" y2="508.83326374497585"></line><line style="stroke: #aaa; stroke-width: 1.41421;" x1="277.9362641376308" y1="466.22802525306747" x2="301.07544056112454" y2="479.50458943036546"></line><line style="stroke: #aaa; stroke-width: 1.41421;" x1="325.2809069577565" y1="388.37289706471097" x2="338.34998919445087" y2="508.83326374497585"></line><line style="stroke: #aaa; stroke-width: 1;" x1="325.2809069577565" y1="388.37289706471097" x2="372.5373889533034" y2="392.21853303340566"></line><line style="stroke: #aaa; stroke-width: 1;" x1="325.2809069577565" y1="388.37289706471097" x2="301.07544056112454" y2="479.50458943036546"></line><line style="stroke: #aaa; stroke-width: 1.41421;" x1="325.2809069577565" y1="388.37289706471097" x2="367.7881045326762" y2="482.7672999468885"></line><line style="stroke: #aaa; stroke-width: 1.41421;" x1="372.5373889533034" y1="392.21853303340566" x2="301.07544056112454" y2="479.50458943036546"></line><line style="stroke: #aaa; stroke-width: 1;" x1="372.5373889533034" y1="392.21853303340566" x2="401.74978218032265" y2="498.9318911362496"></line><line style="stroke: #aaa; stroke-width: 1;" x1="372.5373889533034" y1="392.21853303340566" x2="367.7881045326762" y2="482.7672999468885"></line><line style="stroke: #aaa; stroke-width: 1.41421;" x1="372.5373889533034" y1="392.21853303340566" x2="462.5176705496747" y2="491.182858658619"></line><line style="stroke: #aaa; stroke-width: 1.41421;" x1="401.74978218032265" y1="498.9318911362496" x2="367.7881045326762" y2="482.7672999468885"></line><line style="stroke: #aaa; stroke-width: 1;" x1="401.74978218032265" y1="498.9318911362496" x2="428.53775273142577" y2="436.3475857777314"></line><line style="stroke: #aaa; stroke-width: 1;" x1="401.74978218032265" y1="498.9318911362496" x2="462.5176705496747" y2="491.182858658619"></line><line style="stroke: #aaa; stroke-width: 1.41421;" x1="401.74978218032265" y1="498.9318911362496" x2="522.764954049747" y2="478.8137429687957"></line><line style="stroke: #aaa; stroke-width: 1.41421;" x1="428.53775273142577" y1="436.3475857777314" x2="462.5176705496747" y2="491.182858658619"></line><line style="stroke: #aaa; stroke-width: 1;" x1="428.53775273142577" y1="436.3475857777314" x2="489.24864056764505" y2="538.6620227369381"></line><line style="stroke: #aaa; stroke-width: 1;" x1="428.53775273142577" y1="436.3475857777314" x2="522.764954049747" y2="478.8137429687957"></line><line style="stroke: #aaa; stroke-width: 1.41421;" x1="428.53775273142577" y1="436.3475857777314" x2="547.4788652019237" y2="477.0938468824011"></line><line style="stroke: #aaa; stroke-width: 1.41421;" x1="489.24864056764505" y1="538.6620227369381" x2="522.764954049747" y2="478.8137429687957"></line><line style="stroke: #aaa; stroke-width: 1;" x1="489.24864056764505" y1="538.6620227369381" x2="611.6151050758715" y2="518.1631110081568"></line><line style="stroke: #aaa; stroke-width: 1;" x1="489.24864056764505" y1="538.6620227369381" x2="547.4788652019237" y2="477.0938468824011"></line><line style="stroke: #aaa; stroke-width: 1.41421;" x1="489.24864056764505" y1="538.6620227369381" x2="542.86410203949" y2="556.9181534887196"></line><line style="stroke: #aaa; stroke-width: 1.41421;" x1="611.6151050758715" y1="518.1631110081568" x2="547.4788652019237" y2="477.0938468824011"></line><line style="stroke: #aaa; stroke-width: 1;" x1="611.6151050758715" y1="518.1631110081568" x2="583.7441243952447" y2="465.53337875595554"></line><line style="stroke: #aaa; stroke-width: 1;" x1="611.6151050758715" y1="518.1631110081568" x2="542.86410203949" y2="556.9181534887196"></line><line style="stroke: #aaa; stroke-width: 1.41421;" x1="611.6151050758715" y1="518.1631110081568" x2="614.1778490455234" y2="582.6839144789741"></line><line style="stroke: #aaa; stroke-width: 1.41421;" x1="583.7441243952447" y1="465.53337875595554" x2="542.86410203949" y2="556.9181534887196"></line><line style="stroke: #aaa; stroke-width: 1;" x1="234.84690111764777" y1="506.3457604790592" x2="309.5989202822533" y2="551.8519461038741"></line><line style="stroke: #aaa; stroke-width: 1;" x1="234.84690111764777" y1="506.3457604790592" x2="192.38074392658362" y2="599.3736705802658"></line><line style="stroke: #aaa; stroke-width: 1.41421;" x1="234.84690111764777" y1="506.3457604790592" x2="216.82561256237335" y2="615.6499828145671"></line><line style="stroke: #aaa; stroke-width: 1.41421;" x1="309.5989202822533" y1="551.8519461038741" x2="192.38074392658362" y2="599.3736705802658"></line><line style="stroke: #aaa; stroke-width: 1;" x1="309.5989202822533" y1="551.8519461038741" x2="223.76523746951787" y2="513.1204638436727"></line><line style="stroke: #aaa; stroke-width: 1;" x1="309.5989202822533" y1="551.8519461038741" x2="216.82561256237335" y2="615.6499828145671"></line><line style="stroke: #aaa; stroke-width: 1.41421;" x1="309.5989202822533" y1="551.8519461038741" x2="232.2241165864293" y2="596.0645996301281"></line><line style="stroke: #aaa; stroke-width: 1.41421;" x1="223.76523746951787" y1="513.1204638436727" x2="216.82561256237335" y2="615.6499828145671"></line><line style="stroke: #aaa; stroke-width: 1;" x1="223.76523746951787" y1="513.1204638436727" x2="338.34998919445087" y2="508.83326374497585"></line><line style="stroke: #aaa; stroke-width: 1;" x1="223.76523746951787" y1="513.1204638436727" x2="232.2241165864293" y2="596.0645996301281"></line><line style="stroke: #aaa; stroke-width: 1.41421;" x1="223.76523746951787" y1="513.1204638436727" x2="305.83764510259516" y2="601.3618491759387"></line><line style="stroke: #aaa; stroke-width: 1.41421;" x1="338.34998919445087" y1="508.83326374497585" x2="232.2241165864293" y2="596.0645996301281"></line><line style="stroke: #aaa; stroke-width: 1;" x1="338.34998919445087" y1="508.83326374497585" x2="301.07544056112454" y2="479.50458943036546"></line><line style="stroke: #aaa; stroke-width: 1;" x1="338.34998919445087" y1="508.83326374497585" x2="305.83764510259516" y2="601.3618491759387"></line><line style="stroke: #aaa; stroke-width: 1.41421;" x1="338.34998919445087" y1="508.83326374497585" x2="260.24557867452677" y2="540.4860397971886"></line><line style="stroke: #aaa; stroke-width: 1.41421;" x1="301.07544056112454" y1="479.50458943036546" x2="305.83764510259516" y2="601.3618491759387"></line><line style="stroke: #aaa; stroke-width: 1;" x1="301.07544056112454" y1="479.50458943036546" x2="367.7881045326762" y2="482.7672999468885"></line><line style="stroke: #aaa; stroke-width: 1;" x1="301.07544056112454" y1="479.50458943036546" x2="260.24557867452677" y2="540.4860397971886"></line><line style="stroke: #aaa; stroke-width: 1.41421;" x1="301.07544056112454" y1="479.50458943036546" x2="357.87077177467285" y2="564.2681822344206"></line><line style="stroke: #aaa; stroke-width: 1.41421;" x1="367.7881045326762" y1="482.7672999468885" x2="260.24557867452677" y2="540.4860397971886"></line><line style="stroke: #aaa; stroke-width: 1;" x1="367.7881045326762" y1="482.7672999468885" x2="462.5176705496747" y2="491.182858658619"></line><line style="stroke: #aaa; stroke-width: 1;" x1="367.7881045326762" y1="482.7672999468885" x2="357.87077177467285" y2="564.2681822344206"></line><line style="stroke: #aaa; stroke-width: 1.41421;" x1="367.7881045326762" y1="482.7672999468885" x2="451.1342840794951" y2="572.3204575483178"></line><line style="stroke: #aaa; stroke-width: 1.41421;" x1="462.5176705496747" y1="491.182858658619" x2="357.87077177467285" y2="564.2681822344206"></line><line style="stroke: #aaa; stroke-width: 1;" x1="462.5176705496747" y1="491.182858658619" x2="522.764954049747" y2="478.8137429687957"></line><line style="stroke: #aaa; stroke-width: 1;" x1="462.5176705496747" y1="491.182858658619" x2="451.1342840794951" y2="572.3204575483178"></line><line style="stroke: #aaa; stroke-width: 1.41421;" x1="462.5176705496747" y1="491.182858658619" x2="538.6126222748896" y2="579.141521346546"></line><line style="stroke: #aaa; stroke-width: 1.41421;" x1="522.764954049747" y1="478.8137429687957" x2="451.1342840794951" y2="572.3204575483178"></line><line style="stroke: #aaa; stroke-width: 1;" x1="522.764954049747" y1="478.8137429687957" x2="547.4788652019237" y2="477.0938468824011"></line><line style="stroke: #aaa; stroke-width: 1;" x1="522.764954049747" y1="478.8137429687957" x2="538.6126222748896" y2="579.141521346546"></line><line style="stroke: #aaa; stroke-width: 1.41421;" x1="522.764954049747" y1="478.8137429687957" x2="624.1985427702742" y2="555.840463408955"></line><line style="stroke: #aaa; stroke-width: 1.41421;" x1="547.4788652019237" y1="477.0938468824011" x2="538.6126222748896" y2="579.141521346546"></line><line style="stroke: #aaa; stroke-width: 1;" x1="547.4788652019237" y1="477.0938468824011" x2="542.86410203949" y2="556.9181534887196"></line><line style="stroke: #aaa; stroke-width: 1;" x1="547.4788652019237" y1="477.0938468824011" x2="624.1985427702742" y2="555.840463408955"></line><line style="stroke: #aaa; stroke-width: 1.41421;" x1="547.4788652019237" y1="477.0938468824011" x2="629.317190645602" y2="581.7369456218607"></line><line style="stroke: #aaa; stroke-width: 1.41421;" x1="542.86410203949" y1="556.9181534887196" x2="624.1985427702742" y2="555.840463408955"></line><line style="stroke: #aaa; stroke-width: 1;" x1="542.86410203949" y1="556.9181534887196" x2="614.1778490455234" y2="582.6839144789741"></line><line style="stroke: #aaa; stroke-width: 1;" x1="542.86410203949" y1="556.9181534887196" x2="629.317190645602" y2="581.7369456218607"></line><line style="stroke: #aaa; stroke-width: 1.41421;" x1="542.86410203949" y1="556.9181534887196" x2="590.5036276176895" y2="658.4991835882839"></line><line style="stroke: #aaa; stroke-width: 1.41421;" x1="614.1778490455234" y1="582.6839144789741" x2="629.317190645602" y2="581.7369456218607"></line><line style="stroke: #aaa; stroke-width: 1;" x1="192.38074392658362" y1="599.3736705802658" x2="216.82561256237335" y2="615.6499828145671"></line><line style="stroke: #aaa; stroke-width: 1;" x1="192.38074392658362" y1="599.3736705802658" x2="127.40849623335428" y2="704.4590934568361"></line><line style="stroke: #aaa; stroke-width: 1.41421;" x1="192.38074392658362" y1="599.3736705802658" x2="124.46194867394136" y2="670.6547372806363"></line><line style="stroke: #aaa; stroke-width: 1.41421;" x1="216.82561256237335" y1="615.6499828145671" x2="127.40849623335428" y2="704.4590934568361"></line><line style="stroke: #aaa; stroke-width: 1;" x1="216.82561256237335" y1="615.6499828145671" x2="232.2241165864293" y2="596.0645996301281"></line><line style="stroke: #aaa; stroke-width: 1;" x1="216.82561256237335" y1="615.6499828145671" x2="124.46194867394136" y2="670.6547372806363"></line><line style="stroke: #aaa; stroke-width: 1.41421;" x1="216.82561256237335" y1="615.6499828145671" x2="228.12919828616705" y2="696.2532967070345"></line><line style="stroke: #aaa; stroke-width: 1.41421;" x1="232.2241165864293" y1="596.0645996301281" x2="124.46194867394136" y2="670.6547372806363"></line><line style="stroke: #aaa; stroke-width: 1;" x1="232.2241165864293" y1="596.0645996301281" x2="305.83764510259516" y2="601.3618491759387"></line><line style="stroke: #aaa; stroke-width: 1;" x1="232.2241165864293" y1="596.0645996301281" x2="228.12919828616705" y2="696.2532967070345"></line><line style="stroke: #aaa; stroke-width: 1.41421;" x1="232.2241165864293" y1="596.0645996301281" x2="332.4348538694804" y2="621.8638009331537"></line><line style="stroke: #aaa; stroke-width: 1.41421;" x1="305.83764510259516" y1="601.3618491759387" x2="228.12919828616705" y2="696.2532967070345"></line><line style="stroke: #aaa; stroke-width: 1;" x1="305.83764510259516" y1="601.3618491759387" x2="260.24557867452677" y2="540.4860397971886"></line><line style="stroke: #aaa; stroke-width: 1;" x1="305.83764510259516" y1="601.3618491759387" x2="332.4348538694804" y2="621.8638009331537"></line><line style="stroke: #aaa; stroke-width: 1.41421;" x1="305.83764510259516" y1="601.3618491759387" x2="242.0114881288898" y2="584.980655960673"></line><line style="stroke: #aaa; stroke-width: 1.41421;" x1="260.24557867452677" y1="540.4860397971886" x2="332.4348538694804" y2="621.8638009331537"></line><line style="stroke: #aaa; stroke-width: 1;" x1="260.24557867452677" y1="540.4860397971886" x2="357.87077177467285" y2="564.2681822344206"></line><line style="stroke: #aaa; stroke-width: 1;" x1="260.24557867452677" y1="540.4860397971886" x2="242.0114881288898" y2="584.980655960673"></line><line style="stroke: #aaa; stroke-width: 1.41421;" x1="260.24557867452677" y1="540.4860397971886" x2="351.5999531229535" y2="588.3968879131003"></line><line style="stroke: #aaa; stroke-width: 1.41421;" x1="357.87077177467285" y1="564.2681822344206" x2="242.0114881288898" y2="584.980655960673"></line><line style="stroke: #aaa; stroke-width: 1;" x1="357.87077177467285" y1="564.2681822344206" x2="451.1342840794951" y2="572.3204575483178"></line><line style="stroke: #aaa; stroke-width: 1;" x1="357.87077177467285" y1="564.2681822344206" x2="351.5999531229535" y2="588.3968879131003"></line><line style="stroke: #aaa; stroke-width: 1.41421;" x1="357.87077177467285" y1="564.2681822344206" x2="450.63799943768527" y2="519.642844848285"></line><line style="stroke: #aaa; stroke-width: 1.41421;" x1="451.1342840794951" y1="572.3204575483178" x2="351.5999531229535" y2="588.3968879131003"></line><line style="stroke: #aaa; stroke-width: 1;" x1="451.1342840794951" y1="572.3204575483178" x2="538.6126222748896" y2="579.141521346546"></line><line style="stroke: #aaa; stroke-width: 1;" x1="451.1342840794951" y1="572.3204575483178" x2="450.63799943768527" y2="519.642844848285"></line><line style="stroke: #aaa; stroke-width: 1.41421;" x1="451.1342840794951" y1="572.3204575483178" x2="552.2631099495388" y2="544.5353576709446"></line><line style="stroke: #aaa; stroke-width: 1.41421;" x1="538.6126222748896" y1="579.141521346546" x2="450.63799943768527" y2="519.642844848285"></line><line style="stroke: #aaa; stroke-width: 1;" x1="538.6126222748896" y1="579.141521346546" x2="624.1985427702742" y2="555.840463408955"></line><line style="stroke: #aaa; stroke-width: 1;" x1="538.6126222748896" y1="579.141521346546" x2="552.2631099495388" y2="544.5353576709446"></line><line style="stroke: #aaa; stroke-width: 1.41421;" x1="538.6126222748896" y1="579.141521346546" x2="637.0403828815458" y2="619.7342610153113"></line><line style="stroke: #aaa; stroke-width: 1.41421;" x1="624.1985427702742" y1="555.840463408955" x2="552.2631099495388" y2="544.5353576709446"></line><line style="stroke: #aaa; stroke-width: 1;" x1="624.1985427702742" y1="555.840463408955" x2="629.317190645602" y2="581.7369456218607"></line><line style="stroke: #aaa; stroke-width: 1;" x1="624.1985427702742" y1="555.840463408955" x2="637.0403828815458" y2="619.7342610153113"></line><line style="stroke: #aaa; stroke-width: 1.41421;" x1="624.1985427702742" y1="555.840463408955" x2="656.7397671322507" y2="692.989826183403"></line><line style="stroke: #aaa; stroke-width: 1.41421;" x1="629.317190645602" y1="581.7369456218607" x2="637.0403828815458" y2="619.7342610153113"></line><line style="stroke: #aaa; stroke-width: 1;" x1="629.317190645602" y1="581.7369456218607" x2="590.5036276176895" y2="658.4991835882839"></line><line style="stroke: #aaa; stroke-width: 1;" x1="629.317190645602" y1="581.7369456218607" x2="656.7397671322507" y2="692.989826183403"></line><line style="stroke: #aaa; stroke-width: 1.41421;" x1="629.317190645602" y1="581.7369456218607" x2="690.1694398039907" y2="697.4495478957153"></line><line style="stroke: #aaa; stroke-width: 1.41421;" x1="590.5036276176895" y1="658.4991835882839" x2="656.7397671322507" y2="692.989826183403"></line><line style="stroke: #aaa; stroke-width: 1;" x1="127.40849623335428" y1="704.4590934568361" x2="124.46194867394136" y2="670.6547372806363"></line><line style="stroke: #aaa; stroke-width: 1;" x1="127.40849623335428" y1="704.4590934568361" x2="20.007587135763394" y2="780"></line><line style="stroke: #aaa; stroke-width: 1.41421;" x1="127.40849623335428" y1="704.4590934568361" x2="117.40832270053119" y2="722.0813782801807"></line><line style="stroke: #aaa; stroke-width: 1.41421;" x1="124.46194867394136" y1="670.6547372806363" x2="20.007587135763394" y2="780"></line><line style="stroke: #aaa; stroke-width: 1;" x1="124.46194867394136" y1="670.6547372806363" x2="228.12919828616705" y2="696.2532967070345"></line><line style="stroke: #aaa; stroke-width: 1;" x1="124.46194867394136" y1="670.6547372806363" x2="117.40832270053119" y2="722.0813782801807"></line><line style="stroke: #aaa; stroke-width: 1.41421;" x1="124.46194867394136" y1="670.6547372806363" x2="216.55201000333577" y2="655.3079137399542"></line><line style="stroke: #aaa; stroke-width: 1.41421;" x1="228.12919828616705" y1="696.2532967070345" x2="117.40832270053119" y2="722.0813782801807"></line><line style="stroke: #aaa; stroke-width: 1;" x1="228.12919828616705" y1="696.2532967070345" x2="332.4348538694804" y2="621.8638009331537"></line><line style="stroke: #aaa; stroke-width: 1;" x1="228.12919828616705" y1="696.2532967070345" x2="216.55201000333577" y2="655.3079137399542"></line><line style="stroke: #aaa; stroke-width: 1.41421;" x1="228.12919828616705" y1="696.2532967070345" x2="309.541159742012" y2="651.285956122102"></line><line style="stroke: #aaa; stroke-width: 1.41421;" x1="332.4348538694804" y1="621.8638009331537" x2="216.55201000333577" y2="655.3079137399542"></line><line style="stroke: #aaa; stroke-width: 1;" x1="332.4348538694804" y1="621.8638009331537" x2="242.0114881288898" y2="584.980655960673"></line><line style="stroke: #aaa; stroke-width: 1;" x1="332.4348538694804" y1="621.8638009331537" x2="309.541159742012" y2="651.285956122102"></line><line style="stroke: #aaa; stroke-width: 1.41421;" x1="332.4348538694804" y1="621.8638009331537" x2="252.54366663761928" y2="569.8314342681845"></line><line style="stroke: #aaa; stroke-width: 1.41421;" x1="242.0114881288898" y1="584.980655960673" x2="309.541159742012" y2="651.285956122102"></line><line style="stroke: #aaa; stroke-width: 1;" x1="242.0114881288898" y1="584.980655960673" x2="351.5999531229535" y2="588.3968879131003"></line><line style="stroke: #aaa; stroke-width: 1;" x1="242.0114881288898" y1="584.980655960673" x2="252.54366663761928" y2="569.8314342681845"></line><line style="stroke: #aaa; stroke-width: 1.41421;" x1="242.0114881288898" y1="584.980655960673" x2="345.9097799020805" y2="542.9347827005747"></line><line style="stroke: #aaa; stroke-width: 1.41421;" x1="351.5999531229535" y1="588.3968879131003" x2="252.54366663761928" y2="569.8314342681845"></line><line style="stroke: #aaa; stroke-width: 1;" x1="351.5999531229535" y1="588.3968879131003" x2="450.63799943768527" y2="519.642844848285"></line><line style="stroke: #aaa; stroke-width: 1;" x1="351.5999531229535" y1="588.3968879131003" x2="345.9097799020805" y2="542.9347827005747"></line><line style="stroke: #aaa; stroke-width: 1.41421;" x1="351.5999531229535" y1="588.3968879131003" x2="447.8404132715262" y2="567.2808504122675"></line><line style="stroke: #aaa; stroke-width: 1.41421;" x1="450.63799943768527" y1="519.642844848285" x2="345.9097799020805" y2="542.9347827005747"></line><line style="stroke: #aaa; stroke-width: 1;" x1="450.63799943768527" y1="519.642844848285" x2="552.2631099495388" y2="544.5353576709446"></line><line style="stroke: #aaa; stroke-width: 1;" x1="450.63799943768527" y1="519.642844848285" x2="447.8404132715262" y2="567.2808504122675"></line><line style="stroke: #aaa; stroke-width: 1.41421;" x1="450.63799943768527" y1="519.642844848285" x2="541.919413203702" y2="587.3009576627331"></line><line style="stroke: #aaa; stroke-width: 1.41421;" x1="552.2631099495388" y1="544.5353576709446" x2="447.8404132715262" y2="567.2808504122675"></line><line style="stroke: #aaa; stroke-width: 1;" x1="552.2631099495388" y1="544.5353576709446" x2="637.0403828815458" y2="619.7342610153113"></line><line style="stroke: #aaa; stroke-width: 1;" x1="552.2631099495388" y1="544.5353576709446" x2="541.919413203702" y2="587.3009576627331"></line><line style="stroke: #aaa; stroke-width: 1.41421;" x1="552.2631099495388" y1="544.5353576709446" x2="652.772530026206" y2="601.5830112444941"></line><line style="stroke: #aaa; stroke-width: 1.41421;" x1="637.0403828815458" y1="619.7342610153113" x2="541.919413203702" y2="587.3009576627331"></line><line style="stroke: #aaa; stroke-width: 1;" x1="637.0403828815458" y1="619.7342610153113" x2="656.7397671322507" y2="692.989826183403"></line><line style="stroke: #aaa; stroke-width: 1;" x1="637.0403828815458" y1="619.7342610153113" x2="652.772530026206" y2="601.5830112444941"></line><line style="stroke: #aaa; stroke-width: 1.41421;" x1="637.0403828815458" y1="619.7342610153113" x2="738.2186092136382" y2="680.0393050556248"></line><line style="stroke: #aaa; stroke-width: 1.41421;" x1="656.7397671322507" y1="692.989826183403" x2="652.772530026206" y2="601.5830112444941"></line><line style="stroke: #aaa; stroke-width: 1;" x1="656.7397671322507" y1="692.989826183403" x2="690.1694398039907" y2="697.4495478957153"></line><line style="stroke: #aaa; stroke-width: 1;" x1="656.7397671322507" y1="692.989826183403" x2="738.2186092136382" y2="680.0393050556248"></line><line style="stroke: #aaa; stroke-width: 1.41421;" x1="656.7397671322507" y1="692.989826183403" x2="780" y2="779.9992399928915"></line><line style="stroke: #aaa; stroke-width: 1.41421;" x1="690.1694398039907" y1="697.4495478957153" x2="738.2186092136382" y2="680.0393050556248"></line><line style="stroke: #aaa; stroke-width: 1;" x1="779.9992399928915" y1="20.00442641820082" x2="665.0732450762699" y2="75.44095817473472"></line><line style="stroke: #aaa; stroke-width: 1;" x1="665.0732450762699" y1="75.44095817473472" x2="639.29076392963" y2="190.01636181223398"></line><line style="stroke: #aaa; stroke-width: 1;" x1="639.29076392963" y1="190.01636181223398" x2="637.0935833791365" y2="295.90055215977236"></line><line style="stroke: #aaa; stroke-width: 1;" x1="637.0935833791365" y1="295.90055215977236" x2="632.1413770605565" y2="406.76962913155364"></line><line style="stroke: #aaa; stroke-width: 1;" x1="632.1413770605565" y1="406.76962913155364" x2="622.0135223335159" y2="392.8949393599152"></line><line style="stroke: #aaa; stroke-width: 1;" x1="622.0135223335159" y1="392.8949393599152" x2="583.7441243952447" y2="465.53337875595554"></line><line style="stroke: #aaa; stroke-width: 1;" x1="583.7441243952447" y1="465.53337875595554" x2="614.1778490455234" y2="582.6839144789741"></line><line style="stroke: #aaa; stroke-width: 1;" x1="614.1778490455234" y1="582.6839144789741" x2="590.5036276176895" y2="658.4991835882839"></line><line style="stroke: #aaa; stroke-width: 1;" x1="590.5036276176895" y1="658.4991835882839" x2="690.1694398039907" y2="697.4495478957153"></line><line style="stroke: #aaa; stroke-width: 1;" x1="690.1694398039907" y1="697.4495478957153" x2="780" y2="779.9992399928915"></line><line style="stroke: #aaa; stroke-width: 1;" x1="20.007587135763394" y1="780" x2="117.40832270053119" y2="722.0813782801807"></line><line style="stroke: #aaa; stroke-width: 1;" x1="117.40832270053119" y1="722.0813782801807" x2="216.55201000333577" y2="655.3079137399542"></line><line style="stroke: #aaa; stroke-width: 1;" x1="216.55201000333577" y1="655.3079137399542" x2="309.541159742012" y2="651.285956122102"></line><line style="stroke: #aaa; stroke-width: 1;" x1="309.541159742012" y1="651.285956122102" x2="252.54366663761928" y2="569.8314342681845"></line><line style="stroke: #aaa; stroke-width: 1;" x1="252.54366663761928" y1="569.8314342681845" x2="345.9097799020805" y2="542.9347827005747"></line><line style="stroke: #aaa; stroke-width: 1;" x1="345.9097799020805" y1="542.9347827005747" x2="447.8404132715262" y2="567.2808504122675"></line><line style="stroke: #aaa; stroke-width: 1;" x1="447.8404132715262" y1="567.2808504122675" x2="541.919413203702" y2="587.3009576627331"></line><line style="stroke: #aaa; stroke-width: 1;" x1="541.919413203702" y1="587.3009576627331" x2="652.772530026206" y2="601.5830112444941"></line><line style="stroke: #aaa; stroke-width: 1;" x1="652.772530026206" y1="601.5830112444941" x2="738.2186092136382" y2="680.0393050556248"></line><line style="stroke: #aaa; stroke-width: 1;" x1="738.2186092136382" y1="680.0393050556248" x2="780" y2="779.9992399928915"></line><circle r="10" cx="20" cy="20.00323704507647" style="stroke: #000; fill: #69b3a2;"></circle><circle r="10" cx="140.76638117125503" cy="49.82058654432443" style="stroke: #000; fill: #69b3a2;"></circle><circle r="10" cx="223.76219744108414" cy="153.3353787305975" style="stroke: #000; fill: #69b3a2;"></circle><circle r="10" cx="311.315776340214" cy="212.83329522175018" style="stroke: #000; fill: #69b3a2;"></circle><circle r="10" cx="405.5292975305833" cy="228.2287592173724" style="stroke: #000; fill: #69b3a2;"></circle><circle r="10" cx="470.10786154164197" cy="254.38060381871318" style="stroke: #000; fill: #69b3a2;"></circle><circle r="10" cx="443.03032828222405" cy="238.23121277152077" style="stroke: #000; fill: #69b3a2;"></circle><circle r="10" cx="506.14815863086545" cy="145.00342080079514" style="stroke: #000; fill: #69b3a2;"></circle><circle r="10" cx="609.7629677526089" cy="164.8259262030669" style="stroke: #000; fill: #69b3a2;"></circle><circle r="10" cx="720.7635259541499" cy="129.45747539770227" style="stroke: #000; fill: #69b3a2;"></circle><circle r="10" cx="779.9992399928915" cy="20.00442641820082" style="stroke: #000; fill: #69b3a2;"></circle><circle r="10" cx="53.70581888336871" cy="122.02004583453106" style="stroke: #000; fill: #69b3a2;"></circle><circle r="10" cx="113.00332150002637" cy="130.9402492662642" style="stroke: #000; fill: #69b3a2;"></circle><circle r="10" cx="204.66853885580412" cy="140.3422972047468" style="stroke: #000; fill: #69b3a2;"></circle><circle r="10" cx="325.0916651877555" cy="136.095377482797" style="stroke: #000; fill: #69b3a2;"></circle><circle r="10" cx="418.1598556657092" cy="153.76022270421416" style="stroke: #000; fill: #69b3a2;"></circle><circle r="10" cx="496.73319057153935" cy="168.69360237790627" style="stroke: #000; fill: #69b3a2;"></circle><circle r="10" cx="556.2729074536562" cy="245.97948524204298" style="stroke: #000; fill: #69b3a2;"></circle><circle r="10" cx="502.9842490384393" cy="209.12826056811647" style="stroke: #000; fill: #69b3a2;"></circle><circle r="10" cx="607.8751100952496" cy="189.2548346895794" style="stroke: #000; fill: #69b3a2;"></circle><circle r="10" cx="658.2681414273188" cy="93.64046839693778" style="stroke: #000; fill: #69b3a2;"></circle><circle r="10" cx="665.0732450762699" cy="75.44095817473472" style="stroke: #000; fill: #69b3a2;"></circle><circle r="10" cx="46.729105629332444" cy="224.9136082103672" style="stroke: #000; fill: #69b3a2;"></circle><circle r="10" cx="129.57755652083546" cy="216.11880595152627" style="stroke: #000; fill: #69b3a2;"></circle><circle r="10" cx="216.6751311549027" cy="238.67885695839058" style="stroke: #000; fill: #69b3a2;"></circle><circle r="10" cx="329.74442870561097" cy="185.09987582775057" style="stroke: #000; fill: #69b3a2;"></circle><circle r="10" cx="394.73871660498503" cy="238.85973865019872" style="stroke: #000; fill: #69b3a2;"></circle><circle r="10" cx="446.10911707850505" cy="255.74709659968408" style="stroke: #000; fill: #69b3a2;"></circle><circle r="10" cx="543.9311520197366" cy="263.4550886934592" style="stroke: #000; fill: #69b3a2;"></circle><circle r="10" cx="553.5520820054492" cy="151.65044297119115" style="stroke: #000; fill: #69b3a2;"></circle><circle r="10" cx="610.0684906102009" cy="208.78625736931951" style="stroke: #000; fill: #69b3a2;"></circle><circle r="10" cx="688.1987413718119" cy="198.25635888191536" style="stroke: #000; fill: #69b3a2;"></circle><circle r="10" cx="639.29076392963" cy="190.01636181223398" style="stroke: #000; fill: #69b3a2;"></circle><circle r="10" cx="66.02492610545684" cy="308.96963439646686" style="stroke: #000; fill: #69b3a2;"></circle><circle r="10" cx="141.6586295165609" cy="292.5633609466225" style="stroke: #000; fill: #69b3a2;"></circle><circle r="10" cx="237.74632823633752" cy="266.8158401269706" style="stroke: #000; fill: #69b3a2;"></circle><circle r="10" cx="292.85444366915414" cy="209.59946497534784" style="stroke: #000; fill: #69b3a2;"></circle><circle r="10" cx="330.1897928711555" cy="313.10255305215094" style="stroke: #000; fill: #69b3a2;"></circle><circle r="10" cx="443.56613329367264" cy="341.7616611042277" style="stroke: #000; fill: #69b3a2;"></circle><circle r="10" cx="542.0068140211723" cy="277.5448604767854" style="stroke: #000; fill: #69b3a2;"></circle><circle r="10" cx="488.0949497770366" cy="245.38135964770254" style="stroke: #000; fill: #69b3a2;"></circle><circle r="10" cx="574.8702813971263" cy="252.95635049750095" style="stroke: #000; fill: #69b3a2;"></circle><circle r="10" cx="631.1602078835635" cy="300.23335268497567" style="stroke: #000; fill: #69b3a2;"></circle><circle r="10" cx="637.0935833791365" cy="295.90055215977236" style="stroke: #000; fill: #69b3a2;"></circle><circle r="10" cx="100.16832145273071" cy="389.8875912318273" style="stroke: #000; fill: #69b3a2;"></circle><circle r="10" cx="170.20449650948035" cy="342.8872316318239" style="stroke: #000; fill: #69b3a2;"></circle><circle r="10" cx="269.2205026180674" cy="325.4427884718537" style="stroke: #000; fill: #69b3a2;"></circle><circle r="10" cx="368.5861119965358" cy="300.0441109149747" style="stroke: #000; fill: #69b3a2;"></circle><circle r="10" cx="364.3407122888029" cy="308.46422966935575" style="stroke: #000; fill: #69b3a2;"></circle><circle r="10" cx="447.51969027176546" cy="305.81332487512515" style="stroke: #000; fill: #69b3a2;"></circle><circle r="10" cx="548.9920393548231" cy="332.4173737059863" style="stroke: #000; fill: #69b3a2;"></circle><circle r="10" cx="572.6525806547052" cy="362.1579718733699" style="stroke: #000; fill: #69b3a2;"></circle><circle r="10" cx="514.0324723737981" cy="348.6959659616131" style="stroke: #000; fill: #69b3a2;"></circle><circle r="10" cx="555.0082556252157" cy="356.46703864538847" style="stroke: #000; fill: #69b3a2;"></circle><circle r="10" cx="632.1413770605565" cy="406.76962913155364" style="stroke: #000; fill: #69b3a2;"></circle><circle r="10" cx="169.70061179658617" cy="442.12971985872537" style="stroke: #000; fill: #69b3a2;"></circle><circle r="10" cx="223.66415652409566" cy="422.0389319471751" style="stroke: #000; fill: #69b3a2;"></circle><circle r="10" cx="298.33257490677295" cy="404.7267300240731" style="stroke: #000; fill: #69b3a2;"></circle><circle r="10" cx="328.5519775524722" cy="409.0428103928908" style="stroke: #000; fill: #69b3a2;"></circle><circle r="10" cx="394.11171074052396" cy="409.5147748072305" style="stroke: #000; fill: #69b3a2;"></circle><circle r="10" cx="451.25512520973666" cy="392.4206949242501" style="stroke: #000; fill: #69b3a2;"></circle><circle r="10" cx="474.131339173711" cy="427.5763437392522" style="stroke: #000; fill: #69b3a2;"></circle><circle r="10" cx="535.2305906423419" cy="439.0775313112396" style="stroke: #000; fill: #69b3a2;"></circle><circle r="10" cx="518.7817567944251" cy="461.11621744171566" style="stroke: #000; fill: #69b3a2;"></circle><circle r="10" cx="530.4167056174977" cy="445.51251149838146" style="stroke: #000; fill: #69b3a2;"></circle><circle r="10" cx="622.0135223335159" cy="392.8949393599152" style="stroke: #000; fill: #69b3a2;"></circle><circle r="10" cx="330.7582781882669" cy="452.0098122684153" style="stroke: #000; fill: #69b3a2;"></circle><circle r="10" cx="314.8574094655336" cy="551.2302602891721" style="stroke: #000; fill: #69b3a2;"></circle><circle r="10" cx="228.21963913207114" cy="490.1545690409028" style="stroke: #000; fill: #69b3a2;"></circle><circle r="10" cx="277.9362641376308" cy="466.22802525306747" style="stroke: #000; fill: #69b3a2;"></circle><circle r="10" cx="325.2809069577565" cy="388.37289706471097" style="stroke: #000; fill: #69b3a2;"></circle><circle r="10" cx="372.5373889533034" cy="392.21853303340566" style="stroke: #000; fill: #69b3a2;"></circle><circle r="10" cx="401.74978218032265" cy="498.9318911362496" style="stroke: #000; fill: #69b3a2;"></circle><circle r="10" cx="428.53775273142577" cy="436.3475857777314" style="stroke: #000; fill: #69b3a2;"></circle><circle r="10" cx="489.24864056764505" cy="538.6620227369381" style="stroke: #000; fill: #69b3a2;"></circle><circle r="10" cx="611.6151050758715" cy="518.1631110081568" style="stroke: #000; fill: #69b3a2;"></circle><circle r="10" cx="583.7441243952447" cy="465.53337875595554" style="stroke: #000; fill: #69b3a2;"></circle><circle r="10" cx="234.84690111764777" cy="506.3457604790592" style="stroke: #000; fill: #69b3a2;"></circle><circle r="10" cx="309.5989202822533" cy="551.8519461038741" style="stroke: #000; fill: #69b3a2;"></circle><circle r="10" cx="223.76523746951787" cy="513.1204638436727" style="stroke: #000; fill: #69b3a2;"></circle><circle r="10" cx="338.34998919445087" cy="508.83326374497585" style="stroke: #000; fill: #69b3a2;"></circle><circle r="10" cx="301.07544056112454" cy="479.50458943036546" style="stroke: #000; fill: #69b3a2;"></circle><circle r="10" cx="367.7881045326762" cy="482.7672999468885" style="stroke: #000; fill: #69b3a2;"></circle><circle r="10" cx="462.5176705496747" cy="491.182858658619" style="stroke: #000; fill: #69b3a2;"></circle><circle r="10" cx="522.764954049747" cy="478.8137429687957" style="stroke: #000; fill: #69b3a2;"></circle><circle r="10" cx="547.4788652019237" cy="477.0938468824011" style="stroke: #000; fill: #69b3a2;"></circle><circle r="10" cx="542.86410203949" cy="556.9181534887196" style="stroke: #000; fill: #69b3a2;"></circle><circle r="10" cx="614.1778490455234" cy="582.6839144789741" style="stroke: #000; fill: #69b3a2;"></circle><circle r="10" cx="192.38074392658362" cy="599.3736705802658" style="stroke: #000; fill: #69b3a2;"></circle><circle r="10" cx="216.82561256237335" cy="615.6499828145671" style="stroke: #000; fill: #69b3a2;"></circle><circle r="10" cx="232.2241165864293" cy="596.0645996301281" style="stroke: #000; fill: #69b3a2;"></circle><circle r="10" cx="305.83764510259516" cy="601.3618491759387" style="stroke: #000; fill: #69b3a2;"></circle><circle r="10" cx="260.24557867452677" cy="540.4860397971886" style="stroke: #000; fill: #69b3a2;"></circle><circle r="10" cx="357.87077177467285" cy="564.2681822344206" style="stroke: #000; fill: #69b3a2;"></circle><circle r="10" cx="451.1342840794951" cy="572.3204575483178" style="stroke: #000; fill: #69b3a2;"></circle><circle r="10" cx="538.6126222748896" cy="579.141521346546" style="stroke: #000; fill: #69b3a2;"></circle><circle r="10" cx="624.1985427702742" cy="555.840463408955" style="stroke: #000; fill: #69b3a2;"></circle><circle r="10" cx="629.317190645602" cy="581.7369456218607" style="stroke: #000; fill: #69b3a2;"></circle><circle r="10" cx="590.5036276176895" cy="658.4991835882839" style="stroke: #000; fill: #69b3a2;"></circle><circle r="10" cx="127.40849623335428" cy="704.4590934568361" style="stroke: #000; fill: #69b3a2;"></circle><circle r="10" cx="124.46194867394136" cy="670.6547372806363" style="stroke: #000; fill: #69b3a2;"></circle><circle r="10" cx="228.12919828616705" cy="696.2532967070345" style="stroke: #000; fill: #69b3a2;"></circle><circle r="10" cx="332.4348538694804" cy="621.8638009331537" style="stroke: #000; fill: #69b3a2;"></circle><circle r="10" cx="242.0114881288898" cy="584.980655960673" style="stroke: #000; fill: #69b3a2;"></circle><circle r="10" cx="351.5999531229535" cy="588.3968879131003" style="stroke: #000; fill: #69b3a2;"></circle><circle r="10" cx="450.63799943768527" cy="519.642844848285" style="stroke: #000; fill: #69b3a2;"></circle><circle r="10" cx="552.2631099495388" cy="544.5353576709446" style="stroke: #000; fill: #69b3a2;"></circle><circle r="10" cx="637.0403828815458" cy="619.7342610153113" style="stroke: #000; fill: #69b3a2;"></circle><circle r="10" cx="656.7397671322507" cy="692.989826183403" style="stroke: #000; fill: #69b3a2;"></circle><circle r="10" cx="690.1694398039907" cy="697.4495478957153" style="stroke: #000; fill: #69b3a2;"></circle><circle r="10" cx="20.007587135763394" cy="780" style="stroke: #000; fill: #69b3a2;"></circle><circle r="10" cx="117.40832270053119" cy="722.0813782801807" style="stroke: #000; fill: #69b3a2;"></circle><circle r="10" cx="216.55201000333577" cy="655.3079137399542" style="stroke: #000; fill: #69b3a2;"></circle><circle r="10" cx="309.541159742012" cy="651.285956122102" style="stroke: #000; fill: #69b3a2;"></circle><circle r="10" cx="252.54366663761928" cy="569.8314342681845" style="stroke: #000; fill: #69b3a2;"></circle><circle r="10" cx="345.9097799020805" cy="542.9347827005747" style="stroke: #000; fill: #69b3a2;"></circle><circle r="10" cx="447.8404132715262" cy="567.2808504122675" style="stroke: #000; fill: #69b3a2;"></circle><circle r="10" cx="541.919413203702" cy="587.3009576627331" style="stroke: #000; fill: #69b3a2;"></circle><circle r="10" cx="652.772530026206" cy="601.5830112444941" style="stroke: #000; fill: #69b3a2;"></circle><circle r="10" cx="738.2186092136382" cy="680.0393050556248" style="stroke: #000; fill: #69b3a2;"></circle><circle r="10" cx="780" cy="779.9992399928915" style="stroke: #000; fill: #69b3a2;"></circle></svg>