<svg width="800" height="800" xmlns="http://www.w3.org/2000/svg"><line style="stroke: #aaa; stroke-width: 1;" x1="20" y1="20.000028105272335" x2="243.18473833639402" y2="221.06532659977233"></line><line style="stroke: #aaa; stroke-width: 1;" x1="20" y1="20.000028105272335" x2="221.05164636986373" y2="243.1984185663026"></line><line style="stroke: #aaa; stroke-width: 1.41421;" x1="20" y1="20.000028105272335" x2="266.46544958969923" y2="266.4806498451532"></line><line style="stroke: #aaa; stroke-width: 1.41421;" x1="243.18473833639402" y1="221.06532659977233" x2="221.05164636986373" y2="243.1984185663026"></line><line style="stroke: #aaa; stroke-width: 1;" x1="243.18473833639402" y1="221.06532659977233" x2="351.5625597232224" y2="273.1429218106297"></line><line style="stroke: #aaa; stroke-width: 1;" x1="243.18473833639402" y1="221.06532659977233" x2="266.46544958969923" y2="266.4806498451532"></line><line style="stroke: #aaa; stroke-width: 1.41421;" x1="243.18473833639402" y1="221.06532659977233" x2="356.8613687744775" y2="302.51893550097816"></line><line style="stroke: #aaa; stroke-width: 1.41421;" x1="351.5625597232224" y1="273.1429218106297" x2="266.46544958969923" y2="266.4806498451532"></line><line style="stroke: #aaa; stroke-width: 1;" x1="351.5625597232224" y1="273.1429218106297" x2="448.3121856877614" y2="273.1429218106297"></line><line style="stroke: #aaa; stroke-width: 1;" x1="351.5625597232224" y1="273.1429218106297" x2="356.8613687744775" y2="302.51893550097816"></line><line style="stroke: #aaa; stroke-width: 1.41421;" x1="351.5625597232224" y1="273.1429218106297" x2="443.01185661096105" y2="302.51893550097816"></line><line style="stroke: #aaa; stroke-width: 1.41421;" x1="448.3121856877614" y1="273.1429218106297" x2="356.8613687744775" y2="302.51893550097816"></line><line style="stroke: #aaa; stroke-width: 1;" x1="448.3121856877614" y1="273.1429218106297" x2="556.7173675344069" y2="221.06532659977233"></line><line style="stroke: #aaa; stroke-width: 1;" x1="448.3121856877614" y1="273.1429218106297" x2="443.01185661096105" y2="302.51893550097816"></line><line style="stroke: #aaa; stroke-width: 1.41421;" x1="448.3121856877614" y1="273.1429218106297" x2="533.426016102284" y2="266.4806498451532"></line><line style="stroke: #aaa; stroke-width: 1.41421;" x1="556.7173675344069" y1="221.06532659977233" x2="443.01185661096105" y2="302.51893550097816"></line><line style="stroke: #aaa; stroke-width: 1;" x1="556.7173675344069" y1="221.06532659977233" x2="780" y2="20.000033881369408"></line><line style="stroke: #aaa; stroke-width: 1;" x1="556.7173675344069" y1="221.06532659977233" x2="533.426016102284" y2="266.4806498451532"></line><line style="stroke: #aaa; stroke-width: 1.41421;" x1="556.7173675344069" y1="221.06532659977233" x2="578.848939475392" y2="243.1984185663026"></line><line style="stroke: #aaa; stroke-width: 1.41421;" x1="780" y1="20.000033881369408" x2="533.426016102284" y2="266.4806498451532"></line><line style="stroke: #aaa; stroke-width: 1;" x1="221.05164636986373" y1="243.1984185663026" x2="266.46544958969923" y2="266.4806498451532"></line><line style="stroke: #aaa; stroke-width: 1;" x1="221.05164636986373" y1="243.1984185663026" x2="273.12468150408495" y2="351.5808000297672"></line><line style="stroke: #aaa; stroke-width: 1.41421;" x1="221.05164636986373" y1="243.1984185663026" x2="302.5006951944334" y2="356.87960908102224"></line><line style="stroke: #aaa; stroke-width: 1.41421;" x1="266.46544958969923" y1="266.4806498451532" x2="273.12468150408495" y2="351.5808000297672"></line><line style="stroke: #aaa; stroke-width: 1;" x1="266.46544958969923" y1="266.4806498451532" x2="356.8613687744775" y2="302.51893550097816"></line><line style="stroke: #aaa; stroke-width: 1;" x1="266.46544958969923" y1="266.4806498451532" x2="302.5006951944334" y2="356.87960908102224"></line><line style="stroke: #aaa; stroke-width: 1.41421;" x1="266.46544958969923" y1="266.4806498451532" x2="363.45067951377484" y2="363.46891982031957"></line><line style="stroke: #aaa; stroke-width: 1.41421;" x1="356.8613687744775" y1="302.51893550097816" x2="302.5006951944334" y2="356.87960908102224"></line><line style="stroke: #aaa; stroke-width: 1;" x1="356.8613687744775" y1="302.51893550097816" x2="443.01185661096105" y2="302.51893550097816"></line><line style="stroke: #aaa; stroke-width: 1;" x1="356.8613687744775" y1="302.51893550097816" x2="363.45067951377484" y2="363.46891982031957"></line><line style="stroke: #aaa; stroke-width: 1.41421;" x1="356.8613687744775" y1="302.51893550097816" x2="436.4179857950275" y2="363.46891982031957"></line><line style="stroke: #aaa; stroke-width: 1.41421;" x1="443.01185661096105" y1="302.51893550097816" x2="363.45067951377484" y2="363.46891982031957"></line><line style="stroke: #aaa; stroke-width: 1;" x1="443.01185661096105" y1="302.51893550097816" x2="533.426016102284" y2="266.4806498451532"></line><line style="stroke: #aaa; stroke-width: 1;" x1="443.01185661096105" y1="302.51893550097816" x2="436.4179857950275" y2="363.46891982031957"></line><line style="stroke: #aaa; stroke-width: 1.41421;" x1="443.01185661096105" y1="302.51893550097816" x2="497.3725301910052" y2="356.87960908102224"></line><line style="stroke: #aaa; stroke-width: 1.41421;" x1="533.426016102284" y1="266.4806498451532" x2="436.4179857950275" y2="363.46891982031957"></line><line style="stroke: #aaa; stroke-width: 1;" x1="533.426016102284" y1="266.4806498451532" x2="578.848939475392" y2="243.1984185663026"></line><line style="stroke: #aaa; stroke-width: 1;" x1="533.426016102284" y1="266.4806498451532" x2="497.3725301910052" y2="356.87960908102224"></line><line style="stroke: #aaa; stroke-width: 1.41421;" x1="533.426016102284" y1="266.4806498451532" x2="526.750063906899" y2="351.5808000297672"></line><line style="stroke: #aaa; stroke-width: 1.41421;" x1="578.848939475392" y1="243.1984185663026" x2="497.3725301910052" y2="356.87960908102224"></line><line style="stroke: #aaa; stroke-width: 1;" x1="273.12468150408495" y1="351.5808000297672" x2="302.5006951944334" y2="356.87960908102224"></line><line style="stroke: #aaa; stroke-width: 1;" x1="273.12468150408495" y1="351.5808000297672" x2="273.12468150408495" y2="448.3304259943061"></line><line style="stroke: #aaa; stroke-width: 1.41421;" x1="273.12468150408495" y1="351.5808000297672" x2="302.5006951944334" y2="443.0300969175058"></line><line style="stroke: #aaa; stroke-width: 1.41421;" x1="302.5006951944334" y1="356.87960908102224" x2="273.12468150408495" y2="448.3304259943061"></line><line style="stroke: #aaa; stroke-width: 1;" x1="302.5006951944334" y1="356.87960908102224" x2="363.45067951377484" y2="363.46891982031957"></line><line style="stroke: #aaa; stroke-width: 1;" x1="302.5006951944334" y1="356.87960908102224" x2="302.5006951944334" y2="443.0300969175058"></line><line style="stroke: #aaa; stroke-width: 1.41421;" x1="302.5006951944334" y1="356.87960908102224" x2="363.45067951377484" y2="436.43622610157223"></line><line style="stroke: #aaa; stroke-width: 1.41421;" x1="363.45067951377484" y1="363.46891982031957" x2="302.5006951944334" y2="443.0300969175058"></line><line style="stroke: #aaa; stroke-width: 1;" x1="363.45067951377484" y1="363.46891982031957" x2="436.4179857950275" y2="363.46891982031957"></line><line style="stroke: #aaa; stroke-width: 1;" x1="363.45067951377484" y1="363.46891982031957" x2="363.45067951377484" y2="436.43622610157223"></line><line style="stroke: #aaa; stroke-width: 1.41421;" x1="363.45067951377484" y1="363.46891982031957" x2="436.4179857950275" y2="436.43622610157223"></line><line style="stroke: #aaa; stroke-width: 1.41421;" x1="436.4179857950275" y1="363.46891982031957" x2="363.45067951377484" y2="436.43622610157223"></line><line style="stroke: #aaa; stroke-width: 1;" x1="436.4179857950275" y1="363.46891982031957" x2="497.3725301910052" y2="356.87960908102224"></line><line style="stroke: #aaa; stroke-width: 1;" x1="436.4179857950275" y1="363.46891982031957" x2="436.4179857950275" y2="436.43622610157223"></line><line style="stroke: #aaa; stroke-width: 1.41421;" x1="436.4179857950275" y1="363.46891982031957" x2="497.3725301910052" y2="443.0300969175058"></line><line style="stroke: #aaa; stroke-width: 1.41421;" x1="497.3725301910052" y1="356.87960908102224" x2="436.4179857950275" y2="436.43622610157223"></line><line style="stroke: #aaa; stroke-width: 1;" x1="497.3725301910052" y1="356.87960908102224" x2="526.750063906899" y2="351.5808000297672"></line><line style="stroke: #aaa; stroke-width: 1;" x1="497.3725301910052" y1="356.87960908102224" x2="497.3725301910052" y2="443.0300969175058"></line><line style="stroke: #aaa; stroke-width: 1.41421;" x1="497.3725301910052" y1="356.87960908102224" x2="526.750063906899" y2="448.3304259943061"></line><line style="stroke: #aaa; stroke-width: 1.41421;" x1="526.750063906899" y1="351.5808000297672" x2="497.3725301910052" y2="443.0300969175058"></line><line style="stroke: #aaa; stroke-width: 1;" x1="273.12468150408495" y1="448.3304259943061" x2="302.5006951944334" y2="443.0300969175058"></line><line style="stroke: #aaa; stroke-width: 1;" x1="273.12468150408495" y1="448.3304259943061" x2="221.05164636986373" y2="556.7310477643156"></line><line style="stroke: #aaa; stroke-width: 1.41421;" x1="273.12468150408495" y1="448.3304259943061" x2="266.46544958969923" y2="533.4427363832833"></line><line style="stroke: #aaa; stroke-width: 1.41421;" x1="302.5006951944334" y1="443.0300969175058" x2="221.05164636986373" y2="556.7310477643156"></line><line style="stroke: #aaa; stroke-width: 1;" x1="302.5006951944334" y1="443.0300969175058" x2="363.45067951377484" y2="436.43622610157223"></line><line style="stroke: #aaa; stroke-width: 1;" x1="302.5006951944334" y1="443.0300969175058" x2="266.46544958969923" y2="533.4427363832833"></line><line style="stroke: #aaa; stroke-width: 1.41421;" x1="302.5006951944334" y1="443.0300969175058" x2="356.8613687744775" y2="497.3907704975499"></line><line style="stroke: #aaa; stroke-width: 1.41421;" x1="363.45067951377484" y1="436.43622610157223" x2="266.46544958969923" y2="533.4427363832833"></line><line style="stroke: #aaa; stroke-width: 1;" x1="363.45067951377484" y1="436.43622610157223" x2="436.4179857950275" y2="436.43622610157223"></line><line style="stroke: #aaa; stroke-width: 1;" x1="363.45067951377484" y1="436.43622610157223" x2="356.8613687744775" y2="497.3907704975499"></line><line style="stroke: #aaa; stroke-width: 1.41421;" x1="363.45067951377484" y1="436.43622610157223" x2="443.01185661096105" y2="497.3907704975499"></line><line style="stroke: #aaa; stroke-width: 1.41421;" x1="436.4179857950275" y1="436.43622610157223" x2="356.8613687744775" y2="497.3907704975499"></line><line style="stroke: #aaa; stroke-width: 1;" x1="436.4179857950275" y1="436.43622610157223" x2="497.3725301910052" y2="443.0300969175058"></line><line style="stroke: #aaa; stroke-width: 1;" x1="436.4179857950275" y1="436.43622610157223" x2="443.01185661096105" y2="497.3907704975499"></line><line style="stroke: #aaa; stroke-width: 1.41421;" x1="436.4179857950275" y1="436.43622610157223" x2="533.426016102284" y2="533.4427363832833"></line><line style="stroke: #aaa; stroke-width: 1.41421;" x1="497.3725301910052" y1="443.0300969175058" x2="443.01185661096105" y2="497.3907704975499"></line><line style="stroke: #aaa; stroke-width: 1;" x1="497.3725301910052" y1="443.0300969175058" x2="526.750063906899" y2="448.3304259943061"></line><line style="stroke: #aaa; stroke-width: 1;" x1="497.3725301910052" y1="443.0300969175058" x2="533.426016102284" y2="533.4427363832833"></line><line style="stroke: #aaa; stroke-width: 1.41421;" x1="497.3725301910052" y1="443.0300969175058" x2="578.848939475392" y2="556.7310477643156"></line><line style="stroke: #aaa; stroke-width: 1.41421;" x1="526.750063906899" y1="448.3304259943061" x2="533.426016102284" y2="533.4427363832833"></line><line style="stroke: #aaa; stroke-width: 1;" x1="221.05164636986373" y1="556.7310477643156" x2="266.46544958969923" y2="533.4427363832833"></line><line style="stroke: #aaa; stroke-width: 1;" x1="221.05164636986373" y1="556.7310477643156" x2="20.00002711725573" y2="780"></line><line style="stroke: #aaa; stroke-width: 1.41421;" x1="221.05164636986373" y1="556.7310477643156" x2="243.18473833639402" y2="578.8641397308459"></line><line style="stroke: #aaa; stroke-width: 1.41421;" x1="266.46544958969923" y1="533.4427363832833" x2="20.00002711725573" y2="780"></line><line style="stroke: #aaa; stroke-width: 1;" x1="266.46544958969923" y1="533.4427363832833" x2="356.8613687744775" y2="497.3907704975499"></line><line style="stroke: #aaa; stroke-width: 1;" x1="266.46544958969923" y1="533.4427363832833" x2="243.18473833639402" y2="578.8641397308459"></line><line style="stroke: #aaa; stroke-width: 1.41421;" x1="266.46544958969923" y1="533.4427363832833" x2="351.5625597232224" y2="526.7683042134438"></line><line style="stroke: #aaa; stroke-width: 1.41421;" x1="356.8613687744775" y1="497.3907704975499" x2="243.18473833639402" y2="578.8641397308459"></line><line style="stroke: #aaa; stroke-width: 1;" x1="356.8613687744775" y1="497.3907704975499" x2="443.01185661096105" y2="497.3907704975499"></line><line style="stroke: #aaa; stroke-width: 1;" x1="356.8613687744775" y1="497.3907704975499" x2="351.5625597232224" y2="526.7683042134438"></line><line style="stroke: #aaa; stroke-width: 1.41421;" x1="356.8613687744775" y1="497.3907704975499" x2="448.3121856877614" y2="526.7683042134438"></line><line style="stroke: #aaa; stroke-width: 1.41421;" x1="443.01185661096105" y1="497.3907704975499" x2="351.5625597232224" y2="526.7683042134438"></line><line style="stroke: #aaa; stroke-width: 1;" x1="443.01185661096105" y1="497.3907704975499" x2="533.426016102284" y2="533.4427363832833"></line><line style="stroke: #aaa; stroke-width: 1;" x1="443.01185661096105" y1="497.3907704975499" x2="448.3121856877614" y2="526.7683042134438"></line><line style="stroke: #aaa; stroke-width: 1.41421;" x1="443.01185661096105" y1="497.3907704975499" x2="556.7173675344069" y2="578.8641397308459"></line><line style="stroke: #aaa; stroke-width: 1.41421;" x1="533.426016102284" y1="533.4427363832833" x2="448.3121856877614" y2="526.7683042134438"></line><line style="stroke: #aaa; stroke-width: 1;" x1="533.426016102284" y1="533.4427363832833" x2="578.848939475392" y2="556.7310477643156"></line><line style="stroke: #aaa; stroke-width: 1;" x1="533.426016102284" y1="533.4427363832833" x2="556.7173675344069" y2="578.8641397308459"></line><line style="stroke: #aaa; stroke-width: 1.41421;" x1="533.426016102284" y1="533.4427363832833" x2="780" y2="780"></line><line style="stroke: #aaa; stroke-width: 1.41421;" x1="578.848939475392" y1="556.7310477643156" x2="556.7173675344069" y2="578.8641397308459"></line><line style="stroke: #aaa; stroke-width: 1;" x1="780" y1="20.000033881369408" x2="578.848939475392" y2="243.1984185663026"></line><line style="stroke: #aaa; stroke-width: 1;" x1="578.848939475392" y1="243.1984185663026" x2="526.750063906899" y2="351.5808000297672"></line><line style="stroke: #aaa; stroke-width: 1;" x1="526.750063906899" y1="351.5808000297672" x2="526.750063906899" y2="448.3304259943061"></line><line style="stroke: #aaa; stroke-width: 1;" x1="526.750063906899" y1="448.3304259943061" x2="578.848939475392" y2="556.7310477643156"></line><line style="stroke: #aaa; stroke-width: 1;" x1="578.848939475392" y1="556.7310477643156" x2="780" y2="780"></line><line style="stroke: #aaa; stroke-width: 1;" x1="20.00002711725573" y1="780" x2="243.18473833639402" y2="578.8641397308459"></line><line style="stroke: #aaa; stroke-width: 1;" x1="243.18473833639402" y1="578.8641397308459" x2="351.5625597232224" y2="526.7683042134438"></line><line style="stroke: #aaa; stroke-width: 1;" x1="351.5625597232224" y1="526.7683042134438" x2="448.3121856877614" y2="526.7683042134438"></line><line style="stroke: #aaa; stroke-width: 1;" x1="448.3121856877614" y1="526.7683042134438" x2="556.7173675344069" y2="578.8641397308459"></line><line style="stroke: #aaa; stroke-width: 1;" x1="556.7173675344069" y1="578.8641397308459" x2="780" y2="780"></line><circle r="10" cx="20" cy="20.000028105272335" style="stroke: #000; fill: #69b3a2;"></circle><circle r="10" cx="243.18473833639402" cy="221.06532659977233" style="stroke: #000; fill: #69b3a2;"></circle><circle r="10" cx="351.5625597232224" cy="273.1429218106297" style="stroke: #000; fill: #69b3a2;"></circle><circle r="10" cx="448.3121856877614" cy="273.1429218106297" style="stroke: #000; fill: #69b3a2;"></circle><circle r="10" cx="556.7173675344069" cy="221.06532659977233" style="stroke: #000; fill: #69b3a2;"></circle><circle r="10" cx="780" cy="20.000033881369408" style="stroke: #000; fill: #69b3a2;"></circle><circle r="10" cx="221.05164636986373" cy="243.1984185663026" style="stroke: #000; fill: #69b3a2;"></circle><circle r="10" cx="266.46544958969923" cy="266.4806498451532" style="stroke: #000; fill: #69b3a2;"></circle><circle r="10" cx="356.8613687744775" cy="302.51893550097816" style="stroke: #000; fill: #69b3a2;"></circle><circle r="10" cx="443.01185661096105" cy="302.51893550097816" style="stroke: #000; fill: #69b3a2;"></circle><circle r="10" cx="533.426016102284" cy="266.4806498451532" style="stroke: #000; fill: #69b3a2;"></circle><circle r="10" cx="578.848939475392" cy="243.1984185663026" style="stroke: #000; fill: #69b3a2;"></circle><circle r="10" cx="273.12468150408495" cy="351.5808000297672" style="stroke: #000; fill: #69b3a2;"></circle><circle r="10" cx="302.5006951944334" cy="356.87960908102224" style="stroke: #000; fill: #69b3a2;"></circle><circle r="10" cx="363.45067951377484" cy="363.46891982031957" style="stroke: #000; fill: #69b3a2;"></circle><circle r="10" cx="436.4179857950275" cy="363.46891982031957" style="stroke: #000; fill: #69b3a2;"></circle><circle r="10" cx="497.3725301910052" cy="356.87960908102224" style="stroke: #000; fill: #69b3a2;"></circle><circle r="10" cx="526.750063906899" cy="351.5808000297672" style="stroke: #000; fill: #69b3a2;"></circle><circle r="10" cx="273.12468150408495" cy="448.3304259943061" style="stroke: #000; fill: #69b3a2;"></circle><circle r="10" cx="302.5006951944334" cy="443.0300969175058" style="stroke: #000; fill: #69b3a2;"></circle><circle r="10" cx="363.45067951377484" cy="436.43622610157223" style="stroke: #000; fill: #69b3a2;"></circle><circle r="10" cx="436.4179857950275" cy="436.43622610157223" style="stroke: #000; fill: #69b3a2;"></circle><circle r="10" cx="497.3725301910052" cy="443.0300969175058" style="stroke: #000; fill: #69b3a2;"></circle><circle r="10" cx="526.750063906899" cy="448.3304259943061" style="stroke: #000; fill: #69b3a2;"></circle><circle r="10" cx="221.05164636986373" cy="556.7310477643156" style="stroke: #000; fill: #69b3a2;"></circle><circle r="10" cx="266.46544958969923" cy="533.4427363832833" style="stroke: #000; fill: #69b3a2;"></circle><circle r="10" cx="356.8613687744775" cy="497.3907704975499" style="stroke: #000; fill: #69b3a2;"></circle><circle r="10" cx="443.01185661096105" cy="497.3907704975499" style="stroke: #000; fill: #69b3a2;"></circle><circle r="10" cx="533.426016102284" cy="533.4427363832833" style="stroke: #000; fill: #69b3a2;"></circle><circle r="10" cx="578.848939475392" cy="556.7310477643156" style="stroke: #000; fill: #69b3a2;"></circle><circle r="10" cx="20.00002711725573" cy="780" style="stroke: #000; fill: #69b3a2;"></circle><circle r="10" cx="243.18473833639402" cy="578.8641397308459" style="stroke: #000; fill: #69b3a2;"></circle><circle r="10" cx="351.5625597232224" cy="526.7683042134438" style="stroke: #000; fill: #69b3a2;"></circle><circle r="10" cx="448.3121856877614" cy="526.7683042134438" style="stroke: #000; fill: #69b3a2;"></circle><circle r="10" cx="556.7173675344069" cy="578.8641397308459" style="stroke: #000; fill: #69b3a2;"></circle><circle r="10" cx="780" cy="780" style="stroke: #000; fill: #69b3a2;"></circle></svg>