<svg width="800" height="800" xmlns="http://www.w3.org/2000/svg"><line style="stroke: #aaa; stroke-width: 1;" x1="20.004608244909548" y1="20.004608298379786" x2="172.00095079679454" y2="20.003469951998838"></line><line style="stroke: #aaa; stroke-width: 1;" x1="20.004608244909548" y1="20.004608298379786" x2="20.001321677585587" y2="172.00231878849928"></line><line style="stroke: #aaa; stroke-width: 1.41421;" x1="20.004608244909548" y1="20.004608298379786" x2="172.00110279587284" y2="172.0032307829691"></line><line style="stroke: #aaa; stroke-width: 1.41421;" x1="172.00095079679454" y1="20.003469951998838" x2="20.001321677585587" y2="172.00231878849928"></line><line style="stroke: #aaa; stroke-width: 1;" x1="172.00095079679454" y1="20.003469951998838" x2="323.99820511280393" y2="20.002764224838238"></line><line style="stroke: #aaa; stroke-width: 1;" x1="172.00095079679454" y1="20.003469951998838" x2="172.00110279587284" y2="172.0032307829691"></line><line style="stroke: #aaa; stroke-width: 1.41421;" x1="172.00095079679454" y1="20.003469951998838" x2="323.9997251035869" y2="172.00231878849928"></line><line style="stroke: #aaa; stroke-width: 1.41421;" x1="323.99820511280393" y1="20.002764224838238" x2="172.00110279587284" y2="172.0032307829691"></line><line style="stroke: #aaa; stroke-width: 1;" x1="323.99820511280393" y1="20.002764224838238" x2="475.9972834177528" y2="20.002169072447135"></line><line style="stroke: #aaa; stroke-width: 1;" x1="323.99820511280393" y1="20.002764224838238" x2="323.9997251035869" y2="172.00231878849928"></line><line style="stroke: #aaa; stroke-width: 1.41421;" x1="323.99820511280393" y1="20.002764224838238" x2="475.9988034085358" y2="172.0012547949511"></line><line style="stroke: #aaa; stroke-width: 1.41421;" x1="475.9972834177528" y1="20.002169072447135" x2="323.9997251035869" y2="172.00231878849928"></line><line style="stroke: #aaa; stroke-width: 1;" x1="475.9972834177528" y1="20.002169072447135" x2="627.9978817134848" y2="20.002337867423595"></line><line style="stroke: #aaa; stroke-width: 1;" x1="475.9972834177528" y1="20.002169072447135" x2="475.9988034085358" y2="172.0012547949511"></line><line style="stroke: #aaa; stroke-width: 1.41421;" x1="475.9972834177528" y1="20.002169072447135" x2="627.9978817134848" y2="172.00110279587284"></line><line style="stroke: #aaa; stroke-width: 1.41421;" x1="627.9978817134848" y1="20.002337867423595" x2="475.9988034085358" y2="172.0012547949511"></line><line style="stroke: #aaa; stroke-width: 1;" x1="627.9978817134848" y1="20.002337867423595" x2="780" y2="20.00460847065361"></line><line style="stroke: #aaa; stroke-width: 1;" x1="627.9978817134848" y1="20.002337867423595" x2="627.9978817134848" y2="172.00110279587284"></line><line style="stroke: #aaa; stroke-width: 1.41421;" x1="627.9978817134848" y1="20.002337867423595" x2="779.9954400276508" y2="172.00247078757758"></line><line style="stroke: #aaa; stroke-width: 1.41421;" x1="780" y1="20.00460847065361" x2="627.9978817134848" y2="172.00110279587284"></line><line style="stroke: #aaa; stroke-width: 1;" x1="20.001321677585587" y1="172.00231878849928" x2="172.00110279587284" y2="172.0032307829691"></line><line style="stroke: #aaa; stroke-width: 1;" x1="20.001321677585587" y1="172.00231878849928" x2="20.000281243894587" y2="324.00124509436995"></line><line style="stroke: #aaa; stroke-width: 1.41421;" x1="20.001321677585587" y1="172.00231878849928" x2="171.9998868032464" y2="324.00124509436995"></line><line style="stroke: #aaa; stroke-width: 1.41421;" x1="172.00110279587284" y1="172.0032307829691" x2="20.000281243894587" y2="324.00124509436995"></line><line style="stroke: #aaa; stroke-width: 1;" x1="172.00110279587284" y1="172.0032307829691" x2="323.9997251035869" y2="172.00231878849928"></line><line style="stroke: #aaa; stroke-width: 1;" x1="172.00110279587284" y1="172.0032307829691" x2="171.9998868032464" y2="324.00124509436995"></line><line style="stroke: #aaa; stroke-width: 1.41421;" x1="172.00110279587284" y1="172.0032307829691" x2="323.9997251035869" y2="324.00124509436995"></line><line style="stroke: #aaa; stroke-width: 1.41421;" x1="323.9997251035869" y1="172.00231878849928" x2="171.9998868032464" y2="324.00124509436995"></line><line style="stroke: #aaa; stroke-width: 1;" x1="323.9997251035869" y1="172.00231878849928" x2="475.9988034085358" y2="172.0012547949511"></line><line style="stroke: #aaa; stroke-width: 1;" x1="323.9997251035869" y1="172.00231878849928" x2="323.9997251035869" y2="324.00124509436995"></line><line style="stroke: #aaa; stroke-width: 1.41421;" x1="323.9997251035869" y1="172.00231878849928" x2="475.9988034085358" y2="324.00124509436995"></line><line style="stroke: #aaa; stroke-width: 1.41421;" x1="475.9988034085358" y1="172.0012547949511" x2="323.9997251035869" y2="324.00124509436995"></line><line style="stroke: #aaa; stroke-width: 1;" x1="475.9988034085358" y1="172.0012547949511" x2="627.9978817134848" y2="172.00110279587284"></line><line style="stroke: #aaa; stroke-width: 1;" x1="475.9988034085358" y1="172.0012547949511" x2="475.9988034085358" y2="324.00124509436995"></line><line style="stroke: #aaa; stroke-width: 1.41421;" x1="475.9988034085358" y1="172.0012547949511" x2="627.9963617227019" y2="324.00124509436995"></line><line style="stroke: #aaa; stroke-width: 1.41421;" x1="627.9978817134848" y1="172.00110279587284" x2="475.9988034085358" y2="324.00124509436995"></line><line style="stroke: #aaa; stroke-width: 1;" x1="627.9978817134848" y1="172.00110279587284" x2="779.9954400276508" y2="172.00247078757758"></line><line style="stroke: #aaa; stroke-width: 1;" x1="627.9978817134848" y1="172.00110279587284" x2="627.9963617227019" y2="324.00124509436995"></line><line style="stroke: #aaa; stroke-width: 1.41421;" x1="627.9978817134848" y1="172.00110279587284" x2="779.9954400276508" y2="324.00124509436995"></line><line style="stroke: #aaa; stroke-width: 1.41421;" x1="779.9954400276508" y1="172.00247078757758" x2="627.9963617227019" y2="324.00124509436995"></line><line style="stroke: #aaa; stroke-width: 1;" x1="20.000281243894587" y1="324.00124509436995" x2="171.9998868032464" y2="324.00124509436995"></line><line style="stroke: #aaa; stroke-width: 1;" x1="20.000281243894587" y1="324.00124509436995" x2="20" y2="476.0003233993189"></line><line style="stroke: #aaa; stroke-width: 1.41421;" x1="20.000281243894587" y1="324.00124509436995" x2="171.9994308060115" y2="476.0003233993189"></line><line style="stroke: #aaa; stroke-width: 1.41421;" x1="171.9998868032464" y1="324.00124509436995" x2="20" y2="476.0003233993189"></line><line style="stroke: #aaa; stroke-width: 1;" x1="171.9998868032464" y1="324.00124509436995" x2="323.9997251035869" y2="324.00124509436995"></line><line style="stroke: #aaa; stroke-width: 1;" x1="171.9998868032464" y1="324.00124509436995" x2="171.9994308060115" y2="476.0003233993189"></line><line style="stroke: #aaa; stroke-width: 1.41421;" x1="171.9998868032464" y1="324.00124509436995" x2="323.9997251035869" y2="476.0003233993189"></line><line style="stroke: #aaa; stroke-width: 1.41421;" x1="323.9997251035869" y1="324.00124509436995" x2="171.9994308060115" y2="476.0003233993189"></line><line style="stroke: #aaa; stroke-width: 1;" x1="323.9997251035869" y1="324.00124509436995" x2="475.9988034085358" y2="324.00124509436995"></line><line style="stroke: #aaa; stroke-width: 1;" x1="323.9997251035869" y1="324.00124509436995" x2="323.9997251035869" y2="476.0003233993189"></line><line style="stroke: #aaa; stroke-width: 1.41421;" x1="323.9997251035869" y1="324.00124509436995" x2="475.9988034085358" y2="476.0003233993189"></line><line style="stroke: #aaa; stroke-width: 1.41421;" x1="475.9988034085358" y1="324.00124509436995" x2="323.9997251035869" y2="476.0003233993189"></line><line style="stroke: #aaa; stroke-width: 1;" x1="475.9988034085358" y1="324.00124509436995" x2="627.9963617227019" y2="324.00124509436995"></line><line style="stroke: #aaa; stroke-width: 1;" x1="475.9988034085358" y1="324.00124509436995" x2="475.9988034085358" y2="476.0003233993189"></line><line style="stroke: #aaa; stroke-width: 1.41421;" x1="475.9988034085358" y1="324.00124509436995" x2="627.9978817134848" y2="476.0003233993189"></line><line style="stroke: #aaa; stroke-width: 1.41421;" x1="627.9963617227019" y1="324.00124509436995" x2="475.9988034085358" y2="476.0003233993189"></line><line style="stroke: #aaa; stroke-width: 1;" x1="627.9963617227019" y1="324.00124509436995" x2="779.9954400276508" y2="324.00124509436995"></line><line style="stroke: #aaa; stroke-width: 1;" x1="627.9963617227019" y1="324.00124509436995" x2="627.9978817134848" y2="476.0003233993189"></line><line style="stroke: #aaa; stroke-width: 1.41421;" x1="627.9963617227019" y1="324.00124509436995" x2="779.9954400276508" y2="476.0003233993189"></line><line style="stroke: #aaa; stroke-width: 1.41421;" x1="779.9954400276508" y1="324.00124509436995" x2="627.9978817134848" y2="476.0003233993189"></line><line style="stroke: #aaa; stroke-width: 1;" x1="20" y1="476.0003233993189" x2="171.9994308060115" y2="476.0003233993189"></line><line style="stroke: #aaa; stroke-width: 1;" x1="20" y1="476.0003233993189" x2="20.000788495218707" y2="627.9994017042678"></line><line style="stroke: #aaa; stroke-width: 1.41421;" x1="20" y1="476.0003233993189" x2="172.0000388023247" y2="627.9978817134848"></line><line style="stroke: #aaa; stroke-width: 1.41421;" x1="171.9994308060115" y1="476.0003233993189" x2="20.000788495218707" y2="627.9994017042678"></line><line style="stroke: #aaa; stroke-width: 1;" x1="171.9994308060115" y1="476.0003233993189" x2="323.9997251035869" y2="476.0003233993189"></line><line style="stroke: #aaa; stroke-width: 1;" x1="171.9994308060115" y1="476.0003233993189" x2="172.0000388023247" y2="627.9978817134848"></line><line style="stroke: #aaa; stroke-width: 1.41421;" x1="171.9994308060115" y1="476.0003233993189" x2="323.9997251035869" y2="627.9978817134848"></line><line style="stroke: #aaa; stroke-width: 1.41421;" x1="323.9997251035869" y1="476.0003233993189" x2="172.0000388023247" y2="627.9978817134848"></line><line style="stroke: #aaa; stroke-width: 1;" x1="323.9997251035869" y1="476.0003233993189" x2="475.9988034085358" y2="476.0003233993189"></line><line style="stroke: #aaa; stroke-width: 1;" x1="323.9997251035869" y1="476.0003233993189" x2="323.9997251035869" y2="627.9978817134848"></line><line style="stroke: #aaa; stroke-width: 1.41421;" x1="323.9997251035869" y1="476.0003233993189" x2="475.9988034085358" y2="627.9994017042678"></line><line style="stroke: #aaa; stroke-width: 1.41421;" x1="475.9988034085358" y1="476.0003233993189" x2="323.9997251035869" y2="627.9978817134848"></line><line style="stroke: #aaa; stroke-width: 1;" x1="475.9988034085358" y1="476.0003233993189" x2="627.9978817134848" y2="476.0003233993189"></line><line style="stroke: #aaa; stroke-width: 1;" x1="475.9988034085358" y1="476.0003233993189" x2="475.9988034085358" y2="627.9994017042678"></line><line style="stroke: #aaa; stroke-width: 1.41421;" x1="475.9988034085358" y1="476.0003233993189" x2="627.9978817134848" y2="628.000921695051"></line><line style="stroke: #aaa; stroke-width: 1.41421;" x1="627.9978817134848" y1="476.0003233993189" x2="475.9988034085358" y2="627.9994017042678"></line><line style="stroke: #aaa; stroke-width: 1;" x1="627.9978817134848" y1="476.0003233993189" x2="779.9954400276508" y2="476.0003233993189"></line><line style="stroke: #aaa; stroke-width: 1;" x1="627.9978817134848" y1="476.0003233993189" x2="627.9978817134848" y2="628.000921695051"></line><line style="stroke: #aaa; stroke-width: 1.41421;" x1="627.9978817134848" y1="476.0003233993189" x2="779.9969600184339" y2="627.9994017042678"></line><line style="stroke: #aaa; stroke-width: 1.41421;" x1="779.9954400276508" y1="476.0003233993189" x2="627.9978817134848" y2="628.000921695051"></line><line style="stroke: #aaa; stroke-width: 1;" x1="20.000788495218707" y1="627.9994017042678" x2="172.0000388023247" y2="627.9978817134848"></line><line style="stroke: #aaa; stroke-width: 1;" x1="20.000788495218707" y1="627.9994017042678" x2="20.004608328313118" y2="780"></line><line style="stroke: #aaa; stroke-width: 1.41421;" x1="20.000788495218707" y1="627.9994017042678" x2="172.00110279587284" y2="779.998480009217"></line><line style="stroke: #aaa; stroke-width: 1.41421;" x1="172.0000388023247" y1="627.9978817134848" x2="20.004608328313118" y2="780"></line><line style="stroke: #aaa; stroke-width: 1;" x1="172.0000388023247" y1="627.9978817134848" x2="323.9997251035869" y2="627.9978817134848"></line><line style="stroke: #aaa; stroke-width: 1;" x1="172.0000388023247" y1="627.9978817134848" x2="172.00110279587284" y2="779.998480009217"></line><line style="stroke: #aaa; stroke-width: 1.41421;" x1="172.0000388023247" y1="627.9978817134848" x2="323.99820511280393" y2="779.9969600184339"></line><line style="stroke: #aaa; stroke-width: 1.41421;" x1="323.9997251035869" y1="627.9978817134848" x2="172.00110279587284" y2="779.998480009217"></line><line style="stroke: #aaa; stroke-width: 1;" x1="323.9997251035869" y1="627.9978817134848" x2="475.9988034085358" y2="627.9994017042678"></line><line style="stroke: #aaa; stroke-width: 1;" x1="323.9997251035869" y1="627.9978817134848" x2="323.99820511280393" y2="779.9969600184339"></line><line style="stroke: #aaa; stroke-width: 1.41421;" x1="323.9997251035869" y1="627.9978817134848" x2="475.9972834177528" y2="779.998480009217"></line><line style="stroke: #aaa; stroke-width: 1.41421;" x1="475.9988034085358" y1="627.9994017042678" x2="323.99820511280393" y2="779.9969600184339"></line><line style="stroke: #aaa; stroke-width: 1;" x1="475.9988034085358" y1="627.9994017042678" x2="627.9978817134848" y2="628.000921695051"></line><line style="stroke: #aaa; stroke-width: 1;" x1="475.9988034085358" y1="627.9994017042678" x2="475.9972834177528" y2="779.998480009217"></line><line style="stroke: #aaa; stroke-width: 1.41421;" x1="475.9988034085358" y1="627.9994017042678" x2="627.9978817134848" y2="779.998480009217"></line><line style="stroke: #aaa; stroke-width: 1.41421;" x1="627.9978817134848" y1="628.000921695051" x2="475.9972834177528" y2="779.998480009217"></line><line style="stroke: #aaa; stroke-width: 1;" x1="627.9978817134848" y1="628.000921695051" x2="779.9969600184339" y2="627.9994017042678"></line><line style="stroke: #aaa; stroke-width: 1;" x1="627.9978817134848" y1="628.000921695051" x2="627.9978817134848" y2="779.998480009217"></line><line style="stroke: #aaa; stroke-width: 1.41421;" x1="627.9978817134848" y1="628.000921695051" x2="780" y2="780"></line><line style="stroke: #aaa; stroke-width: 1.41421;" x1="779.9969600184339" y1="627.9994017042678" x2="627.9978817134848" y2="779.998480009217"></line><line style="stroke: #aaa; stroke-width: 1;" x1="780" y1="20.00460847065361" x2="779.9954400276508" y2="172.00247078757758"></line><line style="stroke: #aaa; stroke-width: 1;" x1="779.9954400276508" y1="172.00247078757758" x2="779.9954400276508" y2="324.00124509436995"></line><line style="stroke: #aaa; stroke-width: 1;" x1="779.9954400276508" y1="324.00124509436995" x2="779.9954400276508" y2="476.0003233993189"></line><line style="stroke: #aaa; stroke-width: 1;" x1="779.9954400276508" y1="476.0003233993189" x2="779.9969600184339" y2="627.9994017042678"></line><line style="stroke: #aaa; stroke-width: 1;" x1="779.9969600184339" y1="627.9994017042678" x2="780" y2="780"></line><line style="stroke: #aaa; stroke-width: 1;" x1="20.004608328313118" y1="780" x2="172.00110279587284" y2="779.998480009217"></line><line style="stroke: #aaa; stroke-width: 1;" x1="172.00110279587284" y1="779.998480009217" x2="323.99820511280393" y2="779.9969600184339"></line><line style="stroke: #aaa; stroke-width: 1;" x1="323.99820511280393" y1="779.9969600184339" x2="475.9972834177528" y2="779.998480009217"></line><line style="stroke: #aaa; stroke-width: 1;" x1="475.9972834177528" y1="779.998480009217" x2="627.9978817134848" y2="779.998480009217"></line><line style="stroke: #aaa; stroke-width: 1;" x1="627.9978817134848" y1="779.998480009217" x2="780" y2="780"></line><circle r="10" cx="20.004608244909548" cy="20.004608298379786" style="stroke: #000; fill: #69b3a2;"></circle><circle r="10" cx="172.00095079679454" cy="20.003469951998838" style="stroke: #000; fill: #69b3a2;"></circle><circle r="10" cx="323.99820511280393" cy="20.002764224838238" style="stroke: #000; fill: #69b3a2;"></circle><circle r="10" cx="475.9972834177528" cy="20.002169072447135" style="stroke: #000; fill: #69b3a2;"></circle><circle r="10" cx="627.9978817134848" cy="20.002337867423595" style="stroke: #000; fill: #69b3a2;"></circle><circle r="10" cx="780" cy="20.00460847065361" style="stroke: #000; fill: #69b3a2;"></circle><circle r="10" cx="20.001321677585587" cy="172.00231878849928" style="stroke: #000; fill: #69b3a2;"></circle><circle r="10" cx="172.00110279587284" cy="172.0032307829691" style="stroke: #000; fill: #69b3a2;"></circle><circle r="10" cx="323.9997251035869" cy="172.00231878849928" style="stroke: #000; fill: #69b3a2;"></circle><circle r="10" cx="475.9988034085358" cy="172.0012547949511" style="stroke: #000; fill: #69b3a2;"></circle><circle r="10" cx="627.9978817134848" cy="172.00110279587284" style="stroke: #000; fill: #69b3a2;"></circle><circle r="10" cx="779.9954400276508" cy="172.00247078757758" style="stroke: #000; fill: #69b3a2;"></circle><circle r="10" cx="20.000281243894587" cy="324.00124509436995" style="stroke: #000; fill: #69b3a2;"></circle><circle r="10" cx="171.9998868032464" cy="324.00124509436995" style="stroke: #000; fill: #69b3a2;"></circle><circle r="10" cx="323.9997251035869" cy="324.00124509436995" style="stroke: #000; fill: #69b3a2;"></circle><circle r="10" cx="475.9988034085358" cy="324.00124509436995" style="stroke: #000; fill: #69b3a2;"></circle><circle r="10" cx="627.9963617227019" cy="324.00124509436995" style="stroke: #000; fill: #69b3a2;"></circle><circle r="10" cx="779.9954400276508" cy="324.00124509436995" style="stroke: #000; fill: #69b3a2;"></circle><circle r="10" cx="20" cy="476.0003233993189" style="stroke: #000; fill: #69b3a2;"></circle><circle r="10" cx="171.9994308060115" cy="476.0003233993189" style="stroke: #000; fill: #69b3a2;"></circle><circle r="10" cx="323.9997251035869" cy="476.0003233993189" style="stroke: #000; fill: #69b3a2;"></circle><circle r="10" cx="475.9988034085358" cy="476.0003233993189" style="stroke: #000; fill: #69b3a2;"></circle><circle r="10" cx="627.9978817134848" cy="476.0003233993189" style="stroke: #000; fill: #69b3a2;"></circle><circle r="10" cx="779.9954400276508" cy="476.0003233993189" style="stroke: #000; fill: #69b3a2;"></circle><circle r="10" cx="20.000788495218707" cy="627.9994017042678" style="stroke: #000; fill: #69b3a2;"></circle><circle r="10" cx="172.0000388023247" cy="627.9978817134848" style="stroke: #000; fill: #69b3a2;"></circle><circle r="10" cx="323.9997251035869" cy="627.9978817134848" style="stroke: #000; fill: #69b3a2;"></circle><circle r="10" cx="475.9988034085358" cy="627.9994017042678" style="stroke: #000; fill: #69b3a2;"></circle><circle r="10" cx="627.9978817134848" cy="628.000921695051" style="stroke: #000; fill: #69b3a2;"></circle><circle r="10" cx="779.9969600184339" cy="627.9994017042678" style="stroke: #000; fill: #69b3a2;"></circle><circle r="10" cx="20.004608328313118" cy="780" style="stroke: #000; fill: #69b3a2;"></circle><circle r="10" cx="172.00110279587284" cy="779.998480009217" style="stroke: #000; fill: #69b3a2;"></circle><circle r="10" cx="323.99820511280393" cy="779.9969600184339" style="stroke: #000; fill: #69b3a2;"></circle><circle r="10" cx="475.9972834177528" cy="779.998480009217" style="stroke: #000; fill: #69b3a2;"></circle><circle r="10" cx="627.9978817134848" cy="779.998480009217" style="stroke: #000; fill: #69b3a2;"></circle><circle r="10" cx="780" cy="780" style="stroke: #000; fill: #69b3a2;"></circle></svg>