<svg width="800" height="800" xmlns="http://www.w3.org/2000/svg"><line style="stroke: #aaa; stroke-width: 1;" x1="21.379586417826523" y1="21.379333043373347" x2="108.58155774432876" y2="52.15631199645276"></line><line style="stroke: #aaa; stroke-width: 1;" x1="21.379586417826523" y1="21.379333043373347" x2="20.569194121489666" y2="103.71196282783913"></line><line style="stroke: #aaa; stroke-width: 1.41421;" x1="21.379586417826523" y1="21.379333043373347" x2="98.88636799004655" y2="96.30212198864105"></line><line style="stroke: #aaa; stroke-width: 1.41421;" x1="108.58155774432876" y1="52.15631199645276" x2="20.569194121489666" y2="103.71196282783913"></line><line style="stroke: #aaa; stroke-width: 1;" x1="108.58155774432876" y1="52.15631199645276" x2="178.1221648809319" y2="131.5291160289362"></line><line style="stroke: #aaa; stroke-width: 1;" x1="108.58155774432876" y1="52.15631199645276" x2="98.88636799004655" y2="96.30212198864105"></line><line style="stroke: #aaa; stroke-width: 1.41421;" x1="108.58155774432876" y1="52.15631199645276" x2="191.58998207246336" y2="90.27866293942344"></line><line style="stroke: #aaa; stroke-width: 1.41421;" x1="178.1221648809319" y1="131.5291160289362" x2="98.88636799004655" y2="96.30212198864105"></line><line style="stroke: #aaa; stroke-width: 1;" x1="178.1221648809319" y1="131.5291160289362" x2="262.3102464913755" y2="165.8097290662214"></line><line style="stroke: #aaa; stroke-width: 1;" x1="178.1221648809319" y1="131.5291160289362" x2="191.58998207246336" y2="90.27866293942344"></line><line style="stroke: #aaa; stroke-width: 1.41421;" x1="178.1221648809319" y1="131.5291160289362" x2="273.025024276155" y2="93.41055819619801"></line><line style="stroke: #aaa; stroke-width: 1.41421;" x1="262.3102464913755" y1="165.8097290662214" x2="191.58998207246336" y2="90.27866293942344"></line><line style="stroke: #aaa; stroke-width: 1;" x1="262.3102464913755" y1="165.8097290662214" x2="348.9448842017847" y2="166.95904146667036"></line><line style="stroke: #aaa; stroke-width: 1;" x1="262.3102464913755" y1="165.8097290662214" x2="273.025024276155" y2="93.41055819619801"></line><line style="stroke: #aaa; stroke-width: 1.41421;" x1="262.3102464913755" y1="165.8097290662214" x2="353.5178578980924" y2="108.54362664200373"></line><line style="stroke: #aaa; stroke-width: 1.41421;" x1="348.9448842017847" y1="166.95904146667036" x2="273.025024276155" y2="93.41055819619801"></line><line style="stroke: #aaa; stroke-width: 1;" x1="348.9448842017847" y1="166.95904146667036" x2="439.7155293097171" y2="124.29641343759607"></line><line style="stroke: #aaa; stroke-width: 1;" x1="348.9448842017847" y1="166.95904146667036" x2="353.5178578980924" y2="108.54362664200373"></line><line style="stroke: #aaa; stroke-width: 1.41421;" x1="348.9448842017847" y1="166.95904146667036" x2="442.2553959214023" y2="157.07192033462337"></line><line style="stroke: #aaa; stroke-width: 1.41421;" x1="439.7155293097171" y1="124.29641343759607" x2="353.5178578980924" y2="108.54362664200373"></line><line style="stroke: #aaa; stroke-width: 1;" x1="439.7155293097171" y1="124.29641343759607" x2="523.7898176131855" y2="104.15120499276318"></line><line style="stroke: #aaa; stroke-width: 1;" x1="439.7155293097171" y1="124.29641343759607" x2="442.2553959214023" y2="157.07192033462337"></line><line style="stroke: #aaa; stroke-width: 1.41421;" x1="439.7155293097171" y1="124.29641343759607" x2="521.6247102924717" y2="187.03976703755066"></line><line style="stroke: #aaa; stroke-width: 1.41421;" x1="523.7898176131855" y1="104.15120499276318" x2="442.2553959214023" y2="157.07192033462337"></line><line style="stroke: #aaa; stroke-width: 1;" x1="523.7898176131855" y1="104.15120499276318" x2="598.064984942001" y2="116.17991616208235"></line><line style="stroke: #aaa; stroke-width: 1;" x1="523.7898176131855" y1="104.15120499276318" x2="521.6247102924717" y2="187.03976703755066"></line><line style="stroke: #aaa; stroke-width: 1.41421;" x1="523.7898176131855" y1="104.15120499276318" x2="587.1385516062478" y2="189.60390955472386"></line><line style="stroke: #aaa; stroke-width: 1.41421;" x1="598.064984942001" y1="116.17991616208235" x2="521.6247102924717" y2="187.03976703755066"></line><line style="stroke: #aaa; stroke-width: 1;" x1="598.064984942001" y1="116.17991616208235" x2="660.3895791722873" y2="110.20273305770132"></line><line style="stroke: #aaa; stroke-width: 1;" x1="598.064984942001" y1="116.17991616208235" x2="587.1385516062478" y2="189.60390955472386"></line><line style="stroke: #aaa; stroke-width: 1.41421;" x1="598.064984942001" y1="116.17991616208235" x2="680.0340970664295" y2="190.28439353043524"></line><line style="stroke: #aaa; stroke-width: 1.41421;" x1="660.3895791722873" y1="110.20273305770132" x2="587.1385516062478" y2="189.60390955472386"></line><line style="stroke: #aaa; stroke-width: 1;" x1="660.3895791722873" y1="110.20273305770132" x2="755.9691294329891" y2="108.9987998699043"></line><line style="stroke: #aaa; stroke-width: 1;" x1="660.3895791722873" y1="110.20273305770132" x2="680.0340970664295" y2="190.28439353043524"></line><line style="stroke: #aaa; stroke-width: 1.41421;" x1="660.3895791722873" y1="110.20273305770132" x2="732.0520521729536" y2="123.32917032830736"></line><line style="stroke: #aaa; stroke-width: 1.41421;" x1="755.9691294329891" y1="108.9987998699043" x2="680.0340970664295" y2="190.28439353043524"></line><line style="stroke: #aaa; stroke-width: 1;" x1="755.9691294329891" y1="108.9987998699043" x2="780" y2="21.380083148370133"></line><line style="stroke: #aaa; stroke-width: 1;" x1="755.9691294329891" y1="108.9987998699043" x2="732.0520521729536" y2="123.32917032830736"></line><line style="stroke: #aaa; stroke-width: 1.41421;" x1="755.9691294329891" y1="108.9987998699043" x2="692.7652922508086" y2="44.42208437017086"></line><line style="stroke: #aaa; stroke-width: 1.41421;" x1="780" y1="21.380083148370133" x2="732.0520521729536" y2="123.32917032830736"></line><line style="stroke: #aaa; stroke-width: 1;" x1="20.569194121489666" y1="103.71196282783913" x2="98.88636799004655" y2="96.30212198864105"></line><line style="stroke: #aaa; stroke-width: 1;" x1="20.569194121489666" y1="103.71196282783913" x2="32.16874521288277" y2="177.2505081495023"></line><line style="stroke: #aaa; stroke-width: 1.41421;" x1="20.569194121489666" y1="103.71196282783913" x2="110.9719758128533" y2="167.53255973382505"></line><line style="stroke: #aaa; stroke-width: 1.41421;" x1="98.88636799004655" y1="96.30212198864105" x2="32.16874521288277" y2="177.2505081495023"></line><line style="stroke: #aaa; stroke-width: 1;" x1="98.88636799004655" y1="96.30212198864105" x2="191.58998207246336" y2="90.27866293942344"></line><line style="stroke: #aaa; stroke-width: 1;" x1="98.88636799004655" y1="96.30212198864105" x2="110.9719758128533" y2="167.53255973382505"></line><line style="stroke: #aaa; stroke-width: 1.41421;" x1="98.88636799004655" y1="96.30212198864105" x2="187.75287176126153" y2="165.27490052343825"></line><line style="stroke: #aaa; stroke-width: 1.41421;" x1="191.58998207246336" y1="90.27866293942344" x2="110.9719758128533" y2="167.53255973382505"></line><line style="stroke: #aaa; stroke-width: 1;" x1="191.58998207246336" y1="90.27866293942344" x2="273.025024276155" y2="93.41055819619801"></line><line style="stroke: #aaa; stroke-width: 1;" x1="191.58998207246336" y1="90.27866293942344" x2="187.75287176126153" y2="165.27490052343825"></line><line style="stroke: #aaa; stroke-width: 1.41421;" x1="191.58998207246336" y1="90.27866293942344" x2="264.43666408771765" y2="170.25070252643798"></line><line style="stroke: #aaa; stroke-width: 1.41421;" x1="273.025024276155" y1="93.41055819619801" x2="187.75287176126153" y2="165.27490052343825"></line><line style="stroke: #aaa; stroke-width: 1;" x1="273.025024276155" y1="93.41055819619801" x2="353.5178578980924" y2="108.54362664200373"></line><line style="stroke: #aaa; stroke-width: 1;" x1="273.025024276155" y1="93.41055819619801" x2="264.43666408771765" y2="170.25070252643798"></line><line style="stroke: #aaa; stroke-width: 1.41421;" x1="273.025024276155" y1="93.41055819619801" x2="339.1298321641553" y2="177.87030236149357"></line><line style="stroke: #aaa; stroke-width: 1.41421;" x1="353.5178578980924" y1="108.54362664200373" x2="264.43666408771765" y2="170.25070252643798"></line><line style="stroke: #aaa; stroke-width: 1;" x1="353.5178578980924" y1="108.54362664200373" x2="442.2553959214023" y2="157.07192033462337"></line><line style="stroke: #aaa; stroke-width: 1;" x1="353.5178578980924" y1="108.54362664200373" x2="339.1298321641553" y2="177.87030236149357"></line><line style="stroke: #aaa; stroke-width: 1.41421;" x1="353.5178578980924" y1="108.54362664200373" x2="417.6282484258417" y2="196.26916285528125"></line><line style="stroke: #aaa; stroke-width: 1.41421;" x1="442.2553959214023" y1="157.07192033462337" x2="339.1298321641553" y2="177.87030236149357"></line><line style="stroke: #aaa; stroke-width: 1;" x1="442.2553959214023" y1="157.07192033462337" x2="521.6247102924717" y2="187.03976703755066"></line><line style="stroke: #aaa; stroke-width: 1;" x1="442.2553959214023" y1="157.07192033462337" x2="417.6282484258417" y2="196.26916285528125"></line><line style="stroke: #aaa; stroke-width: 1.41421;" x1="442.2553959214023" y1="157.07192033462337" x2="499.71646421157067" y2="252.6545050835113"></line><line style="stroke: #aaa; stroke-width: 1.41421;" x1="521.6247102924717" y1="187.03976703755066" x2="417.6282484258417" y2="196.26916285528125"></line><line style="stroke: #aaa; stroke-width: 1;" x1="521.6247102924717" y1="187.03976703755066" x2="587.1385516062478" y2="189.60390955472386"></line><line style="stroke: #aaa; stroke-width: 1;" x1="521.6247102924717" y1="187.03976703755066" x2="499.71646421157067" y2="252.6545050835113"></line><line style="stroke: #aaa; stroke-width: 1.41421;" x1="521.6247102924717" y1="187.03976703755066" x2="599.5344358460735" y2="269.3191555789978"></line><line style="stroke: #aaa; stroke-width: 1.41421;" x1="587.1385516062478" y1="189.60390955472386" x2="499.71646421157067" y2="252.6545050835113"></line><line style="stroke: #aaa; stroke-width: 1;" x1="587.1385516062478" y1="189.60390955472386" x2="680.0340970664295" y2="190.28439353043524"></line><line style="stroke: #aaa; stroke-width: 1;" x1="587.1385516062478" y1="189.60390955472386" x2="599.5344358460735" y2="269.3191555789978"></line><line style="stroke: #aaa; stroke-width: 1.41421;" x1="587.1385516062478" y1="189.60390955472386" x2="666.6975214889428" y2="209.26359988979615"></line><line style="stroke: #aaa; stroke-width: 1.41421;" x1="680.0340970664295" y1="190.28439353043524" x2="599.5344358460735" y2="269.3191555789978"></line><line style="stroke: #aaa; stroke-width: 1;" x1="680.0340970664295" y1="190.28439353043524" x2="732.0520521729536" y2="123.32917032830736"></line><line style="stroke: #aaa; stroke-width: 1;" x1="680.0340970664295" y1="190.28439353043524" x2="666.6975214889428" y2="209.26359988979615"></line><line style="stroke: #aaa; stroke-width: 1.41421;" x1="680.0340970664295" y1="190.28439353043524" x2="629.7116622338351" y2="124.69317276791608"></line><line style="stroke: #aaa; stroke-width: 1.41421;" x1="732.0520521729536" y1="123.32917032830736" x2="666.6975214889428" y2="209.26359988979615"></line><line style="stroke: #aaa; stroke-width: 1;" x1="732.0520521729536" y1="123.32917032830736" x2="692.7652922508086" y2="44.42208437017086"></line><line style="stroke: #aaa; stroke-width: 1;" x1="732.0520521729536" y1="123.32917032830736" x2="629.7116622338351" y2="124.69317276791608"></line><line style="stroke: #aaa; stroke-width: 1.41421;" x1="732.0520521729536" y1="123.32917032830736" x2="639.1360239175166" y2="119.01488674985642"></line><line style="stroke: #aaa; stroke-width: 1.41421;" x1="692.7652922508086" y1="44.42208437017086" x2="629.7116622338351" y2="124.69317276791608"></line><line style="stroke: #aaa; stroke-width: 1;" x1="32.16874521288277" y1="177.2505081495023" x2="110.9719758128533" y2="167.53255973382505"></line><line style="stroke: #aaa; stroke-width: 1;" x1="32.16874521288277" y1="177.2505081495023" x2="39.00499192272149" y2="248.5192563080346"></line><line style="stroke: #aaa; stroke-width: 1.41421;" x1="32.16874521288277" y1="177.2505081495023" x2="114.34784391978255" y2="245.69035469663257"></line><line style="stroke: #aaa; stroke-width: 1.41421;" x1="110.9719758128533" y1="167.53255973382505" x2="39.00499192272149" y2="248.5192563080346"></line><line style="stroke: #aaa; stroke-width: 1;" x1="110.9719758128533" y1="167.53255973382505" x2="187.75287176126153" y2="165.27490052343825"></line><line style="stroke: #aaa; stroke-width: 1;" x1="110.9719758128533" y1="167.53255973382505" x2="114.34784391978255" y2="245.69035469663257"></line><line style="stroke: #aaa; stroke-width: 1.41421;" x1="110.9719758128533" y1="167.53255973382505" x2="187.5806645567058" y2="245.3315264686376"></line><line style="stroke: #aaa; stroke-width: 1.41421;" x1="187.75287176126153" y1="165.27490052343825" x2="114.34784391978255" y2="245.69035469663257"></line><line style="stroke: #aaa; stroke-width: 1;" x1="187.75287176126153" y1="165.27490052343825" x2="264.43666408771765" y2="170.25070252643798"></line><line style="stroke: #aaa; stroke-width: 1;" x1="187.75287176126153" y1="165.27490052343825" x2="187.5806645567058" y2="245.3315264686376"></line><line style="stroke: #aaa; stroke-width: 1.41421;" x1="187.75287176126153" y1="165.27490052343825" x2="260.6253469260969" y2="248.22491095399224"></line><line style="stroke: #aaa; stroke-width: 1.41421;" x1="264.43666408771765" y1="170.25070252643798" x2="187.5806645567058" y2="245.3315264686376"></line><line style="stroke: #aaa; stroke-width: 1;" x1="264.43666408771765" y1="170.25070252643798" x2="339.1298321641553" y2="177.87030236149357"></line><line style="stroke: #aaa; stroke-width: 1;" x1="264.43666408771765" y1="170.25070252643798" x2="260.6253469260969" y2="248.22491095399224"></line><line style="stroke: #aaa; stroke-width: 1.41421;" x1="264.43666408771765" y1="170.25070252643798" x2="333.9939609093438" y2="253.4199547284308"></line><line style="stroke: #aaa; stroke-width: 1.41421;" x1="339.1298321641553" y1="177.87030236149357" x2="260.6253469260969" y2="248.22491095399224"></line><line style="stroke: #aaa; stroke-width: 1;" x1="339.1298321641553" y1="177.87030236149357" x2="417.6282484258417" y2="196.26916285528125"></line><line style="stroke: #aaa; stroke-width: 1;" x1="339.1298321641553" y1="177.87030236149357" x2="333.9939609093438" y2="253.4199547284308"></line><line style="stroke: #aaa; stroke-width: 1.41421;" x1="339.1298321641553" y1="177.87030236149357" x2="409.2204402844716" y2="255.4219583091468"></line><line style="stroke: #aaa; stroke-width: 1.41421;" x1="417.6282484258417" y1="196.26916285528125" x2="333.9939609093438" y2="253.4199547284308"></line><line style="stroke: #aaa; stroke-width: 1;" x1="417.6282484258417" y1="196.26916285528125" x2="499.71646421157067" y2="252.6545050835113"></line><line style="stroke: #aaa; stroke-width: 1;" x1="417.6282484258417" y1="196.26916285528125" x2="409.2204402844716" y2="255.4219583091468"></line><line style="stroke: #aaa; stroke-width: 1.41421;" x1="417.6282484258417" y1="196.26916285528125" x2="496.7722520491004" y2="244.2937315090243"></line><line style="stroke: #aaa; stroke-width: 1.41421;" x1="499.71646421157067" y1="252.6545050835113" x2="409.2204402844716" y2="255.4219583091468"></line><line style="stroke: #aaa; stroke-width: 1;" x1="499.71646421157067" y1="252.6545050835113" x2="599.5344358460735" y2="269.3191555789978"></line><line style="stroke: #aaa; stroke-width: 1;" x1="499.71646421157067" y1="252.6545050835113" x2="496.7722520491004" y2="244.2937315090243"></line><line style="stroke: #aaa; stroke-width: 1.41421;" x1="499.71646421157067" y1="252.6545050835113" x2="575.6492207119909" y2="220.06713645401624"></line><line style="stroke: #aaa; stroke-width: 1.41421;" x1="599.5344358460735" y1="269.3191555789978" x2="496.7722520491004" y2="244.2937315090243"></line><line style="stroke: #aaa; stroke-width: 1;" x1="599.5344358460735" y1="269.3191555789978" x2="666.6975214889428" y2="209.26359988979615"></line><line style="stroke: #aaa; stroke-width: 1;" x1="599.5344358460735" y1="269.3191555789978" x2="575.6492207119909" y2="220.06713645401624"></line><line style="stroke: #aaa; stroke-width: 1.41421;" x1="599.5344358460735" y1="269.3191555789978" x2="557.025808092439" y2="199.83316922974277"></line><line style="stroke: #aaa; stroke-width: 1.41421;" x1="666.6975214889428" y1="209.26359988979615" x2="575.6492207119909" y2="220.06713645401624"></line><line style="stroke: #aaa; stroke-width: 1;" x1="666.6975214889428" y1="209.26359988979615" x2="629.7116622338351" y2="124.69317276791608"></line><line style="stroke: #aaa; stroke-width: 1;" x1="666.6975214889428" y1="209.26359988979615" x2="557.025808092439" y2="199.83316922974277"></line><line style="stroke: #aaa; stroke-width: 1.41421;" x1="666.6975214889428" y1="209.26359988979615" x2="581.011919958706" y2="207.8722870565134"></line><line style="stroke: #aaa; stroke-width: 1.41421;" x1="629.7116622338351" y1="124.69317276791608" x2="557.025808092439" y2="199.83316922974277"></line><line style="stroke: #aaa; stroke-width: 1;" x1="629.7116622338351" y1="124.69317276791608" x2="639.1360239175166" y2="119.01488674985642"></line><line style="stroke: #aaa; stroke-width: 1;" x1="629.7116622338351" y1="124.69317276791608" x2="581.011919958706" y2="207.8722870565134"></line><line style="stroke: #aaa; stroke-width: 1.41421;" x1="629.7116622338351" y1="124.69317276791608" x2="658.3450927569671" y2="210.14815319601627"></line><line style="stroke: #aaa; stroke-width: 1.41421;" x1="639.1360239175166" y1="119.01488674985642" x2="581.011919958706" y2="207.8722870565134"></line><line style="stroke: #aaa; stroke-width: 1;" x1="39.00499192272149" y1="248.5192563080346" x2="114.34784391978255" y2="245.69035469663257"></line><line style="stroke: #aaa; stroke-width: 1;" x1="39.00499192272149" y1="248.5192563080346" x2="39.12333696197564" y2="323.36718328195843"></line><line style="stroke: #aaa; stroke-width: 1.41421;" x1="39.00499192272149" y1="248.5192563080346" x2="114.13998147904128" y2="323.94221879320617"></line><line style="stroke: #aaa; stroke-width: 1.41421;" x1="114.34784391978255" y1="245.69035469663257" x2="39.12333696197564" y2="323.36718328195843"></line><line style="stroke: #aaa; stroke-width: 1;" x1="114.34784391978255" y1="245.69035469663257" x2="187.5806645567058" y2="245.3315264686376"></line><line style="stroke: #aaa; stroke-width: 1;" x1="114.34784391978255" y1="245.69035469663257" x2="114.13998147904128" y2="323.94221879320617"></line><line style="stroke: #aaa; stroke-width: 1.41421;" x1="114.34784391978255" y1="245.69035469663257" x2="187.68383715502995" y2="324.7812547766362"></line><line style="stroke: #aaa; stroke-width: 1.41421;" x1="187.5806645567058" y1="245.3315264686376" x2="114.13998147904128" y2="323.94221879320617"></line><line style="stroke: #aaa; stroke-width: 1;" x1="187.5806645567058" y1="245.3315264686376" x2="260.6253469260969" y2="248.22491095399224"></line><line style="stroke: #aaa; stroke-width: 1;" x1="187.5806645567058" y1="245.3315264686376" x2="187.68383715502995" y2="324.7812547766362"></line><line style="stroke: #aaa; stroke-width: 1.41421;" x1="187.5806645567058" y1="245.3315264686376" x2="261.2656239333437" y2="326.4198783970783"></line><line style="stroke: #aaa; stroke-width: 1.41421;" x1="260.6253469260969" y1="248.22491095399224" x2="187.68383715502995" y2="324.7812547766362"></line><line style="stroke: #aaa; stroke-width: 1;" x1="260.6253469260969" y1="248.22491095399224" x2="333.9939609093438" y2="253.4199547284308"></line><line style="stroke: #aaa; stroke-width: 1;" x1="260.6253469260969" y1="248.22491095399224" x2="261.2656239333437" y2="326.4198783970783"></line><line style="stroke: #aaa; stroke-width: 1.41421;" x1="260.6253469260969" y1="248.22491095399224" x2="337.67327783487355" y2="327.28698339622883"></line><line style="stroke: #aaa; stroke-width: 1.41421;" x1="333.9939609093438" y1="253.4199547284308" x2="261.2656239333437" y2="326.4198783970783"></line><line style="stroke: #aaa; stroke-width: 1;" x1="333.9939609093438" y1="253.4199547284308" x2="409.2204402844716" y2="255.4219583091468"></line><line style="stroke: #aaa; stroke-width: 1;" x1="333.9939609093438" y1="253.4199547284308" x2="337.67327783487355" y2="327.28698339622883"></line><line style="stroke: #aaa; stroke-width: 1.41421;" x1="333.9939609093438" y1="253.4199547284308" x2="419.55211393576815" y2="321.7657321417949"></line><line style="stroke: #aaa; stroke-width: 1.41421;" x1="409.2204402844716" y1="255.4219583091468" x2="337.67327783487355" y2="327.28698339622883"></line><line style="stroke: #aaa; stroke-width: 1;" x1="409.2204402844716" y1="255.4219583091468" x2="496.7722520491004" y2="244.2937315090243"></line><line style="stroke: #aaa; stroke-width: 1;" x1="409.2204402844716" y1="255.4219583091468" x2="419.55211393576815" y2="321.7657321417949"></line><line style="stroke: #aaa; stroke-width: 1.41421;" x1="409.2204402844716" y1="255.4219583091468" x2="501.9771579101435" y2="311.20192014426914"></line><line style="stroke: #aaa; stroke-width: 1.41421;" x1="496.7722520491004" y1="244.2937315090243" x2="419.55211393576815" y2="321.7657321417949"></line><line style="stroke: #aaa; stroke-width: 1;" x1="496.7722520491004" y1="244.2937315090243" x2="575.6492207119909" y2="220.06713645401624"></line><line style="stroke: #aaa; stroke-width: 1;" x1="496.7722520491004" y1="244.2937315090243" x2="501.9771579101435" y2="311.20192014426914"></line><line style="stroke: #aaa; stroke-width: 1.41421;" x1="496.7722520491004" y1="244.2937315090243" x2="582.7461299570074" y2="304.3014940092964"></line><line style="stroke: #aaa; stroke-width: 1.41421;" x1="575.6492207119909" y1="220.06713645401624" x2="501.9771579101435" y2="311.20192014426914"></line><line style="stroke: #aaa; stroke-width: 1;" x1="575.6492207119909" y1="220.06713645401624" x2="557.025808092439" y2="199.83316922974277"></line><line style="stroke: #aaa; stroke-width: 1;" x1="575.6492207119909" y1="220.06713645401624" x2="582.7461299570074" y2="304.3014940092964"></line><line style="stroke: #aaa; stroke-width: 1.41421;" x1="575.6492207119909" y1="220.06713645401624" x2="519.1682921059016" y2="296.5878250404747"></line><line style="stroke: #aaa; stroke-width: 1.41421;" x1="557.025808092439" y1="199.83316922974277" x2="582.7461299570074" y2="304.3014940092964"></line><line style="stroke: #aaa; stroke-width: 1;" x1="557.025808092439" y1="199.83316922974277" x2="581.011919958706" y2="207.8722870565134"></line><line style="stroke: #aaa; stroke-width: 1;" x1="557.025808092439" y1="199.83316922974277" x2="519.1682921059016" y2="296.5878250404747"></line><line style="stroke: #aaa; stroke-width: 1.41421;" x1="557.025808092439" y1="199.83316922974277" x2="591.3709040036767" y2="295.37402976607314"></line><line style="stroke: #aaa; stroke-width: 1.41421;" x1="581.011919958706" y1="207.8722870565134" x2="519.1682921059016" y2="296.5878250404747"></line><line style="stroke: #aaa; stroke-width: 1;" x1="581.011919958706" y1="207.8722870565134" x2="658.3450927569671" y2="210.14815319601627"></line><line style="stroke: #aaa; stroke-width: 1;" x1="581.011919958706" y1="207.8722870565134" x2="591.3709040036767" y2="295.37402976607314"></line><line style="stroke: #aaa; stroke-width: 1.41421;" x1="581.011919958706" y1="207.8722870565134" x2="662.8148938549508" y2="281.72945363770697"></line><line style="stroke: #aaa; stroke-width: 1.41421;" x1="658.3450927569671" y1="210.14815319601627" x2="591.3709040036767" y2="295.37402976607314"></line><line style="stroke: #aaa; stroke-width: 1;" x1="39.12333696197564" y1="323.36718328195843" x2="114.13998147904128" y2="323.94221879320617"></line><line style="stroke: #aaa; stroke-width: 1;" x1="39.12333696197564" y1="323.36718328195843" x2="37.89861753010449" y2="399.7733199393952"></line><line style="stroke: #aaa; stroke-width: 1.41421;" x1="39.12333696197564" y1="323.36718328195843" x2="113.08018648007943" y2="400.9522185996576"></line><line style="stroke: #aaa; stroke-width: 1.41421;" x1="114.13998147904128" y1="323.94221879320617" x2="37.89861753010449" y2="399.7733199393952"></line><line style="stroke: #aaa; stroke-width: 1;" x1="114.13998147904128" y1="323.94221879320617" x2="187.68383715502995" y2="324.7812547766362"></line><line style="stroke: #aaa; stroke-width: 1;" x1="114.13998147904128" y1="323.94221879320617" x2="113.08018648007943" y2="400.9522185996576"></line><line style="stroke: #aaa; stroke-width: 1.41421;" x1="114.13998147904128" y1="323.94221879320617" x2="188.05859644600145" y2="402.09166891350213"></line><line style="stroke: #aaa; stroke-width: 1.41421;" x1="187.68383715502995" y1="324.7812547766362" x2="113.08018648007943" y2="400.9522185996576"></line><line style="stroke: #aaa; stroke-width: 1;" x1="187.68383715502995" y1="324.7812547766362" x2="261.2656239333437" y2="326.4198783970783"></line><line style="stroke: #aaa; stroke-width: 1;" x1="187.68383715502995" y1="324.7812547766362" x2="188.05859644600145" y2="402.09166891350213"></line><line style="stroke: #aaa; stroke-width: 1.41421;" x1="187.68383715502995" y1="324.7812547766362" x2="264.0482495999092" y2="402.1864966693148"></line><line style="stroke: #aaa; stroke-width: 1.41421;" x1="261.2656239333437" y1="326.4198783970783" x2="188.05859644600145" y2="402.09166891350213"></line><line style="stroke: #aaa; stroke-width: 1;" x1="261.2656239333437" y1="326.4198783970783" x2="337.67327783487355" y2="327.28698339622883"></line><line style="stroke: #aaa; stroke-width: 1;" x1="261.2656239333437" y1="326.4198783970783" x2="264.0482495999092" y2="402.1864966693148"></line><line style="stroke: #aaa; stroke-width: 1.41421;" x1="261.2656239333437" y1="326.4198783970783" x2="343.12321861693636" y2="399.2771811209836"></line><line style="stroke: #aaa; stroke-width: 1.41421;" x1="337.67327783487355" y1="327.28698339622883" x2="264.0482495999092" y2="402.1864966693148"></line><line style="stroke: #aaa; stroke-width: 1;" x1="337.67327783487355" y1="327.28698339622883" x2="419.55211393576815" y2="321.7657321417949"></line><line style="stroke: #aaa; stroke-width: 1;" x1="337.67327783487355" y1="327.28698339622883" x2="343.12321861693636" y2="399.2771811209836"></line><line style="stroke: #aaa; stroke-width: 1.41421;" x1="337.67327783487355" y1="327.28698339622883" x2="424.0750185770068" y2="393.89248183491986"></line><line style="stroke: #aaa; stroke-width: 1.41421;" x1="419.55211393576815" y1="321.7657321417949" x2="343.12321861693636" y2="399.2771811209836"></line><line style="stroke: #aaa; stroke-width: 1;" x1="419.55211393576815" y1="321.7657321417949" x2="501.9771579101435" y2="311.20192014426914"></line><line style="stroke: #aaa; stroke-width: 1;" x1="419.55211393576815" y1="321.7657321417949" x2="424.0750185770068" y2="393.89248183491986"></line><line style="stroke: #aaa; stroke-width: 1.41421;" x1="419.55211393576815" y1="321.7657321417949" x2="503.72881621551426" y2="388.9652316428961"></line><line style="stroke: #aaa; stroke-width: 1.41421;" x1="501.9771579101435" y1="311.20192014426914" x2="424.0750185770068" y2="393.89248183491986"></line><line style="stroke: #aaa; stroke-width: 1;" x1="501.9771579101435" y1="311.20192014426914" x2="582.7461299570074" y2="304.3014940092964"></line><line style="stroke: #aaa; stroke-width: 1;" x1="501.9771579101435" y1="311.20192014426914" x2="503.72881621551426" y2="388.9652316428961"></line><line style="stroke: #aaa; stroke-width: 1.41421;" x1="501.9771579101435" y1="311.20192014426914" x2="578.9287438190145" y2="384.82618975718697"></line><line style="stroke: #aaa; stroke-width: 1.41421;" x1="582.7461299570074" y1="304.3014940092964" x2="503.72881621551426" y2="388.9652316428961"></line><line style="stroke: #aaa; stroke-width: 1;" x1="582.7461299570074" y1="304.3014940092964" x2="519.1682921059016" y2="296.5878250404747"></line><line style="stroke: #aaa; stroke-width: 1;" x1="582.7461299570074" y1="304.3014940092964" x2="578.9287438190145" y2="384.82618975718697"></line><line style="stroke: #aaa; stroke-width: 1.41421;" x1="582.7461299570074" y1="304.3014940092964" x2="533.2771449267266" y2="390.2541304999013"></line><line style="stroke: #aaa; stroke-width: 1.41421;" x1="519.1682921059016" y1="296.5878250404747" x2="578.9287438190145" y2="384.82618975718697"></line><line style="stroke: #aaa; stroke-width: 1;" x1="519.1682921059016" y1="296.5878250404747" x2="591.3709040036767" y2="295.37402976607314"></line><line style="stroke: #aaa; stroke-width: 1;" x1="519.1682921059016" y1="296.5878250404747" x2="533.2771449267266" y2="390.2541304999013"></line><line style="stroke: #aaa; stroke-width: 1.41421;" x1="519.1682921059016" y1="296.5878250404747" x2="602.2222337568263" y2="368.7540230800177"></line><line style="stroke: #aaa; stroke-width: 1.41421;" x1="591.3709040036767" y1="295.37402976607314" x2="533.2771449267266" y2="390.2541304999013"></line><line style="stroke: #aaa; stroke-width: 1;" x1="591.3709040036767" y1="295.37402976607314" x2="662.8148938549508" y2="281.72945363770697"></line><line style="stroke: #aaa; stroke-width: 1;" x1="591.3709040036767" y1="295.37402976607314" x2="602.2222337568263" y2="368.7540230800177"></line><line style="stroke: #aaa; stroke-width: 1.41421;" x1="591.3709040036767" y1="295.37402976607314" x2="679.2337508073709" y2="358.5224875388593"></line><line style="stroke: #aaa; stroke-width: 1.41421;" x1="662.8148938549508" y1="281.72945363770697" x2="602.2222337568263" y2="368.7540230800177"></line><line style="stroke: #aaa; stroke-width: 1;" x1="37.89861753010449" y1="399.7733199393952" x2="113.08018648007943" y2="400.9522185996576"></line><line style="stroke: #aaa; stroke-width: 1;" x1="37.89861753010449" y1="399.7733199393952" x2="37.193781786700455" y2="476.1620082897625"></line><line style="stroke: #aaa; stroke-width: 1.41421;" x1="37.89861753010449" y1="399.7733199393952" x2="112.80784116538561" y2="477.1201479344931"></line><line style="stroke: #aaa; stroke-width: 1.41421;" x1="113.08018648007943" y1="400.9522185996576" x2="37.193781786700455" y2="476.1620082897625"></line><line style="stroke: #aaa; stroke-width: 1;" x1="113.08018648007943" y1="400.9522185996576" x2="188.05859644600145" y2="402.09166891350213"></line><line style="stroke: #aaa; stroke-width: 1;" x1="113.08018648007943" y1="400.9522185996576" x2="112.80784116538561" y2="477.1201479344931"></line><line style="stroke: #aaa; stroke-width: 1.41421;" x1="113.08018648007943" y1="400.9522185996576" x2="188.5357697132505" y2="477.7907698236"></line><line style="stroke: #aaa; stroke-width: 1.41421;" x1="188.05859644600145" y1="402.09166891350213" x2="112.80784116538561" y2="477.1201479344931"></line><line style="stroke: #aaa; stroke-width: 1;" x1="188.05859644600145" y1="402.09166891350213" x2="264.0482495999092" y2="402.1864966693148"></line><line style="stroke: #aaa; stroke-width: 1;" x1="188.05859644600145" y1="402.09166891350213" x2="188.5357697132505" y2="477.7907698236"></line><line style="stroke: #aaa; stroke-width: 1.41421;" x1="188.05859644600145" y1="402.09166891350213" x2="266.0760463302062" y2="476.6179401397095"></line><line style="stroke: #aaa; stroke-width: 1.41421;" x1="264.0482495999092" y1="402.1864966693148" x2="188.5357697132505" y2="477.7907698236"></line><line style="stroke: #aaa; stroke-width: 1;" x1="264.0482495999092" y1="402.1864966693148" x2="343.12321861693636" y2="399.2771811209836"></line><line style="stroke: #aaa; stroke-width: 1;" x1="264.0482495999092" y1="402.1864966693148" x2="266.0760463302062" y2="476.6179401397095"></line><line style="stroke: #aaa; stroke-width: 1.41421;" x1="264.0482495999092" y1="402.1864966693148" x2="345.4666021185778" y2="473.42414132394055"></line><line style="stroke: #aaa; stroke-width: 1.41421;" x1="343.12321861693636" y1="399.2771811209836" x2="266.0760463302062" y2="476.6179401397095"></line><line style="stroke: #aaa; stroke-width: 1;" x1="343.12321861693636" y1="399.2771811209836" x2="424.0750185770068" y2="393.89248183491986"></line><line style="stroke: #aaa; stroke-width: 1;" x1="343.12321861693636" y1="399.2771811209836" x2="345.4666021185778" y2="473.42414132394055"></line><line style="stroke: #aaa; stroke-width: 1.41421;" x1="343.12321861693636" y1="399.2771811209836" x2="424.92164078090195" y2="470.26144601207807"></line><line style="stroke: #aaa; stroke-width: 1.41421;" x1="424.0750185770068" y1="393.89248183491986" x2="345.4666021185778" y2="473.42414132394055"></line><line style="stroke: #aaa; stroke-width: 1;" x1="424.0750185770068" y1="393.89248183491986" x2="503.72881621551426" y2="388.9652316428961"></line><line style="stroke: #aaa; stroke-width: 1;" x1="424.0750185770068" y1="393.89248183491986" x2="424.92164078090195" y2="470.26144601207807"></line><line style="stroke: #aaa; stroke-width: 1.41421;" x1="424.0750185770068" y1="393.89248183491986" x2="501.7639851150768" y2="469.5240653828791"></line><line style="stroke: #aaa; stroke-width: 1.41421;" x1="503.72881621551426" y1="388.9652316428961" x2="424.92164078090195" y2="470.26144601207807"></line><line style="stroke: #aaa; stroke-width: 1;" x1="503.72881621551426" y1="388.9652316428961" x2="578.9287438190145" y2="384.82618975718697"></line><line style="stroke: #aaa; stroke-width: 1;" x1="503.72881621551426" y1="388.9652316428961" x2="501.7639851150768" y2="469.5240653828791"></line><line style="stroke: #aaa; stroke-width: 1.41421;" x1="503.72881621551426" y1="388.9652316428961" x2="569.4338302850086" y2="475.35028270000646"></line><line style="stroke: #aaa; stroke-width: 1.41421;" x1="578.9287438190145" y1="384.82618975718697" x2="501.7639851150768" y2="469.5240653828791"></line><line style="stroke: #aaa; stroke-width: 1;" x1="578.9287438190145" y1="384.82618975718697" x2="533.2771449267266" y2="390.2541304999013"></line><line style="stroke: #aaa; stroke-width: 1;" x1="578.9287438190145" y1="384.82618975718697" x2="569.4338302850086" y2="475.35028270000646"></line><line style="stroke: #aaa; stroke-width: 1.41421;" x1="578.9287438190145" y1="384.82618975718697" x2="593.7340116785272" y2="473.29821006422145"></line><line style="stroke: #aaa; stroke-width: 1.41421;" x1="533.2771449267266" y1="390.2541304999013" x2="569.4338302850086" y2="475.35028270000646"></line><line style="stroke: #aaa; stroke-width: 1;" x1="533.2771449267266" y1="390.2541304999013" x2="602.2222337568263" y2="368.7540230800177"></line><line style="stroke: #aaa; stroke-width: 1;" x1="533.2771449267266" y1="390.2541304999013" x2="593.7340116785272" y2="473.29821006422145"></line><line style="stroke: #aaa; stroke-width: 1.41421;" x1="533.2771449267266" y1="390.2541304999013" x2="630.2912494773618" y2="447.3358877668192"></line><line style="stroke: #aaa; stroke-width: 1.41421;" x1="602.2222337568263" y1="368.7540230800177" x2="593.7340116785272" y2="473.29821006422145"></line><line style="stroke: #aaa; stroke-width: 1;" x1="602.2222337568263" y1="368.7540230800177" x2="679.2337508073709" y2="358.5224875388593"></line><line style="stroke: #aaa; stroke-width: 1;" x1="602.2222337568263" y1="368.7540230800177" x2="630.2912494773618" y2="447.3358877668192"></line><line style="stroke: #aaa; stroke-width: 1.41421;" x1="602.2222337568263" y1="368.7540230800177" x2="675.3647783702162" y2="444.97429733606174"></line><line style="stroke: #aaa; stroke-width: 1.41421;" x1="679.2337508073709" y1="358.5224875388593" x2="630.2912494773618" y2="447.3358877668192"></line><line style="stroke: #aaa; stroke-width: 1;" x1="37.193781786700455" y1="476.1620082897625" x2="112.80784116538561" y2="477.1201479344931"></line><line style="stroke: #aaa; stroke-width: 1;" x1="37.193781786700455" y1="476.1620082897625" x2="36.53962199600268" y2="550.9720041613613"></line><line style="stroke: #aaa; stroke-width: 1.41421;" x1="37.193781786700455" y1="476.1620082897625" x2="112.52790963022674" y2="553.6264227020681"></line><line style="stroke: #aaa; stroke-width: 1.41421;" x1="112.80784116538561" y1="477.1201479344931" x2="36.53962199600268" y2="550.9720041613613"></line><line style="stroke: #aaa; stroke-width: 1;" x1="112.80784116538561" y1="477.1201479344931" x2="188.5357697132505" y2="477.7907698236"></line><line style="stroke: #aaa; stroke-width: 1;" x1="112.80784116538561" y1="477.1201479344931" x2="112.52790963022674" y2="553.6264227020681"></line><line style="stroke: #aaa; stroke-width: 1.41421;" x1="112.80784116538561" y1="477.1201479344931" x2="188.21032085530157" y2="553.9442853395522"></line><line style="stroke: #aaa; stroke-width: 1.41421;" x1="188.5357697132505" y1="477.7907698236" x2="112.52790963022674" y2="553.6264227020681"></line><line style="stroke: #aaa; stroke-width: 1;" x1="188.5357697132505" y1="477.7907698236" x2="266.0760463302062" y2="476.6179401397095"></line><line style="stroke: #aaa; stroke-width: 1;" x1="188.5357697132505" y1="477.7907698236" x2="188.21032085530157" y2="553.9442853395522"></line><line style="stroke: #aaa; stroke-width: 1.41421;" x1="188.5357697132505" y1="477.7907698236" x2="265.95694266890564" y2="551.6797985307467"></line><line style="stroke: #aaa; stroke-width: 1.41421;" x1="266.0760463302062" y1="476.6179401397095" x2="188.21032085530157" y2="553.9442853395522"></line><line style="stroke: #aaa; stroke-width: 1;" x1="266.0760463302062" y1="476.6179401397095" x2="345.4666021185778" y2="473.42414132394055"></line><line style="stroke: #aaa; stroke-width: 1;" x1="266.0760463302062" y1="476.6179401397095" x2="265.95694266890564" y2="551.6797985307467"></line><line style="stroke: #aaa; stroke-width: 1.41421;" x1="266.0760463302062" y1="476.6179401397095" x2="345.37405022890465" y2="548.6415172345104"></line><line style="stroke: #aaa; stroke-width: 1.41421;" x1="345.4666021185778" y1="473.42414132394055" x2="265.95694266890564" y2="551.6797985307467"></line><line style="stroke: #aaa; stroke-width: 1;" x1="345.4666021185778" y1="473.42414132394055" x2="424.92164078090195" y2="470.26144601207807"></line><line style="stroke: #aaa; stroke-width: 1;" x1="345.4666021185778" y1="473.42414132394055" x2="345.37405022890465" y2="548.6415172345104"></line><line style="stroke: #aaa; stroke-width: 1.41421;" x1="345.4666021185778" y1="473.42414132394055" x2="423.34674141236593" y2="548.2045509357257"></line><line style="stroke: #aaa; stroke-width: 1.41421;" x1="424.92164078090195" y1="470.26144601207807" x2="345.37405022890465" y2="548.6415172345104"></line><line style="stroke: #aaa; stroke-width: 1;" x1="424.92164078090195" y1="470.26144601207807" x2="501.7639851150768" y2="469.5240653828791"></line><line style="stroke: #aaa; stroke-width: 1;" x1="424.92164078090195" y1="470.26144601207807" x2="423.34674141236593" y2="548.2045509357257"></line><line style="stroke: #aaa; stroke-width: 1.41421;" x1="424.92164078090195" y1="470.26144601207807" x2="496.7843900018445" y2="552.0940061681362"></line><line style="stroke: #aaa; stroke-width: 1.41421;" x1="501.7639851150768" y1="469.5240653828791" x2="423.34674141236593" y2="548.2045509357257"></line><line style="stroke: #aaa; stroke-width: 1;" x1="501.7639851150768" y1="469.5240653828791" x2="569.4338302850086" y2="475.35028270000646"></line><line style="stroke: #aaa; stroke-width: 1;" x1="501.7639851150768" y1="469.5240653828791" x2="496.7843900018445" y2="552.0940061681362"></line><line style="stroke: #aaa; stroke-width: 1.41421;" x1="501.7639851150768" y1="469.5240653828791" x2="565.6505821391082" y2="560.1005032469072"></line><line style="stroke: #aaa; stroke-width: 1.41421;" x1="569.4338302850086" y1="475.35028270000646" x2="496.7843900018445" y2="552.0940061681362"></line><line style="stroke: #aaa; stroke-width: 1;" x1="569.4338302850086" y1="475.35028270000646" x2="593.7340116785272" y2="473.29821006422145"></line><line style="stroke: #aaa; stroke-width: 1;" x1="569.4338302850086" y1="475.35028270000646" x2="565.6505821391082" y2="560.1005032469072"></line><line style="stroke: #aaa; stroke-width: 1.41421;" x1="569.4338302850086" y1="475.35028270000646" x2="634.8960852996227" y2="551.7594538456293"></line><line style="stroke: #aaa; stroke-width: 1.41421;" x1="593.7340116785272" y1="473.29821006422145" x2="565.6505821391082" y2="560.1005032469072"></line><line style="stroke: #aaa; stroke-width: 1;" x1="593.7340116785272" y1="473.29821006422145" x2="630.2912494773618" y2="447.3358877668192"></line><line style="stroke: #aaa; stroke-width: 1;" x1="593.7340116785272" y1="473.29821006422145" x2="634.8960852996227" y2="551.7594538456293"></line><line style="stroke: #aaa; stroke-width: 1.41421;" x1="593.7340116785272" y1="473.29821006422145" x2="689.8840457181977" y2="531.2227964248019"></line><line style="stroke: #aaa; stroke-width: 1.41421;" x1="630.2912494773618" y1="447.3358877668192" x2="634.8960852996227" y2="551.7594538456293"></line><line style="stroke: #aaa; stroke-width: 1;" x1="630.2912494773618" y1="447.3358877668192" x2="675.3647783702162" y2="444.97429733606174"></line><line style="stroke: #aaa; stroke-width: 1;" x1="630.2912494773618" y1="447.3358877668192" x2="689.8840457181977" y2="531.2227964248019"></line><line style="stroke: #aaa; stroke-width: 1.41421;" x1="630.2912494773618" y1="447.3358877668192" x2="645.3385177697082" y2="543.0975073186813"></line><line style="stroke: #aaa; stroke-width: 1.41421;" x1="675.3647783702162" y1="444.97429733606174" x2="689.8840457181977" y2="531.2227964248019"></line><line style="stroke: #aaa; stroke-width: 1;" x1="36.53962199600268" y1="550.9720041613613" x2="112.52790963022674" y2="553.6264227020681"></line><line style="stroke: #aaa; stroke-width: 1;" x1="36.53962199600268" y1="550.9720041613613" x2="30.609549320709355" y2="622.3886836189613"></line><line style="stroke: #aaa; stroke-width: 1.41421;" x1="36.53962199600268" y1="550.9720041613613" x2="109.64059412124412" y2="630.7980090044244"></line><line style="stroke: #aaa; stroke-width: 1.41421;" x1="112.52790963022674" y1="553.6264227020681" x2="30.609549320709355" y2="622.3886836189613"></line><line style="stroke: #aaa; stroke-width: 1;" x1="112.52790963022674" y1="553.6264227020681" x2="188.21032085530157" y2="553.9442853395522"></line><line style="stroke: #aaa; stroke-width: 1;" x1="112.52790963022674" y1="553.6264227020681" x2="109.64059412124412" y2="630.7980090044244"></line><line style="stroke: #aaa; stroke-width: 1.41421;" x1="112.52790963022674" y1="553.6264227020681" x2="187.22259495075735" y2="631.6992519956676"></line><line style="stroke: #aaa; stroke-width: 1.41421;" x1="188.21032085530157" y1="553.9442853395522" x2="109.64059412124412" y2="630.7980090044244"></line><line style="stroke: #aaa; stroke-width: 1;" x1="188.21032085530157" y1="553.9442853395522" x2="265.95694266890564" y2="551.6797985307467"></line><line style="stroke: #aaa; stroke-width: 1;" x1="188.21032085530157" y1="553.9442853395522" x2="187.22259495075735" y2="631.6992519956676"></line><line style="stroke: #aaa; stroke-width: 1.41421;" x1="188.21032085530157" y1="553.9442853395522" x2="266.10563259001975" y2="626.5353117251356"></line><line style="stroke: #aaa; stroke-width: 1.41421;" x1="265.95694266890564" y1="551.6797985307467" x2="187.22259495075735" y2="631.6992519956676"></line><line style="stroke: #aaa; stroke-width: 1;" x1="265.95694266890564" y1="551.6797985307467" x2="345.37405022890465" y2="548.6415172345104"></line><line style="stroke: #aaa; stroke-width: 1;" x1="265.95694266890564" y1="551.6797985307467" x2="266.10563259001975" y2="626.5353117251356"></line><line style="stroke: #aaa; stroke-width: 1.41421;" x1="265.95694266890564" y1="551.6797985307467" x2="344.1594963324567" y2="624.0083416882409"></line><line style="stroke: #aaa; stroke-width: 1.41421;" x1="345.37405022890465" y1="548.6415172345104" x2="266.10563259001975" y2="626.5353117251356"></line><line style="stroke: #aaa; stroke-width: 1;" x1="345.37405022890465" y1="548.6415172345104" x2="423.34674141236593" y2="548.2045509357257"></line><line style="stroke: #aaa; stroke-width: 1;" x1="345.37405022890465" y1="548.6415172345104" x2="344.1594963324567" y2="624.0083416882409"></line><line style="stroke: #aaa; stroke-width: 1.41421;" x1="345.37405022890465" y1="548.6415172345104" x2="420.2644600374325" y2="626.1066902688624"></line><line style="stroke: #aaa; stroke-width: 1.41421;" x1="423.34674141236593" y1="548.2045509357257" x2="344.1594963324567" y2="624.0083416882409"></line><line style="stroke: #aaa; stroke-width: 1;" x1="423.34674141236593" y1="548.2045509357257" x2="496.7843900018445" y2="552.0940061681362"></line><line style="stroke: #aaa; stroke-width: 1;" x1="423.34674141236593" y1="548.2045509357257" x2="420.2644600374325" y2="626.1066902688624"></line><line style="stroke: #aaa; stroke-width: 1.41421;" x1="423.34674141236593" y1="548.2045509357257" x2="494.9371453186147" y2="631.303251287394"></line><line style="stroke: #aaa; stroke-width: 1.41421;" x1="496.7843900018445" y1="552.0940061681362" x2="420.2644600374325" y2="626.1066902688624"></line><line style="stroke: #aaa; stroke-width: 1;" x1="496.7843900018445" y1="552.0940061681362" x2="565.6505821391082" y2="560.1005032469072"></line><line style="stroke: #aaa; stroke-width: 1;" x1="496.7843900018445" y1="552.0940061681362" x2="494.9371453186147" y2="631.303251287394"></line><line style="stroke: #aaa; stroke-width: 1.41421;" x1="496.7843900018445" y1="552.0940061681362" x2="572.7406637857063" y2="633.6906348677326"></line><line style="stroke: #aaa; stroke-width: 1.41421;" x1="565.6505821391082" y1="560.1005032469072" x2="494.9371453186147" y2="631.303251287394"></line><line style="stroke: #aaa; stroke-width: 1;" x1="565.6505821391082" y1="560.1005032469072" x2="634.8960852996227" y2="551.7594538456293"></line><line style="stroke: #aaa; stroke-width: 1;" x1="565.6505821391082" y1="560.1005032469072" x2="572.7406637857063" y2="633.6906348677326"></line><line style="stroke: #aaa; stroke-width: 1.41421;" x1="565.6505821391082" y1="560.1005032469072" x2="649.9759743399686" y2="629.1100749509598"></line><line style="stroke: #aaa; stroke-width: 1.41421;" x1="634.8960852996227" y1="551.7594538456293" x2="572.7406637857063" y2="633.6906348677326"></line><line style="stroke: #aaa; stroke-width: 1;" x1="634.8960852996227" y1="551.7594538456293" x2="689.8840457181977" y2="531.2227964248019"></line><line style="stroke: #aaa; stroke-width: 1;" x1="634.8960852996227" y1="551.7594538456293" x2="649.9759743399686" y2="629.1100749509598"></line><line style="stroke: #aaa; stroke-width: 1.41421;" x1="634.8960852996227" y1="551.7594538456293" x2="720.9306529712494" y2="615.8622581529136"></line><line style="stroke: #aaa; stroke-width: 1.41421;" x1="689.8840457181977" y1="531.2227964248019" x2="649.9759743399686" y2="629.1100749509598"></line><line style="stroke: #aaa; stroke-width: 1;" x1="689.8840457181977" y1="531.2227964248019" x2="645.3385177697082" y2="543.0975073186813"></line><line style="stroke: #aaa; stroke-width: 1;" x1="689.8840457181977" y1="531.2227964248019" x2="720.9306529712494" y2="615.8622581529136"></line><line style="stroke: #aaa; stroke-width: 1.41421;" x1="689.8840457181977" y1="531.2227964248019" x2="654.4950858709749" y2="635.3853965196157"></line><line style="stroke: #aaa; stroke-width: 1.41421;" x1="645.3385177697082" y1="543.0975073186813" x2="720.9306529712494" y2="615.8622581529136"></line><line style="stroke: #aaa; stroke-width: 1;" x1="30.609549320709355" y1="622.3886836189613" x2="109.64059412124412" y2="630.7980090044244"></line><line style="stroke: #aaa; stroke-width: 1;" x1="30.609549320709355" y1="622.3886836189613" x2="20" y2="696.4810230345703"></line><line style="stroke: #aaa; stroke-width: 1.41421;" x1="30.609549320709355" y1="622.3886836189613" x2="98.1300218096851" y2="702.6220685009955"></line><line style="stroke: #aaa; stroke-width: 1.41421;" x1="109.64059412124412" y1="630.7980090044244" x2="20" y2="696.4810230345703"></line><line style="stroke: #aaa; stroke-width: 1;" x1="109.64059412124412" y1="630.7980090044244" x2="187.22259495075735" y2="631.6992519956676"></line><line style="stroke: #aaa; stroke-width: 1;" x1="109.64059412124412" y1="630.7980090044244" x2="98.1300218096851" y2="702.6220685009955"></line><line style="stroke: #aaa; stroke-width: 1.41421;" x1="109.64059412124412" y1="630.7980090044244" x2="190.61894585294215" y2="706.6844895600079"></line><line style="stroke: #aaa; stroke-width: 1.41421;" x1="187.22259495075735" y1="631.6992519956676" x2="98.1300218096851" y2="702.6220685009955"></line><line style="stroke: #aaa; stroke-width: 1;" x1="187.22259495075735" y1="631.6992519956676" x2="266.10563259001975" y2="626.5353117251356"></line><line style="stroke: #aaa; stroke-width: 1;" x1="187.22259495075735" y1="631.6992519956676" x2="190.61894585294215" y2="706.6844895600079"></line><line style="stroke: #aaa; stroke-width: 1.41421;" x1="187.22259495075735" y1="631.6992519956676" x2="269.80846679899093" y2="703.5855185000516"></line><line style="stroke: #aaa; stroke-width: 1.41421;" x1="266.10563259001975" y1="626.5353117251356" x2="190.61894585294215" y2="706.6844895600079"></line><line style="stroke: #aaa; stroke-width: 1;" x1="266.10563259001975" y1="626.5353117251356" x2="344.1594963324567" y2="624.0083416882409"></line><line style="stroke: #aaa; stroke-width: 1;" x1="266.10563259001975" y1="626.5353117251356" x2="269.80846679899093" y2="703.5855185000516"></line><line style="stroke: #aaa; stroke-width: 1.41421;" x1="266.10563259001975" y1="626.5353117251356" x2="342.6885281842913" y2="699.7992358659654"></line><line style="stroke: #aaa; stroke-width: 1.41421;" x1="344.1594963324567" y1="624.0083416882409" x2="269.80846679899093" y2="703.5855185000516"></line><line style="stroke: #aaa; stroke-width: 1;" x1="344.1594963324567" y1="624.0083416882409" x2="420.2644600374325" y2="626.1066902688624"></line><line style="stroke: #aaa; stroke-width: 1;" x1="344.1594963324567" y1="624.0083416882409" x2="342.6885281842913" y2="699.7992358659654"></line><line style="stroke: #aaa; stroke-width: 1.41421;" x1="344.1594963324567" y1="624.0083416882409" x2="417.7602486619329" y2="701.859653344262"></line><line style="stroke: #aaa; stroke-width: 1.41421;" x1="420.2644600374325" y1="626.1066902688624" x2="342.6885281842913" y2="699.7992358659654"></line><line style="stroke: #aaa; stroke-width: 1;" x1="420.2644600374325" y1="626.1066902688624" x2="494.9371453186147" y2="631.303251287394"></line><line style="stroke: #aaa; stroke-width: 1;" x1="420.2644600374325" y1="626.1066902688624" x2="417.7602486619329" y2="701.859653344262"></line><line style="stroke: #aaa; stroke-width: 1.41421;" x1="420.2644600374325" y1="626.1066902688624" x2="496.2723201204563" y2="704.3729681843197"></line><line style="stroke: #aaa; stroke-width: 1.41421;" x1="494.9371453186147" y1="631.303251287394" x2="417.7602486619329" y2="701.859653344262"></line><line style="stroke: #aaa; stroke-width: 1;" x1="494.9371453186147" y1="631.303251287394" x2="572.7406637857063" y2="633.6906348677326"></line><line style="stroke: #aaa; stroke-width: 1;" x1="494.9371453186147" y1="631.303251287394" x2="496.2723201204563" y2="704.3729681843197"></line><line style="stroke: #aaa; stroke-width: 1.41421;" x1="494.9371453186147" y1="631.303251287394" x2="577.3014995292699" y2="705.2006248370521"></line><line style="stroke: #aaa; stroke-width: 1.41421;" x1="572.7406637857063" y1="633.6906348677326" x2="496.2723201204563" y2="704.3729681843197"></line><line style="stroke: #aaa; stroke-width: 1;" x1="572.7406637857063" y1="633.6906348677326" x2="649.9759743399686" y2="629.1100749509598"></line><line style="stroke: #aaa; stroke-width: 1;" x1="572.7406637857063" y1="633.6906348677326" x2="577.3014995292699" y2="705.2006248370521"></line><line style="stroke: #aaa; stroke-width: 1.41421;" x1="572.7406637857063" y1="633.6906348677326" x2="659.1128182680262" y2="704.6862790895245"></line><line style="stroke: #aaa; stroke-width: 1.41421;" x1="649.9759743399686" y1="629.1100749509598" x2="577.3014995292699" y2="705.2006248370521"></line><line style="stroke: #aaa; stroke-width: 1;" x1="649.9759743399686" y1="629.1100749509598" x2="720.9306529712494" y2="615.8622581529136"></line><line style="stroke: #aaa; stroke-width: 1;" x1="649.9759743399686" y1="629.1100749509598" x2="659.1128182680262" y2="704.6862790895245"></line><line style="stroke: #aaa; stroke-width: 1.41421;" x1="649.9759743399686" y1="629.1100749509598" x2="744.1361427516673" y2="688.0375596570146"></line><line style="stroke: #aaa; stroke-width: 1.41421;" x1="720.9306529712494" y1="615.8622581529136" x2="659.1128182680262" y2="704.6862790895245"></line><line style="stroke: #aaa; stroke-width: 1;" x1="720.9306529712494" y1="615.8622581529136" x2="654.4950858709749" y2="635.3853965196157"></line><line style="stroke: #aaa; stroke-width: 1;" x1="720.9306529712494" y1="615.8622581529136" x2="744.1361427516673" y2="688.0375596570146"></line><line style="stroke: #aaa; stroke-width: 1.41421;" x1="720.9306529712494" y1="615.8622581529136" x2="690.359701741354" y2="726.1841106432686"></line><line style="stroke: #aaa; stroke-width: 1.41421;" x1="654.4950858709749" y1="635.3853965196157" x2="744.1361427516673" y2="688.0375596570146"></line><line style="stroke: #aaa; stroke-width: 1;" x1="20" y1="696.4810230345703" x2="98.1300218096851" y2="702.6220685009955"></line><line style="stroke: #aaa; stroke-width: 1;" x1="20" y1="696.4810230345703" x2="21.379666854522114" y2="780"></line><line style="stroke: #aaa; stroke-width: 1.41421;" x1="20" y1="696.4810230345703" x2="108.14079833531173" y2="747.0120789299523"></line><line style="stroke: #aaa; stroke-width: 1.41421;" x1="98.1300218096851" y1="702.6220685009955" x2="21.379666854522114" y2="780"></line><line style="stroke: #aaa; stroke-width: 1;" x1="98.1300218096851" y1="702.6220685009955" x2="190.61894585294215" y2="706.6844895600079"></line><line style="stroke: #aaa; stroke-width: 1;" x1="98.1300218096851" y1="702.6220685009955" x2="108.14079833531173" y2="747.0120789299523"></line><line style="stroke: #aaa; stroke-width: 1.41421;" x1="98.1300218096851" y1="702.6220685009955" x2="175.0505042146495" y2="665.318346608404"></line><line style="stroke: #aaa; stroke-width: 1.41421;" x1="190.61894585294215" y1="706.6844895600079" x2="108.14079833531173" y2="747.0120789299523"></line><line style="stroke: #aaa; stroke-width: 1;" x1="190.61894585294215" y1="706.6844895600079" x2="269.80846679899093" y2="703.5855185000516"></line><line style="stroke: #aaa; stroke-width: 1;" x1="190.61894585294215" y1="706.6844895600079" x2="175.0505042146495" y2="665.318346608404"></line><line style="stroke: #aaa; stroke-width: 1.41421;" x1="190.61894585294215" y1="706.6844895600079" x2="258.2903082669669" y2="630.371663414291"></line><line style="stroke: #aaa; stroke-width: 1.41421;" x1="269.80846679899093" y1="703.5855185000516" x2="175.0505042146495" y2="665.318346608404"></line><line style="stroke: #aaa; stroke-width: 1;" x1="269.80846679899093" y1="703.5855185000516" x2="342.6885281842913" y2="699.7992358659654"></line><line style="stroke: #aaa; stroke-width: 1;" x1="269.80846679899093" y1="703.5855185000516" x2="258.2903082669669" y2="630.371663414291"></line><line style="stroke: #aaa; stroke-width: 1.41421;" x1="269.80846679899093" y1="703.5855185000516" x2="341.0119734615241" y2="624.7844120418113"></line><line style="stroke: #aaa; stroke-width: 1.41421;" x1="342.6885281842913" y1="699.7992358659654" x2="258.2903082669669" y2="630.371663414291"></line><line style="stroke: #aaa; stroke-width: 1;" x1="342.6885281842913" y1="699.7992358659654" x2="417.7602486619329" y2="701.859653344262"></line><line style="stroke: #aaa; stroke-width: 1;" x1="342.6885281842913" y1="699.7992358659654" x2="341.0119734615241" y2="624.7844120418113"></line><line style="stroke: #aaa; stroke-width: 1.41421;" x1="342.6885281842913" y1="699.7992358659654" x2="421.1019787767696" y2="626.7401396776908"></line><line style="stroke: #aaa; stroke-width: 1.41421;" x1="417.7602486619329" y1="701.859653344262" x2="341.0119734615241" y2="624.7844120418113"></line><line style="stroke: #aaa; stroke-width: 1;" x1="417.7602486619329" y1="701.859653344262" x2="496.2723201204563" y2="704.3729681843197"></line><line style="stroke: #aaa; stroke-width: 1;" x1="417.7602486619329" y1="701.859653344262" x2="421.1019787767696" y2="626.7401396776908"></line><line style="stroke: #aaa; stroke-width: 1.41421;" x1="417.7602486619329" y1="701.859653344262" x2="500.08212003798417" y2="630.6470432171708"></line><line style="stroke: #aaa; stroke-width: 1.41421;" x1="496.2723201204563" y1="704.3729681843197" x2="421.1019787767696" y2="626.7401396776908"></line><line style="stroke: #aaa; stroke-width: 1;" x1="496.2723201204563" y1="704.3729681843197" x2="577.3014995292699" y2="705.2006248370521"></line><line style="stroke: #aaa; stroke-width: 1;" x1="496.2723201204563" y1="704.3729681843197" x2="500.08212003798417" y2="630.6470432171708"></line><line style="stroke: #aaa; stroke-width: 1.41421;" x1="496.2723201204563" y1="704.3729681843197" x2="581.1135753129372" y2="633.2020822697859"></line><line style="stroke: #aaa; stroke-width: 1.41421;" x1="577.3014995292699" y1="705.2006248370521" x2="500.08212003798417" y2="630.6470432171708"></line><line style="stroke: #aaa; stroke-width: 1;" x1="577.3014995292699" y1="705.2006248370521" x2="659.1128182680262" y2="704.6862790895245"></line><line style="stroke: #aaa; stroke-width: 1;" x1="577.3014995292699" y1="705.2006248370521" x2="581.1135753129372" y2="633.2020822697859"></line><line style="stroke: #aaa; stroke-width: 1.41421;" x1="577.3014995292699" y1="705.2006248370521" x2="667.682212905301" y2="639.8089216727628"></line><line style="stroke: #aaa; stroke-width: 1.41421;" x1="659.1128182680262" y1="704.6862790895245" x2="581.1135753129372" y2="633.2020822697859"></line><line style="stroke: #aaa; stroke-width: 1;" x1="659.1128182680262" y1="704.6862790895245" x2="744.1361427516673" y2="688.0375596570146"></line><line style="stroke: #aaa; stroke-width: 1;" x1="659.1128182680262" y1="704.6862790895245" x2="667.682212905301" y2="639.8089216727628"></line><line style="stroke: #aaa; stroke-width: 1.41421;" x1="659.1128182680262" y1="704.6862790895245" x2="763.2822459612584" y2="680.7107879319083"></line><line style="stroke: #aaa; stroke-width: 1.41421;" x1="744.1361427516673" y1="688.0375596570146" x2="667.682212905301" y2="639.8089216727628"></line><line style="stroke: #aaa; stroke-width: 1;" x1="744.1361427516673" y1="688.0375596570146" x2="690.359701741354" y2="726.1841106432686"></line><line style="stroke: #aaa; stroke-width: 1;" x1="744.1361427516673" y1="688.0375596570146" x2="763.2822459612584" y2="680.7107879319083"></line><line style="stroke: #aaa; stroke-width: 1.41421;" x1="744.1361427516673" y1="688.0375596570146" x2="779.9984827559068" y2="779.9969655118139"></line><line style="stroke: #aaa; stroke-width: 1.41421;" x1="690.359701741354" y1="726.1841106432686" x2="763.2822459612584" y2="680.7107879319083"></line><line style="stroke: #aaa; stroke-width: 1;" x1="780" y1="21.380083148370133" x2="692.7652922508086" y2="44.42208437017086"></line><line style="stroke: #aaa; stroke-width: 1;" x1="692.7652922508086" y1="44.42208437017086" x2="639.1360239175166" y2="119.01488674985642"></line><line style="stroke: #aaa; stroke-width: 1;" x1="639.1360239175166" y1="119.01488674985642" x2="658.3450927569671" y2="210.14815319601627"></line><line style="stroke: #aaa; stroke-width: 1;" x1="658.3450927569671" y1="210.14815319601627" x2="662.8148938549508" y2="281.72945363770697"></line><line style="stroke: #aaa; stroke-width: 1;" x1="662.8148938549508" y1="281.72945363770697" x2="679.2337508073709" y2="358.5224875388593"></line><line style="stroke: #aaa; stroke-width: 1;" x1="679.2337508073709" y1="358.5224875388593" x2="675.3647783702162" y2="444.97429733606174"></line><line style="stroke: #aaa; stroke-width: 1;" x1="675.3647783702162" y1="444.97429733606174" x2="645.3385177697082" y2="543.0975073186813"></line><line style="stroke: #aaa; stroke-width: 1;" x1="645.3385177697082" y1="543.0975073186813" x2="654.4950858709749" y2="635.3853965196157"></line><line style="stroke: #aaa; stroke-width: 1;" x1="654.4950858709749" y1="635.3853965196157" x2="690.359701741354" y2="726.1841106432686"></line><line style="stroke: #aaa; stroke-width: 1;" x1="690.359701741354" y1="726.1841106432686" x2="779.9984827559068" y2="779.9969655118139"></line><line style="stroke: #aaa; stroke-width: 1;" x1="21.379666854522114" y1="780" x2="108.14079833531173" y2="747.0120789299523"></line><line style="stroke: #aaa; stroke-width: 1;" x1="108.14079833531173" y1="747.0120789299523" x2="175.0505042146495" y2="665.318346608404"></line><line style="stroke: #aaa; stroke-width: 1;" x1="175.0505042146495" y1="665.318346608404" x2="258.2903082669669" y2="630.371663414291"></line><line style="stroke: #aaa; stroke-width: 1;" x1="258.2903082669669" y1="630.371663414291" x2="341.0119734615241" y2="624.7844120418113"></line><line style="stroke: #aaa; stroke-width: 1;" x1="341.0119734615241" y1="624.7844120418113" x2="421.1019787767696" y2="626.7401396776908"></line><line style="stroke: #aaa; stroke-width: 1;" x1="421.1019787767696" y1="626.7401396776908" x2="500.08212003798417" y2="630.6470432171708"></line><line style="stroke: #aaa; stroke-width: 1;" x1="500.08212003798417" y1="630.6470432171708" x2="581.1135753129372" y2="633.2020822697859"></line><line style="stroke: #aaa; stroke-width: 1;" x1="581.1135753129372" y1="633.2020822697859" x2="667.682212905301" y2="639.8089216727628"></line><line style="stroke: #aaa; stroke-width: 1;" x1="667.682212905301" y1="639.8089216727628" x2="763.2822459612584" y2="680.7107879319083"></line><line style="stroke: #aaa; stroke-width: 1;" x1="763.2822459612584" y1="680.7107879319083" x2="779.9984827559068" y2="779.9969655118139"></line><circle r="10" cx="21.379586417826523" cy="21.379333043373347" style="stroke: #000; fill: #69b3a2;"></circle><circle r="10" cx="108.58155774432876" cy="52.15631199645276" style="stroke: #000; fill: #69b3a2;"></circle><circle r="10" cx="178.1221648809319" cy="131.5291160289362" style="stroke: #000; fill: #69b3a2;"></circle><circle r="10" cx="262.3102464913755" cy="165.8097290662214" style="stroke: #000; fill: #69b3a2;"></circle><circle r="10" cx="348.9448842017847" cy="166.95904146667036" style="stroke: #000; fill: #69b3a2;"></circle><circle r="10" cx="439.7155293097171" cy="124.29641343759607" style="stroke: #000; fill: #69b3a2;"></circle><circle r="10" cx="523.7898176131855" cy="104.15120499276318" style="stroke: #000; fill: #69b3a2;"></circle><circle r="10" cx="598.064984942001" cy="116.17991616208235" style="stroke: #000; fill: #69b3a2;"></circle><circle r="10" cx="660.3895791722873" cy="110.20273305770132" style="stroke: #000; fill: #69b3a2;"></circle><circle r="10" cx="755.9691294329891" cy="108.9987998699043" style="stroke: #000; fill: #69b3a2;"></circle><circle r="10" cx="780" cy="21.380083148370133" style="stroke: #000; fill: #69b3a2;"></circle><circle r="10" cx="20.569194121489666" cy="103.71196282783913" style="stroke: #000; fill: #69b3a2;"></circle><circle r="10" cx="98.88636799004655" cy="96.30212198864105" style="stroke: #000; fill: #69b3a2;"></circle><circle r="10" cx="191.58998207246336" cy="90.27866293942344" style="stroke: #000; fill: #69b3a2;"></circle><circle r="10" cx="273.025024276155" cy="93.41055819619801" style="stroke: #000; fill: #69b3a2;"></circle><circle r="10" cx="353.5178578980924" cy="108.54362664200373" style="stroke: #000; fill: #69b3a2;"></circle><circle r="10" cx="442.2553959214023" cy="157.07192033462337" style="stroke: #000; fill: #69b3a2;"></circle><circle r="10" cx="521.6247102924717" cy="187.03976703755066" style="stroke: #000; fill: #69b3a2;"></circle><circle r="10" cx="587.1385516062478" cy="189.60390955472386" style="stroke: #000; fill: #69b3a2;"></circle><circle r="10" cx="680.0340970664295" cy="190.28439353043524" style="stroke: #000; fill: #69b3a2;"></circle><circle r="10" cx="732.0520521729536" cy="123.32917032830736" style="stroke: #000; fill: #69b3a2;"></circle><circle r="10" cx="692.7652922508086" cy="44.42208437017086" style="stroke: #000; fill: #69b3a2;"></circle><circle r="10" cx="32.16874521288277" cy="177.2505081495023" style="stroke: #000; fill: #69b3a2;"></circle><circle r="10" cx="110.9719758128533" cy="167.53255973382505" style="stroke: #000; fill: #69b3a2;"></circle><circle r="10" cx="187.75287176126153" cy="165.27490052343825" style="stroke: #000; fill: #69b3a2;"></circle><circle r="10" cx="264.43666408771765" cy="170.25070252643798" style="stroke: #000; fill: #69b3a2;"></circle><circle r="10" cx="339.1298321641553" cy="177.87030236149357" style="stroke: #000; fill: #69b3a2;"></circle><circle r="10" cx="417.6282484258417" cy="196.26916285528125" style="stroke: #000; fill: #69b3a2;"></circle><circle r="10" cx="499.71646421157067" cy="252.6545050835113" style="stroke: #000; fill: #69b3a2;"></circle><circle r="10" cx="599.5344358460735" cy="269.3191555789978" style="stroke: #000; fill: #69b3a2;"></circle><circle r="10" cx="666.6975214889428" cy="209.26359988979615" style="stroke: #000; fill: #69b3a2;"></circle><circle r="10" cx="629.7116622338351" cy="124.69317276791608" style="stroke: #000; fill: #69b3a2;"></circle><circle r="10" cx="639.1360239175166" cy="119.01488674985642" style="stroke: #000; fill: #69b3a2;"></circle><circle r="10" cx="39.00499192272149" cy="248.5192563080346" style="stroke: #000; fill: #69b3a2;"></circle><circle r="10" cx="114.34784391978255" cy="245.69035469663257" style="stroke: #000; fill: #69b3a2;"></circle><circle r="10" cx="187.5806645567058" cy="245.3315264686376" style="stroke: #000; fill: #69b3a2;"></circle><circle r="10" cx="260.6253469260969" cy="248.22491095399224" style="stroke: #000; fill: #69b3a2;"></circle><circle r="10" cx="333.9939609093438" cy="253.4199547284308" style="stroke: #000; fill: #69b3a2;"></circle><circle r="10" cx="409.2204402844716" cy="255.4219583091468" style="stroke: #000; fill: #69b3a2;"></circle><circle r="10" cx="496.7722520491004" cy="244.2937315090243" style="stroke: #000; fill: #69b3a2;"></circle><circle r="10" cx="575.6492207119909" cy="220.06713645401624" style="stroke: #000; fill: #69b3a2;"></circle><circle r="10" cx="557.025808092439" cy="199.83316922974277" style="stroke: #000; fill: #69b3a2;"></circle><circle r="10" cx="581.011919958706" cy="207.8722870565134" style="stroke: #000; fill: #69b3a2;"></circle><circle r="10" cx="658.3450927569671" cy="210.14815319601627" style="stroke: #000; fill: #69b3a2;"></circle><circle r="10" cx="39.12333696197564" cy="323.36718328195843" style="stroke: #000; fill: #69b3a2;"></circle><circle r="10" cx="114.13998147904128" cy="323.94221879320617" style="stroke: #000; fill: #69b3a2;"></circle><circle r="10" cx="187.68383715502995" cy="324.7812547766362" style="stroke: #000; fill: #69b3a2;"></circle><circle r="10" cx="261.2656239333437" cy="326.4198783970783" style="stroke: #000; fill: #69b3a2;"></circle><circle r="10" cx="337.67327783487355" cy="327.28698339622883" style="stroke: #000; fill: #69b3a2;"></circle><circle r="10" cx="419.55211393576815" cy="321.7657321417949" style="stroke: #000; fill: #69b3a2;"></circle><circle r="10" cx="501.9771579101435" cy="311.20192014426914" style="stroke: #000; fill: #69b3a2;"></circle><circle r="10" cx="582.7461299570074" cy="304.3014940092964" style="stroke: #000; fill: #69b3a2;"></circle><circle r="10" cx="519.1682921059016" cy="296.5878250404747" style="stroke: #000; fill: #69b3a2;"></circle><circle r="10" cx="591.3709040036767" cy="295.37402976607314" style="stroke: #000; fill: #69b3a2;"></circle><circle r="10" cx="662.8148938549508" cy="281.72945363770697" style="stroke: #000; fill: #69b3a2;"></circle><circle r="10" cx="37.89861753010449" cy="399.7733199393952" style="stroke: #000; fill: #69b3a2;"></circle><circle r="10" cx="113.08018648007943" cy="400.9522185996576" style="stroke: #000; fill: #69b3a2;"></circle><circle r="10" cx="188.05859644600145" cy="402.09166891350213" style="stroke: #000; fill: #69b3a2;"></circle><circle r="10" cx="264.0482495999092" cy="402.1864966693148" style="stroke: #000; fill: #69b3a2;"></circle><circle r="10" cx="343.12321861693636" cy="399.2771811209836" style="stroke: #000; fill: #69b3a2;"></circle><circle r="10" cx="424.0750185770068" cy="393.89248183491986" style="stroke: #000; fill: #69b3a2;"></circle><circle r="10" cx="503.72881621551426" cy="388.9652316428961" style="stroke: #000; fill: #69b3a2;"></circle><circle r="10" cx="578.9287438190145" cy="384.82618975718697" style="stroke: #000; fill: #69b3a2;"></circle><circle r="10" cx="533.2771449267266" cy="390.2541304999013" style="stroke: #000; fill: #69b3a2;"></circle><circle r="10" cx="602.2222337568263" cy="368.7540230800177" style="stroke: #000; fill: #69b3a2;"></circle><circle r="10" cx="679.2337508073709" cy="358.5224875388593" style="stroke: #000; fill: #69b3a2;"></circle><circle r="10" cx="37.193781786700455" cy="476.1620082897625" style="stroke: #000; fill: #69b3a2;"></circle><circle r="10" cx="112.80784116538561" cy="477.1201479344931" style="stroke: #000; fill: #69b3a2;"></circle><circle r="10" cx="188.5357697132505" cy="477.7907698236" style="stroke: #000; fill: #69b3a2;"></circle><circle r="10" cx="266.0760463302062" cy="476.6179401397095" style="stroke: #000; fill: #69b3a2;"></circle><circle r="10" cx="345.4666021185778" cy="473.42414132394055" style="stroke: #000; fill: #69b3a2;"></circle><circle r="10" cx="424.92164078090195" cy="470.26144601207807" style="stroke: #000; fill: #69b3a2;"></circle><circle r="10" cx="501.7639851150768" cy="469.5240653828791" style="stroke: #000; fill: #69b3a2;"></circle><circle r="10" cx="569.4338302850086" cy="475.35028270000646" style="stroke: #000; fill: #69b3a2;"></circle><circle r="10" cx="593.7340116785272" cy="473.29821006422145" style="stroke: #000; fill: #69b3a2;"></circle><circle r="10" cx="630.2912494773618" cy="447.3358877668192" style="stroke: #000; fill: #69b3a2;"></circle><circle r="10" cx="675.3647783702162" cy="444.97429733606174" style="stroke: #000; fill: #69b3a2;"></circle><circle r="10" cx="36.53962199600268" cy="550.9720041613613" style="stroke: #000; fill: #69b3a2;"></circle><circle r="10" cx="112.52790963022674" cy="553.6264227020681" style="stroke: #000; fill: #69b3a2;"></circle><circle r="10" cx="188.21032085530157" cy="553.9442853395522" style="stroke: #000; fill: #69b3a2;"></circle><circle r="10" cx="265.95694266890564" cy="551.6797985307467" style="stroke: #000; fill: #69b3a2;"></circle><circle r="10" cx="345.37405022890465" cy="548.6415172345104" style="stroke: #000; fill: #69b3a2;"></circle><circle r="10" cx="423.34674141236593" cy="548.2045509357257" style="stroke: #000; fill: #69b3a2;"></circle><circle r="10" cx="496.7843900018445" cy="552.0940061681362" style="stroke: #000; fill: #69b3a2;"></circle><circle r="10" cx="565.6505821391082" cy="560.1005032469072" style="stroke: #000; fill: #69b3a2;"></circle><circle r="10" cx="634.8960852996227" cy="551.7594538456293" style="stroke: #000; fill: #69b3a2;"></circle><circle r="10" cx="689.8840457181977" cy="531.2227964248019" style="stroke: #000; fill: #69b3a2;"></circle><circle r="10" cx="645.3385177697082" cy="543.0975073186813" style="stroke: #000; fill: #69b3a2;"></circle><circle r="10" cx="30.609549320709355" cy="622.3886836189613" style="stroke: #000; fill: #69b3a2;"></circle><circle r="10" cx="109.64059412124412" cy="630.7980090044244" style="stroke: #000; fill: #69b3a2;"></circle><circle r="10" cx="187.22259495075735" cy="631.6992519956676" style="stroke: #000; fill: #69b3a2;"></circle><circle r="10" cx="266.10563259001975" cy="626.5353117251356" style="stroke: #000; fill: #69b3a2;"></circle><circle r="10" cx="344.1594963324567" cy="624.0083416882409" style="stroke: #000; fill: #69b3a2;"></circle><circle r="10" cx="420.2644600374325" cy="626.1066902688624" style="stroke: #000; fill: #69b3a2;"></circle><circle r="10" cx="494.9371453186147" cy="631.303251287394" style="stroke: #000; fill: #69b3a2;"></circle><circle r="10" cx="572.7406637857063" cy="633.6906348677326" style="stroke: #000; fill: #69b3a2;"></circle><circle r="10" cx="649.9759743399686" cy="629.1100749509598" style="stroke: #000; fill: #69b3a2;"></circle><circle r="10" cx="720.9306529712494" cy="615.8622581529136" style="stroke: #000; fill: #69b3a2;"></circle><circle r="10" cx="654.4950858709749" cy="635.3853965196157" style="stroke: #000; fill: #69b3a2;"></circle><circle r="10" cx="20" cy="696.4810230345703" style="stroke: #000; fill: #69b3a2;"></circle><circle r="10" cx="98.1300218096851" cy="702.6220685009955" style="stroke: #000; fill: #69b3a2;"></circle><circle r="10" cx="190.61894585294215" cy="706.6844895600079" style="stroke: #000; fill: #69b3a2;"></circle><circle r="10" cx="269.80846679899093" cy="703.5855185000516" style="stroke: #000; fill: #69b3a2;"></circle><circle r="10" cx="342.6885281842913" cy="699.7992358659654" style="stroke: #000; fill: #69b3a2;"></circle><circle r="10" cx="417.7602486619329" cy="701.859653344262" style="stroke: #000; fill: #69b3a2;"></circle><circle r="10" cx="496.2723201204563" cy="704.3729681843197" style="stroke: #000; fill: #69b3a2;"></circle><circle r="10" cx="577.3014995292699" cy="705.2006248370521" style="stroke: #000; fill: #69b3a2;"></circle><circle r="10" cx="659.1128182680262" cy="704.6862790895245" style="stroke: #000; fill: #69b3a2;"></circle><circle r="10" cx="744.1361427516673" cy="688.0375596570146" style="stroke: #000; fill: #69b3a2;"></circle><circle r="10" cx="690.359701741354" cy="726.1841106432686" style="stroke: #000; fill: #69b3a2;"></circle><circle r="10" cx="21.379666854522114" cy="780" style="stroke: #000; fill: #69b3a2;"></circle><circle r="10" cx="108.14079833531173" cy="747.0120789299523" style="stroke: #000; fill: #69b3a2;"></circle><circle r="10" cx="175.0505042146495" cy="665.318346608404" style="stroke: #000; fill: #69b3a2;"></circle><circle r="10" cx="258.2903082669669" cy="630.371663414291" style="stroke: #000; fill: #69b3a2;"></circle><circle r="10" cx="341.0119734615241" cy="624.7844120418113" style="stroke: #000; fill: #69b3a2;"></circle><circle r="10" cx="421.1019787767696" cy="626.7401396776908" style="stroke: #000; fill: #69b3a2;"></circle><circle r="10" cx="500.08212003798417" cy="630.6470432171708" style="stroke: #000; fill: #69b3a2;"></circle><circle r="10" cx="581.1135753129372" cy="633.2020822697859" style="stroke: #000; fill: #69b3a2;"></circle><circle r="10" cx="667.682212905301" cy="639.8089216727628" style="stroke: #000; fill: #69b3a2;"></circle><circle r="10" cx="763.2822459612584" cy="680.7107879319083" style="stroke: #000; fill: #69b3a2;"></circle><circle r="10" cx="779.9984827559068" cy="779.9969655118139" style="stroke: #000; fill: #69b3a2;"></circle></svg>