<svg width="800" height="800" xmlns="http://www.w3.org/2000/svg"><line style="stroke: #aaa; stroke-width: 1;" x1="427.71958058871235" y1="552.4595313633712" x2="432.43912987807477" y2="446.2129607762239"></line><line style="stroke: #aaa; stroke-width: 1;" x1="427.71958058871235" y1="552.4595313633712" x2="533.7463329966283" y2="561.5344648522528"></line><line style="stroke: #aaa; stroke-width: 1.41421;" x1="427.71958058871235" y1="552.4595313633712" x2="541.6189161888773" y2="448.6982145143622"></line><line style="stroke: #aaa; stroke-width: 1.41421;" x1="432.43912987807477" y1="446.2129607762239" x2="533.7463329966283" y2="561.5344648522528"></line><line style="stroke: #aaa; stroke-width: 1;" x1="432.43912987807477" y1="446.2129607762239" x2="424.85664613239624" y2="336.81054503549626"></line><line style="stroke: #aaa; stroke-width: 1;" x1="432.43912987807477" y1="446.2129607762239" x2="541.6189161888773" y2="448.6982145143622"></line><line style="stroke: #aaa; stroke-width: 1.41421;" x1="432.43912987807477" y1="446.2129607762239" x2="525.1666121299206" y2="326.5558593805574"></line><line style="stroke: #aaa; stroke-width: 1.41421;" x1="424.85664613239624" y1="336.81054503549626" x2="541.6189161888773" y2="448.6982145143622"></line><line style="stroke: #aaa; stroke-width: 1;" x1="424.85664613239624" y1="336.81054503549626" x2="412.87601473914833" y2="438.72789767958"></line><line style="stroke: #aaa; stroke-width: 1;" x1="424.85664613239624" y1="336.81054503549626" x2="525.1666121299206" y2="326.5558593805574"></line><line style="stroke: #aaa; stroke-width: 1.41421;" x1="424.85664613239624" y1="336.81054503549626" x2="513.5907467740329" y2="452.57082046977473"></line><line style="stroke: #aaa; stroke-width: 1.41421;" x1="412.87601473914833" y1="438.72789767958" x2="525.1666121299206" y2="326.5558593805574"></line><line style="stroke: #aaa; stroke-width: 1;" x1="412.87601473914833" y1="438.72789767958" x2="400.16006828949054" y2="551.9502624877292"></line><line style="stroke: #aaa; stroke-width: 1;" x1="412.87601473914833" y1="438.72789767958" x2="513.5907467740329" y2="452.57082046977473"></line><line style="stroke: #aaa; stroke-width: 1.41421;" x1="412.87601473914833" y1="438.72789767958" x2="511.4197043634139" y2="554.0641067592369"></line><line style="stroke: #aaa; stroke-width: 1.41421;" x1="400.16006828949054" y1="551.9502624877292" x2="513.5907467740329" y2="452.57082046977473"></line><line style="stroke: #aaa; stroke-width: 1;" x1="400.16006828949054" y1="551.9502624877292" x2="402.19498129152504" y2="664.2521589437893"></line><line style="stroke: #aaa; stroke-width: 1;" x1="400.16006828949054" y1="551.9502624877292" x2="511.4197043634139" y2="554.0641067592369"></line><line style="stroke: #aaa; stroke-width: 1.41421;" x1="400.16006828949054" y1="551.9502624877292" x2="507.6556559347835" y2="659.7217203260823"></line><line style="stroke: #aaa; stroke-width: 1.41421;" x1="402.19498129152504" y1="664.2521589437893" x2="511.4197043634139" y2="554.0641067592369"></line><line style="stroke: #aaa; stroke-width: 1;" x1="402.19498129152504" y1="664.2521589437893" x2="406.3809768242541" y2="780"></line><line style="stroke: #aaa; stroke-width: 1;" x1="402.19498129152504" y1="664.2521589437893" x2="507.6556559347835" y2="659.7217203260823"></line><line style="stroke: #aaa; stroke-width: 1.41421;" x1="402.19498129152504" y1="664.2521589437893" x2="511.37494060237026" y2="770.3325413649362"></line><line style="stroke: #aaa; stroke-width: 1.41421;" x1="406.3809768242541" y1="780" x2="507.6556559347835" y2="659.7217203260823"></line><line style="stroke: #aaa; stroke-width: 1;" x1="406.3809768242541" y1="780" x2="386.8645392593436" y2="684.5796639587986"></line><line style="stroke: #aaa; stroke-width: 1;" x1="406.3809768242541" y1="780" x2="511.37494060237026" y2="770.3325413649362"></line><line style="stroke: #aaa; stroke-width: 1.41421;" x1="406.3809768242541" y1="780" x2="497.1048158317803" y2="662.0042396392039"></line><line style="stroke: #aaa; stroke-width: 1.41421;" x1="386.8645392593436" y1="684.5796639587986" x2="511.37494060237026" y2="770.3325413649362"></line><line style="stroke: #aaa; stroke-width: 1;" x1="386.8645392593436" y1="684.5796639587986" x2="362.93517335571715" y2="589.8340280840529"></line><line style="stroke: #aaa; stroke-width: 1;" x1="386.8645392593436" y1="684.5796639587986" x2="497.1048158317803" y2="662.0042396392039"></line><line style="stroke: #aaa; stroke-width: 1.41421;" x1="386.8645392593436" y1="684.5796639587986" x2="470.81302622031905" y2="559.1178705060536"></line><line style="stroke: #aaa; stroke-width: 1.41421;" x1="362.93517335571715" y1="589.8340280840529" x2="497.1048158317803" y2="662.0042396392039"></line><line style="stroke: #aaa; stroke-width: 1;" x1="362.93517335571715" y1="589.8340280840529" x2="332.3717964404104" y2="492.91378167280794"></line><line style="stroke: #aaa; stroke-width: 1;" x1="362.93517335571715" y1="589.8340280840529" x2="470.81302622031905" y2="559.1178705060536"></line><line style="stroke: #aaa; stroke-width: 1.41421;" x1="362.93517335571715" y1="589.8340280840529" x2="437.57452802003155" y2="459.59527095278065"></line><line style="stroke: #aaa; stroke-width: 1.41421;" x1="332.3717964404104" y1="492.91378167280794" x2="470.81302622031905" y2="559.1178705060536"></line><line style="stroke: #aaa; stroke-width: 1;" x1="332.3717964404104" y1="492.91378167280794" x2="298.80632815945603" y2="392.21488995433134"></line><line style="stroke: #aaa; stroke-width: 1;" x1="332.3717964404104" y1="492.91378167280794" x2="437.57452802003155" y2="459.59527095278065"></line><line style="stroke: #aaa; stroke-width: 1.41421;" x1="332.3717964404104" y1="492.91378167280794" x2="399.24131912532545" y2="357.97104525601446"></line><line style="stroke: #aaa; stroke-width: 1.41421;" x1="298.80632815945603" y1="392.21488995433134" x2="437.57452802003155" y2="459.59527095278065"></line><line style="stroke: #aaa; stroke-width: 1;" x1="533.7463329966283" y1="561.5344648522528" x2="541.6189161888773" y2="448.6982145143622"></line><line style="stroke: #aaa; stroke-width: 1;" x1="533.7463329966283" y1="561.5344648522528" x2="421.440868414688" y2="541.784347479691"></line><line style="stroke: #aaa; stroke-width: 1.41421;" x1="533.7463329966283" y1="561.5344648522528" x2="448.44758070252817" y2="440.19569491670103"></line><line style="stroke: #aaa; stroke-width: 1.41421;" x1="541.6189161888773" y1="448.6982145143622" x2="421.440868414688" y2="541.784347479691"></line><line style="stroke: #aaa; stroke-width: 1;" x1="541.6189161888773" y1="448.6982145143622" x2="525.1666121299206" y2="326.5558593805574"></line><line style="stroke: #aaa; stroke-width: 1;" x1="541.6189161888773" y1="448.6982145143622" x2="448.44758070252817" y2="440.19569491670103"></line><line style="stroke: #aaa; stroke-width: 1.41421;" x1="541.6189161888773" y1="448.6982145143622" x2="506.9978232724893" y2="315.0273527863535"></line><line style="stroke: #aaa; stroke-width: 1.41421;" x1="525.1666121299206" y1="326.5558593805574" x2="448.44758070252817" y2="440.19569491670103"></line><line style="stroke: #aaa; stroke-width: 1;" x1="525.1666121299206" y1="326.5558593805574" x2="513.5907467740329" y2="452.57082046977473"></line><line style="stroke: #aaa; stroke-width: 1;" x1="525.1666121299206" y1="326.5558593805574" x2="506.9978232724893" y2="315.0273527863535"></line><line style="stroke: #aaa; stroke-width: 1.41421;" x1="525.1666121299206" y1="326.5558593805574" x2="603.720525259998" y2="427.2284767175518"></line><line style="stroke: #aaa; stroke-width: 1.41421;" x1="513.5907467740329" y1="452.57082046977473" x2="506.9978232724893" y2="315.0273527863535"></line><line style="stroke: #aaa; stroke-width: 1;" x1="513.5907467740329" y1="452.57082046977473" x2="511.4197043634139" y2="554.0641067592369"></line><line style="stroke: #aaa; stroke-width: 1;" x1="513.5907467740329" y1="452.57082046977473" x2="603.720525259998" y2="427.2284767175518"></line><line style="stroke: #aaa; stroke-width: 1.41421;" x1="513.5907467740329" y1="452.57082046977473" x2="621.5979171705387" y2="551.2085248047347"></line><line style="stroke: #aaa; stroke-width: 1.41421;" x1="511.4197043634139" y1="554.0641067592369" x2="603.720525259998" y2="427.2284767175518"></line><line style="stroke: #aaa; stroke-width: 1;" x1="511.4197043634139" y1="554.0641067592369" x2="507.6556559347835" y2="659.7217203260823"></line><line style="stroke: #aaa; stroke-width: 1;" x1="511.4197043634139" y1="554.0641067592369" x2="621.5979171705387" y2="551.2085248047347"></line><line style="stroke: #aaa; stroke-width: 1.41421;" x1="511.4197043634139" y1="554.0641067592369" x2="617.8784162528988" y2="661.8334020970565"></line><line style="stroke: #aaa; stroke-width: 1.41421;" x1="507.6556559347835" y1="659.7217203260823" x2="621.5979171705387" y2="551.2085248047347"></line><line style="stroke: #aaa; stroke-width: 1;" x1="507.6556559347835" y1="659.7217203260823" x2="511.37494060237026" y2="770.3325413649362"></line><line style="stroke: #aaa; stroke-width: 1;" x1="507.6556559347835" y1="659.7217203260823" x2="617.8784162528988" y2="661.8334020970565"></line><line style="stroke: #aaa; stroke-width: 1.41421;" x1="507.6556559347835" y1="659.7217203260823" x2="613.5934214457455" y2="763.2503521176856"></line><line style="stroke: #aaa; stroke-width: 1.41421;" x1="511.37494060237026" y1="770.3325413649362" x2="617.8784162528988" y2="661.8334020970565"></line><line style="stroke: #aaa; stroke-width: 1;" x1="511.37494060237026" y1="770.3325413649362" x2="497.1048158317803" y2="662.0042396392039"></line><line style="stroke: #aaa; stroke-width: 1;" x1="511.37494060237026" y1="770.3325413649362" x2="613.5934214457455" y2="763.2503521176856"></line><line style="stroke: #aaa; stroke-width: 1.41421;" x1="511.37494060237026" y1="770.3325413649362" x2="598.8257053023945" y2="644.5582665850986"></line><line style="stroke: #aaa; stroke-width: 1.41421;" x1="497.1048158317803" y1="662.0042396392039" x2="613.5934214457455" y2="763.2503521176856"></line><line style="stroke: #aaa; stroke-width: 1;" x1="497.1048158317803" y1="662.0042396392039" x2="470.81302622031905" y2="559.1178705060536"></line><line style="stroke: #aaa; stroke-width: 1;" x1="497.1048158317803" y1="662.0042396392039" x2="598.8257053023945" y2="644.5582665850986"></line><line style="stroke: #aaa; stroke-width: 1.41421;" x1="497.1048158317803" y1="662.0042396392039" x2="576.2416309806656" y2="530.5425884562306"></line><line style="stroke: #aaa; stroke-width: 1.41421;" x1="470.81302622031905" y1="559.1178705060536" x2="598.8257053023945" y2="644.5582665850986"></line><line style="stroke: #aaa; stroke-width: 1;" x1="470.81302622031905" y1="559.1178705060536" x2="437.57452802003155" y2="459.59527095278065"></line><line style="stroke: #aaa; stroke-width: 1;" x1="470.81302622031905" y1="559.1178705060536" x2="576.2416309806656" y2="530.5425884562306"></line><line style="stroke: #aaa; stroke-width: 1.41421;" x1="470.81302622031905" y1="559.1178705060536" x2="539.4542531548321" y2="422.8494131371907"></line><line style="stroke: #aaa; stroke-width: 1.41421;" x1="437.57452802003155" y1="459.59527095278065" x2="576.2416309806656" y2="530.5425884562306"></line><line style="stroke: #aaa; stroke-width: 1;" x1="437.57452802003155" y1="459.59527095278065" x2="399.24131912532545" y2="357.97104525601446"></line><line style="stroke: #aaa; stroke-width: 1;" x1="437.57452802003155" y1="459.59527095278065" x2="539.4542531548321" y2="422.8494131371907"></line><line style="stroke: #aaa; stroke-width: 1.41421;" x1="437.57452802003155" y1="459.59527095278065" x2="491.35278066269257" y2="319.9952652619898"></line><line style="stroke: #aaa; stroke-width: 1.41421;" x1="399.24131912532545" y1="357.97104525601446" x2="539.4542531548321" y2="422.8494131371907"></line><line style="stroke: #aaa; stroke-width: 1;" x1="421.440868414688" y1="541.784347479691" x2="448.44758070252817" y2="440.19569491670103"></line><line style="stroke: #aaa; stroke-width: 1;" x1="421.440868414688" y1="541.784347479691" x2="316.8059013501402" y2="504.9014952553031"></line><line style="stroke: #aaa; stroke-width: 1.41421;" x1="421.440868414688" y1="541.784347479691" x2="370.9010684459873" y2="395.2644914567002"></line><line style="stroke: #aaa; stroke-width: 1.41421;" x1="448.44758070252817" y1="440.19569491670103" x2="316.8059013501402" y2="504.9014952553031"></line><line style="stroke: #aaa; stroke-width: 1;" x1="448.44758070252817" y1="440.19569491670103" x2="506.9978232724893" y2="315.0273527863535"></line><line style="stroke: #aaa; stroke-width: 1;" x1="448.44758070252817" y1="440.19569491670103" x2="370.9010684459873" y2="395.2644914567002"></line><line style="stroke: #aaa; stroke-width: 1.41421;" x1="448.44758070252817" y1="440.19569491670103" x2="496.9761470500362" y2="313.133110444024"></line><line style="stroke: #aaa; stroke-width: 1.41421;" x1="506.9978232724893" y1="315.0273527863535" x2="370.9010684459873" y2="395.2644914567002"></line><line style="stroke: #aaa; stroke-width: 1;" x1="506.9978232724893" y1="315.0273527863535" x2="603.720525259998" y2="427.2284767175518"></line><line style="stroke: #aaa; stroke-width: 1;" x1="506.9978232724893" y1="315.0273527863535" x2="496.9761470500362" y2="313.133110444024"></line><line style="stroke: #aaa; stroke-width: 1.41421;" x1="506.9978232724893" y1="315.0273527863535" x2="517.708147789839" y2="441.8301128199291"></line><line style="stroke: #aaa; stroke-width: 1.41421;" x1="603.720525259998" y1="427.2284767175518" x2="496.9761470500362" y2="313.133110444024"></line><line style="stroke: #aaa; stroke-width: 1;" x1="603.720525259998" y1="427.2284767175518" x2="621.5979171705387" y2="551.2085248047347"></line><line style="stroke: #aaa; stroke-width: 1;" x1="603.720525259998" y1="427.2284767175518" x2="517.708147789839" y2="441.8301128199291"></line><line style="stroke: #aaa; stroke-width: 1.41421;" x1="603.720525259998" y1="427.2284767175518" x2="514.3843844698317" y2="552.549275135512"></line><line style="stroke: #aaa; stroke-width: 1.41421;" x1="621.5979171705387" y1="551.2085248047347" x2="517.708147789839" y2="441.8301128199291"></line><line style="stroke: #aaa; stroke-width: 1;" x1="621.5979171705387" y1="551.2085248047347" x2="617.8784162528988" y2="661.8334020970565"></line><line style="stroke: #aaa; stroke-width: 1;" x1="621.5979171705387" y1="551.2085248047347" x2="514.3843844698317" y2="552.549275135512"></line><line style="stroke: #aaa; stroke-width: 1.41421;" x1="621.5979171705387" y1="551.2085248047347" x2="510.8569135995675" y2="657.4986697776322"></line><line style="stroke: #aaa; stroke-width: 1.41421;" x1="617.8784162528988" y1="661.8334020970565" x2="514.3843844698317" y2="552.549275135512"></line><line style="stroke: #aaa; stroke-width: 1;" x1="617.8784162528988" y1="661.8334020970565" x2="613.5934214457455" y2="763.2503521176856"></line><line style="stroke: #aaa; stroke-width: 1;" x1="617.8784162528988" y1="661.8334020970565" x2="510.8569135995675" y2="657.4986697776322"></line><line style="stroke: #aaa; stroke-width: 1.41421;" x1="617.8784162528988" y1="661.8334020970565" x2="496.21548748737354" y2="760.0812075858242"></line><line style="stroke: #aaa; stroke-width: 1.41421;" x1="613.5934214457455" y1="763.2503521176856" x2="510.8569135995675" y2="657.4986697776322"></line><line style="stroke: #aaa; stroke-width: 1;" x1="613.5934214457455" y1="763.2503521176856" x2="598.8257053023945" y2="644.5582665850986"></line><line style="stroke: #aaa; stroke-width: 1;" x1="613.5934214457455" y1="763.2503521176856" x2="496.21548748737354" y2="760.0812075858242"></line><line style="stroke: #aaa; stroke-width: 1.41421;" x1="613.5934214457455" y1="763.2503521176856" x2="499.11972570387974" y2="657.5765197968389"></line><line style="stroke: #aaa; stroke-width: 1.41421;" x1="598.8257053023945" y1="644.5582665850986" x2="496.21548748737354" y2="760.0812075858242"></line><line style="stroke: #aaa; stroke-width: 1;" x1="598.8257053023945" y1="644.5582665850986" x2="576.2416309806656" y2="530.5425884562306"></line><line style="stroke: #aaa; stroke-width: 1;" x1="598.8257053023945" y1="644.5582665850986" x2="499.11972570387974" y2="657.5765197968389"></line><line style="stroke: #aaa; stroke-width: 1.41421;" x1="598.8257053023945" y1="644.5582665850986" x2="466.9563146438276" y2="559.4984705999516"></line><line style="stroke: #aaa; stroke-width: 1.41421;" x1="576.2416309806656" y1="530.5425884562306" x2="499.11972570387974" y2="657.5765197968389"></line><line style="stroke: #aaa; stroke-width: 1;" x1="576.2416309806656" y1="530.5425884562306" x2="539.4542531548321" y2="422.8494131371907"></line><line style="stroke: #aaa; stroke-width: 1;" x1="576.2416309806656" y1="530.5425884562306" x2="466.9563146438276" y2="559.4984705999516"></line><line style="stroke: #aaa; stroke-width: 1.41421;" x1="576.2416309806656" y1="530.5425884562306" x2="444.61000725575843" y2="462.3376460043534"></line><line style="stroke: #aaa; stroke-width: 1.41421;" x1="539.4542531548321" y1="422.8494131371907" x2="466.9563146438276" y2="559.4984705999516"></line><line style="stroke: #aaa; stroke-width: 1;" x1="539.4542531548321" y1="422.8494131371907" x2="491.35278066269257" y2="319.9952652619898"></line><line style="stroke: #aaa; stroke-width: 1;" x1="539.4542531548321" y1="422.8494131371907" x2="444.61000725575843" y2="462.3376460043534"></line><line style="stroke: #aaa; stroke-width: 1.41421;" x1="539.4542531548321" y1="422.8494131371907" x2="390.6297770632674" y2="388.56945467996417"></line><line style="stroke: #aaa; stroke-width: 1.41421;" x1="491.35278066269257" y1="319.9952652619898" x2="444.61000725575843" y2="462.3376460043534"></line><line style="stroke: #aaa; stroke-width: 1;" x1="316.8059013501402" y1="504.9014952553031" x2="370.9010684459873" y2="395.2644914567002"></line><line style="stroke: #aaa; stroke-width: 1;" x1="316.8059013501402" y1="504.9014952553031" x2="430.5772169187213" y2="535.522827184908"></line><line style="stroke: #aaa; stroke-width: 1.41421;" x1="316.8059013501402" y1="504.9014952553031" x2="442.4155017143507" y2="429.6763191964603"></line><line style="stroke: #aaa; stroke-width: 1.41421;" x1="370.9010684459873" y1="395.2644914567002" x2="430.5772169187213" y2="535.522827184908"></line><line style="stroke: #aaa; stroke-width: 1;" x1="370.9010684459873" y1="395.2644914567002" x2="496.9761470500362" y2="313.133110444024"></line><line style="stroke: #aaa; stroke-width: 1;" x1="370.9010684459873" y1="395.2644914567002" x2="442.4155017143507" y2="429.6763191964603"></line><line style="stroke: #aaa; stroke-width: 1.41421;" x1="370.9010684459873" y1="395.2644914567002" x2="441.427238970536" y2="308.98684004609544"></line><line style="stroke: #aaa; stroke-width: 1.41421;" x1="496.9761470500362" y1="313.133110444024" x2="442.4155017143507" y2="429.6763191964603"></line><line style="stroke: #aaa; stroke-width: 1;" x1="496.9761470500362" y1="313.133110444024" x2="517.708147789839" y2="441.8301128199291"></line><line style="stroke: #aaa; stroke-width: 1;" x1="496.9761470500362" y1="313.133110444024" x2="441.427238970536" y2="308.98684004609544"></line><line style="stroke: #aaa; stroke-width: 1.41421;" x1="496.9761470500362" y1="313.133110444024" x2="418.9144190413863" y2="434.987744881845"></line><line style="stroke: #aaa; stroke-width: 1.41421;" x1="517.708147789839" y1="441.8301128199291" x2="441.427238970536" y2="308.98684004609544"></line><line style="stroke: #aaa; stroke-width: 1;" x1="517.708147789839" y1="441.8301128199291" x2="514.3843844698317" y2="552.549275135512"></line><line style="stroke: #aaa; stroke-width: 1;" x1="517.708147789839" y1="441.8301128199291" x2="418.9144190413863" y2="434.987744881845"></line><line style="stroke: #aaa; stroke-width: 1.41421;" x1="517.708147789839" y1="441.8301128199291" x2="418.915500291653" y2="546.1309735520493"></line><line style="stroke: #aaa; stroke-width: 1.41421;" x1="514.3843844698317" y1="552.549275135512" x2="418.9144190413863" y2="434.987744881845"></line><line style="stroke: #aaa; stroke-width: 1;" x1="514.3843844698317" y1="552.549275135512" x2="510.8569135995675" y2="657.4986697776322"></line><line style="stroke: #aaa; stroke-width: 1;" x1="514.3843844698317" y1="552.549275135512" x2="418.915500291653" y2="546.1309735520493"></line><line style="stroke: #aaa; stroke-width: 1.41421;" x1="514.3843844698317" y1="552.549275135512" x2="392.20472620182386" y2="653.8159313690621"></line><line style="stroke: #aaa; stroke-width: 1.41421;" x1="510.8569135995675" y1="657.4986697776322" x2="418.915500291653" y2="546.1309735520493"></line><line style="stroke: #aaa; stroke-width: 1;" x1="510.8569135995675" y1="657.4986697776322" x2="496.21548748737354" y2="760.0812075858242"></line><line style="stroke: #aaa; stroke-width: 1;" x1="510.8569135995675" y1="657.4986697776322" x2="392.20472620182386" y2="653.8159313690621"></line><line style="stroke: #aaa; stroke-width: 1.41421;" x1="510.8569135995675" y1="657.4986697776322" x2="366.8583818236139" y2="691.6186031953791"></line><line style="stroke: #aaa; stroke-width: 1.41421;" x1="496.21548748737354" y1="760.0812075858242" x2="392.20472620182386" y2="653.8159313690621"></line><line style="stroke: #aaa; stroke-width: 1;" x1="496.21548748737354" y1="760.0812075858242" x2="499.11972570387974" y2="657.5765197968389"></line><line style="stroke: #aaa; stroke-width: 1;" x1="496.21548748737354" y1="760.0812075858242" x2="366.8583818236139" y2="691.6186031953791"></line><line style="stroke: #aaa; stroke-width: 1.41421;" x1="496.21548748737354" y1="760.0812075858242" x2="387.807281366928" y2="689.2322838566488"></line><line style="stroke: #aaa; stroke-width: 1.41421;" x1="499.11972570387974" y1="657.5765197968389" x2="366.8583818236139" y2="691.6186031953791"></line><line style="stroke: #aaa; stroke-width: 1;" x1="499.11972570387974" y1="657.5765197968389" x2="466.9563146438276" y2="559.4984705999516"></line><line style="stroke: #aaa; stroke-width: 1;" x1="499.11972570387974" y1="657.5765197968389" x2="387.807281366928" y2="689.2322838566488"></line><line style="stroke: #aaa; stroke-width: 1.41421;" x1="499.11972570387974" y1="657.5765197968389" x2="355.12227517819287" y2="587.9385963664299"></line><line style="stroke: #aaa; stroke-width: 1.41421;" x1="466.9563146438276" y1="559.4984705999516" x2="387.807281366928" y2="689.2322838566488"></line><line style="stroke: #aaa; stroke-width: 1;" x1="466.9563146438276" y1="559.4984705999516" x2="444.61000725575843" y2="462.3376460043534"></line><line style="stroke: #aaa; stroke-width: 1;" x1="466.9563146438276" y1="559.4984705999516" x2="355.12227517819287" y2="587.9385963664299"></line><line style="stroke: #aaa; stroke-width: 1.41421;" x1="466.9563146438276" y1="559.4984705999516" x2="324.1852181706953" y2="494.8035908890438"></line><line style="stroke: #aaa; stroke-width: 1.41421;" x1="444.61000725575843" y1="462.3376460043534" x2="355.12227517819287" y2="587.9385963664299"></line><line style="stroke: #aaa; stroke-width: 1;" x1="444.61000725575843" y1="462.3376460043534" x2="390.6297770632674" y2="388.56945467996417"></line><line style="stroke: #aaa; stroke-width: 1;" x1="444.61000725575843" y1="462.3376460043534" x2="324.1852181706953" y2="494.8035908890438"></line><line style="stroke: #aaa; stroke-width: 1.41421;" x1="444.61000725575843" y1="462.3376460043534" x2="325.16504716242935" y2="519.6273670133305"></line><line style="stroke: #aaa; stroke-width: 1.41421;" x1="390.6297770632674" y1="388.56945467996417" x2="324.1852181706953" y2="494.8035908890438"></line><line style="stroke: #aaa; stroke-width: 1;" x1="430.5772169187213" y1="535.522827184908" x2="442.4155017143507" y2="429.6763191964603"></line><line style="stroke: #aaa; stroke-width: 1;" x1="430.5772169187213" y1="535.522827184908" x2="334.8754314330834" y2="533.069470329639"></line><line style="stroke: #aaa; stroke-width: 1.41421;" x1="430.5772169187213" y1="535.522827184908" x2="333.09071974277623" y2="417.83446627495056"></line><line style="stroke: #aaa; stroke-width: 1.41421;" x1="442.4155017143507" y1="429.6763191964603" x2="334.8754314330834" y2="533.069470329639"></line><line style="stroke: #aaa; stroke-width: 1;" x1="442.4155017143507" y1="429.6763191964603" x2="441.427238970536" y2="308.98684004609544"></line><line style="stroke: #aaa; stroke-width: 1;" x1="442.4155017143507" y1="429.6763191964603" x2="333.09071974277623" y2="417.83446627495056"></line><line style="stroke: #aaa; stroke-width: 1.41421;" x1="442.4155017143507" y1="429.6763191964603" x2="326.5495881290102" y2="316.2732774687362"></line><line style="stroke: #aaa; stroke-width: 1.41421;" x1="441.427238970536" y1="308.98684004609544" x2="333.09071974277623" y2="417.83446627495056"></line><line style="stroke: #aaa; stroke-width: 1;" x1="441.427238970536" y1="308.98684004609544" x2="418.9144190413863" y2="434.987744881845"></line><line style="stroke: #aaa; stroke-width: 1;" x1="441.427238970536" y1="308.98684004609544" x2="326.5495881290102" y2="316.2732774687362"></line><line style="stroke: #aaa; stroke-width: 1.41421;" x1="441.427238970536" y1="308.98684004609544" x2="336.8579037971802" y2="420.50255943319723"></line><line style="stroke: #aaa; stroke-width: 1.41421;" x1="418.9144190413863" y1="434.987744881845" x2="326.5495881290102" y2="316.2732774687362"></line><line style="stroke: #aaa; stroke-width: 1;" x1="418.9144190413863" y1="434.987744881845" x2="418.915500291653" y2="546.1309735520493"></line><line style="stroke: #aaa; stroke-width: 1;" x1="418.9144190413863" y1="434.987744881845" x2="336.8579037971802" y2="420.50255943319723"></line><line style="stroke: #aaa; stroke-width: 1.41421;" x1="418.9144190413863" y1="434.987744881845" x2="300.5815248474156" y2="538.0053777973793"></line><line style="stroke: #aaa; stroke-width: 1.41421;" x1="418.915500291653" y1="546.1309735520493" x2="336.8579037971802" y2="420.50255943319723"></line><line style="stroke: #aaa; stroke-width: 1;" x1="418.915500291653" y1="546.1309735520493" x2="392.20472620182386" y2="653.8159313690621"></line><line style="stroke: #aaa; stroke-width: 1;" x1="418.915500291653" y1="546.1309735520493" x2="300.5815248474156" y2="538.0053777973793"></line><line style="stroke: #aaa; stroke-width: 1.41421;" x1="418.915500291653" y1="546.1309735520493" x2="294.4678114640982" y2="555.2221257949324"></line><line style="stroke: #aaa; stroke-width: 1.41421;" x1="392.20472620182386" y1="653.8159313690621" x2="300.5815248474156" y2="538.0053777973793"></line><line style="stroke: #aaa; stroke-width: 1;" x1="392.20472620182386" y1="653.8159313690621" x2="366.8583818236139" y2="691.6186031953791"></line><line style="stroke: #aaa; stroke-width: 1;" x1="392.20472620182386" y1="653.8159313690621" x2="294.4678114640982" y2="555.2221257949324"></line><line style="stroke: #aaa; stroke-width: 1.41421;" x1="392.20472620182386" y1="653.8159313690621" x2="395.10030360369336" y2="549.6017869083355"></line><line style="stroke: #aaa; stroke-width: 1.41421;" x1="366.8583818236139" y1="691.6186031953791" x2="294.4678114640982" y2="555.2221257949324"></line><line style="stroke: #aaa; stroke-width: 1;" x1="366.8583818236139" y1="691.6186031953791" x2="387.807281366928" y2="689.2322838566488"></line><line style="stroke: #aaa; stroke-width: 1;" x1="366.8583818236139" y1="691.6186031953791" x2="395.10030360369336" y2="549.6017869083355"></line><line style="stroke: #aaa; stroke-width: 1.41421;" x1="366.8583818236139" y1="691.6186031953791" x2="490.40852480473467" y2="609.4425016716698"></line><line style="stroke: #aaa; stroke-width: 1.41421;" x1="387.807281366928" y1="689.2322838566488" x2="395.10030360369336" y2="549.6017869083355"></line><line style="stroke: #aaa; stroke-width: 1;" x1="387.807281366928" y1="689.2322838566488" x2="355.12227517819287" y2="587.9385963664299"></line><line style="stroke: #aaa; stroke-width: 1;" x1="387.807281366928" y1="689.2322838566488" x2="490.40852480473467" y2="609.4425016716698"></line><line style="stroke: #aaa; stroke-width: 1.41421;" x1="387.807281366928" y1="689.2322838566488" x2="459.00371893183853" y2="564.9101281850645"></line><line style="stroke: #aaa; stroke-width: 1.41421;" x1="355.12227517819287" y1="587.9385963664299" x2="490.40852480473467" y2="609.4425016716698"></line><line style="stroke: #aaa; stroke-width: 1;" x1="355.12227517819287" y1="587.9385963664299" x2="324.1852181706953" y2="494.8035908890438"></line><line style="stroke: #aaa; stroke-width: 1;" x1="355.12227517819287" y1="587.9385963664299" x2="459.00371893183853" y2="564.9101281850645"></line><line style="stroke: #aaa; stroke-width: 1.41421;" x1="355.12227517819287" y1="587.9385963664299" x2="438.2412269345133" y2="456.0610963308626"></line><line style="stroke: #aaa; stroke-width: 1.41421;" x1="324.1852181706953" y1="494.8035908890438" x2="459.00371893183853" y2="564.9101281850645"></line><line style="stroke: #aaa; stroke-width: 1;" x1="324.1852181706953" y1="494.8035908890438" x2="325.16504716242935" y2="519.6273670133305"></line><line style="stroke: #aaa; stroke-width: 1;" x1="324.1852181706953" y1="494.8035908890438" x2="438.2412269345133" y2="456.0610963308626"></line><line style="stroke: #aaa; stroke-width: 1.41421;" x1="324.1852181706953" y1="494.8035908890438" x2="452.3888460498798" y2="560.7927271692583"></line><line style="stroke: #aaa; stroke-width: 1.41421;" x1="325.16504716242935" y1="519.6273670133305" x2="438.2412269345133" y2="456.0610963308626"></line><line style="stroke: #aaa; stroke-width: 1;" x1="334.8754314330834" y1="533.069470329639" x2="333.09071974277623" y2="417.83446627495056"></line><line style="stroke: #aaa; stroke-width: 1;" x1="334.8754314330834" y1="533.069470329639" x2="241.91472349869824" y2="533.9009517847743"></line><line style="stroke: #aaa; stroke-width: 1.41421;" x1="334.8754314330834" y1="533.069470329639" x2="223.9724565721521" y2="431.3854514931213"></line><line style="stroke: #aaa; stroke-width: 1.41421;" x1="333.09071974277623" y1="417.83446627495056" x2="241.91472349869824" y2="533.9009517847743"></line><line style="stroke: #aaa; stroke-width: 1;" x1="333.09071974277623" y1="417.83446627495056" x2="326.5495881290102" y2="316.2732774687362"></line><line style="stroke: #aaa; stroke-width: 1;" x1="333.09071974277623" y1="417.83446627495056" x2="223.9724565721521" y2="431.3854514931213"></line><line style="stroke: #aaa; stroke-width: 1.41421;" x1="333.09071974277623" y1="417.83446627495056" x2="202.35934498997" y2="330.4085703310618"></line><line style="stroke: #aaa; stroke-width: 1.41421;" x1="326.5495881290102" y1="316.2732774687362" x2="223.9724565721521" y2="431.3854514931213"></line><line style="stroke: #aaa; stroke-width: 1;" x1="326.5495881290102" y1="316.2732774687362" x2="336.8579037971802" y2="420.50255943319723"></line><line style="stroke: #aaa; stroke-width: 1;" x1="326.5495881290102" y1="316.2732774687362" x2="202.35934498997" y2="330.4085703310618"></line><line style="stroke: #aaa; stroke-width: 1.41421;" x1="326.5495881290102" y1="316.2732774687362" x2="230.36805190001283" y2="430.7333494572408"></line><line style="stroke: #aaa; stroke-width: 1.41421;" x1="336.8579037971802" y1="420.50255943319723" x2="202.35934498997" y2="330.4085703310618"></line><line style="stroke: #aaa; stroke-width: 1;" x1="336.8579037971802" y1="420.50255943319723" x2="300.5815248474156" y2="538.0053777973793"></line><line style="stroke: #aaa; stroke-width: 1;" x1="336.8579037971802" y1="420.50255943319723" x2="230.36805190001283" y2="430.7333494572408"></line><line style="stroke: #aaa; stroke-width: 1.41421;" x1="336.8579037971802" y1="420.50255943319723" x2="210.51305325157563" y2="426.6164890665681"></line><line style="stroke: #aaa; stroke-width: 1.41421;" x1="300.5815248474156" y1="538.0053777973793" x2="230.36805190001283" y2="430.7333494572408"></line><line style="stroke: #aaa; stroke-width: 1;" x1="300.5815248474156" y1="538.0053777973793" x2="294.4678114640982" y2="555.2221257949324"></line><line style="stroke: #aaa; stroke-width: 1;" x1="300.5815248474156" y1="538.0053777973793" x2="210.51305325157563" y2="426.6164890665681"></line><line style="stroke: #aaa; stroke-width: 1.41421;" x1="300.5815248474156" y1="538.0053777973793" x2="317.911479747898" y2="422.6392180853334"></line><line style="stroke: #aaa; stroke-width: 1.41421;" x1="294.4678114640982" y1="555.2221257949324" x2="210.51305325157563" y2="426.6164890665681"></line><line style="stroke: #aaa; stroke-width: 1;" x1="294.4678114640982" y1="555.2221257949324" x2="395.10030360369336" y2="549.6017869083355"></line><line style="stroke: #aaa; stroke-width: 1;" x1="294.4678114640982" y1="555.2221257949324" x2="317.911479747898" y2="422.6392180853334"></line><line style="stroke: #aaa; stroke-width: 1.41421;" x1="294.4678114640982" y1="555.2221257949324" x2="424.56903356143926" y2="462.1230178264024"></line><line style="stroke: #aaa; stroke-width: 1.41421;" x1="395.10030360369336" y1="549.6017869083355" x2="317.911479747898" y2="422.6392180853334"></line><line style="stroke: #aaa; stroke-width: 1;" x1="395.10030360369336" y1="549.6017869083355" x2="490.40852480473467" y2="609.4425016716698"></line><line style="stroke: #aaa; stroke-width: 1;" x1="395.10030360369336" y1="549.6017869083355" x2="424.56903356143926" y2="462.1230178264024"></line><line style="stroke: #aaa; stroke-width: 1.41421;" x1="395.10030360369336" y1="549.6017869083355" x2="529.6700194909587" y2="479.93812972157804"></line><line style="stroke: #aaa; stroke-width: 1.41421;" x1="490.40852480473467" y1="609.4425016716698" x2="424.56903356143926" y2="462.1230178264024"></line><line style="stroke: #aaa; stroke-width: 1;" x1="490.40852480473467" y1="609.4425016716698" x2="459.00371893183853" y2="564.9101281850645"></line><line style="stroke: #aaa; stroke-width: 1;" x1="490.40852480473467" y1="609.4425016716698" x2="529.6700194909587" y2="479.93812972157804"></line><line style="stroke: #aaa; stroke-width: 1.41421;" x1="490.40852480473467" y1="609.4425016716698" x2="585.7717708318512" y2="515.7662223107455"></line><line style="stroke: #aaa; stroke-width: 1.41421;" x1="459.00371893183853" y1="564.9101281850645" x2="529.6700194909587" y2="479.93812972157804"></line><line style="stroke: #aaa; stroke-width: 1;" x1="459.00371893183853" y1="564.9101281850645" x2="438.2412269345133" y2="456.0610963308626"></line><line style="stroke: #aaa; stroke-width: 1;" x1="459.00371893183853" y1="564.9101281850645" x2="585.7717708318512" y2="515.7662223107455"></line><line style="stroke: #aaa; stroke-width: 1.41421;" x1="459.00371893183853" y1="564.9101281850645" x2="510.6906173085404" y2="425.5749206846021"></line><line style="stroke: #aaa; stroke-width: 1.41421;" x1="438.2412269345133" y1="456.0610963308626" x2="585.7717708318512" y2="515.7662223107455"></line><line style="stroke: #aaa; stroke-width: 1;" x1="438.2412269345133" y1="456.0610963308626" x2="452.3888460498798" y2="560.7927271692583"></line><line style="stroke: #aaa; stroke-width: 1;" x1="438.2412269345133" y1="456.0610963308626" x2="510.6906173085404" y2="425.5749206846021"></line><line style="stroke: #aaa; stroke-width: 1.41421;" x1="438.2412269345133" y1="456.0610963308626" x2="572.1015237092575" y2="516.8788288352373"></line><line style="stroke: #aaa; stroke-width: 1.41421;" x1="452.3888460498798" y1="560.7927271692583" x2="510.6906173085404" y2="425.5749206846021"></line><line style="stroke: #aaa; stroke-width: 1;" x1="241.91472349869824" y1="533.9009517847743" x2="223.9724565721521" y2="431.3854514931213"></line><line style="stroke: #aaa; stroke-width: 1;" x1="241.91472349869824" y1="533.9009517847743" x2="356.82502809828" y2="505.9115992545064"></line><line style="stroke: #aaa; stroke-width: 1.41421;" x1="241.91472349869824" y1="533.9009517847743" x2="333.23160665253454" y2="404.73660384982"></line><line style="stroke: #aaa; stroke-width: 1.41421;" x1="223.9724565721521" y1="431.3854514931213" x2="356.82502809828" y2="505.9115992545064"></line><line style="stroke: #aaa; stroke-width: 1;" x1="223.9724565721521" y1="431.3854514931213" x2="202.35934498997" y2="330.4085703310618"></line><line style="stroke: #aaa; stroke-width: 1;" x1="223.9724565721521" y1="431.3854514931213" x2="333.23160665253454" y2="404.73660384982"></line><line style="stroke: #aaa; stroke-width: 1.41421;" x1="223.9724565721521" y1="431.3854514931213" x2="300.31791603238054" y2="303.36682553457865"></line><line style="stroke: #aaa; stroke-width: 1.41421;" x1="202.35934498997" y1="330.4085703310618" x2="333.23160665253454" y2="404.73660384982"></line><line style="stroke: #aaa; stroke-width: 1;" x1="202.35934498997" y1="330.4085703310618" x2="230.36805190001283" y2="430.7333494572408"></line><line style="stroke: #aaa; stroke-width: 1;" x1="202.35934498997" y1="330.4085703310618" x2="300.31791603238054" y2="303.36682553457865"></line><line style="stroke: #aaa; stroke-width: 1.41421;" x1="202.35934498997" y1="330.4085703310618" x2="333.28274979015214" y2="349.37251063466545"></line><line style="stroke: #aaa; stroke-width: 1.41421;" x1="230.36805190001283" y1="430.7333494572408" x2="300.31791603238054" y2="303.36682553457865"></line><line style="stroke: #aaa; stroke-width: 1;" x1="230.36805190001283" y1="430.7333494572408" x2="210.51305325157563" y2="426.6164890665681"></line><line style="stroke: #aaa; stroke-width: 1;" x1="230.36805190001283" y1="430.7333494572408" x2="333.28274979015214" y2="349.37251063466545"></line><line style="stroke: #aaa; stroke-width: 1.41421;" x1="230.36805190001283" y1="430.7333494572408" x2="239.5435416637027" y2="294.7662365377228"></line><line style="stroke: #aaa; stroke-width: 1.41421;" x1="210.51305325157563" y1="426.6164890665681" x2="333.28274979015214" y2="349.37251063466545"></line><line style="stroke: #aaa; stroke-width: 1;" x1="210.51305325157563" y1="426.6164890665681" x2="317.911479747898" y2="422.6392180853334"></line><line style="stroke: #aaa; stroke-width: 1;" x1="210.51305325157563" y1="426.6164890665681" x2="239.5435416637027" y2="294.7662365377228"></line><line style="stroke: #aaa; stroke-width: 1.41421;" x1="210.51305325157563" y1="426.6164890665681" x2="343.5190541905562" y2="331.0765667458635"></line><line style="stroke: #aaa; stroke-width: 1.41421;" x1="317.911479747898" y1="422.6392180853334" x2="239.5435416637027" y2="294.7662365377228"></line><line style="stroke: #aaa; stroke-width: 1;" x1="317.911479747898" y1="422.6392180853334" x2="424.56903356143926" y2="462.1230178264024"></line><line style="stroke: #aaa; stroke-width: 1;" x1="317.911479747898" y1="422.6392180853334" x2="343.5190541905562" y2="331.0765667458635"></line><line style="stroke: #aaa; stroke-width: 1.41421;" x1="317.911479747898" y1="422.6392180853334" x2="452.4351235612969" y2="353.46450226920285"></line><line style="stroke: #aaa; stroke-width: 1.41421;" x1="424.56903356143926" y1="462.1230178264024" x2="343.5190541905562" y2="331.0765667458635"></line><line style="stroke: #aaa; stroke-width: 1;" x1="424.56903356143926" y1="462.1230178264024" x2="529.6700194909587" y2="479.93812972157804"></line><line style="stroke: #aaa; stroke-width: 1;" x1="424.56903356143926" y1="462.1230178264024" x2="452.4351235612969" y2="353.46450226920285"></line><line style="stroke: #aaa; stroke-width: 1.41421;" x1="424.56903356143926" y1="462.1230178264024" x2="557.6960264052698" y2="377.90356954857805"></line><line style="stroke: #aaa; stroke-width: 1.41421;" x1="529.6700194909587" y1="479.93812972157804" x2="452.4351235612969" y2="353.46450226920285"></line><line style="stroke: #aaa; stroke-width: 1;" x1="529.6700194909587" y1="479.93812972157804" x2="585.7717708318512" y2="515.7662223107455"></line><line style="stroke: #aaa; stroke-width: 1;" x1="529.6700194909587" y1="479.93812972157804" x2="557.6960264052698" y2="377.90356954857805"></line><line style="stroke: #aaa; stroke-width: 1.41421;" x1="529.6700194909587" y1="479.93812972157804" x2="660.975970635519" y2="418.3814707849023"></line><line style="stroke: #aaa; stroke-width: 1.41421;" x1="585.7717708318512" y1="515.7662223107455" x2="557.6960264052698" y2="377.90356954857805"></line><line style="stroke: #aaa; stroke-width: 1;" x1="585.7717708318512" y1="515.7662223107455" x2="510.6906173085404" y2="425.5749206846021"></line><line style="stroke: #aaa; stroke-width: 1;" x1="585.7717708318512" y1="515.7662223107455" x2="660.975970635519" y2="418.3814707849023"></line><line style="stroke: #aaa; stroke-width: 1.41421;" x1="585.7717708318512" y1="515.7662223107455" x2="559.6790393944998" y2="366.6067748865399"></line><line style="stroke: #aaa; stroke-width: 1.41421;" x1="510.6906173085404" y1="425.5749206846021" x2="660.975970635519" y2="418.3814707849023"></line><line style="stroke: #aaa; stroke-width: 1;" x1="510.6906173085404" y1="425.5749206846021" x2="572.1015237092575" y2="516.8788288352373"></line><line style="stroke: #aaa; stroke-width: 1;" x1="510.6906173085404" y1="425.5749206846021" x2="559.6790393944998" y2="366.6067748865399"></line><line style="stroke: #aaa; stroke-width: 1.41421;" x1="510.6906173085404" y1="425.5749206846021" x2="655.4561880237306" y2="423.70576334846135"></line><line style="stroke: #aaa; stroke-width: 1.41421;" x1="572.1015237092575" y1="516.8788288352373" x2="559.6790393944998" y2="366.6067748865399"></line><line style="stroke: #aaa; stroke-width: 1;" x1="356.82502809828" y1="505.9115992545064" x2="333.23160665253454" y2="404.73660384982"></line><line style="stroke: #aaa; stroke-width: 1;" x1="356.82502809828" y1="505.9115992545064" x2="466.79012647782724" y2="477.1735890395368"></line><line style="stroke: #aaa; stroke-width: 1.41421;" x1="356.82502809828" y1="505.9115992545064" x2="440.2406749277981" y2="373.8801291809529"></line><line style="stroke: #aaa; stroke-width: 1.41421;" x1="333.23160665253454" y1="404.73660384982" x2="466.79012647782724" y2="477.1735890395368"></line><line style="stroke: #aaa; stroke-width: 1;" x1="333.23160665253454" y1="404.73660384982" x2="300.31791603238054" y2="303.36682553457865"></line><line style="stroke: #aaa; stroke-width: 1;" x1="333.23160665253454" y1="404.73660384982" x2="440.2406749277981" y2="373.8801291809529"></line><line style="stroke: #aaa; stroke-width: 1.41421;" x1="333.23160665253454" y1="404.73660384982" x2="423.1372419582011" y2="275.2269629671784"></line><line style="stroke: #aaa; stroke-width: 1.41421;" x1="300.31791603238054" y1="303.36682553457865" x2="440.2406749277981" y2="373.8801291809529"></line><line style="stroke: #aaa; stroke-width: 1;" x1="300.31791603238054" y1="303.36682553457865" x2="333.28274979015214" y2="349.37251063466545"></line><line style="stroke: #aaa; stroke-width: 1;" x1="300.31791603238054" y1="303.36682553457865" x2="423.1372419582011" y2="275.2269629671784"></line><line style="stroke: #aaa; stroke-width: 1.41421;" x1="300.31791603238054" y1="303.36682553457865" x2="371.6383730028881" y2="216.60049225341095"></line><line style="stroke: #aaa; stroke-width: 1.41421;" x1="333.28274979015214" y1="349.37251063466545" x2="423.1372419582011" y2="275.2269629671784"></line><line style="stroke: #aaa; stroke-width: 1;" x1="333.28274979015214" y1="349.37251063466545" x2="239.5435416637027" y2="294.7662365377228"></line><line style="stroke: #aaa; stroke-width: 1;" x1="333.28274979015214" y1="349.37251063466545" x2="371.6383730028881" y2="216.60049225341095"></line><line style="stroke: #aaa; stroke-width: 1.41421;" x1="333.28274979015214" y1="349.37251063466545" x2="283.07251490275866" y2="193.9980366771472"></line><line style="stroke: #aaa; stroke-width: 1.41421;" x1="239.5435416637027" y1="294.7662365377228" x2="371.6383730028881" y2="216.60049225341095"></line><line style="stroke: #aaa; stroke-width: 1;" x1="239.5435416637027" y1="294.7662365377228" x2="343.5190541905562" y2="331.0765667458635"></line><line style="stroke: #aaa; stroke-width: 1;" x1="239.5435416637027" y1="294.7662365377228" x2="283.07251490275866" y2="193.9980366771472"></line><line style="stroke: #aaa; stroke-width: 1.41421;" x1="239.5435416637027" y1="294.7662365377228" x2="377.71900012804275" y2="222.7711875257864"></line><line style="stroke: #aaa; stroke-width: 1.41421;" x1="343.5190541905562" y1="331.0765667458635" x2="283.07251490275866" y2="193.9980366771472"></line><line style="stroke: #aaa; stroke-width: 1;" x1="343.5190541905562" y1="331.0765667458635" x2="452.4351235612969" y2="353.46450226920285"></line><line style="stroke: #aaa; stroke-width: 1;" x1="343.5190541905562" y1="331.0765667458635" x2="377.71900012804275" y2="222.7711875257864"></line><line style="stroke: #aaa; stroke-width: 1.41421;" x1="343.5190541905562" y1="331.0765667458635" x2="482.0939265034358" y2="254.46371409466627"></line><line style="stroke: #aaa; stroke-width: 1.41421;" x1="452.4351235612969" y1="353.46450226920285" x2="377.71900012804275" y2="222.7711875257864"></line><line style="stroke: #aaa; stroke-width: 1;" x1="452.4351235612969" y1="353.46450226920285" x2="557.6960264052698" y2="377.90356954857805"></line><line style="stroke: #aaa; stroke-width: 1;" x1="452.4351235612969" y1="353.46450226920285" x2="482.0939265034358" y2="254.46371409466627"></line><line style="stroke: #aaa; stroke-width: 1.41421;" x1="452.4351235612969" y1="353.46450226920285" x2="590.7520095605286" y2="282.00748339000415"></line><line style="stroke: #aaa; stroke-width: 1.41421;" x1="557.6960264052698" y1="377.90356954857805" x2="482.0939265034358" y2="254.46371409466627"></line><line style="stroke: #aaa; stroke-width: 1;" x1="557.6960264052698" y1="377.90356954857805" x2="660.975970635519" y2="418.3814707849023"></line><line style="stroke: #aaa; stroke-width: 1;" x1="557.6960264052698" y1="377.90356954857805" x2="590.7520095605286" y2="282.00748339000415"></line><line style="stroke: #aaa; stroke-width: 1.41421;" x1="557.6960264052698" y1="377.90356954857805" x2="697.8941797436298" y2="312.5954046863663"></line><line style="stroke: #aaa; stroke-width: 1.41421;" x1="660.975970635519" y1="418.3814707849023" x2="590.7520095605286" y2="282.00748339000415"></line><line style="stroke: #aaa; stroke-width: 1;" x1="660.975970635519" y1="418.3814707849023" x2="559.6790393944998" y2="366.6067748865399"></line><line style="stroke: #aaa; stroke-width: 1;" x1="660.975970635519" y1="418.3814707849023" x2="697.8941797436298" y2="312.5954046863663"></line><line style="stroke: #aaa; stroke-width: 1.41421;" x1="660.975970635519" y1="418.3814707849023" x2="594.9159043378054" y2="280.878658111511"></line><line style="stroke: #aaa; stroke-width: 1.41421;" x1="559.6790393944998" y1="366.6067748865399" x2="697.8941797436298" y2="312.5954046863663"></line><line style="stroke: #aaa; stroke-width: 1;" x1="559.6790393944998" y1="366.6067748865399" x2="655.4561880237306" y2="423.70576334846135"></line><line style="stroke: #aaa; stroke-width: 1;" x1="559.6790393944998" y1="366.6067748865399" x2="594.9159043378054" y2="280.878658111511"></line><line style="stroke: #aaa; stroke-width: 1.41421;" x1="559.6790393944998" y1="366.6067748865399" x2="699.4749676336269" y2="315.07049467199704"></line><line style="stroke: #aaa; stroke-width: 1.41421;" x1="655.4561880237306" y1="423.70576334846135" x2="594.9159043378054" y2="280.878658111511"></line><line style="stroke: #aaa; stroke-width: 1;" x1="466.79012647782724" y1="477.1735890395368" x2="440.2406749277981" y2="373.8801291809529"></line><line style="stroke: #aaa; stroke-width: 1;" x1="466.79012647782724" y1="477.1735890395368" x2="573.5968928281809" y2="452.4102548051615"></line><line style="stroke: #aaa; stroke-width: 1.41421;" x1="466.79012647782724" y1="477.1735890395368" x2="549.8374994664883" y2="346.38004239639207"></line><line style="stroke: #aaa; stroke-width: 1.41421;" x1="440.2406749277981" y1="373.8801291809529" x2="573.5968928281809" y2="452.4102548051615"></line><line style="stroke: #aaa; stroke-width: 1;" x1="440.2406749277981" y1="373.8801291809529" x2="423.1372419582011" y2="275.2269629671784"></line><line style="stroke: #aaa; stroke-width: 1;" x1="440.2406749277981" y1="373.8801291809529" x2="549.8374994664883" y2="346.38004239639207"></line><line style="stroke: #aaa; stroke-width: 1.41421;" x1="440.2406749277981" y1="373.8801291809529" x2="510.935412368934" y2="232.67652121953648"></line><line style="stroke: #aaa; stroke-width: 1.41421;" x1="423.1372419582011" y1="275.2269629671784" x2="549.8374994664883" y2="346.38004239639207"></line><line style="stroke: #aaa; stroke-width: 1;" x1="423.1372419582011" y1="275.2269629671784" x2="371.6383730028881" y2="216.60049225341095"></line><line style="stroke: #aaa; stroke-width: 1;" x1="423.1372419582011" y1="275.2269629671784" x2="510.935412368934" y2="232.67652121953648"></line><line style="stroke: #aaa; stroke-width: 1.41421;" x1="423.1372419582011" y1="275.2269629671784" x2="430.8274182304486" y2="129.98369588413553"></line><line style="stroke: #aaa; stroke-width: 1.41421;" x1="371.6383730028881" y1="216.60049225341095" x2="510.935412368934" y2="232.67652121953648"></line><line style="stroke: #aaa; stroke-width: 1;" x1="371.6383730028881" y1="216.60049225341095" x2="283.07251490275866" y2="193.9980366771472"></line><line style="stroke: #aaa; stroke-width: 1;" x1="371.6383730028881" y1="216.60049225341095" x2="430.8274182304486" y2="129.98369588413553"></line><line style="stroke: #aaa; stroke-width: 1.41421;" x1="371.6383730028881" y1="216.60049225341095" x2="307.49298467754556" y2="83.02175304812988"></line><line style="stroke: #aaa; stroke-width: 1.41421;" x1="283.07251490275866" y1="193.9980366771472" x2="430.8274182304486" y2="129.98369588413553"></line><line style="stroke: #aaa; stroke-width: 1;" x1="283.07251490275866" y1="193.9980366771472" x2="377.71900012804275" y2="222.7711875257864"></line><line style="stroke: #aaa; stroke-width: 1;" x1="283.07251490275866" y1="193.9980366771472" x2="307.49298467754556" y2="83.02175304812988"></line><line style="stroke: #aaa; stroke-width: 1.41421;" x1="283.07251490275866" y1="193.9980366771472" x2="419.0842834582936" y2="125.33431973708547"></line><line style="stroke: #aaa; stroke-width: 1.41421;" x1="377.71900012804275" y1="222.7711875257864" x2="307.49298467754556" y2="83.02175304812988"></line><line style="stroke: #aaa; stroke-width: 1;" x1="377.71900012804275" y1="222.7711875257864" x2="482.0939265034358" y2="254.46371409466627"></line><line style="stroke: #aaa; stroke-width: 1;" x1="377.71900012804275" y1="222.7711875257864" x2="419.0842834582936" y2="125.33431973708547"></line><line style="stroke: #aaa; stroke-width: 1.41421;" x1="377.71900012804275" y1="222.7711875257864" x2="515.3553472093784" y2="150.2766008906088"></line><line style="stroke: #aaa; stroke-width: 1.41421;" x1="482.0939265034358" y1="254.46371409466627" x2="419.0842834582936" y2="125.33431973708547"></line><line style="stroke: #aaa; stroke-width: 1;" x1="482.0939265034358" y1="254.46371409466627" x2="590.7520095605286" y2="282.00748339000415"></line><line style="stroke: #aaa; stroke-width: 1;" x1="482.0939265034358" y1="254.46371409466627" x2="515.3553472093784" y2="150.2766008906088"></line><line style="stroke: #aaa; stroke-width: 1.41421;" x1="482.0939265034358" y1="254.46371409466627" x2="619.1586165687377" y2="179.85420193771432"></line><line style="stroke: #aaa; stroke-width: 1.41421;" x1="590.7520095605286" y1="282.00748339000415" x2="515.3553472093784" y2="150.2766008906088"></line><line style="stroke: #aaa; stroke-width: 1;" x1="590.7520095605286" y1="282.00748339000415" x2="697.8941797436298" y2="312.5954046863663"></line><line style="stroke: #aaa; stroke-width: 1;" x1="590.7520095605286" y1="282.00748339000415" x2="619.1586165687377" y2="179.85420193771432"></line><line style="stroke: #aaa; stroke-width: 1.41421;" x1="590.7520095605286" y1="282.00748339000415" x2="726.2445617379676" y2="207.77857132695016"></line><line style="stroke: #aaa; stroke-width: 1.41421;" x1="697.8941797436298" y1="312.5954046863663" x2="619.1586165687377" y2="179.85420193771432"></line><line style="stroke: #aaa; stroke-width: 1;" x1="697.8941797436298" y1="312.5954046863663" x2="594.9159043378054" y2="280.878658111511"></line><line style="stroke: #aaa; stroke-width: 1;" x1="697.8941797436298" y1="312.5954046863663" x2="726.2445617379676" y2="207.77857132695016"></line><line style="stroke: #aaa; stroke-width: 1.41421;" x1="697.8941797436298" y1="312.5954046863663" x2="622.518061147548" y2="180.5570146111056"></line><line style="stroke: #aaa; stroke-width: 1.41421;" x1="594.9159043378054" y1="280.878658111511" x2="726.2445617379676" y2="207.77857132695016"></line><line style="stroke: #aaa; stroke-width: 1;" x1="594.9159043378054" y1="280.878658111511" x2="699.4749676336269" y2="315.07049467199704"></line><line style="stroke: #aaa; stroke-width: 1;" x1="594.9159043378054" y1="280.878658111511" x2="622.518061147548" y2="180.5570146111056"></line><line style="stroke: #aaa; stroke-width: 1.41421;" x1="594.9159043378054" y1="280.878658111511" x2="727.9410434065074" y2="208.01212138456944"></line><line style="stroke: #aaa; stroke-width: 1.41421;" x1="699.4749676336269" y1="315.07049467199704" x2="622.518061147548" y2="180.5570146111056"></line><line style="stroke: #aaa; stroke-width: 1;" x1="573.5968928281809" y1="452.4102548051615" x2="549.8374994664883" y2="346.38004239639207"></line><line style="stroke: #aaa; stroke-width: 1;" x1="573.5968928281809" y1="452.4102548051615" x2="469.5662365377228" y2="477.44779410718604"></line><line style="stroke: #aaa; stroke-width: 1.41421;" x1="573.5968928281809" y1="452.4102548051615" x2="445.47089871814933" y2="373.2049965143906"></line><line style="stroke: #aaa; stroke-width: 1.41421;" x1="549.8374994664883" y1="346.38004239639207" x2="469.5662365377228" y2="477.44779410718604"></line><line style="stroke: #aaa; stroke-width: 1;" x1="549.8374994664883" y1="346.38004239639207" x2="510.935412368934" y2="232.67652121953648"></line><line style="stroke: #aaa; stroke-width: 1;" x1="549.8374994664883" y1="346.38004239639207" x2="445.47089871814933" y2="373.2049965143906"></line><line style="stroke: #aaa; stroke-width: 1.41421;" x1="549.8374994664883" y1="346.38004239639207" x2="412.2577774616227" y2="279.5227702769993"></line><line style="stroke: #aaa; stroke-width: 1.41421;" x1="510.935412368934" y1="232.67652121953648" x2="445.47089871814933" y2="373.2049965143906"></line><line style="stroke: #aaa; stroke-width: 1;" x1="510.935412368934" y1="232.67652121953648" x2="430.8274182304486" y2="129.98369588413553"></line><line style="stroke: #aaa; stroke-width: 1;" x1="510.935412368934" y1="232.67652121953648" x2="412.2577774616227" y2="279.5227702769993"></line><line style="stroke: #aaa; stroke-width: 1.41421;" x1="510.935412368934" y1="232.67652121953648" x2="359.2805474540824" y2="190.06877320775655"></line><line style="stroke: #aaa; stroke-width: 1.41421;" x1="430.8274182304486" y1="129.98369588413553" x2="412.2577774616227" y2="279.5227702769993"></line><line style="stroke: #aaa; stroke-width: 1;" x1="430.8274182304486" y1="129.98369588413553" x2="307.49298467754556" y2="83.02175304812988"></line><line style="stroke: #aaa; stroke-width: 1;" x1="430.8274182304486" y1="129.98369588413553" x2="359.2805474540824" y2="190.06877320775655"></line><line style="stroke: #aaa; stroke-width: 1.41421;" x1="430.8274182304486" y1="129.98369588413553" x2="308.6028880763704" y2="56.84144033917116"></line><line style="stroke: #aaa; stroke-width: 1.41421;" x1="307.49298467754556" y1="83.02175304812988" x2="359.2805474540824" y2="190.06877320775655"></line><line style="stroke: #aaa; stroke-width: 1;" x1="307.49298467754556" y1="83.02175304812988" x2="419.0842834582936" y2="125.33431973708547"></line><line style="stroke: #aaa; stroke-width: 1;" x1="307.49298467754556" y1="83.02175304812988" x2="308.6028880763704" y2="56.84144033917116"></line><line style="stroke: #aaa; stroke-width: 1.41421;" x1="307.49298467754556" y1="83.02175304812988" x2="433.1543769295338" y2="20"></line><line style="stroke: #aaa; stroke-width: 1.41421;" x1="419.0842834582936" y1="125.33431973708547" x2="308.6028880763704" y2="56.84144033917116"></line><line style="stroke: #aaa; stroke-width: 1;" x1="419.0842834582936" y1="125.33431973708547" x2="515.3553472093784" y2="150.2766008906088"></line><line style="stroke: #aaa; stroke-width: 1;" x1="419.0842834582936" y1="125.33431973708547" x2="433.1543769295338" y2="20"></line><line style="stroke: #aaa; stroke-width: 1.41421;" x1="419.0842834582936" y1="125.33431973708547" x2="544.941598258618" y2="44.32056225013872"></line><line style="stroke: #aaa; stroke-width: 1.41421;" x1="515.3553472093784" y1="150.2766008906088" x2="433.1543769295338" y2="20"></line><line style="stroke: #aaa; stroke-width: 1;" x1="515.3553472093784" y1="150.2766008906088" x2="619.1586165687377" y2="179.85420193771432"></line><line style="stroke: #aaa; stroke-width: 1;" x1="515.3553472093784" y1="150.2766008906088" x2="544.941598258618" y2="44.32056225013872"></line><line style="stroke: #aaa; stroke-width: 1.41421;" x1="515.3553472093784" y1="150.2766008906088" x2="648.7654113730456" y2="75.82062627153607"></line><line style="stroke: #aaa; stroke-width: 1.41421;" x1="619.1586165687377" y1="179.85420193771432" x2="544.941598258618" y2="44.32056225013872"></line><line style="stroke: #aaa; stroke-width: 1;" x1="619.1586165687377" y1="179.85420193771432" x2="726.2445617379676" y2="207.77857132695016"></line><line style="stroke: #aaa; stroke-width: 1;" x1="619.1586165687377" y1="179.85420193771432" x2="648.7654113730456" y2="75.82062627153607"></line><line style="stroke: #aaa; stroke-width: 1.41421;" x1="619.1586165687377" y1="179.85420193771432" x2="753.3050121640655" y2="103.53955811008834"></line><line style="stroke: #aaa; stroke-width: 1.41421;" x1="726.2445617379676" y1="207.77857132695016" x2="648.7654113730456" y2="75.82062627153607"></line><line style="stroke: #aaa; stroke-width: 1;" x1="726.2445617379676" y1="207.77857132695016" x2="622.518061147548" y2="180.5570146111056"></line><line style="stroke: #aaa; stroke-width: 1;" x1="726.2445617379676" y1="207.77857132695016" x2="753.3050121640655" y2="103.53955811008834"></line><line style="stroke: #aaa; stroke-width: 1.41421;" x1="726.2445617379676" y1="207.77857132695016" x2="649.2433239909516" y2="76.14392010129608"></line><line style="stroke: #aaa; stroke-width: 1.41421;" x1="622.518061147548" y1="180.5570146111056" x2="753.3050121640655" y2="103.53955811008834"></line><line style="stroke: #aaa; stroke-width: 1;" x1="622.518061147548" y1="180.5570146111056" x2="727.9410434065074" y2="208.01212138456944"></line><line style="stroke: #aaa; stroke-width: 1;" x1="622.518061147548" y1="180.5570146111056" x2="649.2433239909516" y2="76.14392010129608"></line><line style="stroke: #aaa; stroke-width: 1.41421;" x1="622.518061147548" y1="180.5570146111056" x2="754.1505498726686" y2="102.95460171577344"></line><line style="stroke: #aaa; stroke-width: 1.41421;" x1="727.9410434065074" y1="208.01212138456944" x2="649.2433239909516" y2="76.14392010129608"></line><line style="stroke: #aaa; stroke-width: 1;" x1="298.80632815945603" y1="392.21488995433134" x2="399.24131912532545" y2="357.97104525601446"></line><line style="stroke: #aaa; stroke-width: 1;" x1="399.24131912532545" y1="357.97104525601446" x2="491.35278066269257" y2="319.9952652619898"></line><line style="stroke: #aaa; stroke-width: 1;" x1="491.35278066269257" y1="319.9952652619898" x2="390.6297770632674" y2="388.56945467996417"></line><line style="stroke: #aaa; stroke-width: 1;" x1="390.6297770632674" y1="388.56945467996417" x2="325.16504716242935" y2="519.6273670133305"></line><line style="stroke: #aaa; stroke-width: 1;" x1="325.16504716242935" y1="519.6273670133305" x2="452.3888460498798" y2="560.7927271692583"></line><line style="stroke: #aaa; stroke-width: 1;" x1="452.3888460498798" y1="560.7927271692583" x2="572.1015237092575" y2="516.8788288352373"></line><line style="stroke: #aaa; stroke-width: 1;" x1="572.1015237092575" y1="516.8788288352373" x2="655.4561880237306" y2="423.70576334846135"></line><line style="stroke: #aaa; stroke-width: 1;" x1="655.4561880237306" y1="423.70576334846135" x2="699.4749676336269" y2="315.07049467199704"></line><line style="stroke: #aaa; stroke-width: 1;" x1="699.4749676336269" y1="315.07049467199704" x2="727.9410434065074" y2="208.01212138456944"></line><line style="stroke: #aaa; stroke-width: 1;" x1="727.9410434065074" y1="208.01212138456944" x2="754.1505498726686" y2="102.95460171577344"></line><line style="stroke: #aaa; stroke-width: 1;" x1="469.5662365377228" y1="477.44779410718604" x2="445.47089871814933" y2="373.2049965143906"></line><line style="stroke: #aaa; stroke-width: 1;" x1="445.47089871814933" y1="373.2049965143906" x2="412.2577774616227" y2="279.5227702769993"></line><line style="stroke: #aaa; stroke-width: 1;" x1="412.2577774616227" y1="279.5227702769993" x2="359.2805474540824" y2="190.06877320775655"></line><line style="stroke: #aaa; stroke-width: 1;" x1="359.2805474540824" y1="190.06877320775655" x2="308.6028880763704" y2="56.84144033917116"></line><line style="stroke: #aaa; stroke-width: 1;" x1="308.6028880763704" y1="56.84144033917116" x2="433.1543769295338" y2="20"></line><line style="stroke: #aaa; stroke-width: 1;" x1="433.1543769295338" y1="20" x2="544.941598258618" y2="44.32056225013872"></line><line style="stroke: #aaa; stroke-width: 1;" x1="544.941598258618" y1="44.32056225013872" x2="648.7654113730456" y2="75.82062627153607"></line><line style="stroke: #aaa; stroke-width: 1;" x1="648.7654113730456" y1="75.82062627153607" x2="753.3050121640655" y2="103.53955811008834"></line><line style="stroke: #aaa; stroke-width: 1;" x1="753.3050121640655" y1="103.53955811008834" x2="649.2433239909516" y2="76.14392010129608"></line><line style="stroke: #aaa; stroke-width: 1;" x1="649.2433239909516" y1="76.14392010129608" x2="754.1505498726686" y2="102.95460171577344"></line><circle r="10" cx="427.71958058871235" cy="552.4595313633712" style="stroke: #000; fill: #69b3a2;"></circle><circle r="10" cx="432.43912987807477" cy="446.2129607762239" style="stroke: #000; fill: #69b3a2;"></circle><circle r="10" cx="424.85664613239624" cy="336.81054503549626" style="stroke: #000; fill: #69b3a2;"></circle><circle r="10" cx="412.87601473914833" cy="438.72789767958" style="stroke: #000; fill: #69b3a2;"></circle><circle r="10" cx="400.16006828949054" cy="551.9502624877292" style="stroke: #000; fill: #69b3a2;"></circle><circle r="10" cx="402.19498129152504" cy="664.2521589437893" style="stroke: #000; fill: #69b3a2;"></circle><circle r="10" cx="406.3809768242541" cy="780" style="stroke: #000; fill: #69b3a2;"></circle><circle r="10" cx="386.8645392593436" cy="684.5796639587986" style="stroke: #000; fill: #69b3a2;"></circle><circle r="10" cx="362.93517335571715" cy="589.8340280840529" style="stroke: #000; fill: #69b3a2;"></circle><circle r="10" cx="332.3717964404104" cy="492.91378167280794" style="stroke: #000; fill: #69b3a2;"></circle><circle r="10" cx="298.80632815945603" cy="392.21488995433134" style="stroke: #000; fill: #69b3a2;"></circle><circle r="10" cx="533.7463329966283" cy="561.5344648522528" style="stroke: #000; fill: #69b3a2;"></circle><circle r="10" cx="541.6189161888773" cy="448.6982145143622" style="stroke: #000; fill: #69b3a2;"></circle><circle r="10" cx="525.1666121299206" cy="326.5558593805574" style="stroke: #000; fill: #69b3a2;"></circle><circle r="10" cx="513.5907467740329" cy="452.57082046977473" style="stroke: #000; fill: #69b3a2;"></circle><circle r="10" cx="511.4197043634139" cy="554.0641067592369" style="stroke: #000; fill: #69b3a2;"></circle><circle r="10" cx="507.6556559347835" cy="659.7217203260823" style="stroke: #000; fill: #69b3a2;"></circle><circle r="10" cx="511.37494060237026" cy="770.3325413649362" style="stroke: #000; fill: #69b3a2;"></circle><circle r="10" cx="497.1048158317803" cy="662.0042396392039" style="stroke: #000; fill: #69b3a2;"></circle><circle r="10" cx="470.81302622031905" cy="559.1178705060536" style="stroke: #000; fill: #69b3a2;"></circle><circle r="10" cx="437.57452802003155" cy="459.59527095278065" style="stroke: #000; fill: #69b3a2;"></circle><circle r="10" cx="399.24131912532545" cy="357.97104525601446" style="stroke: #000; fill: #69b3a2;"></circle><circle r="10" cx="421.440868414688" cy="541.784347479691" style="stroke: #000; fill: #69b3a2;"></circle><circle r="10" cx="448.44758070252817" cy="440.19569491670103" style="stroke: #000; fill: #69b3a2;"></circle><circle r="10" cx="506.9978232724893" cy="315.0273527863535" style="stroke: #000; fill: #69b3a2;"></circle><circle r="10" cx="603.720525259998" cy="427.2284767175518" style="stroke: #000; fill: #69b3a2;"></circle><circle r="10" cx="621.5979171705387" cy="551.2085248047347" style="stroke: #000; fill: #69b3a2;"></circle><circle r="10" cx="617.8784162528988" cy="661.8334020970565" style="stroke: #000; fill: #69b3a2;"></circle><circle r="10" cx="613.5934214457455" cy="763.2503521176856" style="stroke: #000; fill: #69b3a2;"></circle><circle r="10" cx="598.8257053023945" cy="644.5582665850986" style="stroke: #000; fill: #69b3a2;"></circle><circle r="10" cx="576.2416309806656" cy="530.5425884562306" style="stroke: #000; fill: #69b3a2;"></circle><circle r="10" cx="539.4542531548321" cy="422.8494131371907" style="stroke: #000; fill: #69b3a2;"></circle><circle r="10" cx="491.35278066269257" cy="319.9952652619898" style="stroke: #000; fill: #69b3a2;"></circle><circle r="10" cx="316.8059013501402" cy="504.9014952553031" style="stroke: #000; fill: #69b3a2;"></circle><circle r="10" cx="370.9010684459873" cy="395.2644914567002" style="stroke: #000; fill: #69b3a2;"></circle><circle r="10" cx="496.9761470500362" cy="313.133110444024" style="stroke: #000; fill: #69b3a2;"></circle><circle r="10" cx="517.708147789839" cy="441.8301128199291" style="stroke: #000; fill: #69b3a2;"></circle><circle r="10" cx="514.3843844698317" cy="552.549275135512" style="stroke: #000; fill: #69b3a2;"></circle><circle r="10" cx="510.8569135995675" cy="657.4986697776322" style="stroke: #000; fill: #69b3a2;"></circle><circle r="10" cx="496.21548748737354" cy="760.0812075858242" style="stroke: #000; fill: #69b3a2;"></circle><circle r="10" cx="499.11972570387974" cy="657.5765197968389" style="stroke: #000; fill: #69b3a2;"></circle><circle r="10" cx="466.9563146438276" cy="559.4984705999516" style="stroke: #000; fill: #69b3a2;"></circle><circle r="10" cx="444.61000725575843" cy="462.3376460043534" style="stroke: #000; fill: #69b3a2;"></circle><circle r="10" cx="390.6297770632674" cy="388.56945467996417" style="stroke: #000; fill: #69b3a2;"></circle><circle r="10" cx="430.5772169187213" cy="535.522827184908" style="stroke: #000; fill: #69b3a2;"></circle><circle r="10" cx="442.4155017143507" cy="429.6763191964603" style="stroke: #000; fill: #69b3a2;"></circle><circle r="10" cx="441.427238970536" cy="308.98684004609544" style="stroke: #000; fill: #69b3a2;"></circle><circle r="10" cx="418.9144190413863" cy="434.987744881845" style="stroke: #000; fill: #69b3a2;"></circle><circle r="10" cx="418.915500291653" cy="546.1309735520493" style="stroke: #000; fill: #69b3a2;"></circle><circle r="10" cx="392.20472620182386" cy="653.8159313690621" style="stroke: #000; fill: #69b3a2;"></circle><circle r="10" cx="366.8583818236139" cy="691.6186031953791" style="stroke: #000; fill: #69b3a2;"></circle><circle r="10" cx="387.807281366928" cy="689.2322838566488" style="stroke: #000; fill: #69b3a2;"></circle><circle r="10" cx="355.12227517819287" cy="587.9385963664299" style="stroke: #000; fill: #69b3a2;"></circle><circle r="10" cx="324.1852181706953" cy="494.8035908890438" style="stroke: #000; fill: #69b3a2;"></circle><circle r="10" cx="325.16504716242935" cy="519.6273670133305" style="stroke: #000; fill: #69b3a2;"></circle><circle r="10" cx="334.8754314330834" cy="533.069470329639" style="stroke: #000; fill: #69b3a2;"></circle><circle r="10" cx="333.09071974277623" cy="417.83446627495056" style="stroke: #000; fill: #69b3a2;"></circle><circle r="10" cx="326.5495881290102" cy="316.2732774687362" style="stroke: #000; fill: #69b3a2;"></circle><circle r="10" cx="336.8579037971802" cy="420.50255943319723" style="stroke: #000; fill: #69b3a2;"></circle><circle r="10" cx="300.5815248474156" cy="538.0053777973793" style="stroke: #000; fill: #69b3a2;"></circle><circle r="10" cx="294.4678114640982" cy="555.2221257949324" style="stroke: #000; fill: #69b3a2;"></circle><circle r="10" cx="395.10030360369336" cy="549.6017869083355" style="stroke: #000; fill: #69b3a2;"></circle><circle r="10" cx="490.40852480473467" cy="609.4425016716698" style="stroke: #000; fill: #69b3a2;"></circle><circle r="10" cx="459.00371893183853" cy="564.9101281850645" style="stroke: #000; fill: #69b3a2;"></circle><circle r="10" cx="438.2412269345133" cy="456.0610963308626" style="stroke: #000; fill: #69b3a2;"></circle><circle r="10" cx="452.3888460498798" cy="560.7927271692583" style="stroke: #000; fill: #69b3a2;"></circle><circle r="10" cx="241.91472349869824" cy="533.9009517847743" style="stroke: #000; fill: #69b3a2;"></circle><circle r="10" cx="223.9724565721521" cy="431.3854514931213" style="stroke: #000; fill: #69b3a2;"></circle><circle r="10" cx="202.35934498997" cy="330.4085703310618" style="stroke: #000; fill: #69b3a2;"></circle><circle r="10" cx="230.36805190001283" cy="430.7333494572408" style="stroke: #000; fill: #69b3a2;"></circle><circle r="10" cx="210.51305325157563" cy="426.6164890665681" style="stroke: #000; fill: #69b3a2;"></circle><circle r="10" cx="317.911479747898" cy="422.6392180853334" style="stroke: #000; fill: #69b3a2;"></circle><circle r="10" cx="424.56903356143926" cy="462.1230178264024" style="stroke: #000; fill: #69b3a2;"></circle><circle r="10" cx="529.6700194909587" cy="479.93812972157804" style="stroke: #000; fill: #69b3a2;"></circle><circle r="10" cx="585.7717708318512" cy="515.7662223107455" style="stroke: #000; fill: #69b3a2;"></circle><circle r="10" cx="510.6906173085404" cy="425.5749206846021" style="stroke: #000; fill: #69b3a2;"></circle><circle r="10" cx="572.1015237092575" cy="516.8788288352373" style="stroke: #000; fill: #69b3a2;"></circle><circle r="10" cx="356.82502809828" cy="505.9115992545064" style="stroke: #000; fill: #69b3a2;"></circle><circle r="10" cx="333.23160665253454" cy="404.73660384982" style="stroke: #000; fill: #69b3a2;"></circle><circle r="10" cx="300.31791603238054" cy="303.36682553457865" style="stroke: #000; fill: #69b3a2;"></circle><circle r="10" cx="333.28274979015214" cy="349.37251063466545" style="stroke: #000; fill: #69b3a2;"></circle><circle r="10" cx="239.5435416637027" cy="294.7662365377228" style="stroke: #000; fill: #69b3a2;"></circle><circle r="10" cx="343.5190541905562" cy="331.0765667458635" style="stroke: #000; fill: #69b3a2;"></circle><circle r="10" cx="452.4351235612969" cy="353.46450226920285" style="stroke: #000; fill: #69b3a2;"></circle><circle r="10" cx="557.6960264052698" cy="377.90356954857805" style="stroke: #000; fill: #69b3a2;"></circle><circle r="10" cx="660.975970635519" cy="418.3814707849023" style="stroke: #000; fill: #69b3a2;"></circle><circle r="10" cx="559.6790393944998" cy="366.6067748865399" style="stroke: #000; fill: #69b3a2;"></circle><circle r="10" cx="655.4561880237306" cy="423.70576334846135" style="stroke: #000; fill: #69b3a2;"></circle><circle r="10" cx="466.79012647782724" cy="477.1735890395368" style="stroke: #000; fill: #69b3a2;"></circle><circle r="10" cx="440.2406749277981" cy="373.8801291809529" style="stroke: #000; fill: #69b3a2;"></circle><circle r="10" cx="423.1372419582011" cy="275.2269629671784" style="stroke: #000; fill: #69b3a2;"></circle><circle r="10" cx="371.6383730028881" cy="216.60049225341095" style="stroke: #000; fill: #69b3a2;"></circle><circle r="10" cx="283.07251490275866" cy="193.9980366771472" style="stroke: #000; fill: #69b3a2;"></circle><circle r="10" cx="377.71900012804275" cy="222.7711875257864" style="stroke: #000; fill: #69b3a2;"></circle><circle r="10" cx="482.0939265034358" cy="254.46371409466627" style="stroke: #000; fill: #69b3a2;"></circle><circle r="10" cx="590.7520095605286" cy="282.00748339000415" style="stroke: #000; fill: #69b3a2;"></circle><circle r="10" cx="697.8941797436298" cy="312.5954046863663" style="stroke: #000; fill: #69b3a2;"></circle><circle r="10" cx="594.9159043378054" cy="280.878658111511" style="stroke: #000; fill: #69b3a2;"></circle><circle r="10" cx="699.4749676336269" cy="315.07049467199704" style="stroke: #000; fill: #69b3a2;"></circle><circle r="10" cx="573.5968928281809" cy="452.4102548051615" style="stroke: #000; fill: #69b3a2;"></circle><circle r="10" cx="549.8374994664883" cy="346.38004239639207" style="stroke: #000; fill: #69b3a2;"></circle><circle r="10" cx="510.935412368934" cy="232.67652121953648" style="stroke: #000; fill: #69b3a2;"></circle><circle r="10" cx="430.8274182304486" cy="129.98369588413553" style="stroke: #000; fill: #69b3a2;"></circle><circle r="10" cx="307.49298467754556" cy="83.02175304812988" style="stroke: #000; fill: #69b3a2;"></circle><circle r="10" cx="419.0842834582936" cy="125.33431973708547" style="stroke: #000; fill: #69b3a2;"></circle><circle r="10" cx="515.3553472093784" cy="150.2766008906088" style="stroke: #000; fill: #69b3a2;"></circle><circle r="10" cx="619.1586165687377" cy="179.85420193771432" style="stroke: #000; fill: #69b3a2;"></circle><circle r="10" cx="726.2445617379676" cy="207.77857132695016" style="stroke: #000; fill: #69b3a2;"></circle><circle r="10" cx="622.518061147548" cy="180.5570146111056" style="stroke: #000; fill: #69b3a2;"></circle><circle r="10" cx="727.9410434065074" cy="208.01212138456944" style="stroke: #000; fill: #69b3a2;"></circle><circle r="10" cx="469.5662365377228" cy="477.44779410718604" style="stroke: #000; fill: #69b3a2;"></circle><circle r="10" cx="445.47089871814933" cy="373.2049965143906" style="stroke: #000; fill: #69b3a2;"></circle><circle r="10" cx="412.2577774616227" cy="279.5227702769993" style="stroke: #000; fill: #69b3a2;"></circle><circle r="10" cx="359.2805474540824" cy="190.06877320775655" style="stroke: #000; fill: #69b3a2;"></circle><circle r="10" cx="308.6028880763704" cy="56.84144033917116" style="stroke: #000; fill: #69b3a2;"></circle><circle r="10" cx="433.1543769295338" cy="20" style="stroke: #000; fill: #69b3a2;"></circle><circle r="10" cx="544.941598258618" cy="44.32056225013872" style="stroke: #000; fill: #69b3a2;"></circle><circle r="10" cx="648.7654113730456" cy="75.82062627153607" style="stroke: #000; fill: #69b3a2;"></circle><circle r="10" cx="753.3050121640655" cy="103.53955811008834" style="stroke: #000; fill: #69b3a2;"></circle><circle r="10" cx="649.2433239909516" cy="76.14392010129608" style="stroke: #000; fill: #69b3a2;"></circle><circle r="10" cx="754.1505498726686" cy="102.95460171577344" style="stroke: #000; fill: #69b3a2;"></circle></svg>