<svg width="800" height="800" xmlns="http://www.w3.org/2000/svg"><line style="stroke: #aaa; stroke-width: 1;" x1="121.83236824323303" y1="658.8122776025364" x2="761.566566976041" y2="187.50831007723752"></line><line style="stroke: #aaa; stroke-width: 1;" x1="121.83236824323303" y1="658.8122776025364" x2="102.16957910759217" y2="630.4848883353889"></line><line style="stroke: #aaa; stroke-width: 1.41421;" x1="121.83236824323303" y1="658.8122776025364" x2="245.84457756728617" y2="21.50838886010287"></line><line style="stroke: #aaa; stroke-width: 1.41421;" x1="761.566566976041" y1="187.50831007723752" x2="102.16957910759217" y2="630.4848883353889"></line><line style="stroke: #aaa; stroke-width: 1;" x1="761.566566976041" y1="187.50831007723752" x2="254.39403351099884" y2="437.898250919386"></line><line style="stroke: #aaa; stroke-width: 1;" x1="761.566566976041" y1="187.50831007723752" x2="245.84457756728617" y2="21.50838886010287"></line><line style="stroke: #aaa; stroke-width: 1.41421;" x1="761.566566976041" y1="187.50831007723752" x2="104.16733076581998" y2="508.9367646301297"></line><line style="stroke: #aaa; stroke-width: 1.41421;" x1="254.39403351099884" y1="437.898250919386" x2="245.84457756728617" y2="21.50838886010287"></line><line style="stroke: #aaa; stroke-width: 1;" x1="254.39403351099884" y1="437.898250919386" x2="162.44372327821566" y2="780"></line><line style="stroke: #aaa; stroke-width: 1;" x1="254.39403351099884" y1="437.898250919386" x2="104.16733076581998" y2="508.9367646301297"></line><line style="stroke: #aaa; stroke-width: 1.41421;" x1="254.39403351099884" y1="437.898250919386" x2="692.1442170851753" y2="404.46197545004713"></line><line style="stroke: #aaa; stroke-width: 1.41421;" x1="162.44372327821566" y1="780" x2="104.16733076581998" y2="508.9367646301297"></line><line style="stroke: #aaa; stroke-width: 1;" x1="162.44372327821566" y1="780" x2="782.7481079486863" y2="760.6661394274911"></line><line style="stroke: #aaa; stroke-width: 1;" x1="162.44372327821566" y1="780" x2="692.1442170851753" y2="404.46197545004713"></line><line style="stroke: #aaa; stroke-width: 1.41421;" x1="162.44372327821566" y1="780" x2="630.3486343798323" y2="295.1758019439167"></line><line style="stroke: #aaa; stroke-width: 1.41421;" x1="782.7481079486863" y1="760.6661394274911" x2="692.1442170851753" y2="404.46197545004713"></line><line style="stroke: #aaa; stroke-width: 1;" x1="782.7481079486863" y1="760.6661394274911" x2="575.0107215399424" y2="770.9634841419183"></line><line style="stroke: #aaa; stroke-width: 1;" x1="782.7481079486863" y1="760.6661394274911" x2="630.3486343798323" y2="295.1758019439167"></line><line style="stroke: #aaa; stroke-width: 1.41421;" x1="782.7481079486863" y1="760.6661394274911" x2="180.5156035525012" y2="540.867015533355"></line><line style="stroke: #aaa; stroke-width: 1.41421;" x1="575.0107215399424" y1="770.9634841419183" x2="630.3486343798323" y2="295.1758019439167"></line><line style="stroke: #aaa; stroke-width: 1;" x1="102.16957910759217" y1="630.4848883353889" x2="245.84457756728617" y2="21.50838886010287"></line><line style="stroke: #aaa; stroke-width: 1;" x1="102.16957910759217" y1="630.4848883353889" x2="323.9192455429604" y2="586.377755758977"></line><line style="stroke: #aaa; stroke-width: 1.41421;" x1="102.16957910759217" y1="630.4848883353889" x2="382.2744734425992" y2="341.8425898149916"></line><line style="stroke: #aaa; stroke-width: 1.41421;" x1="245.84457756728617" y1="21.50838886010287" x2="323.9192455429604" y2="586.377755758977"></line><line style="stroke: #aaa; stroke-width: 1;" x1="245.84457756728617" y1="21.50838886010287" x2="104.16733076581998" y2="508.9367646301297"></line><line style="stroke: #aaa; stroke-width: 1;" x1="245.84457756728617" y1="21.50838886010287" x2="382.2744734425992" y2="341.8425898149916"></line><line style="stroke: #aaa; stroke-width: 1.41421;" x1="245.84457756728617" y1="21.50838886010287" x2="151.30006878350167" y2="249.59328850790305"></line><line style="stroke: #aaa; stroke-width: 1.41421;" x1="104.16733076581998" y1="508.9367646301297" x2="382.2744734425992" y2="341.8425898149916"></line><line style="stroke: #aaa; stroke-width: 1;" x1="104.16733076581998" y1="508.9367646301297" x2="692.1442170851753" y2="404.46197545004713"></line><line style="stroke: #aaa; stroke-width: 1;" x1="104.16733076581998" y1="508.9367646301297" x2="151.30006878350167" y2="249.59328850790305"></line><line style="stroke: #aaa; stroke-width: 1.41421;" x1="104.16733076581998" y1="508.9367646301297" x2="629.8508276746027" y2="260.82944216681165"></line><line style="stroke: #aaa; stroke-width: 1.41421;" x1="692.1442170851753" y1="404.46197545004713" x2="151.30006878350167" y2="249.59328850790305"></line><line style="stroke: #aaa; stroke-width: 1;" x1="692.1442170851753" y1="404.46197545004713" x2="630.3486343798323" y2="295.1758019439167"></line><line style="stroke: #aaa; stroke-width: 1;" x1="692.1442170851753" y1="404.46197545004713" x2="629.8508276746027" y2="260.82944216681165"></line><line style="stroke: #aaa; stroke-width: 1.41421;" x1="692.1442170851753" y1="404.46197545004713" x2="687.5372981315329" y2="132.3005101695549"></line><line style="stroke: #aaa; stroke-width: 1.41421;" x1="630.3486343798323" y1="295.1758019439167" x2="629.8508276746027" y2="260.82944216681165"></line><line style="stroke: #aaa; stroke-width: 1;" x1="630.3486343798323" y1="295.1758019439167" x2="180.5156035525012" y2="540.867015533355"></line><line style="stroke: #aaa; stroke-width: 1;" x1="630.3486343798323" y1="295.1758019439167" x2="687.5372981315329" y2="132.3005101695549"></line><line style="stroke: #aaa; stroke-width: 1.41421;" x1="630.3486343798323" y1="295.1758019439167" x2="780.9111743394108" y2="648.7525137289243"></line><line style="stroke: #aaa; stroke-width: 1.41421;" x1="180.5156035525012" y1="540.867015533355" x2="687.5372981315329" y2="132.3005101695549"></line><line style="stroke: #aaa; stroke-width: 1;" x1="323.9192455429604" y1="586.377755758977" x2="382.2744734425992" y2="341.8425898149916"></line><line style="stroke: #aaa; stroke-width: 1;" x1="323.9192455429604" y1="586.377755758977" x2="113.93040644888256" y2="604.1122635630259"></line><line style="stroke: #aaa; stroke-width: 1.41421;" x1="323.9192455429604" y1="586.377755758977" x2="394.42629206424243" y2="527.2385494660442"></line><line style="stroke: #aaa; stroke-width: 1.41421;" x1="382.2744734425992" y1="341.8425898149916" x2="113.93040644888256" y2="604.1122635630259"></line><line style="stroke: #aaa; stroke-width: 1;" x1="382.2744734425992" y1="341.8425898149916" x2="151.30006878350167" y2="249.59328850790305"></line><line style="stroke: #aaa; stroke-width: 1;" x1="382.2744734425992" y1="341.8425898149916" x2="394.42629206424243" y2="527.2385494660442"></line><line style="stroke: #aaa; stroke-width: 1.41421;" x1="382.2744734425992" y1="341.8425898149916" x2="114.47810896882322" y2="179.19873785809594"></line><line style="stroke: #aaa; stroke-width: 1.41421;" x1="151.30006878350167" y1="249.59328850790305" x2="394.42629206424243" y2="527.2385494660442"></line><line style="stroke: #aaa; stroke-width: 1;" x1="151.30006878350167" y1="249.59328850790305" x2="629.8508276746027" y2="260.82944216681165"></line><line style="stroke: #aaa; stroke-width: 1;" x1="151.30006878350167" y1="249.59328850790305" x2="114.47810896882322" y2="179.19873785809594"></line><line style="stroke: #aaa; stroke-width: 1.41421;" x1="151.30006878350167" y1="249.59328850790305" x2="57.15165600572899" y2="45.80995350800912"></line><line style="stroke: #aaa; stroke-width: 1.41421;" x1="629.8508276746027" y1="260.82944216681165" x2="114.47810896882322" y2="179.19873785809594"></line><line style="stroke: #aaa; stroke-width: 1;" x1="629.8508276746027" y1="260.82944216681165" x2="687.5372981315329" y2="132.3005101695549"></line><line style="stroke: #aaa; stroke-width: 1;" x1="629.8508276746027" y1="260.82944216681165" x2="57.15165600572899" y2="45.80995350800912"></line><line style="stroke: #aaa; stroke-width: 1.41421;" x1="629.8508276746027" y1="260.82944216681165" x2="331.5897675198447" y2="369.40169867978096"></line><line style="stroke: #aaa; stroke-width: 1.41421;" x1="687.5372981315329" y1="132.3005101695549" x2="57.15165600572899" y2="45.80995350800912"></line><line style="stroke: #aaa; stroke-width: 1;" x1="687.5372981315329" y1="132.3005101695549" x2="780.9111743394108" y2="648.7525137289243"></line><line style="stroke: #aaa; stroke-width: 1;" x1="687.5372981315329" y1="132.3005101695549" x2="331.5897675198447" y2="369.40169867978096"></line><line style="stroke: #aaa; stroke-width: 1.41421;" x1="687.5372981315329" y1="132.3005101695549" x2="392.1079789871958" y2="627.313817403539"></line><line style="stroke: #aaa; stroke-width: 1.41421;" x1="780.9111743394108" y1="648.7525137289243" x2="331.5897675198447" y2="369.40169867978096"></line><line style="stroke: #aaa; stroke-width: 1;" x1="113.93040644888256" y1="604.1122635630259" x2="394.42629206424243" y2="527.2385494660442"></line><line style="stroke: #aaa; stroke-width: 1;" x1="113.93040644888256" y1="604.1122635630259" x2="724.7258002773563" y2="637.7197814684522"></line><line style="stroke: #aaa; stroke-width: 1.41421;" x1="113.93040644888256" y1="604.1122635630259" x2="559.608651166643" y2="20"></line><line style="stroke: #aaa; stroke-width: 1.41421;" x1="394.42629206424243" y1="527.2385494660442" x2="724.7258002773563" y2="637.7197814684522"></line><line style="stroke: #aaa; stroke-width: 1;" x1="394.42629206424243" y1="527.2385494660442" x2="114.47810896882322" y2="179.19873785809594"></line><line style="stroke: #aaa; stroke-width: 1;" x1="394.42629206424243" y1="527.2385494660442" x2="559.608651166643" y2="20"></line><line style="stroke: #aaa; stroke-width: 1.41421;" x1="394.42629206424243" y1="527.2385494660442" x2="563.3926729915167" y2="512.1588828185681"></line><line style="stroke: #aaa; stroke-width: 1.41421;" x1="114.47810896882322" y1="179.19873785809594" x2="559.608651166643" y2="20"></line><line style="stroke: #aaa; stroke-width: 1;" x1="114.47810896882322" y1="179.19873785809594" x2="57.15165600572899" y2="45.80995350800912"></line><line style="stroke: #aaa; stroke-width: 1;" x1="114.47810896882322" y1="179.19873785809594" x2="563.3926729915167" y2="512.1588828185681"></line><line style="stroke: #aaa; stroke-width: 1.41421;" x1="114.47810896882322" y1="179.19873785809594" x2="367.89994980117433" y2="611.9167366117107"></line><line style="stroke: #aaa; stroke-width: 1.41421;" x1="57.15165600572899" y1="45.80995350800912" x2="563.3926729915167" y2="512.1588828185681"></line><line style="stroke: #aaa; stroke-width: 1;" x1="57.15165600572899" y1="45.80995350800912" x2="331.5897675198447" y2="369.40169867978096"></line><line style="stroke: #aaa; stroke-width: 1;" x1="57.15165600572899" y1="45.80995350800912" x2="367.89994980117433" y2="611.9167366117107"></line><line style="stroke: #aaa; stroke-width: 1.41421;" x1="57.15165600572899" y1="45.80995350800912" x2="458.2664133494536" y2="690.8599755773117"></line><line style="stroke: #aaa; stroke-width: 1.41421;" x1="331.5897675198447" y1="369.40169867978096" x2="367.89994980117433" y2="611.9167366117107"></line><line style="stroke: #aaa; stroke-width: 1;" x1="331.5897675198447" y1="369.40169867978096" x2="392.1079789871958" y2="627.313817403539"></line><line style="stroke: #aaa; stroke-width: 1;" x1="331.5897675198447" y1="369.40169867978096" x2="458.2664133494536" y2="690.8599755773117"></line><line style="stroke: #aaa; stroke-width: 1.41421;" x1="331.5897675198447" y1="369.40169867978096" x2="638.2145176620074" y2="31.480259337032113"></line><line style="stroke: #aaa; stroke-width: 1.41421;" x1="392.1079789871958" y1="627.313817403539" x2="458.2664133494536" y2="690.8599755773117"></line><line style="stroke: #aaa; stroke-width: 1;" x1="724.7258002773563" y1="637.7197814684522" x2="559.608651166643" y2="20"></line><line style="stroke: #aaa; stroke-width: 1;" x1="724.7258002773563" y1="637.7197814684522" x2="648.2477983724268" y2="647.9369090653827"></line><line style="stroke: #aaa; stroke-width: 1.41421;" x1="724.7258002773563" y1="637.7197814684522" x2="739.4634886870837" y2="334.6107671936029"></line><line style="stroke: #aaa; stroke-width: 1.41421;" x1="559.608651166643" y1="20" x2="648.2477983724268" y2="647.9369090653827"></line><line style="stroke: #aaa; stroke-width: 1;" x1="559.608651166643" y1="20" x2="563.3926729915167" y2="512.1588828185681"></line><line style="stroke: #aaa; stroke-width: 1;" x1="559.608651166643" y1="20" x2="739.4634886870837" y2="334.6107671936029"></line><line style="stroke: #aaa; stroke-width: 1.41421;" x1="559.608651166643" y1="20" x2="342.66970889731266" y2="463.79486961940813"></line><line style="stroke: #aaa; stroke-width: 1.41421;" x1="563.3926729915167" y1="512.1588828185681" x2="739.4634886870837" y2="334.6107671936029"></line><line style="stroke: #aaa; stroke-width: 1;" x1="563.3926729915167" y1="512.1588828185681" x2="367.89994980117433" y2="611.9167366117107"></line><line style="stroke: #aaa; stroke-width: 1;" x1="563.3926729915167" y1="512.1588828185681" x2="342.66970889731266" y2="463.79486961940813"></line><line style="stroke: #aaa; stroke-width: 1.41421;" x1="563.3926729915167" y1="512.1588828185681" x2="139.16579045979904" y2="602.5624227953172"></line><line style="stroke: #aaa; stroke-width: 1.41421;" x1="367.89994980117433" y1="611.9167366117107" x2="342.66970889731266" y2="463.79486961940813"></line><line style="stroke: #aaa; stroke-width: 1;" x1="367.89994980117433" y1="611.9167366117107" x2="458.2664133494536" y2="690.8599755773117"></line><line style="stroke: #aaa; stroke-width: 1;" x1="367.89994980117433" y1="611.9167366117107" x2="139.16579045979904" y2="602.5624227953172"></line><line style="stroke: #aaa; stroke-width: 1.41421;" x1="367.89994980117433" y1="611.9167366117107" x2="194.51061195095667" y2="639.4112495871475"></line><line style="stroke: #aaa; stroke-width: 1.41421;" x1="458.2664133494536" y1="690.8599755773117" x2="139.16579045979904" y2="602.5624227953172"></line><line style="stroke: #aaa; stroke-width: 1;" x1="458.2664133494536" y1="690.8599755773117" x2="638.2145176620074" y2="31.480259337032113"></line><line style="stroke: #aaa; stroke-width: 1;" x1="458.2664133494536" y1="690.8599755773117" x2="194.51061195095667" y2="639.4112495871475"></line><line style="stroke: #aaa; stroke-width: 1.41421;" x1="458.2664133494536" y1="690.8599755773117" x2="776.6531422747845" y2="273.03319081715006"></line><line style="stroke: #aaa; stroke-width: 1.41421;" x1="638.2145176620074" y1="31.480259337032113" x2="194.51061195095667" y2="639.4112495871475"></line><line style="stroke: #aaa; stroke-width: 1;" x1="575.0107215399424" y1="770.9634841419183" x2="180.5156035525012" y2="540.867015533355"></line><line style="stroke: #aaa; stroke-width: 1;" x1="180.5156035525012" y1="540.867015533355" x2="780.9111743394108" y2="648.7525137289243"></line><line style="stroke: #aaa; stroke-width: 1;" x1="780.9111743394108" y1="648.7525137289243" x2="392.1079789871958" y2="627.313817403539"></line><line style="stroke: #aaa; stroke-width: 1;" x1="392.1079789871958" y1="627.313817403539" x2="638.2145176620074" y2="31.480259337032113"></line><line style="stroke: #aaa; stroke-width: 1;" x1="638.2145176620074" y1="31.480259337032113" x2="776.6531422747845" y2="273.03319081715006"></line><line style="stroke: #aaa; stroke-width: 1;" x1="648.2477983724268" y1="647.9369090653827" x2="739.4634886870837" y2="334.6107671936029"></line><line style="stroke: #aaa; stroke-width: 1;" x1="739.4634886870837" y1="334.6107671936029" x2="342.66970889731266" y2="463.79486961940813"></line><line style="stroke: #aaa; stroke-width: 1;" x1="342.66970889731266" y1="463.79486961940813" x2="139.16579045979904" y2="602.5624227953172"></line><line style="stroke: #aaa; stroke-width: 1;" x1="139.16579045979904" y1="602.5624227953172" x2="194.51061195095667" y2="639.4112495871475"></line><line style="stroke: #aaa; stroke-width: 1;" x1="194.51061195095667" y1="639.4112495871475" x2="776.6531422747845" y2="273.03319081715006"></line><circle r="10" cx="121.83236824323303" cy="658.8122776025364" style="stroke: #000; fill: #69b3a2;"></circle><circle r="10" cx="761.566566976041" cy="187.50831007723752" style="stroke: #000; fill: #69b3a2;"></circle><circle r="10" cx="254.39403351099884" cy="437.898250919386" style="stroke: #000; fill: #69b3a2;"></circle><circle r="10" cx="162.44372327821566" cy="780" style="stroke: #000; fill: #69b3a2;"></circle><circle r="10" cx="782.7481079486863" cy="760.6661394274911" style="stroke: #000; fill: #69b3a2;"></circle><circle r="10" cx="575.0107215399424" cy="770.9634841419183" style="stroke: #000; fill: #69b3a2;"></circle><circle r="10" cx="102.16957910759217" cy="630.4848883353889" style="stroke: #000; fill: #69b3a2;"></circle><circle r="10" cx="245.84457756728617" cy="21.50838886010287" style="stroke: #000; fill: #69b3a2;"></circle><circle r="10" cx="104.16733076581998" cy="508.9367646301297" style="stroke: #000; fill: #69b3a2;"></circle><circle r="10" cx="692.1442170851753" cy="404.46197545004713" style="stroke: #000; fill: #69b3a2;"></circle><circle r="10" cx="630.3486343798323" cy="295.1758019439167" style="stroke: #000; fill: #69b3a2;"></circle><circle r="10" cx="180.5156035525012" cy="540.867015533355" style="stroke: #000; fill: #69b3a2;"></circle><circle r="10" cx="323.9192455429604" cy="586.377755758977" style="stroke: #000; fill: #69b3a2;"></circle><circle r="10" cx="382.2744734425992" cy="341.8425898149916" style="stroke: #000; fill: #69b3a2;"></circle><circle r="10" cx="151.30006878350167" cy="249.59328850790305" style="stroke: #000; fill: #69b3a2;"></circle><circle r="10" cx="629.8508276746027" cy="260.82944216681165" style="stroke: #000; fill: #69b3a2;"></circle><circle r="10" cx="687.5372981315329" cy="132.3005101695549" style="stroke: #000; fill: #69b3a2;"></circle><circle r="10" cx="780.9111743394108" cy="648.7525137289243" style="stroke: #000; fill: #69b3a2;"></circle><circle r="10" cx="113.93040644888256" cy="604.1122635630259" style="stroke: #000; fill: #69b3a2;"></circle><circle r="10" cx="394.42629206424243" cy="527.2385494660442" style="stroke: #000; fill: #69b3a2;"></circle><circle r="10" cx="114.47810896882322" cy="179.19873785809594" style="stroke: #000; fill: #69b3a2;"></circle><circle r="10" cx="57.15165600572899" cy="45.80995350800912" style="stroke: #000; fill: #69b3a2;"></circle><circle r="10" cx="331.5897675198447" cy="369.40169867978096" style="stroke: #000; fill: #69b3a2;"></circle><circle r="10" cx="392.1079789871958" cy="627.313817403539" style="stroke: #000; fill: #69b3a2;"></circle><circle r="10" cx="724.7258002773563" cy="637.7197814684522" style="stroke: #000; fill: #69b3a2;"></circle><circle r="10" cx="559.608651166643" cy="20" style="stroke: #000; fill: #69b3a2;"></circle><circle r="10" cx="563.3926729915167" cy="512.1588828185681" style="stroke: #000; fill: #69b3a2;"></circle><circle r="10" cx="367.89994980117433" cy="611.9167366117107" style="stroke: #000; fill: #69b3a2;"></circle><circle r="10" cx="458.2664133494536" cy="690.8599755773117" style="stroke: #000; fill: #69b3a2;"></circle><circle r="10" cx="638.2145176620074" cy="31.480259337032113" style="stroke: #000; fill: #69b3a2;"></circle><circle r="10" cx="648.2477983724268" cy="647.9369090653827" style="stroke: #000; fill: #69b3a2;"></circle><circle r="10" cx="739.4634886870837" cy="334.6107671936029" style="stroke: #000; fill: #69b3a2;"></circle><circle r="10" cx="342.66970889731266" cy="463.79486961940813" style="stroke: #000; fill: #69b3a2;"></circle><circle r="10" cx="139.16579045979904" cy="602.5624227953172" style="stroke: #000; fill: #69b3a2;"></circle><circle r="10" cx="194.51061195095667" cy="639.4112495871475" style="stroke: #000; fill: #69b3a2;"></circle><circle r="10" cx="776.6531422747845" cy="273.03319081715006" style="stroke: #000; fill: #69b3a2;"></circle></svg>