<svg width="800" height="800" xmlns="http://www.w3.org/2000/svg"><line style="stroke: #aaa; stroke-width: 1;" x1="121.83236824323303" y1="658.8122776025364" x2="761.566566976041" y2="187.50831007723752"></line><line style="stroke: #aaa; stroke-width: 1;" x1="121.83236824323303" y1="658.8122776025364" x2="180.5156035525012" y2="540.867015533355"></line><line style="stroke: #aaa; stroke-width: 1.41421;" x1="121.83236824323303" y1="658.8122776025364" x2="323.9192455429604" y2="586.377755758977"></line><line style="stroke: #aaa; stroke-width: 1.41421;" x1="761.566566976041" y1="187.50831007723752" x2="180.5156035525012" y2="540.867015533355"></line><line style="stroke: #aaa; stroke-width: 1;" x1="761.566566976041" y1="187.50831007723752" x2="254.39403351099884" y2="437.898250919386"></line><line style="stroke: #aaa; stroke-width: 1;" x1="761.566566976041" y1="187.50831007723752" x2="323.9192455429604" y2="586.377755758977"></line><line style="stroke: #aaa; stroke-width: 1.41421;" x1="761.566566976041" y1="187.50831007723752" x2="382.2744734425992" y2="341.8425898149916"></line><line style="stroke: #aaa; stroke-width: 1.41421;" x1="254.39403351099884" y1="437.898250919386" x2="323.9192455429604" y2="586.377755758977"></line><line style="stroke: #aaa; stroke-width: 1;" x1="254.39403351099884" y1="437.898250919386" x2="162.44372327821566" y2="780"></line><line style="stroke: #aaa; stroke-width: 1;" x1="254.39403351099884" y1="437.898250919386" x2="382.2744734425992" y2="341.8425898149916"></line><line style="stroke: #aaa; stroke-width: 1.41421;" x1="254.39403351099884" y1="437.898250919386" x2="151.30006878350167" y2="249.59328850790305"></line><line style="stroke: #aaa; stroke-width: 1.41421;" x1="162.44372327821566" y1="780" x2="382.2744734425992" y2="341.8425898149916"></line><line style="stroke: #aaa; stroke-width: 1;" x1="162.44372327821566" y1="780" x2="782.7481079486863" y2="760.6661394274911"></line><line style="stroke: #aaa; stroke-width: 1;" x1="162.44372327821566" y1="780" x2="151.30006878350167" y2="249.59328850790305"></line><line style="stroke: #aaa; stroke-width: 1.41421;" x1="162.44372327821566" y1="780" x2="629.8508276746027" y2="260.82944216681165"></line><line style="stroke: #aaa; stroke-width: 1.41421;" x1="782.7481079486863" y1="760.6661394274911" x2="151.30006878350167" y2="249.59328850790305"></line><line style="stroke: #aaa; stroke-width: 1;" x1="782.7481079486863" y1="760.6661394274911" x2="575.0107215399424" y2="770.9634841419183"></line><line style="stroke: #aaa; stroke-width: 1;" x1="782.7481079486863" y1="760.6661394274911" x2="629.8508276746027" y2="260.82944216681165"></line><line style="stroke: #aaa; stroke-width: 1.41421;" x1="782.7481079486863" y1="760.6661394274911" x2="687.5372981315329" y2="132.3005101695549"></line><line style="stroke: #aaa; stroke-width: 1.41421;" x1="575.0107215399424" y1="770.9634841419183" x2="629.8508276746027" y2="260.82944216681165"></line><line style="stroke: #aaa; stroke-width: 1;" x1="575.0107215399424" y1="770.9634841419183" x2="102.16957910759217" y2="630.4848883353889"></line><line style="stroke: #aaa; stroke-width: 1;" x1="575.0107215399424" y1="770.9634841419183" x2="687.5372981315329" y2="132.3005101695549"></line><line style="stroke: #aaa; stroke-width: 1.41421;" x1="575.0107215399424" y1="770.9634841419183" x2="780.9111743394108" y2="648.7525137289243"></line><line style="stroke: #aaa; stroke-width: 1.41421;" x1="102.16957910759217" y1="630.4848883353889" x2="687.5372981315329" y2="132.3005101695549"></line><line style="stroke: #aaa; stroke-width: 1;" x1="102.16957910759217" y1="630.4848883353889" x2="245.84457756728617" y2="21.50838886010287"></line><line style="stroke: #aaa; stroke-width: 1;" x1="102.16957910759217" y1="630.4848883353889" x2="780.9111743394108" y2="648.7525137289243"></line><line style="stroke: #aaa; stroke-width: 1.41421;" x1="102.16957910759217" y1="630.4848883353889" x2="113.93040644888256" y2="604.1122635630259"></line><line style="stroke: #aaa; stroke-width: 1.41421;" x1="245.84457756728617" y1="21.50838886010287" x2="780.9111743394108" y2="648.7525137289243"></line><line style="stroke: #aaa; stroke-width: 1;" x1="245.84457756728617" y1="21.50838886010287" x2="104.16733076581998" y2="508.9367646301297"></line><line style="stroke: #aaa; stroke-width: 1;" x1="245.84457756728617" y1="21.50838886010287" x2="113.93040644888256" y2="604.1122635630259"></line><line style="stroke: #aaa; stroke-width: 1.41421;" x1="245.84457756728617" y1="21.50838886010287" x2="394.42629206424243" y2="527.2385494660442"></line><line style="stroke: #aaa; stroke-width: 1.41421;" x1="104.16733076581998" y1="508.9367646301297" x2="113.93040644888256" y2="604.1122635630259"></line><line style="stroke: #aaa; stroke-width: 1;" x1="104.16733076581998" y1="508.9367646301297" x2="692.1442170851753" y2="404.46197545004713"></line><line style="stroke: #aaa; stroke-width: 1;" x1="104.16733076581998" y1="508.9367646301297" x2="394.42629206424243" y2="527.2385494660442"></line><line style="stroke: #aaa; stroke-width: 1.41421;" x1="104.16733076581998" y1="508.9367646301297" x2="114.47810896882322" y2="179.19873785809594"></line><line style="stroke: #aaa; stroke-width: 1.41421;" x1="692.1442170851753" y1="404.46197545004713" x2="394.42629206424243" y2="527.2385494660442"></line><line style="stroke: #aaa; stroke-width: 1;" x1="692.1442170851753" y1="404.46197545004713" x2="630.3486343798323" y2="295.1758019439167"></line><line style="stroke: #aaa; stroke-width: 1;" x1="692.1442170851753" y1="404.46197545004713" x2="114.47810896882322" y2="179.19873785809594"></line><line style="stroke: #aaa; stroke-width: 1.41421;" x1="692.1442170851753" y1="404.46197545004713" x2="57.15165600572899" y2="45.80995350800912"></line><line style="stroke: #aaa; stroke-width: 1.41421;" x1="630.3486343798323" y1="295.1758019439167" x2="114.47810896882322" y2="179.19873785809594"></line><line style="stroke: #aaa; stroke-width: 1;" x1="180.5156035525012" y1="540.867015533355" x2="323.9192455429604" y2="586.377755758977"></line><line style="stroke: #aaa; stroke-width: 1;" x1="180.5156035525012" y1="540.867015533355" x2="331.5897675198447" y2="369.40169867978096"></line><line style="stroke: #aaa; stroke-width: 1.41421;" x1="180.5156035525012" y1="540.867015533355" x2="392.1079789871958" y2="627.313817403539"></line><line style="stroke: #aaa; stroke-width: 1.41421;" x1="323.9192455429604" y1="586.377755758977" x2="331.5897675198447" y2="369.40169867978096"></line><line style="stroke: #aaa; stroke-width: 1;" x1="323.9192455429604" y1="586.377755758977" x2="382.2744734425992" y2="341.8425898149916"></line><line style="stroke: #aaa; stroke-width: 1;" x1="323.9192455429604" y1="586.377755758977" x2="392.1079789871958" y2="627.313817403539"></line><line style="stroke: #aaa; stroke-width: 1.41421;" x1="323.9192455429604" y1="586.377755758977" x2="724.7258002773563" y2="637.7197814684522"></line><line style="stroke: #aaa; stroke-width: 1.41421;" x1="382.2744734425992" y1="341.8425898149916" x2="392.1079789871958" y2="627.313817403539"></line><line style="stroke: #aaa; stroke-width: 1;" x1="382.2744734425992" y1="341.8425898149916" x2="151.30006878350167" y2="249.59328850790305"></line><line style="stroke: #aaa; stroke-width: 1;" x1="382.2744734425992" y1="341.8425898149916" x2="724.7258002773563" y2="637.7197814684522"></line><line style="stroke: #aaa; stroke-width: 1.41421;" x1="382.2744734425992" y1="341.8425898149916" x2="559.608651166643" y2="20"></line><line style="stroke: #aaa; stroke-width: 1.41421;" x1="151.30006878350167" y1="249.59328850790305" x2="724.7258002773563" y2="637.7197814684522"></line><line style="stroke: #aaa; stroke-width: 1;" x1="151.30006878350167" y1="249.59328850790305" x2="629.8508276746027" y2="260.82944216681165"></line><line style="stroke: #aaa; stroke-width: 1;" x1="151.30006878350167" y1="249.59328850790305" x2="559.608651166643" y2="20"></line><line style="stroke: #aaa; stroke-width: 1.41421;" x1="151.30006878350167" y1="249.59328850790305" x2="563.3926729915167" y2="512.1588828185681"></line><line style="stroke: #aaa; stroke-width: 1.41421;" x1="629.8508276746027" y1="260.82944216681165" x2="559.608651166643" y2="20"></line><line style="stroke: #aaa; stroke-width: 1;" x1="629.8508276746027" y1="260.82944216681165" x2="687.5372981315329" y2="132.3005101695549"></line><line style="stroke: #aaa; stroke-width: 1;" x1="629.8508276746027" y1="260.82944216681165" x2="563.3926729915167" y2="512.1588828185681"></line><line style="stroke: #aaa; stroke-width: 1.41421;" x1="629.8508276746027" y1="260.82944216681165" x2="367.89994980117433" y2="611.9167366117107"></line><line style="stroke: #aaa; stroke-width: 1.41421;" x1="687.5372981315329" y1="132.3005101695549" x2="563.3926729915167" y2="512.1588828185681"></line><line style="stroke: #aaa; stroke-width: 1;" x1="687.5372981315329" y1="132.3005101695549" x2="780.9111743394108" y2="648.7525137289243"></line><line style="stroke: #aaa; stroke-width: 1;" x1="687.5372981315329" y1="132.3005101695549" x2="367.89994980117433" y2="611.9167366117107"></line><line style="stroke: #aaa; stroke-width: 1.41421;" x1="687.5372981315329" y1="132.3005101695549" x2="458.2664133494536" y2="690.8599755773117"></line><line style="stroke: #aaa; stroke-width: 1.41421;" x1="780.9111743394108" y1="648.7525137289243" x2="367.89994980117433" y2="611.9167366117107"></line><line style="stroke: #aaa; stroke-width: 1;" x1="780.9111743394108" y1="648.7525137289243" x2="113.93040644888256" y2="604.1122635630259"></line><line style="stroke: #aaa; stroke-width: 1;" x1="780.9111743394108" y1="648.7525137289243" x2="458.2664133494536" y2="690.8599755773117"></line><line style="stroke: #aaa; stroke-width: 1.41421;" x1="780.9111743394108" y1="648.7525137289243" x2="638.2145176620074" y2="31.480259337032113"></line><line style="stroke: #aaa; stroke-width: 1.41421;" x1="113.93040644888256" y1="604.1122635630259" x2="458.2664133494536" y2="690.8599755773117"></line><line style="stroke: #aaa; stroke-width: 1;" x1="113.93040644888256" y1="604.1122635630259" x2="394.42629206424243" y2="527.2385494660442"></line><line style="stroke: #aaa; stroke-width: 1;" x1="113.93040644888256" y1="604.1122635630259" x2="638.2145176620074" y2="31.480259337032113"></line><line style="stroke: #aaa; stroke-width: 1.41421;" x1="113.93040644888256" y1="604.1122635630259" x2="648.2477983724268" y2="647.9369090653827"></line><line style="stroke: #aaa; stroke-width: 1.41421;" x1="394.42629206424243" y1="527.2385494660442" x2="638.2145176620074" y2="31.480259337032113"></line><line style="stroke: #aaa; stroke-width: 1;" x1="394.42629206424243" y1="527.2385494660442" x2="114.47810896882322" y2="179.19873785809594"></line><line style="stroke: #aaa; stroke-width: 1;" x1="394.42629206424243" y1="527.2385494660442" x2="648.2477983724268" y2="647.9369090653827"></line><line style="stroke: #aaa; stroke-width: 1.41421;" x1="394.42629206424243" y1="527.2385494660442" x2="739.4634886870837" y2="334.6107671936029"></line><line style="stroke: #aaa; stroke-width: 1.41421;" x1="114.47810896882322" y1="179.19873785809594" x2="648.2477983724268" y2="647.9369090653827"></line><line style="stroke: #aaa; stroke-width: 1;" x1="114.47810896882322" y1="179.19873785809594" x2="57.15165600572899" y2="45.80995350800912"></line><line style="stroke: #aaa; stroke-width: 1;" x1="114.47810896882322" y1="179.19873785809594" x2="739.4634886870837" y2="334.6107671936029"></line><line style="stroke: #aaa; stroke-width: 1.41421;" x1="114.47810896882322" y1="179.19873785809594" x2="342.66970889731266" y2="463.79486961940813"></line><line style="stroke: #aaa; stroke-width: 1.41421;" x1="57.15165600572899" y1="45.80995350800912" x2="739.4634886870837" y2="334.6107671936029"></line><line style="stroke: #aaa; stroke-width: 1;" x1="331.5897675198447" y1="369.40169867978096" x2="392.1079789871958" y2="627.313817403539"></line><line style="stroke: #aaa; stroke-width: 1;" x1="331.5897675198447" y1="369.40169867978096" x2="139.16579045979904" y2="602.5624227953172"></line><line style="stroke: #aaa; stroke-width: 1.41421;" x1="331.5897675198447" y1="369.40169867978096" x2="194.51061195095667" y2="639.4112495871475"></line><line style="stroke: #aaa; stroke-width: 1.41421;" x1="392.1079789871958" y1="627.313817403539" x2="139.16579045979904" y2="602.5624227953172"></line><line style="stroke: #aaa; stroke-width: 1;" x1="392.1079789871958" y1="627.313817403539" x2="724.7258002773563" y2="637.7197814684522"></line><line style="stroke: #aaa; stroke-width: 1;" x1="392.1079789871958" y1="627.313817403539" x2="194.51061195095667" y2="639.4112495871475"></line><line style="stroke: #aaa; stroke-width: 1.41421;" x1="392.1079789871958" y1="627.313817403539" x2="776.6531422747845" y2="273.03319081715006"></line><line style="stroke: #aaa; stroke-width: 1.41421;" x1="724.7258002773563" y1="637.7197814684522" x2="194.51061195095667" y2="639.4112495871475"></line><line style="stroke: #aaa; stroke-width: 1;" x1="724.7258002773563" y1="637.7197814684522" x2="559.608651166643" y2="20"></line><line style="stroke: #aaa; stroke-width: 1;" x1="724.7258002773563" y1="637.7197814684522" x2="776.6531422747845" y2="273.03319081715006"></line><line style="stroke: #aaa; stroke-width: 1.41421;" x1="724.7258002773563" y1="637.7197814684522" x2="247.9954709952801" y2="28.22935510164508"></line><line style="stroke: #aaa; stroke-width: 1.41421;" x1="559.608651166643" y1="20" x2="776.6531422747845" y2="273.03319081715006"></line><line style="stroke: #aaa; stroke-width: 1;" x1="559.608651166643" y1="20" x2="563.3926729915167" y2="512.1588828185681"></line><line style="stroke: #aaa; stroke-width: 1;" x1="559.608651166643" y1="20" x2="247.9954709952801" y2="28.22935510164508"></line><line style="stroke: #aaa; stroke-width: 1.41421;" x1="559.608651166643" y1="20" x2="184.59439449812794" y2="714.3547632827406"></line><line style="stroke: #aaa; stroke-width: 1.41421;" x1="563.3926729915167" y1="512.1588828185681" x2="247.9954709952801" y2="28.22935510164508"></line><line style="stroke: #aaa; stroke-width: 1;" x1="563.3926729915167" y1="512.1588828185681" x2="367.89994980117433" y2="611.9167366117107"></line><line style="stroke: #aaa; stroke-width: 1;" x1="563.3926729915167" y1="512.1588828185681" x2="184.59439449812794" y2="714.3547632827406"></line><line style="stroke: #aaa; stroke-width: 1.41421;" x1="563.3926729915167" y1="512.1588828185681" x2="669.144165573302" y2="750.9345364890921"></line><line style="stroke: #aaa; stroke-width: 1.41421;" x1="367.89994980117433" y1="611.9167366117107" x2="184.59439449812794" y2="714.3547632827406"></line><line style="stroke: #aaa; stroke-width: 1;" x1="367.89994980117433" y1="611.9167366117107" x2="458.2664133494536" y2="690.8599755773117"></line><line style="stroke: #aaa; stroke-width: 1;" x1="367.89994980117433" y1="611.9167366117107" x2="669.144165573302" y2="750.9345364890921"></line><line style="stroke: #aaa; stroke-width: 1.41421;" x1="367.89994980117433" y1="611.9167366117107" x2="615.7399074604344" y2="775.8379214252022"></line><line style="stroke: #aaa; stroke-width: 1.41421;" x1="458.2664133494536" y1="690.8599755773117" x2="669.144165573302" y2="750.9345364890921"></line><line style="stroke: #aaa; stroke-width: 1;" x1="458.2664133494536" y1="690.8599755773117" x2="638.2145176620074" y2="31.480259337032113"></line><line style="stroke: #aaa; stroke-width: 1;" x1="458.2664133494536" y1="690.8599755773117" x2="615.7399074604344" y2="775.8379214252022"></line><line style="stroke: #aaa; stroke-width: 1.41421;" x1="458.2664133494536" y1="690.8599755773117" x2="69.72463368492716" y2="627.0240378642573"></line><line style="stroke: #aaa; stroke-width: 1.41421;" x1="638.2145176620074" y1="31.480259337032113" x2="615.7399074604344" y2="775.8379214252022"></line><line style="stroke: #aaa; stroke-width: 1;" x1="638.2145176620074" y1="31.480259337032113" x2="648.2477983724268" y2="647.9369090653827"></line><line style="stroke: #aaa; stroke-width: 1;" x1="638.2145176620074" y1="31.480259337032113" x2="69.72463368492716" y2="627.0240378642573"></line><line style="stroke: #aaa; stroke-width: 1.41421;" x1="638.2145176620074" y1="31.480259337032113" x2="474.1939250330535" y2="580.3530280396299"></line><line style="stroke: #aaa; stroke-width: 1.41421;" x1="648.2477983724268" y1="647.9369090653827" x2="69.72463368492716" y2="627.0240378642573"></line><line style="stroke: #aaa; stroke-width: 1;" x1="648.2477983724268" y1="647.9369090653827" x2="739.4634886870837" y2="334.6107671936029"></line><line style="stroke: #aaa; stroke-width: 1;" x1="648.2477983724268" y1="647.9369090653827" x2="474.1939250330535" y2="580.3530280396299"></line><line style="stroke: #aaa; stroke-width: 1.41421;" x1="648.2477983724268" y1="647.9369090653827" x2="551.5167014624323" y2="539.6852523526283"></line><line style="stroke: #aaa; stroke-width: 1.41421;" x1="739.4634886870837" y1="334.6107671936029" x2="474.1939250330535" y2="580.3530280396299"></line><line style="stroke: #aaa; stroke-width: 1;" x1="739.4634886870837" y1="334.6107671936029" x2="342.66970889731266" y2="463.79486961940813"></line><line style="stroke: #aaa; stroke-width: 1;" x1="739.4634886870837" y1="334.6107671936029" x2="551.5167014624323" y2="539.6852523526283"></line><line style="stroke: #aaa; stroke-width: 1.41421;" x1="739.4634886870837" y1="334.6107671936029" x2="318.9926095612098" y2="448.90365562595514"></line><line style="stroke: #aaa; stroke-width: 1.41421;" x1="342.66970889731266" y1="463.79486961940813" x2="551.5167014624323" y2="539.6852523526283"></line><line style="stroke: #aaa; stroke-width: 1;" x1="139.16579045979904" y1="602.5624227953172" x2="194.51061195095667" y2="639.4112495871475"></line><line style="stroke: #aaa; stroke-width: 1;" x1="139.16579045979904" y1="602.5624227953172" x2="177.5552464843147" y2="422.6614892183629"></line><line style="stroke: #aaa; stroke-width: 1.41421;" x1="139.16579045979904" y1="602.5624227953172" x2="328.1181702578523" y2="288.6267843561471"></line><line style="stroke: #aaa; stroke-width: 1.41421;" x1="194.51061195095667" y1="639.4112495871475" x2="177.5552464843147" y2="422.6614892183629"></line><line style="stroke: #aaa; stroke-width: 1;" x1="194.51061195095667" y1="639.4112495871475" x2="776.6531422747845" y2="273.03319081715006"></line><line style="stroke: #aaa; stroke-width: 1;" x1="194.51061195095667" y1="639.4112495871475" x2="328.1181702578523" y2="288.6267843561471"></line><line style="stroke: #aaa; stroke-width: 1.41421;" x1="194.51061195095667" y1="639.4112495871475" x2="472.90469394371877" y2="291.3768113746297"></line><line style="stroke: #aaa; stroke-width: 1.41421;" x1="776.6531422747845" y1="273.03319081715006" x2="328.1181702578523" y2="288.6267843561471"></line><line style="stroke: #aaa; stroke-width: 1;" x1="776.6531422747845" y1="273.03319081715006" x2="247.9954709952801" y2="28.22935510164508"></line><line style="stroke: #aaa; stroke-width: 1;" x1="776.6531422747845" y1="273.03319081715006" x2="472.90469394371877" y2="291.3768113746297"></line><line style="stroke: #aaa; stroke-width: 1.41421;" x1="776.6531422747845" y1="273.03319081715006" x2="758.5716666515161" y2="136.3877450222865"></line><line style="stroke: #aaa; stroke-width: 1.41421;" x1="247.9954709952801" y1="28.22935510164508" x2="472.90469394371877" y2="291.3768113746297"></line><line style="stroke: #aaa; stroke-width: 1;" x1="247.9954709952801" y1="28.22935510164508" x2="184.59439449812794" y2="714.3547632827406"></line><line style="stroke: #aaa; stroke-width: 1;" x1="247.9954709952801" y1="28.22935510164508" x2="758.5716666515161" y2="136.3877450222865"></line><line style="stroke: #aaa; stroke-width: 1.41421;" x1="247.9954709952801" y1="28.22935510164508" x2="320.9788468006581" y2="315.13566308406644"></line><line style="stroke: #aaa; stroke-width: 1.41421;" x1="184.59439449812794" y1="714.3547632827406" x2="758.5716666515161" y2="136.3877450222865"></line><line style="stroke: #aaa; stroke-width: 1;" x1="184.59439449812794" y1="714.3547632827406" x2="669.144165573302" y2="750.9345364890921"></line><line style="stroke: #aaa; stroke-width: 1;" x1="184.59439449812794" y1="714.3547632827406" x2="320.9788468006581" y2="315.13566308406644"></line><line style="stroke: #aaa; stroke-width: 1.41421;" x1="184.59439449812794" y1="714.3547632827406" x2="575.8670104831713" y2="316.1136210523977"></line><line style="stroke: #aaa; stroke-width: 1.41421;" x1="669.144165573302" y1="750.9345364890921" x2="320.9788468006581" y2="315.13566308406644"></line><line style="stroke: #aaa; stroke-width: 1;" x1="669.144165573302" y1="750.9345364890921" x2="615.7399074604344" y2="775.8379214252022"></line><line style="stroke: #aaa; stroke-width: 1;" x1="669.144165573302" y1="750.9345364890921" x2="575.8670104831713" y2="316.1136210523977"></line><line style="stroke: #aaa; stroke-width: 1.41421;" x1="669.144165573302" y1="750.9345364890921" x2="729.8059618428324" y2="352.61240951333406"></line><line style="stroke: #aaa; stroke-width: 1.41421;" x1="615.7399074604344" y1="775.8379214252022" x2="575.8670104831713" y2="316.1136210523977"></line><line style="stroke: #aaa; stroke-width: 1;" x1="615.7399074604344" y1="775.8379214252022" x2="69.72463368492716" y2="627.0240378642573"></line><line style="stroke: #aaa; stroke-width: 1;" x1="615.7399074604344" y1="775.8379214252022" x2="729.8059618428324" y2="352.61240951333406"></line><line style="stroke: #aaa; stroke-width: 1.41421;" x1="615.7399074604344" y1="775.8379214252022" x2="680.0521582969973" y2="494.0420963110429"></line><line style="stroke: #aaa; stroke-width: 1.41421;" x1="69.72463368492716" y1="627.0240378642573" x2="729.8059618428324" y2="352.61240951333406"></line><line style="stroke: #aaa; stroke-width: 1;" x1="69.72463368492716" y1="627.0240378642573" x2="474.1939250330535" y2="580.3530280396299"></line><line style="stroke: #aaa; stroke-width: 1;" x1="69.72463368492716" y1="627.0240378642573" x2="680.0521582969973" y2="494.0420963110429"></line><line style="stroke: #aaa; stroke-width: 1.41421;" x1="69.72463368492716" y1="627.0240378642573" x2="109.60405549949853" y2="380.123656777397"></line><line style="stroke: #aaa; stroke-width: 1.41421;" x1="474.1939250330535" y1="580.3530280396299" x2="680.0521582969973" y2="494.0420963110429"></line><line style="stroke: #aaa; stroke-width: 1;" x1="474.1939250330535" y1="580.3530280396299" x2="551.5167014624323" y2="539.6852523526283"></line><line style="stroke: #aaa; stroke-width: 1;" x1="474.1939250330535" y1="580.3530280396299" x2="109.60405549949853" y2="380.123656777397"></line><line style="stroke: #aaa; stroke-width: 1.41421;" x1="474.1939250330535" y1="580.3530280396299" x2="278.9984273728036" y2="424.55795237272787"></line><line style="stroke: #aaa; stroke-width: 1.41421;" x1="551.5167014624323" y1="539.6852523526283" x2="109.60405549949853" y2="380.123656777397"></line><line style="stroke: #aaa; stroke-width: 1;" x1="551.5167014624323" y1="539.6852523526283" x2="318.9926095612098" y2="448.90365562595514"></line><line style="stroke: #aaa; stroke-width: 1;" x1="551.5167014624323" y1="539.6852523526283" x2="278.9984273728036" y2="424.55795237272787"></line><line style="stroke: #aaa; stroke-width: 1.41421;" x1="551.5167014624323" y1="539.6852523526283" x2="567.5351770543896" y2="776.5441391103395"></line><line style="stroke: #aaa; stroke-width: 1.41421;" x1="318.9926095612098" y1="448.90365562595514" x2="278.9984273728036" y2="424.55795237272787"></line><line style="stroke: #aaa; stroke-width: 1;" x1="177.5552464843147" y1="422.6614892183629" x2="328.1181702578523" y2="288.6267843561471"></line><line style="stroke: #aaa; stroke-width: 1;" x1="177.5552464843147" y1="422.6614892183629" x2="570.9073665009197" y2="718.3564076225454"></line><line style="stroke: #aaa; stroke-width: 1.41421;" x1="177.5552464843147" y1="422.6614892183629" x2="405.87120213562173" y2="446.37931121554897"></line><line style="stroke: #aaa; stroke-width: 1.41421;" x1="328.1181702578523" y1="288.6267843561471" x2="570.9073665009197" y2="718.3564076225454"></line><line style="stroke: #aaa; stroke-width: 1;" x1="328.1181702578523" y1="288.6267843561471" x2="472.90469394371877" y2="291.3768113746297"></line><line style="stroke: #aaa; stroke-width: 1;" x1="328.1181702578523" y1="288.6267843561471" x2="405.87120213562173" y2="446.37931121554897"></line><line style="stroke: #aaa; stroke-width: 1.41421;" x1="328.1181702578523" y1="288.6267843561471" x2="404.0991484380287" y2="372.84454827622085"></line><line style="stroke: #aaa; stroke-width: 1.41421;" x1="472.90469394371877" y1="291.3768113746297" x2="405.87120213562173" y2="446.37931121554897"></line><line style="stroke: #aaa; stroke-width: 1;" x1="472.90469394371877" y1="291.3768113746297" x2="758.5716666515161" y2="136.3877450222865"></line><line style="stroke: #aaa; stroke-width: 1;" x1="472.90469394371877" y1="291.3768113746297" x2="404.0991484380287" y2="372.84454827622085"></line><line style="stroke: #aaa; stroke-width: 1.41421;" x1="472.90469394371877" y1="291.3768113746297" x2="437.4156816283409" y2="361.4147988562344"></line><line style="stroke: #aaa; stroke-width: 1.41421;" x1="758.5716666515161" y1="136.3877450222865" x2="404.0991484380287" y2="372.84454827622085"></line><line style="stroke: #aaa; stroke-width: 1;" x1="758.5716666515161" y1="136.3877450222865" x2="320.9788468006581" y2="315.13566308406644"></line><line style="stroke: #aaa; stroke-width: 1;" x1="758.5716666515161" y1="136.3877450222865" x2="437.4156816283409" y2="361.4147988562344"></line><line style="stroke: #aaa; stroke-width: 1.41421;" x1="758.5716666515161" y1="136.3877450222865" x2="673.7368834104497" y2="481.6614094254609"></line><line style="stroke: #aaa; stroke-width: 1.41421;" x1="320.9788468006581" y1="315.13566308406644" x2="437.4156816283409" y2="361.4147988562344"></line><line style="stroke: #aaa; stroke-width: 1;" x1="320.9788468006581" y1="315.13566308406644" x2="575.8670104831713" y2="316.1136210523977"></line><line style="stroke: #aaa; stroke-width: 1;" x1="320.9788468006581" y1="315.13566308406644" x2="673.7368834104497" y2="481.6614094254609"></line><line style="stroke: #aaa; stroke-width: 1.41421;" x1="320.9788468006581" y1="315.13566308406644" x2="400.5328757866924" y2="770.0546126862635"></line><line style="stroke: #aaa; stroke-width: 1.41421;" x1="575.8670104831713" y1="316.1136210523977" x2="673.7368834104497" y2="481.6614094254609"></line><line style="stroke: #aaa; stroke-width: 1;" x1="575.8670104831713" y1="316.1136210523977" x2="729.8059618428324" y2="352.61240951333406"></line><line style="stroke: #aaa; stroke-width: 1;" x1="575.8670104831713" y1="316.1136210523977" x2="400.5328757866924" y2="770.0546126862635"></line><line style="stroke: #aaa; stroke-width: 1.41421;" x1="575.8670104831713" y1="316.1136210523977" x2="44.17951180884448" y2="767.8104524661562"></line><line style="stroke: #aaa; stroke-width: 1.41421;" x1="729.8059618428324" y1="352.61240951333406" x2="400.5328757866924" y2="770.0546126862635"></line><line style="stroke: #aaa; stroke-width: 1;" x1="729.8059618428324" y1="352.61240951333406" x2="680.0521582969973" y2="494.0420963110429"></line><line style="stroke: #aaa; stroke-width: 1;" x1="729.8059618428324" y1="352.61240951333406" x2="44.17951180884448" y2="767.8104524661562"></line><line style="stroke: #aaa; stroke-width: 1.41421;" x1="729.8059618428324" y1="352.61240951333406" x2="296.6285377799191" y2="539.4545801630807"></line><line style="stroke: #aaa; stroke-width: 1.41421;" x1="680.0521582969973" y1="494.0420963110429" x2="44.17951180884448" y2="767.8104524661562"></line><line style="stroke: #aaa; stroke-width: 1;" x1="680.0521582969973" y1="494.0420963110429" x2="109.60405549949853" y2="380.123656777397"></line><line style="stroke: #aaa; stroke-width: 1;" x1="680.0521582969973" y1="494.0420963110429" x2="296.6285377799191" y2="539.4545801630807"></line><line style="stroke: #aaa; stroke-width: 1.41421;" x1="680.0521582969973" y1="494.0420963110429" x2="283.6149416754288" y2="674.829985566575"></line><line style="stroke: #aaa; stroke-width: 1.41421;" x1="109.60405549949853" y1="380.123656777397" x2="296.6285377799191" y2="539.4545801630807"></line><line style="stroke: #aaa; stroke-width: 1;" x1="109.60405549949853" y1="380.123656777397" x2="278.9984273728036" y2="424.55795237272787"></line><line style="stroke: #aaa; stroke-width: 1;" x1="109.60405549949853" y1="380.123656777397" x2="283.6149416754288" y2="674.829985566575"></line><line style="stroke: #aaa; stroke-width: 1.41421;" x1="109.60405549949853" y1="380.123656777397" x2="52.42537091074004" y2="524.562598541709"></line><line style="stroke: #aaa; stroke-width: 1.41421;" x1="278.9984273728036" y1="424.55795237272787" x2="283.6149416754288" y2="674.829985566575"></line><line style="stroke: #aaa; stroke-width: 1;" x1="278.9984273728036" y1="424.55795237272787" x2="567.5351770543896" y2="776.5441391103395"></line><line style="stroke: #aaa; stroke-width: 1;" x1="278.9984273728036" y1="424.55795237272787" x2="52.42537091074004" y2="524.562598541709"></line><line style="stroke: #aaa; stroke-width: 1.41421;" x1="278.9984273728036" y1="424.55795237272787" x2="593.5120896347001" y2="119.92788337711845"></line><line style="stroke: #aaa; stroke-width: 1.41421;" x1="567.5351770543896" y1="776.5441391103395" x2="52.42537091074004" y2="524.562598541709"></line><line style="stroke: #aaa; stroke-width: 1;" x1="570.9073665009197" y1="718.3564076225454" x2="405.87120213562173" y2="446.37931121554897"></line><line style="stroke: #aaa; stroke-width: 1;" x1="570.9073665009197" y1="718.3564076225454" x2="771.9237866681212" y2="91.03360089206447"></line><line style="stroke: #aaa; stroke-width: 1.41421;" x1="570.9073665009197" y1="718.3564076225454" x2="234.8245111674712" y2="633.5596219634509"></line><line style="stroke: #aaa; stroke-width: 1.41421;" x1="405.87120213562173" y1="446.37931121554897" x2="771.9237866681212" y2="91.03360089206447"></line><line style="stroke: #aaa; stroke-width: 1;" x1="405.87120213562173" y1="446.37931121554897" x2="404.0991484380287" y2="372.84454827622085"></line><line style="stroke: #aaa; stroke-width: 1;" x1="405.87120213562173" y1="446.37931121554897" x2="234.8245111674712" y2="633.5596219634509"></line><line style="stroke: #aaa; stroke-width: 1.41421;" x1="405.87120213562173" y1="446.37931121554897" x2="77.371359196334" y2="499.43429862544104"></line><line style="stroke: #aaa; stroke-width: 1.41421;" x1="404.0991484380287" y1="372.84454827622085" x2="234.8245111674712" y2="633.5596219634509"></line><line style="stroke: #aaa; stroke-width: 1;" x1="404.0991484380287" y1="372.84454827622085" x2="437.4156816283409" y2="361.4147988562344"></line><line style="stroke: #aaa; stroke-width: 1;" x1="404.0991484380287" y1="372.84454827622085" x2="77.371359196334" y2="499.43429862544104"></line><line style="stroke: #aaa; stroke-width: 1.41421;" x1="404.0991484380287" y1="372.84454827622085" x2="24.04962108471888" y2="540.0437345906271"></line><line style="stroke: #aaa; stroke-width: 1.41421;" x1="437.4156816283409" y1="361.4147988562344" x2="77.371359196334" y2="499.43429862544104"></line><line style="stroke: #aaa; stroke-width: 1;" x1="437.4156816283409" y1="361.4147988562344" x2="673.7368834104497" y2="481.6614094254609"></line><line style="stroke: #aaa; stroke-width: 1;" x1="437.4156816283409" y1="361.4147988562344" x2="24.04962108471888" y2="540.0437345906271"></line><line style="stroke: #aaa; stroke-width: 1.41421;" x1="437.4156816283409" y1="361.4147988562344" x2="427.6983949506244" y2="354.5694768918746"></line><line style="stroke: #aaa; stroke-width: 1.41421;" x1="673.7368834104497" y1="481.6614094254609" x2="24.04962108471888" y2="540.0437345906271"></line><line style="stroke: #aaa; stroke-width: 1;" x1="673.7368834104497" y1="481.6614094254609" x2="400.5328757866924" y2="770.0546126862635"></line><line style="stroke: #aaa; stroke-width: 1;" x1="673.7368834104497" y1="481.6614094254609" x2="427.6983949506244" y2="354.5694768918746"></line><line style="stroke: #aaa; stroke-width: 1.41421;" x1="673.7368834104497" y1="481.6614094254609" x2="171.0173595013651" y2="123.77024492380791"></line><line style="stroke: #aaa; stroke-width: 1.41421;" x1="400.5328757866924" y1="770.0546126862635" x2="427.6983949506244" y2="354.5694768918746"></line><line style="stroke: #aaa; stroke-width: 1;" x1="400.5328757866924" y1="770.0546126862635" x2="44.17951180884448" y2="767.8104524661562"></line><line style="stroke: #aaa; stroke-width: 1;" x1="400.5328757866924" y1="770.0546126862635" x2="171.0173595013651" y2="123.77024492380791"></line><line style="stroke: #aaa; stroke-width: 1.41421;" x1="400.5328757866924" y1="770.0546126862635" x2="311.3259257239186" y2="603.0924698731294"></line><line style="stroke: #aaa; stroke-width: 1.41421;" x1="44.17951180884448" y1="767.8104524661562" x2="171.0173595013651" y2="123.77024492380791"></line><line style="stroke: #aaa; stroke-width: 1;" x1="44.17951180884448" y1="767.8104524661562" x2="296.6285377799191" y2="539.4545801630807"></line><line style="stroke: #aaa; stroke-width: 1;" x1="44.17951180884448" y1="767.8104524661562" x2="311.3259257239186" y2="603.0924698731294"></line><line style="stroke: #aaa; stroke-width: 1.41421;" x1="44.17951180884448" y1="767.8104524661562" x2="48.9031102061182" y2="212.01252849566143"></line><line style="stroke: #aaa; stroke-width: 1.41421;" x1="296.6285377799191" y1="539.4545801630807" x2="311.3259257239186" y2="603.0924698731294"></line><line style="stroke: #aaa; stroke-width: 1;" x1="296.6285377799191" y1="539.4545801630807" x2="283.6149416754288" y2="674.829985566575"></line><line style="stroke: #aaa; stroke-width: 1;" x1="296.6285377799191" y1="539.4545801630807" x2="48.9031102061182" y2="212.01252849566143"></line><line style="stroke: #aaa; stroke-width: 1.41421;" x1="296.6285377799191" y1="539.4545801630807" x2="405.31274898668073" y2="649.2910047138415"></line><line style="stroke: #aaa; stroke-width: 1.41421;" x1="283.6149416754288" y1="674.829985566575" x2="48.9031102061182" y2="212.01252849566143"></line><line style="stroke: #aaa; stroke-width: 1;" x1="283.6149416754288" y1="674.829985566575" x2="52.42537091074004" y2="524.562598541709"></line><line style="stroke: #aaa; stroke-width: 1;" x1="283.6149416754288" y1="674.829985566575" x2="405.31274898668073" y2="649.2910047138415"></line><line style="stroke: #aaa; stroke-width: 1.41421;" x1="283.6149416754288" y1="674.829985566575" x2="771.4344238699963" y2="649.943872258634"></line><line style="stroke: #aaa; stroke-width: 1.41421;" x1="52.42537091074004" y1="524.562598541709" x2="405.31274898668073" y2="649.2910047138415"></line><line style="stroke: #aaa; stroke-width: 1;" x1="52.42537091074004" y1="524.562598541709" x2="593.5120896347001" y2="119.92788337711845"></line><line style="stroke: #aaa; stroke-width: 1;" x1="52.42537091074004" y1="524.562598541709" x2="771.4344238699963" y2="649.943872258634"></line><line style="stroke: #aaa; stroke-width: 1.41421;" x1="52.42537091074004" y1="524.562598541709" x2="249.52765632086042" y2="54.63997745598011"></line><line style="stroke: #aaa; stroke-width: 1.41421;" x1="593.5120896347001" y1="119.92788337711845" x2="771.4344238699963" y2="649.943872258634"></line><line style="stroke: #aaa; stroke-width: 1;" x1="771.9237866681212" y1="91.03360089206447" x2="234.8245111674712" y2="633.5596219634509"></line><line style="stroke: #aaa; stroke-width: 1;" x1="771.9237866681212" y1="91.03360089206447" x2="208.09110127335333" y2="435.4690923708895"></line><line style="stroke: #aaa; stroke-width: 1.41421;" x1="771.9237866681212" y1="91.03360089206447" x2="699.2797024027764" y2="281.7772404382348"></line><line style="stroke: #aaa; stroke-width: 1.41421;" x1="234.8245111674712" y1="633.5596219634509" x2="208.09110127335333" y2="435.4690923708895"></line><line style="stroke: #aaa; stroke-width: 1;" x1="234.8245111674712" y1="633.5596219634509" x2="77.371359196334" y2="499.43429862544104"></line><line style="stroke: #aaa; stroke-width: 1;" x1="234.8245111674712" y1="633.5596219634509" x2="699.2797024027764" y2="281.7772404382348"></line><line style="stroke: #aaa; stroke-width: 1.41421;" x1="234.8245111674712" y1="633.5596219634509" x2="43.374270122204344" y2="142.86153507403068"></line><line style="stroke: #aaa; stroke-width: 1.41421;" x1="77.371359196334" y1="499.43429862544104" x2="699.2797024027764" y2="281.7772404382348"></line><line style="stroke: #aaa; stroke-width: 1;" x1="77.371359196334" y1="499.43429862544104" x2="24.04962108471888" y2="540.0437345906271"></line><line style="stroke: #aaa; stroke-width: 1;" x1="77.371359196334" y1="499.43429862544104" x2="43.374270122204344" y2="142.86153507403068"></line><line style="stroke: #aaa; stroke-width: 1.41421;" x1="77.371359196334" y1="499.43429862544104" x2="691.3255419099593" y2="179.27012725452826"></line><line style="stroke: #aaa; stroke-width: 1.41421;" x1="24.04962108471888" y1="540.0437345906271" x2="43.374270122204344" y2="142.86153507403068"></line><line style="stroke: #aaa; stroke-width: 1;" x1="24.04962108471888" y1="540.0437345906271" x2="427.6983949506244" y2="354.5694768918746"></line><line style="stroke: #aaa; stroke-width: 1;" x1="24.04962108471888" y1="540.0437345906271" x2="691.3255419099593" y2="179.27012725452826"></line><line style="stroke: #aaa; stroke-width: 1.41421;" x1="24.04962108471888" y1="540.0437345906271" x2="227.20925840072806" y2="395.848668216063"></line><line style="stroke: #aaa; stroke-width: 1.41421;" x1="427.6983949506244" y1="354.5694768918746" x2="691.3255419099593" y2="179.27012725452826"></line><line style="stroke: #aaa; stroke-width: 1;" x1="427.6983949506244" y1="354.5694768918746" x2="171.0173595013651" y2="123.77024492380791"></line><line style="stroke: #aaa; stroke-width: 1;" x1="427.6983949506244" y1="354.5694768918746" x2="227.20925840072806" y2="395.848668216063"></line><line style="stroke: #aaa; stroke-width: 1.41421;" x1="427.6983949506244" y1="354.5694768918746" x2="189.33987029108252" y2="394.2055606562411"></line><line style="stroke: #aaa; stroke-width: 1.41421;" x1="171.0173595013651" y1="123.77024492380791" x2="227.20925840072806" y2="395.848668216063"></line><line style="stroke: #aaa; stroke-width: 1;" x1="171.0173595013651" y1="123.77024492380791" x2="311.3259257239186" y2="603.0924698731294"></line><line style="stroke: #aaa; stroke-width: 1;" x1="171.0173595013651" y1="123.77024492380791" x2="189.33987029108252" y2="394.2055606562411"></line><line style="stroke: #aaa; stroke-width: 1.41421;" x1="171.0173595013651" y1="123.77024492380791" x2="750.8777320231137" y2="518.305663376977"></line><line style="stroke: #aaa; stroke-width: 1.41421;" x1="311.3259257239186" y1="603.0924698731294" x2="189.33987029108252" y2="394.2055606562411"></line><line style="stroke: #aaa; stroke-width: 1;" x1="311.3259257239186" y1="603.0924698731294" x2="48.9031102061182" y2="212.01252849566143"></line><line style="stroke: #aaa; stroke-width: 1;" x1="311.3259257239186" y1="603.0924698731294" x2="750.8777320231137" y2="518.305663376977"></line><line style="stroke: #aaa; stroke-width: 1.41421;" x1="311.3259257239186" y1="603.0924698731294" x2="599.3172757693197" y2="351.943037968291"></line><line style="stroke: #aaa; stroke-width: 1.41421;" x1="48.9031102061182" y1="212.01252849566143" x2="750.8777320231137" y2="518.305663376977"></line><line style="stroke: #aaa; stroke-width: 1;" x1="48.9031102061182" y1="212.01252849566143" x2="405.31274898668073" y2="649.2910047138415"></line><line style="stroke: #aaa; stroke-width: 1;" x1="48.9031102061182" y1="212.01252849566143" x2="599.3172757693197" y2="351.943037968291"></line><line style="stroke: #aaa; stroke-width: 1.41421;" x1="48.9031102061182" y1="212.01252849566143" x2="442.24333198998454" y2="58.63778365619162"></line><line style="stroke: #aaa; stroke-width: 1.41421;" x1="405.31274898668073" y1="649.2910047138415" x2="599.3172757693197" y2="351.943037968291"></line><line style="stroke: #aaa; stroke-width: 1;" x1="405.31274898668073" y1="649.2910047138415" x2="771.4344238699963" y2="649.943872258634"></line><line style="stroke: #aaa; stroke-width: 1;" x1="405.31274898668073" y1="649.2910047138415" x2="442.24333198998454" y2="58.63778365619162"></line><line style="stroke: #aaa; stroke-width: 1.41421;" x1="405.31274898668073" y1="649.2910047138415" x2="265.40450456183095" y2="328.71154663895123"></line><line style="stroke: #aaa; stroke-width: 1.41421;" x1="771.4344238699963" y1="649.943872258634" x2="442.24333198998454" y2="58.63778365619162"></line><line style="stroke: #aaa; stroke-width: 1;" x1="771.4344238699963" y1="649.943872258634" x2="249.52765632086042" y2="54.63997745598011"></line><line style="stroke: #aaa; stroke-width: 1;" x1="771.4344238699963" y1="649.943872258634" x2="265.40450456183095" y2="328.71154663895123"></line><line style="stroke: #aaa; stroke-width: 1.41421;" x1="771.4344238699963" y1="649.943872258634" x2="715.1753575277534" y2="638.9525919057677"></line><line style="stroke: #aaa; stroke-width: 1.41421;" x1="249.52765632086042" y1="54.63997745598011" x2="265.40450456183095" y2="328.71154663895123"></line><line style="stroke: #aaa; stroke-width: 1;" x1="208.09110127335333" y1="435.4690923708895" x2="699.2797024027764" y2="281.7772404382348"></line><line style="stroke: #aaa; stroke-width: 1;" x1="208.09110127335333" y1="435.4690923708895" x2="216.11166158113173" y2="117.51023924740147"></line><line style="stroke: #aaa; stroke-width: 1.41421;" x1="208.09110127335333" y1="435.4690923708895" x2="396.5279037798605" y2="308.38399172577914"></line><line style="stroke: #aaa; stroke-width: 1.41421;" x1="699.2797024027764" y1="281.7772404382348" x2="216.11166158113173" y2="117.51023924740147"></line><line style="stroke: #aaa; stroke-width: 1;" x1="699.2797024027764" y1="281.7772404382348" x2="43.374270122204344" y2="142.86153507403068"></line><line style="stroke: #aaa; stroke-width: 1;" x1="699.2797024027764" y1="281.7772404382348" x2="396.5279037798605" y2="308.38399172577914"></line><line style="stroke: #aaa; stroke-width: 1.41421;" x1="699.2797024027764" y1="281.7772404382348" x2="569.3540714075772" y2="238.7635938319077"></line><line style="stroke: #aaa; stroke-width: 1.41421;" x1="43.374270122204344" y1="142.86153507403068" x2="396.5279037798605" y2="308.38399172577914"></line><line style="stroke: #aaa; stroke-width: 1;" x1="43.374270122204344" y1="142.86153507403068" x2="691.3255419099593" y2="179.27012725452826"></line><line style="stroke: #aaa; stroke-width: 1;" x1="43.374270122204344" y1="142.86153507403068" x2="569.3540714075772" y2="238.7635938319077"></line><line style="stroke: #aaa; stroke-width: 1.41421;" x1="43.374270122204344" y1="142.86153507403068" x2="496.4029359747815" y2="641.0535895190509"></line><line style="stroke: #aaa; stroke-width: 1.41421;" x1="691.3255419099593" y1="179.27012725452826" x2="569.3540714075772" y2="238.7635938319077"></line><line style="stroke: #aaa; stroke-width: 1;" x1="691.3255419099593" y1="179.27012725452826" x2="227.20925840072806" y2="395.848668216063"></line><line style="stroke: #aaa; stroke-width: 1;" x1="691.3255419099593" y1="179.27012725452826" x2="496.4029359747815" y2="641.0535895190509"></line><line style="stroke: #aaa; stroke-width: 1.41421;" x1="691.3255419099593" y1="179.27012725452826" x2="257.7263063057604" y2="313.9185890190827"></line><line style="stroke: #aaa; stroke-width: 1.41421;" x1="227.20925840072806" y1="395.848668216063" x2="496.4029359747815" y2="641.0535895190509"></line><line style="stroke: #aaa; stroke-width: 1;" x1="227.20925840072806" y1="395.848668216063" x2="189.33987029108252" y2="394.2055606562411"></line><line style="stroke: #aaa; stroke-width: 1;" x1="227.20925840072806" y1="395.848668216063" x2="257.7263063057604" y2="313.9185890190827"></line><line style="stroke: #aaa; stroke-width: 1.41421;" x1="227.20925840072806" y1="395.848668216063" x2="281.8467107648705" y2="644.0435002621045"></line><line style="stroke: #aaa; stroke-width: 1.41421;" x1="189.33987029108252" y1="394.2055606562411" x2="257.7263063057604" y2="313.9185890190827"></line><line style="stroke: #aaa; stroke-width: 1;" x1="189.33987029108252" y1="394.2055606562411" x2="750.8777320231137" y2="518.305663376977"></line><line style="stroke: #aaa; stroke-width: 1;" x1="189.33987029108252" y1="394.2055606562411" x2="281.8467107648705" y2="644.0435002621045"></line><line style="stroke: #aaa; stroke-width: 1.41421;" x1="189.33987029108252" y1="394.2055606562411" x2="531.5982922298884" y2="309.0890579690383"></line><line style="stroke: #aaa; stroke-width: 1.41421;" x1="750.8777320231137" y1="518.305663376977" x2="281.8467107648705" y2="644.0435002621045"></line><line style="stroke: #aaa; stroke-width: 1;" x1="750.8777320231137" y1="518.305663376977" x2="599.3172757693197" y2="351.943037968291"></line><line style="stroke: #aaa; stroke-width: 1;" x1="750.8777320231137" y1="518.305663376977" x2="531.5982922298884" y2="309.0890579690383"></line><line style="stroke: #aaa; stroke-width: 1.41421;" x1="750.8777320231137" y1="518.305663376977" x2="369.7914617554641" y2="250.89902359748828"></line><line style="stroke: #aaa; stroke-width: 1.41421;" x1="599.3172757693197" y1="351.943037968291" x2="531.5982922298884" y2="309.0890579690383"></line><line style="stroke: #aaa; stroke-width: 1;" x1="599.3172757693197" y1="351.943037968291" x2="442.24333198998454" y2="58.63778365619162"></line><line style="stroke: #aaa; stroke-width: 1;" x1="599.3172757693197" y1="351.943037968291" x2="369.7914617554641" y2="250.89902359748828"></line><line style="stroke: #aaa; stroke-width: 1.41421;" x1="599.3172757693197" y1="351.943037968291" x2="716.8115564363077" y2="392.91302876685626"></line><line style="stroke: #aaa; stroke-width: 1.41421;" x1="442.24333198998454" y1="58.63778365619162" x2="369.7914617554641" y2="250.89902359748828"></line><line style="stroke: #aaa; stroke-width: 1;" x1="442.24333198998454" y1="58.63778365619162" x2="265.40450456183095" y2="328.71154663895123"></line><line style="stroke: #aaa; stroke-width: 1;" x1="442.24333198998454" y1="58.63778365619162" x2="716.8115564363077" y2="392.91302876685626"></line><line style="stroke: #aaa; stroke-width: 1.41421;" x1="442.24333198998454" y1="58.63778365619162" x2="598.0019453307517" y2="100.78784885406287"></line><line style="stroke: #aaa; stroke-width: 1.41421;" x1="265.40450456183095" y1="328.71154663895123" x2="716.8115564363077" y2="392.91302876685626"></line><line style="stroke: #aaa; stroke-width: 1;" x1="265.40450456183095" y1="328.71154663895123" x2="715.1753575277534" y2="638.9525919057677"></line><line style="stroke: #aaa; stroke-width: 1;" x1="265.40450456183095" y1="328.71154663895123" x2="598.0019453307517" y2="100.78784885406287"></line><line style="stroke: #aaa; stroke-width: 1.41421;" x1="265.40450456183095" y1="328.71154663895123" x2="319.96711320390733" y2="685.8162763379704"></line><line style="stroke: #aaa; stroke-width: 1.41421;" x1="715.1753575277534" y1="638.9525919057677" x2="598.0019453307517" y2="100.78784885406287"></line><line style="stroke: #aaa; stroke-width: 1;" x1="216.11166158113173" y1="117.51023924740147" x2="396.5279037798605" y2="308.38399172577914"></line><line style="stroke: #aaa; stroke-width: 1;" x1="216.11166158113173" y1="117.51023924740147" x2="294.8430352411917" y2="721.8418221870729"></line><line style="stroke: #aaa; stroke-width: 1.41421;" x1="216.11166158113173" y1="117.51023924740147" x2="435.2767248144816" y2="125.41488773946712"></line><line style="stroke: #aaa; stroke-width: 1.41421;" x1="396.5279037798605" y1="308.38399172577914" x2="294.8430352411917" y2="721.8418221870729"></line><line style="stroke: #aaa; stroke-width: 1;" x1="396.5279037798605" y1="308.38399172577914" x2="569.3540714075772" y2="238.7635938319077"></line><line style="stroke: #aaa; stroke-width: 1;" x1="396.5279037798605" y1="308.38399172577914" x2="435.2767248144816" y2="125.41488773946712"></line><line style="stroke: #aaa; stroke-width: 1.41421;" x1="396.5279037798605" y1="308.38399172577914" x2="171.26453569116313" y2="746.2577633948548"></line><line style="stroke: #aaa; stroke-width: 1.41421;" x1="569.3540714075772" y1="238.7635938319077" x2="435.2767248144816" y2="125.41488773946712"></line><line style="stroke: #aaa; stroke-width: 1;" x1="569.3540714075772" y1="238.7635938319077" x2="496.4029359747815" y2="641.0535895190509"></line><line style="stroke: #aaa; stroke-width: 1;" x1="569.3540714075772" y1="238.7635938319077" x2="171.26453569116313" y2="746.2577633948548"></line><line style="stroke: #aaa; stroke-width: 1.41421;" x1="569.3540714075772" y1="238.7635938319077" x2="777.8725192235241" y2="202.1254809037405"></line><line style="stroke: #aaa; stroke-width: 1.41421;" x1="496.4029359747815" y1="641.0535895190509" x2="171.26453569116313" y2="746.2577633948548"></line><line style="stroke: #aaa; stroke-width: 1;" x1="496.4029359747815" y1="641.0535895190509" x2="257.7263063057604" y2="313.9185890190827"></line><line style="stroke: #aaa; stroke-width: 1;" x1="496.4029359747815" y1="641.0535895190509" x2="777.8725192235241" y2="202.1254809037405"></line><line style="stroke: #aaa; stroke-width: 1.41421;" x1="496.4029359747815" y1="641.0535895190509" x2="30.51803774103269" y2="316.1481643087359"></line><line style="stroke: #aaa; stroke-width: 1.41421;" x1="257.7263063057604" y1="313.9185890190827" x2="777.8725192235241" y2="202.1254809037405"></line><line style="stroke: #aaa; stroke-width: 1;" x1="257.7263063057604" y1="313.9185890190827" x2="281.8467107648705" y2="644.0435002621045"></line><line style="stroke: #aaa; stroke-width: 1;" x1="257.7263063057604" y1="313.9185890190827" x2="30.51803774103269" y2="316.1481643087359"></line><line style="stroke: #aaa; stroke-width: 1.41421;" x1="257.7263063057604" y1="313.9185890190827" x2="616.3478687719872" y2="383.7171149714716"></line><line style="stroke: #aaa; stroke-width: 1.41421;" x1="281.8467107648705" y1="644.0435002621045" x2="30.51803774103269" y2="316.1481643087359"></line><line style="stroke: #aaa; stroke-width: 1;" x1="281.8467107648705" y1="644.0435002621045" x2="531.5982922298884" y2="309.0890579690383"></line><line style="stroke: #aaa; stroke-width: 1;" x1="281.8467107648705" y1="644.0435002621045" x2="616.3478687719872" y2="383.7171149714716"></line><line style="stroke: #aaa; stroke-width: 1.41421;" x1="281.8467107648705" y1="644.0435002621045" x2="432.4614494229155" y2="31.99994343794289"></line><line style="stroke: #aaa; stroke-width: 1.41421;" x1="531.5982922298884" y1="309.0890579690383" x2="616.3478687719872" y2="383.7171149714716"></line><line style="stroke: #aaa; stroke-width: 1;" x1="531.5982922298884" y1="309.0890579690383" x2="369.7914617554641" y2="250.89902359748828"></line><line style="stroke: #aaa; stroke-width: 1;" x1="531.5982922298884" y1="309.0890579690383" x2="432.4614494229155" y2="31.99994343794289"></line><line style="stroke: #aaa; stroke-width: 1.41421;" x1="531.5982922298884" y1="309.0890579690383" x2="708.842043385118" y2="167.1366165587443"></line><line style="stroke: #aaa; stroke-width: 1.41421;" x1="369.7914617554641" y1="250.89902359748828" x2="432.4614494229155" y2="31.99994343794289"></line><line style="stroke: #aaa; stroke-width: 1;" x1="369.7914617554641" y1="250.89902359748828" x2="716.8115564363077" y2="392.91302876685626"></line><line style="stroke: #aaa; stroke-width: 1;" x1="369.7914617554641" y1="250.89902359748828" x2="708.842043385118" y2="167.1366165587443"></line><line style="stroke: #aaa; stroke-width: 1.41421;" x1="369.7914617554641" y1="250.89902359748828" x2="697.9532413593882" y2="356.5319176658456"></line><line style="stroke: #aaa; stroke-width: 1.41421;" x1="716.8115564363077" y1="392.91302876685626" x2="708.842043385118" y2="167.1366165587443"></line><line style="stroke: #aaa; stroke-width: 1;" x1="716.8115564363077" y1="392.91302876685626" x2="598.0019453307517" y2="100.78784885406287"></line><line style="stroke: #aaa; stroke-width: 1;" x1="716.8115564363077" y1="392.91302876685626" x2="697.9532413593882" y2="356.5319176658456"></line><line style="stroke: #aaa; stroke-width: 1.41421;" x1="716.8115564363077" y1="392.91302876685626" x2="131.31410829411868" y2="201.68524629240767"></line><line style="stroke: #aaa; stroke-width: 1.41421;" x1="598.0019453307517" y1="100.78784885406287" x2="697.9532413593882" y2="356.5319176658456"></line><line style="stroke: #aaa; stroke-width: 1;" x1="598.0019453307517" y1="100.78784885406287" x2="319.96711320390733" y2="685.8162763379704"></line><line style="stroke: #aaa; stroke-width: 1;" x1="598.0019453307517" y1="100.78784885406287" x2="131.31410829411868" y2="201.68524629240767"></line><line style="stroke: #aaa; stroke-width: 1.41421;" x1="598.0019453307517" y1="100.78784885406287" x2="631.6724087255054" y2="380.9359990222845"></line><line style="stroke: #aaa; stroke-width: 1.41421;" x1="319.96711320390733" y1="685.8162763379704" x2="131.31410829411868" y2="201.68524629240767"></line><line style="stroke: #aaa; stroke-width: 1;" x1="294.8430352411917" y1="721.8418221870729" x2="435.2767248144816" y2="125.41488773946712"></line><line style="stroke: #aaa; stroke-width: 1;" x1="294.8430352411917" y1="721.8418221870729" x2="86.78708324621768" y2="512.611399476599"></line><line style="stroke: #aaa; stroke-width: 1.41421;" x1="294.8430352411917" y1="721.8418221870729" x2="503.7936575753261" y2="466.4243790546663"></line><line style="stroke: #aaa; stroke-width: 1.41421;" x1="435.2767248144816" y1="125.41488773946712" x2="86.78708324621768" y2="512.611399476599"></line><line style="stroke: #aaa; stroke-width: 1;" x1="435.2767248144816" y1="125.41488773946712" x2="171.26453569116313" y2="746.2577633948548"></line><line style="stroke: #aaa; stroke-width: 1;" x1="435.2767248144816" y1="125.41488773946712" x2="503.7936575753261" y2="466.4243790546663"></line><line style="stroke: #aaa; stroke-width: 1.41421;" x1="435.2767248144816" y1="125.41488773946712" x2="575.6367221075831" y2="290.06647051753276"></line><line style="stroke: #aaa; stroke-width: 1.41421;" x1="171.26453569116313" y1="746.2577633948548" x2="503.7936575753261" y2="466.4243790546663"></line><line style="stroke: #aaa; stroke-width: 1;" x1="171.26453569116313" y1="746.2577633948548" x2="777.8725192235241" y2="202.1254809037405"></line><line style="stroke: #aaa; stroke-width: 1;" x1="171.26453569116313" y1="746.2577633948548" x2="575.6367221075831" y2="290.06647051753276"></line><line style="stroke: #aaa; stroke-width: 1.41421;" x1="171.26453569116313" y1="746.2577633948548" x2="540.1354661269032" y2="560.7961715567596"></line><line style="stroke: #aaa; stroke-width: 1.41421;" x1="777.8725192235241" y1="202.1254809037405" x2="575.6367221075831" y2="290.06647051753276"></line><line style="stroke: #aaa; stroke-width: 1;" x1="777.8725192235241" y1="202.1254809037405" x2="30.51803774103269" y2="316.1481643087359"></line><line style="stroke: #aaa; stroke-width: 1;" x1="777.8725192235241" y1="202.1254809037405" x2="540.1354661269032" y2="560.7961715567596"></line><line style="stroke: #aaa; stroke-width: 1.41421;" x1="777.8725192235241" y1="202.1254809037405" x2="142.4443293002567" y2="120.49631185086206"></line><line style="stroke: #aaa; stroke-width: 1.41421;" x1="30.51803774103269" y1="316.1481643087359" x2="540.1354661269032" y2="560.7961715567596"></line><line style="stroke: #aaa; stroke-width: 1;" x1="30.51803774103269" y1="316.1481643087359" x2="616.3478687719872" y2="383.7171149714716"></line><line style="stroke: #aaa; stroke-width: 1;" x1="30.51803774103269" y1="316.1481643087359" x2="142.4443293002567" y2="120.49631185086206"></line><line style="stroke: #aaa; stroke-width: 1.41421;" x1="30.51803774103269" y1="316.1481643087359" x2="362.92817729780836" y2="50.11826520130539"></line><line style="stroke: #aaa; stroke-width: 1.41421;" x1="616.3478687719872" y1="383.7171149714716" x2="142.4443293002567" y2="120.49631185086206"></line><line style="stroke: #aaa; stroke-width: 1;" x1="616.3478687719872" y1="383.7171149714716" x2="432.4614494229155" y2="31.99994343794289"></line><line style="stroke: #aaa; stroke-width: 1;" x1="616.3478687719872" y1="383.7171149714716" x2="362.92817729780836" y2="50.11826520130539"></line><line style="stroke: #aaa; stroke-width: 1.41421;" x1="616.3478687719872" y1="383.7171149714716" x2="629.9153084197673" y2="146.45710424488144"></line><line style="stroke: #aaa; stroke-width: 1.41421;" x1="432.4614494229155" y1="31.99994343794289" x2="362.92817729780836" y2="50.11826520130539"></line><line style="stroke: #aaa; stroke-width: 1;" x1="432.4614494229155" y1="31.99994343794289" x2="708.842043385118" y2="167.1366165587443"></line><line style="stroke: #aaa; stroke-width: 1;" x1="432.4614494229155" y1="31.99994343794289" x2="629.9153084197673" y2="146.45710424488144"></line><line style="stroke: #aaa; stroke-width: 1.41421;" x1="432.4614494229155" y1="31.99994343794289" x2="655.8998972792641" y2="267.287495846224"></line><line style="stroke: #aaa; stroke-width: 1.41421;" x1="708.842043385118" y1="167.1366165587443" x2="629.9153084197673" y2="146.45710424488144"></line><line style="stroke: #aaa; stroke-width: 1;" x1="708.842043385118" y1="167.1366165587443" x2="697.9532413593882" y2="356.5319176658456"></line><line style="stroke: #aaa; stroke-width: 1;" x1="708.842043385118" y1="167.1366165587443" x2="655.8998972792641" y2="267.287495846224"></line><line style="stroke: #aaa; stroke-width: 1.41421;" x1="708.842043385118" y1="167.1366165587443" x2="521.2314771888255" y2="340.3860158393961"></line><line style="stroke: #aaa; stroke-width: 1.41421;" x1="697.9532413593882" y1="356.5319176658456" x2="655.8998972792641" y2="267.287495846224"></line><line style="stroke: #aaa; stroke-width: 1;" x1="697.9532413593882" y1="356.5319176658456" x2="131.31410829411868" y2="201.68524629240767"></line><line style="stroke: #aaa; stroke-width: 1;" x1="697.9532413593882" y1="356.5319176658456" x2="521.2314771888255" y2="340.3860158393961"></line><line style="stroke: #aaa; stroke-width: 1.41421;" x1="697.9532413593882" y1="356.5319176658456" x2="618.0516189373808" y2="104.72616389058072"></line><line style="stroke: #aaa; stroke-width: 1.41421;" x1="131.31410829411868" y1="201.68524629240767" x2="521.2314771888255" y2="340.3860158393961"></line><line style="stroke: #aaa; stroke-width: 1;" x1="131.31410829411868" y1="201.68524629240767" x2="631.6724087255054" y2="380.9359990222845"></line><line style="stroke: #aaa; stroke-width: 1;" x1="131.31410829411868" y1="201.68524629240767" x2="618.0516189373808" y2="104.72616389058072"></line><line style="stroke: #aaa; stroke-width: 1.41421;" x1="131.31410829411868" y1="201.68524629240767" x2="780.5012610308638" y2="157.2169447802817"></line><line style="stroke: #aaa; stroke-width: 1.41421;" x1="631.6724087255054" y1="380.9359990222845" x2="618.0516189373808" y2="104.72616389058072"></line><line style="stroke: #aaa; stroke-width: 1;" x1="630.3486343798323" y1="295.1758019439167" x2="57.15165600572899" y2="45.80995350800912"></line><line style="stroke: #aaa; stroke-width: 1;" x1="57.15165600572899" y1="45.80995350800912" x2="342.66970889731266" y2="463.79486961940813"></line><line style="stroke: #aaa; stroke-width: 1;" x1="342.66970889731266" y1="463.79486961940813" x2="318.9926095612098" y2="448.90365562595514"></line><line style="stroke: #aaa; stroke-width: 1;" x1="318.9926095612098" y1="448.90365562595514" x2="567.5351770543896" y2="776.5441391103395"></line><line style="stroke: #aaa; stroke-width: 1;" x1="567.5351770543896" y1="776.5441391103395" x2="593.5120896347001" y2="119.92788337711845"></line><line style="stroke: #aaa; stroke-width: 1;" x1="593.5120896347001" y1="119.92788337711845" x2="249.52765632086042" y2="54.63997745598011"></line><line style="stroke: #aaa; stroke-width: 1;" x1="249.52765632086042" y1="54.63997745598011" x2="715.1753575277534" y2="638.9525919057677"></line><line style="stroke: #aaa; stroke-width: 1;" x1="715.1753575277534" y1="638.9525919057677" x2="319.96711320390733" y2="685.8162763379704"></line><line style="stroke: #aaa; stroke-width: 1;" x1="319.96711320390733" y1="685.8162763379704" x2="631.6724087255054" y2="380.9359990222845"></line><line style="stroke: #aaa; stroke-width: 1;" x1="631.6724087255054" y1="380.9359990222845" x2="780.5012610308638" y2="157.2169447802817"></line><line style="stroke: #aaa; stroke-width: 1;" x1="86.78708324621768" y1="512.611399476599" x2="503.7936575753261" y2="466.4243790546663"></line><line style="stroke: #aaa; stroke-width: 1;" x1="503.7936575753261" y1="466.4243790546663" x2="575.6367221075831" y2="290.06647051753276"></line><line style="stroke: #aaa; stroke-width: 1;" x1="575.6367221075831" y1="290.06647051753276" x2="540.1354661269032" y2="560.7961715567596"></line><line style="stroke: #aaa; stroke-width: 1;" x1="540.1354661269032" y1="560.7961715567596" x2="142.4443293002567" y2="120.49631185086206"></line><line style="stroke: #aaa; stroke-width: 1;" x1="142.4443293002567" y1="120.49631185086206" x2="362.92817729780836" y2="50.11826520130539"></line><line style="stroke: #aaa; stroke-width: 1;" x1="362.92817729780836" y1="50.11826520130539" x2="629.9153084197673" y2="146.45710424488144"></line><line style="stroke: #aaa; stroke-width: 1;" x1="629.9153084197673" y1="146.45710424488144" x2="655.8998972792641" y2="267.287495846224"></line><line style="stroke: #aaa; stroke-width: 1;" x1="655.8998972792641" y1="267.287495846224" x2="521.2314771888255" y2="340.3860158393961"></line><line style="stroke: #aaa; stroke-width: 1;" x1="521.2314771888255" y1="340.3860158393961" x2="618.0516189373808" y2="104.72616389058072"></line><line style="stroke: #aaa; stroke-width: 1;" x1="618.0516189373808" y1="104.72616389058072" x2="780.5012610308638" y2="157.2169447802817"></line><circle r="10" cx="121.83236824323303" cy="658.8122776025364" style="stroke: #000; fill: #69b3a2;"></circle><circle r="10" cx="761.566566976041" cy="187.50831007723752" style="stroke: #000; fill: #69b3a2;"></circle><circle r="10" cx="254.39403351099884" cy="437.898250919386" style="stroke: #000; fill: #69b3a2;"></circle><circle r="10" cx="162.44372327821566" cy="780" style="stroke: #000; fill: #69b3a2;"></circle><circle r="10" cx="782.7481079486863" cy="760.6661394274911" style="stroke: #000; fill: #69b3a2;"></circle><circle r="10" cx="575.0107215399424" cy="770.9634841419183" style="stroke: #000; fill: #69b3a2;"></circle><circle r="10" cx="102.16957910759217" cy="630.4848883353889" style="stroke: #000; fill: #69b3a2;"></circle><circle r="10" cx="245.84457756728617" cy="21.50838886010287" style="stroke: #000; fill: #69b3a2;"></circle><circle r="10" cx="104.16733076581998" cy="508.9367646301297" style="stroke: #000; fill: #69b3a2;"></circle><circle r="10" cx="692.1442170851753" cy="404.46197545004713" style="stroke: #000; fill: #69b3a2;"></circle><circle r="10" cx="630.3486343798323" cy="295.1758019439167" style="stroke: #000; fill: #69b3a2;"></circle><circle r="10" cx="180.5156035525012" cy="540.867015533355" style="stroke: #000; fill: #69b3a2;"></circle><circle r="10" cx="323.9192455429604" cy="586.377755758977" style="stroke: #000; fill: #69b3a2;"></circle><circle r="10" cx="382.2744734425992" cy="341.8425898149916" style="stroke: #000; fill: #69b3a2;"></circle><circle r="10" cx="151.30006878350167" cy="249.59328850790305" style="stroke: #000; fill: #69b3a2;"></circle><circle r="10" cx="629.8508276746027" cy="260.82944216681165" style="stroke: #000; fill: #69b3a2;"></circle><circle r="10" cx="687.5372981315329" cy="132.3005101695549" style="stroke: #000; fill: #69b3a2;"></circle><circle r="10" cx="780.9111743394108" cy="648.7525137289243" style="stroke: #000; fill: #69b3a2;"></circle><circle r="10" cx="113.93040644888256" cy="604.1122635630259" style="stroke: #000; fill: #69b3a2;"></circle><circle r="10" cx="394.42629206424243" cy="527.2385494660442" style="stroke: #000; fill: #69b3a2;"></circle><circle r="10" cx="114.47810896882322" cy="179.19873785809594" style="stroke: #000; fill: #69b3a2;"></circle><circle r="10" cx="57.15165600572899" cy="45.80995350800912" style="stroke: #000; fill: #69b3a2;"></circle><circle r="10" cx="331.5897675198447" cy="369.40169867978096" style="stroke: #000; fill: #69b3a2;"></circle><circle r="10" cx="392.1079789871958" cy="627.313817403539" style="stroke: #000; fill: #69b3a2;"></circle><circle r="10" cx="724.7258002773563" cy="637.7197814684522" style="stroke: #000; fill: #69b3a2;"></circle><circle r="10" cx="559.608651166643" cy="20" style="stroke: #000; fill: #69b3a2;"></circle><circle r="10" cx="563.3926729915167" cy="512.1588828185681" style="stroke: #000; fill: #69b3a2;"></circle><circle r="10" cx="367.89994980117433" cy="611.9167366117107" style="stroke: #000; fill: #69b3a2;"></circle><circle r="10" cx="458.2664133494536" cy="690.8599755773117" style="stroke: #000; fill: #69b3a2;"></circle><circle r="10" cx="638.2145176620074" cy="31.480259337032113" style="stroke: #000; fill: #69b3a2;"></circle><circle r="10" cx="648.2477983724268" cy="647.9369090653827" style="stroke: #000; fill: #69b3a2;"></circle><circle r="10" cx="739.4634886870837" cy="334.6107671936029" style="stroke: #000; fill: #69b3a2;"></circle><circle r="10" cx="342.66970889731266" cy="463.79486961940813" style="stroke: #000; fill: #69b3a2;"></circle><circle r="10" cx="139.16579045979904" cy="602.5624227953172" style="stroke: #000; fill: #69b3a2;"></circle><circle r="10" cx="194.51061195095667" cy="639.4112495871475" style="stroke: #000; fill: #69b3a2;"></circle><circle r="10" cx="776.6531422747845" cy="273.03319081715006" style="stroke: #000; fill: #69b3a2;"></circle><circle r="10" cx="247.9954709952801" cy="28.22935510164508" style="stroke: #000; fill: #69b3a2;"></circle><circle r="10" cx="184.59439449812794" cy="714.3547632827406" style="stroke: #000; fill: #69b3a2;"></circle><circle r="10" cx="669.144165573302" cy="750.9345364890921" style="stroke: #000; fill: #69b3a2;"></circle><circle r="10" cx="615.7399074604344" cy="775.8379214252022" style="stroke: #000; fill: #69b3a2;"></circle><circle r="10" cx="69.72463368492716" cy="627.0240378642573" style="stroke: #000; fill: #69b3a2;"></circle><circle r="10" cx="474.1939250330535" cy="580.3530280396299" style="stroke: #000; fill: #69b3a2;"></circle><circle r="10" cx="551.5167014624323" cy="539.6852523526283" style="stroke: #000; fill: #69b3a2;"></circle><circle r="10" cx="318.9926095612098" cy="448.90365562595514" style="stroke: #000; fill: #69b3a2;"></circle><circle r="10" cx="177.5552464843147" cy="422.6614892183629" style="stroke: #000; fill: #69b3a2;"></circle><circle r="10" cx="328.1181702578523" cy="288.6267843561471" style="stroke: #000; fill: #69b3a2;"></circle><circle r="10" cx="472.90469394371877" cy="291.3768113746297" style="stroke: #000; fill: #69b3a2;"></circle><circle r="10" cx="758.5716666515161" cy="136.3877450222865" style="stroke: #000; fill: #69b3a2;"></circle><circle r="10" cx="320.9788468006581" cy="315.13566308406644" style="stroke: #000; fill: #69b3a2;"></circle><circle r="10" cx="575.8670104831713" cy="316.1136210523977" style="stroke: #000; fill: #69b3a2;"></circle><circle r="10" cx="729.8059618428324" cy="352.61240951333406" style="stroke: #000; fill: #69b3a2;"></circle><circle r="10" cx="680.0521582969973" cy="494.0420963110429" style="stroke: #000; fill: #69b3a2;"></circle><circle r="10" cx="109.60405549949853" cy="380.123656777397" style="stroke: #000; fill: #69b3a2;"></circle><circle r="10" cx="278.9984273728036" cy="424.55795237272787" style="stroke: #000; fill: #69b3a2;"></circle><circle r="10" cx="567.5351770543896" cy="776.5441391103395" style="stroke: #000; fill: #69b3a2;"></circle><circle r="10" cx="570.9073665009197" cy="718.3564076225454" style="stroke: #000; fill: #69b3a2;"></circle><circle r="10" cx="405.87120213562173" cy="446.37931121554897" style="stroke: #000; fill: #69b3a2;"></circle><circle r="10" cx="404.0991484380287" cy="372.84454827622085" style="stroke: #000; fill: #69b3a2;"></circle><circle r="10" cx="437.4156816283409" cy="361.4147988562344" style="stroke: #000; fill: #69b3a2;"></circle><circle r="10" cx="673.7368834104497" cy="481.6614094254609" style="stroke: #000; fill: #69b3a2;"></circle><circle r="10" cx="400.5328757866924" cy="770.0546126862635" style="stroke: #000; fill: #69b3a2;"></circle><circle r="10" cx="44.17951180884448" cy="767.8104524661562" style="stroke: #000; fill: #69b3a2;"></circle><circle r="10" cx="296.6285377799191" cy="539.4545801630807" style="stroke: #000; fill: #69b3a2;"></circle><circle r="10" cx="283.6149416754288" cy="674.829985566575" style="stroke: #000; fill: #69b3a2;"></circle><circle r="10" cx="52.42537091074004" cy="524.562598541709" style="stroke: #000; fill: #69b3a2;"></circle><circle r="10" cx="593.5120896347001" cy="119.92788337711845" style="stroke: #000; fill: #69b3a2;"></circle><circle r="10" cx="771.9237866681212" cy="91.03360089206447" style="stroke: #000; fill: #69b3a2;"></circle><circle r="10" cx="234.8245111674712" cy="633.5596219634509" style="stroke: #000; fill: #69b3a2;"></circle><circle r="10" cx="77.371359196334" cy="499.43429862544104" style="stroke: #000; fill: #69b3a2;"></circle><circle r="10" cx="24.04962108471888" cy="540.0437345906271" style="stroke: #000; fill: #69b3a2;"></circle><circle r="10" cx="427.6983949506244" cy="354.5694768918746" style="stroke: #000; fill: #69b3a2;"></circle><circle r="10" cx="171.0173595013651" cy="123.77024492380791" style="stroke: #000; fill: #69b3a2;"></circle><circle r="10" cx="311.3259257239186" cy="603.0924698731294" style="stroke: #000; fill: #69b3a2;"></circle><circle r="10" cx="48.9031102061182" cy="212.01252849566143" style="stroke: #000; fill: #69b3a2;"></circle><circle r="10" cx="405.31274898668073" cy="649.2910047138415" style="stroke: #000; fill: #69b3a2;"></circle><circle r="10" cx="771.4344238699963" cy="649.943872258634" style="stroke: #000; fill: #69b3a2;"></circle><circle r="10" cx="249.52765632086042" cy="54.63997745598011" style="stroke: #000; fill: #69b3a2;"></circle><circle r="10" cx="208.09110127335333" cy="435.4690923708895" style="stroke: #000; fill: #69b3a2;"></circle><circle r="10" cx="699.2797024027764" cy="281.7772404382348" style="stroke: #000; fill: #69b3a2;"></circle><circle r="10" cx="43.374270122204344" cy="142.86153507403068" style="stroke: #000; fill: #69b3a2;"></circle><circle r="10" cx="691.3255419099593" cy="179.27012725452826" style="stroke: #000; fill: #69b3a2;"></circle><circle r="10" cx="227.20925840072806" cy="395.848668216063" style="stroke: #000; fill: #69b3a2;"></circle><circle r="10" cx="189.33987029108252" cy="394.2055606562411" style="stroke: #000; fill: #69b3a2;"></circle><circle r="10" cx="750.8777320231137" cy="518.305663376977" style="stroke: #000; fill: #69b3a2;"></circle><circle r="10" cx="599.3172757693197" cy="351.943037968291" style="stroke: #000; fill: #69b3a2;"></circle><circle r="10" cx="442.24333198998454" cy="58.63778365619162" style="stroke: #000; fill: #69b3a2;"></circle><circle r="10" cx="265.40450456183095" cy="328.71154663895123" style="stroke: #000; fill: #69b3a2;"></circle><circle r="10" cx="715.1753575277534" cy="638.9525919057677" style="stroke: #000; fill: #69b3a2;"></circle><circle r="10" cx="216.11166158113173" cy="117.51023924740147" style="stroke: #000; fill: #69b3a2;"></circle><circle r="10" cx="396.5279037798605" cy="308.38399172577914" style="stroke: #000; fill: #69b3a2;"></circle><circle r="10" cx="569.3540714075772" cy="238.7635938319077" style="stroke: #000; fill: #69b3a2;"></circle><circle r="10" cx="496.4029359747815" cy="641.0535895190509" style="stroke: #000; fill: #69b3a2;"></circle><circle r="10" cx="257.7263063057604" cy="313.9185890190827" style="stroke: #000; fill: #69b3a2;"></circle><circle r="10" cx="281.8467107648705" cy="644.0435002621045" style="stroke: #000; fill: #69b3a2;"></circle><circle r="10" cx="531.5982922298884" cy="309.0890579690383" style="stroke: #000; fill: #69b3a2;"></circle><circle r="10" cx="369.7914617554641" cy="250.89902359748828" style="stroke: #000; fill: #69b3a2;"></circle><circle r="10" cx="716.8115564363077" cy="392.91302876685626" style="stroke: #000; fill: #69b3a2;"></circle><circle r="10" cx="598.0019453307517" cy="100.78784885406287" style="stroke: #000; fill: #69b3a2;"></circle><circle r="10" cx="319.96711320390733" cy="685.8162763379704" style="stroke: #000; fill: #69b3a2;"></circle><circle r="10" cx="294.8430352411917" cy="721.8418221870729" style="stroke: #000; fill: #69b3a2;"></circle><circle r="10" cx="435.2767248144816" cy="125.41488773946712" style="stroke: #000; fill: #69b3a2;"></circle><circle r="10" cx="171.26453569116313" cy="746.2577633948548" style="stroke: #000; fill: #69b3a2;"></circle><circle r="10" cx="777.8725192235241" cy="202.1254809037405" style="stroke: #000; fill: #69b3a2;"></circle><circle r="10" cx="30.51803774103269" cy="316.1481643087359" style="stroke: #000; fill: #69b3a2;"></circle><circle r="10" cx="616.3478687719872" cy="383.7171149714716" style="stroke: #000; fill: #69b3a2;"></circle><circle r="10" cx="432.4614494229155" cy="31.99994343794289" style="stroke: #000; fill: #69b3a2;"></circle><circle r="10" cx="708.842043385118" cy="167.1366165587443" style="stroke: #000; fill: #69b3a2;"></circle><circle r="10" cx="697.9532413593882" cy="356.5319176658456" style="stroke: #000; fill: #69b3a2;"></circle><circle r="10" cx="131.31410829411868" cy="201.68524629240767" style="stroke: #000; fill: #69b3a2;"></circle><circle r="10" cx="631.6724087255054" cy="380.9359990222845" style="stroke: #000; fill: #69b3a2;"></circle><circle r="10" cx="86.78708324621768" cy="512.611399476599" style="stroke: #000; fill: #69b3a2;"></circle><circle r="10" cx="503.7936575753261" cy="466.4243790546663" style="stroke: #000; fill: #69b3a2;"></circle><circle r="10" cx="575.6367221075831" cy="290.06647051753276" style="stroke: #000; fill: #69b3a2;"></circle><circle r="10" cx="540.1354661269032" cy="560.7961715567596" style="stroke: #000; fill: #69b3a2;"></circle><circle r="10" cx="142.4443293002567" cy="120.49631185086206" style="stroke: #000; fill: #69b3a2;"></circle><circle r="10" cx="362.92817729780836" cy="50.11826520130539" style="stroke: #000; fill: #69b3a2;"></circle><circle r="10" cx="629.9153084197673" cy="146.45710424488144" style="stroke: #000; fill: #69b3a2;"></circle><circle r="10" cx="655.8998972792641" cy="267.287495846224" style="stroke: #000; fill: #69b3a2;"></circle><circle r="10" cx="521.2314771888255" cy="340.3860158393961" style="stroke: #000; fill: #69b3a2;"></circle><circle r="10" cx="618.0516189373808" cy="104.72616389058072" style="stroke: #000; fill: #69b3a2;"></circle><circle r="10" cx="780.5012610308638" cy="157.2169447802817" style="stroke: #000; fill: #69b3a2;"></circle></svg>