<svg width="800" height="800" xmlns="http://www.w3.org/2000/svg"><line style="stroke: #aaa; stroke-width: 1;" x1="20.020089362356238" y1="20.02008934435338" x2="172.01272765715456" y2="20.02453734977479"></line><line style="stroke: #aaa; stroke-width: 1;" x1="20.020089362356238" y1="20.02008934435338" x2="20.01455133534709" y2="172.02063144822418"></line><line style="stroke: #aaa; stroke-width: 1.41421;" x1="20.020089362356238" y1="20.02008934435338" x2="172.0109037053693" y2="172.02367136786634"></line><line style="stroke: #aaa; stroke-width: 1.41421;" x1="172.01272765715456" y1="20.02453734977479" x2="20.01455133534709" y2="172.02063144822418"></line><line style="stroke: #aaa; stroke-width: 1;" x1="172.01272765715456" y1="20.02453734977479" x2="324.00293391764427" y2="20.02390249295672"></line><line style="stroke: #aaa; stroke-width: 1;" x1="172.01272765715456" y1="20.02453734977479" x2="172.0109037053693" y2="172.02367136786634"></line><line style="stroke: #aaa; stroke-width: 1.41421;" x1="172.01272765715456" y1="20.02453734977479" x2="324.0120536765707" y2="172.01911148840307"></line><line style="stroke: #aaa; stroke-width: 1.41421;" x1="324.00293391764427" y1="20.02390249295672" x2="172.0109037053693" y2="172.02367136786634"></line><line style="stroke: #aaa; stroke-width: 1;" x1="324.00293391764427" y1="20.02390249295672" x2="476.00043598527515" y2="20"></line><line style="stroke: #aaa; stroke-width: 1;" x1="324.00293391764427" y1="20.02390249295672" x2="324.0120536765707" y2="172.01911148840307"></line><line style="stroke: #aaa; stroke-width: 1.41421;" x1="324.00293391764427" y1="20.02390249295672" x2="476.0110757040227" y2="172.0125756611725"></line><line style="stroke: #aaa; stroke-width: 1.41421;" x1="476.00043598527515" y1="20" x2="324.0120536765707" y2="172.01911148840307"></line><line style="stroke: #aaa; stroke-width: 1;" x1="476.00043598527515" y1="20" x2="628.0024979323692" y2="20.013530621528847"></line><line style="stroke: #aaa; stroke-width: 1;" x1="476.00043598527515" y1="20" x2="476.0110757040227" y2="172.0125756611725"></line><line style="stroke: #aaa; stroke-width: 1.41421;" x1="476.00043598527515" y1="20" x2="628.0024979323692" y2="172.01455160893988"></line><line style="stroke: #aaa; stroke-width: 1.41421;" x1="628.0024979323692" y1="20.013530621528847" x2="476.0110757040227" y2="172.0125756611725"></line><line style="stroke: #aaa; stroke-width: 1;" x1="628.0024979323692" y1="20.013530621528847" x2="780" y2="20.020089323794554"></line><line style="stroke: #aaa; stroke-width: 1;" x1="628.0024979323692" y1="20.013530621528847" x2="628.0024979323692" y2="172.01455160893988"></line><line style="stroke: #aaa; stroke-width: 1.41421;" x1="628.0024979323692" y1="20.013530621528847" x2="779.9969600803578" y2="172.01379162902933"></line><line style="stroke: #aaa; stroke-width: 1.41421;" x1="780" y1="20.020089323794554" x2="628.0024979323692" y2="172.01455160893988"></line><line style="stroke: #aaa; stroke-width: 1;" x1="20.01455133534709" y1="172.02063144822418" x2="172.0109037053693" y2="172.02367136786634"></line><line style="stroke: #aaa; stroke-width: 1;" x1="20.01455133534709" y1="172.02063144822418" x2="20.013650926348685" y2="324.0181335158551"></line><line style="stroke: #aaa; stroke-width: 1.41421;" x1="20.01455133534709" y1="172.02063144822418" x2="172.01303164911877" y2="324.01509359621286"></line><line style="stroke: #aaa; stroke-width: 1.41421;" x1="172.0109037053693" y1="172.02367136786634" x2="20.013650926348685" y2="324.0181335158551"></line><line style="stroke: #aaa; stroke-width: 1;" x1="172.0109037053693" y1="172.02367136786634" x2="324.0120536765707" y2="172.01911148840307"></line><line style="stroke: #aaa; stroke-width: 1;" x1="172.0109037053693" y1="172.02367136786634" x2="172.01303164911877" y2="324.01509359621286"></line><line style="stroke: #aaa; stroke-width: 1.41421;" x1="172.0109037053693" y1="172.02367136786634" x2="324.0135736363918" y2="324.0135736363918"></line><line style="stroke: #aaa; stroke-width: 1.41421;" x1="324.0120536765707" y1="172.01911148840307" x2="172.01303164911877" y2="324.01509359621286"></line><line style="stroke: #aaa; stroke-width: 1;" x1="324.0120536765707" y1="172.01911148840307" x2="476.0110757040227" y2="172.0125756611725"></line><line style="stroke: #aaa; stroke-width: 1;" x1="324.0120536765707" y1="172.01911148840307" x2="324.0135736363918" y2="324.0135736363918"></line><line style="stroke: #aaa; stroke-width: 1.41421;" x1="324.0120536765707" y1="172.01911148840307" x2="476.00955574420163" y2="324.0120536765707"></line><line style="stroke: #aaa; stroke-width: 1.41421;" x1="476.0110757040227" y1="172.0125756611725" x2="324.0135736363918" y2="324.0135736363918"></line><line style="stroke: #aaa; stroke-width: 1;" x1="476.0110757040227" y1="172.0125756611725" x2="628.0024979323692" y2="172.01455160893988"></line><line style="stroke: #aaa; stroke-width: 1;" x1="476.0110757040227" y1="172.0125756611725" x2="476.00955574420163" y2="324.0120536765707"></line><line style="stroke: #aaa; stroke-width: 1.41421;" x1="476.0110757040227" y1="172.0125756611725" x2="628.0040178921902" y2="324.0120536765707"></line><line style="stroke: #aaa; stroke-width: 1.41421;" x1="628.0024979323692" y1="172.01455160893988" x2="476.00955574420163" y2="324.0120536765707"></line><line style="stroke: #aaa; stroke-width: 1;" x1="628.0024979323692" y1="172.01455160893988" x2="779.9969600803578" y2="172.01379162902933"></line><line style="stroke: #aaa; stroke-width: 1;" x1="628.0024979323692" y1="172.01455160893988" x2="628.0040178921902" y2="324.0120536765707"></line><line style="stroke: #aaa; stroke-width: 1.41421;" x1="628.0024979323692" y1="172.01455160893988" x2="780" y2="324.01053371674965"></line><line style="stroke: #aaa; stroke-width: 1.41421;" x1="779.9969600803578" y1="172.01379162902933" x2="628.0040178921902" y2="324.0120536765707"></line><line style="stroke: #aaa; stroke-width: 1;" x1="20.013650926348685" y1="324.0181335158551" x2="172.01303164911877" y2="324.01509359621286"></line><line style="stroke: #aaa; stroke-width: 1;" x1="20.013650926348685" y1="324.0181335158551" x2="20.017963113159475" y2="476.0110757040227"></line><line style="stroke: #aaa; stroke-width: 1.41421;" x1="20.013650926348685" y1="324.0181335158551" x2="172.01607156876096" y2="476.00803578438047"></line><line style="stroke: #aaa; stroke-width: 1.41421;" x1="172.01303164911877" y1="324.01509359621286" x2="20.017963113159475" y2="476.0110757040227"></line><line style="stroke: #aaa; stroke-width: 1;" x1="172.01303164911877" y1="324.01509359621286" x2="324.0135736363918" y2="324.0135736363918"></line><line style="stroke: #aaa; stroke-width: 1;" x1="172.01303164911877" y1="324.01509359621286" x2="172.01607156876096" y2="476.00803578438047"></line><line style="stroke: #aaa; stroke-width: 1.41421;" x1="172.01303164911877" y1="324.01509359621286" x2="324.0135736363918" y2="476.00803578438047"></line><line style="stroke: #aaa; stroke-width: 1.41421;" x1="324.0135736363918" y1="324.0135736363918" x2="172.01607156876096" y2="476.00803578438047"></line><line style="stroke: #aaa; stroke-width: 1;" x1="324.0135736363918" y1="324.0135736363918" x2="476.00955574420163" y2="324.0120536765707"></line><line style="stroke: #aaa; stroke-width: 1;" x1="324.0135736363918" y1="324.0135736363918" x2="324.0135736363918" y2="476.00803578438047"></line><line style="stroke: #aaa; stroke-width: 1.41421;" x1="324.0135736363918" y1="324.0135736363918" x2="476.00803578438047" y2="476.00803578438047"></line><line style="stroke: #aaa; stroke-width: 1.41421;" x1="476.00955574420163" y1="324.0120536765707" x2="324.0135736363918" y2="476.00803578438047"></line><line style="stroke: #aaa; stroke-width: 1;" x1="476.00955574420163" y1="324.0120536765707" x2="628.0040178921902" y2="324.0120536765707"></line><line style="stroke: #aaa; stroke-width: 1;" x1="476.00955574420163" y1="324.0120536765707" x2="476.00803578438047" y2="476.00803578438047"></line><line style="stroke: #aaa; stroke-width: 1.41421;" x1="476.00955574420163" y1="324.0120536765707" x2="628.0055378520112" y2="476.00803578438047"></line><line style="stroke: #aaa; stroke-width: 1.41421;" x1="628.0040178921902" y1="324.0120536765707" x2="476.00803578438047" y2="476.00803578438047"></line><line style="stroke: #aaa; stroke-width: 1;" x1="628.0040178921902" y1="324.0120536765707" x2="780" y2="324.01053371674965"></line><line style="stroke: #aaa; stroke-width: 1;" x1="628.0040178921902" y1="324.0120536765707" x2="628.0055378520112" y2="476.00803578438047"></line><line style="stroke: #aaa; stroke-width: 1.41421;" x1="628.0040178921902" y1="324.0120536765707" x2="780.0015199598212" y2="476.0065158245594"></line><line style="stroke: #aaa; stroke-width: 1.41421;" x1="780" y1="324.01053371674965" x2="628.0055378520112" y2="476.00803578438047"></line><line style="stroke: #aaa; stroke-width: 1;" x1="20.017963113159475" y1="476.0110757040227" x2="172.01607156876096" y2="476.00803578438047"></line><line style="stroke: #aaa; stroke-width: 1;" x1="20.017963113159475" y1="476.0110757040227" x2="20.020681181309516" y2="628.0055378520112"></line><line style="stroke: #aaa; stroke-width: 1.41421;" x1="20.017963113159475" y1="476.0110757040227" x2="172.01759152858202" y2="628.0040178921902"></line><line style="stroke: #aaa; stroke-width: 1.41421;" x1="172.01607156876096" y1="476.00803578438047" x2="20.020681181309516" y2="628.0055378520112"></line><line style="stroke: #aaa; stroke-width: 1;" x1="172.01607156876096" y1="476.00803578438047" x2="324.0135736363918" y2="476.00803578438047"></line><line style="stroke: #aaa; stroke-width: 1;" x1="172.01607156876096" y1="476.00803578438047" x2="172.01759152858202" y2="628.0040178921902"></line><line style="stroke: #aaa; stroke-width: 1.41421;" x1="172.01607156876096" y1="476.00803578438047" x2="324.0135736363918" y2="628.0040178921902"></line><line style="stroke: #aaa; stroke-width: 1.41421;" x1="324.0135736363918" y1="476.00803578438047" x2="172.01759152858202" y2="628.0040178921902"></line><line style="stroke: #aaa; stroke-width: 1;" x1="324.0135736363918" y1="476.00803578438047" x2="476.00803578438047" y2="476.00803578438047"></line><line style="stroke: #aaa; stroke-width: 1;" x1="324.0135736363918" y1="476.00803578438047" x2="324.0135736363918" y2="628.0040178921902"></line><line style="stroke: #aaa; stroke-width: 1.41421;" x1="324.0135736363918" y1="476.00803578438047" x2="476.00803578438047" y2="628.0040178921902"></line><line style="stroke: #aaa; stroke-width: 1.41421;" x1="476.00803578438047" y1="476.00803578438047" x2="324.0135736363918" y2="628.0040178921902"></line><line style="stroke: #aaa; stroke-width: 1;" x1="476.00803578438047" y1="476.00803578438047" x2="628.0055378520112" y2="476.00803578438047"></line><line style="stroke: #aaa; stroke-width: 1;" x1="476.00803578438047" y1="476.00803578438047" x2="476.00803578438047" y2="628.0040178921902"></line><line style="stroke: #aaa; stroke-width: 1.41421;" x1="476.00803578438047" y1="476.00803578438047" x2="628.0040178921902" y2="628.0040178921902"></line><line style="stroke: #aaa; stroke-width: 1.41421;" x1="628.0055378520112" y1="476.00803578438047" x2="476.00803578438047" y2="628.0040178921902"></line><line style="stroke: #aaa; stroke-width: 1;" x1="628.0055378520112" y1="476.00803578438047" x2="780.0015199598212" y2="476.0065158245594"></line><line style="stroke: #aaa; stroke-width: 1;" x1="628.0055378520112" y1="476.00803578438047" x2="628.0040178921902" y2="628.0040178921902"></line><line style="stroke: #aaa; stroke-width: 1.41421;" x1="628.0055378520112" y1="476.00803578438047" x2="780.0015199598212" y2="628.0040178921902"></line><line style="stroke: #aaa; stroke-width: 1.41421;" x1="780.0015199598212" y1="476.0065158245594" x2="628.0040178921902" y2="628.0040178921902"></line><line style="stroke: #aaa; stroke-width: 1;" x1="20.020681181309516" y1="628.0055378520112" x2="172.01759152858202" y2="628.0040178921902"></line><line style="stroke: #aaa; stroke-width: 1;" x1="20.020681181309516" y1="628.0055378520112" x2="20.02008947922884" y2="780"></line><line style="stroke: #aaa; stroke-width: 1.41421;" x1="20.020681181309516" y1="628.0055378520112" x2="172.01759152858202" y2="780"></line><line style="stroke: #aaa; stroke-width: 1.41421;" x1="172.01759152858202" y1="628.0040178921902" x2="20.02008947922884" y2="780"></line><line style="stroke: #aaa; stroke-width: 1;" x1="172.01759152858202" y1="628.0040178921902" x2="324.0135736363918" y2="628.0040178921902"></line><line style="stroke: #aaa; stroke-width: 1;" x1="172.01759152858202" y1="628.0040178921902" x2="172.01759152858202" y2="780"></line><line style="stroke: #aaa; stroke-width: 1.41421;" x1="172.01759152858202" y1="628.0040178921902" x2="324.0135736363918" y2="780"></line><line style="stroke: #aaa; stroke-width: 1.41421;" x1="324.0135736363918" y1="628.0040178921902" x2="172.01759152858202" y2="780"></line><line style="stroke: #aaa; stroke-width: 1;" x1="324.0135736363918" y1="628.0040178921902" x2="476.00803578438047" y2="628.0040178921902"></line><line style="stroke: #aaa; stroke-width: 1;" x1="324.0135736363918" y1="628.0040178921902" x2="324.0135736363918" y2="780"></line><line style="stroke: #aaa; stroke-width: 1.41421;" x1="324.0135736363918" y1="628.0040178921902" x2="476.00955574420163" y2="780"></line><line style="stroke: #aaa; stroke-width: 1.41421;" x1="476.00803578438047" y1="628.0040178921902" x2="324.0135736363918" y2="780"></line><line style="stroke: #aaa; stroke-width: 1;" x1="476.00803578438047" y1="628.0040178921902" x2="628.0040178921902" y2="628.0040178921902"></line><line style="stroke: #aaa; stroke-width: 1;" x1="476.00803578438047" y1="628.0040178921902" x2="476.00955574420163" y2="780"></line><line style="stroke: #aaa; stroke-width: 1.41421;" x1="476.00803578438047" y1="628.0040178921902" x2="628.0040178921902" y2="780"></line><line style="stroke: #aaa; stroke-width: 1.41421;" x1="628.0040178921902" y1="628.0040178921902" x2="476.00955574420163" y2="780"></line><line style="stroke: #aaa; stroke-width: 1;" x1="628.0040178921902" y1="628.0040178921902" x2="780.0015199598212" y2="628.0040178921902"></line><line style="stroke: #aaa; stroke-width: 1;" x1="628.0040178921902" y1="628.0040178921902" x2="628.0040178921902" y2="780"></line><line style="stroke: #aaa; stroke-width: 1.41421;" x1="628.0040178921902" y1="628.0040178921902" x2="780" y2="780"></line><line style="stroke: #aaa; stroke-width: 1.41421;" x1="780.0015199598212" y1="628.0040178921902" x2="628.0040178921902" y2="780"></line><line style="stroke: #aaa; stroke-width: 1;" x1="780" y1="20.020089323794554" x2="779.9969600803578" y2="172.01379162902933"></line><line style="stroke: #aaa; stroke-width: 1;" x1="779.9969600803578" y1="172.01379162902933" x2="780" y2="324.01053371674965"></line><line style="stroke: #aaa; stroke-width: 1;" x1="780" y1="324.01053371674965" x2="780.0015199598212" y2="476.0065158245594"></line><line style="stroke: #aaa; stroke-width: 1;" x1="780.0015199598212" y1="476.0065158245594" x2="780.0015199598212" y2="628.0040178921902"></line><line style="stroke: #aaa; stroke-width: 1;" x1="780.0015199598212" y1="628.0040178921902" x2="780" y2="780"></line><line style="stroke: #aaa; stroke-width: 1;" x1="20.02008947922884" y1="780" x2="172.01759152858202" y2="780"></line><line style="stroke: #aaa; stroke-width: 1;" x1="172.01759152858202" y1="780" x2="324.0135736363918" y2="780"></line><line style="stroke: #aaa; stroke-width: 1;" x1="324.0135736363918" y1="780" x2="476.00955574420163" y2="780"></line><line style="stroke: #aaa; stroke-width: 1;" x1="476.00955574420163" y1="780" x2="628.0040178921902" y2="780"></line><line style="stroke: #aaa; stroke-width: 1;" x1="628.0040178921902" y1="780" x2="780" y2="780"></line><circle r="10" cx="20.020089362356238" cy="20.02008934435338" style="stroke: #000; fill: #69b3a2;"></circle><circle r="10" cx="172.01272765715456" cy="20.02453734977479" style="stroke: #000; fill: #69b3a2;"></circle><circle r="10" cx="324.00293391764427" cy="20.02390249295672" style="stroke: #000; fill: #69b3a2;"></circle><circle r="10" cx="476.00043598527515" cy="20" style="stroke: #000; fill: #69b3a2;"></circle><circle r="10" cx="628.0024979323692" cy="20.013530621528847" style="stroke: #000; fill: #69b3a2;"></circle><circle r="10" cx="780" cy="20.020089323794554" style="stroke: #000; fill: #69b3a2;"></circle><circle r="10" cx="20.01455133534709" cy="172.02063144822418" style="stroke: #000; fill: #69b3a2;"></circle><circle r="10" cx="172.0109037053693" cy="172.02367136786634" style="stroke: #000; fill: #69b3a2;"></circle><circle r="10" cx="324.0120536765707" cy="172.01911148840307" style="stroke: #000; fill: #69b3a2;"></circle><circle r="10" cx="476.0110757040227" cy="172.0125756611725" style="stroke: #000; fill: #69b3a2;"></circle><circle r="10" cx="628.0024979323692" cy="172.01455160893988" style="stroke: #000; fill: #69b3a2;"></circle><circle r="10" cx="779.9969600803578" cy="172.01379162902933" style="stroke: #000; fill: #69b3a2;"></circle><circle r="10" cx="20.013650926348685" cy="324.0181335158551" style="stroke: #000; fill: #69b3a2;"></circle><circle r="10" cx="172.01303164911877" cy="324.01509359621286" style="stroke: #000; fill: #69b3a2;"></circle><circle r="10" cx="324.0135736363918" cy="324.0135736363918" style="stroke: #000; fill: #69b3a2;"></circle><circle r="10" cx="476.00955574420163" cy="324.0120536765707" style="stroke: #000; fill: #69b3a2;"></circle><circle r="10" cx="628.0040178921902" cy="324.0120536765707" style="stroke: #000; fill: #69b3a2;"></circle><circle r="10" cx="780" cy="324.01053371674965" style="stroke: #000; fill: #69b3a2;"></circle><circle r="10" cx="20.017963113159475" cy="476.0110757040227" style="stroke: #000; fill: #69b3a2;"></circle><circle r="10" cx="172.01607156876096" cy="476.00803578438047" style="stroke: #000; fill: #69b3a2;"></circle><circle r="10" cx="324.0135736363918" cy="476.00803578438047" style="stroke: #000; fill: #69b3a2;"></circle><circle r="10" cx="476.00803578438047" cy="476.00803578438047" style="stroke: #000; fill: #69b3a2;"></circle><circle r="10" cx="628.0055378520112" cy="476.00803578438047" style="stroke: #000; fill: #69b3a2;"></circle><circle r="10" cx="780.0015199598212" cy="476.0065158245594" style="stroke: #000; fill: #69b3a2;"></circle><circle r="10" cx="20.020681181309516" cy="628.0055378520112" style="stroke: #000; fill: #69b3a2;"></circle><circle r="10" cx="172.01759152858202" cy="628.0040178921902" style="stroke: #000; fill: #69b3a2;"></circle><circle r="10" cx="324.0135736363918" cy="628.0040178921902" style="stroke: #000; fill: #69b3a2;"></circle><circle r="10" cx="476.00803578438047" cy="628.0040178921902" style="stroke: #000; fill: #69b3a2;"></circle><circle r="10" cx="628.0040178921902" cy="628.0040178921902" style="stroke: #000; fill: #69b3a2;"></circle><circle r="10" cx="780.0015199598212" cy="628.0040178921902" style="stroke: #000; fill: #69b3a2;"></circle><circle r="10" cx="20.02008947922884" cy="780" style="stroke: #000; fill: #69b3a2;"></circle><circle r="10" cx="172.01759152858202" cy="780" style="stroke: #000; fill: #69b3a2;"></circle><circle r="10" cx="324.0135736363918" cy="780" style="stroke: #000; fill: #69b3a2;"></circle><circle r="10" cx="476.00955574420163" cy="780" style="stroke: #000; fill: #69b3a2;"></circle><circle r="10" cx="628.0040178921902" cy="780" style="stroke: #000; fill: #69b3a2;"></circle><circle r="10" cx="780" cy="780" style="stroke: #000; fill: #69b3a2;"></circle></svg>