<svg width="800" height="800" xmlns="http://www.w3.org/2000/svg"><line style="stroke: #aaa; stroke-width: 1;" x1="46.888394181734895" y1="618.4203996717118" x2="175.40278628477432" y2="609.6839792963322"></line><line style="stroke: #aaa; stroke-width: 1;" x1="46.888394181734895" y1="618.4203996717118" x2="36.23589549610203" y2="490.0866701485104"></line><line style="stroke: #aaa; stroke-width: 1.41421;" x1="46.888394181734895" y1="618.4203996717118" x2="168.99783628277893" y2="474.76068107641026"></line><line style="stroke: #aaa; stroke-width: 1.41421;" x1="175.40278628477432" y1="609.6839792963322" x2="36.23589549610203" y2="490.0866701485104"></line><line style="stroke: #aaa; stroke-width: 1;" x1="175.40278628477432" y1="609.6839792963322" x2="298.6761173855633" y2="605.3850011191641"></line><line style="stroke: #aaa; stroke-width: 1;" x1="175.40278628477432" y1="609.6839792963322" x2="168.99783628277893" y2="474.76068107641026"></line><line style="stroke: #aaa; stroke-width: 1.41421;" x1="175.40278628477432" y1="609.6839792963322" x2="297.30255429680926" y2="468.0567806594566"></line><line style="stroke: #aaa; stroke-width: 1.41421;" x1="298.6761173855633" y1="605.3850011191641" x2="168.99783628277893" y2="474.76068107641026"></line><line style="stroke: #aaa; stroke-width: 1;" x1="298.6761173855633" y1="605.3850011191641" x2="421.87362295101883" y2="610.061128915556"></line><line style="stroke: #aaa; stroke-width: 1;" x1="298.6761173855633" y1="605.3850011191641" x2="297.30255429680926" y2="468.0567806594566"></line><line style="stroke: #aaa; stroke-width: 1.41421;" x1="298.6761173855633" y1="605.3850011191641" x2="434.2927906746737" y2="480.6684793076104"></line><line style="stroke: #aaa; stroke-width: 1.41421;" x1="421.87362295101883" y1="610.061128915556" x2="297.30255429680926" y2="468.0567806594566"></line><line style="stroke: #aaa; stroke-width: 1;" x1="421.87362295101883" y1="610.061128915556" x2="550.4266531094543" y2="631.2962349238188"></line><line style="stroke: #aaa; stroke-width: 1;" x1="421.87362295101883" y1="610.061128915556" x2="434.2927906746737" y2="480.6684793076104"></line><line style="stroke: #aaa; stroke-width: 1.41421;" x1="421.87362295101883" y1="610.061128915556" x2="577.2992228316413" y2="510.10461147655053"></line><line style="stroke: #aaa; stroke-width: 1.41421;" x1="550.4266531094543" y1="631.2962349238188" x2="434.2927906746737" y2="480.6684793076104"></line><line style="stroke: #aaa; stroke-width: 1;" x1="550.4266531094543" y1="631.2962349238188" x2="680.3059048484964" y2="663.8497856236867"></line><line style="stroke: #aaa; stroke-width: 1;" x1="550.4266531094543" y1="631.2962349238188" x2="577.2992228316413" y2="510.10461147655053"></line><line style="stroke: #aaa; stroke-width: 1.41421;" x1="550.4266531094543" y1="631.2962349238188" x2="711.159644851932" y2="533.7305295815021"></line><line style="stroke: #aaa; stroke-width: 1.41421;" x1="680.3059048484964" y1="663.8497856236867" x2="577.2992228316413" y2="510.10461147655053"></line><line style="stroke: #aaa; stroke-width: 1;" x1="36.23589549610203" y1="490.0866701485104" x2="168.99783628277893" y2="474.76068107641026"></line><line style="stroke: #aaa; stroke-width: 1;" x1="36.23589549610203" y1="490.0866701485104" x2="20" y2="369.7438970854885"></line><line style="stroke: #aaa; stroke-width: 1.41421;" x1="36.23589549610203" y1="490.0866701485104" x2="150.64278191222633" y2="341.1123727493089"></line><line style="stroke: #aaa; stroke-width: 1.41421;" x1="168.99783628277893" y1="474.76068107641026" x2="20" y2="369.7438970854885"></line><line style="stroke: #aaa; stroke-width: 1;" x1="168.99783628277893" y1="474.76068107641026" x2="297.30255429680926" y2="468.0567806594566"></line><line style="stroke: #aaa; stroke-width: 1;" x1="168.99783628277893" y1="474.76068107641026" x2="150.64278191222633" y2="341.1123727493089"></line><line style="stroke: #aaa; stroke-width: 1.41421;" x1="168.99783628277893" y1="474.76068107641026" x2="298.6523806962415" y2="336.054374369928"></line><line style="stroke: #aaa; stroke-width: 1.41421;" x1="297.30255429680926" y1="468.0567806594566" x2="150.64278191222633" y2="341.1123727493089"></line><line style="stroke: #aaa; stroke-width: 1;" x1="297.30255429680926" y1="468.0567806594566" x2="434.2927906746737" y2="480.6684793076104"></line><line style="stroke: #aaa; stroke-width: 1;" x1="297.30255429680926" y1="468.0567806594566" x2="298.6523806962415" y2="336.054374369928"></line><line style="stroke: #aaa; stroke-width: 1.41421;" x1="297.30255429680926" y1="468.0567806594566" x2="458.118492581417" y2="373.76370542213306"></line><line style="stroke: #aaa; stroke-width: 1.41421;" x1="434.2927906746737" y1="480.6684793076104" x2="298.6523806962415" y2="336.054374369928"></line><line style="stroke: #aaa; stroke-width: 1;" x1="434.2927906746737" y1="480.6684793076104" x2="577.2992228316413" y2="510.10461147655053"></line><line style="stroke: #aaa; stroke-width: 1;" x1="434.2927906746737" y1="480.6684793076104" x2="458.118492581417" y2="373.76370542213306"></line><line style="stroke: #aaa; stroke-width: 1.41421;" x1="434.2927906746737" y1="480.6684793076104" x2="599.7251194208803" y2="390.7793511624558"></line><line style="stroke: #aaa; stroke-width: 1.41421;" x1="577.2992228316413" y1="510.10461147655053" x2="458.118492581417" y2="373.76370542213306"></line><line style="stroke: #aaa; stroke-width: 1;" x1="577.2992228316413" y1="510.10461147655053" x2="711.159644851932" y2="533.7305295815021"></line><line style="stroke: #aaa; stroke-width: 1;" x1="577.2992228316413" y1="510.10461147655053" x2="599.7251194208803" y2="390.7793511624558"></line><line style="stroke: #aaa; stroke-width: 1.41421;" x1="577.2992228316413" y1="510.10461147655053" x2="725.7010044714509" y2="392.99253370071995"></line><line style="stroke: #aaa; stroke-width: 1.41421;" x1="711.159644851932" y1="533.7305295815021" x2="599.7251194208803" y2="390.7793511624558"></line><line style="stroke: #aaa; stroke-width: 1;" x1="20" y1="369.7438970854885" x2="150.64278191222633" y2="341.1123727493089"></line><line style="stroke: #aaa; stroke-width: 1;" x1="20" y1="369.7438970854885" x2="64.88871691742301" y2="506.68652821421324"></line><line style="stroke: #aaa; stroke-width: 1.41421;" x1="20" y1="369.7438970854885" x2="182.8851182409864" y2="462.48472471166343"></line><line style="stroke: #aaa; stroke-width: 1.41421;" x1="150.64278191222633" y1="341.1123727493089" x2="64.88871691742301" y2="506.68652821421324"></line><line style="stroke: #aaa; stroke-width: 1;" x1="150.64278191222633" y1="341.1123727493089" x2="298.6523806962415" y2="336.054374369928"></line><line style="stroke: #aaa; stroke-width: 1;" x1="150.64278191222633" y1="341.1123727493089" x2="182.8851182409864" y2="462.48472471166343"></line><line style="stroke: #aaa; stroke-width: 1.41421;" x1="150.64278191222633" y1="341.1123727493089" x2="310.6664422554714" y2="399.052510484572"></line><line style="stroke: #aaa; stroke-width: 1.41421;" x1="298.6523806962415" y1="336.054374369928" x2="182.8851182409864" y2="462.48472471166343"></line><line style="stroke: #aaa; stroke-width: 1;" x1="298.6523806962415" y1="336.054374369928" x2="458.118492581417" y2="373.76370542213306"></line><line style="stroke: #aaa; stroke-width: 1;" x1="298.6523806962415" y1="336.054374369928" x2="310.6664422554714" y2="399.052510484572"></line><line style="stroke: #aaa; stroke-width: 1.41421;" x1="298.6523806962415" y1="336.054374369928" x2="448.37168046390644" y2="310.23140148840145"></line><line style="stroke: #aaa; stroke-width: 1.41421;" x1="458.118492581417" y1="373.76370542213306" x2="310.6664422554714" y2="399.052510484572"></line><line style="stroke: #aaa; stroke-width: 1;" x1="458.118492581417" y1="373.76370542213306" x2="599.7251194208803" y2="390.7793511624558"></line><line style="stroke: #aaa; stroke-width: 1;" x1="458.118492581417" y1="373.76370542213306" x2="448.37168046390644" y2="310.23140148840145"></line><line style="stroke: #aaa; stroke-width: 1.41421;" x1="458.118492581417" y1="373.76370542213306" x2="589.5499919316079" y2="265.583875708587"></line><line style="stroke: #aaa; stroke-width: 1.41421;" x1="599.7251194208803" y1="390.7793511624558" x2="448.37168046390644" y2="310.23140148840145"></line><line style="stroke: #aaa; stroke-width: 1;" x1="599.7251194208803" y1="390.7793511624558" x2="725.7010044714509" y2="392.99253370071995"></line><line style="stroke: #aaa; stroke-width: 1;" x1="599.7251194208803" y1="390.7793511624558" x2="589.5499919316079" y2="265.583875708587"></line><line style="stroke: #aaa; stroke-width: 1.41421;" x1="599.7251194208803" y1="390.7793511624558" x2="722.2473161751309" y2="248.92032419320418"></line><line style="stroke: #aaa; stroke-width: 1.41421;" x1="725.7010044714509" y1="392.99253370071995" x2="589.5499919316079" y2="265.583875708587"></line><line style="stroke: #aaa; stroke-width: 1;" x1="64.88871691742301" y1="506.68652821421324" x2="182.8851182409864" y2="462.48472471166343"></line><line style="stroke: #aaa; stroke-width: 1;" x1="64.88871691742301" y1="506.68652821421324" x2="125.65068546630967" y2="634.455852013541"></line><line style="stroke: #aaa; stroke-width: 1.41421;" x1="64.88871691742301" y1="506.68652821421324" x2="243.91359706275819" y2="567.4128917291171"></line><line style="stroke: #aaa; stroke-width: 1.41421;" x1="182.8851182409864" y1="462.48472471166343" x2="125.65068546630967" y2="634.455852013541"></line><line style="stroke: #aaa; stroke-width: 1;" x1="182.8851182409864" y1="462.48472471166343" x2="310.6664422554714" y2="399.052510484572"></line><line style="stroke: #aaa; stroke-width: 1;" x1="182.8851182409864" y1="462.48472471166343" x2="243.91359706275819" y2="567.4128917291171"></line><line style="stroke: #aaa; stroke-width: 1.41421;" x1="182.8851182409864" y1="462.48472471166343" x2="368.8512656964931" y2="491.8669218476445"></line><line style="stroke: #aaa; stroke-width: 1.41421;" x1="310.6664422554714" y1="399.052510484572" x2="243.91359706275819" y2="567.4128917291171"></line><line style="stroke: #aaa; stroke-width: 1;" x1="310.6664422554714" y1="399.052510484572" x2="448.37168046390644" y2="310.23140148840145"></line><line style="stroke: #aaa; stroke-width: 1;" x1="310.6664422554714" y1="399.052510484572" x2="368.8512656964931" y2="491.8669218476445"></line><line style="stroke: #aaa; stroke-width: 1.41421;" x1="310.6664422554714" y1="399.052510484572" x2="493.74080159910324" y2="434.2199981607536"></line><line style="stroke: #aaa; stroke-width: 1.41421;" x1="448.37168046390644" y1="310.23140148840145" x2="368.8512656964931" y2="491.8669218476445"></line><line style="stroke: #aaa; stroke-width: 1;" x1="448.37168046390644" y1="310.23140148840145" x2="589.5499919316079" y2="265.583875708587"></line><line style="stroke: #aaa; stroke-width: 1;" x1="448.37168046390644" y1="310.23140148840145" x2="493.74080159910324" y2="434.2199981607536"></line><line style="stroke: #aaa; stroke-width: 1.41421;" x1="448.37168046390644" y1="310.23140148840145" x2="616.9078450799291" y2="397.6780243023443"></line><line style="stroke: #aaa; stroke-width: 1.41421;" x1="589.5499919316079" y1="265.583875708587" x2="493.74080159910324" y2="434.2199981607536"></line><line style="stroke: #aaa; stroke-width: 1;" x1="589.5499919316079" y1="265.583875708587" x2="722.2473161751309" y2="248.92032419320418"></line><line style="stroke: #aaa; stroke-width: 1;" x1="589.5499919316079" y1="265.583875708587" x2="616.9078450799291" y2="397.6780243023443"></line><line style="stroke: #aaa; stroke-width: 1.41421;" x1="589.5499919316079" y1="265.583875708587" x2="747.1616090282706" y2="367.764520937044"></line><line style="stroke: #aaa; stroke-width: 1.41421;" x1="722.2473161751309" y1="248.92032419320418" x2="616.9078450799291" y2="397.6780243023443"></line><line style="stroke: #aaa; stroke-width: 1;" x1="125.65068546630967" y1="634.455852013541" x2="243.91359706275819" y2="567.4128917291171"></line><line style="stroke: #aaa; stroke-width: 1;" x1="125.65068546630967" y1="634.455852013541" x2="198.24143752721997" y2="746.7580853098002"></line><line style="stroke: #aaa; stroke-width: 1.41421;" x1="125.65068546630967" y1="634.455852013541" x2="309.7520522345976" y2="672.6521412471826"></line><line style="stroke: #aaa; stroke-width: 1.41421;" x1="243.91359706275819" y1="567.4128917291171" x2="198.24143752721997" y2="746.7580853098002"></line><line style="stroke: #aaa; stroke-width: 1;" x1="243.91359706275819" y1="567.4128917291171" x2="368.8512656964931" y2="491.8669218476445"></line><line style="stroke: #aaa; stroke-width: 1;" x1="243.91359706275819" y1="567.4128917291171" x2="309.7520522345976" y2="672.6521412471826"></line><line style="stroke: #aaa; stroke-width: 1.41421;" x1="243.91359706275819" y1="567.4128917291171" x2="423.80064651245914" y2="609.6866167062567"></line><line style="stroke: #aaa; stroke-width: 1.41421;" x1="368.8512656964931" y1="491.8669218476445" x2="309.7520522345976" y2="672.6521412471826"></line><line style="stroke: #aaa; stroke-width: 1;" x1="368.8512656964931" y1="491.8669218476445" x2="493.74080159910324" y2="434.2199981607536"></line><line style="stroke: #aaa; stroke-width: 1;" x1="368.8512656964931" y1="491.8669218476445" x2="423.80064651245914" y2="609.6866167062567"></line><line style="stroke: #aaa; stroke-width: 1.41421;" x1="368.8512656964931" y1="491.8669218476445" x2="538.3367660148909" y2="564.1214041431627"></line><line style="stroke: #aaa; stroke-width: 1.41421;" x1="493.74080159910324" y1="434.2199981607536" x2="423.80064651245914" y2="609.6866167062567"></line><line style="stroke: #aaa; stroke-width: 1;" x1="493.74080159910324" y1="434.2199981607536" x2="616.9078450799291" y2="397.6780243023443"></line><line style="stroke: #aaa; stroke-width: 1;" x1="493.74080159910324" y1="434.2199981607536" x2="538.3367660148909" y2="564.1214041431627"></line><line style="stroke: #aaa; stroke-width: 1.41421;" x1="493.74080159910324" y1="434.2199981607536" x2="655.9533803093057" y2="526.9853536992276"></line><line style="stroke: #aaa; stroke-width: 1.41421;" x1="616.9078450799291" y1="397.6780243023443" x2="538.3367660148909" y2="564.1214041431627"></line><line style="stroke: #aaa; stroke-width: 1;" x1="616.9078450799291" y1="397.6780243023443" x2="747.1616090282706" y2="367.764520937044"></line><line style="stroke: #aaa; stroke-width: 1;" x1="616.9078450799291" y1="397.6780243023443" x2="655.9533803093057" y2="526.9853536992276"></line><line style="stroke: #aaa; stroke-width: 1.41421;" x1="616.9078450799291" y1="397.6780243023443" x2="780" y2="492.2823139107757"></line><line style="stroke: #aaa; stroke-width: 1.41421;" x1="747.1616090282706" y1="367.764520937044" x2="655.9533803093057" y2="526.9853536992276"></line><line style="stroke: #aaa; stroke-width: 1;" x1="680.3059048484964" y1="663.8497856236867" x2="711.159644851932" y2="533.7305295815021"></line><line style="stroke: #aaa; stroke-width: 1;" x1="711.159644851932" y1="533.7305295815021" x2="725.7010044714509" y2="392.99253370071995"></line><line style="stroke: #aaa; stroke-width: 1;" x1="725.7010044714509" y1="392.99253370071995" x2="722.2473161751309" y2="248.92032419320418"></line><line style="stroke: #aaa; stroke-width: 1;" x1="722.2473161751309" y1="248.92032419320418" x2="747.1616090282706" y2="367.764520937044"></line><line style="stroke: #aaa; stroke-width: 1;" x1="747.1616090282706" y1="367.764520937044" x2="780" y2="492.2823139107757"></line><line style="stroke: #aaa; stroke-width: 1;" x1="198.24143752721997" y1="746.7580853098002" x2="309.7520522345976" y2="672.6521412471826"></line><line style="stroke: #aaa; stroke-width: 1;" x1="309.7520522345976" y1="672.6521412471826" x2="423.80064651245914" y2="609.6866167062567"></line><line style="stroke: #aaa; stroke-width: 1;" x1="423.80064651245914" y1="609.6866167062567" x2="538.3367660148909" y2="564.1214041431627"></line><line style="stroke: #aaa; stroke-width: 1;" x1="538.3367660148909" y1="564.1214041431627" x2="655.9533803093057" y2="526.9853536992276"></line><line style="stroke: #aaa; stroke-width: 1;" x1="655.9533803093057" y1="526.9853536992276" x2="780" y2="492.2823139107757"></line><circle r="10" cx="46.888394181734895" cy="618.4203996717118" style="stroke: #000; fill: #69b3a2;"></circle><circle r="10" cx="175.40278628477432" cy="609.6839792963322" style="stroke: #000; fill: #69b3a2;"></circle><circle r="10" cx="298.6761173855633" cy="605.3850011191641" style="stroke: #000; fill: #69b3a2;"></circle><circle r="10" cx="421.87362295101883" cy="610.061128915556" style="stroke: #000; fill: #69b3a2;"></circle><circle r="10" cx="550.4266531094543" cy="631.2962349238188" style="stroke: #000; fill: #69b3a2;"></circle><circle r="10" cx="680.3059048484964" cy="663.8497856236867" style="stroke: #000; fill: #69b3a2;"></circle><circle r="10" cx="36.23589549610203" cy="490.0866701485104" style="stroke: #000; fill: #69b3a2;"></circle><circle r="10" cx="168.99783628277893" cy="474.76068107641026" style="stroke: #000; fill: #69b3a2;"></circle><circle r="10" cx="297.30255429680926" cy="468.0567806594566" style="stroke: #000; fill: #69b3a2;"></circle><circle r="10" cx="434.2927906746737" cy="480.6684793076104" style="stroke: #000; fill: #69b3a2;"></circle><circle r="10" cx="577.2992228316413" cy="510.10461147655053" style="stroke: #000; fill: #69b3a2;"></circle><circle r="10" cx="711.159644851932" cy="533.7305295815021" style="stroke: #000; fill: #69b3a2;"></circle><circle r="10" cx="20" cy="369.7438970854885" style="stroke: #000; fill: #69b3a2;"></circle><circle r="10" cx="150.64278191222633" cy="341.1123727493089" style="stroke: #000; fill: #69b3a2;"></circle><circle r="10" cx="298.6523806962415" cy="336.054374369928" style="stroke: #000; fill: #69b3a2;"></circle><circle r="10" cx="458.118492581417" cy="373.76370542213306" style="stroke: #000; fill: #69b3a2;"></circle><circle r="10" cx="599.7251194208803" cy="390.7793511624558" style="stroke: #000; fill: #69b3a2;"></circle><circle r="10" cx="725.7010044714509" cy="392.99253370071995" style="stroke: #000; fill: #69b3a2;"></circle><circle r="10" cx="64.88871691742301" cy="506.68652821421324" style="stroke: #000; fill: #69b3a2;"></circle><circle r="10" cx="182.8851182409864" cy="462.48472471166343" style="stroke: #000; fill: #69b3a2;"></circle><circle r="10" cx="310.6664422554714" cy="399.052510484572" style="stroke: #000; fill: #69b3a2;"></circle><circle r="10" cx="448.37168046390644" cy="310.23140148840145" style="stroke: #000; fill: #69b3a2;"></circle><circle r="10" cx="589.5499919316079" cy="265.583875708587" style="stroke: #000; fill: #69b3a2;"></circle><circle r="10" cx="722.2473161751309" cy="248.92032419320418" style="stroke: #000; fill: #69b3a2;"></circle><circle r="10" cx="125.65068546630967" cy="634.455852013541" style="stroke: #000; fill: #69b3a2;"></circle><circle r="10" cx="243.91359706275819" cy="567.4128917291171" style="stroke: #000; fill: #69b3a2;"></circle><circle r="10" cx="368.8512656964931" cy="491.8669218476445" style="stroke: #000; fill: #69b3a2;"></circle><circle r="10" cx="493.74080159910324" cy="434.2199981607536" style="stroke: #000; fill: #69b3a2;"></circle><circle r="10" cx="616.9078450799291" cy="397.6780243023443" style="stroke: #000; fill: #69b3a2;"></circle><circle r="10" cx="747.1616090282706" cy="367.764520937044" style="stroke: #000; fill: #69b3a2;"></circle><circle r="10" cx="198.24143752721997" cy="746.7580853098002" style="stroke: #000; fill: #69b3a2;"></circle><circle r="10" cx="309.7520522345976" cy="672.6521412471826" style="stroke: #000; fill: #69b3a2;"></circle><circle r="10" cx="423.80064651245914" cy="609.6866167062567" style="stroke: #000; fill: #69b3a2;"></circle><circle r="10" cx="538.3367660148909" cy="564.1214041431627" style="stroke: #000; fill: #69b3a2;"></circle><circle r="10" cx="655.9533803093057" cy="526.9853536992276" style="stroke: #000; fill: #69b3a2;"></circle><circle r="10" cx="780" cy="492.2823139107757" style="stroke: #000; fill: #69b3a2;"></circle></svg>