<svg width="800" height="800" xmlns="http://www.w3.org/2000/svg"><line style="stroke: #aaa; stroke-width: 1;" x1="20.005411500758242" y1="20" x2="222.78329240198033" y2="38.014991158037894"></line><line style="stroke: #aaa; stroke-width: 1;" x1="20.005411500758242" y1="20" x2="61.75622260624593" y2="155.6437782541244"></line><line style="stroke: #aaa; stroke-width: 1.41421;" x1="20.005411500758242" y1="20" x2="164.34363039465478" y2="110.44824996875259"></line><line style="stroke: #aaa; stroke-width: 1.41421;" x1="222.78329240198033" y1="38.014991158037894" x2="61.75622260624593" y2="155.6437782541244"></line><line style="stroke: #aaa; stroke-width: 1;" x1="222.78329240198033" y1="38.014991158037894" x2="259.30095569263716" y2="235.47068987618906"></line><line style="stroke: #aaa; stroke-width: 1;" x1="222.78329240198033" y1="38.014991158037894" x2="164.34363039465478" y2="110.44824996875259"></line><line style="stroke: #aaa; stroke-width: 1.41421;" x1="222.78329240198033" y1="38.014991158037894" x2="220.68908462462647" y2="216.4192351965284"></line><line style="stroke: #aaa; stroke-width: 1.41421;" x1="259.30095569263716" y1="235.47068987618906" x2="164.34363039465478" y2="110.44824996875259"></line><line style="stroke: #aaa; stroke-width: 1;" x1="259.30095569263716" y1="235.47068987618906" x2="435.38677735570576" y2="250.8549057908399"></line><line style="stroke: #aaa; stroke-width: 1;" x1="259.30095569263716" y1="235.47068987618906" x2="220.68908462462647" y2="216.4192351965284"></line><line style="stroke: #aaa; stroke-width: 1.41421;" x1="259.30095569263716" y1="235.47068987618906" x2="406.2565236127724" y2="159.00971168759014"></line><line style="stroke: #aaa; stroke-width: 1.41421;" x1="435.38677735570576" y1="250.8549057908399" x2="220.68908462462647" y2="216.4192351965284"></line><line style="stroke: #aaa; stroke-width: 1;" x1="435.38677735570576" y1="250.8549057908399" x2="615.8184533953702" y2="188.878299215929"></line><line style="stroke: #aaa; stroke-width: 1;" x1="435.38677735570576" y1="250.8549057908399" x2="406.2565236127724" y2="159.00971168759014"></line><line style="stroke: #aaa; stroke-width: 1.41421;" x1="435.38677735570576" y1="250.8549057908399" x2="558.1469842603598" y2="124.16945046565117"></line><line style="stroke: #aaa; stroke-width: 1.41421;" x1="615.8184533953702" y1="188.878299215929" x2="406.2565236127724" y2="159.00971168759014"></line><line style="stroke: #aaa; stroke-width: 1;" x1="615.8184533953702" y1="188.878299215929" x2="698.620415858627" y2="20.003221931200688"></line><line style="stroke: #aaa; stroke-width: 1;" x1="615.8184533953702" y1="188.878299215929" x2="558.1469842603598" y2="124.16945046565117"></line><line style="stroke: #aaa; stroke-width: 1.41421;" x1="615.8184533953702" y1="188.878299215929" x2="519.0560105705694" y2="112.17396946901536"></line><line style="stroke: #aaa; stroke-width: 1.41421;" x1="698.620415858627" y1="20.003221931200688" x2="558.1469842603598" y2="124.16945046565117"></line><line style="stroke: #aaa; stroke-width: 1;" x1="61.75622260624593" y1="155.6437782541244" x2="164.34363039465478" y2="110.44824996875259"></line><line style="stroke: #aaa; stroke-width: 1;" x1="61.75622260624593" y1="155.6437782541244" x2="89.05842161468946" y2="305.1672276485004"></line><line style="stroke: #aaa; stroke-width: 1.41421;" x1="61.75622260624593" y1="155.6437782541244" x2="192.41795824596068" y2="299.4614275862867"></line><line style="stroke: #aaa; stroke-width: 1.41421;" x1="164.34363039465478" y1="110.44824996875259" x2="89.05842161468946" y2="305.1672276485004"></line><line style="stroke: #aaa; stroke-width: 1;" x1="164.34363039465478" y1="110.44824996875259" x2="220.68908462462647" y2="216.4192351965284"></line><line style="stroke: #aaa; stroke-width: 1;" x1="164.34363039465478" y1="110.44824996875259" x2="192.41795824596068" y2="299.4614275862867"></line><line style="stroke: #aaa; stroke-width: 1.41421;" x1="164.34363039465478" y1="110.44824996875259" x2="250.13828770500524" y2="267.89087210409065"></line><line style="stroke: #aaa; stroke-width: 1.41421;" x1="220.68908462462647" y1="216.4192351965284" x2="192.41795824596068" y2="299.4614275862867"></line><line style="stroke: #aaa; stroke-width: 1;" x1="220.68908462462647" y1="216.4192351965284" x2="406.2565236127724" y2="159.00971168759014"></line><line style="stroke: #aaa; stroke-width: 1;" x1="220.68908462462647" y1="216.4192351965284" x2="250.13828770500524" y2="267.89087210409065"></line><line style="stroke: #aaa; stroke-width: 1.41421;" x1="220.68908462462647" y1="216.4192351965284" x2="406.3080983992529" y2="265.51843192598653"></line><line style="stroke: #aaa; stroke-width: 1.41421;" x1="406.2565236127724" y1="159.00971168759014" x2="250.13828770500524" y2="267.89087210409065"></line><line style="stroke: #aaa; stroke-width: 1;" x1="406.2565236127724" y1="159.00971168759014" x2="558.1469842603598" y2="124.16945046565117"></line><line style="stroke: #aaa; stroke-width: 1;" x1="406.2565236127724" y1="159.00971168759014" x2="406.3080983992529" y2="265.51843192598653"></line><line style="stroke: #aaa; stroke-width: 1.41421;" x1="406.2565236127724" y1="159.00971168759014" x2="560.8600894754799" y2="311.2231933662924"></line><line style="stroke: #aaa; stroke-width: 1.41421;" x1="558.1469842603598" y1="124.16945046565117" x2="406.3080983992529" y2="265.51843192598653"></line><line style="stroke: #aaa; stroke-width: 1;" x1="558.1469842603598" y1="124.16945046565117" x2="519.0560105705694" y2="112.17396946901536"></line><line style="stroke: #aaa; stroke-width: 1;" x1="558.1469842603598" y1="124.16945046565117" x2="560.8600894754799" y2="311.2231933662924"></line><line style="stroke: #aaa; stroke-width: 1.41421;" x1="558.1469842603598" y1="124.16945046565117" x2="597.7157033407063" y2="294.9472765380177"></line><line style="stroke: #aaa; stroke-width: 1.41421;" x1="519.0560105705694" y1="112.17396946901536" x2="560.8600894754799" y2="311.2231933662924"></line><line style="stroke: #aaa; stroke-width: 1;" x1="89.05842161468946" y1="305.1672276485004" x2="192.41795824596068" y2="299.4614275862867"></line><line style="stroke: #aaa; stroke-width: 1;" x1="89.05842161468946" y1="305.1672276485004" x2="67.27377469780569" y2="477.2112147289638"></line><line style="stroke: #aaa; stroke-width: 1.41421;" x1="89.05842161468946" y1="305.1672276485004" x2="203.58118505654758" y2="452.07257801337823"></line><line style="stroke: #aaa; stroke-width: 1.41421;" x1="192.41795824596068" y1="299.4614275862867" x2="67.27377469780569" y2="477.2112147289638"></line><line style="stroke: #aaa; stroke-width: 1;" x1="192.41795824596068" y1="299.4614275862867" x2="250.13828770500524" y2="267.89087210409065"></line><line style="stroke: #aaa; stroke-width: 1;" x1="192.41795824596068" y1="299.4614275862867" x2="203.58118505654758" y2="452.07257801337823"></line><line style="stroke: #aaa; stroke-width: 1.41421;" x1="192.41795824596068" y1="299.4614275862867" x2="271.28937908691245" y2="429.1326558793308"></line><line style="stroke: #aaa; stroke-width: 1.41421;" x1="250.13828770500524" y1="267.89087210409065" x2="203.58118505654758" y2="452.07257801337823"></line><line style="stroke: #aaa; stroke-width: 1;" x1="250.13828770500524" y1="267.89087210409065" x2="406.3080983992529" y2="265.51843192598653"></line><line style="stroke: #aaa; stroke-width: 1;" x1="250.13828770500524" y1="267.89087210409065" x2="271.28937908691245" y2="429.1326558793308"></line><line style="stroke: #aaa; stroke-width: 1.41421;" x1="250.13828770500524" y1="267.89087210409065" x2="389.42821367666687" y2="428.5246162913499"></line><line style="stroke: #aaa; stroke-width: 1.41421;" x1="406.3080983992529" y1="265.51843192598653" x2="271.28937908691245" y2="429.1326558793308"></line><line style="stroke: #aaa; stroke-width: 1;" x1="406.3080983992529" y1="265.51843192598653" x2="560.8600894754799" y2="311.2231933662924"></line><line style="stroke: #aaa; stroke-width: 1;" x1="406.3080983992529" y1="265.51843192598653" x2="389.42821367666687" y2="428.5246162913499"></line><line style="stroke: #aaa; stroke-width: 1.41421;" x1="406.3080983992529" y1="265.51843192598653" x2="486.3494525545787" y2="452.7240490005006"></line><line style="stroke: #aaa; stroke-width: 1.41421;" x1="560.8600894754799" y1="311.2231933662924" x2="389.42821367666687" y2="428.5246162913499"></line><line style="stroke: #aaa; stroke-width: 1;" x1="560.8600894754799" y1="311.2231933662924" x2="597.7157033407063" y2="294.9472765380177"></line><line style="stroke: #aaa; stroke-width: 1;" x1="560.8600894754799" y1="311.2231933662924" x2="486.3494525545787" y2="452.7240490005006"></line><line style="stroke: #aaa; stroke-width: 1.41421;" x1="560.8600894754799" y1="311.2231933662924" x2="520.839412397817" y2="456.62744599834235"></line><line style="stroke: #aaa; stroke-width: 1.41421;" x1="597.7157033407063" y1="294.9472765380177" x2="486.3494525545787" y2="452.7240490005006"></line><line style="stroke: #aaa; stroke-width: 1;" x1="67.27377469780569" y1="477.2112147289638" x2="203.58118505654758" y2="452.07257801337823"></line><line style="stroke: #aaa; stroke-width: 1;" x1="67.27377469780569" y1="477.2112147289638" x2="154.67091491335495" y2="661.5177859107832"></line><line style="stroke: #aaa; stroke-width: 1.41421;" x1="67.27377469780569" y1="477.2112147289638" x2="179.25145814997234" y2="528.1168862164635"></line><line style="stroke: #aaa; stroke-width: 1.41421;" x1="203.58118505654758" y1="452.07257801337823" x2="154.67091491335495" y2="661.5177859107832"></line><line style="stroke: #aaa; stroke-width: 1;" x1="203.58118505654758" y1="452.07257801337823" x2="271.28937908691245" y2="429.1326558793308"></line><line style="stroke: #aaa; stroke-width: 1;" x1="203.58118505654758" y1="452.07257801337823" x2="179.25145814997234" y2="528.1168862164635"></line><line style="stroke: #aaa; stroke-width: 1.41421;" x1="203.58118505654758" y1="452.07257801337823" x2="331.81239102180655" y2="590.3513667237769"></line><line style="stroke: #aaa; stroke-width: 1.41421;" x1="271.28937908691245" y1="429.1326558793308" x2="179.25145814997234" y2="528.1168862164635"></line><line style="stroke: #aaa; stroke-width: 1;" x1="271.28937908691245" y1="429.1326558793308" x2="389.42821367666687" y2="428.5246162913499"></line><line style="stroke: #aaa; stroke-width: 1;" x1="271.28937908691245" y1="429.1326558793308" x2="331.81239102180655" y2="590.3513667237769"></line><line style="stroke: #aaa; stroke-width: 1.41421;" x1="271.28937908691245" y1="429.1326558793308" x2="382.18331340737655" y2="589.1909340279653"></line><line style="stroke: #aaa; stroke-width: 1.41421;" x1="389.42821367666687" y1="428.5246162913499" x2="331.81239102180655" y2="590.3513667237769"></line><line style="stroke: #aaa; stroke-width: 1;" x1="389.42821367666687" y1="428.5246162913499" x2="486.3494525545787" y2="452.7240490005006"></line><line style="stroke: #aaa; stroke-width: 1;" x1="389.42821367666687" y1="428.5246162913499" x2="382.18331340737655" y2="589.1909340279653"></line><line style="stroke: #aaa; stroke-width: 1.41421;" x1="389.42821367666687" y1="428.5246162913499" x2="516.1379634407502" y2="606.6218546271588"></line><line style="stroke: #aaa; stroke-width: 1.41421;" x1="486.3494525545787" y1="452.7240490005006" x2="382.18331340737655" y2="589.1909340279653"></line><line style="stroke: #aaa; stroke-width: 1;" x1="486.3494525545787" y1="452.7240490005006" x2="520.839412397817" y2="456.62744599834235"></line><line style="stroke: #aaa; stroke-width: 1;" x1="486.3494525545787" y1="452.7240490005006" x2="516.1379634407502" y2="606.6218546271588"></line><line style="stroke: #aaa; stroke-width: 1.41421;" x1="486.3494525545787" y1="452.7240490005006" x2="651.2503317074895" y2="550.986232326906"></line><line style="stroke: #aaa; stroke-width: 1.41421;" x1="520.839412397817" y1="456.62744599834235" x2="516.1379634407502" y2="606.6218546271588"></line><line style="stroke: #aaa; stroke-width: 1;" x1="154.67091491335495" y1="661.5177859107832" x2="179.25145814997234" y2="528.1168862164635"></line><line style="stroke: #aaa; stroke-width: 1;" x1="154.67091491335495" y1="661.5177859107832" x2="20.002232007463444" y2="698.6244875522965"></line><line style="stroke: #aaa; stroke-width: 1.41421;" x1="154.67091491335495" y1="661.5177859107832" x2="69.48321140600686" y2="547.4384299095353"></line><line style="stroke: #aaa; stroke-width: 1.41421;" x1="179.25145814997234" y1="528.1168862164635" x2="20.002232007463444" y2="698.6244875522965"></line><line style="stroke: #aaa; stroke-width: 1;" x1="179.25145814997234" y1="528.1168862164635" x2="331.81239102180655" y2="590.3513667237769"></line><line style="stroke: #aaa; stroke-width: 1;" x1="179.25145814997234" y1="528.1168862164635" x2="69.48321140600686" y2="547.4384299095353"></line><line style="stroke: #aaa; stroke-width: 1.41421;" x1="179.25145814997234" y1="528.1168862164635" x2="230.37835832684897" y2="734.1568009749307"></line><line style="stroke: #aaa; stroke-width: 1.41421;" x1="331.81239102180655" y1="590.3513667237769" x2="69.48321140600686" y2="547.4384299095353"></line><line style="stroke: #aaa; stroke-width: 1;" x1="331.81239102180655" y1="590.3513667237769" x2="382.18331340737655" y2="589.1909340279653"></line><line style="stroke: #aaa; stroke-width: 1;" x1="331.81239102180655" y1="590.3513667237769" x2="230.37835832684897" y2="734.1568009749307"></line><line style="stroke: #aaa; stroke-width: 1.41421;" x1="331.81239102180655" y1="590.3513667237769" x2="380.8057237158573" y2="780"></line><line style="stroke: #aaa; stroke-width: 1.41421;" x1="382.18331340737655" y1="589.1909340279653" x2="230.37835832684897" y2="734.1568009749307"></line><line style="stroke: #aaa; stroke-width: 1;" x1="382.18331340737655" y1="589.1909340279653" x2="516.1379634407502" y2="606.6218546271588"></line><line style="stroke: #aaa; stroke-width: 1;" x1="382.18331340737655" y1="589.1909340279653" x2="380.8057237158573" y2="780"></line><line style="stroke: #aaa; stroke-width: 1.41421;" x1="382.18331340737655" y1="589.1909340279653" x2="545.3428649009583" y2="717.2511288591045"></line><line style="stroke: #aaa; stroke-width: 1.41421;" x1="516.1379634407502" y1="606.6218546271588" x2="380.8057237158573" y2="780"></line><line style="stroke: #aaa; stroke-width: 1;" x1="516.1379634407502" y1="606.6218546271588" x2="651.2503317074895" y2="550.986232326906"></line><line style="stroke: #aaa; stroke-width: 1;" x1="516.1379634407502" y1="606.6218546271588" x2="545.3428649009583" y2="717.2511288591045"></line><line style="stroke: #aaa; stroke-width: 1.41421;" x1="516.1379634407502" y1="606.6218546271588" x2="698.6231303210733" y2="698.6231303210733"></line><line style="stroke: #aaa; stroke-width: 1.41421;" x1="651.2503317074895" y1="550.986232326906" x2="545.3428649009583" y2="717.2511288591045"></line><line style="stroke: #aaa; stroke-width: 1;" x1="698.620415858627" y1="20.003221931200688" x2="519.0560105705694" y2="112.17396946901536"></line><line style="stroke: #aaa; stroke-width: 1;" x1="519.0560105705694" y1="112.17396946901536" x2="597.7157033407063" y2="294.9472765380177"></line><line style="stroke: #aaa; stroke-width: 1;" x1="597.7157033407063" y1="294.9472765380177" x2="520.839412397817" y2="456.62744599834235"></line><line style="stroke: #aaa; stroke-width: 1;" x1="520.839412397817" y1="456.62744599834235" x2="651.2503317074895" y2="550.986232326906"></line><line style="stroke: #aaa; stroke-width: 1;" x1="651.2503317074895" y1="550.986232326906" x2="698.6231303210733" y2="698.6231303210733"></line><line style="stroke: #aaa; stroke-width: 1;" x1="20.002232007463444" y1="698.6244875522965" x2="69.48321140600686" y2="547.4384299095353"></line><line style="stroke: #aaa; stroke-width: 1;" x1="69.48321140600686" y1="547.4384299095353" x2="230.37835832684897" y2="734.1568009749307"></line><line style="stroke: #aaa; stroke-width: 1;" x1="230.37835832684897" y1="734.1568009749307" x2="380.8057237158573" y2="780"></line><line style="stroke: #aaa; stroke-width: 1;" x1="380.8057237158573" y1="780" x2="545.3428649009583" y2="717.2511288591045"></line><line style="stroke: #aaa; stroke-width: 1;" x1="545.3428649009583" y1="717.2511288591045" x2="698.6231303210733" y2="698.6231303210733"></line><circle r="10" cx="20.005411500758242" cy="20" style="stroke: #000; fill: #69b3a2;"></circle><circle r="10" cx="222.78329240198033" cy="38.014991158037894" style="stroke: #000; fill: #69b3a2;"></circle><circle r="10" cx="259.30095569263716" cy="235.47068987618906" style="stroke: #000; fill: #69b3a2;"></circle><circle r="10" cx="435.38677735570576" cy="250.8549057908399" style="stroke: #000; fill: #69b3a2;"></circle><circle r="10" cx="615.8184533953702" cy="188.878299215929" style="stroke: #000; fill: #69b3a2;"></circle><circle r="10" cx="698.620415858627" cy="20.003221931200688" style="stroke: #000; fill: #69b3a2;"></circle><circle r="10" cx="61.75622260624593" cy="155.6437782541244" style="stroke: #000; fill: #69b3a2;"></circle><circle r="10" cx="164.34363039465478" cy="110.44824996875259" style="stroke: #000; fill: #69b3a2;"></circle><circle r="10" cx="220.68908462462647" cy="216.4192351965284" style="stroke: #000; fill: #69b3a2;"></circle><circle r="10" cx="406.2565236127724" cy="159.00971168759014" style="stroke: #000; fill: #69b3a2;"></circle><circle r="10" cx="558.1469842603598" cy="124.16945046565117" style="stroke: #000; fill: #69b3a2;"></circle><circle r="10" cx="519.0560105705694" cy="112.17396946901536" style="stroke: #000; fill: #69b3a2;"></circle><circle r="10" cx="89.05842161468946" cy="305.1672276485004" style="stroke: #000; fill: #69b3a2;"></circle><circle r="10" cx="192.41795824596068" cy="299.4614275862867" style="stroke: #000; fill: #69b3a2;"></circle><circle r="10" cx="250.13828770500524" cy="267.89087210409065" style="stroke: #000; fill: #69b3a2;"></circle><circle r="10" cx="406.3080983992529" cy="265.51843192598653" style="stroke: #000; fill: #69b3a2;"></circle><circle r="10" cx="560.8600894754799" cy="311.2231933662924" style="stroke: #000; fill: #69b3a2;"></circle><circle r="10" cx="597.7157033407063" cy="294.9472765380177" style="stroke: #000; fill: #69b3a2;"></circle><circle r="10" cx="67.27377469780569" cy="477.2112147289638" style="stroke: #000; fill: #69b3a2;"></circle><circle r="10" cx="203.58118505654758" cy="452.07257801337823" style="stroke: #000; fill: #69b3a2;"></circle><circle r="10" cx="271.28937908691245" cy="429.1326558793308" style="stroke: #000; fill: #69b3a2;"></circle><circle r="10" cx="389.42821367666687" cy="428.5246162913499" style="stroke: #000; fill: #69b3a2;"></circle><circle r="10" cx="486.3494525545787" cy="452.7240490005006" style="stroke: #000; fill: #69b3a2;"></circle><circle r="10" cx="520.839412397817" cy="456.62744599834235" style="stroke: #000; fill: #69b3a2;"></circle><circle r="10" cx="154.67091491335495" cy="661.5177859107832" style="stroke: #000; fill: #69b3a2;"></circle><circle r="10" cx="179.25145814997234" cy="528.1168862164635" style="stroke: #000; fill: #69b3a2;"></circle><circle r="10" cx="331.81239102180655" cy="590.3513667237769" style="stroke: #000; fill: #69b3a2;"></circle><circle r="10" cx="382.18331340737655" cy="589.1909340279653" style="stroke: #000; fill: #69b3a2;"></circle><circle r="10" cx="516.1379634407502" cy="606.6218546271588" style="stroke: #000; fill: #69b3a2;"></circle><circle r="10" cx="651.2503317074895" cy="550.986232326906" style="stroke: #000; fill: #69b3a2;"></circle><circle r="10" cx="20.002232007463444" cy="698.6244875522965" style="stroke: #000; fill: #69b3a2;"></circle><circle r="10" cx="69.48321140600686" cy="547.4384299095353" style="stroke: #000; fill: #69b3a2;"></circle><circle r="10" cx="230.37835832684897" cy="734.1568009749307" style="stroke: #000; fill: #69b3a2;"></circle><circle r="10" cx="380.8057237158573" cy="780" style="stroke: #000; fill: #69b3a2;"></circle><circle r="10" cx="545.3428649009583" cy="717.2511288591045" style="stroke: #000; fill: #69b3a2;"></circle><circle r="10" cx="698.6231303210733" cy="698.6231303210733" style="stroke: #000; fill: #69b3a2;"></circle></svg>