<svg width="800" height="800" xmlns="http://www.w3.org/2000/svg"><line style="stroke: #aaa; stroke-width: 1;" x1="20" y1="20.125137084168365" x2="165.61062954822526" y2="95.5433149686812"></line><line style="stroke: #aaa; stroke-width: 1;" x1="20" y1="20.125137084168365" x2="152.08693621500433" y2="115.06602702467094"></line><line style="stroke: #aaa; stroke-width: 1.41421;" x1="20" y1="20.125137084168365" x2="189.96751974177155" y2="121.56042320782504"></line><line style="stroke: #aaa; stroke-width: 1.41421;" x1="165.61062954822526" y1="95.5433149686812" x2="152.08693621500433" y2="115.06602702467094"></line><line style="stroke: #aaa; stroke-width: 1;" x1="165.61062954822526" y1="95.5433149686812" x2="273.79348116564944" y2="149.72852228298342"></line><line style="stroke: #aaa; stroke-width: 1;" x1="165.61062954822526" y1="95.5433149686812" x2="189.96751974177155" y2="121.56042320782504"></line><line style="stroke: #aaa; stroke-width: 1.41421;" x1="165.61062954822526" y1="95.5433149686812" x2="290.5457094022692" y2="163.82511293321073"></line><line style="stroke: #aaa; stroke-width: 1.41421;" x1="273.79348116564944" y1="149.72852228298342" x2="189.96751974177155" y2="121.56042320782504"></line><line style="stroke: #aaa; stroke-width: 1;" x1="273.79348116564944" y1="149.72852228298342" x2="363.933177497701" y2="186.8380546425498"></line><line style="stroke: #aaa; stroke-width: 1;" x1="273.79348116564944" y1="149.72852228298342" x2="290.5457094022692" y2="163.82511293321073"></line><line style="stroke: #aaa; stroke-width: 1.41421;" x1="273.79348116564944" y1="149.72852228298342" x2="378.3427474549011" y2="201.11022086985113"></line><line style="stroke: #aaa; stroke-width: 1.41421;" x1="363.933177497701" y1="186.8380546425498" x2="290.5457094022692" y2="163.82511293321073"></line><line style="stroke: #aaa; stroke-width: 1;" x1="363.933177497701" y1="186.8380546425498" x2="440.02848832764533" y2="209.713424146476"></line><line style="stroke: #aaa; stroke-width: 1;" x1="363.933177497701" y1="186.8380546425498" x2="378.3427474549011" y2="201.11022086985113"></line><line style="stroke: #aaa; stroke-width: 1.41421;" x1="363.933177497701" y1="186.8380546425498" x2="452.7642961990038" y2="226.38664339532139"></line><line style="stroke: #aaa; stroke-width: 1.41421;" x1="440.02848832764533" y1="209.713424146476" x2="378.3427474549011" y2="201.11022086985113"></line><line style="stroke: #aaa; stroke-width: 1;" x1="440.02848832764533" y1="209.713424146476" x2="503.34538643313715" y2="217.33880067026243"></line><line style="stroke: #aaa; stroke-width: 1;" x1="440.02848832764533" y1="209.713424146476" x2="452.7642961990038" y2="226.38664339532139"></line><line style="stroke: #aaa; stroke-width: 1.41421;" x1="440.02848832764533" y1="209.713424146476" x2="515.5577632521959" y2="237.75041158940377"></line><line style="stroke: #aaa; stroke-width: 1.41421;" x1="503.34538643313715" y1="217.33880067026243" x2="452.7642961990038" y2="226.38664339532139"></line><line style="stroke: #aaa; stroke-width: 1;" x1="503.34538643313715" y1="217.33880067026243" x2="553.6008538614794" y2="208.85074760977048"></line><line style="stroke: #aaa; stroke-width: 1;" x1="503.34538643313715" y1="217.33880067026243" x2="515.5577632521959" y2="237.75041158940377"></line><line style="stroke: #aaa; stroke-width: 1.41421;" x1="503.34538643313715" y1="217.33880067026243" x2="567.7578379039069" y2="234.02456103175598"></line><line style="stroke: #aaa; stroke-width: 1.41421;" x1="553.6008538614794" y1="208.85074760977048" x2="515.5577632521959" y2="237.75041158940377"></line><line style="stroke: #aaa; stroke-width: 1;" x1="553.6008538614794" y1="208.85074760977048" x2="589.9214911242423" y2="186.40519623933065"></line><line style="stroke: #aaa; stroke-width: 1;" x1="553.6008538614794" y1="208.85074760977048" x2="567.7578379039069" y2="234.02456103175598"></line><line style="stroke: #aaa; stroke-width: 1.41421;" x1="553.6008538614794" y1="208.85074760977048" x2="608.6950153198003" y2="214.1510778553349"></line><line style="stroke: #aaa; stroke-width: 1.41421;" x1="589.9214911242423" y1="186.40519623933065" x2="567.7578379039069" y2="234.02456103175598"></line><line style="stroke: #aaa; stroke-width: 1;" x1="589.9214911242423" y1="186.40519623933065" x2="614.1849549613606" y2="151.86963224236604"></line><line style="stroke: #aaa; stroke-width: 1;" x1="589.9214911242423" y1="186.40519623933065" x2="608.6950153198003" y2="214.1510778553349"></line><line style="stroke: #aaa; stroke-width: 1.41421;" x1="589.9214911242423" y1="186.40519623933065" x2="636.9602921439764" y2="177.78299127687526"></line><line style="stroke: #aaa; stroke-width: 1.41421;" x1="614.1849549613606" y1="151.86963224236604" x2="608.6950153198003" y2="214.1510778553349"></line><line style="stroke: #aaa; stroke-width: 1;" x1="614.1849549613606" y1="151.86963224236604" x2="627.5689652405088" y2="98.56952345404933"></line><line style="stroke: #aaa; stroke-width: 1;" x1="614.1849549613606" y1="151.86963224236604" x2="636.9602921439764" y2="177.78299127687526"></line><line style="stroke: #aaa; stroke-width: 1.41421;" x1="614.1849549613606" y1="151.86963224236604" x2="653.3296853435073" y2="130.33198142090828"></line><line style="stroke: #aaa; stroke-width: 1.41421;" x1="627.5689652405088" y1="98.56952345404933" x2="636.9602921439764" y2="177.78299127687526"></line><line style="stroke: #aaa; stroke-width: 1;" x1="627.5689652405088" y1="98.56952345404933" x2="628.3875870606747" y2="20"></line><line style="stroke: #aaa; stroke-width: 1;" x1="627.5689652405088" y1="98.56952345404933" x2="653.3296853435073" y2="130.33198142090828"></line><line style="stroke: #aaa; stroke-width: 1.41421;" x1="627.5689652405088" y1="98.56952345404933" x2="660.3199244547403" y2="115.92148292076084"></line><line style="stroke: #aaa; stroke-width: 1.41421;" x1="628.3875870606747" y1="20" x2="653.3296853435073" y2="130.33198142090828"></line><line style="stroke: #aaa; stroke-width: 1;" x1="152.08693621500433" y1="115.06602702467094" x2="189.96751974177155" y2="121.56042320782504"></line><line style="stroke: #aaa; stroke-width: 1;" x1="152.08693621500433" y1="115.06602702467094" x2="244.7905317421861" y2="190.16486979775675"></line><line style="stroke: #aaa; stroke-width: 1.41421;" x1="152.08693621500433" y1="115.06602702467094" x2="270.58533572765987" y2="192.3690653540967"></line><line style="stroke: #aaa; stroke-width: 1.41421;" x1="189.96751974177155" y1="121.56042320782504" x2="244.7905317421861" y2="190.16486979775675"></line><line style="stroke: #aaa; stroke-width: 1;" x1="189.96751974177155" y1="121.56042320782504" x2="290.5457094022692" y2="163.82511293321073"></line><line style="stroke: #aaa; stroke-width: 1;" x1="189.96751974177155" y1="121.56042320782504" x2="270.58533572765987" y2="192.3690653540967"></line><line style="stroke: #aaa; stroke-width: 1.41421;" x1="189.96751974177155" y1="121.56042320782504" x2="332.8590235731035" y2="204.71332053703375"></line><line style="stroke: #aaa; stroke-width: 1.41421;" x1="290.5457094022692" y1="163.82511293321073" x2="270.58533572765987" y2="192.3690653540967"></line><line style="stroke: #aaa; stroke-width: 1;" x1="290.5457094022692" y1="163.82511293321073" x2="378.3427474549011" y2="201.11022086985113"></line><line style="stroke: #aaa; stroke-width: 1;" x1="290.5457094022692" y1="163.82511293321073" x2="332.8590235731035" y2="204.71332053703375"></line><line style="stroke: #aaa; stroke-width: 1.41421;" x1="290.5457094022692" y1="163.82511293321073" x2="414.75772403522944" y2="232.7240856535154"></line><line style="stroke: #aaa; stroke-width: 1.41421;" x1="378.3427474549011" y1="201.11022086985113" x2="332.8590235731035" y2="204.71332053703375"></line><line style="stroke: #aaa; stroke-width: 1;" x1="378.3427474549011" y1="201.11022086985113" x2="452.7642961990038" y2="226.38664339532139"></line><line style="stroke: #aaa; stroke-width: 1;" x1="378.3427474549011" y1="201.11022086985113" x2="414.75772403522944" y2="232.7240856535154"></line><line style="stroke: #aaa; stroke-width: 1.41421;" x1="378.3427474549011" y1="201.11022086985113" x2="486.13911219068535" y2="256.7114338122434"></line><line style="stroke: #aaa; stroke-width: 1.41421;" x1="452.7642961990038" y1="226.38664339532139" x2="414.75772403522944" y2="232.7240856535154"></line><line style="stroke: #aaa; stroke-width: 1;" x1="452.7642961990038" y1="226.38664339532139" x2="515.5577632521959" y2="237.75041158940377"></line><line style="stroke: #aaa; stroke-width: 1;" x1="452.7642961990038" y1="226.38664339532139" x2="486.13911219068535" y2="256.7114338122434"></line><line style="stroke: #aaa; stroke-width: 1.41421;" x1="452.7642961990038" y1="226.38664339532139" x2="544.5503657827649" y2="270.6142072669994"></line><line style="stroke: #aaa; stroke-width: 1.41421;" x1="515.5577632521959" y1="237.75041158940377" x2="486.13911219068535" y2="256.7114338122434"></line><line style="stroke: #aaa; stroke-width: 1;" x1="515.5577632521959" y1="237.75041158940377" x2="567.7578379039069" y2="234.02456103175598"></line><line style="stroke: #aaa; stroke-width: 1;" x1="515.5577632521959" y1="237.75041158940377" x2="544.5503657827649" y2="270.6142072669994"></line><line style="stroke: #aaa; stroke-width: 1.41421;" x1="515.5577632521959" y1="237.75041158940377" x2="593.5063851917357" y2="269.0469482196985"></line><line style="stroke: #aaa; stroke-width: 1.41421;" x1="567.7578379039069" y1="234.02456103175598" x2="544.5503657827649" y2="270.6142072669994"></line><line style="stroke: #aaa; stroke-width: 1;" x1="567.7578379039069" y1="234.02456103175598" x2="608.6950153198003" y2="214.1510778553349"></line><line style="stroke: #aaa; stroke-width: 1;" x1="567.7578379039069" y1="234.02456103175598" x2="593.5063851917357" y2="269.0469482196985"></line><line style="stroke: #aaa; stroke-width: 1.41421;" x1="567.7578379039069" y1="234.02456103175598" x2="634.0449029108195" y2="251.93669019675113"></line><line style="stroke: #aaa; stroke-width: 1.41421;" x1="608.6950153198003" y1="214.1510778553349" x2="593.5063851917357" y2="269.0469482196985"></line><line style="stroke: #aaa; stroke-width: 1;" x1="608.6950153198003" y1="214.1510778553349" x2="636.9602921439764" y2="177.78299127687526"></line><line style="stroke: #aaa; stroke-width: 1;" x1="608.6950153198003" y1="214.1510778553349" x2="634.0449029108195" y2="251.93669019675113"></line><line style="stroke: #aaa; stroke-width: 1.41421;" x1="608.6950153198003" y1="214.1510778553349" x2="664.1452316218365" y2="222.74782055877736"></line><line style="stroke: #aaa; stroke-width: 1.41421;" x1="636.9602921439764" y1="177.78299127687526" x2="634.0449029108195" y2="251.93669019675113"></line><line style="stroke: #aaa; stroke-width: 1;" x1="636.9602921439764" y1="177.78299127687526" x2="653.3296853435073" y2="130.33198142090828"></line><line style="stroke: #aaa; stroke-width: 1;" x1="636.9602921439764" y1="177.78299127687526" x2="664.1452316218365" y2="222.74782055877736"></line><line style="stroke: #aaa; stroke-width: 1.41421;" x1="636.9602921439764" y1="177.78299127687526" x2="681.6649558549095" y2="201.87522874138776"></line><line style="stroke: #aaa; stroke-width: 1.41421;" x1="653.3296853435073" y1="130.33198142090828" x2="664.1452316218365" y2="222.74782055877736"></line><line style="stroke: #aaa; stroke-width: 1;" x1="653.3296853435073" y1="130.33198142090828" x2="660.3199244547403" y2="115.92148292076084"></line><line style="stroke: #aaa; stroke-width: 1;" x1="653.3296853435073" y1="130.33198142090828" x2="681.6649558549095" y2="201.87522874138776"></line><line style="stroke: #aaa; stroke-width: 1.41421;" x1="653.3296853435073" y1="130.33198142090828" x2="686.3058416383793" y2="194.23085053177076"></line><line style="stroke: #aaa; stroke-width: 1.41421;" x1="660.3199244547403" y1="115.92148292076084" x2="681.6649558549095" y2="201.87522874138776"></line><line style="stroke: #aaa; stroke-width: 1;" x1="244.7905317421861" y1="190.16486979775675" x2="270.58533572765987" y2="192.3690653540967"></line><line style="stroke: #aaa; stroke-width: 1;" x1="244.7905317421861" y1="190.16486979775675" x2="308.89105482423093" y2="261.42157169591195"></line><line style="stroke: #aaa; stroke-width: 1.41421;" x1="244.7905317421861" y1="190.16486979775675" x2="335.5339997066576" y2="260.71356888186693"></line><line style="stroke: #aaa; stroke-width: 1.41421;" x1="270.58533572765987" y1="192.3690653540967" x2="308.89105482423093" y2="261.42157169591195"></line><line style="stroke: #aaa; stroke-width: 1;" x1="270.58533572765987" y1="192.3690653540967" x2="332.8590235731035" y2="204.71332053703375"></line><line style="stroke: #aaa; stroke-width: 1;" x1="270.58533572765987" y1="192.3690653540967" x2="335.5339997066576" y2="260.71356888186693"></line><line style="stroke: #aaa; stroke-width: 1.41421;" x1="270.58533572765987" y1="192.3690653540967" x2="390.43339612226237" y2="266.19897554742056"></line><line style="stroke: #aaa; stroke-width: 1.41421;" x1="332.8590235731035" y1="204.71332053703375" x2="335.5339997066576" y2="260.71356888186693"></line><line style="stroke: #aaa; stroke-width: 1;" x1="332.8590235731035" y1="204.71332053703375" x2="414.75772403522944" y2="232.7240856535154"></line><line style="stroke: #aaa; stroke-width: 1;" x1="332.8590235731035" y1="204.71332053703375" x2="390.43339612226237" y2="266.19897554742056"></line><line style="stroke: #aaa; stroke-width: 1.41421;" x1="332.8590235731035" y1="204.71332053703375" x2="468.5919991234805" y2="281.00014870824344"></line><line style="stroke: #aaa; stroke-width: 1.41421;" x1="414.75772403522944" y1="232.7240856535154" x2="390.43339612226237" y2="266.19897554742056"></line><line style="stroke: #aaa; stroke-width: 1;" x1="414.75772403522944" y1="232.7240856535154" x2="486.13911219068535" y2="256.7114338122434"></line><line style="stroke: #aaa; stroke-width: 1;" x1="414.75772403522944" y1="232.7240856535154" x2="468.5919991234805" y2="281.00014870824344"></line><line style="stroke: #aaa; stroke-width: 1.41421;" x1="414.75772403522944" y1="232.7240856535154" x2="540.6794105587824" y2="298.05226157254936"></line><line style="stroke: #aaa; stroke-width: 1.41421;" x1="486.13911219068535" y1="256.7114338122434" x2="468.5919991234805" y2="281.00014870824344"></line><line style="stroke: #aaa; stroke-width: 1;" x1="486.13911219068535" y1="256.7114338122434" x2="544.5503657827649" y2="270.6142072669994"></line><line style="stroke: #aaa; stroke-width: 1;" x1="486.13911219068535" y1="256.7114338122434" x2="540.6794105587824" y2="298.05226157254936"></line><line style="stroke: #aaa; stroke-width: 1.41421;" x1="486.13911219068535" y1="256.7114338122434" x2="595.198406500332" y2="310.0856491752992"></line><line style="stroke: #aaa; stroke-width: 1.41421;" x1="544.5503657827649" y1="270.6142072669994" x2="540.6794105587824" y2="298.05226157254936"></line><line style="stroke: #aaa; stroke-width: 1;" x1="544.5503657827649" y1="270.6142072669994" x2="593.5063851917357" y2="269.0469482196985"></line><line style="stroke: #aaa; stroke-width: 1;" x1="544.5503657827649" y1="270.6142072669994" x2="595.198406500332" y2="310.0856491752992"></line><line style="stroke: #aaa; stroke-width: 1.41421;" x1="544.5503657827649" y1="270.6142072669994" x2="635.469122285681" y2="313.04079135566116"></line><line style="stroke: #aaa; stroke-width: 1.41421;" x1="593.5063851917357" y1="269.0469482196985" x2="595.198406500332" y2="310.0856491752992"></line><line style="stroke: #aaa; stroke-width: 1;" x1="593.5063851917357" y1="269.0469482196985" x2="634.0449029108195" y2="251.93669019675113"></line><line style="stroke: #aaa; stroke-width: 1;" x1="593.5063851917357" y1="269.0469482196985" x2="635.469122285681" y2="313.04079135566116"></line><line style="stroke: #aaa; stroke-width: 1.41421;" x1="593.5063851917357" y1="269.0469482196985" x2="668.8774135190796" y2="300.5536434952786"></line><line style="stroke: #aaa; stroke-width: 1.41421;" x1="634.0449029108195" y1="251.93669019675113" x2="635.469122285681" y2="313.04079135566116"></line><line style="stroke: #aaa; stroke-width: 1;" x1="634.0449029108195" y1="251.93669019675113" x2="664.1452316218365" y2="222.74782055877736"></line><line style="stroke: #aaa; stroke-width: 1;" x1="634.0449029108195" y1="251.93669019675113" x2="668.8774135190796" y2="300.5536434952786"></line><line style="stroke: #aaa; stroke-width: 1.41421;" x1="634.0449029108195" y1="251.93669019675113" x2="694.921151574775" y2="283.0086269005291"></line><line style="stroke: #aaa; stroke-width: 1.41421;" x1="664.1452316218365" y1="222.74782055877736" x2="668.8774135190796" y2="300.5536434952786"></line><line style="stroke: #aaa; stroke-width: 1;" x1="664.1452316218365" y1="222.74782055877736" x2="681.6649558549095" y2="201.87522874138776"></line><line style="stroke: #aaa; stroke-width: 1;" x1="664.1452316218365" y1="222.74782055877736" x2="694.921151574775" y2="283.0086269005291"></line><line style="stroke: #aaa; stroke-width: 1.41421;" x1="664.1452316218365" y1="222.74782055877736" x2="710.4962685844791" y2="270.26799655116747"></line><line style="stroke: #aaa; stroke-width: 1.41421;" x1="681.6649558549095" y1="201.87522874138776" x2="694.921151574775" y2="283.0086269005291"></line><line style="stroke: #aaa; stroke-width: 1;" x1="681.6649558549095" y1="201.87522874138776" x2="686.3058416383793" y2="194.23085053177076"></line><line style="stroke: #aaa; stroke-width: 1;" x1="681.6649558549095" y1="201.87522874138776" x2="710.4962685844791" y2="270.26799655116747"></line><line style="stroke: #aaa; stroke-width: 1.41421;" x1="681.6649558549095" y1="201.87522874138776" x2="715.6484126050789" y2="265.53505664450233"></line><line style="stroke: #aaa; stroke-width: 1.41421;" x1="686.3058416383793" y1="194.23085053177076" x2="710.4962685844791" y2="270.26799655116747"></line><line style="stroke: #aaa; stroke-width: 1;" x1="308.89105482423093" y1="261.42157169591195" x2="335.5339997066576" y2="260.71356888186693"></line><line style="stroke: #aaa; stroke-width: 1;" x1="308.89105482423093" y1="261.42157169591195" x2="346.946013928305" y2="331.42454236296965"></line><line style="stroke: #aaa; stroke-width: 1.41421;" x1="308.89105482423093" y1="261.42157169591195" x2="376.20641839260867" y2="329.66878659222994"></line><line style="stroke: #aaa; stroke-width: 1.41421;" x1="335.5339997066576" y1="260.71356888186693" x2="346.946013928305" y2="331.42454236296965"></line><line style="stroke: #aaa; stroke-width: 1;" x1="335.5339997066576" y1="260.71356888186693" x2="390.43339612226237" y2="266.19897554742056"></line><line style="stroke: #aaa; stroke-width: 1;" x1="335.5339997066576" y1="260.71356888186693" x2="376.20641839260867" y2="329.66878659222994"></line><line style="stroke: #aaa; stroke-width: 1.41421;" x1="335.5339997066576" y1="260.71356888186693" x2="430.42109395491457" y2="331.7308495385576"></line><line style="stroke: #aaa; stroke-width: 1.41421;" x1="390.43339612226237" y1="266.19897554742056" x2="376.20641839260867" y2="329.66878659222994"></line><line style="stroke: #aaa; stroke-width: 1;" x1="390.43339612226237" y1="266.19897554742056" x2="468.5919991234805" y2="281.00014870824344"></line><line style="stroke: #aaa; stroke-width: 1;" x1="390.43339612226237" y1="266.19897554742056" x2="430.42109395491457" y2="331.7308495385576"></line><line style="stroke: #aaa; stroke-width: 1.41421;" x1="390.43339612226237" y1="266.19897554742056" x2="507.4963164060242" y2="338.91956732195877"></line><line style="stroke: #aaa; stroke-width: 1.41421;" x1="468.5919991234805" y1="281.00014870824344" x2="430.42109395491457" y2="331.7308495385576"></line><line style="stroke: #aaa; stroke-width: 1;" x1="468.5919991234805" y1="281.00014870824344" x2="540.6794105587824" y2="298.05226157254936"></line><line style="stroke: #aaa; stroke-width: 1;" x1="468.5919991234805" y1="281.00014870824344" x2="507.4963164060242" y2="338.91956732195877"></line><line style="stroke: #aaa; stroke-width: 1.41421;" x1="468.5919991234805" y1="281.00014870824344" x2="609.982290524002" y2="350.2255703911164"></line><line style="stroke: #aaa; stroke-width: 1.41421;" x1="540.6794105587824" y1="298.05226157254936" x2="507.4963164060242" y2="338.91956732195877"></line><line style="stroke: #aaa; stroke-width: 1;" x1="540.6794105587824" y1="298.05226157254936" x2="595.198406500332" y2="310.0856491752992"></line><line style="stroke: #aaa; stroke-width: 1;" x1="540.6794105587824" y1="298.05226157254936" x2="609.982290524002" y2="350.2255703911164"></line><line style="stroke: #aaa; stroke-width: 1.41421;" x1="540.6794105587824" y1="298.05226157254936" x2="668.4665810071002" y2="354.38731962171613"></line><line style="stroke: #aaa; stroke-width: 1.41421;" x1="595.198406500332" y1="310.0856491752992" x2="609.982290524002" y2="350.2255703911164"></line><line style="stroke: #aaa; stroke-width: 1;" x1="595.198406500332" y1="310.0856491752992" x2="635.469122285681" y2="313.04079135566116"></line><line style="stroke: #aaa; stroke-width: 1;" x1="595.198406500332" y1="310.0856491752992" x2="668.4665810071002" y2="354.38731962171613"></line><line style="stroke: #aaa; stroke-width: 1.41421;" x1="595.198406500332" y1="310.0856491752992" x2="699.9393946285073" y2="357.54197950329865"></line><line style="stroke: #aaa; stroke-width: 1.41421;" x1="635.469122285681" y1="313.04079135566116" x2="668.4665810071002" y2="354.38731962171613"></line><line style="stroke: #aaa; stroke-width: 1;" x1="635.469122285681" y1="313.04079135566116" x2="668.8774135190796" y2="300.5536434952786"></line><line style="stroke: #aaa; stroke-width: 1;" x1="635.469122285681" y1="313.04079135566116" x2="699.9393946285073" y2="357.54197950329865"></line><line style="stroke: #aaa; stroke-width: 1.41421;" x1="635.469122285681" y1="313.04079135566116" x2="718.0281979707665" y2="352.75279460657515"></line><line style="stroke: #aaa; stroke-width: 1.41421;" x1="668.8774135190796" y1="300.5536434952786" x2="699.9393946285073" y2="357.54197950329865"></line><line style="stroke: #aaa; stroke-width: 1;" x1="668.8774135190796" y1="300.5536434952786" x2="694.921151574775" y2="283.0086269005291"></line><line style="stroke: #aaa; stroke-width: 1;" x1="668.8774135190796" y1="300.5536434952786" x2="718.0281979707665" y2="352.75279460657515"></line><line style="stroke: #aaa; stroke-width: 1.41421;" x1="668.8774135190796" y1="300.5536434952786" x2="733.4785436249807" y2="342.80579210801613"></line><line style="stroke: #aaa; stroke-width: 1.41421;" x1="694.921151574775" y1="283.0086269005291" x2="718.0281979707665" y2="352.75279460657515"></line><line style="stroke: #aaa; stroke-width: 1;" x1="694.921151574775" y1="283.0086269005291" x2="710.4962685844791" y2="270.26799655116747"></line><line style="stroke: #aaa; stroke-width: 1;" x1="694.921151574775" y1="283.0086269005291" x2="733.4785436249807" y2="342.80579210801613"></line><line style="stroke: #aaa; stroke-width: 1.41421;" x1="694.921151574775" y1="283.0086269005291" x2="743.6458874955204" y2="335.84091418369843"></line><line style="stroke: #aaa; stroke-width: 1.41421;" x1="710.4962685844791" y1="270.26799655116747" x2="733.4785436249807" y2="342.80579210801613"></line><line style="stroke: #aaa; stroke-width: 1;" x1="710.4962685844791" y1="270.26799655116747" x2="715.6484126050789" y2="265.53505664450233"></line><line style="stroke: #aaa; stroke-width: 1;" x1="710.4962685844791" y1="270.26799655116747" x2="743.6458874955204" y2="335.84091418369843"></line><line style="stroke: #aaa; stroke-width: 1.41421;" x1="710.4962685844791" y1="270.26799655116747" x2="747.0755781695995" y2="333.4790046349651"></line><line style="stroke: #aaa; stroke-width: 1.41421;" x1="715.6484126050789" y1="265.53505664450233" x2="743.6458874955204" y2="335.84091418369843"></line><line style="stroke: #aaa; stroke-width: 1;" x1="346.946013928305" y1="331.42454236296965" x2="376.20641839260867" y2="329.66878659222994"></line><line style="stroke: #aaa; stroke-width: 1;" x1="346.946013928305" y1="331.42454236296965" x2="359.2679460838916" y2="400.0004864241556"></line><line style="stroke: #aaa; stroke-width: 1.41421;" x1="346.946013928305" y1="331.42454236296965" x2="390.12907574301835" y2="400.0004864241556"></line><line style="stroke: #aaa; stroke-width: 1.41421;" x1="376.20641839260867" y1="329.66878659222994" x2="359.2679460838916" y2="400.0004864241556"></line><line style="stroke: #aaa; stroke-width: 1;" x1="376.20641839260867" y1="329.66878659222994" x2="430.42109395491457" y2="331.7308495385576"></line><line style="stroke: #aaa; stroke-width: 1;" x1="376.20641839260867" y1="329.66878659222994" x2="390.12907574301835" y2="400.0004864241556"></line><line style="stroke: #aaa; stroke-width: 1.41421;" x1="376.20641839260867" y1="329.66878659222994" x2="444.1794183005325" y2="400.0004864241556"></line><line style="stroke: #aaa; stroke-width: 1.41421;" x1="430.42109395491457" y1="331.7308495385576" x2="390.12907574301835" y2="400.0004864241556"></line><line style="stroke: #aaa; stroke-width: 1;" x1="430.42109395491457" y1="331.7308495385576" x2="507.4963164060242" y2="338.91956732195877"></line><line style="stroke: #aaa; stroke-width: 1;" x1="430.42109395491457" y1="331.7308495385576" x2="444.1794183005325" y2="400.0004864241556"></line><line style="stroke: #aaa; stroke-width: 1.41421;" x1="430.42109395491457" y1="331.7308495385576" x2="522.1097810173177" y2="400.0004864241556"></line><line style="stroke: #aaa; stroke-width: 1.41421;" x1="507.4963164060242" y1="338.91956732195877" x2="444.1794183005325" y2="400.0004864241556"></line><line style="stroke: #aaa; stroke-width: 1;" x1="507.4963164060242" y1="338.91956732195877" x2="609.982290524002" y2="350.2255703911164"></line><line style="stroke: #aaa; stroke-width: 1;" x1="507.4963164060242" y1="338.91956732195877" x2="522.1097810173177" y2="400.0004864241556"></line><line style="stroke: #aaa; stroke-width: 1.41421;" x1="507.4963164060242" y1="338.91956732195877" x2="621.4947304707999" y2="400.0004864241556"></line><line style="stroke: #aaa; stroke-width: 1.41421;" x1="609.982290524002" y1="350.2255703911164" x2="522.1097810173177" y2="400.0004864241556"></line><line style="stroke: #aaa; stroke-width: 1;" x1="609.982290524002" y1="350.2255703911164" x2="668.4665810071002" y2="354.38731962171613"></line><line style="stroke: #aaa; stroke-width: 1;" x1="609.982290524002" y1="350.2255703911164" x2="621.4947304707999" y2="400.0004864241556"></line><line style="stroke: #aaa; stroke-width: 1.41421;" x1="609.982290524002" y1="350.2255703911164" x2="780" y2="400.0004864241556"></line><line style="stroke: #aaa; stroke-width: 1.41421;" x1="668.4665810071002" y1="354.38731962171613" x2="621.4947304707999" y2="400.0004864241556"></line><line style="stroke: #aaa; stroke-width: 1;" x1="668.4665810071002" y1="354.38731962171613" x2="699.9393946285073" y2="357.54197950329865"></line><line style="stroke: #aaa; stroke-width: 1;" x1="668.4665810071002" y1="354.38731962171613" x2="780" y2="400.0004864241556"></line><line style="stroke: #aaa; stroke-width: 1.41421;" x1="668.4665810071002" y1="354.38731962171613" x2="780" y2="400.0004864241556"></line><line style="stroke: #aaa; stroke-width: 1.41421;" x1="699.9393946285073" y1="357.54197950329865" x2="780" y2="400.0004864241556"></line><line style="stroke: #aaa; stroke-width: 1;" x1="699.9393946285073" y1="357.54197950329865" x2="718.0281979707665" y2="352.75279460657515"></line><line style="stroke: #aaa; stroke-width: 1;" x1="699.9393946285073" y1="357.54197950329865" x2="780" y2="400.0004864241556"></line><line style="stroke: #aaa; stroke-width: 1.41421;" x1="699.9393946285073" y1="357.54197950329865" x2="780" y2="400.0004864241556"></line><line style="stroke: #aaa; stroke-width: 1.41421;" x1="718.0281979707665" y1="352.75279460657515" x2="780" y2="400.0004864241556"></line><line style="stroke: #aaa; stroke-width: 1;" x1="718.0281979707665" y1="352.75279460657515" x2="733.4785436249807" y2="342.80579210801613"></line><line style="stroke: #aaa; stroke-width: 1;" x1="718.0281979707665" y1="352.75279460657515" x2="780" y2="400.0004864241556"></line><line style="stroke: #aaa; stroke-width: 1.41421;" x1="718.0281979707665" y1="352.75279460657515" x2="780" y2="400.0004864241556"></line><line style="stroke: #aaa; stroke-width: 1.41421;" x1="733.4785436249807" y1="342.80579210801613" x2="780" y2="400.0004864241556"></line><line style="stroke: #aaa; stroke-width: 1;" x1="733.4785436249807" y1="342.80579210801613" x2="743.6458874955204" y2="335.84091418369843"></line><line style="stroke: #aaa; stroke-width: 1;" x1="733.4785436249807" y1="342.80579210801613" x2="780" y2="400.0004864241556"></line><line style="stroke: #aaa; stroke-width: 1.41421;" x1="733.4785436249807" y1="342.80579210801613" x2="780" y2="400.0004864241556"></line><line style="stroke: #aaa; stroke-width: 1.41421;" x1="743.6458874955204" y1="335.84091418369843" x2="780" y2="400.0004864241556"></line><line style="stroke: #aaa; stroke-width: 1;" x1="743.6458874955204" y1="335.84091418369843" x2="747.0755781695995" y2="333.4790046349651"></line><line style="stroke: #aaa; stroke-width: 1;" x1="743.6458874955204" y1="335.84091418369843" x2="780" y2="400.0004864241556"></line><line style="stroke: #aaa; stroke-width: 1.41421;" x1="743.6458874955204" y1="335.84091418369843" x2="780" y2="400.0004864241556"></line><line style="stroke: #aaa; stroke-width: 1.41421;" x1="747.0755781695995" y1="333.4790046349651" x2="780" y2="400.0004864241556"></line><line style="stroke: #aaa; stroke-width: 1;" x1="359.2679460838916" y1="400.0004864241556" x2="390.12907574301835" y2="400.0004864241556"></line><line style="stroke: #aaa; stroke-width: 1;" x1="359.2679460838916" y1="400.0004864241556" x2="346.946013928305" y2="468.5775705864914"></line><line style="stroke: #aaa; stroke-width: 1.41421;" x1="359.2679460838916" y1="400.0004864241556" x2="376.20641839260867" y2="470.33332635723104"></line><line style="stroke: #aaa; stroke-width: 1.41421;" x1="390.12907574301835" y1="400.0004864241556" x2="346.946013928305" y2="468.5775705864914"></line><line style="stroke: #aaa; stroke-width: 1;" x1="390.12907574301835" y1="400.0004864241556" x2="444.1794183005325" y2="400.0004864241556"></line><line style="stroke: #aaa; stroke-width: 1;" x1="390.12907574301835" y1="400.0004864241556" x2="376.20641839260867" y2="470.33332635723104"></line><line style="stroke: #aaa; stroke-width: 1.41421;" x1="390.12907574301835" y1="400.0004864241556" x2="430.42109395491457" y2="468.269743276037"></line><line style="stroke: #aaa; stroke-width: 1.41421;" x1="444.1794183005325" y1="400.0004864241556" x2="376.20641839260867" y2="470.33332635723104"></line><line style="stroke: #aaa; stroke-width: 1;" x1="444.1794183005325" y1="400.0004864241556" x2="522.1097810173177" y2="400.0004864241556"></line><line style="stroke: #aaa; stroke-width: 1;" x1="444.1794183005325" y1="400.0004864241556" x2="430.42109395491457" y2="468.269743276037"></line><line style="stroke: #aaa; stroke-width: 1.41421;" x1="444.1794183005325" y1="400.0004864241556" x2="507.4963164060242" y2="461.07950535776934"></line><line style="stroke: #aaa; stroke-width: 1.41421;" x1="522.1097810173177" y1="400.0004864241556" x2="430.42109395491457" y2="468.269743276037"></line><line style="stroke: #aaa; stroke-width: 1;" x1="522.1097810173177" y1="400.0004864241556" x2="621.4947304707999" y2="400.0004864241556"></line><line style="stroke: #aaa; stroke-width: 1;" x1="522.1097810173177" y1="400.0004864241556" x2="507.4963164060242" y2="461.07950535776934"></line><line style="stroke: #aaa; stroke-width: 1.41421;" x1="522.1097810173177" y1="400.0004864241556" x2="609.982290524002" y2="449.77350228861167"></line><line style="stroke: #aaa; stroke-width: 1.41421;" x1="621.4947304707999" y1="400.0004864241556" x2="507.4963164060242" y2="461.07950535776934"></line><line style="stroke: #aaa; stroke-width: 1;" x1="621.4947304707999" y1="400.0004864241556" x2="780" y2="400.0004864241556"></line><line style="stroke: #aaa; stroke-width: 1;" x1="621.4947304707999" y1="400.0004864241556" x2="609.982290524002" y2="449.77350228861167"></line><line style="stroke: #aaa; stroke-width: 1.41421;" x1="621.4947304707999" y1="400.0004864241556" x2="668.4665810071002" y2="445.61213309172854"></line><line style="stroke: #aaa; stroke-width: 1.41421;" x1="780" y1="400.0004864241556" x2="609.982290524002" y2="449.77350228861167"></line><line style="stroke: #aaa; stroke-width: 1;" x1="780" y1="400.0004864241556" x2="780" y2="400.0004864241556"></line><line style="stroke: #aaa; stroke-width: 1;" x1="780" y1="400.0004864241556" x2="668.4665810071002" y2="445.61213309172854"></line><line style="stroke: #aaa; stroke-width: 1.41421;" x1="780" y1="400.0004864241556" x2="699.9393946285073" y2="442.45785324386276"></line><line style="stroke: #aaa; stroke-width: 1.41421;" x1="780" y1="400.0004864241556" x2="668.4665810071002" y2="445.61213309172854"></line><line style="stroke: #aaa; stroke-width: 1;" x1="780" y1="400.0004864241556" x2="780" y2="400.0004864241556"></line><line style="stroke: #aaa; stroke-width: 1;" x1="780" y1="400.0004864241556" x2="699.9393946285073" y2="442.45785324386276"></line><line style="stroke: #aaa; stroke-width: 1.41421;" x1="780" y1="400.0004864241556" x2="718.0281979707665" y2="447.246278073153"></line><line style="stroke: #aaa; stroke-width: 1.41421;" x1="780" y1="400.0004864241556" x2="699.9393946285073" y2="442.45785324386276"></line><line style="stroke: #aaa; stroke-width: 1;" x1="780" y1="400.0004864241556" x2="780" y2="400.0004864241556"></line><line style="stroke: #aaa; stroke-width: 1;" x1="780" y1="400.0004864241556" x2="718.0281979707665" y2="447.246278073153"></line><line style="stroke: #aaa; stroke-width: 1.41421;" x1="780" y1="400.0004864241556" x2="733.4785436249807" y2="457.1955607740117"></line><line style="stroke: #aaa; stroke-width: 1.41421;" x1="780" y1="400.0004864241556" x2="718.0281979707665" y2="447.246278073153"></line><line style="stroke: #aaa; stroke-width: 1;" x1="780" y1="400.0004864241556" x2="780" y2="400.0004864241556"></line><line style="stroke: #aaa; stroke-width: 1;" x1="780" y1="400.0004864241556" x2="733.4785436249807" y2="457.1955607740117"></line><line style="stroke: #aaa; stroke-width: 1.41421;" x1="780" y1="400.0004864241556" x2="743.6458874955204" y2="464.1615787994792"></line><line style="stroke: #aaa; stroke-width: 1.41421;" x1="780" y1="400.0004864241556" x2="733.4785436249807" y2="457.1955607740117"></line><line style="stroke: #aaa; stroke-width: 1;" x1="780" y1="400.0004864241556" x2="780" y2="400.0004864241556"></line><line style="stroke: #aaa; stroke-width: 1;" x1="780" y1="400.0004864241556" x2="743.6458874955204" y2="464.1615787994792"></line><line style="stroke: #aaa; stroke-width: 1.41421;" x1="780" y1="400.0004864241556" x2="747.0755781695995" y2="466.5215881796294"></line><line style="stroke: #aaa; stroke-width: 1.41421;" x1="780" y1="400.0004864241556" x2="743.6458874955204" y2="464.1615787994792"></line><line style="stroke: #aaa; stroke-width: 1;" x1="346.946013928305" y1="468.5775705864914" x2="376.20641839260867" y2="470.33332635723104"></line><line style="stroke: #aaa; stroke-width: 1;" x1="346.946013928305" y1="468.5775705864914" x2="308.89105482423093" y2="538.5797811861158"></line><line style="stroke: #aaa; stroke-width: 1.41421;" x1="346.946013928305" y1="468.5775705864914" x2="335.5339997066576" y2="539.2866438990111"></line><line style="stroke: #aaa; stroke-width: 1.41421;" x1="376.20641839260867" y1="470.33332635723104" x2="308.89105482423093" y2="538.5797811861158"></line><line style="stroke: #aaa; stroke-width: 1;" x1="376.20641839260867" y1="470.33332635723104" x2="430.42109395491457" y2="468.269743276037"></line><line style="stroke: #aaa; stroke-width: 1;" x1="376.20641839260867" y1="470.33332635723104" x2="335.5339997066576" y2="539.2866438990111"></line><line style="stroke: #aaa; stroke-width: 1.41421;" x1="376.20641839260867" y1="470.33332635723104" x2="390.43339612226237" y2="533.8027573683239"></line><line style="stroke: #aaa; stroke-width: 1.41421;" x1="430.42109395491457" y1="468.269743276037" x2="335.5339997066576" y2="539.2866438990111"></line><line style="stroke: #aaa; stroke-width: 1;" x1="430.42109395491457" y1="468.269743276037" x2="507.4963164060242" y2="461.07950535776934"></line><line style="stroke: #aaa; stroke-width: 1;" x1="430.42109395491457" y1="468.269743276037" x2="390.43339612226237" y2="533.8027573683239"></line><line style="stroke: #aaa; stroke-width: 1.41421;" x1="430.42109395491457" y1="468.269743276037" x2="468.5919991234805" y2="519.0004441063512"></line><line style="stroke: #aaa; stroke-width: 1.41421;" x1="507.4963164060242" y1="461.07950535776934" x2="390.43339612226237" y2="533.8027573683239"></line><line style="stroke: #aaa; stroke-width: 1;" x1="507.4963164060242" y1="461.07950535776934" x2="609.982290524002" y2="449.77350228861167"></line><line style="stroke: #aaa; stroke-width: 1;" x1="507.4963164060242" y1="461.07950535776934" x2="468.5919991234805" y2="519.0004441063512"></line><line style="stroke: #aaa; stroke-width: 1.41421;" x1="507.4963164060242" y1="461.07950535776934" x2="540.6794105587824" y2="501.9483312420453"></line><line style="stroke: #aaa; stroke-width: 1.41421;" x1="609.982290524002" y1="449.77350228861167" x2="468.5919991234805" y2="519.0004441063512"></line><line style="stroke: #aaa; stroke-width: 1;" x1="609.982290524002" y1="449.77350228861167" x2="668.4665810071002" y2="445.61213309172854"></line><line style="stroke: #aaa; stroke-width: 1;" x1="609.982290524002" y1="449.77350228861167" x2="540.6794105587824" y2="501.9483312420453"></line><line style="stroke: #aaa; stroke-width: 1.41421;" x1="609.982290524002" y1="449.77350228861167" x2="595.198406500332" y2="489.9164637741619"></line><line style="stroke: #aaa; stroke-width: 1.41421;" x1="668.4665810071002" y1="445.61213309172854" x2="540.6794105587824" y2="501.9483312420453"></line><line style="stroke: #aaa; stroke-width: 1;" x1="668.4665810071002" y1="445.61213309172854" x2="699.9393946285073" y2="442.45785324386276"></line><line style="stroke: #aaa; stroke-width: 1;" x1="668.4665810071002" y1="445.61213309172854" x2="595.198406500332" y2="489.9164637741619"></line><line style="stroke: #aaa; stroke-width: 1.41421;" x1="668.4665810071002" y1="445.61213309172854" x2="635.469122285681" y2="486.95980145893344"></line><line style="stroke: #aaa; stroke-width: 1.41421;" x1="699.9393946285073" y1="442.45785324386276" x2="595.198406500332" y2="489.9164637741619"></line><line style="stroke: #aaa; stroke-width: 1;" x1="699.9393946285073" y1="442.45785324386276" x2="718.0281979707665" y2="447.246278073153"></line><line style="stroke: #aaa; stroke-width: 1;" x1="699.9393946285073" y1="442.45785324386276" x2="635.469122285681" y2="486.95980145893344"></line><line style="stroke: #aaa; stroke-width: 1.41421;" x1="699.9393946285073" y1="442.45785324386276" x2="668.8774135190796" y2="499.4477093867492"></line><line style="stroke: #aaa; stroke-width: 1.41421;" x1="718.0281979707665" y1="447.246278073153" x2="635.469122285681" y2="486.95980145893344"></line><line style="stroke: #aaa; stroke-width: 1;" x1="718.0281979707665" y1="447.246278073153" x2="733.4785436249807" y2="457.1955607740117"></line><line style="stroke: #aaa; stroke-width: 1;" x1="718.0281979707665" y1="447.246278073153" x2="668.8774135190796" y2="499.4477093867492"></line><line style="stroke: #aaa; stroke-width: 1.41421;" x1="718.0281979707665" y1="447.246278073153" x2="694.921151574775" y2="516.9938660826485"></line><line style="stroke: #aaa; stroke-width: 1.41421;" x1="733.4785436249807" y1="457.1955607740117" x2="668.8774135190796" y2="499.4477093867492"></line><line style="stroke: #aaa; stroke-width: 1;" x1="733.4785436249807" y1="457.1955607740117" x2="743.6458874955204" y2="464.1615787994792"></line><line style="stroke: #aaa; stroke-width: 1;" x1="733.4785436249807" y1="457.1955607740117" x2="694.921151574775" y2="516.9938660826485"></line><line style="stroke: #aaa; stroke-width: 1.41421;" x1="733.4785436249807" y1="457.1955607740117" x2="710.4962685844791" y2="529.7325962634271"></line><line style="stroke: #aaa; stroke-width: 1.41421;" x1="743.6458874955204" y1="464.1615787994792" x2="694.921151574775" y2="516.9938660826485"></line><line style="stroke: #aaa; stroke-width: 1;" x1="743.6458874955204" y1="464.1615787994792" x2="747.0755781695995" y2="466.5215881796294"></line><line style="stroke: #aaa; stroke-width: 1;" x1="743.6458874955204" y1="464.1615787994792" x2="710.4962685844791" y2="529.7325962634271"></line><line style="stroke: #aaa; stroke-width: 1.41421;" x1="743.6458874955204" y1="464.1615787994792" x2="715.6484126050789" y2="534.467816372392"></line><line style="stroke: #aaa; stroke-width: 1.41421;" x1="747.0755781695995" y1="466.5215881796294" x2="710.4962685844791" y2="529.7325962634271"></line><line style="stroke: #aaa; stroke-width: 1;" x1="308.89105482423093" y1="538.5797811861158" x2="335.5339997066576" y2="539.2866438990111"></line><line style="stroke: #aaa; stroke-width: 1;" x1="308.89105482423093" y1="538.5797811861158" x2="244.7905317421861" y2="609.8361030505546"></line><line style="stroke: #aaa; stroke-width: 1.41421;" x1="308.89105482423093" y1="538.5797811861158" x2="270.58533572765987" y2="607.6319074942145"></line><line style="stroke: #aaa; stroke-width: 1.41421;" x1="335.5339997066576" y1="539.2866438990111" x2="244.7905317421861" y2="609.8361030505546"></line><line style="stroke: #aaa; stroke-width: 1;" x1="335.5339997066576" y1="539.2866438990111" x2="390.43339612226237" y2="533.8027573683239"></line><line style="stroke: #aaa; stroke-width: 1;" x1="335.5339997066576" y1="539.2866438990111" x2="270.58533572765987" y2="607.6319074942145"></line><line style="stroke: #aaa; stroke-width: 1.41421;" x1="335.5339997066576" y1="539.2866438990111" x2="332.8590235731035" y2="595.2884123787106"></line><line style="stroke: #aaa; stroke-width: 1.41421;" x1="390.43339612226237" y1="533.8027573683239" x2="270.58533572765987" y2="607.6319074942145"></line><line style="stroke: #aaa; stroke-width: 1;" x1="390.43339612226237" y1="533.8027573683239" x2="468.5919991234805" y2="519.0004441063512"></line><line style="stroke: #aaa; stroke-width: 1;" x1="390.43339612226237" y1="533.8027573683239" x2="332.8590235731035" y2="595.2884123787106"></line><line style="stroke: #aaa; stroke-width: 1.41421;" x1="390.43339612226237" y1="533.8027573683239" x2="414.75772403522944" y2="567.2761271273625"></line><line style="stroke: #aaa; stroke-width: 1.41421;" x1="468.5919991234805" y1="519.0004441063512" x2="332.8590235731035" y2="595.2884123787106"></line><line style="stroke: #aaa; stroke-width: 1;" x1="468.5919991234805" y1="519.0004441063512" x2="540.6794105587824" y2="501.9483312420453"></line><line style="stroke: #aaa; stroke-width: 1;" x1="468.5919991234805" y1="519.0004441063512" x2="414.75772403522944" y2="567.2761271273625"></line><line style="stroke: #aaa; stroke-width: 1.41421;" x1="468.5919991234805" y1="519.0004441063512" x2="486.13911219068535" y2="543.2883989349178"></line><line style="stroke: #aaa; stroke-width: 1.41421;" x1="540.6794105587824" y1="501.9483312420453" x2="414.75772403522944" y2="567.2761271273625"></line><line style="stroke: #aaa; stroke-width: 1;" x1="540.6794105587824" y1="501.9483312420453" x2="595.198406500332" y2="489.9164637741619"></line><line style="stroke: #aaa; stroke-width: 1;" x1="540.6794105587824" y1="501.9483312420453" x2="486.13911219068535" y2="543.2883989349178"></line><line style="stroke: #aaa; stroke-width: 1.41421;" x1="540.6794105587824" y1="501.9483312420453" x2="544.5503657827649" y2="529.3867655813118"></line><line style="stroke: #aaa; stroke-width: 1.41421;" x1="595.198406500332" y1="489.9164637741619" x2="486.13911219068535" y2="543.2883989349178"></line><line style="stroke: #aaa; stroke-width: 1;" x1="595.198406500332" y1="489.9164637741619" x2="635.469122285681" y2="486.95980145893344"></line><line style="stroke: #aaa; stroke-width: 1;" x1="595.198406500332" y1="489.9164637741619" x2="544.5503657827649" y2="529.3867655813118"></line><line style="stroke: #aaa; stroke-width: 1.41421;" x1="595.198406500332" y1="489.9164637741619" x2="593.5063851917357" y2="530.9525044937463"></line><line style="stroke: #aaa; stroke-width: 1.41421;" x1="635.469122285681" y1="486.95980145893344" x2="544.5503657827649" y2="529.3867655813118"></line><line style="stroke: #aaa; stroke-width: 1;" x1="635.469122285681" y1="486.95980145893344" x2="668.8774135190796" y2="499.4477093867492"></line><line style="stroke: #aaa; stroke-width: 1;" x1="635.469122285681" y1="486.95980145893344" x2="593.5063851917357" y2="530.9525044937463"></line><line style="stroke: #aaa; stroke-width: 1.41421;" x1="635.469122285681" y1="486.95980145893344" x2="634.0449029108195" y2="548.06542275271"></line><line style="stroke: #aaa; stroke-width: 1.41421;" x1="668.8774135190796" y1="499.4477093867492" x2="593.5063851917357" y2="530.9525044937463"></line><line style="stroke: #aaa; stroke-width: 1;" x1="668.8774135190796" y1="499.4477093867492" x2="694.921151574775" y2="516.9938660826485"></line><line style="stroke: #aaa; stroke-width: 1;" x1="668.8774135190796" y1="499.4477093867492" x2="634.0449029108195" y2="548.06542275271"></line><line style="stroke: #aaa; stroke-width: 1.41421;" x1="668.8774135190796" y1="499.4477093867492" x2="664.1452316218365" y2="577.252012188384"></line><line style="stroke: #aaa; stroke-width: 1.41421;" x1="694.921151574775" y1="516.9938660826485" x2="634.0449029108195" y2="548.06542275271"></line><line style="stroke: #aaa; stroke-width: 1;" x1="694.921151574775" y1="516.9938660826485" x2="710.4962685844791" y2="529.7325962634271"></line><line style="stroke: #aaa; stroke-width: 1;" x1="694.921151574775" y1="516.9938660826485" x2="664.1452316218365" y2="577.252012188384"></line><line style="stroke: #aaa; stroke-width: 1.41421;" x1="694.921151574775" y1="516.9938660826485" x2="681.6649558549095" y2="598.1272642417899"></line><line style="stroke: #aaa; stroke-width: 1.41421;" x1="710.4962685844791" y1="529.7325962634271" x2="664.1452316218365" y2="577.252012188384"></line><line style="stroke: #aaa; stroke-width: 1;" x1="710.4962685844791" y1="529.7325962634271" x2="715.6484126050789" y2="534.467816372392"></line><line style="stroke: #aaa; stroke-width: 1;" x1="710.4962685844791" y1="529.7325962634271" x2="681.6649558549095" y2="598.1272642417899"></line><line style="stroke: #aaa; stroke-width: 1.41421;" x1="710.4962685844791" y1="529.7325962634271" x2="686.3058416383793" y2="605.7697422828238"></line><line style="stroke: #aaa; stroke-width: 1.41421;" x1="715.6484126050789" y1="534.467816372392" x2="681.6649558549095" y2="598.1272642417899"></line><line style="stroke: #aaa; stroke-width: 1;" x1="244.7905317421861" y1="609.8361030505546" x2="270.58533572765987" y2="607.6319074942145"></line><line style="stroke: #aaa; stroke-width: 1;" x1="244.7905317421861" y1="609.8361030505546" x2="152.08693621500433" y2="684.9345657899237"></line><line style="stroke: #aaa; stroke-width: 1.41421;" x1="244.7905317421861" y1="609.8361030505546" x2="189.96751974177155" y2="678.439789573053"></line><line style="stroke: #aaa; stroke-width: 1.41421;" x1="270.58533572765987" y1="607.6319074942145" x2="152.08693621500433" y2="684.9345657899237"></line><line style="stroke: #aaa; stroke-width: 1;" x1="270.58533572765987" y1="607.6319074942145" x2="332.8590235731035" y2="595.2884123787106"></line><line style="stroke: #aaa; stroke-width: 1;" x1="270.58533572765987" y1="607.6319074942145" x2="189.96751974177155" y2="678.439789573053"></line><line style="stroke: #aaa; stroke-width: 1.41421;" x1="270.58533572765987" y1="607.6319074942145" x2="290.5457094022692" y2="636.176239948817"></line><line style="stroke: #aaa; stroke-width: 1.41421;" x1="332.8590235731035" y1="595.2884123787106" x2="189.96751974177155" y2="678.439789573053"></line><line style="stroke: #aaa; stroke-width: 1;" x1="332.8590235731035" y1="595.2884123787106" x2="414.75772403522944" y2="567.2761271273625"></line><line style="stroke: #aaa; stroke-width: 1;" x1="332.8590235731035" y1="595.2884123787106" x2="290.5457094022692" y2="636.176239948817"></line><line style="stroke: #aaa; stroke-width: 1.41421;" x1="332.8590235731035" y1="595.2884123787106" x2="378.3427474549011" y2="598.8911320121766"></line><line style="stroke: #aaa; stroke-width: 1.41421;" x1="414.75772403522944" y1="567.2761271273625" x2="290.5457094022692" y2="636.176239948817"></line><line style="stroke: #aaa; stroke-width: 1;" x1="414.75772403522944" y1="567.2761271273625" x2="486.13911219068535" y2="543.2883989349178"></line><line style="stroke: #aaa; stroke-width: 1;" x1="414.75772403522944" y1="567.2761271273625" x2="378.3427474549011" y2="598.8911320121766"></line><line style="stroke: #aaa; stroke-width: 1.41421;" x1="414.75772403522944" y1="567.2761271273625" x2="452.7642961990038" y2="573.6150895204231"></line><line style="stroke: #aaa; stroke-width: 1.41421;" x1="486.13911219068535" y1="543.2883989349178" x2="378.3427474549011" y2="598.8911320121766"></line><line style="stroke: #aaa; stroke-width: 1;" x1="486.13911219068535" y1="543.2883989349178" x2="544.5503657827649" y2="529.3867655813118"></line><line style="stroke: #aaa; stroke-width: 1;" x1="486.13911219068535" y1="543.2883989349178" x2="452.7642961990038" y2="573.6150895204231"></line><line style="stroke: #aaa; stroke-width: 1.41421;" x1="486.13911219068535" y1="543.2883989349178" x2="515.5577632521959" y2="562.2520813937739"></line><line style="stroke: #aaa; stroke-width: 1.41421;" x1="544.5503657827649" y1="529.3867655813118" x2="452.7642961990038" y2="573.6150895204231"></line><line style="stroke: #aaa; stroke-width: 1;" x1="544.5503657827649" y1="529.3867655813118" x2="593.5063851917357" y2="530.9525044937463"></line><line style="stroke: #aaa; stroke-width: 1;" x1="544.5503657827649" y1="529.3867655813118" x2="515.5577632521959" y2="562.2520813937739"></line><line style="stroke: #aaa; stroke-width: 1.41421;" x1="544.5503657827649" y1="529.3867655813118" x2="567.7578379039069" y2="565.9764118165552"></line><line style="stroke: #aaa; stroke-width: 1.41421;" x1="593.5063851917357" y1="530.9525044937463" x2="515.5577632521959" y2="562.2520813937739"></line><line style="stroke: #aaa; stroke-width: 1;" x1="593.5063851917357" y1="530.9525044937463" x2="634.0449029108195" y2="548.06542275271"></line><line style="stroke: #aaa; stroke-width: 1;" x1="593.5063851917357" y1="530.9525044937463" x2="567.7578379039069" y2="565.9764118165552"></line><line style="stroke: #aaa; stroke-width: 1.41421;" x1="593.5063851917357" y1="530.9525044937463" x2="608.6950153198003" y2="585.8483748581099"></line><line style="stroke: #aaa; stroke-width: 1.41421;" x1="634.0449029108195" y1="548.06542275271" x2="567.7578379039069" y2="565.9764118165552"></line><line style="stroke: #aaa; stroke-width: 1;" x1="634.0449029108195" y1="548.06542275271" x2="664.1452316218365" y2="577.252012188384"></line><line style="stroke: #aaa; stroke-width: 1;" x1="634.0449029108195" y1="548.06542275271" x2="608.6950153198003" y2="585.8483748581099"></line><line style="stroke: #aaa; stroke-width: 1.41421;" x1="634.0449029108195" y1="548.06542275271" x2="636.9602921439764" y2="622.2176015377194"></line><line style="stroke: #aaa; stroke-width: 1.41421;" x1="664.1452316218365" y1="577.252012188384" x2="608.6950153198003" y2="585.8483748581099"></line><line style="stroke: #aaa; stroke-width: 1;" x1="664.1452316218365" y1="577.252012188384" x2="681.6649558549095" y2="598.1272642417899"></line><line style="stroke: #aaa; stroke-width: 1;" x1="664.1452316218365" y1="577.252012188384" x2="636.9602921439764" y2="622.2176015377194"></line><line style="stroke: #aaa; stroke-width: 1.41421;" x1="664.1452316218365" y1="577.252012188384" x2="653.3296853435073" y2="669.6686113936863"></line><line style="stroke: #aaa; stroke-width: 1.41421;" x1="681.6649558549095" y1="598.1272642417899" x2="636.9602921439764" y2="622.2176015377194"></line><line style="stroke: #aaa; stroke-width: 1;" x1="681.6649558549095" y1="598.1272642417899" x2="686.3058416383793" y2="605.7697422828238"></line><line style="stroke: #aaa; stroke-width: 1;" x1="681.6649558549095" y1="598.1272642417899" x2="653.3296853435073" y2="669.6686113936863"></line><line style="stroke: #aaa; stroke-width: 1.41421;" x1="681.6649558549095" y1="598.1272642417899" x2="660.3199244547403" y2="684.0794899275504"></line><line style="stroke: #aaa; stroke-width: 1.41421;" x1="686.3058416383793" y1="605.7697422828238" x2="653.3296853435073" y2="669.6686113936863"></line><line style="stroke: #aaa; stroke-width: 1;" x1="152.08693621500433" y1="684.9345657899237" x2="189.96751974177155" y2="678.439789573053"></line><line style="stroke: #aaa; stroke-width: 1;" x1="152.08693621500433" y1="684.9345657899237" x2="20" y2="779.8745888735186"></line><line style="stroke: #aaa; stroke-width: 1.41421;" x1="152.08693621500433" y1="684.9345657899237" x2="165.61062954822526" y2="704.4568978121968"></line><line style="stroke: #aaa; stroke-width: 1.41421;" x1="189.96751974177155" y1="678.439789573053" x2="20" y2="779.8745888735186"></line><line style="stroke: #aaa; stroke-width: 1;" x1="189.96751974177155" y1="678.439789573053" x2="290.5457094022692" y2="636.176239948817"></line><line style="stroke: #aaa; stroke-width: 1;" x1="189.96751974177155" y1="678.439789573053" x2="165.61062954822526" y2="704.4568978121968"></line><line style="stroke: #aaa; stroke-width: 1.41421;" x1="189.96751974177155" y1="678.439789573053" x2="273.79348116564944" y2="650.2716904978946"></line><line style="stroke: #aaa; stroke-width: 1.41421;" x1="290.5457094022692" y1="636.176239948817" x2="165.61062954822526" y2="704.4568978121968"></line><line style="stroke: #aaa; stroke-width: 1;" x1="290.5457094022692" y1="636.176239948817" x2="378.3427474549011" y2="598.8911320121766"></line><line style="stroke: #aaa; stroke-width: 1;" x1="290.5457094022692" y1="636.176239948817" x2="273.79348116564944" y2="650.2716904978946"></line><line style="stroke: #aaa; stroke-width: 1.41421;" x1="290.5457094022692" y1="636.176239948817" x2="363.933177497701" y2="613.161398070895"></line><line style="stroke: #aaa; stroke-width: 1.41421;" x1="378.3427474549011" y1="598.8911320121766" x2="273.79348116564944" y2="650.2716904978946"></line><line style="stroke: #aaa; stroke-width: 1;" x1="378.3427474549011" y1="598.8911320121766" x2="452.7642961990038" y2="573.6150895204231"></line><line style="stroke: #aaa; stroke-width: 1;" x1="378.3427474549011" y1="598.8911320121766" x2="363.933177497701" y2="613.161398070895"></line><line style="stroke: #aaa; stroke-width: 1.41421;" x1="378.3427474549011" y1="598.8911320121766" x2="440.02848832764533" y2="590.2871686681186"></line><line style="stroke: #aaa; stroke-width: 1.41421;" x1="452.7642961990038" y1="573.6150895204231" x2="363.933177497701" y2="613.161398070895"></line><line style="stroke: #aaa; stroke-width: 1;" x1="452.7642961990038" y1="573.6150895204231" x2="515.5577632521959" y2="562.2520813937739"></line><line style="stroke: #aaa; stroke-width: 1;" x1="452.7642961990038" y1="573.6150895204231" x2="440.02848832764533" y2="590.2871686681186"></line><line style="stroke: #aaa; stroke-width: 1.41421;" x1="452.7642961990038" y1="573.6150895204231" x2="503.34538643313715" y2="582.6636923129153"></line><line style="stroke: #aaa; stroke-width: 1.41421;" x1="515.5577632521959" y1="562.2520813937739" x2="440.02848832764533" y2="590.2871686681186"></line><line style="stroke: #aaa; stroke-width: 1;" x1="515.5577632521959" y1="562.2520813937739" x2="567.7578379039069" y2="565.9764118165552"></line><line style="stroke: #aaa; stroke-width: 1;" x1="515.5577632521959" y1="562.2520813937739" x2="503.34538643313715" y2="582.6636923129153"></line><line style="stroke: #aaa; stroke-width: 1.41421;" x1="515.5577632521959" y1="562.2520813937739" x2="553.6008538614794" y2="591.1498452048241"></line><line style="stroke: #aaa; stroke-width: 1.41421;" x1="567.7578379039069" y1="565.9764118165552" x2="503.34538643313715" y2="582.6636923129153"></line><line style="stroke: #aaa; stroke-width: 1;" x1="567.7578379039069" y1="565.9764118165552" x2="608.6950153198003" y2="585.8483748581099"></line><line style="stroke: #aaa; stroke-width: 1;" x1="567.7578379039069" y1="565.9764118165552" x2="553.6008538614794" y2="591.1498452048241"></line><line style="stroke: #aaa; stroke-width: 1.41421;" x1="567.7578379039069" y1="565.9764118165552" x2="589.9214911242423" y2="613.5946365078307"></line><line style="stroke: #aaa; stroke-width: 1.41421;" x1="608.6950153198003" y1="585.8483748581099" x2="553.6008538614794" y2="591.1498452048241"></line><line style="stroke: #aaa; stroke-width: 1;" x1="608.6950153198003" y1="585.8483748581099" x2="636.9602921439764" y2="622.2176015377194"></line><line style="stroke: #aaa; stroke-width: 1;" x1="608.6950153198003" y1="585.8483748581099" x2="589.9214911242423" y2="613.5946365078307"></line><line style="stroke: #aaa; stroke-width: 1.41421;" x1="608.6950153198003" y1="585.8483748581099" x2="614.1849549613606" y2="648.1321006733784"></line><line style="stroke: #aaa; stroke-width: 1.41421;" x1="636.9602921439764" y1="622.2176015377194" x2="589.9214911242423" y2="613.5946365078307"></line><line style="stroke: #aaa; stroke-width: 1;" x1="636.9602921439764" y1="622.2176015377194" x2="653.3296853435073" y2="669.6686113936863"></line><line style="stroke: #aaa; stroke-width: 1;" x1="636.9602921439764" y1="622.2176015377194" x2="614.1849549613606" y2="648.1321006733784"></line><line style="stroke: #aaa; stroke-width: 1.41421;" x1="636.9602921439764" y1="622.2176015377194" x2="627.5689652405088" y2="701.4318294279784"></line><line style="stroke: #aaa; stroke-width: 1.41421;" x1="653.3296853435073" y1="669.6686113936863" x2="614.1849549613606" y2="648.1321006733784"></line><line style="stroke: #aaa; stroke-width: 1;" x1="653.3296853435073" y1="669.6686113936863" x2="660.3199244547403" y2="684.0794899275504"></line><line style="stroke: #aaa; stroke-width: 1;" x1="653.3296853435073" y1="669.6686113936863" x2="627.5689652405088" y2="701.4318294279784"></line><line style="stroke: #aaa; stroke-width: 1.41421;" x1="653.3296853435073" y1="669.6686113936863" x2="628.3875870606747" y2="780"></line><line style="stroke: #aaa; stroke-width: 1.41421;" x1="660.3199244547403" y1="684.0794899275504" x2="627.5689652405088" y2="701.4318294279784"></line><line style="stroke: #aaa; stroke-width: 1;" x1="628.3875870606747" y1="20" x2="660.3199244547403" y2="115.92148292076084"></line><line style="stroke: #aaa; stroke-width: 1;" x1="660.3199244547403" y1="115.92148292076084" x2="686.3058416383793" y2="194.23085053177076"></line><line style="stroke: #aaa; stroke-width: 1;" x1="686.3058416383793" y1="194.23085053177076" x2="715.6484126050789" y2="265.53505664450233"></line><line style="stroke: #aaa; stroke-width: 1;" x1="715.6484126050789" y1="265.53505664450233" x2="747.0755781695995" y2="333.4790046349651"></line><line style="stroke: #aaa; stroke-width: 1;" x1="747.0755781695995" y1="333.4790046349651" x2="780" y2="400.0004864241556"></line><line style="stroke: #aaa; stroke-width: 1;" x1="780" y1="400.0004864241556" x2="747.0755781695995" y2="466.5215881796294"></line><line style="stroke: #aaa; stroke-width: 1;" x1="747.0755781695995" y1="466.5215881796294" x2="715.6484126050789" y2="534.467816372392"></line><line style="stroke: #aaa; stroke-width: 1;" x1="715.6484126050789" y1="534.467816372392" x2="686.3058416383793" y2="605.7697422828238"></line><line style="stroke: #aaa; stroke-width: 1;" x1="686.3058416383793" y1="605.7697422828238" x2="660.3199244547403" y2="684.0794899275504"></line><line style="stroke: #aaa; stroke-width: 1;" x1="660.3199244547403" y1="684.0794899275504" x2="628.3875870606747" y2="780"></line><line style="stroke: #aaa; stroke-width: 1;" x1="20" y1="779.8745888735186" x2="165.61062954822526" y2="704.4568978121968"></line><line style="stroke: #aaa; stroke-width: 1;" x1="165.61062954822526" y1="704.4568978121968" x2="273.79348116564944" y2="650.2716904978946"></line><line style="stroke: #aaa; stroke-width: 1;" x1="273.79348116564944" y1="650.2716904978946" x2="363.933177497701" y2="613.161398070895"></line><line style="stroke: #aaa; stroke-width: 1;" x1="363.933177497701" y1="613.161398070895" x2="440.02848832764533" y2="590.2871686681186"></line><line style="stroke: #aaa; stroke-width: 1;" x1="440.02848832764533" y1="590.2871686681186" x2="503.34538643313715" y2="582.6636923129153"></line><line style="stroke: #aaa; stroke-width: 1;" x1="503.34538643313715" y1="582.6636923129153" x2="553.6008538614794" y2="591.1498452048241"></line><line style="stroke: #aaa; stroke-width: 1;" x1="553.6008538614794" y1="591.1498452048241" x2="589.9214911242423" y2="613.5946365078307"></line><line style="stroke: #aaa; stroke-width: 1;" x1="589.9214911242423" y1="613.5946365078307" x2="614.1849549613606" y2="648.1321006733784"></line><line style="stroke: #aaa; stroke-width: 1;" x1="614.1849549613606" y1="648.1321006733784" x2="627.5689652405088" y2="701.4318294279784"></line><line style="stroke: #aaa; stroke-width: 1;" x1="627.5689652405088" y1="701.4318294279784" x2="628.3875870606747" y2="780"></line><circle r="10" cx="20" cy="20.125137084168365" style="stroke: #000; fill: #69b3a2;"></circle><circle r="10" cx="165.61062954822526" cy="95.5433149686812" style="stroke: #000; fill: #69b3a2;"></circle><circle r="10" cx="273.79348116564944" cy="149.72852228298342" style="stroke: #000; fill: #69b3a2;"></circle><circle r="10" cx="363.933177497701" cy="186.8380546425498" style="stroke: #000; fill: #69b3a2;"></circle><circle r="10" cx="440.02848832764533" cy="209.713424146476" style="stroke: #000; fill: #69b3a2;"></circle><circle r="10" cx="503.34538643313715" cy="217.33880067026243" style="stroke: #000; fill: #69b3a2;"></circle><circle r="10" cx="553.6008538614794" cy="208.85074760977048" style="stroke: #000; fill: #69b3a2;"></circle><circle r="10" cx="589.9214911242423" cy="186.40519623933065" style="stroke: #000; fill: #69b3a2;"></circle><circle r="10" cx="614.1849549613606" cy="151.86963224236604" style="stroke: #000; fill: #69b3a2;"></circle><circle r="10" cx="627.5689652405088" cy="98.56952345404933" style="stroke: #000; fill: #69b3a2;"></circle><circle r="10" cx="628.3875870606747" cy="20" style="stroke: #000; fill: #69b3a2;"></circle><circle r="10" cx="152.08693621500433" cy="115.06602702467094" style="stroke: #000; fill: #69b3a2;"></circle><circle r="10" cx="189.96751974177155" cy="121.56042320782504" style="stroke: #000; fill: #69b3a2;"></circle><circle r="10" cx="290.5457094022692" cy="163.82511293321073" style="stroke: #000; fill: #69b3a2;"></circle><circle r="10" cx="378.3427474549011" cy="201.11022086985113" style="stroke: #000; fill: #69b3a2;"></circle><circle r="10" cx="452.7642961990038" cy="226.38664339532139" style="stroke: #000; fill: #69b3a2;"></circle><circle r="10" cx="515.5577632521959" cy="237.75041158940377" style="stroke: #000; fill: #69b3a2;"></circle><circle r="10" cx="567.7578379039069" cy="234.02456103175598" style="stroke: #000; fill: #69b3a2;"></circle><circle r="10" cx="608.6950153198003" cy="214.1510778553349" style="stroke: #000; fill: #69b3a2;"></circle><circle r="10" cx="636.9602921439764" cy="177.78299127687526" style="stroke: #000; fill: #69b3a2;"></circle><circle r="10" cx="653.3296853435073" cy="130.33198142090828" style="stroke: #000; fill: #69b3a2;"></circle><circle r="10" cx="660.3199244547403" cy="115.92148292076084" style="stroke: #000; fill: #69b3a2;"></circle><circle r="10" cx="244.7905317421861" cy="190.16486979775675" style="stroke: #000; fill: #69b3a2;"></circle><circle r="10" cx="270.58533572765987" cy="192.3690653540967" style="stroke: #000; fill: #69b3a2;"></circle><circle r="10" cx="332.8590235731035" cy="204.71332053703375" style="stroke: #000; fill: #69b3a2;"></circle><circle r="10" cx="414.75772403522944" cy="232.7240856535154" style="stroke: #000; fill: #69b3a2;"></circle><circle r="10" cx="486.13911219068535" cy="256.7114338122434" style="stroke: #000; fill: #69b3a2;"></circle><circle r="10" cx="544.5503657827649" cy="270.6142072669994" style="stroke: #000; fill: #69b3a2;"></circle><circle r="10" cx="593.5063851917357" cy="269.0469482196985" style="stroke: #000; fill: #69b3a2;"></circle><circle r="10" cx="634.0449029108195" cy="251.93669019675113" style="stroke: #000; fill: #69b3a2;"></circle><circle r="10" cx="664.1452316218365" cy="222.74782055877736" style="stroke: #000; fill: #69b3a2;"></circle><circle r="10" cx="681.6649558549095" cy="201.87522874138776" style="stroke: #000; fill: #69b3a2;"></circle><circle r="10" cx="686.3058416383793" cy="194.23085053177076" style="stroke: #000; fill: #69b3a2;"></circle><circle r="10" cx="308.89105482423093" cy="261.42157169591195" style="stroke: #000; fill: #69b3a2;"></circle><circle r="10" cx="335.5339997066576" cy="260.71356888186693" style="stroke: #000; fill: #69b3a2;"></circle><circle r="10" cx="390.43339612226237" cy="266.19897554742056" style="stroke: #000; fill: #69b3a2;"></circle><circle r="10" cx="468.5919991234805" cy="281.00014870824344" style="stroke: #000; fill: #69b3a2;"></circle><circle r="10" cx="540.6794105587824" cy="298.05226157254936" style="stroke: #000; fill: #69b3a2;"></circle><circle r="10" cx="595.198406500332" cy="310.0856491752992" style="stroke: #000; fill: #69b3a2;"></circle><circle r="10" cx="635.469122285681" cy="313.04079135566116" style="stroke: #000; fill: #69b3a2;"></circle><circle r="10" cx="668.8774135190796" cy="300.5536434952786" style="stroke: #000; fill: #69b3a2;"></circle><circle r="10" cx="694.921151574775" cy="283.0086269005291" style="stroke: #000; fill: #69b3a2;"></circle><circle r="10" cx="710.4962685844791" cy="270.26799655116747" style="stroke: #000; fill: #69b3a2;"></circle><circle r="10" cx="715.6484126050789" cy="265.53505664450233" style="stroke: #000; fill: #69b3a2;"></circle><circle r="10" cx="346.946013928305" cy="331.42454236296965" style="stroke: #000; fill: #69b3a2;"></circle><circle r="10" cx="376.20641839260867" cy="329.66878659222994" style="stroke: #000; fill: #69b3a2;"></circle><circle r="10" cx="430.42109395491457" cy="331.7308495385576" style="stroke: #000; fill: #69b3a2;"></circle><circle r="10" cx="507.4963164060242" cy="338.91956732195877" style="stroke: #000; fill: #69b3a2;"></circle><circle r="10" cx="609.982290524002" cy="350.2255703911164" style="stroke: #000; fill: #69b3a2;"></circle><circle r="10" cx="668.4665810071002" cy="354.38731962171613" style="stroke: #000; fill: #69b3a2;"></circle><circle r="10" cx="699.9393946285073" cy="357.54197950329865" style="stroke: #000; fill: #69b3a2;"></circle><circle r="10" cx="718.0281979707665" cy="352.75279460657515" style="stroke: #000; fill: #69b3a2;"></circle><circle r="10" cx="733.4785436249807" cy="342.80579210801613" style="stroke: #000; fill: #69b3a2;"></circle><circle r="10" cx="743.6458874955204" cy="335.84091418369843" style="stroke: #000; fill: #69b3a2;"></circle><circle r="10" cx="747.0755781695995" cy="333.4790046349651" style="stroke: #000; fill: #69b3a2;"></circle><circle r="10" cx="359.2679460838916" cy="400.0004864241556" style="stroke: #000; fill: #69b3a2;"></circle><circle r="10" cx="390.12907574301835" cy="400.0004864241556" style="stroke: #000; fill: #69b3a2;"></circle><circle r="10" cx="444.1794183005325" cy="400.0004864241556" style="stroke: #000; fill: #69b3a2;"></circle><circle r="10" cx="522.1097810173177" cy="400.0004864241556" style="stroke: #000; fill: #69b3a2;"></circle><circle r="10" cx="621.4947304707999" cy="400.0004864241556" style="stroke: #000; fill: #69b3a2;"></circle><circle r="10" cx="780" cy="400.0004864241556" style="stroke: #000; fill: #69b3a2;"></circle><circle r="10" cx="780" cy="400.0004864241556" style="stroke: #000; fill: #69b3a2;"></circle><circle r="10" cx="780" cy="400.0004864241556" style="stroke: #000; fill: #69b3a2;"></circle><circle r="10" cx="780" cy="400.0004864241556" style="stroke: #000; fill: #69b3a2;"></circle><circle r="10" cx="780" cy="400.0004864241556" style="stroke: #000; fill: #69b3a2;"></circle><circle r="10" cx="780" cy="400.0004864241556" style="stroke: #000; fill: #69b3a2;"></circle><circle r="10" cx="346.946013928305" cy="468.5775705864914" style="stroke: #000; fill: #69b3a2;"></circle><circle r="10" cx="376.20641839260867" cy="470.33332635723104" style="stroke: #000; fill: #69b3a2;"></circle><circle r="10" cx="430.42109395491457" cy="468.269743276037" style="stroke: #000; fill: #69b3a2;"></circle><circle r="10" cx="507.4963164060242" cy="461.07950535776934" style="stroke: #000; fill: #69b3a2;"></circle><circle r="10" cx="609.982290524002" cy="449.77350228861167" style="stroke: #000; fill: #69b3a2;"></circle><circle r="10" cx="668.4665810071002" cy="445.61213309172854" style="stroke: #000; fill: #69b3a2;"></circle><circle r="10" cx="699.9393946285073" cy="442.45785324386276" style="stroke: #000; fill: #69b3a2;"></circle><circle r="10" cx="718.0281979707665" cy="447.246278073153" style="stroke: #000; fill: #69b3a2;"></circle><circle r="10" cx="733.4785436249807" cy="457.1955607740117" style="stroke: #000; fill: #69b3a2;"></circle><circle r="10" cx="743.6458874955204" cy="464.1615787994792" style="stroke: #000; fill: #69b3a2;"></circle><circle r="10" cx="747.0755781695995" cy="466.5215881796294" style="stroke: #000; fill: #69b3a2;"></circle><circle r="10" cx="308.89105482423093" cy="538.5797811861158" style="stroke: #000; fill: #69b3a2;"></circle><circle r="10" cx="335.5339997066576" cy="539.2866438990111" style="stroke: #000; fill: #69b3a2;"></circle><circle r="10" cx="390.43339612226237" cy="533.8027573683239" style="stroke: #000; fill: #69b3a2;"></circle><circle r="10" cx="468.5919991234805" cy="519.0004441063512" style="stroke: #000; fill: #69b3a2;"></circle><circle r="10" cx="540.6794105587824" cy="501.9483312420453" style="stroke: #000; fill: #69b3a2;"></circle><circle r="10" cx="595.198406500332" cy="489.9164637741619" style="stroke: #000; fill: #69b3a2;"></circle><circle r="10" cx="635.469122285681" cy="486.95980145893344" style="stroke: #000; fill: #69b3a2;"></circle><circle r="10" cx="668.8774135190796" cy="499.4477093867492" style="stroke: #000; fill: #69b3a2;"></circle><circle r="10" cx="694.921151574775" cy="516.9938660826485" style="stroke: #000; fill: #69b3a2;"></circle><circle r="10" cx="710.4962685844791" cy="529.7325962634271" style="stroke: #000; fill: #69b3a2;"></circle><circle r="10" cx="715.6484126050789" cy="534.467816372392" style="stroke: #000; fill: #69b3a2;"></circle><circle r="10" cx="244.7905317421861" cy="609.8361030505546" style="stroke: #000; fill: #69b3a2;"></circle><circle r="10" cx="270.58533572765987" cy="607.6319074942145" style="stroke: #000; fill: #69b3a2;"></circle><circle r="10" cx="332.8590235731035" cy="595.2884123787106" style="stroke: #000; fill: #69b3a2;"></circle><circle r="10" cx="414.75772403522944" cy="567.2761271273625" style="stroke: #000; fill: #69b3a2;"></circle><circle r="10" cx="486.13911219068535" cy="543.2883989349178" style="stroke: #000; fill: #69b3a2;"></circle><circle r="10" cx="544.5503657827649" cy="529.3867655813118" style="stroke: #000; fill: #69b3a2;"></circle><circle r="10" cx="593.5063851917357" cy="530.9525044937463" style="stroke: #000; fill: #69b3a2;"></circle><circle r="10" cx="634.0449029108195" cy="548.06542275271" style="stroke: #000; fill: #69b3a2;"></circle><circle r="10" cx="664.1452316218365" cy="577.252012188384" style="stroke: #000; fill: #69b3a2;"></circle><circle r="10" cx="681.6649558549095" cy="598.1272642417899" style="stroke: #000; fill: #69b3a2;"></circle><circle r="10" cx="686.3058416383793" cy="605.7697422828238" style="stroke: #000; fill: #69b3a2;"></circle><circle r="10" cx="152.08693621500433" cy="684.9345657899237" style="stroke: #000; fill: #69b3a2;"></circle><circle r="10" cx="189.96751974177155" cy="678.439789573053" style="stroke: #000; fill: #69b3a2;"></circle><circle r="10" cx="290.5457094022692" cy="636.176239948817" style="stroke: #000; fill: #69b3a2;"></circle><circle r="10" cx="378.3427474549011" cy="598.8911320121766" style="stroke: #000; fill: #69b3a2;"></circle><circle r="10" cx="452.7642961990038" cy="573.6150895204231" style="stroke: #000; fill: #69b3a2;"></circle><circle r="10" cx="515.5577632521959" cy="562.2520813937739" style="stroke: #000; fill: #69b3a2;"></circle><circle r="10" cx="567.7578379039069" cy="565.9764118165552" style="stroke: #000; fill: #69b3a2;"></circle><circle r="10" cx="608.6950153198003" cy="585.8483748581099" style="stroke: #000; fill: #69b3a2;"></circle><circle r="10" cx="636.9602921439764" cy="622.2176015377194" style="stroke: #000; fill: #69b3a2;"></circle><circle r="10" cx="653.3296853435073" cy="669.6686113936863" style="stroke: #000; fill: #69b3a2;"></circle><circle r="10" cx="660.3199244547403" cy="684.0794899275504" style="stroke: #000; fill: #69b3a2;"></circle><circle r="10" cx="20" cy="779.8745888735186" style="stroke: #000; fill: #69b3a2;"></circle><circle r="10" cx="165.61062954822526" cy="704.4568978121968" style="stroke: #000; fill: #69b3a2;"></circle><circle r="10" cx="273.79348116564944" cy="650.2716904978946" style="stroke: #000; fill: #69b3a2;"></circle><circle r="10" cx="363.933177497701" cy="613.161398070895" style="stroke: #000; fill: #69b3a2;"></circle><circle r="10" cx="440.02848832764533" cy="590.2871686681186" style="stroke: #000; fill: #69b3a2;"></circle><circle r="10" cx="503.34538643313715" cy="582.6636923129153" style="stroke: #000; fill: #69b3a2;"></circle><circle r="10" cx="553.6008538614794" cy="591.1498452048241" style="stroke: #000; fill: #69b3a2;"></circle><circle r="10" cx="589.9214911242423" cy="613.5946365078307" style="stroke: #000; fill: #69b3a2;"></circle><circle r="10" cx="614.1849549613606" cy="648.1321006733784" style="stroke: #000; fill: #69b3a2;"></circle><circle r="10" cx="627.5689652405088" cy="701.4318294279784" style="stroke: #000; fill: #69b3a2;"></circle><circle r="10" cx="628.3875870606747" cy="780" style="stroke: #000; fill: #69b3a2;"></circle></svg>