<svg width="800" height="800" xmlns="http://www.w3.org/2000/svg"><line style="stroke: #aaa; stroke-width: 1;" x1="20" y1="20" x2="96" y2="20"></line><line style="stroke: #aaa; stroke-width: 1;" x1="20" y1="20" x2="20" y2="96"></line><line style="stroke: #aaa; stroke-width: 1.41421;" x1="20" y1="20" x2="96" y2="96"></line><line style="stroke: #aaa; stroke-width: 1.41421;" x1="96" y1="20" x2="20" y2="96"></line><line style="stroke: #aaa; stroke-width: 1;" x1="96" y1="20" x2="172" y2="20"></line><line style="stroke: #aaa; stroke-width: 1;" x1="96" y1="20" x2="96" y2="96"></line><line style="stroke: #aaa; stroke-width: 1.41421;" x1="96" y1="20" x2="172" y2="96"></line><line style="stroke: #aaa; stroke-width: 1.41421;" x1="172" y1="20" x2="96" y2="96"></line><line style="stroke: #aaa; stroke-width: 1;" x1="172" y1="20" x2="248" y2="20"></line><line style="stroke: #aaa; stroke-width: 1;" x1="172" y1="20" x2="172" y2="96"></line><line style="stroke: #aaa; stroke-width: 1.41421;" x1="172" y1="20" x2="248" y2="96"></line><line style="stroke: #aaa; stroke-width: 1.41421;" x1="248" y1="20" x2="172" y2="96"></line><line style="stroke: #aaa; stroke-width: 1;" x1="248" y1="20" x2="324" y2="20"></line><line style="stroke: #aaa; stroke-width: 1;" x1="248" y1="20" x2="248" y2="96"></line><line style="stroke: #aaa; stroke-width: 1.41421;" x1="248" y1="20" x2="324" y2="96"></line><line style="stroke: #aaa; stroke-width: 1.41421;" x1="324" y1="20" x2="248" y2="96"></line><line style="stroke: #aaa; stroke-width: 1;" x1="324" y1="20" x2="400" y2="20"></line><line style="stroke: #aaa; stroke-width: 1;" x1="324" y1="20" x2="324" y2="96"></line><line style="stroke: #aaa; stroke-width: 1.41421;" x1="324" y1="20" x2="400" y2="96"></line><line style="stroke: #aaa; stroke-width: 1.41421;" x1="400" y1="20" x2="324" y2="96"></line><line style="stroke: #aaa; stroke-width: 1;" x1="400" y1="20" x2="476" y2="20"></line><line style="stroke: #aaa; stroke-width: 1;" x1="400" y1="20" x2="400" y2="96"></line><line style="stroke: #aaa; stroke-width: 1.41421;" x1="400" y1="20" x2="476" y2="96"></line><line style="stroke: #aaa; stroke-width: 1.41421;" x1="476" y1="20" x2="400" y2="96"></line><line style="stroke: #aaa; stroke-width: 1;" x1="476" y1="20" x2="552" y2="20"></line><line style="stroke: #aaa; stroke-width: 1;" x1="476" y1="20" x2="476" y2="96"></line><line style="stroke: #aaa; stroke-width: 1.41421;" x1="476" y1="20" x2="552" y2="96"></line><line style="stroke: #aaa; stroke-width: 1.41421;" x1="552" y1="20" x2="476" y2="96"></line><line style="stroke: #aaa; stroke-width: 1;" x1="552" y1="20" x2="628" y2="20"></line><line style="stroke: #aaa; stroke-width: 1;" x1="552" y1="20" x2="552" y2="96"></line><line style="stroke: #aaa; stroke-width: 1.41421;" x1="552" y1="20" x2="628" y2="96"></line><line style="stroke: #aaa; stroke-width: 1.41421;" x1="628" y1="20" x2="552" y2="96"></line><line style="stroke: #aaa; stroke-width: 1;" x1="628" y1="20" x2="704" y2="20"></line><line style="stroke: #aaa; stroke-width: 1;" x1="628" y1="20" x2="628" y2="96"></line><line style="stroke: #aaa; stroke-width: 1.41421;" x1="628" y1="20" x2="704" y2="96"></line><line style="stroke: #aaa; stroke-width: 1.41421;" x1="704" y1="20" x2="628" y2="96"></line><line style="stroke: #aaa; stroke-width: 1;" x1="704" y1="20" x2="780" y2="20"></line><line style="stroke: #aaa; stroke-width: 1;" x1="704" y1="20" x2="704" y2="96"></line><line style="stroke: #aaa; stroke-width: 1.41421;" x1="704" y1="20" x2="780" y2="96"></line><line style="stroke: #aaa; stroke-width: 1.41421;" x1="780" y1="20" x2="704" y2="96"></line><line style="stroke: #aaa; stroke-width: 1;" x1="20" y1="96" x2="96" y2="96"></line><line style="stroke: #aaa; stroke-width: 1;" x1="20" y1="96" x2="20" y2="172"></line><line style="stroke: #aaa; stroke-width: 1.41421;" x1="20" y1="96" x2="96" y2="172"></line><line style="stroke: #aaa; stroke-width: 1.41421;" x1="96" y1="96" x2="20" y2="172"></line><line style="stroke: #aaa; stroke-width: 1;" x1="96" y1="96" x2="172" y2="96"></line><line style="stroke: #aaa; stroke-width: 1;" x1="96" y1="96" x2="96" y2="172"></line><line style="stroke: #aaa; stroke-width: 1.41421;" x1="96" y1="96" x2="172" y2="172"></line><line style="stroke: #aaa; stroke-width: 1.41421;" x1="172" y1="96" x2="96" y2="172"></line><line style="stroke: #aaa; stroke-width: 1;" x1="172" y1="96" x2="248" y2="96"></line><line style="stroke: #aaa; stroke-width: 1;" x1="172" y1="96" x2="172" y2="172"></line><line style="stroke: #aaa; stroke-width: 1.41421;" x1="172" y1="96" x2="248" y2="172"></line><line style="stroke: #aaa; stroke-width: 1.41421;" x1="248" y1="96" x2="172" y2="172"></line><line style="stroke: #aaa; stroke-width: 1;" x1="248" y1="96" x2="324" y2="96"></line><line style="stroke: #aaa; stroke-width: 1;" x1="248" y1="96" x2="248" y2="172"></line><line style="stroke: #aaa; stroke-width: 1.41421;" x1="248" y1="96" x2="324" y2="172"></line><line style="stroke: #aaa; stroke-width: 1.41421;" x1="324" y1="96" x2="248" y2="172"></line><line style="stroke: #aaa; stroke-width: 1;" x1="324" y1="96" x2="400" y2="96"></line><line style="stroke: #aaa; stroke-width: 1;" x1="324" y1="96" x2="324" y2="172"></line><line style="stroke: #aaa; stroke-width: 1.41421;" x1="324" y1="96" x2="400" y2="172"></line><line style="stroke: #aaa; stroke-width: 1.41421;" x1="400" y1="96" x2="324" y2="172"></line><line style="stroke: #aaa; stroke-width: 1;" x1="400" y1="96" x2="476" y2="96"></line><line style="stroke: #aaa; stroke-width: 1;" x1="400" y1="96" x2="400" y2="172"></line><line style="stroke: #aaa; stroke-width: 1.41421;" x1="400" y1="96" x2="476" y2="172"></line><line style="stroke: #aaa; stroke-width: 1.41421;" x1="476" y1="96" x2="400" y2="172"></line><line style="stroke: #aaa; stroke-width: 1;" x1="476" y1="96" x2="552" y2="96"></line><line style="stroke: #aaa; stroke-width: 1;" x1="476" y1="96" x2="476" y2="172"></line><line style="stroke: #aaa; stroke-width: 1.41421;" x1="476" y1="96" x2="552" y2="172"></line><line style="stroke: #aaa; stroke-width: 1.41421;" x1="552" y1="96" x2="476" y2="172"></line><line style="stroke: #aaa; stroke-width: 1;" x1="552" y1="96" x2="628" y2="96"></line><line style="stroke: #aaa; stroke-width: 1;" x1="552" y1="96" x2="552" y2="172"></line><line style="stroke: #aaa; stroke-width: 1.41421;" x1="552" y1="96" x2="628" y2="172"></line><line style="stroke: #aaa; stroke-width: 1.41421;" x1="628" y1="96" x2="552" y2="172"></line><line style="stroke: #aaa; stroke-width: 1;" x1="628" y1="96" x2="704" y2="96"></line><line style="stroke: #aaa; stroke-width: 1;" x1="628" y1="96" x2="628" y2="172"></line><line style="stroke: #aaa; stroke-width: 1.41421;" x1="628" y1="96" x2="704" y2="172"></line><line style="stroke: #aaa; stroke-width: 1.41421;" x1="704" y1="96" x2="628" y2="172"></line><line style="stroke: #aaa; stroke-width: 1;" x1="704" y1="96" x2="780" y2="96"></line><line style="stroke: #aaa; stroke-width: 1;" x1="704" y1="96" x2="704" y2="172"></line><line style="stroke: #aaa; stroke-width: 1.41421;" x1="704" y1="96" x2="780" y2="172"></line><line style="stroke: #aaa; stroke-width: 1.41421;" x1="780" y1="96" x2="704" y2="172"></line><line style="stroke: #aaa; stroke-width: 1;" x1="20" y1="172" x2="96" y2="172"></line><line style="stroke: #aaa; stroke-width: 1;" x1="20" y1="172" x2="20" y2="248"></line><line style="stroke: #aaa; stroke-width: 1.41421;" x1="20" y1="172" x2="96" y2="248"></line><line style="stroke: #aaa; stroke-width: 1.41421;" x1="96" y1="172" x2="20" y2="248"></line><line style="stroke: #aaa; stroke-width: 1;" x1="96" y1="172" x2="172" y2="172"></line><line style="stroke: #aaa; stroke-width: 1;" x1="96" y1="172" x2="96" y2="248"></line><line style="stroke: #aaa; stroke-width: 1.41421;" x1="96" y1="172" x2="172" y2="248"></line><line style="stroke: #aaa; stroke-width: 1.41421;" x1="172" y1="172" x2="96" y2="248"></line><line style="stroke: #aaa; stroke-width: 1;" x1="172" y1="172" x2="248" y2="172"></line><line style="stroke: #aaa; stroke-width: 1;" x1="172" y1="172" x2="172" y2="248"></line><line style="stroke: #aaa; stroke-width: 1.41421;" x1="172" y1="172" x2="248" y2="248"></line><line style="stroke: #aaa; stroke-width: 1.41421;" x1="248" y1="172" x2="172" y2="248"></line><line style="stroke: #aaa; stroke-width: 1;" x1="248" y1="172" x2="324" y2="172"></line><line style="stroke: #aaa; stroke-width: 1;" x1="248" y1="172" x2="248" y2="248"></line><line style="stroke: #aaa; stroke-width: 1.41421;" x1="248" y1="172" x2="324" y2="248"></line><line style="stroke: #aaa; stroke-width: 1.41421;" x1="324" y1="172" x2="248" y2="248"></line><line style="stroke: #aaa; stroke-width: 1;" x1="324" y1="172" x2="400" y2="172"></line><line style="stroke: #aaa; stroke-width: 1;" x1="324" y1="172" x2="324" y2="248"></line><line style="stroke: #aaa; stroke-width: 1.41421;" x1="324" y1="172" x2="400" y2="248"></line><line style="stroke: #aaa; stroke-width: 1.41421;" x1="400" y1="172" x2="324" y2="248"></line><line style="stroke: #aaa; stroke-width: 1;" x1="400" y1="172" x2="476" y2="172"></line><line style="stroke: #aaa; stroke-width: 1;" x1="400" y1="172" x2="400" y2="248"></line><line style="stroke: #aaa; stroke-width: 1.41421;" x1="400" y1="172" x2="476" y2="248"></line><line style="stroke: #aaa; stroke-width: 1.41421;" x1="476" y1="172" x2="400" y2="248"></line><line style="stroke: #aaa; stroke-width: 1;" x1="476" y1="172" x2="552" y2="172"></line><line style="stroke: #aaa; stroke-width: 1;" x1="476" y1="172" x2="476" y2="248"></line><line style="stroke: #aaa; stroke-width: 1.41421;" x1="476" y1="172" x2="552" y2="248"></line><line style="stroke: #aaa; stroke-width: 1.41421;" x1="552" y1="172" x2="476" y2="248"></line><line style="stroke: #aaa; stroke-width: 1;" x1="552" y1="172" x2="628" y2="172"></line><line style="stroke: #aaa; stroke-width: 1;" x1="552" y1="172" x2="552" y2="248"></line><line style="stroke: #aaa; stroke-width: 1.41421;" x1="552" y1="172" x2="628" y2="248"></line><line style="stroke: #aaa; stroke-width: 1.41421;" x1="628" y1="172" x2="552" y2="248"></line><line style="stroke: #aaa; stroke-width: 1;" x1="628" y1="172" x2="704" y2="172"></line><line style="stroke: #aaa; stroke-width: 1;" x1="628" y1="172" x2="628" y2="248"></line><line style="stroke: #aaa; stroke-width: 1.41421;" x1="628" y1="172" x2="704" y2="248"></line><line style="stroke: #aaa; stroke-width: 1.41421;" x1="704" y1="172" x2="628" y2="248"></line><line style="stroke: #aaa; stroke-width: 1;" x1="704" y1="172" x2="780" y2="172"></line><line style="stroke: #aaa; stroke-width: 1;" x1="704" y1="172" x2="704" y2="248"></line><line style="stroke: #aaa; stroke-width: 1.41421;" x1="704" y1="172" x2="780" y2="248"></line><line style="stroke: #aaa; stroke-width: 1.41421;" x1="780" y1="172" x2="704" y2="248"></line><line style="stroke: #aaa; stroke-width: 1;" x1="20" y1="248" x2="96" y2="248"></line><line style="stroke: #aaa; stroke-width: 1;" x1="20" y1="248" x2="20" y2="324"></line><line style="stroke: #aaa; stroke-width: 1.41421;" x1="20" y1="248" x2="96" y2="324"></line><line style="stroke: #aaa; stroke-width: 1.41421;" x1="96" y1="248" x2="20" y2="324"></line><line style="stroke: #aaa; stroke-width: 1;" x1="96" y1="248" x2="172" y2="248"></line><line style="stroke: #aaa; stroke-width: 1;" x1="96" y1="248" x2="96" y2="324"></line><line style="stroke: #aaa; stroke-width: 1.41421;" x1="96" y1="248" x2="172" y2="324"></line><line style="stroke: #aaa; stroke-width: 1.41421;" x1="172" y1="248" x2="96" y2="324"></line><line style="stroke: #aaa; stroke-width: 1;" x1="172" y1="248" x2="248" y2="248"></line><line style="stroke: #aaa; stroke-width: 1;" x1="172" y1="248" x2="172" y2="324"></line><line style="stroke: #aaa; stroke-width: 1.41421;" x1="172" y1="248" x2="248" y2="324"></line><line style="stroke: #aaa; stroke-width: 1.41421;" x1="248" y1="248" x2="172" y2="324"></line><line style="stroke: #aaa; stroke-width: 1;" x1="248" y1="248" x2="324" y2="248"></line><line style="stroke: #aaa; stroke-width: 1;" x1="248" y1="248" x2="248" y2="324"></line><line style="stroke: #aaa; stroke-width: 1.41421;" x1="248" y1="248" x2="324" y2="324"></line><line style="stroke: #aaa; stroke-width: 1.41421;" x1="324" y1="248" x2="248" y2="324"></line><line style="stroke: #aaa; stroke-width: 1;" x1="324" y1="248" x2="400" y2="248"></line><line style="stroke: #aaa; stroke-width: 1;" x1="324" y1="248" x2="324" y2="324"></line><line style="stroke: #aaa; stroke-width: 1.41421;" x1="324" y1="248" x2="400" y2="324"></line><line style="stroke: #aaa; stroke-width: 1.41421;" x1="400" y1="248" x2="324" y2="324"></line><line style="stroke: #aaa; stroke-width: 1;" x1="400" y1="248" x2="476" y2="248"></line><line style="stroke: #aaa; stroke-width: 1;" x1="400" y1="248" x2="400" y2="324"></line><line style="stroke: #aaa; stroke-width: 1.41421;" x1="400" y1="248" x2="476" y2="324"></line><line style="stroke: #aaa; stroke-width: 1.41421;" x1="476" y1="248" x2="400" y2="324"></line><line style="stroke: #aaa; stroke-width: 1;" x1="476" y1="248" x2="552" y2="248"></line><line style="stroke: #aaa; stroke-width: 1;" x1="476" y1="248" x2="476" y2="324"></line><line style="stroke: #aaa; stroke-width: 1.41421;" x1="476" y1="248" x2="552" y2="324"></line><line style="stroke: #aaa; stroke-width: 1.41421;" x1="552" y1="248" x2="476" y2="324"></line><line style="stroke: #aaa; stroke-width: 1;" x1="552" y1="248" x2="628" y2="248"></line><line style="stroke: #aaa; stroke-width: 1;" x1="552" y1="248" x2="552" y2="324"></line><line style="stroke: #aaa; stroke-width: 1.41421;" x1="552" y1="248" x2="628" y2="324"></line><line style="stroke: #aaa; stroke-width: 1.41421;" x1="628" y1="248" x2="552" y2="324"></line><line style="stroke: #aaa; stroke-width: 1;" x1="628" y1="248" x2="704" y2="248"></line><line style="stroke: #aaa; stroke-width: 1;" x1="628" y1="248" x2="628" y2="324"></line><line style="stroke: #aaa; stroke-width: 1.41421;" x1="628" y1="248" x2="704" y2="324"></line><line style="stroke: #aaa; stroke-width: 1.41421;" x1="704" y1="248" x2="628" y2="324"></line><line style="stroke: #aaa; stroke-width: 1;" x1="704" y1="248" x2="780" y2="248"></line><line style="stroke: #aaa; stroke-width: 1;" x1="704" y1="248" x2="704" y2="324"></line><line style="stroke: #aaa; stroke-width: 1.41421;" x1="704" y1="248" x2="780" y2="324"></line><line style="stroke: #aaa; stroke-width: 1.41421;" x1="780" y1="248" x2="704" y2="324"></line><line style="stroke: #aaa; stroke-width: 1;" x1="20" y1="324" x2="96" y2="324"></line><line style="stroke: #aaa; stroke-width: 1;" x1="20" y1="324" x2="20" y2="400"></line><line style="stroke: #aaa; stroke-width: 1.41421;" x1="20" y1="324" x2="96" y2="400"></line><line style="stroke: #aaa; stroke-width: 1.41421;" x1="96" y1="324" x2="20" y2="400"></line><line style="stroke: #aaa; stroke-width: 1;" x1="96" y1="324" x2="172" y2="324"></line><line style="stroke: #aaa; stroke-width: 1;" x1="96" y1="324" x2="96" y2="400"></line><line style="stroke: #aaa; stroke-width: 1.41421;" x1="96" y1="324" x2="172" y2="400"></line><line style="stroke: #aaa; stroke-width: 1.41421;" x1="172" y1="324" x2="96" y2="400"></line><line style="stroke: #aaa; stroke-width: 1;" x1="172" y1="324" x2="248" y2="324"></line><line style="stroke: #aaa; stroke-width: 1;" x1="172" y1="324" x2="172" y2="400"></line><line style="stroke: #aaa; stroke-width: 1.41421;" x1="172" y1="324" x2="248" y2="400"></line><line style="stroke: #aaa; stroke-width: 1.41421;" x1="248" y1="324" x2="172" y2="400"></line><line style="stroke: #aaa; stroke-width: 1;" x1="248" y1="324" x2="324" y2="324"></line><line style="stroke: #aaa; stroke-width: 1;" x1="248" y1="324" x2="248" y2="400"></line><line style="stroke: #aaa; stroke-width: 1.41421;" x1="248" y1="324" x2="324" y2="400"></line><line style="stroke: #aaa; stroke-width: 1.41421;" x1="324" y1="324" x2="248" y2="400"></line><line style="stroke: #aaa; stroke-width: 1;" x1="324" y1="324" x2="400" y2="324"></line><line style="stroke: #aaa; stroke-width: 1;" x1="324" y1="324" x2="324" y2="400"></line><line style="stroke: #aaa; stroke-width: 1.41421;" x1="324" y1="324" x2="400" y2="400"></line><line style="stroke: #aaa; stroke-width: 1.41421;" x1="400" y1="324" x2="324" y2="400"></line><line style="stroke: #aaa; stroke-width: 1;" x1="400" y1="324" x2="476" y2="324"></line><line style="stroke: #aaa; stroke-width: 1;" x1="400" y1="324" x2="400" y2="400"></line><line style="stroke: #aaa; stroke-width: 1.41421;" x1="400" y1="324" x2="476" y2="400"></line><line style="stroke: #aaa; stroke-width: 1.41421;" x1="476" y1="324" x2="400" y2="400"></line><line style="stroke: #aaa; stroke-width: 1;" x1="476" y1="324" x2="552" y2="324"></line><line style="stroke: #aaa; stroke-width: 1;" x1="476" y1="324" x2="476" y2="400"></line><line style="stroke: #aaa; stroke-width: 1.41421;" x1="476" y1="324" x2="552" y2="400"></line><line style="stroke: #aaa; stroke-width: 1.41421;" x1="552" y1="324" x2="476" y2="400"></line><line style="stroke: #aaa; stroke-width: 1;" x1="552" y1="324" x2="628" y2="324"></line><line style="stroke: #aaa; stroke-width: 1;" x1="552" y1="324" x2="552" y2="400"></line><line style="stroke: #aaa; stroke-width: 1.41421;" x1="552" y1="324" x2="628" y2="400"></line><line style="stroke: #aaa; stroke-width: 1.41421;" x1="628" y1="324" x2="552" y2="400"></line><line style="stroke: #aaa; stroke-width: 1;" x1="628" y1="324" x2="704" y2="324"></line><line style="stroke: #aaa; stroke-width: 1;" x1="628" y1="324" x2="628" y2="400"></line><line style="stroke: #aaa; stroke-width: 1.41421;" x1="628" y1="324" x2="704" y2="400"></line><line style="stroke: #aaa; stroke-width: 1.41421;" x1="704" y1="324" x2="628" y2="400"></line><line style="stroke: #aaa; stroke-width: 1;" x1="704" y1="324" x2="780" y2="324"></line><line style="stroke: #aaa; stroke-width: 1;" x1="704" y1="324" x2="704" y2="400"></line><line style="stroke: #aaa; stroke-width: 1.41421;" x1="704" y1="324" x2="780" y2="400"></line><line style="stroke: #aaa; stroke-width: 1.41421;" x1="780" y1="324" x2="704" y2="400"></line><line style="stroke: #aaa; stroke-width: 1;" x1="20" y1="400" x2="96" y2="400"></line><line style="stroke: #aaa; stroke-width: 1;" x1="20" y1="400" x2="20" y2="476"></line><line style="stroke: #aaa; stroke-width: 1.41421;" x1="20" y1="400" x2="96" y2="476"></line><line style="stroke: #aaa; stroke-width: 1.41421;" x1="96" y1="400" x2="20" y2="476"></line><line style="stroke: #aaa; stroke-width: 1;" x1="96" y1="400" x2="172" y2="400"></line><line style="stroke: #aaa; stroke-width: 1;" x1="96" y1="400" x2="96" y2="476"></line><line style="stroke: #aaa; stroke-width: 1.41421;" x1="96" y1="400" x2="172" y2="476"></line><line style="stroke: #aaa; stroke-width: 1.41421;" x1="172" y1="400" x2="96" y2="476"></line><line style="stroke: #aaa; stroke-width: 1;" x1="172" y1="400" x2="248" y2="400"></line><line style="stroke: #aaa; stroke-width: 1;" x1="172" y1="400" x2="172" y2="476"></line><line style="stroke: #aaa; stroke-width: 1.41421;" x1="172" y1="400" x2="248" y2="476"></line><line style="stroke: #aaa; stroke-width: 1.41421;" x1="248" y1="400" x2="172" y2="476"></line><line style="stroke: #aaa; stroke-width: 1;" x1="248" y1="400" x2="324" y2="400"></line><line style="stroke: #aaa; stroke-width: 1;" x1="248" y1="400" x2="248" y2="476"></line><line style="stroke: #aaa; stroke-width: 1.41421;" x1="248" y1="400" x2="324" y2="476"></line><line style="stroke: #aaa; stroke-width: 1.41421;" x1="324" y1="400" x2="248" y2="476"></line><line style="stroke: #aaa; stroke-width: 1;" x1="324" y1="400" x2="400" y2="400"></line><line style="stroke: #aaa; stroke-width: 1;" x1="324" y1="400" x2="324" y2="476"></line><line style="stroke: #aaa; stroke-width: 1.41421;" x1="324" y1="400" x2="400" y2="476"></line><line style="stroke: #aaa; stroke-width: 1.41421;" x1="400" y1="400" x2="324" y2="476"></line><line style="stroke: #aaa; stroke-width: 1;" x1="400" y1="400" x2="476" y2="400"></line><line style="stroke: #aaa; stroke-width: 1;" x1="400" y1="400" x2="400" y2="476"></line><line style="stroke: #aaa; stroke-width: 1.41421;" x1="400" y1="400" x2="476" y2="476"></line><line style="stroke: #aaa; stroke-width: 1.41421;" x1="476" y1="400" x2="400" y2="476"></line><line style="stroke: #aaa; stroke-width: 1;" x1="476" y1="400" x2="552" y2="400"></line><line style="stroke: #aaa; stroke-width: 1;" x1="476" y1="400" x2="476" y2="476"></line><line style="stroke: #aaa; stroke-width: 1.41421;" x1="476" y1="400" x2="552" y2="476"></line><line style="stroke: #aaa; stroke-width: 1.41421;" x1="552" y1="400" x2="476" y2="476"></line><line style="stroke: #aaa; stroke-width: 1;" x1="552" y1="400" x2="628" y2="400"></line><line style="stroke: #aaa; stroke-width: 1;" x1="552" y1="400" x2="552" y2="476"></line><line style="stroke: #aaa; stroke-width: 1.41421;" x1="552" y1="400" x2="628" y2="476"></line><line style="stroke: #aaa; stroke-width: 1.41421;" x1="628" y1="400" x2="552" y2="476"></line><line style="stroke: #aaa; stroke-width: 1;" x1="628" y1="400" x2="704" y2="400"></line><line style="stroke: #aaa; stroke-width: 1;" x1="628" y1="400" x2="628" y2="476"></line><line style="stroke: #aaa; stroke-width: 1.41421;" x1="628" y1="400" x2="704" y2="476"></line><line style="stroke: #aaa; stroke-width: 1.41421;" x1="704" y1="400" x2="628" y2="476"></line><line style="stroke: #aaa; stroke-width: 1;" x1="704" y1="400" x2="780" y2="400"></line><line style="stroke: #aaa; stroke-width: 1;" x1="704" y1="400" x2="704" y2="476"></line><line style="stroke: #aaa; stroke-width: 1.41421;" x1="704" y1="400" x2="780" y2="476"></line><line style="stroke: #aaa; stroke-width: 1.41421;" x1="780" y1="400" x2="704" y2="476"></line><line style="stroke: #aaa; stroke-width: 1;" x1="20" y1="476" x2="96" y2="476"></line><line style="stroke: #aaa; stroke-width: 1;" x1="20" y1="476" x2="20" y2="552"></line><line style="stroke: #aaa; stroke-width: 1.41421;" x1="20" y1="476" x2="96" y2="552"></line><line style="stroke: #aaa; stroke-width: 1.41421;" x1="96" y1="476" x2="20" y2="552"></line><line style="stroke: #aaa; stroke-width: 1;" x1="96" y1="476" x2="172" y2="476"></line><line style="stroke: #aaa; stroke-width: 1;" x1="96" y1="476" x2="96" y2="552"></line><line style="stroke: #aaa; stroke-width: 1.41421;" x1="96" y1="476" x2="172" y2="552"></line><line style="stroke: #aaa; stroke-width: 1.41421;" x1="172" y1="476" x2="96" y2="552"></line><line style="stroke: #aaa; stroke-width: 1;" x1="172" y1="476" x2="248" y2="476"></line><line style="stroke: #aaa; stroke-width: 1;" x1="172" y1="476" x2="172" y2="552"></line><line style="stroke: #aaa; stroke-width: 1.41421;" x1="172" y1="476" x2="248" y2="552"></line><line style="stroke: #aaa; stroke-width: 1.41421;" x1="248" y1="476" x2="172" y2="552"></line><line style="stroke: #aaa; stroke-width: 1;" x1="248" y1="476" x2="324" y2="476"></line><line style="stroke: #aaa; stroke-width: 1;" x1="248" y1="476" x2="248" y2="552"></line><line style="stroke: #aaa; stroke-width: 1.41421;" x1="248" y1="476" x2="324" y2="552"></line><line style="stroke: #aaa; stroke-width: 1.41421;" x1="324" y1="476" x2="248" y2="552"></line><line style="stroke: #aaa; stroke-width: 1;" x1="324" y1="476" x2="400" y2="476"></line><line style="stroke: #aaa; stroke-width: 1;" x1="324" y1="476" x2="324" y2="552"></line><line style="stroke: #aaa; stroke-width: 1.41421;" x1="324" y1="476" x2="400" y2="552"></line><line style="stroke: #aaa; stroke-width: 1.41421;" x1="400" y1="476" x2="324" y2="552"></line><line style="stroke: #aaa; stroke-width: 1;" x1="400" y1="476" x2="476" y2="476"></line><line style="stroke: #aaa; stroke-width: 1;" x1="400" y1="476" x2="400" y2="552"></line><line style="stroke: #aaa; stroke-width: 1.41421;" x1="400" y1="476" x2="476" y2="552"></line><line style="stroke: #aaa; stroke-width: 1.41421;" x1="476" y1="476" x2="400" y2="552"></line><line style="stroke: #aaa; stroke-width: 1;" x1="476" y1="476" x2="552" y2="476"></line><line style="stroke: #aaa; stroke-width: 1;" x1="476" y1="476" x2="476" y2="552"></line><line style="stroke: #aaa; stroke-width: 1.41421;" x1="476" y1="476" x2="552" y2="552"></line><line style="stroke: #aaa; stroke-width: 1.41421;" x1="552" y1="476" x2="476" y2="552"></line><line style="stroke: #aaa; stroke-width: 1;" x1="552" y1="476" x2="628" y2="476"></line><line style="stroke: #aaa; stroke-width: 1;" x1="552" y1="476" x2="552" y2="552"></line><line style="stroke: #aaa; stroke-width: 1.41421;" x1="552" y1="476" x2="628" y2="552"></line><line style="stroke: #aaa; stroke-width: 1.41421;" x1="628" y1="476" x2="552" y2="552"></line><line style="stroke: #aaa; stroke-width: 1;" x1="628" y1="476" x2="704" y2="476"></line><line style="stroke: #aaa; stroke-width: 1;" x1="628" y1="476" x2="628" y2="552"></line><line style="stroke: #aaa; stroke-width: 1.41421;" x1="628" y1="476" x2="704" y2="552"></line><line style="stroke: #aaa; stroke-width: 1.41421;" x1="704" y1="476" x2="628" y2="552"></line><line style="stroke: #aaa; stroke-width: 1;" x1="704" y1="476" x2="780" y2="476"></line><line style="stroke: #aaa; stroke-width: 1;" x1="704" y1="476" x2="704" y2="552"></line><line style="stroke: #aaa; stroke-width: 1.41421;" x1="704" y1="476" x2="780" y2="552"></line><line style="stroke: #aaa; stroke-width: 1.41421;" x1="780" y1="476" x2="704" y2="552"></line><line style="stroke: #aaa; stroke-width: 1;" x1="20" y1="552" x2="96" y2="552"></line><line style="stroke: #aaa; stroke-width: 1;" x1="20" y1="552" x2="20" y2="628"></line><line style="stroke: #aaa; stroke-width: 1.41421;" x1="20" y1="552" x2="96" y2="628"></line><line style="stroke: #aaa; stroke-width: 1.41421;" x1="96" y1="552" x2="20" y2="628"></line><line style="stroke: #aaa; stroke-width: 1;" x1="96" y1="552" x2="172" y2="552"></line><line style="stroke: #aaa; stroke-width: 1;" x1="96" y1="552" x2="96" y2="628"></line><line style="stroke: #aaa; stroke-width: 1.41421;" x1="96" y1="552" x2="172" y2="628"></line><line style="stroke: #aaa; stroke-width: 1.41421;" x1="172" y1="552" x2="96" y2="628"></line><line style="stroke: #aaa; stroke-width: 1;" x1="172" y1="552" x2="248" y2="552"></line><line style="stroke: #aaa; stroke-width: 1;" x1="172" y1="552" x2="172" y2="628"></line><line style="stroke: #aaa; stroke-width: 1.41421;" x1="172" y1="552" x2="248" y2="628"></line><line style="stroke: #aaa; stroke-width: 1.41421;" x1="248" y1="552" x2="172" y2="628"></line><line style="stroke: #aaa; stroke-width: 1;" x1="248" y1="552" x2="324" y2="552"></line><line style="stroke: #aaa; stroke-width: 1;" x1="248" y1="552" x2="248" y2="628"></line><line style="stroke: #aaa; stroke-width: 1.41421;" x1="248" y1="552" x2="324" y2="628"></line><line style="stroke: #aaa; stroke-width: 1.41421;" x1="324" y1="552" x2="248" y2="628"></line><line style="stroke: #aaa; stroke-width: 1;" x1="324" y1="552" x2="400" y2="552"></line><line style="stroke: #aaa; stroke-width: 1;" x1="324" y1="552" x2="324" y2="628"></line><line style="stroke: #aaa; stroke-width: 1.41421;" x1="324" y1="552" x2="400" y2="628"></line><line style="stroke: #aaa; stroke-width: 1.41421;" x1="400" y1="552" x2="324" y2="628"></line><line style="stroke: #aaa; stroke-width: 1;" x1="400" y1="552" x2="476" y2="552"></line><line style="stroke: #aaa; stroke-width: 1;" x1="400" y1="552" x2="400" y2="628"></line><line style="stroke: #aaa; stroke-width: 1.41421;" x1="400" y1="552" x2="476" y2="628"></line><line style="stroke: #aaa; stroke-width: 1.41421;" x1="476" y1="552" x2="400" y2="628"></line><line style="stroke: #aaa; stroke-width: 1;" x1="476" y1="552" x2="552" y2="552"></line><line style="stroke: #aaa; stroke-width: 1;" x1="476" y1="552" x2="476" y2="628"></line><line style="stroke: #aaa; stroke-width: 1.41421;" x1="476" y1="552" x2="552" y2="628"></line><line style="stroke: #aaa; stroke-width: 1.41421;" x1="552" y1="552" x2="476" y2="628"></line><line style="stroke: #aaa; stroke-width: 1;" x1="552" y1="552" x2="628" y2="552"></line><line style="stroke: #aaa; stroke-width: 1;" x1="552" y1="552" x2="552" y2="628"></line><line style="stroke: #aaa; stroke-width: 1.41421;" x1="552" y1="552" x2="628" y2="628"></line><line style="stroke: #aaa; stroke-width: 1.41421;" x1="628" y1="552" x2="552" y2="628"></line><line style="stroke: #aaa; stroke-width: 1;" x1="628" y1="552" x2="704" y2="552"></line><line style="stroke: #aaa; stroke-width: 1;" x1="628" y1="552" x2="628" y2="628"></line><line style="stroke: #aaa; stroke-width: 1.41421;" x1="628" y1="552" x2="704" y2="628"></line><line style="stroke: #aaa; stroke-width: 1.41421;" x1="704" y1="552" x2="628" y2="628"></line><line style="stroke: #aaa; stroke-width: 1;" x1="704" y1="552" x2="780" y2="552"></line><line style="stroke: #aaa; stroke-width: 1;" x1="704" y1="552" x2="704" y2="628"></line><line style="stroke: #aaa; stroke-width: 1.41421;" x1="704" y1="552" x2="780" y2="628"></line><line style="stroke: #aaa; stroke-width: 1.41421;" x1="780" y1="552" x2="704" y2="628"></line><line style="stroke: #aaa; stroke-width: 1;" x1="20" y1="628" x2="96" y2="628"></line><line style="stroke: #aaa; stroke-width: 1;" x1="20" y1="628" x2="20" y2="704"></line><line style="stroke: #aaa; stroke-width: 1.41421;" x1="20" y1="628" x2="96" y2="704"></line><line style="stroke: #aaa; stroke-width: 1.41421;" x1="96" y1="628" x2="20" y2="704"></line><line style="stroke: #aaa; stroke-width: 1;" x1="96" y1="628" x2="172" y2="628"></line><line style="stroke: #aaa; stroke-width: 1;" x1="96" y1="628" x2="96" y2="704"></line><line style="stroke: #aaa; stroke-width: 1.41421;" x1="96" y1="628" x2="172" y2="704"></line><line style="stroke: #aaa; stroke-width: 1.41421;" x1="172" y1="628" x2="96" y2="704"></line><line style="stroke: #aaa; stroke-width: 1;" x1="172" y1="628" x2="248" y2="628"></line><line style="stroke: #aaa; stroke-width: 1;" x1="172" y1="628" x2="172" y2="704"></line><line style="stroke: #aaa; stroke-width: 1.41421;" x1="172" y1="628" x2="248" y2="704"></line><line style="stroke: #aaa; stroke-width: 1.41421;" x1="248" y1="628" x2="172" y2="704"></line><line style="stroke: #aaa; stroke-width: 1;" x1="248" y1="628" x2="324" y2="628"></line><line style="stroke: #aaa; stroke-width: 1;" x1="248" y1="628" x2="248" y2="704"></line><line style="stroke: #aaa; stroke-width: 1.41421;" x1="248" y1="628" x2="324" y2="704"></line><line style="stroke: #aaa; stroke-width: 1.41421;" x1="324" y1="628" x2="248" y2="704"></line><line style="stroke: #aaa; stroke-width: 1;" x1="324" y1="628" x2="400" y2="628"></line><line style="stroke: #aaa; stroke-width: 1;" x1="324" y1="628" x2="324" y2="704"></line><line style="stroke: #aaa; stroke-width: 1.41421;" x1="324" y1="628" x2="400" y2="704"></line><line style="stroke: #aaa; stroke-width: 1.41421;" x1="400" y1="628" x2="324" y2="704"></line><line style="stroke: #aaa; stroke-width: 1;" x1="400" y1="628" x2="476" y2="628"></line><line style="stroke: #aaa; stroke-width: 1;" x1="400" y1="628" x2="400" y2="704"></line><line style="stroke: #aaa; stroke-width: 1.41421;" x1="400" y1="628" x2="476" y2="704"></line><line style="stroke: #aaa; stroke-width: 1.41421;" x1="476" y1="628" x2="400" y2="704"></line><line style="stroke: #aaa; stroke-width: 1;" x1="476" y1="628" x2="552" y2="628"></line><line style="stroke: #aaa; stroke-width: 1;" x1="476" y1="628" x2="476" y2="704"></line><line style="stroke: #aaa; stroke-width: 1.41421;" x1="476" y1="628" x2="552" y2="704"></line><line style="stroke: #aaa; stroke-width: 1.41421;" x1="552" y1="628" x2="476" y2="704"></line><line style="stroke: #aaa; stroke-width: 1;" x1="552" y1="628" x2="628" y2="628"></line><line style="stroke: #aaa; stroke-width: 1;" x1="552" y1="628" x2="552" y2="704"></line><line style="stroke: #aaa; stroke-width: 1.41421;" x1="552" y1="628" x2="628" y2="704"></line><line style="stroke: #aaa; stroke-width: 1.41421;" x1="628" y1="628" x2="552" y2="704"></line><line style="stroke: #aaa; stroke-width: 1;" x1="628" y1="628" x2="704" y2="628"></line><line style="stroke: #aaa; stroke-width: 1;" x1="628" y1="628" x2="628" y2="704"></line><line style="stroke: #aaa; stroke-width: 1.41421;" x1="628" y1="628" x2="704" y2="704"></line><line style="stroke: #aaa; stroke-width: 1.41421;" x1="704" y1="628" x2="628" y2="704"></line><line style="stroke: #aaa; stroke-width: 1;" x1="704" y1="628" x2="780" y2="628"></line><line style="stroke: #aaa; stroke-width: 1;" x1="704" y1="628" x2="704" y2="704"></line><line style="stroke: #aaa; stroke-width: 1.41421;" x1="704" y1="628" x2="780" y2="704"></line><line style="stroke: #aaa; stroke-width: 1.41421;" x1="780" y1="628" x2="704" y2="704"></line><line style="stroke: #aaa; stroke-width: 1;" x1="20" y1="704" x2="96" y2="704"></line><line style="stroke: #aaa; stroke-width: 1;" x1="20" y1="704" x2="20" y2="780"></line><line style="stroke: #aaa; stroke-width: 1.41421;" x1="20" y1="704" x2="96" y2="780"></line><line style="stroke: #aaa; stroke-width: 1.41421;" x1="96" y1="704" x2="20" y2="780"></line><line style="stroke: #aaa; stroke-width: 1;" x1="96" y1="704" x2="172" y2="704"></line><line style="stroke: #aaa; stroke-width: 1;" x1="96" y1="704" x2="96" y2="780"></line><line style="stroke: #aaa; stroke-width: 1.41421;" x1="96" y1="704" x2="172" y2="780"></line><line style="stroke: #aaa; stroke-width: 1.41421;" x1="172" y1="704" x2="96" y2="780"></line><line style="stroke: #aaa; stroke-width: 1;" x1="172" y1="704" x2="248" y2="704"></line><line style="stroke: #aaa; stroke-width: 1;" x1="172" y1="704" x2="172" y2="780"></line><line style="stroke: #aaa; stroke-width: 1.41421;" x1="172" y1="704" x2="248" y2="780"></line><line style="stroke: #aaa; stroke-width: 1.41421;" x1="248" y1="704" x2="172" y2="780"></line><line style="stroke: #aaa; stroke-width: 1;" x1="248" y1="704" x2="324" y2="704"></line><line style="stroke: #aaa; stroke-width: 1;" x1="248" y1="704" x2="248" y2="780"></line><line style="stroke: #aaa; stroke-width: 1.41421;" x1="248" y1="704" x2="324" y2="780"></line><line style="stroke: #aaa; stroke-width: 1.41421;" x1="324" y1="704" x2="248" y2="780"></line><line style="stroke: #aaa; stroke-width: 1;" x1="324" y1="704" x2="400" y2="704"></line><line style="stroke: #aaa; stroke-width: 1;" x1="324" y1="704" x2="324" y2="780"></line><line style="stroke: #aaa; stroke-width: 1.41421;" x1="324" y1="704" x2="400" y2="780"></line><line style="stroke: #aaa; stroke-width: 1.41421;" x1="400" y1="704" x2="324" y2="780"></line><line style="stroke: #aaa; stroke-width: 1;" x1="400" y1="704" x2="476" y2="704"></line><line style="stroke: #aaa; stroke-width: 1;" x1="400" y1="704" x2="400" y2="780"></line><line style="stroke: #aaa; stroke-width: 1.41421;" x1="400" y1="704" x2="476" y2="780"></line><line style="stroke: #aaa; stroke-width: 1.41421;" x1="476" y1="704" x2="400" y2="780"></line><line style="stroke: #aaa; stroke-width: 1;" x1="476" y1="704" x2="552" y2="704"></line><line style="stroke: #aaa; stroke-width: 1;" x1="476" y1="704" x2="476" y2="780"></line><line style="stroke: #aaa; stroke-width: 1.41421;" x1="476" y1="704" x2="552" y2="780"></line><line style="stroke: #aaa; stroke-width: 1.41421;" x1="552" y1="704" x2="476" y2="780"></line><line style="stroke: #aaa; stroke-width: 1;" x1="552" y1="704" x2="628" y2="704"></line><line style="stroke: #aaa; stroke-width: 1;" x1="552" y1="704" x2="552" y2="780"></line><line style="stroke: #aaa; stroke-width: 1.41421;" x1="552" y1="704" x2="628" y2="780"></line><line style="stroke: #aaa; stroke-width: 1.41421;" x1="628" y1="704" x2="552" y2="780"></line><line style="stroke: #aaa; stroke-width: 1;" x1="628" y1="704" x2="704" y2="704"></line><line style="stroke: #aaa; stroke-width: 1;" x1="628" y1="704" x2="628" y2="780"></line><line style="stroke: #aaa; stroke-width: 1.41421;" x1="628" y1="704" x2="704" y2="780"></line><line style="stroke: #aaa; stroke-width: 1.41421;" x1="704" y1="704" x2="628" y2="780"></line><line style="stroke: #aaa; stroke-width: 1;" x1="704" y1="704" x2="780" y2="704"></line><line style="stroke: #aaa; stroke-width: 1;" x1="704" y1="704" x2="704" y2="780"></line><line style="stroke: #aaa; stroke-width: 1.41421;" x1="704" y1="704" x2="780" y2="780"></line><line style="stroke: #aaa; stroke-width: 1.41421;" x1="780" y1="704" x2="704" y2="780"></line><line style="stroke: #aaa; stroke-width: 1;" x1="780" y1="20" x2="780" y2="96"></line><line style="stroke: #aaa; stroke-width: 1;" x1="780" y1="96" x2="780" y2="172"></line><line style="stroke: #aaa; stroke-width: 1;" x1="780" y1="172" x2="780" y2="248"></line><line style="stroke: #aaa; stroke-width: 1;" x1="780" y1="248" x2="780" y2="324"></line><line style="stroke: #aaa; stroke-width: 1;" x1="780" y1="324" x2="780" y2="400"></line><line style="stroke: #aaa; stroke-width: 1;" x1="780" y1="400" x2="780" y2="476"></line><line style="stroke: #aaa; stroke-width: 1;" x1="780" y1="476" x2="780" y2="552"></line><line style="stroke: #aaa; stroke-width: 1;" x1="780" y1="552" x2="780" y2="628"></line><line style="stroke: #aaa; stroke-width: 1;" x1="780" y1="628" x2="780" y2="704"></line><line style="stroke: #aaa; stroke-width: 1;" x1="780" y1="704" x2="780" y2="780"></line><line style="stroke: #aaa; stroke-width: 1;" x1="20" y1="780" x2="96" y2="780"></line><line style="stroke: #aaa; stroke-width: 1;" x1="96" y1="780" x2="172" y2="780"></line><line style="stroke: #aaa; stroke-width: 1;" x1="172" y1="780" x2="248" y2="780"></line><line style="stroke: #aaa; stroke-width: 1;" x1="248" y1="780" x2="324" y2="780"></line><line style="stroke: #aaa; stroke-width: 1;" x1="324" y1="780" x2="400" y2="780"></line><line style="stroke: #aaa; stroke-width: 1;" x1="400" y1="780" x2="476" y2="780"></line><line style="stroke: #aaa; stroke-width: 1;" x1="476" y1="780" x2="552" y2="780"></line><line style="stroke: #aaa; stroke-width: 1;" x1="552" y1="780" x2="628" y2="780"></line><line style="stroke: #aaa; stroke-width: 1;" x1="628" y1="780" x2="704" y2="780"></line><line style="stroke: #aaa; stroke-width: 1;" x1="704" y1="780" x2="780" y2="780"></line><circle r="10" cx="20" cy="20" style="stroke: #000; fill: #69b3a2;"></circle><circle r="10" cx="96" cy="20" style="stroke: #000; fill: #69b3a2;"></circle><circle r="10" cx="172" cy="20" style="stroke: #000; fill: #69b3a2;"></circle><circle r="10" cx="248" cy="20" style="stroke: #000; fill: #69b3a2;"></circle><circle r="10" cx="324" cy="20" style="stroke: #000; fill: #69b3a2;"></circle><circle r="10" cx="400" cy="20" style="stroke: #000; fill: #69b3a2;"></circle><circle r="10" cx="476" cy="20" style="stroke: #000; fill: #69b3a2;"></circle><circle r="10" cx="552" cy="20" style="stroke: #000; fill: #69b3a2;"></circle><circle r="10" cx="628" cy="20" style="stroke: #000; fill: #69b3a2;"></circle><circle r="10" cx="704" cy="20" style="stroke: #000; fill: #69b3a2;"></circle><circle r="10" cx="780" cy="20" style="stroke: #000; fill: #69b3a2;"></circle><circle r="10" cx="20" cy="96" style="stroke: #000; fill: #69b3a2;"></circle><circle r="10" cx="96" cy="96" style="stroke: #000; fill: #69b3a2;"></circle><circle r="10" cx="172" cy="96" style="stroke: #000; fill: #69b3a2;"></circle><circle r="10" cx="248" cy="96" style="stroke: #000; fill: #69b3a2;"></circle><circle r="10" cx="324" cy="96" style="stroke: #000; fill: #69b3a2;"></circle><circle r="10" cx="400" cy="96" style="stroke: #000; fill: #69b3a2;"></circle><circle r="10" cx="476" cy="96" style="stroke: #000; fill: #69b3a2;"></circle><circle r="10" cx="552" cy="96" style="stroke: #000; fill: #69b3a2;"></circle><circle r="10" cx="628" cy="96" style="stroke: #000; fill: #69b3a2;"></circle><circle r="10" cx="704" cy="96" style="stroke: #000; fill: #69b3a2;"></circle><circle r="10" cx="780" cy="96" style="stroke: #000; fill: #69b3a2;"></circle><circle r="10" cx="20" cy="172" style="stroke: #000; fill: #69b3a2;"></circle><circle r="10" cx="96" cy="172" style="stroke: #000; fill: #69b3a2;"></circle><circle r="10" cx="172" cy="172" style="stroke: #000; fill: #69b3a2;"></circle><circle r="10" cx="248" cy="172" style="stroke: #000; fill: #69b3a2;"></circle><circle r="10" cx="324" cy="172" style="stroke: #000; fill: #69b3a2;"></circle><circle r="10" cx="400" cy="172" style="stroke: #000; fill: #69b3a2;"></circle><circle r="10" cx="476" cy="172" style="stroke: #000; fill: #69b3a2;"></circle><circle r="10" cx="552" cy="172" style="stroke: #000; fill: #69b3a2;"></circle><circle r="10" cx="628" cy="172" style="stroke: #000; fill: #69b3a2;"></circle><circle r="10" cx="704" cy="172" style="stroke: #000; fill: #69b3a2;"></circle><circle r="10" cx="780" cy="172" style="stroke: #000; fill: #69b3a2;"></circle><circle r="10" cx="20" cy="248" style="stroke: #000; fill: #69b3a2;"></circle><circle r="10" cx="96" cy="248" style="stroke: #000; fill: #69b3a2;"></circle><circle r="10" cx="172" cy="248" style="stroke: #000; fill: #69b3a2;"></circle><circle r="10" cx="248" cy="248" style="stroke: #000; fill: #69b3a2;"></circle><circle r="10" cx="324" cy="248" style="stroke: #000; fill: #69b3a2;"></circle><circle r="10" cx="400" cy="248" style="stroke: #000; fill: #69b3a2;"></circle><circle r="10" cx="476" cy="248" style="stroke: #000; fill: #69b3a2;"></circle><circle r="10" cx="552" cy="248" style="stroke: #000; fill: #69b3a2;"></circle><circle r="10" cx="628" cy="248" style="stroke: #000; fill: #69b3a2;"></circle><circle r="10" cx="704" cy="248" style="stroke: #000; fill: #69b3a2;"></circle><circle r="10" cx="780" cy="248" style="stroke: #000; fill: #69b3a2;"></circle><circle r="10" cx="20" cy="324" style="stroke: #000; fill: #69b3a2;"></circle><circle r="10" cx="96" cy="324" style="stroke: #000; fill: #69b3a2;"></circle><circle r="10" cx="172" cy="324" style="stroke: #000; fill: #69b3a2;"></circle><circle r="10" cx="248" cy="324" style="stroke: #000; fill: #69b3a2;"></circle><circle r="10" cx="324" cy="324" style="stroke: #000; fill: #69b3a2;"></circle><circle r="10" cx="400" cy="324" style="stroke: #000; fill: #69b3a2;"></circle><circle r="10" cx="476" cy="324" style="stroke: #000; fill: #69b3a2;"></circle><circle r="10" cx="552" cy="324" style="stroke: #000; fill: #69b3a2;"></circle><circle r="10" cx="628" cy="324" style="stroke: #000; fill: #69b3a2;"></circle><circle r="10" cx="704" cy="324" style="stroke: #000; fill: #69b3a2;"></circle><circle r="10" cx="780" cy="324" style="stroke: #000; fill: #69b3a2;"></circle><circle r="10" cx="20" cy="400" style="stroke: #000; fill: #69b3a2;"></circle><circle r="10" cx="96" cy="400" style="stroke: #000; fill: #69b3a2;"></circle><circle r="10" cx="172" cy="400" style="stroke: #000; fill: #69b3a2;"></circle><circle r="10" cx="248" cy="400" style="stroke: #000; fill: #69b3a2;"></circle><circle r="10" cx="324" cy="400" style="stroke: #000; fill: #69b3a2;"></circle><circle r="10" cx="400" cy="400" style="stroke: #000; fill: #69b3a2;"></circle><circle r="10" cx="476" cy="400" style="stroke: #000; fill: #69b3a2;"></circle><circle r="10" cx="552" cy="400" style="stroke: #000; fill: #69b3a2;"></circle><circle r="10" cx="628" cy="400" style="stroke: #000; fill: #69b3a2;"></circle><circle r="10" cx="704" cy="400" style="stroke: #000; fill: #69b3a2;"></circle><circle r="10" cx="780" cy="400" style="stroke: #000; fill: #69b3a2;"></circle><circle r="10" cx="20" cy="476" style="stroke: #000; fill: #69b3a2;"></circle><circle r="10" cx="96" cy="476" style="stroke: #000; fill: #69b3a2;"></circle><circle r="10" cx="172" cy="476" style="stroke: #000; fill: #69b3a2;"></circle><circle r="10" cx="248" cy="476" style="stroke: #000; fill: #69b3a2;"></circle><circle r="10" cx="324" cy="476" style="stroke: #000; fill: #69b3a2;"></circle><circle r="10" cx="400" cy="476" style="stroke: #000; fill: #69b3a2;"></circle><circle r="10" cx="476" cy="476" style="stroke: #000; fill: #69b3a2;"></circle><circle r="10" cx="552" cy="476" style="stroke: #000; fill: #69b3a2;"></circle><circle r="10" cx="628" cy="476" style="stroke: #000; fill: #69b3a2;"></circle><circle r="10" cx="704" cy="476" style="stroke: #000; fill: #69b3a2;"></circle><circle r="10" cx="780" cy="476" style="stroke: #000; fill: #69b3a2;"></circle><circle r="10" cx="20" cy="552" style="stroke: #000; fill: #69b3a2;"></circle><circle r="10" cx="96" cy="552" style="stroke: #000; fill: #69b3a2;"></circle><circle r="10" cx="172" cy="552" style="stroke: #000; fill: #69b3a2;"></circle><circle r="10" cx="248" cy="552" style="stroke: #000; fill: #69b3a2;"></circle><circle r="10" cx="324" cy="552" style="stroke: #000; fill: #69b3a2;"></circle><circle r="10" cx="400" cy="552" style="stroke: #000; fill: #69b3a2;"></circle><circle r="10" cx="476" cy="552" style="stroke: #000; fill: #69b3a2;"></circle><circle r="10" cx="552" cy="552" style="stroke: #000; fill: #69b3a2;"></circle><circle r="10" cx="628" cy="552" style="stroke: #000; fill: #69b3a2;"></circle><circle r="10" cx="704" cy="552" style="stroke: #000; fill: #69b3a2;"></circle><circle r="10" cx="780" cy="552" style="stroke: #000; fill: #69b3a2;"></circle><circle r="10" cx="20" cy="628" style="stroke: #000; fill: #69b3a2;"></circle><circle r="10" cx="96" cy="628" style="stroke: #000; fill: #69b3a2;"></circle><circle r="10" cx="172" cy="628" style="stroke: #000; fill: #69b3a2;"></circle><circle r="10" cx="248" cy="628" style="stroke: #000; fill: #69b3a2;"></circle><circle r="10" cx="324" cy="628" style="stroke: #000; fill: #69b3a2;"></circle><circle r="10" cx="400" cy="628" style="stroke: #000; fill: #69b3a2;"></circle><circle r="10" cx="476" cy="628" style="stroke: #000; fill: #69b3a2;"></circle><circle r="10" cx="552" cy="628" style="stroke: #000; fill: #69b3a2;"></circle><circle r="10" cx="628" cy="628" style="stroke: #000; fill: #69b3a2;"></circle><circle r="10" cx="704" cy="628" style="stroke: #000; fill: #69b3a2;"></circle><circle r="10" cx="780" cy="628" style="stroke: #000; fill: #69b3a2;"></circle><circle r="10" cx="20" cy="704" style="stroke: #000; fill: #69b3a2;"></circle><circle r="10" cx="96" cy="704" style="stroke: #000; fill: #69b3a2;"></circle><circle r="10" cx="172" cy="704" style="stroke: #000; fill: #69b3a2;"></circle><circle r="10" cx="248" cy="704" style="stroke: #000; fill: #69b3a2;"></circle><circle r="10" cx="324" cy="704" style="stroke: #000; fill: #69b3a2;"></circle><circle r="10" cx="400" cy="704" style="stroke: #000; fill: #69b3a2;"></circle><circle r="10" cx="476" cy="704" style="stroke: #000; fill: #69b3a2;"></circle><circle r="10" cx="552" cy="704" style="stroke: #000; fill: #69b3a2;"></circle><circle r="10" cx="628" cy="704" style="stroke: #000; fill: #69b3a2;"></circle><circle r="10" cx="704" cy="704" style="stroke: #000; fill: #69b3a2;"></circle><circle r="10" cx="780" cy="704" style="stroke: #000; fill: #69b3a2;"></circle><circle r="10" cx="20" cy="780" style="stroke: #000; fill: #69b3a2;"></circle><circle r="10" cx="96" cy="780" style="stroke: #000; fill: #69b3a2;"></circle><circle r="10" cx="172" cy="780" style="stroke: #000; fill: #69b3a2;"></circle><circle r="10" cx="248" cy="780" style="stroke: #000; fill: #69b3a2;"></circle><circle r="10" cx="324" cy="780" style="stroke: #000; fill: #69b3a2;"></circle><circle r="10" cx="400" cy="780" style="stroke: #000; fill: #69b3a2;"></circle><circle r="10" cx="476" cy="780" style="stroke: #000; fill: #69b3a2;"></circle><circle r="10" cx="552" cy="780" style="stroke: #000; fill: #69b3a2;"></circle><circle r="10" cx="628" cy="780" style="stroke: #000; fill: #69b3a2;"></circle><circle r="10" cx="704" cy="780" style="stroke: #000; fill: #69b3a2;"></circle><circle r="10" cx="780" cy="780" style="stroke: #000; fill: #69b3a2;"></circle></svg>