<svg width="800" height="800" xmlns="http://www.w3.org/2000/svg"><line style="stroke: #aaa; stroke-width: 1;" x1="131.29946666666666" y1="131.29946666666666" x2="149.02425" y2="114.67351666666667"></line><line style="stroke: #aaa; stroke-width: 1;" x1="131.29946666666666" y1="131.29946666666666" x2="114.67351666666667" y2="149.02425"></line><line style="stroke: #aaa; stroke-width: 1.41421;" x1="131.29946666666666" y1="131.29946666666666" x2="150.40491666666668" y2="150.40491666666668"></line><line style="stroke: #aaa; stroke-width: 1.41421;" x1="149.02425" y1="114.67351666666667" x2="114.67351666666667" y2="149.02425"></line><line style="stroke: #aaa; stroke-width: 1;" x1="149.02425" y1="114.67351666666667" x2="176.72625" y2="92.51223333333334"></line><line style="stroke: #aaa; stroke-width: 1;" x1="149.02425" y1="114.67351666666667" x2="150.40491666666668" y2="150.40491666666668"></line><line style="stroke: #aaa; stroke-width: 1.41421;" x1="149.02425" y1="114.67351666666667" x2="190.79575" y2="137.65591666666668"></line><line style="stroke: #aaa; stroke-width: 1.41421;" x1="176.72625" y1="92.51223333333334" x2="150.40491666666668" y2="150.40491666666668"></line><line style="stroke: #aaa; stroke-width: 1;" x1="176.72625" y1="92.51223333333334" x2="218.11360166666665" y2="66.35746666666667"></line><line style="stroke: #aaa; stroke-width: 1;" x1="176.72625" y1="92.51223333333334" x2="190.79575" y2="137.65591666666668"></line><line style="stroke: #aaa; stroke-width: 1.41421;" x1="176.72625" y1="92.51223333333334" x2="236.02404666666664" y2="120.60721666666667"></line><line style="stroke: #aaa; stroke-width: 1.41421;" x1="218.11360166666665" y1="66.35746666666667" x2="190.79575" y2="137.65591666666668"></line><line style="stroke: #aaa; stroke-width: 1;" x1="218.11360166666665" y1="66.35746666666667" x2="271.2167333333333" y2="42.48808333333332"></line><line style="stroke: #aaa; stroke-width: 1;" x1="218.11360166666665" y1="66.35746666666667" x2="236.02404666666664" y2="120.60721666666667"></line><line style="stroke: #aaa; stroke-width: 1.41421;" x1="218.11360166666665" y1="66.35746666666667" x2="286.7425833333333" y2="104.71181666666668"></line><line style="stroke: #aaa; stroke-width: 1.41421;" x1="271.2167333333333" y1="42.48808333333332" x2="236.02404666666664" y2="120.60721666666667"></line><line style="stroke: #aaa; stroke-width: 1;" x1="271.2167333333333" y1="42.48808333333332" x2="333.1868166666667" y2="25.919766666666664"></line><line style="stroke: #aaa; stroke-width: 1;" x1="271.2167333333333" y1="42.48808333333332" x2="286.7425833333333" y2="104.71181666666668"></line><line style="stroke: #aaa; stroke-width: 1.41421;" x1="271.2167333333333" y1="42.48808333333332" x2="342.07375" y2="93.61233333333334"></line><line style="stroke: #aaa; stroke-width: 1.41421;" x1="333.1868166666667" y1="25.919766666666664" x2="286.7425833333333" y2="104.71181666666668"></line><line style="stroke: #aaa; stroke-width: 1;" x1="333.1868166666667" y1="25.919766666666664" x2="400" y2="20"></line><line style="stroke: #aaa; stroke-width: 1;" x1="333.1868166666667" y1="25.919766666666664" x2="342.07375" y2="93.61233333333334"></line><line style="stroke: #aaa; stroke-width: 1.41421;" x1="333.1868166666667" y1="25.919766666666664" x2="400" y2="89.64291666666668"></line><line style="stroke: #aaa; stroke-width: 1.41421;" x1="400" y1="20" x2="342.07375" y2="93.61233333333334"></line><line style="stroke: #aaa; stroke-width: 1;" x1="400" y1="20" x2="466.8131833333333" y2="25.919766666666664"></line><line style="stroke: #aaa; stroke-width: 1;" x1="400" y1="20" x2="400" y2="89.64291666666668"></line><line style="stroke: #aaa; stroke-width: 1.41421;" x1="400" y1="20" x2="457.92625" y2="93.61233333333334"></line><line style="stroke: #aaa; stroke-width: 1.41421;" x1="466.8131833333333" y1="25.919766666666664" x2="400" y2="89.64291666666668"></line><line style="stroke: #aaa; stroke-width: 1;" x1="466.8131833333333" y1="25.919766666666664" x2="528.7819999999999" y2="42.48808333333332"></line><line style="stroke: #aaa; stroke-width: 1;" x1="466.8131833333333" y1="25.919766666666664" x2="457.92625" y2="93.61233333333334"></line><line style="stroke: #aaa; stroke-width: 1.41421;" x1="466.8131833333333" y1="25.919766666666664" x2="513.2574166666667" y2="104.71181666666668"></line><line style="stroke: #aaa; stroke-width: 1.41421;" x1="528.7819999999999" y1="42.48808333333332" x2="457.92625" y2="93.61233333333334"></line><line style="stroke: #aaa; stroke-width: 1;" x1="528.7819999999999" y1="42.48808333333332" x2="581.887" y2="66.35746666666667"></line><line style="stroke: #aaa; stroke-width: 1;" x1="528.7819999999999" y1="42.48808333333332" x2="513.2574166666667" y2="104.71181666666668"></line><line style="stroke: #aaa; stroke-width: 1.41421;" x1="528.7819999999999" y1="42.48808333333332" x2="563.9763333333334" y2="120.60721666666667"></line><line style="stroke: #aaa; stroke-width: 1.41421;" x1="581.887" y1="66.35746666666667" x2="513.2574166666667" y2="104.71181666666668"></line><line style="stroke: #aaa; stroke-width: 1;" x1="581.887" y1="66.35746666666667" x2="623.2753333333334" y2="92.51223333333334"></line><line style="stroke: #aaa; stroke-width: 1;" x1="581.887" y1="66.35746666666667" x2="563.9763333333334" y2="120.60721666666667"></line><line style="stroke: #aaa; stroke-width: 1.41421;" x1="581.887" y1="66.35746666666667" x2="609.2058333333334" y2="137.65591666666668"></line><line style="stroke: #aaa; stroke-width: 1.41421;" x1="623.2753333333334" y1="92.51223333333334" x2="563.9763333333334" y2="120.60721666666667"></line><line style="stroke: #aaa; stroke-width: 1;" x1="623.2753333333334" y1="92.51223333333334" x2="650.9773333333334" y2="114.67351666666667"></line><line style="stroke: #aaa; stroke-width: 1;" x1="623.2753333333334" y1="92.51223333333334" x2="609.2058333333334" y2="137.65591666666668"></line><line style="stroke: #aaa; stroke-width: 1.41421;" x1="623.2753333333334" y1="92.51223333333334" x2="649.5935000000001" y2="150.40491666666668"></line><line style="stroke: #aaa; stroke-width: 1.41421;" x1="650.9773333333334" y1="114.67351666666667" x2="609.2058333333334" y2="137.65591666666668"></line><line style="stroke: #aaa; stroke-width: 1;" x1="650.9773333333334" y1="114.67351666666667" x2="668.7011666666667" y2="131.29946666666666"></line><line style="stroke: #aaa; stroke-width: 1;" x1="650.9773333333334" y1="114.67351666666667" x2="649.5935000000001" y2="150.40491666666668"></line><line style="stroke: #aaa; stroke-width: 1.41421;" x1="650.9773333333334" y1="114.67351666666667" x2="685.3261666666666" y2="149.02425"></line><line style="stroke: #aaa; stroke-width: 1.41421;" x1="668.7011666666667" y1="131.29946666666666" x2="649.5935000000001" y2="150.40491666666668"></line><line style="stroke: #aaa; stroke-width: 1;" x1="114.67351666666667" y1="149.02425" x2="150.40491666666668" y2="150.40491666666668"></line><line style="stroke: #aaa; stroke-width: 1;" x1="114.67351666666667" y1="149.02425" x2="92.51223333333334" y2="176.72625"></line><line style="stroke: #aaa; stroke-width: 1.41421;" x1="114.67351666666667" y1="149.02425" x2="137.65591666666668" y2="190.79575"></line><line style="stroke: #aaa; stroke-width: 1.41421;" x1="150.40491666666668" y1="150.40491666666668" x2="92.51223333333334" y2="176.72625"></line><line style="stroke: #aaa; stroke-width: 1;" x1="150.40491666666668" y1="150.40491666666668" x2="190.79575" y2="137.65591666666668"></line><line style="stroke: #aaa; stroke-width: 1;" x1="150.40491666666668" y1="150.40491666666668" x2="137.65591666666668" y2="190.79575"></line><line style="stroke: #aaa; stroke-width: 1.41421;" x1="150.40491666666668" y1="150.40491666666668" x2="187.60792999999998" y2="187.60792999999998"></line><line style="stroke: #aaa; stroke-width: 1.41421;" x1="190.79575" y1="137.65591666666668" x2="137.65591666666668" y2="190.79575"></line><line style="stroke: #aaa; stroke-width: 1;" x1="190.79575" y1="137.65591666666668" x2="236.02404666666664" y2="120.60721666666667"></line><line style="stroke: #aaa; stroke-width: 1;" x1="190.79575" y1="137.65591666666668" x2="187.60792999999998" y2="187.60792999999998"></line><line style="stroke: #aaa; stroke-width: 1.41421;" x1="190.79575" y1="137.65591666666668" x2="239.06027833333332" y2="177.95903333333334"></line><line style="stroke: #aaa; stroke-width: 1.41421;" x1="236.02404666666664" y1="120.60721666666667" x2="187.60792999999998" y2="187.60792999999998"></line><line style="stroke: #aaa; stroke-width: 1;" x1="236.02404666666664" y1="120.60721666666667" x2="286.7425833333333" y2="104.71181666666668"></line><line style="stroke: #aaa; stroke-width: 1;" x1="236.02404666666664" y1="120.60721666666667" x2="239.06027833333332" y2="177.95903333333334"></line><line style="stroke: #aaa; stroke-width: 1.41421;" x1="236.02404666666664" y1="120.60721666666667" x2="291.68195000000003" y2="167.61226666666667"></line><line style="stroke: #aaa; stroke-width: 1.41421;" x1="286.7425833333333" y1="104.71181666666668" x2="239.06027833333332" y2="177.95903333333334"></line><line style="stroke: #aaa; stroke-width: 1;" x1="286.7425833333333" y1="104.71181666666668" x2="342.07375" y2="93.61233333333334"></line><line style="stroke: #aaa; stroke-width: 1;" x1="286.7425833333333" y1="104.71181666666668" x2="291.68195000000003" y2="167.61226666666667"></line><line style="stroke: #aaa; stroke-width: 1.41421;" x1="286.7425833333333" y1="104.71181666666668" x2="345.46841666666666" y2="160.12120000000002"></line><line style="stroke: #aaa; stroke-width: 1.41421;" x1="342.07375" y1="93.61233333333334" x2="291.68195000000003" y2="167.61226666666667"></line><line style="stroke: #aaa; stroke-width: 1;" x1="342.07375" y1="93.61233333333334" x2="400" y2="89.64291666666668"></line><line style="stroke: #aaa; stroke-width: 1;" x1="342.07375" y1="93.61233333333334" x2="345.46841666666666" y2="160.12120000000002"></line><line style="stroke: #aaa; stroke-width: 1.41421;" x1="342.07375" y1="93.61233333333334" x2="400" y2="157.4168666666667"></line><line style="stroke: #aaa; stroke-width: 1.41421;" x1="400" y1="89.64291666666668" x2="345.46841666666666" y2="160.12120000000002"></line><line style="stroke: #aaa; stroke-width: 1;" x1="400" y1="89.64291666666668" x2="457.92625" y2="93.61233333333334"></line><line style="stroke: #aaa; stroke-width: 1;" x1="400" y1="89.64291666666668" x2="400" y2="157.4168666666667"></line><line style="stroke: #aaa; stroke-width: 1.41421;" x1="400" y1="89.64291666666668" x2="454.5315833333333" y2="160.12120000000002"></line><line style="stroke: #aaa; stroke-width: 1.41421;" x1="457.92625" y1="93.61233333333334" x2="400" y2="157.4168666666667"></line><line style="stroke: #aaa; stroke-width: 1;" x1="457.92625" y1="93.61233333333334" x2="513.2574166666667" y2="104.71181666666668"></line><line style="stroke: #aaa; stroke-width: 1;" x1="457.92625" y1="93.61233333333334" x2="454.5315833333333" y2="160.12120000000002"></line><line style="stroke: #aaa; stroke-width: 1.41421;" x1="457.92625" y1="93.61233333333334" x2="508.31804999999997" y2="167.61226666666667"></line><line style="stroke: #aaa; stroke-width: 1.41421;" x1="513.2574166666667" y1="104.71181666666668" x2="454.5315833333333" y2="160.12120000000002"></line><line style="stroke: #aaa; stroke-width: 1;" x1="513.2574166666667" y1="104.71181666666668" x2="563.9763333333334" y2="120.60721666666667"></line><line style="stroke: #aaa; stroke-width: 1;" x1="513.2574166666667" y1="104.71181666666668" x2="508.31804999999997" y2="167.61226666666667"></line><line style="stroke: #aaa; stroke-width: 1.41421;" x1="513.2574166666667" y1="104.71181666666668" x2="560.9395000000001" y2="177.95903333333334"></line><line style="stroke: #aaa; stroke-width: 1.41421;" x1="563.9763333333334" y1="120.60721666666667" x2="508.31804999999997" y2="167.61226666666667"></line><line style="stroke: #aaa; stroke-width: 1;" x1="563.9763333333334" y1="120.60721666666667" x2="609.2058333333334" y2="137.65591666666668"></line><line style="stroke: #aaa; stroke-width: 1;" x1="563.9763333333334" y1="120.60721666666667" x2="560.9395000000001" y2="177.95903333333334"></line><line style="stroke: #aaa; stroke-width: 1.41421;" x1="563.9763333333334" y1="120.60721666666667" x2="612.3915000000001" y2="187.60792999999998"></line><line style="stroke: #aaa; stroke-width: 1.41421;" x1="609.2058333333334" y1="137.65591666666668" x2="560.9395000000001" y2="177.95903333333334"></line><line style="stroke: #aaa; stroke-width: 1;" x1="609.2058333333334" y1="137.65591666666668" x2="649.5935000000001" y2="150.40491666666668"></line><line style="stroke: #aaa; stroke-width: 1;" x1="609.2058333333334" y1="137.65591666666668" x2="612.3915000000001" y2="187.60792999999998"></line><line style="stroke: #aaa; stroke-width: 1.41421;" x1="609.2058333333334" y1="137.65591666666668" x2="662.3456666666666" y2="190.79575"></line><line style="stroke: #aaa; stroke-width: 1.41421;" x1="649.5935000000001" y1="150.40491666666668" x2="612.3915000000001" y2="187.60792999999998"></line><line style="stroke: #aaa; stroke-width: 1;" x1="649.5935000000001" y1="150.40491666666668" x2="685.3261666666666" y2="149.02425"></line><line style="stroke: #aaa; stroke-width: 1;" x1="649.5935000000001" y1="150.40491666666668" x2="662.3456666666666" y2="190.79575"></line><line style="stroke: #aaa; stroke-width: 1.41421;" x1="649.5935000000001" y1="150.40491666666668" x2="707.4865" y2="176.72625"></line><line style="stroke: #aaa; stroke-width: 1.41421;" x1="685.3261666666666" y1="149.02425" x2="662.3456666666666" y2="190.79575"></line><line style="stroke: #aaa; stroke-width: 1;" x1="92.51223333333334" y1="176.72625" x2="137.65591666666668" y2="190.79575"></line><line style="stroke: #aaa; stroke-width: 1;" x1="92.51223333333334" y1="176.72625" x2="66.35746666666667" y2="218.11360166666665"></line><line style="stroke: #aaa; stroke-width: 1.41421;" x1="92.51223333333334" y1="176.72625" x2="120.60721666666667" y2="236.02404666666664"></line><line style="stroke: #aaa; stroke-width: 1.41421;" x1="137.65591666666668" y1="190.79575" x2="66.35746666666667" y2="218.11360166666665"></line><line style="stroke: #aaa; stroke-width: 1;" x1="137.65591666666668" y1="190.79575" x2="187.60792999999998" y2="187.60792999999998"></line><line style="stroke: #aaa; stroke-width: 1;" x1="137.65591666666668" y1="190.79575" x2="120.60721666666667" y2="236.02404666666664"></line><line style="stroke: #aaa; stroke-width: 1.41421;" x1="137.65591666666668" y1="190.79575" x2="177.95903333333334" y2="239.06027833333332"></line><line style="stroke: #aaa; stroke-width: 1.41421;" x1="187.60792999999998" y1="187.60792999999998" x2="120.60721666666667" y2="236.02404666666664"></line><line style="stroke: #aaa; stroke-width: 1;" x1="187.60792999999998" y1="187.60792999999998" x2="239.06027833333332" y2="177.95903333333334"></line><line style="stroke: #aaa; stroke-width: 1;" x1="187.60792999999998" y1="187.60792999999998" x2="177.95903333333334" y2="239.06027833333332"></line><line style="stroke: #aaa; stroke-width: 1.41421;" x1="187.60792999999998" y1="187.60792999999998" x2="234.81422166666667" y2="234.81422166666667"></line><line style="stroke: #aaa; stroke-width: 1.41421;" x1="239.06027833333332" y1="177.95903333333334" x2="177.95903333333334" y2="239.06027833333332"></line><line style="stroke: #aaa; stroke-width: 1;" x1="239.06027833333332" y1="177.95903333333334" x2="291.68195000000003" y2="167.61226666666667"></line><line style="stroke: #aaa; stroke-width: 1;" x1="239.06027833333332" y1="177.95903333333334" x2="234.81422166666667" y2="234.81422166666667"></line><line style="stroke: #aaa; stroke-width: 1.41421;" x1="239.06027833333332" y1="177.95903333333334" x2="290.60813333333334" y2="228.7283316666667"></line><line style="stroke: #aaa; stroke-width: 1.41421;" x1="291.68195000000003" y1="167.61226666666667" x2="234.81422166666667" y2="234.81422166666667"></line><line style="stroke: #aaa; stroke-width: 1;" x1="291.68195000000003" y1="167.61226666666667" x2="345.46841666666666" y2="160.12120000000002"></line><line style="stroke: #aaa; stroke-width: 1;" x1="291.68195000000003" y1="167.61226666666667" x2="290.60813333333334" y2="228.7283316666667"></line><line style="stroke: #aaa; stroke-width: 1.41421;" x1="291.68195000000003" y1="167.61226666666667" x2="345.52858333333336" y2="223.96537999999998"></line><line style="stroke: #aaa; stroke-width: 1.41421;" x1="345.46841666666666" y1="160.12120000000002" x2="290.60813333333334" y2="228.7283316666667"></line><line style="stroke: #aaa; stroke-width: 1;" x1="345.46841666666666" y1="160.12120000000002" x2="400" y2="157.4168666666667"></line><line style="stroke: #aaa; stroke-width: 1;" x1="345.46841666666666" y1="160.12120000000002" x2="345.52858333333336" y2="223.96537999999998"></line><line style="stroke: #aaa; stroke-width: 1.41421;" x1="345.46841666666666" y1="160.12120000000002" x2="400" y2="222.20446000000004"></line><line style="stroke: #aaa; stroke-width: 1.41421;" x1="400" y1="157.4168666666667" x2="345.52858333333336" y2="223.96537999999998"></line><line style="stroke: #aaa; stroke-width: 1;" x1="400" y1="157.4168666666667" x2="454.5315833333333" y2="160.12120000000002"></line><line style="stroke: #aaa; stroke-width: 1;" x1="400" y1="157.4168666666667" x2="400" y2="222.20446000000004"></line><line style="stroke: #aaa; stroke-width: 1.41421;" x1="400" y1="157.4168666666667" x2="454.4714166666667" y2="223.96537999999998"></line><line style="stroke: #aaa; stroke-width: 1.41421;" x1="454.5315833333333" y1="160.12120000000002" x2="400" y2="222.20446000000004"></line><line style="stroke: #aaa; stroke-width: 1;" x1="454.5315833333333" y1="160.12120000000002" x2="508.31804999999997" y2="167.61226666666667"></line><line style="stroke: #aaa; stroke-width: 1;" x1="454.5315833333333" y1="160.12120000000002" x2="454.4714166666667" y2="223.96537999999998"></line><line style="stroke: #aaa; stroke-width: 1.41421;" x1="454.5315833333333" y1="160.12120000000002" x2="509.3918666666667" y2="228.7283316666667"></line><line style="stroke: #aaa; stroke-width: 1.41421;" x1="508.31804999999997" y1="167.61226666666667" x2="454.4714166666667" y2="223.96537999999998"></line><line style="stroke: #aaa; stroke-width: 1;" x1="508.31804999999997" y1="167.61226666666667" x2="560.9395000000001" y2="177.95903333333334"></line><line style="stroke: #aaa; stroke-width: 1;" x1="508.31804999999997" y1="167.61226666666667" x2="509.3918666666667" y2="228.7283316666667"></line><line style="stroke: #aaa; stroke-width: 1.41421;" x1="508.31804999999997" y1="167.61226666666667" x2="565.186" y2="234.81422166666667"></line><line style="stroke: #aaa; stroke-width: 1.41421;" x1="560.9395000000001" y1="177.95903333333334" x2="509.3918666666667" y2="228.7283316666667"></line><line style="stroke: #aaa; stroke-width: 1;" x1="560.9395000000001" y1="177.95903333333334" x2="612.3915000000001" y2="187.60792999999998"></line><line style="stroke: #aaa; stroke-width: 1;" x1="560.9395000000001" y1="177.95903333333334" x2="565.186" y2="234.81422166666667"></line><line style="stroke: #aaa; stroke-width: 1.41421;" x1="560.9395000000001" y1="177.95903333333334" x2="622.0403333333334" y2="239.06027833333332"></line><line style="stroke: #aaa; stroke-width: 1.41421;" x1="612.3915000000001" y1="187.60792999999998" x2="565.186" y2="234.81422166666667"></line><line style="stroke: #aaa; stroke-width: 1;" x1="612.3915000000001" y1="187.60792999999998" x2="662.3456666666666" y2="190.79575"></line><line style="stroke: #aaa; stroke-width: 1;" x1="612.3915000000001" y1="187.60792999999998" x2="622.0403333333334" y2="239.06027833333332"></line><line style="stroke: #aaa; stroke-width: 1.41421;" x1="612.3915000000001" y1="187.60792999999998" x2="679.3918333333335" y2="236.02404666666664"></line><line style="stroke: #aaa; stroke-width: 1.41421;" x1="662.3456666666666" y1="190.79575" x2="622.0403333333334" y2="239.06027833333332"></line><line style="stroke: #aaa; stroke-width: 1;" x1="662.3456666666666" y1="190.79575" x2="707.4865" y2="176.72625"></line><line style="stroke: #aaa; stroke-width: 1;" x1="662.3456666666666" y1="190.79575" x2="679.3918333333335" y2="236.02404666666664"></line><line style="stroke: #aaa; stroke-width: 1.41421;" x1="662.3456666666666" y1="190.79575" x2="733.6431666666667" y2="218.11360166666665"></line><line style="stroke: #aaa; stroke-width: 1.41421;" x1="707.4865" y1="176.72625" x2="679.3918333333335" y2="236.02404666666664"></line><line style="stroke: #aaa; stroke-width: 1;" x1="66.35746666666667" y1="218.11360166666665" x2="120.60721666666667" y2="236.02404666666664"></line><line style="stroke: #aaa; stroke-width: 1;" x1="66.35746666666667" y1="218.11360166666665" x2="42.48808333333332" y2="271.2167333333333"></line><line style="stroke: #aaa; stroke-width: 1.41421;" x1="66.35746666666667" y1="218.11360166666665" x2="104.71181666666668" y2="286.7425833333333"></line><line style="stroke: #aaa; stroke-width: 1.41421;" x1="120.60721666666667" y1="236.02404666666664" x2="42.48808333333332" y2="271.2167333333333"></line><line style="stroke: #aaa; stroke-width: 1;" x1="120.60721666666667" y1="236.02404666666664" x2="177.95903333333334" y2="239.06027833333332"></line><line style="stroke: #aaa; stroke-width: 1;" x1="120.60721666666667" y1="236.02404666666664" x2="104.71181666666668" y2="286.7425833333333"></line><line style="stroke: #aaa; stroke-width: 1.41421;" x1="120.60721666666667" y1="236.02404666666664" x2="167.61226666666667" y2="291.68195000000003"></line><line style="stroke: #aaa; stroke-width: 1.41421;" x1="177.95903333333334" y1="239.06027833333332" x2="104.71181666666668" y2="286.7425833333333"></line><line style="stroke: #aaa; stroke-width: 1;" x1="177.95903333333334" y1="239.06027833333332" x2="234.81422166666667" y2="234.81422166666667"></line><line style="stroke: #aaa; stroke-width: 1;" x1="177.95903333333334" y1="239.06027833333332" x2="167.61226666666667" y2="291.68195000000003"></line><line style="stroke: #aaa; stroke-width: 1.41421;" x1="177.95903333333334" y1="239.06027833333332" x2="228.7283316666667" y2="290.60813333333334"></line><line style="stroke: #aaa; stroke-width: 1.41421;" x1="234.81422166666667" y1="234.81422166666667" x2="167.61226666666667" y2="291.68195000000003"></line><line style="stroke: #aaa; stroke-width: 1;" x1="234.81422166666667" y1="234.81422166666667" x2="290.60813333333334" y2="228.7283316666667"></line><line style="stroke: #aaa; stroke-width: 1;" x1="234.81422166666667" y1="234.81422166666667" x2="228.7283316666667" y2="290.60813333333334"></line><line style="stroke: #aaa; stroke-width: 1.41421;" x1="234.81422166666667" y1="234.81422166666667" x2="287.48453333333333" y2="287.48453333333333"></line><line style="stroke: #aaa; stroke-width: 1.41421;" x1="290.60813333333334" y1="228.7283316666667" x2="228.7283316666667" y2="290.60813333333334"></line><line style="stroke: #aaa; stroke-width: 1;" x1="290.60813333333334" y1="228.7283316666667" x2="345.52858333333336" y2="223.96537999999998"></line><line style="stroke: #aaa; stroke-width: 1;" x1="290.60813333333334" y1="228.7283316666667" x2="287.48453333333333" y2="287.48453333333333"></line><line style="stroke: #aaa; stroke-width: 1.41421;" x1="290.60813333333334" y1="228.7283316666667" x2="344.2869333333333" y2="284.7776666666667"></line><line style="stroke: #aaa; stroke-width: 1.41421;" x1="345.52858333333336" y1="223.96537999999998" x2="287.48453333333333" y2="287.48453333333333"></line><line style="stroke: #aaa; stroke-width: 1;" x1="345.52858333333336" y1="223.96537999999998" x2="400" y2="222.20446000000004"></line><line style="stroke: #aaa; stroke-width: 1;" x1="345.52858333333336" y1="223.96537999999998" x2="344.2869333333333" y2="284.7776666666667"></line><line style="stroke: #aaa; stroke-width: 1.41421;" x1="345.52858333333336" y1="223.96537999999998" x2="400" y2="283.7466"></line><line style="stroke: #aaa; stroke-width: 1.41421;" x1="400" y1="222.20446000000004" x2="344.2869333333333" y2="284.7776666666667"></line><line style="stroke: #aaa; stroke-width: 1;" x1="400" y1="222.20446000000004" x2="454.4714166666667" y2="223.96537999999998"></line><line style="stroke: #aaa; stroke-width: 1;" x1="400" y1="222.20446000000004" x2="400" y2="283.7466"></line><line style="stroke: #aaa; stroke-width: 1.41421;" x1="400" y1="222.20446000000004" x2="455.7130666666667" y2="284.7776666666667"></line><line style="stroke: #aaa; stroke-width: 1.41421;" x1="454.4714166666667" y1="223.96537999999998" x2="400" y2="283.7466"></line><line style="stroke: #aaa; stroke-width: 1;" x1="454.4714166666667" y1="223.96537999999998" x2="509.3918666666667" y2="228.7283316666667"></line><line style="stroke: #aaa; stroke-width: 1;" x1="454.4714166666667" y1="223.96537999999998" x2="455.7130666666667" y2="284.7776666666667"></line><line style="stroke: #aaa; stroke-width: 1.41421;" x1="454.4714166666667" y1="223.96537999999998" x2="512.5154666666667" y2="287.48453333333333"></line><line style="stroke: #aaa; stroke-width: 1.41421;" x1="509.3918666666667" y1="228.7283316666667" x2="455.7130666666667" y2="284.7776666666667"></line><line style="stroke: #aaa; stroke-width: 1;" x1="509.3918666666667" y1="228.7283316666667" x2="565.186" y2="234.81422166666667"></line><line style="stroke: #aaa; stroke-width: 1;" x1="509.3918666666667" y1="228.7283316666667" x2="512.5154666666667" y2="287.48453333333333"></line><line style="stroke: #aaa; stroke-width: 1.41421;" x1="509.3918666666667" y1="228.7283316666667" x2="571.2723333333333" y2="290.60813333333334"></line><line style="stroke: #aaa; stroke-width: 1.41421;" x1="565.186" y1="234.81422166666667" x2="512.5154666666667" y2="287.48453333333333"></line><line style="stroke: #aaa; stroke-width: 1;" x1="565.186" y1="234.81422166666667" x2="622.0403333333334" y2="239.06027833333332"></line><line style="stroke: #aaa; stroke-width: 1;" x1="565.186" y1="234.81422166666667" x2="571.2723333333333" y2="290.60813333333334"></line><line style="stroke: #aaa; stroke-width: 1.41421;" x1="565.186" y1="234.81422166666667" x2="632.389" y2="291.68195000000003"></line><line style="stroke: #aaa; stroke-width: 1.41421;" x1="622.0403333333334" y1="239.06027833333332" x2="571.2723333333333" y2="290.60813333333334"></line><line style="stroke: #aaa; stroke-width: 1;" x1="622.0403333333334" y1="239.06027833333332" x2="679.3918333333335" y2="236.02404666666664"></line><line style="stroke: #aaa; stroke-width: 1;" x1="622.0403333333334" y1="239.06027833333332" x2="632.389" y2="291.68195000000003"></line><line style="stroke: #aaa; stroke-width: 1.41421;" x1="622.0403333333334" y1="239.06027833333332" x2="695.2885" y2="286.7425833333333"></line><line style="stroke: #aaa; stroke-width: 1.41421;" x1="679.3918333333335" y1="236.02404666666664" x2="632.389" y2="291.68195000000003"></line><line style="stroke: #aaa; stroke-width: 1;" x1="679.3918333333335" y1="236.02404666666664" x2="733.6431666666667" y2="218.11360166666665"></line><line style="stroke: #aaa; stroke-width: 1;" x1="679.3918333333335" y1="236.02404666666664" x2="695.2885" y2="286.7425833333333"></line><line style="stroke: #aaa; stroke-width: 1.41421;" x1="679.3918333333335" y1="236.02404666666664" x2="757.5135" y2="271.2167333333333"></line><line style="stroke: #aaa; stroke-width: 1.41421;" x1="733.6431666666667" y1="218.11360166666665" x2="695.2885" y2="286.7425833333333"></line><line style="stroke: #aaa; stroke-width: 1;" x1="42.48808333333332" y1="271.2167333333333" x2="104.71181666666668" y2="286.7425833333333"></line><line style="stroke: #aaa; stroke-width: 1;" x1="42.48808333333332" y1="271.2167333333333" x2="25.919766666666664" y2="333.1868166666667"></line><line style="stroke: #aaa; stroke-width: 1.41421;" x1="42.48808333333332" y1="271.2167333333333" x2="93.61233333333334" y2="342.07375"></line><line style="stroke: #aaa; stroke-width: 1.41421;" x1="104.71181666666668" y1="286.7425833333333" x2="25.919766666666664" y2="333.1868166666667"></line><line style="stroke: #aaa; stroke-width: 1;" x1="104.71181666666668" y1="286.7425833333333" x2="167.61226666666667" y2="291.68195000000003"></line><line style="stroke: #aaa; stroke-width: 1;" x1="104.71181666666668" y1="286.7425833333333" x2="93.61233333333334" y2="342.07375"></line><line style="stroke: #aaa; stroke-width: 1.41421;" x1="104.71181666666668" y1="286.7425833333333" x2="160.12120000000002" y2="345.46841666666666"></line><line style="stroke: #aaa; stroke-width: 1.41421;" x1="167.61226666666667" y1="291.68195000000003" x2="93.61233333333334" y2="342.07375"></line><line style="stroke: #aaa; stroke-width: 1;" x1="167.61226666666667" y1="291.68195000000003" x2="228.7283316666667" y2="290.60813333333334"></line><line style="stroke: #aaa; stroke-width: 1;" x1="167.61226666666667" y1="291.68195000000003" x2="160.12120000000002" y2="345.46841666666666"></line><line style="stroke: #aaa; stroke-width: 1.41421;" x1="167.61226666666667" y1="291.68195000000003" x2="223.96537999999998" y2="345.52858333333336"></line><line style="stroke: #aaa; stroke-width: 1.41421;" x1="228.7283316666667" y1="290.60813333333334" x2="160.12120000000002" y2="345.46841666666666"></line><line style="stroke: #aaa; stroke-width: 1;" x1="228.7283316666667" y1="290.60813333333334" x2="287.48453333333333" y2="287.48453333333333"></line><line style="stroke: #aaa; stroke-width: 1;" x1="228.7283316666667" y1="290.60813333333334" x2="223.96537999999998" y2="345.52858333333336"></line><line style="stroke: #aaa; stroke-width: 1.41421;" x1="228.7283316666667" y1="290.60813333333334" x2="284.7776666666667" y2="344.2869333333333"></line><line style="stroke: #aaa; stroke-width: 1.41421;" x1="287.48453333333333" y1="287.48453333333333" x2="223.96537999999998" y2="345.52858333333336"></line><line style="stroke: #aaa; stroke-width: 1;" x1="287.48453333333333" y1="287.48453333333333" x2="344.2869333333333" y2="284.7776666666667"></line><line style="stroke: #aaa; stroke-width: 1;" x1="287.48453333333333" y1="287.48453333333333" x2="284.7776666666667" y2="344.2869333333333"></line><line style="stroke: #aaa; stroke-width: 1.41421;" x1="287.48453333333333" y1="287.48453333333333" x2="343.08644999999996" y2="343.08644999999996"></line><line style="stroke: #aaa; stroke-width: 1.41421;" x1="344.2869333333333" y1="284.7776666666667" x2="284.7776666666667" y2="344.2869333333333"></line><line style="stroke: #aaa; stroke-width: 1;" x1="344.2869333333333" y1="284.7776666666667" x2="400" y2="283.7466"></line><line style="stroke: #aaa; stroke-width: 1;" x1="344.2869333333333" y1="284.7776666666667" x2="343.08644999999996" y2="343.08644999999996"></line><line style="stroke: #aaa; stroke-width: 1.41421;" x1="344.2869333333333" y1="284.7776666666667" x2="400" y2="342.6181"></line><line style="stroke: #aaa; stroke-width: 1.41421;" x1="400" y1="283.7466" x2="343.08644999999996" y2="343.08644999999996"></line><line style="stroke: #aaa; stroke-width: 1;" x1="400" y1="283.7466" x2="455.7130666666667" y2="284.7776666666667"></line><line style="stroke: #aaa; stroke-width: 1;" x1="400" y1="283.7466" x2="400" y2="342.6181"></line><line style="stroke: #aaa; stroke-width: 1.41421;" x1="400" y1="283.7466" x2="456.91355000000004" y2="343.08644999999996"></line><line style="stroke: #aaa; stroke-width: 1.41421;" x1="455.7130666666667" y1="284.7776666666667" x2="400" y2="342.6181"></line><line style="stroke: #aaa; stroke-width: 1;" x1="455.7130666666667" y1="284.7776666666667" x2="512.5154666666667" y2="287.48453333333333"></line><line style="stroke: #aaa; stroke-width: 1;" x1="455.7130666666667" y1="284.7776666666667" x2="456.91355000000004" y2="343.08644999999996"></line><line style="stroke: #aaa; stroke-width: 1.41421;" x1="455.7130666666667" y1="284.7776666666667" x2="515.2223333333334" y2="344.2869333333333"></line><line style="stroke: #aaa; stroke-width: 1.41421;" x1="512.5154666666667" y1="287.48453333333333" x2="456.91355000000004" y2="343.08644999999996"></line><line style="stroke: #aaa; stroke-width: 1;" x1="512.5154666666667" y1="287.48453333333333" x2="571.2723333333333" y2="290.60813333333334"></line><line style="stroke: #aaa; stroke-width: 1;" x1="512.5154666666667" y1="287.48453333333333" x2="515.2223333333334" y2="344.2869333333333"></line><line style="stroke: #aaa; stroke-width: 1.41421;" x1="512.5154666666667" y1="287.48453333333333" x2="576.0349999999999" y2="345.52858333333336"></line><line style="stroke: #aaa; stroke-width: 1.41421;" x1="571.2723333333333" y1="290.60813333333334" x2="515.2223333333334" y2="344.2869333333333"></line><line style="stroke: #aaa; stroke-width: 1;" x1="571.2723333333333" y1="290.60813333333334" x2="632.389" y2="291.68195000000003"></line><line style="stroke: #aaa; stroke-width: 1;" x1="571.2723333333333" y1="290.60813333333334" x2="576.0349999999999" y2="345.52858333333336"></line><line style="stroke: #aaa; stroke-width: 1.41421;" x1="571.2723333333333" y1="290.60813333333334" x2="639.8781666666666" y2="345.46841666666666"></line><line style="stroke: #aaa; stroke-width: 1.41421;" x1="632.389" y1="291.68195000000003" x2="576.0349999999999" y2="345.52858333333336"></line><line style="stroke: #aaa; stroke-width: 1;" x1="632.389" y1="291.68195000000003" x2="695.2885" y2="286.7425833333333"></line><line style="stroke: #aaa; stroke-width: 1;" x1="632.389" y1="291.68195000000003" x2="639.8781666666666" y2="345.46841666666666"></line><line style="stroke: #aaa; stroke-width: 1.41421;" x1="632.389" y1="291.68195000000003" x2="706.3876666666666" y2="342.07375"></line><line style="stroke: #aaa; stroke-width: 1.41421;" x1="695.2885" y1="286.7425833333333" x2="639.8781666666666" y2="345.46841666666666"></line><line style="stroke: #aaa; stroke-width: 1;" x1="695.2885" y1="286.7425833333333" x2="757.5135" y2="271.2167333333333"></line><line style="stroke: #aaa; stroke-width: 1;" x1="695.2885" y1="286.7425833333333" x2="706.3876666666666" y2="342.07375"></line><line style="stroke: #aaa; stroke-width: 1.41421;" x1="695.2885" y1="286.7425833333333" x2="774.0815" y2="333.1868166666667"></line><line style="stroke: #aaa; stroke-width: 1.41421;" x1="757.5135" y1="271.2167333333333" x2="706.3876666666666" y2="342.07375"></line><line style="stroke: #aaa; stroke-width: 1;" x1="25.919766666666664" y1="333.1868166666667" x2="93.61233333333334" y2="342.07375"></line><line style="stroke: #aaa; stroke-width: 1;" x1="25.919766666666664" y1="333.1868166666667" x2="20" y2="400"></line><line style="stroke: #aaa; stroke-width: 1.41421;" x1="25.919766666666664" y1="333.1868166666667" x2="89.64291666666668" y2="400"></line><line style="stroke: #aaa; stroke-width: 1.41421;" x1="93.61233333333334" y1="342.07375" x2="20" y2="400"></line><line style="stroke: #aaa; stroke-width: 1;" x1="93.61233333333334" y1="342.07375" x2="160.12120000000002" y2="345.46841666666666"></line><line style="stroke: #aaa; stroke-width: 1;" x1="93.61233333333334" y1="342.07375" x2="89.64291666666668" y2="400"></line><line style="stroke: #aaa; stroke-width: 1.41421;" x1="93.61233333333334" y1="342.07375" x2="157.4168666666667" y2="400"></line><line style="stroke: #aaa; stroke-width: 1.41421;" x1="160.12120000000002" y1="345.46841666666666" x2="89.64291666666668" y2="400"></line><line style="stroke: #aaa; stroke-width: 1;" x1="160.12120000000002" y1="345.46841666666666" x2="223.96537999999998" y2="345.52858333333336"></line><line style="stroke: #aaa; stroke-width: 1;" x1="160.12120000000002" y1="345.46841666666666" x2="157.4168666666667" y2="400"></line><line style="stroke: #aaa; stroke-width: 1.41421;" x1="160.12120000000002" y1="345.46841666666666" x2="222.20446000000004" y2="400"></line><line style="stroke: #aaa; stroke-width: 1.41421;" x1="223.96537999999998" y1="345.52858333333336" x2="157.4168666666667" y2="400"></line><line style="stroke: #aaa; stroke-width: 1;" x1="223.96537999999998" y1="345.52858333333336" x2="284.7776666666667" y2="344.2869333333333"></line><line style="stroke: #aaa; stroke-width: 1;" x1="223.96537999999998" y1="345.52858333333336" x2="222.20446000000004" y2="400"></line><line style="stroke: #aaa; stroke-width: 1.41421;" x1="223.96537999999998" y1="345.52858333333336" x2="283.7466" y2="400"></line><line style="stroke: #aaa; stroke-width: 1.41421;" x1="284.7776666666667" y1="344.2869333333333" x2="222.20446000000004" y2="400"></line><line style="stroke: #aaa; stroke-width: 1;" x1="284.7776666666667" y1="344.2869333333333" x2="343.08644999999996" y2="343.08644999999996"></line><line style="stroke: #aaa; stroke-width: 1;" x1="284.7776666666667" y1="344.2869333333333" x2="283.7466" y2="400"></line><line style="stroke: #aaa; stroke-width: 1.41421;" x1="284.7776666666667" y1="344.2869333333333" x2="342.6181" y2="400"></line><line style="stroke: #aaa; stroke-width: 1.41421;" x1="343.08644999999996" y1="343.08644999999996" x2="283.7466" y2="400"></line><line style="stroke: #aaa; stroke-width: 1;" x1="343.08644999999996" y1="343.08644999999996" x2="400" y2="342.6181"></line><line style="stroke: #aaa; stroke-width: 1;" x1="343.08644999999996" y1="343.08644999999996" x2="342.6181" y2="400"></line><line style="stroke: #aaa; stroke-width: 1.41421;" x1="343.08644999999996" y1="343.08644999999996" x2="400" y2="400"></line><line style="stroke: #aaa; stroke-width: 1.41421;" x1="400" y1="342.6181" x2="342.6181" y2="400"></line><line style="stroke: #aaa; stroke-width: 1;" x1="400" y1="342.6181" x2="456.91355000000004" y2="343.08644999999996"></line><line style="stroke: #aaa; stroke-width: 1;" x1="400" y1="342.6181" x2="400" y2="400"></line><line style="stroke: #aaa; stroke-width: 1.41421;" x1="400" y1="342.6181" x2="457.3819" y2="400"></line><line style="stroke: #aaa; stroke-width: 1.41421;" x1="456.91355000000004" y1="343.08644999999996" x2="400" y2="400"></line><line style="stroke: #aaa; stroke-width: 1;" x1="456.91355000000004" y1="343.08644999999996" x2="515.2223333333334" y2="344.2869333333333"></line><line style="stroke: #aaa; stroke-width: 1;" x1="456.91355000000004" y1="343.08644999999996" x2="457.3819" y2="400"></line><line style="stroke: #aaa; stroke-width: 1.41421;" x1="456.91355000000004" y1="343.08644999999996" x2="516.2534" y2="400"></line><line style="stroke: #aaa; stroke-width: 1.41421;" x1="515.2223333333334" y1="344.2869333333333" x2="457.3819" y2="400"></line><line style="stroke: #aaa; stroke-width: 1;" x1="515.2223333333334" y1="344.2869333333333" x2="576.0349999999999" y2="345.52858333333336"></line><line style="stroke: #aaa; stroke-width: 1;" x1="515.2223333333334" y1="344.2869333333333" x2="516.2534" y2="400"></line><line style="stroke: #aaa; stroke-width: 1.41421;" x1="515.2223333333334" y1="344.2869333333333" x2="577.7956666666665" y2="400"></line><line style="stroke: #aaa; stroke-width: 1.41421;" x1="576.0349999999999" y1="345.52858333333336" x2="516.2534" y2="400"></line><line style="stroke: #aaa; stroke-width: 1;" x1="576.0349999999999" y1="345.52858333333336" x2="639.8781666666666" y2="345.46841666666666"></line><line style="stroke: #aaa; stroke-width: 1;" x1="576.0349999999999" y1="345.52858333333336" x2="577.7956666666665" y2="400"></line><line style="stroke: #aaa; stroke-width: 1.41421;" x1="576.0349999999999" y1="345.52858333333336" x2="642.5825" y2="400"></line><line style="stroke: #aaa; stroke-width: 1.41421;" x1="639.8781666666666" y1="345.46841666666666" x2="577.7956666666665" y2="400"></line><line style="stroke: #aaa; stroke-width: 1;" x1="639.8781666666666" y1="345.46841666666666" x2="706.3876666666666" y2="342.07375"></line><line style="stroke: #aaa; stroke-width: 1;" x1="639.8781666666666" y1="345.46841666666666" x2="642.5825" y2="400"></line><line style="stroke: #aaa; stroke-width: 1.41421;" x1="639.8781666666666" y1="345.46841666666666" x2="710.3586666666667" y2="400"></line><line style="stroke: #aaa; stroke-width: 1.41421;" x1="706.3876666666666" y1="342.07375" x2="642.5825" y2="400"></line><line style="stroke: #aaa; stroke-width: 1;" x1="706.3876666666666" y1="342.07375" x2="774.0815" y2="333.1868166666667"></line><line style="stroke: #aaa; stroke-width: 1;" x1="706.3876666666666" y1="342.07375" x2="710.3586666666667" y2="400"></line><line style="stroke: #aaa; stroke-width: 1.41421;" x1="706.3876666666666" y1="342.07375" x2="780" y2="400"></line><line style="stroke: #aaa; stroke-width: 1.41421;" x1="774.0815" y1="333.1868166666667" x2="710.3586666666667" y2="400"></line><line style="stroke: #aaa; stroke-width: 1;" x1="20" y1="400" x2="89.64291666666668" y2="400"></line><line style="stroke: #aaa; stroke-width: 1;" x1="20" y1="400" x2="25.919766666666664" y2="466.8131833333333"></line><line style="stroke: #aaa; stroke-width: 1.41421;" x1="20" y1="400" x2="93.61233333333334" y2="457.92625"></line><line style="stroke: #aaa; stroke-width: 1.41421;" x1="89.64291666666668" y1="400" x2="25.919766666666664" y2="466.8131833333333"></line><line style="stroke: #aaa; stroke-width: 1;" x1="89.64291666666668" y1="400" x2="157.4168666666667" y2="400"></line><line style="stroke: #aaa; stroke-width: 1;" x1="89.64291666666668" y1="400" x2="93.61233333333334" y2="457.92625"></line><line style="stroke: #aaa; stroke-width: 1.41421;" x1="89.64291666666668" y1="400" x2="160.12120000000002" y2="454.5315833333333"></line><line style="stroke: #aaa; stroke-width: 1.41421;" x1="157.4168666666667" y1="400" x2="93.61233333333334" y2="457.92625"></line><line style="stroke: #aaa; stroke-width: 1;" x1="157.4168666666667" y1="400" x2="222.20446000000004" y2="400"></line><line style="stroke: #aaa; stroke-width: 1;" x1="157.4168666666667" y1="400" x2="160.12120000000002" y2="454.5315833333333"></line><line style="stroke: #aaa; stroke-width: 1.41421;" x1="157.4168666666667" y1="400" x2="223.96537999999998" y2="454.4714166666667"></line><line style="stroke: #aaa; stroke-width: 1.41421;" x1="222.20446000000004" y1="400" x2="160.12120000000002" y2="454.5315833333333"></line><line style="stroke: #aaa; stroke-width: 1;" x1="222.20446000000004" y1="400" x2="283.7466" y2="400"></line><line style="stroke: #aaa; stroke-width: 1;" x1="222.20446000000004" y1="400" x2="223.96537999999998" y2="454.4714166666667"></line><line style="stroke: #aaa; stroke-width: 1.41421;" x1="222.20446000000004" y1="400" x2="284.7776666666667" y2="455.7130666666667"></line><line style="stroke: #aaa; stroke-width: 1.41421;" x1="283.7466" y1="400" x2="223.96537999999998" y2="454.4714166666667"></line><line style="stroke: #aaa; stroke-width: 1;" x1="283.7466" y1="400" x2="342.6181" y2="400"></line><line style="stroke: #aaa; stroke-width: 1;" x1="283.7466" y1="400" x2="284.7776666666667" y2="455.7130666666667"></line><line style="stroke: #aaa; stroke-width: 1.41421;" x1="283.7466" y1="400" x2="343.08644999999996" y2="456.91355000000004"></line><line style="stroke: #aaa; stroke-width: 1.41421;" x1="342.6181" y1="400" x2="284.7776666666667" y2="455.7130666666667"></line><line style="stroke: #aaa; stroke-width: 1;" x1="342.6181" y1="400" x2="400" y2="400"></line><line style="stroke: #aaa; stroke-width: 1;" x1="342.6181" y1="400" x2="343.08644999999996" y2="456.91355000000004"></line><line style="stroke: #aaa; stroke-width: 1.41421;" x1="342.6181" y1="400" x2="400" y2="457.3819"></line><line style="stroke: #aaa; stroke-width: 1.41421;" x1="400" y1="400" x2="343.08644999999996" y2="456.91355000000004"></line><line style="stroke: #aaa; stroke-width: 1;" x1="400" y1="400" x2="457.3819" y2="400"></line><line style="stroke: #aaa; stroke-width: 1;" x1="400" y1="400" x2="400" y2="457.3819"></line><line style="stroke: #aaa; stroke-width: 1.41421;" x1="400" y1="400" x2="456.91355000000004" y2="456.91355000000004"></line><line style="stroke: #aaa; stroke-width: 1.41421;" x1="457.3819" y1="400" x2="400" y2="457.3819"></line><line style="stroke: #aaa; stroke-width: 1;" x1="457.3819" y1="400" x2="516.2534" y2="400"></line><line style="stroke: #aaa; stroke-width: 1;" x1="457.3819" y1="400" x2="456.91355000000004" y2="456.91355000000004"></line><line style="stroke: #aaa; stroke-width: 1.41421;" x1="457.3819" y1="400" x2="515.2223333333334" y2="455.7130666666667"></line><line style="stroke: #aaa; stroke-width: 1.41421;" x1="516.2534" y1="400" x2="456.91355000000004" y2="456.91355000000004"></line><line style="stroke: #aaa; stroke-width: 1;" x1="516.2534" y1="400" x2="577.7956666666665" y2="400"></line><line style="stroke: #aaa; stroke-width: 1;" x1="516.2534" y1="400" x2="515.2223333333334" y2="455.7130666666667"></line><line style="stroke: #aaa; stroke-width: 1.41421;" x1="516.2534" y1="400" x2="576.0349999999999" y2="454.4714166666667"></line><line style="stroke: #aaa; stroke-width: 1.41421;" x1="577.7956666666665" y1="400" x2="515.2223333333334" y2="455.7130666666667"></line><line style="stroke: #aaa; stroke-width: 1;" x1="577.7956666666665" y1="400" x2="642.5825" y2="400"></line><line style="stroke: #aaa; stroke-width: 1;" x1="577.7956666666665" y1="400" x2="576.0349999999999" y2="454.4714166666667"></line><line style="stroke: #aaa; stroke-width: 1.41421;" x1="577.7956666666665" y1="400" x2="639.8781666666666" y2="454.5315833333333"></line><line style="stroke: #aaa; stroke-width: 1.41421;" x1="642.5825" y1="400" x2="576.0349999999999" y2="454.4714166666667"></line><line style="stroke: #aaa; stroke-width: 1;" x1="642.5825" y1="400" x2="710.3586666666667" y2="400"></line><line style="stroke: #aaa; stroke-width: 1;" x1="642.5825" y1="400" x2="639.8781666666666" y2="454.5315833333333"></line><line style="stroke: #aaa; stroke-width: 1.41421;" x1="642.5825" y1="400" x2="706.3876666666666" y2="457.92625"></line><line style="stroke: #aaa; stroke-width: 1.41421;" x1="710.3586666666667" y1="400" x2="639.8781666666666" y2="454.5315833333333"></line><line style="stroke: #aaa; stroke-width: 1;" x1="710.3586666666667" y1="400" x2="780" y2="400"></line><line style="stroke: #aaa; stroke-width: 1;" x1="710.3586666666667" y1="400" x2="706.3876666666666" y2="457.92625"></line><line style="stroke: #aaa; stroke-width: 1.41421;" x1="710.3586666666667" y1="400" x2="774.0815" y2="466.8131833333333"></line><line style="stroke: #aaa; stroke-width: 1.41421;" x1="780" y1="400" x2="706.3876666666666" y2="457.92625"></line><line style="stroke: #aaa; stroke-width: 1;" x1="25.919766666666664" y1="466.8131833333333" x2="93.61233333333334" y2="457.92625"></line><line style="stroke: #aaa; stroke-width: 1;" x1="25.919766666666664" y1="466.8131833333333" x2="42.48808333333332" y2="528.7819999999999"></line><line style="stroke: #aaa; stroke-width: 1.41421;" x1="25.919766666666664" y1="466.8131833333333" x2="104.71181666666668" y2="513.2574166666667"></line><line style="stroke: #aaa; stroke-width: 1.41421;" x1="93.61233333333334" y1="457.92625" x2="42.48808333333332" y2="528.7819999999999"></line><line style="stroke: #aaa; stroke-width: 1;" x1="93.61233333333334" y1="457.92625" x2="160.12120000000002" y2="454.5315833333333"></line><line style="stroke: #aaa; stroke-width: 1;" x1="93.61233333333334" y1="457.92625" x2="104.71181666666668" y2="513.2574166666667"></line><line style="stroke: #aaa; stroke-width: 1.41421;" x1="93.61233333333334" y1="457.92625" x2="167.61226666666667" y2="508.31804999999997"></line><line style="stroke: #aaa; stroke-width: 1.41421;" x1="160.12120000000002" y1="454.5315833333333" x2="104.71181666666668" y2="513.2574166666667"></line><line style="stroke: #aaa; stroke-width: 1;" x1="160.12120000000002" y1="454.5315833333333" x2="223.96537999999998" y2="454.4714166666667"></line><line style="stroke: #aaa; stroke-width: 1;" x1="160.12120000000002" y1="454.5315833333333" x2="167.61226666666667" y2="508.31804999999997"></line><line style="stroke: #aaa; stroke-width: 1.41421;" x1="160.12120000000002" y1="454.5315833333333" x2="228.7283316666667" y2="509.3918666666667"></line><line style="stroke: #aaa; stroke-width: 1.41421;" x1="223.96537999999998" y1="454.4714166666667" x2="167.61226666666667" y2="508.31804999999997"></line><line style="stroke: #aaa; stroke-width: 1;" x1="223.96537999999998" y1="454.4714166666667" x2="284.7776666666667" y2="455.7130666666667"></line><line style="stroke: #aaa; stroke-width: 1;" x1="223.96537999999998" y1="454.4714166666667" x2="228.7283316666667" y2="509.3918666666667"></line><line style="stroke: #aaa; stroke-width: 1.41421;" x1="223.96537999999998" y1="454.4714166666667" x2="287.48453333333333" y2="512.5154666666667"></line><line style="stroke: #aaa; stroke-width: 1.41421;" x1="284.7776666666667" y1="455.7130666666667" x2="228.7283316666667" y2="509.3918666666667"></line><line style="stroke: #aaa; stroke-width: 1;" x1="284.7776666666667" y1="455.7130666666667" x2="343.08644999999996" y2="456.91355000000004"></line><line style="stroke: #aaa; stroke-width: 1;" x1="284.7776666666667" y1="455.7130666666667" x2="287.48453333333333" y2="512.5154666666667"></line><line style="stroke: #aaa; stroke-width: 1.41421;" x1="284.7776666666667" y1="455.7130666666667" x2="344.2869333333333" y2="515.2223333333334"></line><line style="stroke: #aaa; stroke-width: 1.41421;" x1="343.08644999999996" y1="456.91355000000004" x2="287.48453333333333" y2="512.5154666666667"></line><line style="stroke: #aaa; stroke-width: 1;" x1="343.08644999999996" y1="456.91355000000004" x2="400" y2="457.3819"></line><line style="stroke: #aaa; stroke-width: 1;" x1="343.08644999999996" y1="456.91355000000004" x2="344.2869333333333" y2="515.2223333333334"></line><line style="stroke: #aaa; stroke-width: 1.41421;" x1="343.08644999999996" y1="456.91355000000004" x2="400" y2="516.2534"></line><line style="stroke: #aaa; stroke-width: 1.41421;" x1="400" y1="457.3819" x2="344.2869333333333" y2="515.2223333333334"></line><line style="stroke: #aaa; stroke-width: 1;" x1="400" y1="457.3819" x2="456.91355000000004" y2="456.91355000000004"></line><line style="stroke: #aaa; stroke-width: 1;" x1="400" y1="457.3819" x2="400" y2="516.2534"></line><line style="stroke: #aaa; stroke-width: 1.41421;" x1="400" y1="457.3819" x2="455.7130666666667" y2="515.2223333333334"></line><line style="stroke: #aaa; stroke-width: 1.41421;" x1="456.91355000000004" y1="456.91355000000004" x2="400" y2="516.2534"></line><line style="stroke: #aaa; stroke-width: 1;" x1="456.91355000000004" y1="456.91355000000004" x2="515.2223333333334" y2="455.7130666666667"></line><line style="stroke: #aaa; stroke-width: 1;" x1="456.91355000000004" y1="456.91355000000004" x2="455.7130666666667" y2="515.2223333333334"></line><line style="stroke: #aaa; stroke-width: 1.41421;" x1="456.91355000000004" y1="456.91355000000004" x2="512.5154666666667" y2="512.5154666666667"></line><line style="stroke: #aaa; stroke-width: 1.41421;" x1="515.2223333333334" y1="455.7130666666667" x2="455.7130666666667" y2="515.2223333333334"></line><line style="stroke: #aaa; stroke-width: 1;" x1="515.2223333333334" y1="455.7130666666667" x2="576.0349999999999" y2="454.4714166666667"></line><line style="stroke: #aaa; stroke-width: 1;" x1="515.2223333333334" y1="455.7130666666667" x2="512.5154666666667" y2="512.5154666666667"></line><line style="stroke: #aaa; stroke-width: 1.41421;" x1="515.2223333333334" y1="455.7130666666667" x2="571.2723333333333" y2="509.3918666666667"></line><line style="stroke: #aaa; stroke-width: 1.41421;" x1="576.0349999999999" y1="454.4714166666667" x2="512.5154666666667" y2="512.5154666666667"></line><line style="stroke: #aaa; stroke-width: 1;" x1="576.0349999999999" y1="454.4714166666667" x2="639.8781666666666" y2="454.5315833333333"></line><line style="stroke: #aaa; stroke-width: 1;" x1="576.0349999999999" y1="454.4714166666667" x2="571.2723333333333" y2="509.3918666666667"></line><line style="stroke: #aaa; stroke-width: 1.41421;" x1="576.0349999999999" y1="454.4714166666667" x2="632.389" y2="508.31804999999997"></line><line style="stroke: #aaa; stroke-width: 1.41421;" x1="639.8781666666666" y1="454.5315833333333" x2="571.2723333333333" y2="509.3918666666667"></line><line style="stroke: #aaa; stroke-width: 1;" x1="639.8781666666666" y1="454.5315833333333" x2="706.3876666666666" y2="457.92625"></line><line style="stroke: #aaa; stroke-width: 1;" x1="639.8781666666666" y1="454.5315833333333" x2="632.389" y2="508.31804999999997"></line><line style="stroke: #aaa; stroke-width: 1.41421;" x1="639.8781666666666" y1="454.5315833333333" x2="695.2885" y2="513.2574166666667"></line><line style="stroke: #aaa; stroke-width: 1.41421;" x1="706.3876666666666" y1="457.92625" x2="632.389" y2="508.31804999999997"></line><line style="stroke: #aaa; stroke-width: 1;" x1="706.3876666666666" y1="457.92625" x2="774.0815" y2="466.8131833333333"></line><line style="stroke: #aaa; stroke-width: 1;" x1="706.3876666666666" y1="457.92625" x2="695.2885" y2="513.2574166666667"></line><line style="stroke: #aaa; stroke-width: 1.41421;" x1="706.3876666666666" y1="457.92625" x2="757.5135" y2="528.7819999999999"></line><line style="stroke: #aaa; stroke-width: 1.41421;" x1="774.0815" y1="466.8131833333333" x2="695.2885" y2="513.2574166666667"></line><line style="stroke: #aaa; stroke-width: 1;" x1="42.48808333333332" y1="528.7819999999999" x2="104.71181666666668" y2="513.2574166666667"></line><line style="stroke: #aaa; stroke-width: 1;" x1="42.48808333333332" y1="528.7819999999999" x2="66.35746666666667" y2="581.887"></line><line style="stroke: #aaa; stroke-width: 1.41421;" x1="42.48808333333332" y1="528.7819999999999" x2="120.60721666666667" y2="563.9763333333334"></line><line style="stroke: #aaa; stroke-width: 1.41421;" x1="104.71181666666668" y1="513.2574166666667" x2="66.35746666666667" y2="581.887"></line><line style="stroke: #aaa; stroke-width: 1;" x1="104.71181666666668" y1="513.2574166666667" x2="167.61226666666667" y2="508.31804999999997"></line><line style="stroke: #aaa; stroke-width: 1;" x1="104.71181666666668" y1="513.2574166666667" x2="120.60721666666667" y2="563.9763333333334"></line><line style="stroke: #aaa; stroke-width: 1.41421;" x1="104.71181666666668" y1="513.2574166666667" x2="177.95903333333334" y2="560.9395000000001"></line><line style="stroke: #aaa; stroke-width: 1.41421;" x1="167.61226666666667" y1="508.31804999999997" x2="120.60721666666667" y2="563.9763333333334"></line><line style="stroke: #aaa; stroke-width: 1;" x1="167.61226666666667" y1="508.31804999999997" x2="228.7283316666667" y2="509.3918666666667"></line><line style="stroke: #aaa; stroke-width: 1;" x1="167.61226666666667" y1="508.31804999999997" x2="177.95903333333334" y2="560.9395000000001"></line><line style="stroke: #aaa; stroke-width: 1.41421;" x1="167.61226666666667" y1="508.31804999999997" x2="234.81422166666667" y2="565.186"></line><line style="stroke: #aaa; stroke-width: 1.41421;" x1="228.7283316666667" y1="509.3918666666667" x2="177.95903333333334" y2="560.9395000000001"></line><line style="stroke: #aaa; stroke-width: 1;" x1="228.7283316666667" y1="509.3918666666667" x2="287.48453333333333" y2="512.5154666666667"></line><line style="stroke: #aaa; stroke-width: 1;" x1="228.7283316666667" y1="509.3918666666667" x2="234.81422166666667" y2="565.186"></line><line style="stroke: #aaa; stroke-width: 1.41421;" x1="228.7283316666667" y1="509.3918666666667" x2="290.60813333333334" y2="571.2723333333333"></line><line style="stroke: #aaa; stroke-width: 1.41421;" x1="287.48453333333333" y1="512.5154666666667" x2="234.81422166666667" y2="565.186"></line><line style="stroke: #aaa; stroke-width: 1;" x1="287.48453333333333" y1="512.5154666666667" x2="344.2869333333333" y2="515.2223333333334"></line><line style="stroke: #aaa; stroke-width: 1;" x1="287.48453333333333" y1="512.5154666666667" x2="290.60813333333334" y2="571.2723333333333"></line><line style="stroke: #aaa; stroke-width: 1.41421;" x1="287.48453333333333" y1="512.5154666666667" x2="345.52858333333336" y2="576.0349999999999"></line><line style="stroke: #aaa; stroke-width: 1.41421;" x1="344.2869333333333" y1="515.2223333333334" x2="290.60813333333334" y2="571.2723333333333"></line><line style="stroke: #aaa; stroke-width: 1;" x1="344.2869333333333" y1="515.2223333333334" x2="400" y2="516.2534"></line><line style="stroke: #aaa; stroke-width: 1;" x1="344.2869333333333" y1="515.2223333333334" x2="345.52858333333336" y2="576.0349999999999"></line><line style="stroke: #aaa; stroke-width: 1.41421;" x1="344.2869333333333" y1="515.2223333333334" x2="400" y2="577.7956666666665"></line><line style="stroke: #aaa; stroke-width: 1.41421;" x1="400" y1="516.2534" x2="345.52858333333336" y2="576.0349999999999"></line><line style="stroke: #aaa; stroke-width: 1;" x1="400" y1="516.2534" x2="455.7130666666667" y2="515.2223333333334"></line><line style="stroke: #aaa; stroke-width: 1;" x1="400" y1="516.2534" x2="400" y2="577.7956666666665"></line><line style="stroke: #aaa; stroke-width: 1.41421;" x1="400" y1="516.2534" x2="454.4714166666667" y2="576.0349999999999"></line><line style="stroke: #aaa; stroke-width: 1.41421;" x1="455.7130666666667" y1="515.2223333333334" x2="400" y2="577.7956666666665"></line><line style="stroke: #aaa; stroke-width: 1;" x1="455.7130666666667" y1="515.2223333333334" x2="512.5154666666667" y2="512.5154666666667"></line><line style="stroke: #aaa; stroke-width: 1;" x1="455.7130666666667" y1="515.2223333333334" x2="454.4714166666667" y2="576.0349999999999"></line><line style="stroke: #aaa; stroke-width: 1.41421;" x1="455.7130666666667" y1="515.2223333333334" x2="509.3918666666667" y2="571.2723333333333"></line><line style="stroke: #aaa; stroke-width: 1.41421;" x1="512.5154666666667" y1="512.5154666666667" x2="454.4714166666667" y2="576.0349999999999"></line><line style="stroke: #aaa; stroke-width: 1;" x1="512.5154666666667" y1="512.5154666666667" x2="571.2723333333333" y2="509.3918666666667"></line><line style="stroke: #aaa; stroke-width: 1;" x1="512.5154666666667" y1="512.5154666666667" x2="509.3918666666667" y2="571.2723333333333"></line><line style="stroke: #aaa; stroke-width: 1.41421;" x1="512.5154666666667" y1="512.5154666666667" x2="565.186" y2="565.186"></line><line style="stroke: #aaa; stroke-width: 1.41421;" x1="571.2723333333333" y1="509.3918666666667" x2="509.3918666666667" y2="571.2723333333333"></line><line style="stroke: #aaa; stroke-width: 1;" x1="571.2723333333333" y1="509.3918666666667" x2="632.389" y2="508.31804999999997"></line><line style="stroke: #aaa; stroke-width: 1;" x1="571.2723333333333" y1="509.3918666666667" x2="565.186" y2="565.186"></line><line style="stroke: #aaa; stroke-width: 1.41421;" x1="571.2723333333333" y1="509.3918666666667" x2="622.0403333333334" y2="560.9395000000001"></line><line style="stroke: #aaa; stroke-width: 1.41421;" x1="632.389" y1="508.31804999999997" x2="565.186" y2="565.186"></line><line style="stroke: #aaa; stroke-width: 1;" x1="632.389" y1="508.31804999999997" x2="695.2885" y2="513.2574166666667"></line><line style="stroke: #aaa; stroke-width: 1;" x1="632.389" y1="508.31804999999997" x2="622.0403333333334" y2="560.9395000000001"></line><line style="stroke: #aaa; stroke-width: 1.41421;" x1="632.389" y1="508.31804999999997" x2="679.3918333333335" y2="563.9763333333334"></line><line style="stroke: #aaa; stroke-width: 1.41421;" x1="695.2885" y1="513.2574166666667" x2="622.0403333333334" y2="560.9395000000001"></line><line style="stroke: #aaa; stroke-width: 1;" x1="695.2885" y1="513.2574166666667" x2="757.5135" y2="528.7819999999999"></line><line style="stroke: #aaa; stroke-width: 1;" x1="695.2885" y1="513.2574166666667" x2="679.3918333333335" y2="563.9763333333334"></line><line style="stroke: #aaa; stroke-width: 1.41421;" x1="695.2885" y1="513.2574166666667" x2="733.6431666666667" y2="581.887"></line><line style="stroke: #aaa; stroke-width: 1.41421;" x1="757.5135" y1="528.7819999999999" x2="679.3918333333335" y2="563.9763333333334"></line><line style="stroke: #aaa; stroke-width: 1;" x1="66.35746666666667" y1="581.887" x2="120.60721666666667" y2="563.9763333333334"></line><line style="stroke: #aaa; stroke-width: 1;" x1="66.35746666666667" y1="581.887" x2="92.51223333333334" y2="623.2753333333334"></line><line style="stroke: #aaa; stroke-width: 1.41421;" x1="66.35746666666667" y1="581.887" x2="137.65591666666668" y2="609.2058333333334"></line><line style="stroke: #aaa; stroke-width: 1.41421;" x1="120.60721666666667" y1="563.9763333333334" x2="92.51223333333334" y2="623.2753333333334"></line><line style="stroke: #aaa; stroke-width: 1;" x1="120.60721666666667" y1="563.9763333333334" x2="177.95903333333334" y2="560.9395000000001"></line><line style="stroke: #aaa; stroke-width: 1;" x1="120.60721666666667" y1="563.9763333333334" x2="137.65591666666668" y2="609.2058333333334"></line><line style="stroke: #aaa; stroke-width: 1.41421;" x1="120.60721666666667" y1="563.9763333333334" x2="187.60792999999998" y2="612.3915000000001"></line><line style="stroke: #aaa; stroke-width: 1.41421;" x1="177.95903333333334" y1="560.9395000000001" x2="137.65591666666668" y2="609.2058333333334"></line><line style="stroke: #aaa; stroke-width: 1;" x1="177.95903333333334" y1="560.9395000000001" x2="234.81422166666667" y2="565.186"></line><line style="stroke: #aaa; stroke-width: 1;" x1="177.95903333333334" y1="560.9395000000001" x2="187.60792999999998" y2="612.3915000000001"></line><line style="stroke: #aaa; stroke-width: 1.41421;" x1="177.95903333333334" y1="560.9395000000001" x2="239.06027833333332" y2="622.0403333333334"></line><line style="stroke: #aaa; stroke-width: 1.41421;" x1="234.81422166666667" y1="565.186" x2="187.60792999999998" y2="612.3915000000001"></line><line style="stroke: #aaa; stroke-width: 1;" x1="234.81422166666667" y1="565.186" x2="290.60813333333334" y2="571.2723333333333"></line><line style="stroke: #aaa; stroke-width: 1;" x1="234.81422166666667" y1="565.186" x2="239.06027833333332" y2="622.0403333333334"></line><line style="stroke: #aaa; stroke-width: 1.41421;" x1="234.81422166666667" y1="565.186" x2="291.68195000000003" y2="632.389"></line><line style="stroke: #aaa; stroke-width: 1.41421;" x1="290.60813333333334" y1="571.2723333333333" x2="239.06027833333332" y2="622.0403333333334"></line><line style="stroke: #aaa; stroke-width: 1;" x1="290.60813333333334" y1="571.2723333333333" x2="345.52858333333336" y2="576.0349999999999"></line><line style="stroke: #aaa; stroke-width: 1;" x1="290.60813333333334" y1="571.2723333333333" x2="291.68195000000003" y2="632.389"></line><line style="stroke: #aaa; stroke-width: 1.41421;" x1="290.60813333333334" y1="571.2723333333333" x2="345.46841666666666" y2="639.8781666666666"></line><line style="stroke: #aaa; stroke-width: 1.41421;" x1="345.52858333333336" y1="576.0349999999999" x2="291.68195000000003" y2="632.389"></line><line style="stroke: #aaa; stroke-width: 1;" x1="345.52858333333336" y1="576.0349999999999" x2="400" y2="577.7956666666665"></line><line style="stroke: #aaa; stroke-width: 1;" x1="345.52858333333336" y1="576.0349999999999" x2="345.46841666666666" y2="639.8781666666666"></line><line style="stroke: #aaa; stroke-width: 1.41421;" x1="345.52858333333336" y1="576.0349999999999" x2="400" y2="642.5825"></line><line style="stroke: #aaa; stroke-width: 1.41421;" x1="400" y1="577.7956666666665" x2="345.46841666666666" y2="639.8781666666666"></line><line style="stroke: #aaa; stroke-width: 1;" x1="400" y1="577.7956666666665" x2="454.4714166666667" y2="576.0349999999999"></line><line style="stroke: #aaa; stroke-width: 1;" x1="400" y1="577.7956666666665" x2="400" y2="642.5825"></line><line style="stroke: #aaa; stroke-width: 1.41421;" x1="400" y1="577.7956666666665" x2="454.5315833333333" y2="639.8781666666666"></line><line style="stroke: #aaa; stroke-width: 1.41421;" x1="454.4714166666667" y1="576.0349999999999" x2="400" y2="642.5825"></line><line style="stroke: #aaa; stroke-width: 1;" x1="454.4714166666667" y1="576.0349999999999" x2="509.3918666666667" y2="571.2723333333333"></line><line style="stroke: #aaa; stroke-width: 1;" x1="454.4714166666667" y1="576.0349999999999" x2="454.5315833333333" y2="639.8781666666666"></line><line style="stroke: #aaa; stroke-width: 1.41421;" x1="454.4714166666667" y1="576.0349999999999" x2="508.31804999999997" y2="632.389"></line><line style="stroke: #aaa; stroke-width: 1.41421;" x1="509.3918666666667" y1="571.2723333333333" x2="454.5315833333333" y2="639.8781666666666"></line><line style="stroke: #aaa; stroke-width: 1;" x1="509.3918666666667" y1="571.2723333333333" x2="565.186" y2="565.186"></line><line style="stroke: #aaa; stroke-width: 1;" x1="509.3918666666667" y1="571.2723333333333" x2="508.31804999999997" y2="632.389"></line><line style="stroke: #aaa; stroke-width: 1.41421;" x1="509.3918666666667" y1="571.2723333333333" x2="560.9395000000001" y2="622.0403333333334"></line><line style="stroke: #aaa; stroke-width: 1.41421;" x1="565.186" y1="565.186" x2="508.31804999999997" y2="632.389"></line><line style="stroke: #aaa; stroke-width: 1;" x1="565.186" y1="565.186" x2="622.0403333333334" y2="560.9395000000001"></line><line style="stroke: #aaa; stroke-width: 1;" x1="565.186" y1="565.186" x2="560.9395000000001" y2="622.0403333333334"></line><line style="stroke: #aaa; stroke-width: 1.41421;" x1="565.186" y1="565.186" x2="612.3915000000001" y2="612.3915000000001"></line><line style="stroke: #aaa; stroke-width: 1.41421;" x1="622.0403333333334" y1="560.9395000000001" x2="560.9395000000001" y2="622.0403333333334"></line><line style="stroke: #aaa; stroke-width: 1;" x1="622.0403333333334" y1="560.9395000000001" x2="679.3918333333335" y2="563.9763333333334"></line><line style="stroke: #aaa; stroke-width: 1;" x1="622.0403333333334" y1="560.9395000000001" x2="612.3915000000001" y2="612.3915000000001"></line><line style="stroke: #aaa; stroke-width: 1.41421;" x1="622.0403333333334" y1="560.9395000000001" x2="662.3456666666666" y2="609.2058333333334"></line><line style="stroke: #aaa; stroke-width: 1.41421;" x1="679.3918333333335" y1="563.9763333333334" x2="612.3915000000001" y2="612.3915000000001"></line><line style="stroke: #aaa; stroke-width: 1;" x1="679.3918333333335" y1="563.9763333333334" x2="733.6431666666667" y2="581.887"></line><line style="stroke: #aaa; stroke-width: 1;" x1="679.3918333333335" y1="563.9763333333334" x2="662.3456666666666" y2="609.2058333333334"></line><line style="stroke: #aaa; stroke-width: 1.41421;" x1="679.3918333333335" y1="563.9763333333334" x2="707.4865" y2="623.2753333333334"></line><line style="stroke: #aaa; stroke-width: 1.41421;" x1="733.6431666666667" y1="581.887" x2="662.3456666666666" y2="609.2058333333334"></line><line style="stroke: #aaa; stroke-width: 1;" x1="92.51223333333334" y1="623.2753333333334" x2="137.65591666666668" y2="609.2058333333334"></line><line style="stroke: #aaa; stroke-width: 1;" x1="92.51223333333334" y1="623.2753333333334" x2="114.67351666666667" y2="650.9773333333334"></line><line style="stroke: #aaa; stroke-width: 1.41421;" x1="92.51223333333334" y1="623.2753333333334" x2="150.40491666666668" y2="649.5935000000001"></line><line style="stroke: #aaa; stroke-width: 1.41421;" x1="137.65591666666668" y1="609.2058333333334" x2="114.67351666666667" y2="650.9773333333334"></line><line style="stroke: #aaa; stroke-width: 1;" x1="137.65591666666668" y1="609.2058333333334" x2="187.60792999999998" y2="612.3915000000001"></line><line style="stroke: #aaa; stroke-width: 1;" x1="137.65591666666668" y1="609.2058333333334" x2="150.40491666666668" y2="649.5935000000001"></line><line style="stroke: #aaa; stroke-width: 1.41421;" x1="137.65591666666668" y1="609.2058333333334" x2="190.79575" y2="662.3456666666666"></line><line style="stroke: #aaa; stroke-width: 1.41421;" x1="187.60792999999998" y1="612.3915000000001" x2="150.40491666666668" y2="649.5935000000001"></line><line style="stroke: #aaa; stroke-width: 1;" x1="187.60792999999998" y1="612.3915000000001" x2="239.06027833333332" y2="622.0403333333334"></line><line style="stroke: #aaa; stroke-width: 1;" x1="187.60792999999998" y1="612.3915000000001" x2="190.79575" y2="662.3456666666666"></line><line style="stroke: #aaa; stroke-width: 1.41421;" x1="187.60792999999998" y1="612.3915000000001" x2="236.02404666666664" y2="679.3918333333335"></line><line style="stroke: #aaa; stroke-width: 1.41421;" x1="239.06027833333332" y1="622.0403333333334" x2="190.79575" y2="662.3456666666666"></line><line style="stroke: #aaa; stroke-width: 1;" x1="239.06027833333332" y1="622.0403333333334" x2="291.68195000000003" y2="632.389"></line><line style="stroke: #aaa; stroke-width: 1;" x1="239.06027833333332" y1="622.0403333333334" x2="236.02404666666664" y2="679.3918333333335"></line><line style="stroke: #aaa; stroke-width: 1.41421;" x1="239.06027833333332" y1="622.0403333333334" x2="286.7425833333333" y2="695.2885"></line><line style="stroke: #aaa; stroke-width: 1.41421;" x1="291.68195000000003" y1="632.389" x2="236.02404666666664" y2="679.3918333333335"></line><line style="stroke: #aaa; stroke-width: 1;" x1="291.68195000000003" y1="632.389" x2="345.46841666666666" y2="639.8781666666666"></line><line style="stroke: #aaa; stroke-width: 1;" x1="291.68195000000003" y1="632.389" x2="286.7425833333333" y2="695.2885"></line><line style="stroke: #aaa; stroke-width: 1.41421;" x1="291.68195000000003" y1="632.389" x2="342.07375" y2="706.3876666666666"></line><line style="stroke: #aaa; stroke-width: 1.41421;" x1="345.46841666666666" y1="639.8781666666666" x2="286.7425833333333" y2="695.2885"></line><line style="stroke: #aaa; stroke-width: 1;" x1="345.46841666666666" y1="639.8781666666666" x2="400" y2="642.5825"></line><line style="stroke: #aaa; stroke-width: 1;" x1="345.46841666666666" y1="639.8781666666666" x2="342.07375" y2="706.3876666666666"></line><line style="stroke: #aaa; stroke-width: 1.41421;" x1="345.46841666666666" y1="639.8781666666666" x2="400" y2="710.3586666666667"></line><line style="stroke: #aaa; stroke-width: 1.41421;" x1="400" y1="642.5825" x2="342.07375" y2="706.3876666666666"></line><line style="stroke: #aaa; stroke-width: 1;" x1="400" y1="642.5825" x2="454.5315833333333" y2="639.8781666666666"></line><line style="stroke: #aaa; stroke-width: 1;" x1="400" y1="642.5825" x2="400" y2="710.3586666666667"></line><line style="stroke: #aaa; stroke-width: 1.41421;" x1="400" y1="642.5825" x2="457.92625" y2="706.3876666666666"></line><line style="stroke: #aaa; stroke-width: 1.41421;" x1="454.5315833333333" y1="639.8781666666666" x2="400" y2="710.3586666666667"></line><line style="stroke: #aaa; stroke-width: 1;" x1="454.5315833333333" y1="639.8781666666666" x2="508.31804999999997" y2="632.389"></line><line style="stroke: #aaa; stroke-width: 1;" x1="454.5315833333333" y1="639.8781666666666" x2="457.92625" y2="706.3876666666666"></line><line style="stroke: #aaa; stroke-width: 1.41421;" x1="454.5315833333333" y1="639.8781666666666" x2="513.2574166666667" y2="695.2885"></line><line style="stroke: #aaa; stroke-width: 1.41421;" x1="508.31804999999997" y1="632.389" x2="457.92625" y2="706.3876666666666"></line><line style="stroke: #aaa; stroke-width: 1;" x1="508.31804999999997" y1="632.389" x2="560.9395000000001" y2="622.0403333333334"></line><line style="stroke: #aaa; stroke-width: 1;" x1="508.31804999999997" y1="632.389" x2="513.2574166666667" y2="695.2885"></line><line style="stroke: #aaa; stroke-width: 1.41421;" x1="508.31804999999997" y1="632.389" x2="563.9763333333334" y2="679.3918333333335"></line><line style="stroke: #aaa; stroke-width: 1.41421;" x1="560.9395000000001" y1="622.0403333333334" x2="513.2574166666667" y2="695.2885"></line><line style="stroke: #aaa; stroke-width: 1;" x1="560.9395000000001" y1="622.0403333333334" x2="612.3915000000001" y2="612.3915000000001"></line><line style="stroke: #aaa; stroke-width: 1;" x1="560.9395000000001" y1="622.0403333333334" x2="563.9763333333334" y2="679.3918333333335"></line><line style="stroke: #aaa; stroke-width: 1.41421;" x1="560.9395000000001" y1="622.0403333333334" x2="609.2058333333334" y2="662.3456666666666"></line><line style="stroke: #aaa; stroke-width: 1.41421;" x1="612.3915000000001" y1="612.3915000000001" x2="563.9763333333334" y2="679.3918333333335"></line><line style="stroke: #aaa; stroke-width: 1;" x1="612.3915000000001" y1="612.3915000000001" x2="662.3456666666666" y2="609.2058333333334"></line><line style="stroke: #aaa; stroke-width: 1;" x1="612.3915000000001" y1="612.3915000000001" x2="609.2058333333334" y2="662.3456666666666"></line><line style="stroke: #aaa; stroke-width: 1.41421;" x1="612.3915000000001" y1="612.3915000000001" x2="649.5935000000001" y2="649.5935000000001"></line><line style="stroke: #aaa; stroke-width: 1.41421;" x1="662.3456666666666" y1="609.2058333333334" x2="609.2058333333334" y2="662.3456666666666"></line><line style="stroke: #aaa; stroke-width: 1;" x1="662.3456666666666" y1="609.2058333333334" x2="707.4865" y2="623.2753333333334"></line><line style="stroke: #aaa; stroke-width: 1;" x1="662.3456666666666" y1="609.2058333333334" x2="649.5935000000001" y2="649.5935000000001"></line><line style="stroke: #aaa; stroke-width: 1.41421;" x1="662.3456666666666" y1="609.2058333333334" x2="685.3261666666666" y2="650.9773333333334"></line><line style="stroke: #aaa; stroke-width: 1.41421;" x1="707.4865" y1="623.2753333333334" x2="649.5935000000001" y2="649.5935000000001"></line><line style="stroke: #aaa; stroke-width: 1;" x1="114.67351666666667" y1="650.9773333333334" x2="150.40491666666668" y2="649.5935000000001"></line><line style="stroke: #aaa; stroke-width: 1;" x1="114.67351666666667" y1="650.9773333333334" x2="131.29946666666666" y2="668.7011666666667"></line><line style="stroke: #aaa; stroke-width: 1.41421;" x1="114.67351666666667" y1="650.9773333333334" x2="149.02425" y2="685.3261666666666"></line><line style="stroke: #aaa; stroke-width: 1.41421;" x1="150.40491666666668" y1="649.5935000000001" x2="131.29946666666666" y2="668.7011666666667"></line><line style="stroke: #aaa; stroke-width: 1;" x1="150.40491666666668" y1="649.5935000000001" x2="190.79575" y2="662.3456666666666"></line><line style="stroke: #aaa; stroke-width: 1;" x1="150.40491666666668" y1="649.5935000000001" x2="149.02425" y2="685.3261666666666"></line><line style="stroke: #aaa; stroke-width: 1.41421;" x1="150.40491666666668" y1="649.5935000000001" x2="176.72625" y2="707.4865"></line><line style="stroke: #aaa; stroke-width: 1.41421;" x1="190.79575" y1="662.3456666666666" x2="149.02425" y2="685.3261666666666"></line><line style="stroke: #aaa; stroke-width: 1;" x1="190.79575" y1="662.3456666666666" x2="236.02404666666664" y2="679.3918333333335"></line><line style="stroke: #aaa; stroke-width: 1;" x1="190.79575" y1="662.3456666666666" x2="176.72625" y2="707.4865"></line><line style="stroke: #aaa; stroke-width: 1.41421;" x1="190.79575" y1="662.3456666666666" x2="218.11360166666665" y2="733.6431666666667"></line><line style="stroke: #aaa; stroke-width: 1.41421;" x1="236.02404666666664" y1="679.3918333333335" x2="176.72625" y2="707.4865"></line><line style="stroke: #aaa; stroke-width: 1;" x1="236.02404666666664" y1="679.3918333333335" x2="286.7425833333333" y2="695.2885"></line><line style="stroke: #aaa; stroke-width: 1;" x1="236.02404666666664" y1="679.3918333333335" x2="218.11360166666665" y2="733.6431666666667"></line><line style="stroke: #aaa; stroke-width: 1.41421;" x1="236.02404666666664" y1="679.3918333333335" x2="271.2167333333333" y2="757.5135"></line><line style="stroke: #aaa; stroke-width: 1.41421;" x1="286.7425833333333" y1="695.2885" x2="218.11360166666665" y2="733.6431666666667"></line><line style="stroke: #aaa; stroke-width: 1;" x1="286.7425833333333" y1="695.2885" x2="342.07375" y2="706.3876666666666"></line><line style="stroke: #aaa; stroke-width: 1;" x1="286.7425833333333" y1="695.2885" x2="271.2167333333333" y2="757.5135"></line><line style="stroke: #aaa; stroke-width: 1.41421;" x1="286.7425833333333" y1="695.2885" x2="333.1868166666667" y2="774.0815"></line><line style="stroke: #aaa; stroke-width: 1.41421;" x1="342.07375" y1="706.3876666666666" x2="271.2167333333333" y2="757.5135"></line><line style="stroke: #aaa; stroke-width: 1;" x1="342.07375" y1="706.3876666666666" x2="400" y2="710.3586666666667"></line><line style="stroke: #aaa; stroke-width: 1;" x1="342.07375" y1="706.3876666666666" x2="333.1868166666667" y2="774.0815"></line><line style="stroke: #aaa; stroke-width: 1.41421;" x1="342.07375" y1="706.3876666666666" x2="400" y2="780"></line><line style="stroke: #aaa; stroke-width: 1.41421;" x1="400" y1="710.3586666666667" x2="333.1868166666667" y2="774.0815"></line><line style="stroke: #aaa; stroke-width: 1;" x1="400" y1="710.3586666666667" x2="457.92625" y2="706.3876666666666"></line><line style="stroke: #aaa; stroke-width: 1;" x1="400" y1="710.3586666666667" x2="400" y2="780"></line><line style="stroke: #aaa; stroke-width: 1.41421;" x1="400" y1="710.3586666666667" x2="466.8131833333333" y2="774.0815"></line><line style="stroke: #aaa; stroke-width: 1.41421;" x1="457.92625" y1="706.3876666666666" x2="400" y2="780"></line><line style="stroke: #aaa; stroke-width: 1;" x1="457.92625" y1="706.3876666666666" x2="513.2574166666667" y2="695.2885"></line><line style="stroke: #aaa; stroke-width: 1;" x1="457.92625" y1="706.3876666666666" x2="466.8131833333333" y2="774.0815"></line><line style="stroke: #aaa; stroke-width: 1.41421;" x1="457.92625" y1="706.3876666666666" x2="528.7819999999999" y2="757.5135"></line><line style="stroke: #aaa; stroke-width: 1.41421;" x1="513.2574166666667" y1="695.2885" x2="466.8131833333333" y2="774.0815"></line><line style="stroke: #aaa; stroke-width: 1;" x1="513.2574166666667" y1="695.2885" x2="563.9763333333334" y2="679.3918333333335"></line><line style="stroke: #aaa; stroke-width: 1;" x1="513.2574166666667" y1="695.2885" x2="528.7819999999999" y2="757.5135"></line><line style="stroke: #aaa; stroke-width: 1.41421;" x1="513.2574166666667" y1="695.2885" x2="581.887" y2="733.6431666666667"></line><line style="stroke: #aaa; stroke-width: 1.41421;" x1="563.9763333333334" y1="679.3918333333335" x2="528.7819999999999" y2="757.5135"></line><line style="stroke: #aaa; stroke-width: 1;" x1="563.9763333333334" y1="679.3918333333335" x2="609.2058333333334" y2="662.3456666666666"></line><line style="stroke: #aaa; stroke-width: 1;" x1="563.9763333333334" y1="679.3918333333335" x2="581.887" y2="733.6431666666667"></line><line style="stroke: #aaa; stroke-width: 1.41421;" x1="563.9763333333334" y1="679.3918333333335" x2="623.2753333333334" y2="707.4865"></line><line style="stroke: #aaa; stroke-width: 1.41421;" x1="609.2058333333334" y1="662.3456666666666" x2="581.887" y2="733.6431666666667"></line><line style="stroke: #aaa; stroke-width: 1;" x1="609.2058333333334" y1="662.3456666666666" x2="649.5935000000001" y2="649.5935000000001"></line><line style="stroke: #aaa; stroke-width: 1;" x1="609.2058333333334" y1="662.3456666666666" x2="623.2753333333334" y2="707.4865"></line><line style="stroke: #aaa; stroke-width: 1.41421;" x1="609.2058333333334" y1="662.3456666666666" x2="650.9773333333334" y2="685.3261666666666"></line><line style="stroke: #aaa; stroke-width: 1.41421;" x1="649.5935000000001" y1="649.5935000000001" x2="623.2753333333334" y2="707.4865"></line><line style="stroke: #aaa; stroke-width: 1;" x1="649.5935000000001" y1="649.5935000000001" x2="685.3261666666666" y2="650.9773333333334"></line><line style="stroke: #aaa; stroke-width: 1;" x1="649.5935000000001" y1="649.5935000000001" x2="650.9773333333334" y2="685.3261666666666"></line><line style="stroke: #aaa; stroke-width: 1.41421;" x1="649.5935000000001" y1="649.5935000000001" x2="668.7011666666667" y2="668.7011666666667"></line><line style="stroke: #aaa; stroke-width: 1.41421;" x1="685.3261666666666" y1="650.9773333333334" x2="650.9773333333334" y2="685.3261666666666"></line><line style="stroke: #aaa; stroke-width: 1;" x1="668.7011666666667" y1="131.29946666666666" x2="685.3261666666666" y2="149.02425"></line><line style="stroke: #aaa; stroke-width: 1;" x1="685.3261666666666" y1="149.02425" x2="707.4865" y2="176.72625"></line><line style="stroke: #aaa; stroke-width: 1;" x1="707.4865" y1="176.72625" x2="733.6431666666667" y2="218.11360166666665"></line><line style="stroke: #aaa; stroke-width: 1;" x1="733.6431666666667" y1="218.11360166666665" x2="757.5135" y2="271.2167333333333"></line><line style="stroke: #aaa; stroke-width: 1;" x1="757.5135" y1="271.2167333333333" x2="774.0815" y2="333.1868166666667"></line><line style="stroke: #aaa; stroke-width: 1;" x1="774.0815" y1="333.1868166666667" x2="780" y2="400"></line><line style="stroke: #aaa; stroke-width: 1;" x1="780" y1="400" x2="774.0815" y2="466.8131833333333"></line><line style="stroke: #aaa; stroke-width: 1;" x1="774.0815" y1="466.8131833333333" x2="757.5135" y2="528.7819999999999"></line><line style="stroke: #aaa; stroke-width: 1;" x1="757.5135" y1="528.7819999999999" x2="733.6431666666667" y2="581.887"></line><line style="stroke: #aaa; stroke-width: 1;" x1="733.6431666666667" y1="581.887" x2="707.4865" y2="623.2753333333334"></line><line style="stroke: #aaa; stroke-width: 1;" x1="707.4865" y1="623.2753333333334" x2="685.3261666666666" y2="650.9773333333334"></line><line style="stroke: #aaa; stroke-width: 1;" x1="685.3261666666666" y1="650.9773333333334" x2="668.7011666666667" y2="668.7011666666667"></line><line style="stroke: #aaa; stroke-width: 1;" x1="131.29946666666666" y1="668.7011666666667" x2="149.02425" y2="685.3261666666666"></line><line style="stroke: #aaa; stroke-width: 1;" x1="149.02425" y1="685.3261666666666" x2="176.72625" y2="707.4865"></line><line style="stroke: #aaa; stroke-width: 1;" x1="176.72625" y1="707.4865" x2="218.11360166666665" y2="733.6431666666667"></line><line style="stroke: #aaa; stroke-width: 1;" x1="218.11360166666665" y1="733.6431666666667" x2="271.2167333333333" y2="757.5135"></line><line style="stroke: #aaa; stroke-width: 1;" x1="271.2167333333333" y1="757.5135" x2="333.1868166666667" y2="774.0815"></line><line style="stroke: #aaa; stroke-width: 1;" x1="333.1868166666667" y1="774.0815" x2="400" y2="780"></line><line style="stroke: #aaa; stroke-width: 1;" x1="400" y1="780" x2="466.8131833333333" y2="774.0815"></line><line style="stroke: #aaa; stroke-width: 1;" x1="466.8131833333333" y1="774.0815" x2="528.7819999999999" y2="757.5135"></line><line style="stroke: #aaa; stroke-width: 1;" x1="528.7819999999999" y1="757.5135" x2="581.887" y2="733.6431666666667"></line><line style="stroke: #aaa; stroke-width: 1;" x1="581.887" y1="733.6431666666667" x2="623.2753333333334" y2="707.4865"></line><line style="stroke: #aaa; stroke-width: 1;" x1="623.2753333333334" y1="707.4865" x2="650.9773333333334" y2="685.3261666666666"></line><line style="stroke: #aaa; stroke-width: 1;" x1="650.9773333333334" y1="685.3261666666666" x2="668.7011666666667" y2="668.7011666666667"></line><circle r="10" cx="131.29946666666666" cy="131.29946666666666" style="stroke: #000; fill: #69b3a2;"></circle><circle r="10" cx="149.02425" cy="114.67351666666667" style="stroke: #000; fill: #69b3a2;"></circle><circle r="10" cx="176.72625" cy="92.51223333333334" style="stroke: #000; fill: #69b3a2;"></circle><circle r="10" cx="218.11360166666665" cy="66.35746666666667" style="stroke: #000; fill: #69b3a2;"></circle><circle r="10" cx="271.2167333333333" cy="42.48808333333332" style="stroke: #000; fill: #69b3a2;"></circle><circle r="10" cx="333.1868166666667" cy="25.919766666666664" style="stroke: #000; fill: #69b3a2;"></circle><circle r="10" cx="400" cy="20" style="stroke: #000; fill: #69b3a2;"></circle><circle r="10" cx="466.8131833333333" cy="25.919766666666664" style="stroke: #000; fill: #69b3a2;"></circle><circle r="10" cx="528.7819999999999" cy="42.48808333333332" style="stroke: #000; fill: #69b3a2;"></circle><circle r="10" cx="581.887" cy="66.35746666666667" style="stroke: #000; fill: #69b3a2;"></circle><circle r="10" cx="623.2753333333334" cy="92.51223333333334" style="stroke: #000; fill: #69b3a2;"></circle><circle r="10" cx="650.9773333333334" cy="114.67351666666667" style="stroke: #000; fill: #69b3a2;"></circle><circle r="10" cx="668.7011666666667" cy="131.29946666666666" style="stroke: #000; fill: #69b3a2;"></circle><circle r="10" cx="114.67351666666667" cy="149.02425" style="stroke: #000; fill: #69b3a2;"></circle><circle r="10" cx="150.40491666666668" cy="150.40491666666668" style="stroke: #000; fill: #69b3a2;"></circle><circle r="10" cx="190.79575" cy="137.65591666666668" style="stroke: #000; fill: #69b3a2;"></circle><circle r="10" cx="236.02404666666664" cy="120.60721666666667" style="stroke: #000; fill: #69b3a2;"></circle><circle r="10" cx="286.7425833333333" cy="104.71181666666668" style="stroke: #000; fill: #69b3a2;"></circle><circle r="10" cx="342.07375" cy="93.61233333333334" style="stroke: #000; fill: #69b3a2;"></circle><circle r="10" cx="400" cy="89.64291666666668" style="stroke: #000; fill: #69b3a2;"></circle><circle r="10" cx="457.92625" cy="93.61233333333334" style="stroke: #000; fill: #69b3a2;"></circle><circle r="10" cx="513.2574166666667" cy="104.71181666666668" style="stroke: #000; fill: #69b3a2;"></circle><circle r="10" cx="563.9763333333334" cy="120.60721666666667" style="stroke: #000; fill: #69b3a2;"></circle><circle r="10" cx="609.2058333333334" cy="137.65591666666668" style="stroke: #000; fill: #69b3a2;"></circle><circle r="10" cx="649.5935000000001" cy="150.40491666666668" style="stroke: #000; fill: #69b3a2;"></circle><circle r="10" cx="685.3261666666666" cy="149.02425" style="stroke: #000; fill: #69b3a2;"></circle><circle r="10" cx="92.51223333333334" cy="176.72625" style="stroke: #000; fill: #69b3a2;"></circle><circle r="10" cx="137.65591666666668" cy="190.79575" style="stroke: #000; fill: #69b3a2;"></circle><circle r="10" cx="187.60792999999998" cy="187.60792999999998" style="stroke: #000; fill: #69b3a2;"></circle><circle r="10" cx="239.06027833333332" cy="177.95903333333334" style="stroke: #000; fill: #69b3a2;"></circle><circle r="10" cx="291.68195000000003" cy="167.61226666666667" style="stroke: #000; fill: #69b3a2;"></circle><circle r="10" cx="345.46841666666666" cy="160.12120000000002" style="stroke: #000; fill: #69b3a2;"></circle><circle r="10" cx="400" cy="157.4168666666667" style="stroke: #000; fill: #69b3a2;"></circle><circle r="10" cx="454.5315833333333" cy="160.12120000000002" style="stroke: #000; fill: #69b3a2;"></circle><circle r="10" cx="508.31804999999997" cy="167.61226666666667" style="stroke: #000; fill: #69b3a2;"></circle><circle r="10" cx="560.9395000000001" cy="177.95903333333334" style="stroke: #000; fill: #69b3a2;"></circle><circle r="10" cx="612.3915000000001" cy="187.60792999999998" style="stroke: #000; fill: #69b3a2;"></circle><circle r="10" cx="662.3456666666666" cy="190.79575" style="stroke: #000; fill: #69b3a2;"></circle><circle r="10" cx="707.4865" cy="176.72625" style="stroke: #000; fill: #69b3a2;"></circle><circle r="10" cx="66.35746666666667" cy="218.11360166666665" style="stroke: #000; fill: #69b3a2;"></circle><circle r="10" cx="120.60721666666667" cy="236.02404666666664" style="stroke: #000; fill: #69b3a2;"></circle><circle r="10" cx="177.95903333333334" cy="239.06027833333332" style="stroke: #000; fill: #69b3a2;"></circle><circle r="10" cx="234.81422166666667" cy="234.81422166666667" style="stroke: #000; fill: #69b3a2;"></circle><circle r="10" cx="290.60813333333334" cy="228.7283316666667" style="stroke: #000; fill: #69b3a2;"></circle><circle r="10" cx="345.52858333333336" cy="223.96537999999998" style="stroke: #000; fill: #69b3a2;"></circle><circle r="10" cx="400" cy="222.20446000000004" style="stroke: #000; fill: #69b3a2;"></circle><circle r="10" cx="454.4714166666667" cy="223.96537999999998" style="stroke: #000; fill: #69b3a2;"></circle><circle r="10" cx="509.3918666666667" cy="228.7283316666667" style="stroke: #000; fill: #69b3a2;"></circle><circle r="10" cx="565.186" cy="234.81422166666667" style="stroke: #000; fill: #69b3a2;"></circle><circle r="10" cx="622.0403333333334" cy="239.06027833333332" style="stroke: #000; fill: #69b3a2;"></circle><circle r="10" cx="679.3918333333335" cy="236.02404666666664" style="stroke: #000; fill: #69b3a2;"></circle><circle r="10" cx="733.6431666666667" cy="218.11360166666665" style="stroke: #000; fill: #69b3a2;"></circle><circle r="10" cx="42.48808333333332" cy="271.2167333333333" style="stroke: #000; fill: #69b3a2;"></circle><circle r="10" cx="104.71181666666668" cy="286.7425833333333" style="stroke: #000; fill: #69b3a2;"></circle><circle r="10" cx="167.61226666666667" cy="291.68195000000003" style="stroke: #000; fill: #69b3a2;"></circle><circle r="10" cx="228.7283316666667" cy="290.60813333333334" style="stroke: #000; fill: #69b3a2;"></circle><circle r="10" cx="287.48453333333333" cy="287.48453333333333" style="stroke: #000; fill: #69b3a2;"></circle><circle r="10" cx="344.2869333333333" cy="284.7776666666667" style="stroke: #000; fill: #69b3a2;"></circle><circle r="10" cx="400" cy="283.7466" style="stroke: #000; fill: #69b3a2;"></circle><circle r="10" cx="455.7130666666667" cy="284.7776666666667" style="stroke: #000; fill: #69b3a2;"></circle><circle r="10" cx="512.5154666666667" cy="287.48453333333333" style="stroke: #000; fill: #69b3a2;"></circle><circle r="10" cx="571.2723333333333" cy="290.60813333333334" style="stroke: #000; fill: #69b3a2;"></circle><circle r="10" cx="632.389" cy="291.68195000000003" style="stroke: #000; fill: #69b3a2;"></circle><circle r="10" cx="695.2885" cy="286.7425833333333" style="stroke: #000; fill: #69b3a2;"></circle><circle r="10" cx="757.5135" cy="271.2167333333333" style="stroke: #000; fill: #69b3a2;"></circle><circle r="10" cx="25.919766666666664" cy="333.1868166666667" style="stroke: #000; fill: #69b3a2;"></circle><circle r="10" cx="93.61233333333334" cy="342.07375" style="stroke: #000; fill: #69b3a2;"></circle><circle r="10" cx="160.12120000000002" cy="345.46841666666666" style="stroke: #000; fill: #69b3a2;"></circle><circle r="10" cx="223.96537999999998" cy="345.52858333333336" style="stroke: #000; fill: #69b3a2;"></circle><circle r="10" cx="284.7776666666667" cy="344.2869333333333" style="stroke: #000; fill: #69b3a2;"></circle><circle r="10" cx="343.08644999999996" cy="343.08644999999996" style="stroke: #000; fill: #69b3a2;"></circle><circle r="10" cx="400" cy="342.6181" style="stroke: #000; fill: #69b3a2;"></circle><circle r="10" cx="456.91355000000004" cy="343.08644999999996" style="stroke: #000; fill: #69b3a2;"></circle><circle r="10" cx="515.2223333333334" cy="344.2869333333333" style="stroke: #000; fill: #69b3a2;"></circle><circle r="10" cx="576.0349999999999" cy="345.52858333333336" style="stroke: #000; fill: #69b3a2;"></circle><circle r="10" cx="639.8781666666666" cy="345.46841666666666" style="stroke: #000; fill: #69b3a2;"></circle><circle r="10" cx="706.3876666666666" cy="342.07375" style="stroke: #000; fill: #69b3a2;"></circle><circle r="10" cx="774.0815" cy="333.1868166666667" style="stroke: #000; fill: #69b3a2;"></circle><circle r="10" cx="20" cy="400" style="stroke: #000; fill: #69b3a2;"></circle><circle r="10" cx="89.64291666666668" cy="400" style="stroke: #000; fill: #69b3a2;"></circle><circle r="10" cx="157.4168666666667" cy="400" style="stroke: #000; fill: #69b3a2;"></circle><circle r="10" cx="222.20446000000004" cy="400" style="stroke: #000; fill: #69b3a2;"></circle><circle r="10" cx="283.7466" cy="400" style="stroke: #000; fill: #69b3a2;"></circle><circle r="10" cx="342.6181" cy="400" style="stroke: #000; fill: #69b3a2;"></circle><circle r="10" cx="400" cy="400" style="stroke: #000; fill: #69b3a2;"></circle><circle r="10" cx="457.3819" cy="400" style="stroke: #000; fill: #69b3a2;"></circle><circle r="10" cx="516.2534" cy="400" style="stroke: #000; fill: #69b3a2;"></circle><circle r="10" cx="577.7956666666665" cy="400" style="stroke: #000; fill: #69b3a2;"></circle><circle r="10" cx="642.5825" cy="400" style="stroke: #000; fill: #69b3a2;"></circle><circle r="10" cx="710.3586666666667" cy="400" style="stroke: #000; fill: #69b3a2;"></circle><circle r="10" cx="780" cy="400" style="stroke: #000; fill: #69b3a2;"></circle><circle r="10" cx="25.919766666666664" cy="466.8131833333333" style="stroke: #000; fill: #69b3a2;"></circle><circle r="10" cx="93.61233333333334" cy="457.92625" style="stroke: #000; fill: #69b3a2;"></circle><circle r="10" cx="160.12120000000002" cy="454.5315833333333" style="stroke: #000; fill: #69b3a2;"></circle><circle r="10" cx="223.96537999999998" cy="454.4714166666667" style="stroke: #000; fill: #69b3a2;"></circle><circle r="10" cx="284.7776666666667" cy="455.7130666666667" style="stroke: #000; fill: #69b3a2;"></circle><circle r="10" cx="343.08644999999996" cy="456.91355000000004" style="stroke: #000; fill: #69b3a2;"></circle><circle r="10" cx="400" cy="457.3819" style="stroke: #000; fill: #69b3a2;"></circle><circle r="10" cx="456.91355000000004" cy="456.91355000000004" style="stroke: #000; fill: #69b3a2;"></circle><circle r="10" cx="515.2223333333334" cy="455.7130666666667" style="stroke: #000; fill: #69b3a2;"></circle><circle r="10" cx="576.0349999999999" cy="454.4714166666667" style="stroke: #000; fill: #69b3a2;"></circle><circle r="10" cx="639.8781666666666" cy="454.5315833333333" style="stroke: #000; fill: #69b3a2;"></circle><circle r="10" cx="706.3876666666666" cy="457.92625" style="stroke: #000; fill: #69b3a2;"></circle><circle r="10" cx="774.0815" cy="466.8131833333333" style="stroke: #000; fill: #69b3a2;"></circle><circle r="10" cx="42.48808333333332" cy="528.7819999999999" style="stroke: #000; fill: #69b3a2;"></circle><circle r="10" cx="104.71181666666668" cy="513.2574166666667" style="stroke: #000; fill: #69b3a2;"></circle><circle r="10" cx="167.61226666666667" cy="508.31804999999997" style="stroke: #000; fill: #69b3a2;"></circle><circle r="10" cx="228.7283316666667" cy="509.3918666666667" style="stroke: #000; fill: #69b3a2;"></circle><circle r="10" cx="287.48453333333333" cy="512.5154666666667" style="stroke: #000; fill: #69b3a2;"></circle><circle r="10" cx="344.2869333333333" cy="515.2223333333334" style="stroke: #000; fill: #69b3a2;"></circle><circle r="10" cx="400" cy="516.2534" style="stroke: #000; fill: #69b3a2;"></circle><circle r="10" cx="455.7130666666667" cy="515.2223333333334" style="stroke: #000; fill: #69b3a2;"></circle><circle r="10" cx="512.5154666666667" cy="512.5154666666667" style="stroke: #000; fill: #69b3a2;"></circle><circle r="10" cx="571.2723333333333" cy="509.3918666666667" style="stroke: #000; fill: #69b3a2;"></circle><circle r="10" cx="632.389" cy="508.31804999999997" style="stroke: #000; fill: #69b3a2;"></circle><circle r="10" cx="695.2885" cy="513.2574166666667" style="stroke: #000; fill: #69b3a2;"></circle><circle r="10" cx="757.5135" cy="528.7819999999999" style="stroke: #000; fill: #69b3a2;"></circle><circle r="10" cx="66.35746666666667" cy="581.887" style="stroke: #000; fill: #69b3a2;"></circle><circle r="10" cx="120.60721666666667" cy="563.9763333333334" style="stroke: #000; fill: #69b3a2;"></circle><circle r="10" cx="177.95903333333334" cy="560.9395000000001" style="stroke: #000; fill: #69b3a2;"></circle><circle r="10" cx="234.81422166666667" cy="565.186" style="stroke: #000; fill: #69b3a2;"></circle><circle r="10" cx="290.60813333333334" cy="571.2723333333333" style="stroke: #000; fill: #69b3a2;"></circle><circle r="10" cx="345.52858333333336" cy="576.0349999999999" style="stroke: #000; fill: #69b3a2;"></circle><circle r="10" cx="400" cy="577.7956666666665" style="stroke: #000; fill: #69b3a2;"></circle><circle r="10" cx="454.4714166666667" cy="576.0349999999999" style="stroke: #000; fill: #69b3a2;"></circle><circle r="10" cx="509.3918666666667" cy="571.2723333333333" style="stroke: #000; fill: #69b3a2;"></circle><circle r="10" cx="565.186" cy="565.186" style="stroke: #000; fill: #69b3a2;"></circle><circle r="10" cx="622.0403333333334" cy="560.9395000000001" style="stroke: #000; fill: #69b3a2;"></circle><circle r="10" cx="679.3918333333335" cy="563.9763333333334" style="stroke: #000; fill: #69b3a2;"></circle><circle r="10" cx="733.6431666666667" cy="581.887" style="stroke: #000; fill: #69b3a2;"></circle><circle r="10" cx="92.51223333333334" cy="623.2753333333334" style="stroke: #000; fill: #69b3a2;"></circle><circle r="10" cx="137.65591666666668" cy="609.2058333333334" style="stroke: #000; fill: #69b3a2;"></circle><circle r="10" cx="187.60792999999998" cy="612.3915000000001" style="stroke: #000; fill: #69b3a2;"></circle><circle r="10" cx="239.06027833333332" cy="622.0403333333334" style="stroke: #000; fill: #69b3a2;"></circle><circle r="10" cx="291.68195000000003" cy="632.389" style="stroke: #000; fill: #69b3a2;"></circle><circle r="10" cx="345.46841666666666" cy="639.8781666666666" style="stroke: #000; fill: #69b3a2;"></circle><circle r="10" cx="400" cy="642.5825" style="stroke: #000; fill: #69b3a2;"></circle><circle r="10" cx="454.5315833333333" cy="639.8781666666666" style="stroke: #000; fill: #69b3a2;"></circle><circle r="10" cx="508.31804999999997" cy="632.389" style="stroke: #000; fill: #69b3a2;"></circle><circle r="10" cx="560.9395000000001" cy="622.0403333333334" style="stroke: #000; fill: #69b3a2;"></circle><circle r="10" cx="612.3915000000001" cy="612.3915000000001" style="stroke: #000; fill: #69b3a2;"></circle><circle r="10" cx="662.3456666666666" cy="609.2058333333334" style="stroke: #000; fill: #69b3a2;"></circle><circle r="10" cx="707.4865" cy="623.2753333333334" style="stroke: #000; fill: #69b3a2;"></circle><circle r="10" cx="114.67351666666667" cy="650.9773333333334" style="stroke: #000; fill: #69b3a2;"></circle><circle r="10" cx="150.40491666666668" cy="649.5935000000001" style="stroke: #000; fill: #69b3a2;"></circle><circle r="10" cx="190.79575" cy="662.3456666666666" style="stroke: #000; fill: #69b3a2;"></circle><circle r="10" cx="236.02404666666664" cy="679.3918333333335" style="stroke: #000; fill: #69b3a2;"></circle><circle r="10" cx="286.7425833333333" cy="695.2885" style="stroke: #000; fill: #69b3a2;"></circle><circle r="10" cx="342.07375" cy="706.3876666666666" style="stroke: #000; fill: #69b3a2;"></circle><circle r="10" cx="400" cy="710.3586666666667" style="stroke: #000; fill: #69b3a2;"></circle><circle r="10" cx="457.92625" cy="706.3876666666666" style="stroke: #000; fill: #69b3a2;"></circle><circle r="10" cx="513.2574166666667" cy="695.2885" style="stroke: #000; fill: #69b3a2;"></circle><circle r="10" cx="563.9763333333334" cy="679.3918333333335" style="stroke: #000; fill: #69b3a2;"></circle><circle r="10" cx="609.2058333333334" cy="662.3456666666666" style="stroke: #000; fill: #69b3a2;"></circle><circle r="10" cx="649.5935000000001" cy="649.5935000000001" style="stroke: #000; fill: #69b3a2;"></circle><circle r="10" cx="685.3261666666666" cy="650.9773333333334" style="stroke: #000; fill: #69b3a2;"></circle><circle r="10" cx="131.29946666666666" cy="668.7011666666667" style="stroke: #000; fill: #69b3a2;"></circle><circle r="10" cx="149.02425" cy="685.3261666666666" style="stroke: #000; fill: #69b3a2;"></circle><circle r="10" cx="176.72625" cy="707.4865" style="stroke: #000; fill: #69b3a2;"></circle><circle r="10" cx="218.11360166666665" cy="733.6431666666667" style="stroke: #000; fill: #69b3a2;"></circle><circle r="10" cx="271.2167333333333" cy="757.5135" style="stroke: #000; fill: #69b3a2;"></circle><circle r="10" cx="333.1868166666667" cy="774.0815" style="stroke: #000; fill: #69b3a2;"></circle><circle r="10" cx="400" cy="780" style="stroke: #000; fill: #69b3a2;"></circle><circle r="10" cx="466.8131833333333" cy="774.0815" style="stroke: #000; fill: #69b3a2;"></circle><circle r="10" cx="528.7819999999999" cy="757.5135" style="stroke: #000; fill: #69b3a2;"></circle><circle r="10" cx="581.887" cy="733.6431666666667" style="stroke: #000; fill: #69b3a2;"></circle><circle r="10" cx="623.2753333333334" cy="707.4865" style="stroke: #000; fill: #69b3a2;"></circle><circle r="10" cx="650.9773333333334" cy="685.3261666666666" style="stroke: #000; fill: #69b3a2;"></circle><circle r="10" cx="668.7011666666667" cy="668.7011666666667" style="stroke: #000; fill: #69b3a2;"></circle></svg>